<svg width="128" height="128" viewBox="0 0 128 128" fill="none" xmlns="http://www.w3.org/2000/svg">
<path fill-rule="evenodd" clip-rule="evenodd" d="M51.2046 72.3174C51.0764 72.7664 50.8198 73.1512 50.5633 73.4077C50.3709 73.6002 50.1143 73.7926 49.7295 73.8567C49.4729 73.9208 49.0881 73.985 48.6392 73.985H46.3302V67.9561H48.575C49.0881 67.9561 49.4729 68.0203 49.7295 68.0844C50.0502 68.2127 50.3709 68.4051 50.6274 68.6616C50.884 68.9182 51.0764 69.2389 51.2046 69.6237C51.3329 70.0085 51.397 70.4575 51.397 71.0347C51.397 71.5478 51.3329 71.9326 51.2046 72.3174ZM48.4468 73.0229C48.8316 73.0229 49.0881 73.0229 49.2164 72.9588C49.4088 72.8946 49.6012 72.8305 49.7295 72.7022C49.8578 72.574 49.986 72.3816 50.0502 72.125C50.1143 71.8685 50.1785 71.4836 50.1785 71.0347C50.1785 70.5857 50.1143 70.2009 50.0502 69.9444C49.986 69.6878 49.8578 69.4954 49.7295 69.3671C49.5371 69.2389 49.4088 69.1747 49.1523 69.1106C48.9599 69.0464 48.6392 69.0464 48.1261 69.0464H47.5488V73.0229H48.4468Z" fill="white"/>
<path fill-rule="evenodd" clip-rule="evenodd" d="M30.6167 68.0202L33.0539 74.049H31.7071L31.194 72.7022H28.7568L28.2437 74.049H26.9609L29.334 68.0202H30.6167ZM29.9754 69.3671L29.1416 71.6119H30.8091L29.9754 69.3671Z" fill="white"/>
<path fill-rule="evenodd" clip-rule="evenodd" d="M37.4153 70.1368C37.736 70.5216 37.9284 71.0989 37.9284 71.8044C37.9284 72.574 37.736 73.0871 37.3511 73.5361C37.0304 73.9209 36.5815 74.1133 36.0684 74.1133C35.8118 74.1133 35.6194 74.0491 35.427 73.985C35.39 73.9603 35.3505 73.9356 35.3096 73.91C35.1382 73.8026 34.941 73.6791 34.7857 73.4719V75.6526H33.6953V69.6237H34.7857V70.2651C34.9139 70.0727 35.1063 69.8803 35.3629 69.752C35.5553 69.6237 35.8118 69.5596 36.1325 69.5596C36.6456 69.5596 37.0304 69.752 37.4153 70.1368ZM35.8118 73.2154C36.0684 73.2154 36.2608 73.0871 36.4532 72.8947C36.6456 72.6381 36.7098 72.3175 36.7098 71.8044C36.7098 71.3554 36.6456 70.9706 36.4532 70.7782C36.2608 70.5858 36.0043 70.4575 35.7477 70.4575C35.4912 70.4575 35.2346 70.5858 35.0422 70.7782C34.8498 70.9706 34.7857 71.2913 34.7857 71.7402C34.7857 72.2533 34.9139 72.574 35.1063 72.8306C35.2988 73.0871 35.5553 73.2154 35.8118 73.2154Z" fill="white"/>
<path fill-rule="evenodd" clip-rule="evenodd" d="M41.2635 69.5596C40.9428 69.5596 40.6862 69.6237 40.4938 69.752C40.2373 69.8803 40.0449 70.0727 39.9166 70.2651V69.6237H38.8263V75.6526H39.9807V73.4719C40.1361 73.6791 40.3333 73.8026 40.5047 73.91C40.5456 73.9356 40.585 73.9603 40.6221 73.985C40.8145 74.0491 41.0069 74.1133 41.2635 74.1133C41.7766 74.1133 42.2255 73.9209 42.5462 73.5361C42.931 73.1512 43.0593 72.574 43.0593 71.8044C43.0593 71.0989 42.8669 70.5216 42.5462 70.1368C42.1614 69.752 41.7766 69.5596 41.2635 69.5596ZM41.6483 72.8947C41.4559 73.0871 41.2635 73.2154 41.0069 73.2154C40.7504 73.2154 40.4938 73.0871 40.3014 72.8306C40.109 72.574 39.9807 72.2533 39.9807 71.7402C39.9807 71.2913 40.0449 70.9706 40.2373 70.7782C40.4297 70.5858 40.6862 70.4575 40.9428 70.4575C41.1993 70.4575 41.4559 70.5858 41.6483 70.7782C41.8407 70.9706 41.9048 71.3554 41.9048 71.8044C41.9048 72.3175 41.7766 72.6381 41.6483 72.8947Z" fill="white"/>
<path fill-rule="evenodd" clip-rule="evenodd" d="M54.2192 74.1132C54.7323 74.1132 55.1171 73.9849 55.4378 73.7925C55.7584 73.6001 56.015 73.2794 56.1433 72.8305L54.9888 72.638C54.9247 72.8305 54.8605 73.0229 54.7323 73.087C54.604 73.1511 54.4757 73.2153 54.2833 73.2153C54.0267 73.2153 53.7702 73.1511 53.6419 72.9587C53.4495 72.7663 53.3854 72.5098 53.3854 72.125H56.2715C56.2715 71.227 56.0791 70.5857 55.7584 70.1367C55.3736 69.6878 54.8605 69.4953 54.2192 69.4953C53.6419 69.4953 53.1288 69.6878 52.8081 70.1367C52.4233 70.5215 52.2309 71.0988 52.2309 71.8684C52.2309 72.4456 52.3592 72.9587 52.6799 73.4077C52.9364 73.8566 53.4495 74.1132 54.2192 74.1132ZM53.5778 70.7139C53.7702 70.5215 53.9626 70.4574 54.2192 70.4574C54.4757 70.4574 54.6681 70.5215 54.7964 70.7139C54.9247 70.9064 55.0529 71.1629 55.0529 71.4836H53.3212C53.3212 71.1629 53.3854 70.9064 53.5778 70.7139Z" fill="white"/>
<path d="M59.9272 69.6237H61.1458L59.4141 73.985H58.388L56.5921 69.6237H57.7466L58.5804 71.8685L58.8369 72.6381C58.8614 72.5646 58.8859 72.5005 58.9068 72.4457C58.9407 72.357 58.9652 72.2929 58.9652 72.2533C58.9973 72.1891 59.0133 72.125 59.0293 72.0609C59.0454 71.9967 59.0614 71.9326 59.0935 71.8685L59.9272 69.6237Z" fill="white"/>
<path fill-rule="evenodd" clip-rule="evenodd" d="M64.0963 73.087C63.968 73.2153 63.8397 73.2153 63.6473 73.2153C63.3908 73.2153 63.1342 73.1511 63.0059 72.9587C62.8135 72.7663 62.7494 72.5098 62.7494 72.125H65.6355C65.6355 71.227 65.4431 70.5857 65.1224 70.1367C64.7376 69.6878 64.2245 69.4953 63.5832 69.4953C63.0059 69.4953 62.4928 69.6878 62.1722 70.1367C61.7873 70.5215 61.5949 71.0988 61.5949 71.8684C61.5949 72.4456 61.7232 72.9587 62.0439 73.4077C62.4287 73.9208 63.0059 74.1773 63.7114 74.1773C64.2245 74.1773 64.6093 74.0491 64.93 73.8566C65.2507 73.6642 65.5073 73.3436 65.6355 72.8946L64.4811 72.7022C64.4383 72.7449 64.3956 72.7948 64.3528 72.8447C64.2673 72.9445 64.1818 73.0442 64.0963 73.087ZM62.9418 70.7139C63.1342 70.5215 63.3266 70.4574 63.5832 70.4574C63.8397 70.4574 64.0321 70.5215 64.1604 70.7139C64.2887 70.9064 64.4169 71.1629 64.4169 71.4836H62.6852C62.6852 71.1629 62.8135 70.9064 62.9418 70.7139Z" fill="white"/>
<path d="M66.5334 67.9561H67.6879V73.985H66.5334V67.9561Z" fill="white"/>
<path fill-rule="evenodd" clip-rule="evenodd" d="M72.4981 70.2009C72.0491 69.752 71.536 69.5596 70.8947 69.5596C70.4457 69.5596 70.0609 69.6237 69.7402 69.8161C69.4195 70.0085 69.0988 70.2651 68.9064 70.6499C68.714 71.0347 68.6499 71.3554 68.6499 71.7402C68.6499 72.2533 68.714 72.7023 68.9064 73.023C69.0988 73.3436 69.3554 73.6643 69.7402 73.7926C70.125 73.9209 70.5099 74.0491 70.8947 74.0491C71.536 74.0491 72.1133 73.8567 72.4981 73.4078C72.8829 72.9588 73.1395 72.4457 73.1395 71.7402C73.1395 71.163 72.9471 70.6499 72.4981 70.2009ZM71.6643 72.8305C71.4719 73.0871 71.2154 73.1512 70.8947 73.1512C70.574 73.1512 70.3174 73.023 70.125 72.8305C69.9326 72.574 69.8044 72.2533 69.8044 71.8044C69.8044 71.3554 69.9326 71.0347 70.125 70.7782C70.3174 70.5216 70.574 70.4575 70.8947 70.4575C71.2154 70.4575 71.4719 70.5858 71.6643 70.7782C71.8567 71.0347 71.985 71.3554 71.985 71.7402C71.985 72.2533 71.8567 72.6381 71.6643 72.8305Z" fill="white"/>
<path fill-rule="evenodd" clip-rule="evenodd" d="M75.705 69.752C75.8974 69.6237 76.1539 69.5596 76.4746 69.5596C76.9877 69.5596 77.4367 69.752 77.7573 70.1368C78.078 70.5216 78.2704 71.0989 78.2704 71.8044C78.2704 72.574 78.1422 73.1512 77.7573 73.5361C77.4367 73.9209 76.9877 74.1133 76.4746 74.1133C76.2181 74.1133 76.0257 74.0491 75.8332 73.985C75.7962 73.9603 75.7567 73.9356 75.7158 73.91C75.5444 73.8026 75.3472 73.679 75.1919 73.4719V75.6526H74.0374V69.6237H75.1277V70.2651C75.256 70.0727 75.4484 69.8803 75.705 69.752ZM76.2181 73.2154C76.4746 73.2154 76.667 73.0871 76.8594 72.8947C77.0518 72.6381 77.116 72.3175 77.116 71.8044C77.116 71.3554 77.0518 70.9706 76.8594 70.7782C76.667 70.5858 76.4105 70.4575 76.1539 70.4575C75.8974 70.4575 75.6408 70.5858 75.4484 70.7782C75.256 70.9706 75.1919 71.2913 75.1919 71.7402C75.1919 72.2533 75.3201 72.574 75.5126 72.8306C75.705 73.0871 75.9615 73.2154 76.2181 73.2154Z" fill="white"/>
<path d="M84.2993 70.714C84.3634 70.8423 84.4276 71.0989 84.4276 71.5478V74.0491H85.582V71.2271C85.582 70.7782 85.5179 70.5216 85.4538 70.3292C85.3255 70.0727 85.1972 69.8803 84.9407 69.752C84.7483 69.6237 84.4276 69.5596 84.1069 69.5596C83.8503 69.5596 83.5938 69.6237 83.4014 69.752C83.209 69.8803 82.9524 70.0727 82.76 70.2651C82.6317 70.0085 82.4393 69.8803 82.2469 69.752C82.0545 69.6237 81.798 69.5596 81.5414 69.5596C81.0283 69.5596 80.5794 69.8161 80.1945 70.2651V69.6879H79.1042V74.0491H80.2587V71.9326C80.2587 71.4837 80.2587 71.2271 80.3228 71.0347C80.3869 70.8423 80.5152 70.714 80.6435 70.5858C80.7718 70.5216 80.9642 70.4575 81.1566 70.4575C81.2849 70.4575 81.4131 70.4575 81.5414 70.5216C81.6055 70.5858 81.6697 70.6499 81.7338 70.7782C81.798 70.9064 81.798 71.163 81.798 71.6119V73.985H82.9524V71.8685C82.9524 71.4837 82.9524 71.163 83.0166 70.9706C83.0807 70.7782 83.209 70.6499 83.3372 70.5216C83.4655 70.3933 83.6579 70.3933 83.7862 70.3933C84.0427 70.4575 84.171 70.5216 84.2993 70.714Z" fill="white"/>
<path fill-rule="evenodd" clip-rule="evenodd" d="M89.7509 73.7925C89.4302 73.9849 89.0454 74.1132 88.5323 74.1132C87.7626 74.1132 87.1854 73.8566 86.993 73.4077C86.6723 72.9587 86.544 72.4456 86.544 71.8684C86.544 71.0988 86.7364 70.5215 87.1213 70.1367C87.4419 69.6878 87.955 69.4953 88.5323 69.4953C89.1736 69.4953 89.6867 69.6878 90.0716 70.1367C90.3922 70.5857 90.5847 71.227 90.5847 72.125H87.6985C87.6985 72.5098 87.7626 72.7663 87.955 72.9587C88.0833 73.1511 88.3399 73.2153 88.5964 73.2153C88.7888 73.2153 88.9171 73.1511 89.0454 73.087C89.1736 73.0229 89.2378 72.8305 89.3019 72.638L90.4564 72.8305C90.3281 73.2794 90.0716 73.6001 89.7509 73.7925ZM88.4681 70.4574C88.2116 70.4574 88.0192 70.5215 87.8268 70.7139C87.6985 70.9064 87.6344 71.1629 87.5702 71.4836H89.3019C89.3019 71.1629 89.1736 70.9064 89.0454 70.7139C88.9171 70.5215 88.7247 70.4574 88.4681 70.4574Z" fill="white"/>
<path d="M94.1764 70.9064C94.2406 71.0347 94.2406 71.3553 94.2406 71.8042V74.0491H95.395V71.3554C95.395 71.0347 95.395 70.7781 95.3309 70.5857C95.2667 70.3933 95.2026 70.265 95.0743 70.0726C94.9461 69.9444 94.8178 69.8161 94.5612 69.7519C94.3688 69.6878 94.1123 69.6237 93.8557 69.6237C93.2785 69.6237 92.7654 69.8802 92.3806 70.3933V69.7519H91.2903V74.1133H92.4447V72.125C92.4447 71.6119 92.4447 71.2912 92.5089 71.0988C92.573 70.9064 92.7013 70.7781 92.8295 70.6499C92.9578 70.5216 93.1502 70.4574 93.3426 70.4574C93.4709 70.4574 93.6633 70.5216 93.7275 70.5857C94.0481 70.6499 94.1123 70.714 94.1764 70.9064Z" fill="white"/>
<path d="M96.7419 73.3436C96.6777 73.2153 96.6777 72.8947 96.6777 72.5098H96.7419V70.6499H96.2288V69.752H96.7419V68.854L97.8963 68.1485V69.6878H98.666V70.5857H97.8963V73.0229L98.0246 73.1512C98.0887 73.2153 98.1529 73.2153 98.217 73.2153C98.2811 73.2153 98.4735 73.1512 98.6659 73.0871L98.7942 73.985C98.5377 74.1132 98.217 74.1774 97.8963 74.1774C97.7039 74.1774 97.5116 74.1133 97.3192 74.0491C97.1268 73.985 96.9984 73.9208 96.9343 73.7926C96.806 73.6643 96.7419 73.536 96.7419 73.3436Z" fill="white"/>
<path d="M28.8852 83.0923C28.6286 83.2848 28.3721 83.413 28.0514 83.413C27.6024 83.413 27.2817 83.2206 26.961 82.8999C26.7045 82.5792 26.5762 82.0662 26.5762 81.2965C26.5762 80.591 26.7045 80.0779 26.961 79.7572C27.2176 79.4365 27.6024 79.3083 28.0514 79.3083C28.3721 79.3083 28.6286 79.3724 28.8852 79.5648C29.1417 79.7572 29.27 80.0138 29.3341 80.2703L30.5527 80.0138C30.4244 79.5648 30.232 79.18 29.9113 78.9234C29.4624 78.4745 28.8851 78.2821 28.1155 78.2821C27.2817 78.2821 26.5762 78.5386 26.0631 79.1159C25.55 79.6931 25.2935 80.4627 25.2935 81.4248C25.2935 82.3868 25.55 83.0923 26.0631 83.6696C26.5762 84.2468 27.2176 84.5033 28.0514 84.5033C28.6927 84.5033 29.2058 84.3751 29.6548 84.0544C30.1038 83.7337 30.3603 83.2206 30.5527 82.5792L29.3982 82.1944C29.27 82.5792 29.0776 82.8999 28.8852 83.0923Z" fill="white"/>
<path fill-rule="evenodd" clip-rule="evenodd" d="M32.3485 80.1421C32.6692 79.9497 33.054 79.8855 33.5029 79.8855C34.2084 79.8855 34.7215 80.1421 35.1705 80.5269C35.6195 80.9117 35.8119 81.489 35.8119 82.1303C35.8119 82.7717 35.6195 83.2848 35.1705 83.7338C34.7215 84.1827 34.2084 84.3751 33.5671 84.3751C33.1823 84.3751 32.7974 84.2469 32.4126 84.1186C32.0278 83.9903 31.7712 83.6696 31.5788 83.3489C31.3864 82.9641 31.3223 82.5793 31.3223 82.0662C31.3223 81.6814 31.3864 81.3607 31.5788 80.9759C31.7071 80.591 32.0278 80.3345 32.3485 80.1421ZM33.5029 83.4772C33.8236 83.4772 34.0802 83.4131 34.2726 83.1565C34.465 82.9641 34.5933 82.5793 34.5933 82.1945C34.5933 81.8096 34.465 81.489 34.2726 81.2324C34.0802 81.04 33.8236 80.9117 33.5029 80.9117C33.1823 80.9117 32.9257 80.9759 32.7333 81.2324C32.5409 81.4248 32.4126 81.7455 32.4126 82.1945C32.4126 82.5793 32.5409 82.9 32.7333 83.1565C32.9257 83.3489 33.1823 83.4772 33.5029 83.4772Z" fill="white"/>
<path d="M42.3538 80.0779C42.1614 79.9497 41.8407 79.8855 41.5201 79.8855C41.2635 79.8855 41.007 79.9497 40.8145 80.0779C40.7775 80.1026 40.7381 80.1273 40.6972 80.153C40.5257 80.2604 40.3285 80.3839 40.1732 80.591C40.0449 80.3345 39.8525 80.2062 39.6601 80.0779C39.4677 79.9497 39.2111 79.8855 38.9546 79.8855C38.4415 79.8855 37.9925 80.1421 37.6077 80.591V80.0138H36.5174V84.3751H37.6718V82.2586C37.6718 81.8096 37.6718 81.5531 37.736 81.3607C37.8001 81.1683 37.9284 81.04 38.0567 80.9759C38.1849 80.9117 38.3773 80.8476 38.5056 80.8476C38.6339 80.8476 38.7622 80.8476 38.8263 80.9117C38.8904 80.9759 38.9546 81.04 39.0187 81.1683C39.0829 81.2966 39.0829 81.5531 39.0829 82.0021V84.3751H40.2373V82.2586C40.2373 81.8738 40.2373 81.5531 40.3015 81.3607C40.3656 81.1683 40.4939 81.04 40.6221 80.9117C40.7504 80.7835 40.9428 80.7834 41.0711 80.7834C41.2635 80.7834 41.4559 80.8476 41.5842 81.04C41.6483 81.1683 41.7125 81.4248 41.7125 81.8738V84.3751H42.8669V81.6172C42.8669 81.2324 42.8028 80.9117 42.7387 80.7193C42.7387 80.3986 42.6104 80.2062 42.3538 80.0779Z" fill="white"/>
<path fill-rule="evenodd" clip-rule="evenodd" d="M45.7531 80.0779C45.9455 79.9497 46.202 79.8855 46.5227 79.8855C47.0358 79.8855 47.4206 80.0779 47.8054 80.4628C48.1261 80.8476 48.3185 81.4248 48.3185 82.1303C48.3185 82.8358 48.1261 83.4131 47.8054 83.7979C47.4848 84.1827 47.0358 84.3751 46.5227 84.3751C46.2662 84.3751 46.0737 84.3751 45.8813 84.2468C45.8443 84.2221 45.8048 84.1974 45.7639 84.1718C45.5925 84.0644 45.3953 83.9409 45.24 83.7338V85.9144H44.0855V79.9497H45.1758V80.591C45.3041 80.3986 45.4965 80.2062 45.7531 80.0779ZM46.2662 83.5413C46.5227 83.5413 46.7151 83.4131 46.9075 83.2207C47.0358 83.0282 47.1641 82.6434 47.1641 82.1945C47.1641 81.7455 47.0999 81.3607 46.9075 81.1683C46.7151 80.9759 46.4586 80.8476 46.202 80.8476C45.9455 80.8476 45.6889 80.9759 45.4965 81.1683C45.3041 81.3607 45.24 81.6814 45.24 82.1303C45.24 82.6434 45.3682 83.0282 45.5606 83.2207C45.7531 83.4131 46.0096 83.5413 46.2662 83.5413Z" fill="white"/>
<path fill-rule="evenodd" clip-rule="evenodd" d="M52.7439 82.9V81.5531C52.7439 81.04 52.6798 80.7193 52.6157 80.5269C52.4874 80.3345 52.3591 80.2062 52.1026 80.0779C51.846 79.9497 51.4612 79.8855 50.9481 79.8855C50.3709 79.8855 49.986 80.0138 49.6654 80.2062C49.4088 80.3986 49.1523 80.7193 49.0881 81.1683L50.1143 81.3607C50.1546 81.2399 50.2201 81.1444 50.2792 81.0583C50.3142 81.0072 50.347 80.9595 50.3709 80.9117C50.4991 80.8476 50.6274 80.7834 50.8198 80.7834C51.1405 80.7834 51.3329 80.8476 51.4612 80.9117C51.5895 80.9759 51.6536 81.1683 51.6536 81.3607V81.489C51.4612 81.5531 51.0764 81.6814 50.5633 81.7455C50.248 81.798 49.9759 81.8936 49.7819 81.9617L49.7243 81.9819C49.7035 81.9891 49.6839 81.9959 49.6654 82.0021C49.473 82.1303 49.2805 82.2586 49.1523 82.451C49.024 82.6434 48.9599 82.8358 48.9599 83.0924C48.9599 83.4772 49.0881 83.7979 49.3447 83.9903C49.6012 84.2468 49.9861 84.3751 50.3709 84.3751C50.6274 84.3751 50.884 84.311 51.0764 84.2468C51.2688 84.1827 51.5253 83.9903 51.7177 83.7979C51.7177 83.7979 51.7177 83.862 51.7819 83.9262C51.81 83.9824 51.8258 84.0387 51.8401 84.0895C51.8583 84.1546 51.8741 84.2108 51.9101 84.2468H53.0646C52.9363 84.0544 52.8722 83.862 52.8722 83.6696C52.7439 83.6055 52.7439 83.2848 52.7439 82.9ZM51.6536 82.5152C51.6536 82.7717 51.6536 82.9641 51.5895 83.0924C51.5253 83.2207 51.4612 83.3489 51.3329 83.4772C51.1405 83.6055 50.9481 83.6696 50.7557 83.6696C50.5633 83.6696 50.435 83.6055 50.3067 83.4772C50.1785 83.3489 50.1143 83.2207 50.1143 83.0282C50.1143 82.8358 50.1785 82.7076 50.3709 82.6434C50.4991 82.5793 50.6916 82.5152 51.0122 82.451C51.3329 82.3869 51.5895 82.3227 51.7177 82.2586V82.5152H51.6536Z" fill="white"/>
<path d="M57.1054 80.078C57.2978 80.1422 57.426 80.2705 57.5543 80.3987C57.6482 80.4926 57.6734 80.5865 57.7053 80.7056C57.717 80.7492 57.7295 80.7961 57.7467 80.8477C57.8109 81.0401 57.8109 81.2966 57.8109 81.6173V84.3111H56.6564V82.0663C56.6564 81.6173 56.6564 81.2967 56.5923 81.1684C56.5281 81.0401 56.464 80.9118 56.3357 80.8477C56.2074 80.7836 56.0792 80.7194 55.9509 80.7194C55.7585 80.7194 55.5661 80.7836 55.4378 80.9118C55.3095 81.0401 55.1813 81.1684 55.1171 81.3608C55.053 81.5532 55.053 81.8739 55.053 82.387V84.3752H53.8985V80.0139H54.9888V80.6553C55.3737 80.2063 55.8226 79.9498 56.3998 79.9498C56.6564 79.9498 56.9129 80.0139 57.1054 80.078Z" fill="white"/>
<path d="M60.1839 78.3463H59.0295V79.4366H60.1839V78.3463Z" fill="white"/>
<path d="M59.0295 80.0139H60.1839V84.3752H59.0295V80.0139Z" fill="white"/>
<path fill-rule="evenodd" clip-rule="evenodd" d="M64.481 80.5269C64.0962 80.0779 63.5831 79.8855 62.9417 79.8855C62.3645 79.8855 61.9155 80.0779 61.5307 80.5269C61.1459 80.9117 60.9535 81.489 60.9535 82.1945C60.9535 82.7717 61.0818 83.2848 61.4024 83.6696C61.7873 84.1827 62.3004 84.4392 63.07 84.4392C63.519 84.4392 63.9679 84.311 64.2886 84.1186C64.6093 83.9262 64.8658 83.6055 64.9941 83.1565L63.8396 82.9641C63.7755 83.1565 63.7114 83.3489 63.5831 83.4131C63.4548 83.5413 63.3265 83.5413 63.1341 83.5413C62.8776 83.5413 62.621 83.4772 62.4928 83.2848C62.3004 83.0924 62.2362 82.8358 62.2362 82.5151H65.1224C65.0582 81.6172 64.8658 80.9759 64.481 80.5269ZM62.1721 81.8096C62.1721 81.489 62.2362 81.2324 62.4286 81.04C62.621 80.8476 62.8134 80.7834 63.07 80.7834C63.3265 80.7834 63.519 80.8476 63.6472 81.04C63.8396 81.2324 63.9038 81.489 63.9038 81.8096H62.1721Z" fill="white"/>
<path d="M66.9183 81.2965C67.0466 81.3607 67.3672 81.489 68.0086 81.6172C68.5858 81.7455 69.0348 81.9379 69.2272 82.1303C69.4837 82.3227 69.612 82.5793 69.612 82.9641C69.612 83.3489 69.4196 83.6696 69.0989 83.9903C68.7783 84.311 68.2652 84.4392 67.6238 84.4392C67.0466 84.4392 66.5976 84.311 66.2128 84.0544C65.828 83.7979 65.6356 83.4772 65.5073 83.0924L66.6617 82.9C66.7259 83.1565 66.8541 83.2848 66.9824 83.4131C67.1748 83.5413 67.3672 83.6055 67.6238 83.6055C67.8803 83.6055 68.1369 83.5413 68.2652 83.4131C68.3293 83.3489 68.3934 83.2206 68.3934 83.0924C68.3934 83.0282 68.3934 82.9641 68.3293 82.9C68.2897 82.9 68.2256 82.8755 68.1371 82.8417C68.0824 82.8208 68.018 82.7962 67.9445 82.7717C67.0466 82.5793 66.4693 82.3869 66.2128 82.1945C65.8921 82.0021 65.6997 81.6172 65.6997 81.2324C65.6997 80.8476 65.828 80.5269 66.1486 80.2704C66.4693 80.0138 66.9183 79.8855 67.5597 79.8855C68.201 79.8855 68.65 80.0138 68.9065 80.2062C69.1631 80.3986 69.3555 80.6552 69.4838 81.04L68.3934 81.2324C68.3293 81.04 68.2652 80.9117 68.1369 80.8476C68.0086 80.7835 67.8162 80.7193 67.5597 80.7193C67.239 80.7193 67.0466 80.7835 66.9183 80.8476C66.8541 80.9117 66.79 81.04 66.79 81.1041C66.79 81.1683 66.8541 81.2324 66.9183 81.2965Z" fill="white"/>
<path d="M76.5388 81.6813C76.5388 82.1303 76.5388 82.5151 76.4746 82.7075C76.4105 82.8999 76.3464 83.0923 76.154 83.2206C75.9615 83.3489 75.705 83.413 75.3843 83.413C75.0636 83.413 74.8071 83.3489 74.6147 83.2206C74.4223 83.0923 74.294 82.8999 74.2299 82.6434C74.2299 82.601 74.2228 82.5305 74.2135 82.4366L74.2132 82.4345C74.1942 82.2444 74.1657 81.9593 74.1657 81.6172V78.3462H72.9471V81.5531C72.9471 82.1944 73.0112 82.7075 73.0754 83.0923C73.1395 83.3489 73.2678 83.5413 73.3961 83.7337C73.5243 83.9261 73.7809 84.1185 74.1016 84.2468C74.4223 84.3751 74.8071 84.4392 75.3843 84.4392C75.8333 84.4392 76.2181 84.3751 76.5388 84.2468C76.8595 84.1185 77.0519 83.9903 77.2443 83.7337C77.4367 83.5413 77.565 83.2848 77.6291 82.9641C77.6933 82.6434 77.7574 82.1303 77.7574 81.4248V78.2821H76.5388V81.6813Z" fill="white"/>
<path d="M81.4773 80.0139H82.8883L81.4131 81.6173L83.0165 84.3752H81.7338L80.6435 82.3869L80.1304 82.9642V84.3752H78.9759V78.3463H80.1304V81.5532L81.4773 80.0139Z" fill="white"/>
<path d="M85.1973 80.0779C85.069 80.142 84.8766 80.3344 84.6842 80.6551V80.0137H83.5938V84.375H84.7483V83.0282C84.7483 82.5402 84.7741 82.1812 84.793 81.9184C84.8039 81.7666 84.8124 81.6469 84.8124 81.553C84.8124 81.2965 84.9407 81.1682 85.069 81.1041C85.1973 81.0399 85.3255 80.9758 85.4538 80.9758C85.6462 80.9758 85.7745 81.0399 85.9669 81.1682L86.3517 80.142C86.0952 80.0137 85.8386 79.9496 85.5821 79.9496C85.518 79.8855 85.3255 79.9496 85.1973 80.0779Z" fill="white"/>
<path fill-rule="evenodd" clip-rule="evenodd" d="M90.4564 81.5531V82.9C90.4564 83.2848 90.4564 83.6055 90.5847 83.6696C90.5847 83.862 90.6488 84.0544 90.7771 84.2468H89.6226C89.5866 84.2108 89.5708 84.1546 89.5525 84.0895C89.5383 84.0387 89.5225 83.9824 89.4943 83.9262C89.4302 83.862 89.4302 83.7979 89.4302 83.7979C89.2378 83.9903 88.9812 84.1827 88.7888 84.2468C88.5964 84.311 88.3399 84.3751 88.0833 84.3751C87.6985 84.3751 87.3137 84.2468 87.0571 83.9903C86.8006 83.7979 86.6723 83.4772 86.6723 83.0924C86.6723 82.8358 86.7365 82.6434 86.8647 82.451C86.993 82.2586 87.1854 82.1304 87.3778 82.0021C87.4125 81.9905 87.4515 81.9768 87.4942 81.9618C87.6881 81.8937 87.9604 81.7981 88.2757 81.7455C88.7888 81.6814 89.1737 81.5531 89.3661 81.489V81.3607C89.3661 81.1683 89.3019 80.9759 89.1737 80.9117C89.0454 80.8476 88.853 80.7834 88.5323 80.7834C88.3399 80.7834 88.2116 80.8476 88.0833 80.9117C88.0595 80.9595 88.0267 81.0072 87.9917 81.0583C87.9326 81.1444 87.867 81.2399 87.8268 81.3607L86.8006 81.1683C86.8647 80.7193 87.1213 80.3986 87.3778 80.2062C87.6985 80.0138 88.0833 79.8855 88.6606 79.8855C89.1737 79.8855 89.5585 79.9497 89.815 80.0779C90.0716 80.2062 90.1998 80.3345 90.3281 80.5269C90.3923 80.7193 90.4564 81.04 90.4564 81.5531ZM89.2378 83.0924C89.3019 82.9641 89.3019 82.7717 89.3019 82.5152H89.3661V82.2586C89.2378 82.3227 88.9812 82.3869 88.6606 82.451C88.3399 82.5152 88.1475 82.5793 88.0192 82.6434C87.8268 82.7076 87.7626 82.8358 87.7626 83.0282C87.7626 83.2207 87.8268 83.3489 87.9551 83.4772C88.0833 83.6055 88.2116 83.6696 88.404 83.6696C88.5964 83.6696 88.7888 83.6055 88.9812 83.4772C89.1095 83.3489 89.1737 83.2207 89.2378 83.0924Z" fill="white"/>
<path d="M92.7653 80.0139H91.6108V84.3752H92.7653V80.0139Z" fill="white"/>
<path d="M91.6108 78.3463H92.7653V79.4366H91.6108V78.3463Z" fill="white"/>
<path d="M97.5757 80.3987C97.4474 80.2705 97.3191 80.1422 97.1267 80.078C96.9343 80.0139 96.6778 79.9498 96.4212 79.9498C95.844 79.9498 95.395 80.2063 95.0102 80.6553V80.0139H93.9199V84.3752H95.0743V82.387C95.0743 81.8739 95.0743 81.5532 95.1385 81.3608C95.2026 81.1684 95.3309 81.0401 95.4592 80.9118C95.5874 80.7836 95.7798 80.7194 95.9723 80.7194C96.1005 80.7194 96.2288 80.7836 96.3571 80.8477C96.4854 80.9118 96.5495 81.0401 96.6136 81.1684C96.6778 81.2967 96.6778 81.6173 96.6778 82.0663V84.3111H97.8322V81.6173C97.8322 81.2966 97.8322 81.0401 97.7681 80.8477C97.7639 80.8352 97.76 80.823 97.7564 80.8111L97.7497 80.7888C97.7412 80.7597 97.7338 80.7322 97.7267 80.7059C97.6948 80.5868 97.6696 80.4926 97.5757 80.3987Z" fill="white"/>
<path fill-rule="evenodd" clip-rule="evenodd" d="M100.654 79.8855C101.296 79.8855 101.809 80.0779 102.193 80.5269C102.578 80.9759 102.771 81.6172 102.835 82.5151H99.9487C99.9487 82.8358 100.013 83.0924 100.205 83.2848C100.333 83.4772 100.59 83.5413 100.847 83.5413C101.039 83.5413 101.167 83.5413 101.296 83.4131C101.424 83.3489 101.488 83.1565 101.552 82.9641L102.707 83.1565C102.578 83.6055 102.322 83.9262 102.001 84.1186C101.68 84.311 101.231 84.4392 100.782 84.4392C100.013 84.4392 99.4997 84.1827 99.1149 83.6696C98.7942 83.2848 98.6659 82.7717 98.6659 82.1945C98.6659 81.489 98.8584 80.9117 99.2432 80.5269C99.628 80.0779 100.077 79.8855 100.654 79.8855ZM100.141 81.04C99.9487 81.2324 99.8845 81.489 99.8845 81.8096H101.616C101.616 81.489 101.552 81.2324 101.36 81.04C101.231 80.8476 101.039 80.7834 100.782 80.7834C100.526 80.7834 100.333 80.8476 100.141 81.04Z" fill="white"/>
<path fill-rule="evenodd" clip-rule="evenodd" d="M70.8947 41.147C71.4077 41.147 71.8567 40.698 71.8567 40.1849C71.8567 39.6718 71.4077 39.2229 70.8947 39.2229H70.5098V38.5174C70.5098 38.0043 70.0609 37.5553 69.5478 37.5553H67.8161C67.1106 36.2726 66.7258 34.9257 66.5975 33.7071C67.4954 33.194 68.3292 32.4244 69.0347 31.4623H72.3057C73.396 31.4623 74.2939 30.6927 74.4863 29.6665L75.7049 23.3811C75.8332 22.7397 75.6408 22.0342 75.256 21.5211C74.807 21.008 74.1656 20.6873 73.5243 20.6873H71.4719C71.2153 20.1101 70.8305 19.7253 70.3174 19.7253C69.163 19.4046 60.1197 19.4687 59.6707 19.7253C59.2217 19.9177 58.9011 20.2384 58.6445 20.6873H56.2073C55.5018 20.6873 54.9246 21.008 54.4756 21.5211C54.0267 22.0342 53.8984 22.7397 54.0267 23.3811L55.2453 29.6665C55.4377 30.6927 56.3997 31.4623 57.4259 31.4623H61.1458C61.7872 32.4244 62.5569 33.194 63.2624 33.7071C63.1982 35.054 62.8134 36.3367 62.172 37.6194H60.4403C59.9272 37.6194 59.4783 38.0684 59.4783 38.5815V39.287H59.0935C58.5804 39.287 58.1314 39.736 58.1314 40.2491C58.1314 40.7621 58.5804 41.2111 59.0935 41.2111H70.8947V41.147ZM71.9208 22.6114H73.6525C73.7808 22.6114 73.8449 22.6756 73.9091 22.7397C73.9732 22.8038 73.9732 22.868 73.9732 22.9963L72.7546 29.2817C72.7546 29.4099 72.5622 29.5382 72.4339 29.5382H70.3174C71.4077 27.2934 71.985 24.5997 71.9208 22.6114ZM57.6183 29.5382C57.49 29.5382 57.3618 29.4099 57.2976 29.2817L56.079 22.9963C56.079 22.868 56.079 22.8038 56.1432 22.7397C56.2073 22.6756 56.2714 22.6114 56.3997 22.6114H58.4521C58.4521 24.5997 59.1576 27.2934 60.2479 29.5382H57.6183Z" fill="white"/>
<path d="M79.2325 28.8967C79.2967 28.9608 79.3608 28.9608 79.4249 28.9608H81.4132L82.3111 30.6925C82.3752 30.8208 82.5035 30.8849 82.6318 30.8849C82.7601 30.8849 82.8883 30.7567 82.9525 30.6284L83.5938 28.7684L85.5821 28.4477C85.7103 28.4477 85.8386 28.3195 85.9028 28.1912C85.9669 28.0629 85.9028 27.8705 85.7745 27.8064L84.1711 26.5878L84.4917 24.5995C84.4917 24.4713 84.4276 24.343 84.2993 24.2147C84.1711 24.1506 84.0428 24.1506 83.9145 24.2147L82.3111 25.3692L80.5153 24.4713C80.387 24.4071 80.2587 24.4071 80.1304 24.5354C80.0022 24.5995 80.0022 24.7919 80.0022 24.9202L80.5794 26.8443L79.1684 28.2553C79.0401 28.3836 79.0401 28.5119 79.1043 28.6402C79.1043 28.7684 79.1684 28.8326 79.2325 28.8967Z" fill="white"/>
<path d="M98.4094 36.3366C98.5377 36.4649 98.5377 36.5932 98.4735 36.7215L97.6398 38.4532L98.7942 40.0566C98.8584 40.1848 98.8584 40.3131 98.7942 40.4414C98.666 40.5697 98.5377 40.6338 98.4094 40.6338L96.4212 40.3773L95.2026 41.9807C95.1384 42.109 94.946 42.1731 94.8177 42.109C94.6895 42.0448 94.5612 41.9165 94.5612 41.7883L94.2405 39.8L92.3805 39.1587C92.3485 39.1266 92.3164 39.1106 92.2843 39.0945C92.2523 39.0785 92.2202 39.0625 92.1881 39.0304C92.1881 38.9983 92.1721 38.9662 92.1561 38.9342C92.14 38.9021 92.124 38.87 92.124 38.838C92.124 38.7097 92.1881 38.5814 92.3164 38.5173L94.0481 37.6194V35.6311C94.1122 35.5029 94.1764 35.3746 94.3046 35.3104C94.4329 35.2463 94.5612 35.2463 94.6895 35.3746L96.1005 36.7856L98.0246 36.2084C98.1529 36.2084 98.3453 36.2084 98.4094 36.3366Z" fill="white"/>
<path d="M86.2876 32.1678C86.3272 32.2074 86.3669 32.2225 86.4217 32.2435C86.4555 32.2564 86.4951 32.2715 86.5441 32.296L89.0455 32.745L89.8151 35.1822C89.8793 35.3746 90.0075 35.5029 90.1999 35.5029C90.3923 35.5029 90.5848 35.4387 90.6489 35.2463L91.8675 33.0015H94.433C94.6254 33.0015 94.8178 32.8733 94.8819 32.745C94.9461 32.5526 94.9461 32.3602 94.8178 32.2319L93.022 30.3719L93.8557 27.9347C93.9199 27.7423 93.8557 27.5499 93.7275 27.4216C93.5992 27.2934 93.4068 27.2934 93.2144 27.3575L90.9054 28.4478L88.8531 26.9085C88.7248 26.7803 88.4683 26.7803 88.34 26.9085C88.1476 26.9727 88.0834 27.1651 88.0834 27.3575L88.4041 29.923L86.2876 31.3981C86.1593 31.5264 86.0311 31.7188 86.0952 31.9112C86.1593 32.0395 86.2235 32.1036 86.2876 32.1678Z" fill="white"/>
<path d="M49.9862 29.9229L47.9979 29.7305L46.9076 31.398C46.7793 31.4622 46.6511 31.5263 46.5228 31.5263C46.3304 31.5263 46.2663 31.398 46.2021 31.2698L45.7532 29.3457L43.829 28.8326C43.7008 28.7684 43.5725 28.6402 43.5725 28.5119C43.5725 28.3195 43.6366 28.1912 43.7649 28.1271L45.5607 27.1009L45.4325 25.1126C45.4325 24.9844 45.4966 24.8561 45.6249 24.7919C45.7532 24.7278 45.8814 24.7919 46.0097 24.8561L47.4849 26.1388L49.3448 25.4333C49.4731 25.3692 49.6014 25.3692 49.7296 25.4974C49.7938 25.5616 49.8579 25.754 49.7938 25.8823L49.0241 27.7422L50.3069 29.3457C50.4351 29.4739 50.4352 29.6022 50.371 29.7305C50.3389 29.7625 50.3069 29.7786 50.2748 29.7946C50.2427 29.8106 50.2107 29.8267 50.1786 29.8588C50.1145 29.9229 50.0503 29.9229 49.9862 29.9229Z" fill="white"/>
<path d="M36.3249 38.5814C36.3249 38.4531 36.2608 38.3249 36.1967 38.1966L34.5291 37.1062L34.7215 35.118C34.7215 34.9897 34.6574 34.8615 34.5291 34.7973C34.4008 34.7332 34.2726 34.7332 34.1443 34.8615L32.5409 36.0801L30.6809 35.3104C30.5526 35.2463 30.3602 35.3104 30.2961 35.3746C30.1678 35.5028 30.1678 35.6311 30.2319 35.7594L30.9374 37.6193L29.6547 39.0945C29.5906 39.2228 29.5264 39.351 29.5906 39.4793C29.6547 39.6076 29.783 39.6717 29.9112 39.6717L31.8995 39.6076L32.9257 41.3393C32.9898 41.4676 33.1181 41.5317 33.3105 41.5317C33.4388 41.5317 33.567 41.4034 33.6312 41.2751L34.1443 39.351L36.0684 38.9021C36.1005 38.9021 36.1325 38.8861 36.1646 38.87C36.1967 38.854 36.2287 38.8379 36.2608 38.8379C36.2608 38.7628 36.2828 38.7097 36.301 38.6657C36.3139 38.6345 36.3249 38.608 36.3249 38.5814Z" fill="white"/>
<path d="M37.0946 32.745L34.5291 32.4884C34.3367 32.4884 34.2084 32.3602 34.2726 32.1036C34.2084 31.9112 34.2726 31.7188 34.4008 31.5905L36.3249 29.923L35.7477 27.4216C35.6836 27.2292 35.8118 27.0368 35.9401 26.9085C36.0684 26.8444 36.2608 26.7803 36.4532 26.9085L38.6339 28.2554L40.8787 26.9085C41.0069 26.7803 41.1993 26.7803 41.3918 26.9085C41.5842 27.0368 41.6483 27.2292 41.5842 27.4216L41.0069 29.923L42.931 31.6547C43.0593 31.7829 43.1234 31.9754 43.0593 32.1678C42.9952 32.296 42.931 32.3602 42.8669 32.4243C42.8348 32.4243 42.7867 32.4403 42.7386 32.4564C42.6905 32.4724 42.6424 32.4884 42.6104 32.4884L40.0449 32.745L39.0187 35.1181C38.9545 35.2463 38.7621 35.3746 38.5697 35.3746C38.3773 35.3746 38.1849 35.3105 38.1208 35.1181L37.0946 32.745Z" fill="white"/>
<path d="M28.0512 48.5228H30.8733V56.3475H32.7974V48.5228H35.5552V46.9194H28.0512V48.5228Z" fill="white"/>
<path fill-rule="evenodd" clip-rule="evenodd" d="M38.698 47.1115C39.2752 46.855 39.9807 46.7267 40.7504 46.7267C42.1614 46.7267 43.1234 47.1757 43.9572 48.0094C44.791 48.8432 45.2399 50.0618 45.2399 51.6011C45.2399 53.1404 44.8551 54.359 44.0213 55.1928C43.1876 56.0265 42.0972 56.4755 40.6862 56.4755C39.2752 56.4755 38.1849 56.0265 37.3511 55.1928C36.5173 54.359 36.1325 53.1404 36.1325 51.6652C36.1325 50.7032 36.3249 49.8694 36.5815 49.228C36.838 48.7791 37.0946 48.3301 37.4794 47.9453C37.8642 47.5605 38.249 47.3039 38.698 47.1115ZM40.8145 54.9362C41.5841 54.9362 42.1614 54.6797 42.6745 54.1024C43.1234 53.5252 43.38 52.6914 43.4441 51.6011C43.4441 50.5108 43.1876 49.677 42.7386 49.1639C42.2255 48.6508 41.6483 48.3942 40.8145 48.3942C39.9807 48.3942 39.3393 48.7149 38.8904 49.228C38.4414 49.7411 38.1849 50.5749 38.1849 51.6652C38.1849 52.7556 38.4414 53.5252 38.9545 54.1024C39.4035 54.6797 40.0449 54.9362 40.8145 54.9362Z" fill="white"/>
<path fill-rule="evenodd" clip-rule="evenodd" d="M52.1668 47.0477C51.8461 46.9835 51.0764 46.9194 49.922 46.9194H46.8434V56.3475H48.7675V52.7558H49.9861C50.8199 52.7558 51.5254 52.6917 51.9743 52.6276C52.295 52.5634 52.6157 52.4352 52.9364 52.1786C53.2571 51.9221 53.5136 51.6655 53.7702 51.2166C53.9626 50.8317 54.0909 50.3186 54.0909 49.7414C54.0909 48.9718 53.8984 48.3945 53.5136 47.8814C53.1929 47.4966 52.744 47.1759 52.1668 47.0477ZM51.9102 50.5752C51.7819 50.7676 51.5895 50.96 51.333 51.0242C51.0764 51.0883 50.5633 51.1524 49.7937 51.1524H48.7675V48.4587H49.6654C50.3709 48.4587 50.8199 48.4587 51.0123 48.5228C51.333 48.587 51.5895 48.7152 51.7819 48.9718C51.9743 49.1642 52.1026 49.4849 52.1026 49.8056C52.1026 50.1262 52.0385 50.3828 51.9102 50.5752Z" fill="white"/>
<path fill-rule="evenodd" clip-rule="evenodd" d="M64.3528 52.2425C64.7376 52.435 65.1225 52.7556 65.379 53.0122C65.6356 53.2687 66.0204 53.7818 66.5976 54.5515L67.6973 56.3232L71.3437 46.9194H73.396L77.1801 56.3475H75.1277L74.294 54.231H70.5099L69.7402 56.3475H67.7124L67.7521 56.4114H65.4432L64.0321 54.3591C63.5191 53.5894 63.1984 53.1405 63.006 52.9481C62.8135 52.7556 62.6211 52.6274 62.4287 52.5632C62.2363 52.4991 61.9156 52.435 61.4667 52.435H61.0819V56.4114H59.1577V46.9833H63.1984C64.1604 46.9833 64.9301 47.0475 65.379 47.2399C65.828 47.4323 66.2128 47.6888 66.4693 48.1378C66.7259 48.5868 66.8542 49.0357 66.8542 49.6129C66.8542 50.3184 66.5976 50.8957 66.2128 51.3446C65.828 51.8577 65.1866 52.1143 64.3528 52.2425ZM61.0177 50.8957H62.4287C63.3266 50.8957 63.968 50.8957 64.1604 50.8315C64.3528 50.7674 64.5452 50.6391 64.6735 50.4467C64.8018 50.2543 64.8659 49.9978 64.8659 49.7412C64.8659 49.4205 64.8018 49.164 64.6094 48.9716C64.4811 48.7792 64.2246 48.6509 63.9039 48.5867C63.7115 48.5226 63.2625 48.5226 62.4929 48.5226H61.0177V50.8957ZM71.0871 52.6276L72.3699 49.1L73.6526 52.6276H71.0871Z" fill="white"/>
<path d="M79.2966 48.5228H76.5387V46.9194H84.0427V48.5228H81.2207V56.3475H79.2966V48.5228Z" fill="white"/>
<path d="M87.1854 52.1786H91.9315V50.5752H87.1854V48.5228H92.2522V46.9194H85.2613V56.3475H92.4446V54.7441H87.1854V52.1786Z" fill="white"/>
<path fill-rule="evenodd" clip-rule="evenodd" d="M94.0482 56.3473V46.855H97.5757C98.3453 46.855 98.9867 46.9191 99.3715 47.0474C99.8846 47.2398 100.398 47.4964 100.783 47.9453C101.167 48.3943 101.488 48.9074 101.68 49.4846C101.873 50.126 102.001 50.8315 102.001 51.7294C102.001 52.4991 101.873 53.1404 101.68 53.7177C101.424 54.4232 101.103 54.9363 100.654 55.3852C100.334 55.7059 99.8846 55.9624 99.3074 56.1549C98.9226 56.2831 98.3453 56.3473 97.6398 56.3473H94.0482ZM99.8205 49.9336C99.6922 49.5488 99.5639 49.2281 99.3074 49.0357C99.0508 48.8433 98.7301 48.6508 98.3453 48.4584C98.0888 48.3943 97.5757 48.3943 96.806 48.3943H95.9723V54.6797H97.3833C97.8964 54.6797 98.2812 54.6797 98.5377 54.6156C98.8584 54.5514 99.115 54.4232 99.3074 54.2308C99.4998 54.0383 99.6922 53.7818 99.8205 53.3328C99.9487 52.8839 100.013 52.3066 100.013 51.6011C100.013 50.8956 99.9487 50.3184 99.8205 49.9336Z" fill="white"/>
<path d="M25.1652 101.115C25.1652 101.949 25.3576 102.526 25.7424 102.975C26.1272 103.424 26.5762 103.616 27.1534 103.616C27.7306 103.616 28.1796 103.424 28.5644 102.975C28.9492 102.59 29.1417 101.949 29.1417 101.115C29.1417 100.281 28.9492 99.7038 28.6286 99.2548C28.2437 98.87 27.7948 98.6776 27.2176 98.6776C26.6403 98.6776 26.1272 98.87 25.8065 99.3189C25.3576 99.7038 25.1652 100.281 25.1652 101.115Z" fill="white"/>
<path d="M56.5922 101.884L55.6301 99.2548L54.6681 101.884H56.5922Z" fill="white"/>
<path d="M62.5569 100.538H61.4666V98.8059H63.6473C63.8397 98.8059 64.0321 98.9341 64.1604 99.0624C64.2886 99.1907 64.3528 99.3831 64.3528 99.6396C64.3528 99.7919 64.3126 99.904 64.2641 100.039C64.2513 100.075 64.2379 100.113 64.2245 100.153C64.1604 100.345 64.0321 100.409 63.8397 100.473C63.7114 100.538 63.2624 100.538 62.5569 100.538Z" fill="white"/>
<path d="M84.4275 101.115C84.4275 101.949 84.62 102.526 85.0048 102.975C85.3896 103.424 85.8386 103.616 86.4158 103.616C86.993 103.616 87.442 103.424 87.8268 102.975C88.2116 102.59 88.404 101.949 88.404 101.115C88.404 100.281 88.2116 99.7038 87.8909 99.2548C87.5061 98.87 87.0572 98.6776 86.4799 98.6776C85.9027 98.6776 85.3896 98.87 85.0689 99.3189C84.62 99.7038 84.4275 100.281 84.4275 101.115Z" fill="white"/>
<path d="M93.535 100.538H92.4447V98.8059H94.6253C94.8177 98.8059 95.0102 98.9341 95.1384 99.0624C95.2667 99.1907 95.3308 99.3831 95.3308 99.6396C95.3308 99.7919 95.2907 99.904 95.2421 100.039L95.225 100.088C95.2212 100.098 95.2174 100.109 95.2135 100.12C95.2099 100.131 95.2062 100.142 95.2026 100.153C95.1384 100.345 95.0102 100.409 94.8178 100.473C94.6895 100.538 94.2405 100.538 93.535 100.538Z" fill="white"/>
<path d="M105.721 103.488V98.7418H106.491C107.068 98.7418 107.453 98.7418 107.645 98.8059C107.902 98.87 108.158 98.9342 108.287 99.1266C108.415 99.319 108.543 99.5114 108.671 99.8321C108.735 100.153 108.8 100.602 108.8 101.115C108.8 101.628 108.8 102.077 108.671 102.398C108.543 102.718 108.415 102.975 108.287 103.103C108.158 103.295 107.966 103.36 107.709 103.424C107.517 103.488 107.196 103.488 106.811 103.488H105.721Z" fill="white"/>
<path fill-rule="evenodd" clip-rule="evenodd" d="M124 89.3137H116.945C120.537 81.7456 122.525 73.2795 122.525 64.3645C122.525 32.1037 96.357 6 64.1603 6C31.9637 6 5.79583 32.1678 5.79583 64.3645C5.79583 73.2795 7.78407 81.7456 11.3757 89.3137H4L11.953 101.628L4 112.916H31.8354C41.0711 119.073 52.2309 122.665 64.1603 122.665C76.0898 122.665 87.2496 119.073 96.4853 112.916H124L114.508 101.564L124 89.3137ZM64.2245 119.522C54.7964 119.522 45.9455 117.149 38.1208 112.98H47.4206C52.6798 114.776 58.3239 115.802 64.1603 115.802C69.9968 115.802 75.6408 114.776 80.9 112.98H90.1999C82.5035 117.149 73.6526 119.522 64.2245 119.522ZM22.9845 89.3137C18.5591 82.0021 15.9936 73.4719 15.9936 64.3645V63.5949H112.391V64.3645C112.391 73.4719 109.826 82.0663 105.4 89.3137H22.9845ZM16.1219 60.9011C17.9177 35.8878 38.7622 16.1336 64.2245 16.1336C89.6868 16.1336 110.531 35.9519 112.327 60.9011H16.1219ZM109.184 89.3137C113.289 81.938 115.662 73.4078 115.662 64.3645C115.662 35.9519 92.6371 12.9268 64.2245 12.9268C35.8119 12.9268 12.7867 35.9519 12.7867 64.3645C12.7867 73.4078 15.1598 81.938 19.2646 89.3137H15.0315C11.1833 81.8097 9.00267 73.3437 9.00267 64.3645C9.00267 33.9637 33.7595 9.20684 64.1603 9.20684C94.5612 9.20684 119.318 33.9637 119.318 64.3645C119.318 73.3437 117.137 81.8097 113.289 89.3137H109.184ZM16.9556 102.333L18.3666 102.205C18.4308 102.654 18.6232 103.039 18.8797 103.231C19.1363 103.424 19.457 103.552 19.9059 103.552C20.3549 103.552 20.7397 103.424 20.9321 103.231C21.1887 103.039 21.3169 102.782 21.3169 102.526C21.3169 102.333 21.2528 102.205 21.1887 102.077C21.0604 101.949 20.9321 101.884 20.6756 101.756C20.4832 101.692 20.0983 101.564 19.5211 101.435C18.7515 101.243 18.1742 100.987 17.9177 100.73C17.4687 100.345 17.2763 99.8321 17.2763 99.319C17.2763 98.9341 17.4046 98.6134 17.597 98.2928C17.7894 97.9721 18.1101 97.7155 18.4949 97.5873C18.8797 97.3948 19.3287 97.3307 19.9059 97.3307C20.8038 97.3307 21.4452 97.5231 21.9583 97.9079C22.4073 98.2928 22.6638 98.8059 22.6638 99.5114L21.2528 99.5755C21.1887 99.1907 21.0604 98.9341 20.868 98.8059C20.6756 98.6134 20.3549 98.5493 19.9701 98.5493C19.5211 98.5493 19.2004 98.6134 19.008 98.8059C18.8797 98.9341 18.7515 99.0624 18.7515 99.2548C18.7515 99.4472 18.8156 99.5755 18.9439 99.7038C19.1363 99.832 19.5852 100.024 20.2908 100.153L20.4831 100.205C21.0903 100.37 21.5393 100.491 21.83 100.666C22.1507 100.858 22.4073 101.115 22.5997 101.371C22.7921 101.692 22.8562 102.077 22.8562 102.526C22.8562 102.911 22.728 103.295 22.5355 103.68C22.279 104.065 21.9583 104.322 21.5735 104.45C21.1887 104.578 20.6114 104.706 20.0342 104.706C19.1363 104.706 18.4308 104.514 17.9818 104.065C17.9499 104.033 17.9176 104.001 17.8852 103.969C17.4622 103.55 17.0152 103.108 16.9556 102.333ZM23.69 101.179C23.69 100.473 23.8183 99.832 24.0107 99.3189C24.2031 98.9341 24.3955 98.6134 24.6521 98.3569C24.9086 98.0362 25.2293 97.8438 25.55 97.7155C25.999 97.5231 26.512 97.459 27.0893 97.459C28.1155 97.459 29.0134 97.7797 29.5906 98.421C30.232 99.0624 30.5527 99.9603 30.5527 101.115C30.5527 102.269 30.232 103.167 29.5906 103.809C28.9492 104.45 28.1155 104.771 27.0893 104.771C25.999 104.771 25.1652 104.45 24.5879 103.809C24.0107 103.167 23.69 102.269 23.69 101.179ZM31.7713 97.5872V104.706H33.1823V101.692H36.1326V100.473H33.1823V98.8059H36.6457V97.5872H31.7713ZM39.4035 98.8059H37.287V97.5872H42.931V98.8059H40.8145V104.706H39.4035V98.8059ZM43.1876 97.5872L44.9193 104.706H46.5227L47.9338 99.3831L49.3448 104.706H50.884L52.6157 97.5872H51.1406L50.0503 102.59L48.7675 97.5872H47.0358L45.7531 102.462L44.6628 97.5872H43.1876ZM59.2218 104.706H57.6825L57.0412 103.103H54.155L53.5778 104.706H52.0385L54.7964 97.5872H56.3357L59.2218 104.706ZM59.9915 97.5872V104.771H61.4666V101.82H61.7873C62.108 101.82 62.3645 101.82 62.4928 101.884C62.6852 101.949 62.8135 102.077 62.9418 102.205C63.07 102.333 63.3266 102.654 63.7114 103.231L64.7376 104.771H66.4693L65.5714 103.36C65.1865 102.782 64.93 102.398 64.7376 102.205C64.5452 102.013 64.2886 101.82 63.9679 101.628C64.6093 101.564 65.0583 101.307 65.379 100.987C65.6996 100.602 65.8279 100.153 65.8279 99.6396C65.8279 99.1907 65.6996 98.8059 65.5072 98.4852C65.3148 98.1645 64.9941 97.9079 64.6735 97.7797C64.3528 97.6514 63.7755 97.5872 63.0059 97.5872H59.9915ZM67.1747 97.5872H72.4981V98.8059H68.6499V100.409H72.2415V101.628H68.6499V103.552H72.6264V104.771H67.1747V97.5872ZM73.1395 97.5872L74.8712 104.706H76.4747L77.8857 99.3831L79.2967 104.706H80.836L82.5676 97.5872H81.0925L80.0022 102.59L78.7194 97.5872H76.9877L75.705 102.462L74.6147 97.5872H73.1395ZM82.9524 101.179C82.9524 100.473 83.0807 99.832 83.2731 99.3189C83.4655 98.9341 83.6579 98.6134 83.9145 98.3569C84.171 98.0362 84.4917 97.8438 84.8124 97.7155C85.2613 97.5231 85.7744 97.459 86.3516 97.459C87.3778 97.459 88.2757 97.7797 88.853 98.421C89.4943 99.0624 89.815 99.9603 89.815 101.115C89.815 102.269 89.4943 103.167 88.853 103.809C88.2116 104.45 87.3778 104.771 86.3516 104.771C85.2613 104.771 84.4275 104.45 83.8503 103.809C83.2731 103.167 82.9524 102.269 82.9524 101.179ZM91.0337 97.5872V104.771H92.4447V101.82H92.7654C93.0861 101.82 93.3426 101.82 93.4709 101.884C93.6633 101.949 93.7916 102.077 93.9198 102.205C94.0481 102.333 94.3046 102.654 94.6895 103.231L95.7157 104.771H97.5115L96.6136 103.36C96.2289 102.782 95.9722 102.397 95.7798 102.205C95.5874 102.013 95.3308 101.82 95.0102 101.628C95.6515 101.564 96.1005 101.307 96.4212 100.987C96.7419 100.602 96.8701 100.153 96.8701 99.6396C96.8701 99.1907 96.7419 98.8059 96.5494 98.4852C96.357 98.1645 96.0363 97.9079 95.7157 97.7797C95.395 97.6514 94.8177 97.5872 94.0481 97.5872H91.0337ZM98.2811 97.6514H99.6921V103.552H103.284V104.771H98.2811V97.6514ZM106.94 97.5232H104.374V104.642H107.068C107.581 104.642 108.03 104.642 108.351 104.514C108.8 104.386 109.12 104.193 109.377 103.937C109.698 103.616 109.954 103.167 110.146 102.654C110.275 102.205 110.339 101.692 110.339 101.115C110.339 100.473 110.211 99.8962 110.082 99.4473C109.89 98.9983 109.698 98.6135 109.377 98.2928C109.056 97.9721 108.735 97.7797 108.287 97.6514C107.966 97.5873 107.517 97.5232 106.94 97.5232Z" fill="white"/>
</svg>
