<svg width="128" height="128" viewBox="0 0 128 128" fill="none" xmlns="http://www.w3.org/2000/svg">
<path fill-rule="evenodd" clip-rule="evenodd" d="M69.8514 25.0846C65.6434 25.0799 61.4354 25.0814 57.2274 25.0846C56.2727 25.0862 55.8741 25.4839 55.8725 26.4319C55.8631 30.6304 55.8631 34.8291 55.8725 39.0276C55.8757 39.9331 56.3199 40.389 57.2384 40.3906C61.4275 40.3984 65.6151 40.3969 69.8042 40.3906C70.7211 40.389 71.2236 39.8812 71.2236 38.9804C71.2268 34.8018 71.2268 30.6215 71.2236 26.4429C71.222 25.5531 70.7526 25.0862 69.8514 25.0846ZM66.1728 36.3471C65.3901 36.7648 64.5523 36.7567 63.713 36.7486C63.5792 36.7473 63.4454 36.746 63.3118 36.7465C63.1715 36.7465 63.0865 36.704 63.0959 36.5484C63.0977 36.5265 63.097 36.5047 63.0963 36.4829C63.096 36.474 63.0958 36.4652 63.0956 36.4563C63.0955 36.4477 63.0956 36.4391 63.0959 36.4305C63.1103 36.0524 63.1014 35.7662 63.0946 35.5495C63.0847 35.2291 63.0795 35.0606 63.1611 34.972C63.2516 34.8737 63.4488 34.8733 63.8643 34.8725C64.0445 34.8721 64.2659 34.8716 64.5374 34.8631C65.2527 34.8411 65.7348 34.5015 65.9963 33.8286C66.2011 33.302 66.2153 32.7549 66.1507 32.2188C66.0168 31.1152 65.3787 30.5744 64.2665 30.5555C64.0914 30.5525 63.9161 30.5551 63.741 30.5577C63.4638 30.5618 63.1867 30.566 62.9116 30.5477C62.5051 30.5194 62.3744 30.6467 62.3791 31.068C62.3913 31.9696 62.3905 32.8712 62.3896 33.7728V33.7739C62.3889 34.617 62.3881 35.4601 62.398 36.3031C62.4027 36.6694 62.3082 36.7873 61.9443 36.7496C61.7641 36.731 61.5651 36.752 61.369 36.7727C61.0182 36.8097 60.6768 36.8458 60.4697 36.6521C60.1416 36.3473 60.2534 35.1721 60.3323 34.3415C60.3596 34.0546 60.383 33.8088 60.383 33.6541H60.3972C60.3972 33.399 60.3957 33.1438 60.3943 32.8885V32.8871C60.3907 32.2603 60.3872 31.6331 60.4051 31.0067C60.4161 30.6436 60.3105 30.5414 59.945 30.5445C58.9651 30.5492 58.9651 30.5304 58.9651 29.5274C58.9651 28.7366 58.9651 28.735 59.7654 28.735C60.2694 28.735 60.7735 28.7348 61.2777 28.7347H61.2831C62.2902 28.7343 63.2976 28.734 64.3043 28.735C66.2216 28.7366 67.8033 30.1342 68.0523 32.0459C68.2949 33.9057 67.5418 35.6161 66.1728 36.3471Z" fill="white"/>
<path d="M45.6801 55.3043H45.6712V53.5539H45.2258V57.9298H45.6712V56.2961C45.6712 56.0511 45.7306 55.8274 45.8494 55.6252C45.9711 55.419 46.1122 55.3159 46.2725 55.3159C46.4507 55.3159 46.5739 55.382 46.6422 55.5143C46.7135 55.6427 46.7491 55.8838 46.7491 56.2378V57.9298H47.1856V56.1794C47.1856 55.2848 46.9332 54.8375 46.4284 54.8375C46.1344 54.8375 45.885 54.9931 45.6801 55.3043Z" fill="white"/>
<path d="M44.6722 53.6706H42.267V54.2073H43.2246V57.9298H43.7146V54.2073H44.6722V53.6706Z" fill="white"/>
<path fill-rule="evenodd" clip-rule="evenodd" d="M48.0585 56.6462C48.0674 56.9185 48.1387 57.1344 48.2723 57.2939C48.4089 57.4533 48.5796 57.5331 48.7845 57.5331C49.0072 57.5331 49.2299 57.4592 49.4526 57.3114L49.564 57.7548C49.3056 57.9104 49.031 57.9882 48.74 57.9882C48.4074 57.9882 48.1342 57.8462 47.9204 57.5622C47.7096 57.2744 47.6042 56.8913 47.6042 56.4128C47.6042 55.9227 47.7022 55.5376 47.8982 55.2576C48.0971 54.9775 48.3629 54.8375 48.6954 54.8375C49.025 54.8375 49.2819 54.9697 49.466 55.2342C49.6501 55.4987 49.7421 55.8819 49.7421 56.3837C49.7421 56.442 49.7392 56.5295 49.7332 56.6462H48.0585ZM48.0585 56.1911H49.3101C49.3071 55.9033 49.2507 55.6816 49.1408 55.526C49.0339 55.3704 48.8855 55.2926 48.6954 55.2926C48.5054 55.2926 48.3525 55.3723 48.2367 55.5318C48.1238 55.6874 48.0644 55.9072 48.0585 56.1911Z" fill="white"/>
<path d="M52.6839 55.9111H53.7083V57.3289C53.5361 57.4261 53.3431 57.4747 53.1293 57.4747C52.7284 57.4747 52.4107 57.325 52.1761 57.0255C51.9415 56.7221 51.8242 56.3136 51.8242 55.8002C51.8242 55.2906 51.9356 54.8842 52.1583 54.5808C52.381 54.2774 52.6898 54.1257 53.0847 54.1257C53.3638 54.1257 53.6341 54.2287 53.8954 54.4349L54.0513 53.9681C53.7573 53.7309 53.4203 53.6122 53.0402 53.6122C52.5116 53.6122 52.093 53.8106 51.7842 54.2073C51.4783 54.6002 51.3254 55.1312 51.3254 55.8002C51.3254 56.4692 51.4842 57.0021 51.802 57.3989C52.1227 57.7917 52.5502 57.9882 53.0847 57.9882C53.4826 57.9882 53.8464 57.8812 54.176 57.6673V55.4093H52.6839V55.9111Z" fill="white"/>
<path fill-rule="evenodd" clip-rule="evenodd" d="M55.0713 56.6462C55.0802 56.9185 55.1515 57.1344 55.2851 57.2939C55.4217 57.4533 55.5925 57.5331 55.7973 57.5331C56.02 57.5331 56.2427 57.4592 56.4654 57.3114L56.5768 57.7548C56.3185 57.9104 56.0438 57.9882 55.7528 57.9882C55.4202 57.9882 55.147 57.8462 54.9333 57.5622C54.7224 57.2744 54.617 56.8913 54.617 56.4128C54.617 55.9227 54.715 55.5376 54.911 55.2576C55.1099 54.9775 55.3757 54.8375 55.7083 54.8375C56.0379 54.8375 56.2947 54.9697 56.4788 55.2342C56.6629 55.4987 56.755 55.8819 56.755 56.3837C56.755 56.442 56.752 56.5295 56.746 56.6462H55.0713ZM55.0713 56.1911H56.3229C56.3199 55.9033 56.2635 55.6816 56.1537 55.526C56.0468 55.3704 55.8983 55.2926 55.7083 55.2926C55.5182 55.2926 55.3653 55.3723 55.2495 55.5318C55.1367 55.6874 55.0773 55.9072 55.0713 56.1911Z" fill="white"/>
<path d="M57.6484 55.3334L57.6395 54.8958H57.2164V57.9298H57.6618V56.2961C57.6618 56.0355 57.7241 55.808 57.8488 55.6135C57.9736 55.4151 58.1116 55.3159 58.2631 55.3159C58.4412 55.3159 58.5645 55.382 58.6327 55.5143C58.704 55.6427 58.7396 55.8838 58.7396 56.2378V57.9298H59.1761V56.1794C59.1761 55.2848 58.9237 54.8375 58.419 54.8375C58.2735 54.8375 58.1339 54.8822 58.0003 54.9717C57.8667 55.0573 57.7523 55.1778 57.6573 55.3334H57.6484Z" fill="white"/>
<path d="M61.221 57.9298L61.2121 57.4922H61.2032C61.0072 57.8229 60.7533 57.9882 60.4415 57.9882C60.204 57.9882 60.0258 57.8948 59.9071 57.7081C59.7883 57.5214 59.7289 57.2258 59.7289 56.8213V54.8958H60.1654V56.7629C60.1654 57.0391 60.1981 57.2316 60.2634 57.3405C60.3317 57.4456 60.443 57.4981 60.5974 57.4981C60.7489 57.4981 60.8869 57.4028 61.0117 57.2122C61.1364 57.0177 61.1987 56.7901 61.1987 56.5295V54.8958H61.6441V57.9298H61.221Z" fill="white"/>
<path d="M62.3983 53.5539V54.1957H62.8705V53.5539H62.3983Z" fill="white"/>
<path d="M62.8705 54.8958H62.3983V57.9298H62.8705V54.8958Z" fill="white"/>
<path d="M64.0477 54.8958L64.0566 55.3334H64.0656C64.1606 55.1778 64.2749 55.0573 64.4085 54.9717C64.5421 54.8822 64.6817 54.8375 64.8272 54.8375C65.332 54.8375 65.5844 55.2848 65.5844 56.1794V57.9298H65.1479V56.2378C65.1479 55.8838 65.1122 55.6427 65.041 55.5143C64.9727 55.382 64.8495 55.3159 64.6713 55.3159C64.5199 55.3159 64.3818 55.4151 64.2571 55.6135C64.1324 55.808 64.07 56.0355 64.07 56.2961V57.9298H63.6246V54.8958H64.0477Z" fill="white"/>
<path fill-rule="evenodd" clip-rule="evenodd" d="M66.6716 57.2939C66.538 57.1344 66.4667 56.9185 66.4578 56.6462H68.1325C68.1385 56.5295 68.1414 56.442 68.1414 56.3837C68.1414 55.8819 68.0494 55.4987 67.8653 55.2342C67.6812 54.9697 67.4243 54.8375 67.0947 54.8375C66.7622 54.8375 66.4964 54.9775 66.2975 55.2576C66.1015 55.5376 66.0035 55.9227 66.0035 56.4128C66.0035 56.8913 66.1089 57.2744 66.3197 57.5622C66.5335 57.8462 66.8067 57.9882 67.1393 57.9882C67.4303 57.9882 67.7049 57.9104 67.9633 57.7548L67.8519 57.3114C67.6292 57.4592 67.4065 57.5331 67.1838 57.5331C66.9789 57.5331 66.8082 57.4533 66.6716 57.2939ZM67.7094 56.1911H66.4578C66.4638 55.9072 66.5231 55.6874 66.636 55.5318C66.7518 55.3723 66.9047 55.2926 67.0947 55.2926C67.2848 55.2926 67.4332 55.3704 67.5401 55.526C67.65 55.6816 67.7064 55.9033 67.7094 56.1911Z" fill="white"/>
<path fill-rule="evenodd" clip-rule="evenodd" d="M72.1299 57.6906V57.7023C72.3229 57.7995 72.5055 57.9454 72.6777 58.1399C72.8529 58.3344 72.9969 58.5561 73.1098 58.805H72.5307C72.3704 58.4744 72.2101 58.2546 72.0497 58.1457C71.8923 58.0407 71.6518 57.9882 71.3282 57.9882C70.8412 57.9882 70.4522 57.7898 70.1612 57.393C69.8702 56.9963 69.7247 56.4653 69.7247 55.8002C69.7247 55.1351 69.8702 54.6041 70.1612 54.2073C70.4522 53.8106 70.8412 53.6122 71.3282 53.6122C71.8151 53.6122 72.2041 53.8106 72.4951 54.2073C72.7861 54.6041 72.9316 55.1351 72.9316 55.8002C72.9316 56.2242 72.8603 56.5995 72.7178 56.9263C72.5783 57.253 72.3823 57.5078 72.1299 57.6906ZM70.5264 57.0196C70.7283 57.3153 70.9956 57.4631 71.3282 57.4631C71.6607 57.4631 71.928 57.3153 72.1299 57.0196C72.3318 56.7201 72.4328 56.3136 72.4328 55.8002C72.4328 55.2868 72.3318 54.8822 72.1299 54.5866C71.928 54.2871 71.6607 54.1373 71.3282 54.1373C70.9956 54.1373 70.7283 54.2871 70.5264 54.5866C70.3245 54.8822 70.2236 55.2868 70.2236 55.8002C70.2236 56.3136 70.3245 56.7201 70.5264 57.0196Z" fill="white"/>
<path d="M74.8115 57.4922L74.8204 57.9298H75.2435V54.8958H74.7981V56.5295C74.7981 56.7901 74.7358 57.0177 74.6111 57.2122C74.4863 57.4028 74.3483 57.4981 74.1968 57.4981C74.0424 57.4981 73.9311 57.4456 73.8628 57.3405C73.7975 57.2316 73.7648 57.0391 73.7648 56.7629V54.8958H73.3283V56.8213C73.3283 57.2258 73.3877 57.5214 73.5065 57.7081C73.6252 57.8948 73.8034 57.9882 74.0409 57.9882C74.3527 57.9882 74.6066 57.8229 74.8026 57.4922H74.8115Z" fill="white"/>
<path fill-rule="evenodd" clip-rule="evenodd" d="M75.7305 57.113C75.7305 56.7746 75.8389 56.5042 76.0557 56.302C76.2754 56.0958 76.5901 55.9927 76.9999 55.9927H77.2226V55.9636C77.2226 55.7185 77.184 55.5474 77.1068 55.4501C77.0326 55.3529 76.9004 55.3043 76.7104 55.3043C76.4283 55.3043 76.1685 55.3918 75.9309 55.5668L75.8641 55.1C76.1136 54.925 76.3956 54.8375 76.7104 54.8375C77.0459 54.8375 77.2894 54.9269 77.4409 55.1059C77.5923 55.2809 77.668 55.561 77.668 55.9461V57.113C77.668 57.3892 77.6903 57.6614 77.7348 57.9298H77.3117C77.2879 57.7587 77.2746 57.6031 77.2716 57.4631H77.2627C77.1796 57.6264 77.0638 57.7548 76.9153 57.8481C76.7698 57.9415 76.605 57.9882 76.4209 57.9882C76.2101 57.9882 76.0423 57.9104 75.9176 57.7548C75.7929 57.5992 75.7305 57.3853 75.7305 57.113ZM77.2226 56.4245H76.9999C76.7327 56.4245 76.5263 56.4848 76.3808 56.6054C76.2383 56.726 76.167 56.8854 76.167 57.0838C76.167 57.2277 76.1997 57.3425 76.265 57.4281C76.3333 57.5097 76.4224 57.5506 76.5322 57.5506C76.7193 57.5506 76.8811 57.4669 77.0177 57.2997C77.1543 57.1285 77.2226 56.9204 77.2226 56.6754V56.4245Z" fill="white"/>
<path d="M78.4412 53.5539V57.9298H78.9133V53.5539H78.4412Z" fill="white"/>
<path d="M79.7364 54.1957V53.5539H80.2085V54.1957H79.7364Z" fill="white"/>
<path d="M79.7364 54.8958H80.2085V57.9298H79.7364V54.8958Z" fill="white"/>
<path d="M82.6329 55.0125H81.7955V53.9039H81.3412V55.0125H80.8513V55.4793H81.3412V56.9963C81.3412 57.3541 81.3976 57.6089 81.5105 57.7606C81.6263 57.9123 81.8148 57.9882 82.0761 57.9882C82.2632 57.9882 82.4413 57.9493 82.6106 57.8715L82.5438 57.4164C82.425 57.4864 82.2914 57.5214 82.1429 57.5214C82.0123 57.5214 81.9217 57.4786 81.8712 57.393C81.8207 57.3036 81.7955 57.1324 81.7955 56.8796V55.4793H82.6329V55.0125Z" fill="white"/>
<path d="M84.1363 57.2297H84.1453L84.8045 54.8958H85.2766L83.9404 59.2134H83.4682L83.8958 57.9298L83.0496 54.8958H83.5395L84.1363 57.2297Z" fill="white"/>
<path d="M69.0945 43.0474H70.0037V49.4664H69.0945V43.0474Z" fill="white"/>
<path fill-rule="evenodd" clip-rule="evenodd" d="M54.0268 46.2569C54.0268 47.341 53.7467 48.1626 53.1863 48.7218C52.6259 49.2752 51.8197 49.552 50.7676 49.552C50.1844 49.552 49.6412 49.5092 49.138 49.4236V43.2614C49.6412 43.1758 50.1844 43.133 50.7676 43.133C51.814 43.133 52.6174 43.404 53.1777 43.9461C53.7438 44.4824 54.0268 45.2527 54.0268 46.2569ZM53.1263 46.2569C53.1263 45.4809 52.9261 44.8961 52.5259 44.5024C52.1256 44.103 51.5396 43.9033 50.7676 43.9033C50.5103 43.9033 50.2816 43.9233 50.0815 43.9632V48.7218C50.2816 48.7617 50.5103 48.7817 50.7676 48.7817C51.5681 48.7817 52.1599 48.5763 52.543 48.1655C52.9319 47.749 53.1263 47.1128 53.1263 46.2569Z" fill="white"/>
<path d="M34.406 43.2186H39.0375V44.006H37.1935V49.4664H36.25V44.006H34.406V43.2186Z" fill="white"/>
<path fill-rule="evenodd" clip-rule="evenodd" d="M39.5732 45.5551C39.9677 45.1386 40.488 44.9303 41.1341 44.9303C41.7803 44.9303 42.2977 45.1386 42.6865 45.5551C43.0811 45.9716 43.2783 46.5336 43.2783 47.2411C43.2783 47.9487 43.0811 48.5107 42.6865 48.9272C42.2977 49.3437 41.7803 49.552 41.1341 49.552C40.488 49.552 39.9677 49.3437 39.5732 48.9272C39.1843 48.5107 38.9899 47.9487 38.9899 47.2411C38.9899 46.5336 39.1843 45.9716 39.5732 45.5551ZM40.2078 48.4394C40.4366 48.7246 40.7453 48.8673 41.1341 48.8673C41.523 48.8673 41.8317 48.7246 42.0604 48.4394C42.2892 48.1541 42.4035 47.7547 42.4035 47.2411C42.4035 46.7276 42.2892 46.3282 42.0604 46.0429C41.8317 45.7577 41.523 45.615 41.1341 45.615C40.7453 45.615 40.4366 45.7577 40.2078 46.0429C39.9791 46.3282 39.8648 46.7276 39.8648 47.2411C39.8648 47.7547 39.9791 48.1541 40.2078 48.4394Z" fill="white"/>
<path fill-rule="evenodd" clip-rule="evenodd" d="M46.3593 44.9303C45.7704 44.9303 45.3101 45.1728 44.9784 45.6578H44.9613L44.9441 45.0159H44.1293V51.3493H44.987V48.9101H45.0042C45.3358 49.338 45.7875 49.552 46.3593 49.552C46.9025 49.552 47.337 49.3551 47.663 48.9614C47.9946 48.562 48.1604 47.9886 48.1604 47.2411C48.1604 46.4823 48.0003 45.9089 47.6801 45.5209C47.3656 45.1272 46.9254 44.9303 46.3593 44.9303ZM47.0111 46.0258C47.217 46.294 47.3199 46.6991 47.3199 47.2411C47.3199 47.7661 47.2113 48.1683 46.994 48.4479C46.7824 48.7275 46.4994 48.8673 46.1449 48.8673C45.8075 48.8673 45.5302 48.7275 45.3129 48.4479C45.0956 48.1683 44.987 47.7803 44.987 47.2839V47.1984C44.987 46.7077 45.0956 46.3225 45.3129 46.0429C45.5302 45.7577 45.8075 45.615 46.1449 45.615C46.5165 45.615 46.8053 45.7519 47.0111 46.0258Z" fill="white"/>
<path fill-rule="evenodd" clip-rule="evenodd" d="M55.8662 48.5335C55.6088 48.2996 55.4716 47.9829 55.4545 47.5835H58.6794C58.6908 47.4123 58.6965 47.2839 58.6965 47.1984C58.6965 46.4623 58.5192 45.9003 58.1647 45.5123C57.8102 45.1243 57.3156 44.9303 56.681 44.9303C56.0405 44.9303 55.5288 45.1357 55.1457 45.5465C54.7683 45.9574 54.5796 46.5222 54.5796 47.2411C54.5796 47.943 54.7826 48.505 55.1886 48.9272C55.6003 49.3437 56.1263 49.552 56.7667 49.552C57.3271 49.552 57.856 49.4379 58.3534 49.2096L58.139 48.5592C57.7102 48.776 57.2813 48.8844 56.8525 48.8844C56.458 48.8844 56.1292 48.7674 55.8662 48.5335ZM57.8646 46.9159H55.4545C55.4659 46.4994 55.5803 46.177 55.7975 45.9488C56.0205 45.7149 56.315 45.5979 56.681 45.5979C57.0469 45.5979 57.3328 45.712 57.5386 45.9402C57.7502 46.1685 57.8588 46.4937 57.8646 46.9159Z" fill="white"/>
<path d="M60.0769 45.0159L61.2691 48.9529H61.2862L62.4784 45.0159H63.4047L61.8609 49.4664H60.6601L59.1163 45.0159H60.0769Z" fill="white"/>
<path fill-rule="evenodd" clip-rule="evenodd" d="M65.0755 48.5335C64.8182 48.2996 64.681 47.9829 64.6638 47.5835H67.8887C67.9001 47.4123 67.9058 47.2839 67.9058 47.1984C67.9058 46.4623 67.7286 45.9003 67.3741 45.5123C67.0196 45.1243 66.525 44.9303 65.8903 44.9303C65.2499 44.9303 64.7381 45.1357 64.3551 45.5465C63.9777 45.9574 63.789 46.5222 63.789 47.2411C63.789 47.943 63.992 48.505 64.3979 48.9272C64.8096 49.3437 65.3357 49.552 65.9761 49.552C66.5364 49.552 67.0653 49.4379 67.5628 49.2096L67.3484 48.5592C66.9195 48.776 66.4907 48.8844 66.0618 48.8844C65.6673 48.8844 65.3385 48.7674 65.0755 48.5335ZM67.0739 46.9159H64.6638C64.6753 46.4994 64.7896 46.177 65.0069 45.9488C65.2299 45.7149 65.5244 45.5979 65.8903 45.5979C66.2562 45.5979 66.5421 45.712 66.748 45.9402C66.9595 46.1685 67.0682 46.4937 67.0739 46.9159Z" fill="white"/>
<path fill-rule="evenodd" clip-rule="evenodd" d="M73.2999 44.9303C72.6537 44.9303 72.1334 45.1386 71.7389 45.5551C71.3501 45.9716 71.1557 46.5336 71.1557 47.2411C71.1557 47.9487 71.3501 48.5107 71.7389 48.9272C72.1334 49.3437 72.6537 49.552 73.2999 49.552C73.946 49.552 74.4634 49.3437 74.8523 48.9272C75.2468 48.5107 75.4441 47.9487 75.4441 47.2411C75.4441 46.5336 75.2468 45.9716 74.8523 45.5551C74.4634 45.1386 73.946 44.9303 73.2999 44.9303ZM73.2999 48.8673C72.911 48.8673 72.6023 48.7246 72.3736 48.4394C72.1449 48.1541 72.0305 47.7547 72.0305 47.2411C72.0305 46.7276 72.1449 46.3282 72.3736 46.0429C72.6023 45.7577 72.911 45.615 73.2999 45.615C73.6887 45.615 73.9974 45.7577 74.2262 46.0429C74.4549 46.3282 74.5692 46.7276 74.5692 47.2411C74.5692 47.7547 74.4549 48.1541 74.2262 48.4394C73.9974 48.7246 73.6887 48.8673 73.2999 48.8673Z" fill="white"/>
<path fill-rule="evenodd" clip-rule="evenodd" d="M77.1441 45.6578C77.4758 45.1728 77.9361 44.9303 78.525 44.9303C79.0911 44.9303 79.5314 45.1272 79.8458 45.5209C80.166 45.9089 80.3261 46.4823 80.3261 47.2411C80.3261 47.9886 80.1603 48.562 79.8287 48.9614C79.5028 49.3551 79.0682 49.552 78.525 49.552C77.9532 49.552 77.5015 49.338 77.1699 48.9101H77.1527V51.3493H76.2951V45.0159H77.1098L77.127 45.6578H77.1441ZM79.4856 47.2411C79.4856 46.6991 79.3827 46.294 79.1769 46.0258C78.971 45.7519 78.6823 45.615 78.3106 45.615C77.9732 45.615 77.6959 45.7577 77.4787 46.0429C77.2614 46.3225 77.1527 46.7077 77.1527 47.1984V47.2839C77.1527 47.7803 77.2614 48.1683 77.4787 48.4479C77.6959 48.7275 77.9732 48.8673 78.3106 48.8673C78.6651 48.8673 78.9481 48.7275 79.1597 48.4479C79.377 48.1683 79.4856 47.7661 79.4856 47.2411Z" fill="white"/>
<path fill-rule="evenodd" clip-rule="evenodd" d="M82.2881 48.5335C82.0308 48.2996 81.8936 47.9829 81.8764 47.5835H85.1013C85.1127 47.4123 85.1185 47.2839 85.1185 47.1984C85.1185 46.4623 84.9412 45.9003 84.5867 45.5123C84.2322 45.1243 83.7376 44.9303 83.1029 44.9303C82.4625 44.9303 81.9507 45.1357 81.5676 45.5465C81.1903 45.9574 81.0016 46.5222 81.0016 47.2411C81.0016 47.943 81.2046 48.505 81.6105 48.9272C82.0222 49.3437 82.5483 49.552 83.1887 49.552C83.749 49.552 84.2779 49.4379 84.7754 49.2096L84.5609 48.5592C84.1321 48.776 83.7033 48.8844 83.2744 48.8844C82.8799 48.8844 82.5511 48.7674 82.2881 48.5335ZM84.2865 46.9159H81.8764C81.8878 46.4994 82.0022 46.177 82.2195 45.9488C82.4425 45.7149 82.7369 45.5979 83.1029 45.5979C83.4688 45.5979 83.7547 45.712 83.9606 45.9402C84.1721 46.1685 84.2808 46.4937 84.2865 46.9159Z" fill="white"/>
<path d="M88.9231 44.9303V45.6492C88.2941 45.6492 87.7966 45.8204 87.4307 46.1628C87.0648 46.4994 86.8818 46.9445 86.8818 47.4979V49.4664H86.0069V45.0159H86.8389L86.8561 45.8718H86.8732C87.3993 45.2441 88.0825 44.9303 88.9231 44.9303Z" fill="white"/>
<path d="M90.4183 46.1713C90.4183 45.8004 90.7042 45.615 91.276 45.615C91.7677 45.615 92.2252 45.7291 92.6483 45.9574L92.8198 45.2727C92.3567 45.0444 91.8421 44.9303 91.276 44.9303C90.7271 44.9303 90.304 45.0444 90.0066 45.2727C89.7093 45.4952 89.5606 45.7947 89.5606 46.1713C89.5606 46.565 89.6921 46.876 89.9552 47.1042C90.2182 47.3267 90.6442 47.4865 91.2331 47.5835C91.5647 47.6348 91.7935 47.7147 91.9193 47.8231C92.0508 47.9258 92.1165 48.0742 92.1165 48.2682C92.1165 48.6676 91.8363 48.8673 91.276 48.8673C90.7156 48.8673 90.201 48.7246 89.7322 48.4394L89.5606 49.1241C90.0695 49.4093 90.6413 49.552 91.276 49.552C91.8192 49.552 92.2395 49.4379 92.5368 49.2096C92.8398 48.9814 92.9914 48.6676 92.9914 48.2682C92.9914 47.8517 92.8627 47.5293 92.6054 47.3011C92.3481 47.0671 91.9193 46.9045 91.3189 46.8132C90.9872 46.7619 90.7528 46.6877 90.6156 46.5907C90.4841 46.488 90.4183 46.3482 90.4183 46.1713Z" fill="white"/>
<path d="M60.4796 95.1845V94.56H58.9956L59.8365 93.5495C60.0404 93.3073 60.1783 93.0915 60.2503 92.9023C60.3222 92.7131 60.3582 92.5106 60.3582 92.2949C60.3582 91.9429 60.2563 91.6647 60.0524 91.4603C59.8485 91.256 59.5757 91.1538 59.2339 91.1538C58.9761 91.1538 58.7422 91.2124 58.5324 91.3298C58.3255 91.4433 58.1606 91.6041 58.0377 91.8123L58.4469 92.2097C58.6178 91.9334 58.8636 91.7953 59.1845 91.7953C59.3763 91.7953 59.5217 91.8445 59.6207 91.9429C59.7196 92.0413 59.7691 92.1832 59.7691 92.3687C59.7691 92.4935 59.7436 92.6203 59.6926 92.749C59.6447 92.8739 59.5502 93.0215 59.4093 93.1918L58.1591 94.6906V95.1845H60.4796Z" fill="white"/>
<path fill-rule="evenodd" clip-rule="evenodd" d="M61.3975 95.0028C61.5954 95.1618 61.8203 95.2412 62.0721 95.2412C62.324 95.2412 62.5488 95.1618 62.7467 95.0028C62.9476 94.84 63.105 94.6054 63.2189 94.2988C63.3328 93.9885 63.3898 93.6214 63.3898 93.1975C63.3898 92.7736 63.3328 92.4084 63.2189 92.1018C63.105 91.7915 62.9476 91.5568 62.7467 91.3979C62.5488 91.2351 62.324 91.1538 62.0721 91.1538C61.8203 91.1538 61.5954 91.2351 61.3975 91.3979C61.1997 91.5568 61.0438 91.7915 60.9298 92.1018C60.8159 92.4084 60.7589 92.7736 60.7589 93.1975C60.7589 93.6214 60.8159 93.9885 60.9298 94.2988C61.0438 94.6054 61.1997 94.84 61.3975 95.0028ZM62.6028 94.2477C62.4739 94.4824 62.297 94.5997 62.0721 94.5997C61.8503 94.5997 61.6734 94.4824 61.5415 94.2477C61.4125 94.0131 61.3481 93.663 61.3481 93.1975C61.3481 92.732 61.4125 92.3819 61.5415 92.1472C61.6734 91.9126 61.8503 91.7953 62.0721 91.7953C62.297 91.7953 62.4739 91.9126 62.6028 92.1472C62.7347 92.3819 62.8007 92.732 62.8007 93.1975C62.8007 93.663 62.7347 94.0131 62.6028 94.2477Z" fill="white"/>
<path d="M65.9981 94.56V95.1845H63.6775V94.6906L64.9277 93.1918C65.0686 93.0215 65.1631 92.8739 65.211 92.749C65.262 92.6203 65.2875 92.4935 65.2875 92.3687C65.2875 92.1832 65.238 92.0413 65.1391 91.9429C65.0401 91.8445 64.8947 91.7953 64.7029 91.7953C64.3821 91.7953 64.1362 91.9334 63.9653 92.2097L63.5561 91.8123C63.679 91.6041 63.8439 91.4433 64.0508 91.3298C64.2606 91.2124 64.4945 91.1538 64.7523 91.1538C65.0941 91.1538 65.3669 91.256 65.5708 91.4603C65.7747 91.6647 65.8766 91.9429 65.8766 92.2949C65.8766 92.5106 65.8406 92.7131 65.7687 92.9023C65.6967 93.0915 65.5588 93.3073 65.3549 93.5495L64.514 94.56H65.9981Z" fill="white"/>
<path fill-rule="evenodd" clip-rule="evenodd" d="M66.9159 95.0028C67.1138 95.1618 67.3387 95.2412 67.5905 95.2412C67.8424 95.2412 68.0672 95.1618 68.2651 95.0028C68.466 94.84 68.6234 94.6054 68.7373 94.2988C68.8512 93.9885 68.9082 93.6214 68.9082 93.1975C68.9082 92.7736 68.8512 92.4084 68.7373 92.1018C68.6234 91.7915 68.466 91.5568 68.2651 91.3979C68.0672 91.2351 67.8424 91.1538 67.5905 91.1538C67.3387 91.1538 67.1138 91.2351 66.9159 91.3979C66.7181 91.5568 66.5622 91.7915 66.4482 92.1018C66.3343 92.4084 66.2773 92.7736 66.2773 93.1975C66.2773 93.6214 66.3343 93.9885 66.4482 94.2988C66.5622 94.6054 66.7181 94.84 66.9159 95.0028ZM68.1212 94.2477C67.9923 94.4824 67.8154 94.5997 67.5905 94.5997C67.3687 94.5997 67.1918 94.4824 67.0599 94.2477C66.9309 94.0131 66.8665 93.663 66.8665 93.1975C66.8665 92.732 66.9309 92.3819 67.0599 92.1472C67.1918 91.9126 67.3687 91.7953 67.5905 91.7953C67.8154 91.7953 67.9923 91.9126 68.1212 92.1472C68.2531 92.3819 68.3191 92.732 68.3191 93.1975C68.3191 93.663 68.2531 94.0131 68.1212 94.2477Z" fill="white"/>
<path d="M85.4629 68.8299H86.1977V74.0178H85.4629V68.8299Z" fill="white"/>
<path d="M37.8637 69.5078C37.5818 69.5078 37.3646 69.5724 37.2121 69.7015C37.0596 69.826 36.9834 69.9966 36.9834 70.2134C36.9834 70.5961 37.2653 70.8728 37.8291 71.0434C38.4344 71.2141 38.8619 71.4262 39.1115 71.6798C39.3656 71.9334 39.4927 72.2632 39.4927 72.669C39.4927 73.1255 39.3448 73.476 39.0491 73.7204C38.7579 73.9648 38.3397 74.087 37.7944 74.087C37.2214 74.087 36.7015 73.9487 36.2347 73.672L36.4427 73.0494C36.8586 73.3261 37.3092 73.4645 37.7944 73.4645C38.0948 73.4645 38.3258 73.3953 38.4876 73.257C38.6493 73.1186 38.7302 72.9226 38.7302 72.669C38.7302 72.4292 38.6655 72.2401 38.5361 72.1018C38.4067 71.9634 38.171 71.8412 37.8291 71.7352C37.2791 71.5737 36.8748 71.3685 36.616 71.1195C36.3618 70.8705 36.2347 70.5684 36.2347 70.2134C36.2347 69.8168 36.378 69.4986 36.6645 69.2588C36.9556 69.019 37.3554 68.8991 37.8637 68.8991C38.3905 68.8991 38.8873 69.0028 39.3541 69.2104L39.1808 69.7983C38.7787 69.6046 38.3397 69.5078 37.8637 69.5078Z" fill="white"/>
<path d="M22.5127 68.9683H26.256V69.6046H24.7656V74.0178H24.0031V69.6046H22.5127V68.9683Z" fill="white"/>
<path fill-rule="evenodd" clip-rule="evenodd" d="M26.6889 70.8567C27.0078 70.52 27.4283 70.3517 27.9505 70.3517C28.4727 70.3517 28.8909 70.52 29.2052 70.8567C29.524 71.1933 29.6835 71.6475 29.6835 72.2194C29.6835 72.7912 29.524 73.2454 29.2052 73.5821C28.8909 73.9187 28.4727 74.087 27.9505 74.087C27.4283 74.087 27.0078 73.9187 26.6889 73.5821C26.3746 73.2454 26.2175 72.7912 26.2175 72.2194C26.2175 71.6475 26.3746 71.1933 26.6889 70.8567ZM27.2018 73.1878C27.3867 73.4184 27.6362 73.5336 27.9505 73.5336C28.2647 73.5336 28.5143 73.4184 28.6991 73.1878C28.884 72.9572 28.9764 72.6344 28.9764 72.2194C28.9764 71.8043 28.884 71.4815 28.6991 71.2509C28.5143 71.0204 28.2647 70.9051 27.9505 70.9051C27.6362 70.9051 27.3867 71.0204 27.2018 71.2509C27.017 71.4815 26.9246 71.8043 26.9246 72.2194C26.9246 72.6344 27.017 72.9572 27.2018 73.1878Z" fill="white"/>
<path fill-rule="evenodd" clip-rule="evenodd" d="M32.1736 70.3517C31.6976 70.3517 31.3256 70.5477 31.0575 70.9397H31.0437L31.0298 70.4209H30.3713V75.5396H31.0645V73.5682H31.0783C31.3464 73.9141 31.7114 74.087 32.1736 74.087C32.6126 74.087 32.9638 73.9279 33.2272 73.6097C33.4953 73.2869 33.6293 72.8235 33.6293 72.2194C33.6293 71.606 33.4999 71.1426 33.2411 70.829C32.9869 70.5108 32.6311 70.3517 32.1736 70.3517ZM32.7004 71.2371C32.8668 71.4538 32.9499 71.7813 32.9499 72.2194C32.9499 72.6436 32.8621 72.9687 32.6865 73.1947C32.5155 73.4207 32.2868 73.5336 32.0003 73.5336C31.7276 73.5336 31.5035 73.4207 31.3279 73.1947C31.1523 72.9687 31.0645 72.6551 31.0645 72.2539V72.1848C31.0645 71.7882 31.1523 71.4769 31.3279 71.2509C31.5035 71.0204 31.7276 70.9051 32.0003 70.9051C32.3007 70.9051 32.534 71.0158 32.7004 71.2371Z" fill="white"/>
<path fill-rule="evenodd" clip-rule="evenodd" d="M41.8079 70.3517C41.2857 70.3517 40.8651 70.52 40.5463 70.8567C40.232 71.1933 40.0749 71.6475 40.0749 72.2194C40.0749 72.7912 40.232 73.2454 40.5463 73.5821C40.8651 73.9187 41.2857 74.087 41.8079 74.087C42.3301 74.087 42.7483 73.9187 43.0626 73.5821C43.3814 73.2454 43.5409 72.7912 43.5409 72.2194C43.5409 71.6475 43.3814 71.1933 43.0626 70.8567C42.7483 70.52 42.3301 70.3517 41.8079 70.3517ZM41.8079 73.5336C41.4936 73.5336 41.2441 73.4184 41.0592 73.1878C40.8744 72.9572 40.782 72.6344 40.782 72.2194C40.782 71.8043 40.8744 71.4815 41.0592 71.2509C41.2441 71.0204 41.4936 70.9051 41.8079 70.9051C42.1221 70.9051 42.3717 71.0204 42.5565 71.2509C42.7414 71.4815 42.8338 71.8043 42.8338 72.2194C42.8338 72.6344 42.7414 72.9572 42.5565 73.1878C42.3717 73.4184 42.1221 73.5336 41.8079 73.5336Z" fill="white"/>
<path d="M44.0223 71.1126V70.5592H44.9235V70.1788C44.9235 69.3256 45.3394 68.8991 46.1712 68.8991C46.4115 68.8991 46.6426 68.9337 46.8644 69.0028L46.7258 69.5562C46.5686 69.487 46.4069 69.4525 46.2405 69.4525C46.0141 69.4525 45.8547 69.5078 45.7622 69.6185C45.6744 69.7245 45.6305 69.9113 45.6305 70.1788V70.5592H46.7951V71.1126H45.6305V74.0178H44.9235V71.1126H44.0223Z" fill="white"/>
<path d="M50.2248 70.5592H48.9216V69.2449H48.2145V70.5592H47.452V71.1126H48.2145V72.9111C48.2145 73.3353 48.3023 73.6374 48.4779 73.8172C48.6582 73.9971 48.9516 74.087 49.3583 74.087C49.6494 74.087 49.9267 74.0409 50.1901 73.9487L50.0861 73.4091C49.9013 73.4921 49.6933 73.5336 49.4623 73.5336C49.2589 73.5336 49.118 73.4829 49.0394 73.3815C48.9609 73.2754 48.9216 73.0725 48.9216 72.7727V71.1126H50.2248V70.5592Z" fill="white"/>
<path d="M51.719 70.4209L52.3706 73.3953H52.3845L53.0014 70.4209H53.9719L54.5888 73.3953H54.6027L55.2543 70.4209H56.0029L55.0325 74.0178H54.0967L53.4797 71.1126H53.4658L52.8489 74.0178H51.9131L50.9426 70.4209H51.719Z" fill="white"/>
<path fill-rule="evenodd" clip-rule="evenodd" d="M56.992 72.0879C56.6547 72.3277 56.486 72.6482 56.486 73.0494C56.486 73.3722 56.5831 73.6259 56.7771 73.8103C56.9712 73.9948 57.2323 74.087 57.5605 74.087C57.847 74.087 58.1035 74.0317 58.3299 73.921C58.561 73.8103 58.7412 73.6581 58.8706 73.4645H58.8845C58.8891 73.6305 58.9099 73.8149 58.9468 74.0178H59.6054C59.5361 73.6997 59.5014 73.3768 59.5014 73.0494V71.666C59.5014 71.2094 59.3836 70.8774 59.1479 70.6699C58.9122 70.4578 58.5332 70.3517 58.011 70.3517C57.5212 70.3517 57.0822 70.4555 56.694 70.663L56.7979 71.2164C57.1677 71.0088 57.572 70.9051 58.011 70.9051C58.3068 70.9051 58.5124 70.9627 58.628 71.078C58.7481 71.1933 58.8082 71.3962 58.8082 71.6867V71.7213H58.4616C57.8239 71.7213 57.334 71.8435 56.992 72.0879ZM58.4616 72.2332H58.8082V72.5306C58.8082 72.8212 58.7019 73.0679 58.4893 73.2708C58.2768 73.4691 58.0249 73.5682 57.7338 73.5682C57.5628 73.5682 57.4241 73.5198 57.3178 73.423C57.2162 73.3215 57.1653 73.1855 57.1653 73.0148C57.1653 72.7797 57.2763 72.5906 57.4981 72.4476C57.7245 72.3047 58.0457 72.2332 58.4616 72.2332Z" fill="white"/>
<path d="M62.819 70.3517V70.9328C62.3106 70.9328 61.9086 71.0711 61.6128 71.3478C61.3171 71.6199 61.1692 71.9796 61.1692 72.4269V74.0178H60.4621V70.4209H61.1345L61.1484 71.1126H61.1623C61.5874 70.6053 62.1397 70.3517 62.819 70.3517Z" fill="white"/>
<path fill-rule="evenodd" clip-rule="evenodd" d="M64.2701 73.2639C64.0621 73.0748 63.9512 72.8189 63.9374 72.496H66.5438C66.553 72.3577 66.5576 72.2539 66.5576 72.1848C66.5576 71.5899 66.4144 71.1357 66.1279 70.8221C65.8413 70.5085 65.4416 70.3517 64.9286 70.3517C64.411 70.3517 63.9974 70.5177 63.6878 70.8497C63.3828 71.1818 63.2303 71.6383 63.2303 72.2194C63.2303 72.7866 63.3944 73.2408 63.7225 73.5821C64.0552 73.9187 64.4804 74.087 64.9979 74.087C65.4508 74.087 65.8783 73.9948 66.2804 73.8103L66.1071 73.2846C65.7605 73.4599 65.4139 73.5475 65.0673 73.5475C64.7484 73.5475 64.4827 73.4529 64.2701 73.2639ZM65.8852 71.9565H63.9374C63.9466 71.6199 64.039 71.3593 64.2146 71.1749C64.3949 70.9858 64.6329 70.8912 64.9286 70.8912C65.2244 70.8912 65.4555 70.9835 65.6218 71.1679C65.7928 71.3524 65.8806 71.6153 65.8852 71.9565Z" fill="white"/>
<path fill-rule="evenodd" clip-rule="evenodd" d="M73.2849 71.4239C73.2849 72.3001 73.0584 72.9641 72.6055 73.416C72.1527 73.8634 71.501 74.087 70.6507 74.087C70.1794 74.087 69.7403 74.0524 69.3337 73.9833V69.0028C69.7403 68.9337 70.1794 68.8991 70.6507 68.8991C71.4964 68.8991 72.1457 69.1181 72.5986 69.5562C73.0561 69.9897 73.2849 70.6123 73.2849 71.4239ZM72.557 71.4239C72.557 70.7967 72.3953 70.324 72.0718 70.0058C71.7483 69.683 71.2746 69.5216 70.6507 69.5216C70.4428 69.5216 70.2579 69.5378 70.0962 69.5701V73.416C70.2579 73.4483 70.4428 73.4645 70.6507 73.4645C71.2977 73.4645 71.776 73.2985 72.0856 72.9664C72.3999 72.6298 72.557 72.1156 72.557 71.4239Z" fill="white"/>
<path fill-rule="evenodd" clip-rule="evenodd" d="M74.7714 73.2639C74.5635 73.0748 74.4526 72.8189 74.4387 72.496H77.0451C77.0544 72.3577 77.059 72.2539 77.059 72.1848C77.059 71.5899 76.9157 71.1357 76.6292 70.8221C76.3427 70.5085 75.9429 70.3517 75.43 70.3517C74.9124 70.3517 74.4988 70.5177 74.1892 70.8497C73.8842 71.1818 73.7317 71.6383 73.7317 72.2194C73.7317 72.7866 73.8957 73.2408 74.2238 73.5821C74.5566 73.9187 74.9817 74.087 75.4993 74.087C75.9522 74.087 76.3797 73.9948 76.7817 73.8103L76.6084 73.2846C76.2618 73.4599 75.9152 73.5475 75.5686 73.5475C75.2497 73.5475 74.984 73.4529 74.7714 73.2639ZM76.3866 71.9565H74.4387C74.448 71.6199 74.5404 71.3593 74.716 71.1749C74.8962 70.9858 75.1342 70.8912 75.43 70.8912C75.7257 70.8912 75.9568 70.9835 76.1232 71.1679C76.2942 71.3524 76.382 71.6153 76.3866 71.9565Z" fill="white"/>
<path d="M78.1747 70.4209L79.1382 73.6028H79.1521L80.1156 70.4209H80.8642L79.6165 74.0178H78.646L77.3983 70.4209H78.1747Z" fill="white"/>
<path fill-rule="evenodd" clip-rule="evenodd" d="M82.2146 73.2639C82.0067 73.0748 81.8958 72.8189 81.8819 72.496H84.4883C84.4975 72.3577 84.5022 72.2539 84.5022 72.1848C84.5022 71.5899 84.3589 71.1357 84.0724 70.8221C83.7859 70.5085 83.3861 70.3517 82.8732 70.3517C82.3556 70.3517 81.942 70.5177 81.6323 70.8497C81.3273 71.1818 81.1748 71.6383 81.1748 72.2194C81.1748 72.7866 81.3389 73.2408 81.667 73.5821C81.9997 73.9187 82.4249 74.087 82.9425 74.087C83.3954 74.087 83.8228 73.9948 84.2249 73.8103L84.0516 73.2846C83.705 73.4599 83.3584 73.5475 83.0118 73.5475C82.6929 73.5475 82.4272 73.4529 82.2146 73.2639ZM83.8298 71.9565H81.8819C81.8911 71.6199 81.9836 71.3593 82.1592 71.1749C82.3394 70.9858 82.5774 70.8912 82.8732 70.8912C83.1689 70.8912 83.4 70.9835 83.5664 71.1679C83.7373 71.3524 83.8251 71.6153 83.8298 71.9565Z" fill="white"/>
<path fill-rule="evenodd" clip-rule="evenodd" d="M88.8617 70.3517C88.3395 70.3517 87.919 70.52 87.6001 70.8567C87.2859 71.1933 87.1287 71.6475 87.1287 72.2194C87.1287 72.7912 87.2859 73.2454 87.6001 73.5821C87.919 73.9187 88.3395 74.087 88.8617 74.087C89.3839 74.087 89.8021 73.9187 90.1164 73.5821C90.4353 73.2454 90.5947 72.7912 90.5947 72.2194C90.5947 71.6475 90.4353 71.1933 90.1164 70.8567C89.8021 70.52 89.3839 70.3517 88.8617 70.3517ZM88.8617 73.5336C88.5475 73.5336 88.2979 73.4184 88.1131 73.1878C87.9282 72.9572 87.8358 72.6344 87.8358 72.2194C87.8358 71.8043 87.9282 71.4815 88.1131 71.2509C88.2979 71.0204 88.5475 70.9051 88.8617 70.9051C89.176 70.9051 89.4255 71.0204 89.6104 71.2509C89.7952 71.4815 89.8876 71.8043 89.8876 72.2194C89.8876 72.6344 89.7952 72.9572 89.6104 73.1878C89.4255 73.4184 89.176 73.5336 88.8617 73.5336Z" fill="white"/>
<path fill-rule="evenodd" clip-rule="evenodd" d="M91.9687 70.9397C92.2368 70.5477 92.6088 70.3517 93.0848 70.3517C93.5423 70.3517 93.8981 70.5108 94.1523 70.829C94.4111 71.1426 94.5405 71.606 94.5405 72.2194C94.5405 72.8235 94.4065 73.2869 94.1384 73.6097C93.875 73.9279 93.5238 74.087 93.0848 74.087C92.6227 74.087 92.2576 73.9141 91.9895 73.5682H91.9757V75.5396H91.2825V70.4209H91.941L91.9549 70.9397H91.9687ZM93.8612 72.2194C93.8612 71.7813 93.778 71.4538 93.6116 71.2371C93.4452 71.0158 93.2119 70.9051 92.9115 70.9051C92.6388 70.9051 92.4147 71.0204 92.2391 71.2509C92.0635 71.4769 91.9757 71.7882 91.9757 72.1848V72.2539C91.9757 72.6551 92.0635 72.9687 92.2391 73.1947C92.4147 73.4207 92.6388 73.5336 92.9115 73.5336C93.198 73.5336 93.4268 73.4207 93.5977 73.1947C93.7734 72.9687 93.8612 72.6436 93.8612 72.2194Z" fill="white"/>
<path fill-rule="evenodd" clip-rule="evenodd" d="M96.1262 73.2639C95.9182 73.0748 95.8073 72.8189 95.7934 72.496H98.3998C98.4091 72.3577 98.4137 72.2539 98.4137 72.1848C98.4137 71.5899 98.2704 71.1357 97.9839 70.8221C97.6974 70.5085 97.2977 70.3517 96.7847 70.3517C96.2671 70.3517 95.8535 70.5177 95.5439 70.8497C95.2389 71.1818 95.0864 71.6383 95.0864 72.2194C95.0864 72.7866 95.2504 73.2408 95.5785 73.5821C95.9113 73.9187 96.3364 74.087 96.854 74.087C97.3069 74.087 97.7344 73.9948 98.1364 73.8103L97.9631 73.2846C97.6165 73.4599 97.2699 73.5475 96.9233 73.5475C96.6045 73.5475 96.3387 73.4529 96.1262 73.2639ZM97.7413 71.9565H95.7934C95.8027 71.6199 95.8951 71.3593 96.0707 71.1749C96.2509 70.9858 96.4889 70.8912 96.7847 70.8912C97.0805 70.8912 97.3115 70.9835 97.4779 71.1679C97.6489 71.3524 97.7367 71.6153 97.7413 71.9565Z" fill="white"/>
<path d="M101.489 70.3517V70.9328C100.98 70.9328 100.578 71.0711 100.283 71.3478C99.9868 71.6199 99.8389 71.9796 99.8389 72.4269V74.0178H99.1318V70.4209H99.8042L99.8181 71.1126H99.8319C100.257 70.6053 100.809 70.3517 101.489 70.3517Z" fill="white"/>
<path d="M102.697 71.3547C102.697 71.055 102.928 70.9051 103.39 70.9051C103.788 70.9051 104.157 70.9973 104.499 71.1818L104.638 70.6284C104.264 70.4439 103.848 70.3517 103.39 70.3517C102.947 70.3517 102.605 70.4439 102.364 70.6284C102.124 70.8082 102.004 71.0503 102.004 71.3547C102.004 71.6729 102.11 71.9242 102.323 72.1087C102.535 72.2885 102.88 72.4176 103.356 72.496C103.624 72.5376 103.809 72.6021 103.91 72.6897C104.017 72.7727 104.07 72.8926 104.07 73.0494C104.07 73.3722 103.843 73.5336 103.39 73.5336C102.937 73.5336 102.522 73.4184 102.143 73.1878L102.004 73.7411C102.415 73.9717 102.877 74.087 103.39 74.087C103.829 74.087 104.169 73.9948 104.409 73.8103C104.654 73.6259 104.777 73.3722 104.777 73.0494C104.777 72.7128 104.673 72.4522 104.465 72.2678C104.257 72.0787 103.91 71.9473 103.425 71.8735C103.157 71.832 102.968 71.772 102.857 71.6936C102.75 71.6106 102.697 71.4977 102.697 71.3547Z" fill="white"/>
<path fill-rule="evenodd" clip-rule="evenodd" d="M117.922 83.4314C118.56 84.2273 119.198 85.0232 119.843 85.8133C120.836 87.0286 121.817 88.2532 122.783 89.4826C122.806 89.5315 122.837 89.5789 122.868 89.6263L122.868 89.6265C122.966 89.7787 123.065 89.931 122.917 90.1335C122.723 90.2519 122.51 90.2464 122.3 90.2411H122.299C122.255 90.2399 122.212 90.2388 122.169 90.2388C116.565 90.2419 110.961 90.2419 105.357 90.2404C104.421 90.2404 104.365 90.1822 104.363 89.2342C104.362 88.3526 104.363 87.4708 104.363 86.5889C104.363 85.4105 104.363 84.2322 104.362 83.0543C104.362 82.383 104.332 82.3453 103.667 82.3547C103.276 82.3606 102.971 82.3546 102.728 82.3498H102.727C102.252 82.3404 102.014 82.3357 101.832 82.4341C101.649 82.5331 101.522 82.7365 101.268 83.1444C101.15 83.334 101.004 83.5679 100.812 83.8561C98.1338 87.8807 95.2523 91.7543 92.1566 95.466C89.8942 98.1795 87.5216 100.795 85.0671 103.341C83.5531 104.911 81.9855 106.422 80.4069 107.92C77.8295 110.365 75.1638 112.712 72.3974 114.948C69.6309 117.183 66.8408 119.384 63.9561 121.465C63.8333 121.555 63.7206 121.657 63.6079 121.759C63.5167 121.842 63.4256 121.924 63.3291 122H62.9746C63.0251 121.693 62.8194 121.575 62.6241 121.463C62.5697 121.432 62.516 121.401 62.4689 121.366C57.793 117.968 53.2825 114.366 48.9674 110.522C42.1709 104.468 35.9889 97.8462 30.4859 90.5973C28.5276 88.0159 26.6576 85.3716 24.9057 82.6456C24.6725 82.2808 24.4315 82.1173 24.0077 82.1598C23.8341 82.1772 23.6422 82.1565 23.4532 82.1362C23.1121 82.0996 22.78 82.0639 22.5803 82.2541C22.3394 82.4833 22.3854 82.8732 22.4309 83.2591C22.4494 83.4157 22.4678 83.5718 22.4669 83.7162C22.4527 85.6577 22.4464 87.6008 22.4732 89.5439C22.4795 89.9998 22.3393 90.091 21.9076 90.0895C17.8254 90.0795 13.7432 90.0789 9.66107 90.0783H9.59025C7.91416 90.078 6.23807 90.0778 4.56198 90.0769C4.51917 90.0769 4.47212 90.083 4.42427 90.0892L4.4241 90.0892C4.28534 90.1072 4.13994 90.1261 4.07202 89.9998C3.9958 89.8591 4.10359 89.7691 4.20795 89.6821C4.24811 89.6486 4.28776 89.6155 4.31621 89.5801C6.82747 86.4579 9.33872 83.3373 11.8689 80.2308C12.1147 79.929 12.0658 79.7623 11.8453 79.4903C9.334 76.3949 6.83377 73.29 4.33512 70.1835C4.30065 70.1413 4.25624 70.1008 4.21111 70.0597C4.0747 69.9354 3.93162 69.805 4.03579 69.6018C4.12121 69.4336 4.29037 69.4621 4.45216 69.4894L4.45261 69.4894C4.51147 69.4993 4.56935 69.5091 4.62185 69.5091C7.58153 69.5036 10.5412 69.5034 13.5009 69.5033C14.7697 69.5033 16.0385 69.5032 17.3073 69.5028C17.4156 69.5028 17.5247 69.496 17.6334 69.4892C17.6813 69.4862 17.7291 69.4832 17.7768 69.4808C17.8508 69.41 17.9154 69.3314 17.9406 69.2292C17.9766 67.6718 17.971 66.1143 17.9654 64.5568V64.5564C17.9624 63.7275 17.9594 62.8987 17.9627 62.0699C17.9629 62.028 17.9613 61.9853 17.9596 61.9427C17.9505 61.7135 17.9414 61.4845 18.2337 61.3719C18.5751 61.3249 18.5117 61.1269 18.4514 60.9389C18.4411 60.9066 18.4308 60.8745 18.4227 60.8436C17.9643 59.1049 17.561 57.3536 17.1955 55.5944C16.7906 53.6481 16.4786 51.6846 16.1809 49.7194C15.19 43.1633 15.0865 36.5331 15.0796 29.9062L15.0796 29.8952C15.0795 29.6887 15.0795 29.5392 15.338 29.4079C20.7386 26.6834 26.1298 23.9432 31.5209 21.2015C41.1816 16.2871 50.8422 11.3696 60.5028 6.45202C60.586 6.40995 60.6685 6.36343 60.7508 6.31704L60.7514 6.3167L60.7516 6.31662C60.7889 6.29555 60.8262 6.27452 60.8636 6.25394C60.9347 6.20428 61.0149 6.17282 61.0951 6.14133C61.1799 6.10801 61.2648 6.07465 61.3393 6.01969C61.5143 5.93091 61.6907 5.84443 61.8671 5.75795C62.2559 5.56726 62.6448 5.37656 63.0188 5.16133C63.4236 4.92865 63.7639 4.96167 64.1736 5.17076C68.2106 7.23838 72.2542 9.29631 76.298 11.3543L76.2982 11.3544L76.2995 11.3551C77.1409 11.7833 77.9823 12.2115 78.8236 12.6398C89.6106 18.1312 100.396 23.621 111.183 29.1107C111.299 29.1699 111.405 29.215 111.518 29.2629C111.628 29.3092 111.743 29.3582 111.88 29.4252C111.956 29.4629 112.076 29.6034 112.075 29.9178C112.075 30.1536 112.075 30.3527 112.075 30.5838C112.074 31.0296 112.073 31.4753 112.072 31.9209V31.9231C112.069 33.5906 112.065 35.2574 112.076 36.9241C112.089 38.8216 112.031 40.7097 111.774 42.5947C111.697 43.1623 111.666 43.7377 111.635 44.3128L111.635 44.3155L111.635 44.3164C111.619 44.5986 111.604 44.8808 111.583 45.1619C111.446 45.5297 111.434 45.9155 111.423 46.2998C111.418 46.4822 111.413 46.6644 111.394 46.8441C111.22 48.5066 110.947 50.1503 110.673 51.7955L110.671 51.8072C110.18 54.7533 109.586 57.6774 108.818 60.5654C108.81 60.5982 108.8 60.6309 108.791 60.6634C108.698 60.9927 108.61 61.3015 109.115 61.4489C109.282 61.4967 109.266 61.6507 109.251 61.7967C109.246 61.8379 109.242 61.8784 109.242 61.9158C109.239 64.2111 109.241 66.5063 109.244 68.8016C109.244 68.8254 109.243 68.8493 109.242 68.8734C109.241 68.8958 109.24 68.9183 109.238 68.9408L109.238 68.9417C109.227 69.1281 109.216 69.3182 109.375 69.4713C113.849 69.4792 118.325 69.4886 122.799 69.4981C123.107 69.6794 122.997 69.8523 122.887 70.0255C122.847 70.0895 122.806 70.1536 122.786 70.2181C121.788 71.5608 120.729 72.8565 119.671 74.1522C119.489 74.3752 119.307 74.5981 119.125 74.8212C118.677 75.3709 118.235 75.9261 117.794 76.4814C117.014 77.4616 116.235 78.4418 115.418 79.3913C115.112 79.7466 115.158 80.0264 115.44 80.3676C116.277 81.3808 117.099 82.4059 117.921 83.4309L117.922 83.4314ZM42.0723 24.0325C35.4147 27.257 28.7566 30.4818 22.0951 33.6966C21.8525 33.8145 21.7831 33.9261 21.7942 34.1713C21.8218 34.9589 21.8135 35.7466 21.8052 36.5344C21.7912 37.8602 21.7773 39.1862 21.9344 40.5116C22.0418 41.4157 22.1165 42.3235 22.1911 43.2314C22.2609 44.0807 22.3308 44.9302 22.4275 45.7766C23.0057 50.8309 23.9588 55.8129 25.3814 60.7021C25.498 61.1077 25.6335 61.2681 26.0809 61.2681C50.9966 61.2555 75.9137 61.2555 100.829 61.2681C101.278 61.2681 101.419 61.1046 101.53 60.7084C102.813 56.1918 103.744 51.606 104.343 46.9494C104.532 45.4684 104.655 43.9815 104.779 42.4946C104.857 41.5475 104.935 40.6005 105.031 39.6548C105.142 38.5619 105.126 37.457 105.11 36.3512C105.1 35.7075 105.091 35.0634 105.107 34.4213C105.118 33.9827 104.985 33.7799 104.596 33.5928C97.342 30.0925 90.0927 26.5812 82.8429 23.0696C81.8613 22.5942 80.8797 22.1187 79.898 21.6432C74.4927 19.0241 69.0889 16.4034 63.6852 13.7827C63.5292 13.657 63.3732 13.6554 63.2173 13.7843L63.1018 13.842C62.9476 13.919 62.7925 13.9965 62.6375 14.072C59.8466 15.424 57.0557 16.7756 54.2648 18.1272C51.4739 19.4789 48.683 20.8305 45.8921 22.1825C44.6189 22.7991 43.3456 23.4158 42.0723 24.0325ZM70.9653 102.64C76.3974 97.6356 81.1127 92.0389 85.1175 85.8416C85.1348 85.8149 85.1579 85.7889 85.1813 85.7626C85.2513 85.6838 85.3238 85.6022 85.253 85.4879C85.187 85.3835 85.084 85.4028 84.9839 85.4216C84.9453 85.4289 84.9072 85.436 84.8717 85.436C70.3966 85.4297 55.9214 85.4266 41.4462 85.4329C41.4131 85.4329 41.3773 85.4269 41.341 85.4208C41.2374 85.4033 41.13 85.3853 41.0728 85.5052C41.0189 85.6175 41.0921 85.6947 41.1632 85.7697C41.1897 85.7976 41.2159 85.8252 41.2351 85.8542C41.362 86.0444 41.4886 86.2349 41.6152 86.4253L41.6157 86.4261C42.0863 87.1341 42.5569 87.8421 43.0422 88.5394C46.1206 92.9696 49.6054 97.057 53.4621 100.832C56.4555 103.76 59.6568 106.452 62.9053 109.09C63.129 109.271 63.244 109.239 63.4457 109.073C65.9948 106.977 68.5359 104.877 70.9653 102.64ZM107.081 80.4446C107.56 80.4462 107.698 80.3471 107.697 79.8456C107.676 74.4297 107.675 69.0123 107.7 63.598C107.701 63.087 107.55 63.0037 107.079 63.0037C78.1304 63.0147 49.1832 63.0147 20.2345 63.0037C19.7776 63.0037 19.6547 63.109 19.6563 63.5744C19.6736 68.9903 19.6768 74.4062 19.6531 79.8221C19.65 80.3566 19.7981 80.4446 20.2959 80.4446C49.2241 80.4163 78.1525 80.4163 107.081 80.4446Z" fill="white"/>
</svg>
