<svg width="128" height="128" viewBox="0 0 128 128" fill="none" xmlns="http://www.w3.org/2000/svg">
<path d="M51.5464 95.743H57.3005V94.3996H53.6912L55.5996 92.3873C56.1224 91.8146 56.4914 91.313 56.7067 90.8825C56.9219 90.452 57.0295 90.0292 57.0295 89.614C57.0295 88.8568 56.7893 88.2706 56.3088 87.8555C55.8322 87.4404 55.1614 87.2328 54.2966 87.2328C53.7316 87.2328 53.2261 87.3539 52.7802 87.596C52.3343 87.8343 51.9884 88.1649 51.7424 88.5877C51.5002 89.0105 51.3792 89.4776 51.3792 89.9888H53.0512C53.0512 89.566 53.1588 89.2258 53.3741 88.9683C53.5932 88.7069 53.8911 88.5762 54.2678 88.5762C54.6175 88.5762 54.8866 88.6838 55.075 88.8991C55.2633 89.1105 55.3575 89.4026 55.3575 89.7755C55.3575 90.0484 55.2672 90.3367 55.0865 90.6403C54.9097 90.944 54.6348 91.2995 54.262 91.707L51.5464 94.6013V95.743Z" fill="white"/>
<path fill-rule="evenodd" clip-rule="evenodd" d="M63.2565 94.9358C63.737 94.3208 63.9772 93.4328 63.9772 92.272V90.7268C63.9657 89.6006 63.7177 88.7376 63.2334 88.138C62.7491 87.5345 62.0495 87.2328 61.1347 87.2328C60.2199 87.2328 59.5184 87.5364 59.0302 88.1438C58.5459 88.7511 58.3038 89.6409 58.3038 90.8133V92.3585C58.3153 93.4847 58.5632 94.3496 59.0475 94.9531C59.5318 95.5565 60.2314 95.8583 61.1462 95.8583C62.0726 95.8583 62.776 95.5508 63.2565 94.9358ZM62.0226 89.0605C62.2148 89.3757 62.3109 89.8812 62.3109 90.5769V92.5718C62.3032 93.2291 62.2091 93.7173 62.0284 94.0363C61.8477 94.3553 61.5537 94.5149 61.1462 94.5149C60.735 94.5149 60.4351 94.3496 60.2468 94.019C60.0623 93.6846 59.97 93.1753 59.97 92.4911V90.4501C59.9816 89.8081 60.0796 89.3373 60.2641 89.0375C60.4524 88.7338 60.7426 88.582 61.1347 88.582C61.5383 88.582 61.8343 88.7415 62.0226 89.0605Z" fill="white"/>
<path d="M70.8614 95.743H65.1073V94.6013L67.8229 91.707C68.1958 91.2995 68.4706 90.944 68.6474 90.6403C68.8281 90.3367 68.9184 90.0484 68.9184 89.7755C68.9184 89.4026 68.8242 89.1105 68.6359 88.8991C68.4475 88.6838 68.1785 88.5762 67.8287 88.5762C67.452 88.5762 67.1541 88.7069 66.935 88.9683C66.7197 89.2258 66.6121 89.566 66.6121 89.9888H64.9401C64.9401 89.4776 65.0611 89.0105 65.3033 88.5877C65.5493 88.1649 65.8953 87.8343 66.3411 87.596C66.787 87.3539 67.2925 87.2328 67.8575 87.2328C68.7224 87.2328 69.3931 87.4404 69.8697 87.8555C70.3502 88.2706 70.5905 88.8568 70.5905 89.614C70.5905 90.0292 70.4828 90.452 70.2676 90.8825C70.0523 91.313 69.6833 91.8146 69.1606 92.3873L67.2521 94.3996H70.8614V95.743Z" fill="white"/>
<path fill-rule="evenodd" clip-rule="evenodd" d="M76.8174 94.9358C77.2979 94.3208 77.5381 93.4328 77.5381 92.272V90.7268C77.5266 89.6006 77.2787 88.7376 76.7943 88.138C76.31 87.5345 75.6105 87.2328 74.6956 87.2328C73.7808 87.2328 73.0793 87.5364 72.5911 88.1438C72.1068 88.7511 71.8647 89.6409 71.8647 90.8133V92.3585C71.8762 93.4847 72.1241 94.3496 72.6084 94.9531C73.0928 95.5565 73.7923 95.8583 74.7072 95.8583C75.6335 95.8583 76.3369 95.5508 76.8174 94.9358ZM75.5835 89.0605C75.7757 89.3757 75.8718 89.8812 75.8718 90.5769V92.5718C75.8641 93.2291 75.77 93.7173 75.5893 94.0363C75.4087 94.3553 75.1146 94.5149 74.7072 94.5149C74.2959 94.5149 73.9961 94.3496 73.8077 94.019C73.6232 93.6846 73.531 93.1753 73.531 92.4911V90.4501C73.5425 89.8081 73.6405 89.3373 73.825 89.0375C74.0134 88.7338 74.3036 88.582 74.6956 88.582C75.0992 88.582 75.3952 88.7415 75.5835 89.0605Z" fill="white"/>
<path d="M22.7307 60.1584V61.4445H23.5717C23.8029 61.4445 23.9829 61.39 24.1116 61.2809C24.2425 61.1696 24.308 61.0169 24.308 60.8227C24.308 60.3864 24.0822 60.165 23.6306 60.1584H22.7307Z" fill="white"/>
<path d="M22.7307 59.4647H23.4571C23.9524 59.456 24.2 59.2585 24.2 58.8724C24.2 58.6564 24.1367 58.5015 24.0102 58.4077C23.8858 58.3117 23.6884 58.2637 23.4179 58.2637H22.7307V59.4647Z" fill="white"/>
<path d="M49.3715 60.4562H48.1803L48.7726 58.6728L49.3715 60.4562Z" fill="white"/>
<path d="M52.4377 58.2637V61.4445H52.9122C53.2962 61.4445 53.5896 61.3191 53.7925 61.0682C53.9954 60.8173 54.099 60.4584 54.1034 59.9915V59.7396C54.1034 59.2553 54.003 58.8887 53.8023 58.64C53.6016 58.3892 53.3082 58.2637 52.922 58.2637H52.4377Z" fill="white"/>
<path d="M77.2558 58.604C77.4347 58.8637 77.5241 59.2433 77.5241 59.7428V59.9752C77.5219 60.4704 77.4325 60.8478 77.2558 61.1074C77.0791 61.3649 76.826 61.4936 76.4966 61.4936C76.1606 61.4936 75.9032 61.3594 75.7243 61.0911C75.5454 60.8227 75.4559 60.4453 75.4559 59.9588V59.7265C75.4581 59.2313 75.5487 58.856 75.7275 58.6008C75.9064 58.3433 76.1606 58.2146 76.49 58.2146C76.8216 58.2146 77.0769 58.3444 77.2558 58.604Z" fill="white"/>
<path d="M80.214 59.6938H81.006C81.2525 59.6938 81.4434 59.6316 81.5786 59.5072C81.7139 59.3807 81.7815 59.2073 81.7815 58.9869C81.7815 58.7622 81.7172 58.5855 81.5885 58.4568C81.4619 58.3281 81.2667 58.2637 81.0027 58.2637H80.214V59.6938Z" fill="white"/>
<path d="M84.4944 61.4445V58.2637H84.9787C85.3648 58.2637 85.6583 58.3892 85.859 58.64C86.0597 58.8887 86.16 59.2553 86.16 59.7396V59.9915C86.1557 60.4584 86.052 60.8173 85.8492 61.0682C85.6463 61.3191 85.3528 61.4445 84.9689 61.4445H84.4944Z" fill="white"/>
<path d="M88.8532 59.7592H89.7302C89.9899 59.7592 90.1873 59.6981 90.3226 59.576C90.46 59.4538 90.5287 59.2793 90.5287 59.0524C90.5287 58.8189 90.46 58.6302 90.3226 58.4862C90.1851 58.3422 89.9953 58.2681 89.7532 58.2637H88.8532V59.7592Z" fill="white"/>
<path d="M93.9713 59.6938H93.1794V58.2637H93.968C94.232 58.2637 94.4273 58.3281 94.5538 58.4568C94.6825 58.5855 94.7469 58.7622 94.7469 58.9869C94.7469 59.2073 94.6792 59.3807 94.544 59.5072C94.4087 59.6316 94.2178 59.6938 93.9713 59.6938Z" fill="white"/>
<path d="M46.9304 67.7392C47.0837 67.9618 47.1604 68.2871 47.1604 68.7154V68.9145C47.1585 69.339 47.0818 69.6625 46.9304 69.885C46.7789 70.1057 46.562 70.216 46.2796 70.216C45.9917 70.216 45.771 70.101 45.6177 69.871C45.4643 69.641 45.3877 69.3175 45.3877 68.9005V68.7013C45.3895 68.2769 45.4671 67.9552 45.6205 67.7364C45.7738 67.5158 45.9917 67.4055 46.274 67.4055C46.5583 67.4055 46.777 67.5167 46.9304 67.7392Z" fill="white"/>
<path d="M28.6086 70.1739V67.4475H29.0237C29.3547 67.4475 29.6062 67.5551 29.7782 67.7701C29.9502 67.9833 30.0363 68.2974 30.0363 68.7126V68.9285C30.0325 69.3287 29.9437 69.6363 29.7698 69.8514C29.5959 70.0664 29.3444 70.1739 29.0153 70.1739H28.6086Z" fill="white"/>
<path d="M49.466 68.7294H50.2178C50.4403 68.7294 50.6095 68.677 50.7255 68.5723C50.8433 68.4676 50.9022 68.318 50.9022 68.1235C50.9022 67.9234 50.8433 67.7617 50.7255 67.6383C50.6077 67.5148 50.445 67.4513 50.2374 67.4475H49.466V68.7294Z" fill="white"/>
<path d="M75.6473 68.7154C75.6473 68.2871 75.5706 67.9618 75.4173 67.7392C75.264 67.5167 75.0452 67.4055 74.7609 67.4055C74.4786 67.4055 74.2607 67.5158 74.1074 67.7364C73.954 67.9552 73.8764 68.2769 73.8746 68.7013V68.9005C73.8746 69.3175 73.9512 69.641 74.1046 69.871C74.2579 70.101 74.4786 70.216 74.7665 70.216C75.0489 70.216 75.2658 70.1057 75.4173 69.885C75.5688 69.6625 75.6454 69.339 75.6473 68.9145V68.7154Z" fill="white"/>
<path d="M82.985 68.7294H83.7367C83.9593 68.7294 84.1285 68.677 84.2444 68.5723C84.3622 68.4676 84.4211 68.318 84.4211 68.1235C84.4211 67.9234 84.3622 67.7617 84.2444 67.6383C84.1266 67.5148 83.9639 67.4513 83.7564 67.4475H82.985V68.7294Z" fill="white"/>
<path d="M87.4308 69.3268H86.4098L86.9175 67.7981L87.4308 69.3268Z" fill="white"/>
<path fill-rule="evenodd" clip-rule="evenodd" d="M64.7334 16.1446C64.2228 15.8362 63.5828 15.8384 63.0744 16.1503L24.7674 39.6432C24.2943 39.9334 24.0059 40.4485 24.0059 41.0035V52.3398H113.524V63.1907H124L117.783 75.7967L124 88.4027H106.211C105.972 89.2442 105.424 89.9789 104.656 90.4452L65.7317 114.099C64.6042 114.785 63.1876 114.78 62.0649 114.087L23.7578 90.4441C22.9975 89.9749 22.4555 89.2412 22.2208 88.4027H4L11.2528 75.7967L4 63.1907H15.8679V52.3398H22.0911V41.0035C22.0911 39.7825 22.7255 38.6492 23.7663 38.0109L62.0733 14.518C63.192 13.8319 64.5999 13.8271 65.7232 14.5054L104.648 38.0099C105.7 38.6455 106.344 39.7855 106.344 41.0151V52.3398H104.429V41.0151C104.429 40.4562 104.137 39.938 103.658 39.6491L64.7334 16.1446ZM7.31083 65.1055H15.8679V75.637H22.0911V86.4878H7.31083L13.4619 75.7967L7.31083 65.1055ZM24.0059 87.4568V75.637H104.429V87.4452C104.429 88.0025 104.138 88.5194 103.662 88.8089L64.7373 112.463C64.2248 112.775 63.5809 112.772 63.0706 112.457L24.7635 88.8147C24.2926 88.524 24.0059 88.0102 24.0059 87.4568ZM113.524 75.637H106.344V86.4878H120.921L115.648 75.7967L120.921 65.1055H113.524V75.637ZM32.0734 60.5577C32.2043 60.6558 32.2698 60.7977 32.2698 60.9831C32.2698 61.1533 32.2043 61.2863 32.0734 61.3823C31.9425 61.4761 31.7604 61.523 31.5269 61.523C30.8986 61.523 30.5845 61.2602 30.5845 60.7344H29.5995C29.5995 61.042 29.678 61.3125 29.8351 61.5459C29.9943 61.7794 30.2245 61.9637 30.5256 62.099C30.8266 62.2321 31.1604 62.2986 31.5269 62.2986C32.0549 62.2986 32.4748 62.1819 32.7868 61.9485C33.0988 61.7128 33.2548 61.3889 33.2548 60.9765C33.2548 60.6057 33.1271 60.2959 32.8719 60.0472C32.6166 59.7985 32.2098 59.5901 31.6513 59.4221C31.348 59.3305 31.1179 59.2323 30.9608 59.1276C30.8059 59.0229 30.7285 58.8931 30.7285 58.7382C30.7285 58.5724 30.795 58.4393 30.9281 58.339C31.0612 58.2364 31.2477 58.1852 31.4877 58.1852C31.7364 58.1852 31.9294 58.2463 32.0669 58.3684C32.2043 58.4884 32.273 58.6575 32.273 58.8757H33.2548C33.2548 58.5899 33.1806 58.3346 33.0322 58.1099C32.8861 57.8852 32.6799 57.7118 32.4138 57.5896C32.1476 57.4652 31.8444 57.4031 31.504 57.4031C31.1659 57.4031 30.8604 57.4598 30.5877 57.5732C30.3172 57.6867 30.1089 57.8448 29.9627 58.0477C29.8187 58.2484 29.7467 58.4775 29.7467 58.7349C29.7467 59.2302 30.0173 59.6239 30.5583 59.9163C30.7568 60.0232 31.0263 60.1323 31.3666 60.2435C31.7069 60.3526 31.9425 60.4573 32.0734 60.5577ZM21.7489 62.2332V57.4685H23.4179C23.996 57.4685 24.4345 57.5798 24.7334 57.8023C25.0323 58.0226 25.1817 58.3466 25.1817 58.7742C25.1817 59.0076 25.1217 59.2138 25.0017 59.3927C24.8817 59.5694 24.7148 59.6992 24.501 59.7821C24.7454 59.8432 24.9374 59.9665 25.077 60.1519C25.2188 60.3373 25.2897 60.5642 25.2897 60.8326C25.2897 61.2907 25.1435 61.6376 24.8512 61.8732C24.5589 62.1088 24.1422 62.2288 23.6011 62.2332H21.7489ZM28.8959 60.1683H27.011V61.4445H29.2231V62.2332H26.0293V57.4685H29.2166V58.2637H27.011V59.3992H28.8959V60.1683ZM37.5089 58.2637H36.0494V62.2332H35.0677V58.2637H33.6278V57.4685H37.5089V58.2637ZM42.6106 61.4445H40.5261V57.4685H39.5444V62.2332H42.6106V61.4445ZM46.0434 60.1683H44.1585V61.4445H46.3706V62.2332H43.1768V57.4685H46.3641V58.2637H44.1585V59.3992H46.0434V60.1683ZM47.9152 61.2514H49.6365L49.967 62.2332H51.0109L49.2275 57.4685H48.3177L46.5441 62.2332H47.588L47.9152 61.2514ZM51.456 62.2332V57.4685H52.922C53.3409 57.4685 53.715 57.5634 54.0445 57.7532C54.3761 57.9408 54.6346 58.2092 54.82 58.5582C55.0055 58.9051 55.0982 59.3 55.0982 59.7428V59.9621C55.0982 60.405 55.0066 60.7987 54.8233 61.1434C54.6422 61.4881 54.3859 61.7554 54.0543 61.9452C53.7227 62.135 53.3485 62.231 52.9319 62.2332H51.456ZM55.877 62.2332H56.8588V57.4685H55.877V62.2332ZM61.6463 62.2332H60.6646L58.7535 59.0982V62.2332H57.7718V57.4685H58.7535L60.6679 60.61V57.4685H61.6463V62.2332ZM65.5241 62.1252C65.847 62.0074 66.0968 61.8426 66.2735 61.631V59.7298H64.3984V60.453H65.2918V61.2743C65.1347 61.4314 64.8718 61.51 64.5031 61.51C64.1366 61.51 63.8585 61.3823 63.6687 61.1271C63.4789 60.8718 63.384 60.4944 63.384 59.9948V59.6905C63.3862 59.1953 63.4745 58.8222 63.649 58.5713C63.8236 58.3204 64.0777 58.195 64.4115 58.195C64.6733 58.195 64.8784 58.2583 65.0267 58.3848C65.1773 58.5113 65.2743 58.7109 65.318 58.9836H66.2735C66.2146 58.4688 66.0259 58.0772 65.7074 57.8088C65.3889 57.5383 64.9471 57.4031 64.3821 57.4031C63.9763 57.4031 63.6218 57.4958 63.3185 57.6812C63.0175 57.8645 62.7862 58.1306 62.6248 58.4797C62.4655 58.8266 62.3859 59.2378 62.3859 59.7134V60.0374C62.3902 60.4999 62.4764 60.9024 62.6444 61.2449C62.8146 61.5874 63.0545 61.8492 63.3643 62.0303C63.6763 62.2092 64.0385 62.2986 64.4508 62.2986C64.8435 62.2986 65.2013 62.2408 65.5241 62.1252ZM72.4519 60.8587L73.0932 57.4685H74.0717L73.0147 62.2332H72.0264L71.2509 59.0458L70.4753 62.2332H69.487L68.43 57.4685H69.4085L70.0532 60.8522L70.8385 57.4685H71.6697L72.4519 60.8587ZM78.2702 61.1925C78.436 60.8391 78.5189 60.4279 78.5189 59.9588V59.7461C78.5189 59.2793 78.4338 58.868 78.2637 58.5124C78.0957 58.1546 77.8568 57.8808 77.547 57.691C77.2394 57.4991 76.8871 57.4031 76.49 57.4031C76.093 57.4031 75.7395 57.4991 75.4298 57.691C75.1221 57.8808 74.8833 58.1546 74.7131 58.5124C74.5451 58.868 74.4611 59.2803 74.4611 59.7494V59.985C74.4633 60.4431 74.5495 60.8489 74.7196 61.2023C74.8898 61.5536 75.1298 61.8241 75.4396 62.0139C75.7494 62.2037 76.1017 62.2986 76.4966 62.2986C76.8958 62.2986 77.2492 62.2026 77.5568 62.0106C77.8666 61.8186 78.1044 61.5459 78.2702 61.1925ZM80.9961 60.489H80.214V62.2332H79.2323V57.4685H81.0027C81.5656 57.4685 81.9997 57.594 82.3051 57.8448C82.6105 58.0957 82.7633 58.4502 82.7633 58.9084C82.7633 59.2334 82.6924 59.505 82.5506 59.7232C82.4109 59.9392 82.1982 60.1115 81.9124 60.2403L82.9432 62.1873V62.2332H81.8895L80.9961 60.489ZM83.5126 57.4685V62.2332H84.9885C85.4052 62.231 85.7793 62.135 86.1109 61.9452C86.4426 61.7554 86.6989 61.4881 86.88 61.1434C87.0632 60.7987 87.1548 60.405 87.1548 59.9621V59.7428C87.1548 59.3 87.0621 58.9051 86.8767 58.5582C86.6913 58.2092 86.4327 57.9408 86.1011 57.7532C85.7717 57.5634 85.3976 57.4685 84.9787 57.4685H83.5126ZM88.8532 60.5544V62.2332H87.8715V57.4685H89.7302C90.088 57.4685 90.4022 57.534 90.6727 57.6649C90.9454 57.7958 91.1548 57.9823 91.301 58.2244C91.4472 58.4644 91.5203 58.7382 91.5203 59.0458C91.5203 59.5127 91.3599 59.8814 91.0392 60.1519C90.7207 60.4202 90.2789 60.5544 89.7139 60.5544H88.8532ZM93.1794 60.489H93.9615L94.8549 62.2332H95.9086V62.1873L94.8778 60.2403C95.1636 60.1115 95.3763 59.9392 95.5159 59.7232C95.6577 59.505 95.7286 59.2334 95.7286 58.9084C95.7286 58.4502 95.5759 58.0957 95.2705 57.8448C94.965 57.594 94.5309 57.4685 93.968 57.4685H92.1977V62.2332H93.1794V60.489ZM99.3446 60.1683H97.4597V61.4445H99.6719V62.2332H96.478V57.4685H99.6653V58.2637H97.4597V59.3992H99.3446V60.1683ZM102.522 60.5577C102.653 60.6558 102.718 60.7977 102.718 60.9831C102.718 61.1533 102.653 61.2863 102.522 61.3823C102.391 61.4761 102.209 61.523 101.976 61.523C101.347 61.523 101.033 61.2602 101.033 60.7344H100.048C100.048 61.042 100.127 61.3125 100.284 61.5459C100.443 61.7794 100.673 61.9637 100.974 62.099C101.275 62.2321 101.609 62.2986 101.976 62.2986C102.504 62.2986 102.924 62.1819 103.236 61.9485C103.548 61.7128 103.703 61.3889 103.703 60.9765C103.703 60.6057 103.576 60.2959 103.321 60.0472C103.065 59.7985 102.659 59.5901 102.1 59.4221C101.797 59.3305 101.567 59.2323 101.41 59.1276C101.255 59.0229 101.177 58.8931 101.177 58.7382C101.177 58.5724 101.244 58.4393 101.377 58.339C101.51 58.2364 101.696 58.1852 101.936 58.1852C102.185 58.1852 102.378 58.2463 102.516 58.3684C102.653 58.4884 102.722 58.6575 102.722 58.8757H103.703C103.703 58.5899 103.629 58.3346 103.481 58.1099C103.335 57.8852 103.129 57.7118 102.862 57.5896C102.596 57.4652 102.293 57.4031 101.953 57.4031C101.615 57.4031 101.309 57.4598 101.036 57.5732C100.766 57.6867 100.558 57.8448 100.411 58.0477C100.267 58.2484 100.195 58.4775 100.195 58.7349C100.195 59.2302 100.466 59.6239 101.007 59.9163C101.206 60.0232 101.475 60.1323 101.815 60.2435C102.156 60.3526 102.391 60.4573 102.522 60.5577ZM106.842 60.9831C106.842 60.7977 106.776 60.6558 106.645 60.5577C106.515 60.4573 106.279 60.3526 105.939 60.2435C105.598 60.1323 105.329 60.0232 105.13 59.9163C104.589 59.6239 104.319 59.2302 104.319 58.7349C104.319 58.4775 104.391 58.2484 104.535 58.0477C104.681 57.8448 104.889 57.6867 105.16 57.5732C105.432 57.4598 105.738 57.4031 106.076 57.4031C106.416 57.4031 106.72 57.4652 106.986 57.5896C107.252 57.7118 107.458 57.8852 107.604 58.1099C107.753 58.3346 107.827 58.5899 107.827 58.8757H106.845C106.845 58.6575 106.776 58.4884 106.639 58.3684C106.501 58.2463 106.308 58.1852 106.06 58.1852C105.82 58.1852 105.633 58.2364 105.5 58.339C105.367 58.4393 105.3 58.5724 105.3 58.7382C105.3 58.8931 105.378 59.0229 105.533 59.1276C105.69 59.2323 105.92 59.3305 106.223 59.4221C106.782 59.5901 107.189 59.7985 107.444 60.0472C107.699 60.2959 107.827 60.6057 107.827 60.9765C107.827 61.3889 107.671 61.7128 107.359 61.9485C107.047 62.1819 106.627 62.2986 106.099 62.2986C105.732 62.2986 105.399 62.2321 105.098 62.099C104.796 61.9637 104.566 61.7794 104.407 61.5459C104.25 61.3125 104.171 61.042 104.171 60.7344H105.156C105.156 61.2602 105.471 61.523 106.099 61.523C106.332 61.523 106.515 61.4761 106.645 61.3823C106.776 61.2863 106.842 61.1533 106.842 60.9831ZM47.7999 69.9579C47.942 69.655 48.0131 69.3025 48.0131 68.9005V68.7182C48.0131 68.318 47.9402 67.9655 47.7943 67.6607C47.6503 67.354 47.4456 67.1194 47.18 66.9567C46.9164 66.7921 46.6144 66.7098 46.274 66.7098C45.9337 66.7098 45.6308 66.7921 45.3652 66.9567C45.1016 67.1194 44.8968 67.354 44.7509 67.6607C44.607 67.9655 44.535 68.3189 44.535 68.721V68.9229C44.5368 69.3156 44.6107 69.6634 44.7566 69.9664C44.9024 70.2674 45.1081 70.4993 45.3736 70.662C45.6392 70.8247 45.9412 70.906 46.2796 70.906C46.6218 70.906 46.9248 70.8237 47.1884 70.6592C47.454 70.4946 47.6578 70.2609 47.7999 69.9579ZM27.7671 66.7659V70.8499H29.0321C29.3893 70.848 29.71 70.7658 29.9942 70.6031C30.2784 70.4404 30.4981 70.2113 30.6534 69.9159C30.8104 69.6204 30.889 69.2829 30.889 68.9033V68.7154C30.889 68.3358 30.8095 67.9973 30.6505 67.7C30.4916 67.4008 30.27 67.1708 29.9858 67.01C29.7034 66.8473 29.3827 66.7659 29.0237 66.7659H27.7671ZM32.3447 69.08H33.9604V68.4208H32.3447V67.4475H34.2353V66.7659H31.5032V70.8499H34.2409V70.1739H32.3447V69.08ZM36.2436 69.8373L37.1692 66.7659H38.1061L36.684 70.8499H35.806L34.3895 66.7659H35.3236L36.2436 69.8373ZM39.3346 69.08H40.9503V68.4208H39.3346V67.4475H41.2251V66.7659H38.4931V70.8499H41.2308V70.1739H39.3346V69.08ZM42.5659 70.1739H44.3526V70.8499H41.7244V66.7659H42.5659V70.1739ZM49.466 69.411V70.8499H48.6246V66.7659H50.2178C50.5244 66.7659 50.7937 66.822 51.0256 66.9342C51.2593 67.0464 51.4388 67.2063 51.5641 67.4139C51.6894 67.6196 51.7521 67.8542 51.7521 68.1179C51.7521 68.5181 51.6146 68.8341 51.3397 69.066C51.0667 69.296 50.6881 69.411 50.2037 69.411H49.466ZM54.4813 69.7279L53.4322 66.7659H52.3327V70.8499H53.1742V69.7336L53.09 67.8094L54.1896 70.8499H54.7674L55.8697 67.8066L55.7856 69.7336V70.8499H56.6298V66.7659H55.5247L54.4813 69.7279ZM59.8219 69.08H58.2062V70.1739H60.1024V70.8499H57.3647V66.7659H60.0967V67.4475H58.2062V68.4208H59.8219V69.08ZM63.0756 70.8499H63.9171V66.7659H63.0784V69.4587L61.4375 66.7659H60.596V70.8499H61.4375V68.1628L63.0756 70.8499ZM67.642 67.4475H66.391V70.8499H65.5495V67.4475H64.3154V66.7659H67.642V67.4475ZM72.1047 70.5273C72.3982 70.2749 72.5609 69.929 72.5927 69.4895H71.7512C71.7325 69.7382 71.6587 69.9224 71.5297 70.0421C71.4025 70.1599 71.209 70.2188 70.949 70.2188C70.6611 70.2188 70.4498 70.1169 70.3151 69.9131C70.1824 69.7092 70.116 69.3867 70.116 68.9454V68.6368C70.1197 68.2142 70.1908 67.9029 70.3291 67.7028C70.4694 67.5008 70.6798 67.3998 70.9603 67.3998C71.2183 67.3998 71.41 67.4597 71.5353 67.5794C71.6624 67.6972 71.7363 67.8879 71.7569 68.1516H72.5983C72.5535 67.6953 72.387 67.3409 72.0991 67.0885C71.8111 66.8361 71.4315 66.7098 70.9603 66.7098C70.6199 66.7098 70.3207 66.7902 70.0627 66.9511C69.8065 67.11 69.6092 67.3391 69.4708 67.6383C69.3325 67.9375 69.2633 68.2834 69.2633 68.6761V68.9257C69.2633 69.5409 69.4129 70.0253 69.7121 70.3787C70.0131 70.7302 70.4254 70.906 70.949 70.906C71.4277 70.906 71.813 70.7798 72.1047 70.5273ZM76.5 68.9005C76.5 69.3025 76.4289 69.655 76.2868 69.9579C76.1447 70.2609 75.9409 70.4946 75.6753 70.6592C75.4117 70.8237 75.1087 70.906 74.7665 70.906C74.4281 70.906 74.1261 70.8247 73.8605 70.662C73.595 70.4993 73.3893 70.2674 73.2435 69.9664C73.0976 69.6634 73.0238 69.3156 73.0219 68.9229V68.721C73.0219 68.3189 73.0939 67.9655 73.2379 67.6607C73.3837 67.354 73.5885 67.1194 73.8521 66.9567C74.1177 66.7921 74.4206 66.7098 74.7609 66.7098C75.1013 66.7098 75.4033 66.7921 75.6669 66.9567C75.9325 67.1194 76.1372 67.354 76.2812 67.6607C76.4271 67.9655 76.5 68.318 76.5 68.7182V68.9005ZM79.26 69.7279L78.211 66.7659H77.1115V70.8499H77.9529V69.7336L77.8688 67.8094L78.9683 70.8499H79.5462L80.6485 67.8066L80.5643 69.7336V70.8499H81.4086V66.7659H80.3035L79.26 69.7279ZM82.985 69.411V70.8499H82.1435V66.7659H83.7367C84.0434 66.7659 84.3127 66.822 84.5445 66.9342C84.7783 67.0464 84.9578 67.2063 85.0831 67.4139C85.2084 67.6196 85.271 67.8542 85.271 68.1179C85.271 68.5181 85.1336 68.8341 84.8587 69.066C84.5857 69.296 84.207 69.411 83.7227 69.411H82.985ZM86.1826 70.0084H87.658L87.9413 70.8499H88.8361L87.3074 66.7659H86.5276L85.0074 70.8499H85.9021L86.1826 70.0084ZM92.5386 70.8499H91.6971L90.059 68.1628V70.8499H89.2176V66.7659H90.059L91.6999 69.4587V66.7659H92.5386V70.8499ZM93.3268 70.8499H94.1683V66.7659H93.3268V70.8499ZM97.408 69.08H95.7923V70.1739H97.6885V70.8499H94.9509V66.7659H97.6829V67.4475H95.7923V68.4208H97.408V69.08ZM100.132 69.4138C100.244 69.4979 100.3 69.6195 100.3 69.7784C100.3 69.9243 100.244 70.0384 100.132 70.1206C100.019 70.201 99.8632 70.2412 99.6631 70.2412C99.1246 70.2412 98.8553 70.0159 98.8553 69.5653H98.011C98.011 69.8289 98.0784 70.0608 98.213 70.2609C98.3495 70.461 98.5468 70.619 98.8048 70.7349C99.0629 70.849 99.349 70.906 99.6631 70.906C100.116 70.906 100.476 70.806 100.743 70.6059C101.01 70.4039 101.144 70.1262 101.144 69.7728C101.144 69.4549 101.035 69.1894 100.816 68.9762C100.597 68.763 100.248 68.5845 99.7697 68.4405C99.5098 68.3619 99.3125 68.2778 99.1779 68.188C99.0451 68.0983 98.9787 67.987 98.9787 67.8542C98.9787 67.7121 99.0358 67.5981 99.1498 67.512C99.2639 67.4242 99.4238 67.3802 99.6295 67.3802C99.8427 67.3802 100.008 67.4326 100.126 67.5373C100.244 67.6401 100.303 67.7851 100.303 67.9721H101.144C101.144 67.7271 101.081 67.5083 100.953 67.3157C100.828 67.1231 100.651 66.9744 100.423 66.8697C100.195 66.7631 99.9352 66.7098 99.6435 66.7098C99.3537 66.7098 99.0919 66.7584 98.8581 66.8557C98.6263 66.9529 98.4477 67.0885 98.3224 67.2624C98.199 67.4344 98.1373 67.6308 98.1373 67.8514C98.1373 68.2759 98.3691 68.6134 98.8329 68.864C99.003 68.9557 99.234 69.0491 99.5257 69.1445C99.8174 69.238 100.019 69.3278 100.132 69.4138Z" fill="white"/>
<path d="M63.2598 29.0427C63.9208 29.0427 64.5191 29.3106 64.9523 29.7438L64.9694 29.7611L64.9863 29.7778L69.722 34.5135L74.4576 29.7778C74.8435 29.3919 75.3283 29.1653 75.8304 29.0981C75.996 29.0618 76.168 29.0427 76.3445 29.0427C77.6664 29.0427 78.738 30.1144 78.738 31.4363V44.2018C78.738 45.5238 77.6664 46.5954 76.3445 46.5954C75.0226 46.5954 73.951 45.5238 73.951 44.2018V37.0544L71.5606 39.4448C71.056 39.9494 70.3823 40.1816 69.7219 40.1414C69.0616 40.1816 68.3879 39.9494 67.8833 39.4448L65.6533 37.2148V44.2018C65.6533 45.5238 64.5817 46.5954 63.2598 46.5954C61.9379 46.5954 60.8663 45.5238 60.8663 44.2018V33.8298H59.5897V44.2018C59.5897 45.5238 58.5181 46.5954 57.1962 46.5954C55.8742 46.5954 54.8026 45.5238 54.8026 44.2018V33.8298H51.4516C50.1297 33.8298 49.0581 32.7582 49.0581 31.4363C49.0581 30.1144 50.1297 29.0427 51.4516 29.0427L63.2598 29.0427Z" fill="white"/>
</svg>
