<svg width="128" height="128" viewBox="0 0 128 128" fill="none" xmlns="http://www.w3.org/2000/svg">
<path d="M59.0273 17.424C58.9877 17.1224 58.9459 16.8044 58.7433 16.4738C57.4123 18.584 56.3802 20.7156 55.6568 22.976C54.5042 26.5479 55.7726 30.7087 58.6228 32.919C58.718 32.621 58.616 32.3546 58.5165 32.0951C58.48 31.9996 58.4438 31.9051 58.4179 31.8102C57.7113 29.228 58.2418 26.9342 60.0117 24.9288C60.5832 24.2803 61.2029 23.6723 61.8298 23.0762C62.3989 22.5336 62.9915 22.0147 63.5843 21.4957L63.5894 21.4911C64.748 20.4768 65.9072 19.4621 66.8936 18.2692C68.0511 16.8719 68.6104 15.3125 68.3983 13.4933C68.1499 11.3735 67.5398 9.3611 66.3293 7.59667C66.2571 7.4913 66.1895 7.39118 66.1259 7.2964L66.0346 7.15937L65.8785 6.92338L65.877 6.92128C65.4706 6.30574 65.2697 6.00152 65.0665 6.00001C64.8679 5.99861 64.6671 6.2863 64.2702 6.85527C64.1337 7.05098 63.9739 7.27987 63.783 7.54183C63.7637 7.5657 63.742 7.58712 63.7275 7.61332C63.5788 7.89984 63.4228 8.1838 63.2669 8.46765C62.4443 9.96511 61.623 11.46 61.8805 13.3121C62.0062 14.2151 62.3415 15.0392 62.6768 15.8635L62.7222 15.9749C62.7635 16.0766 62.8047 16.1784 62.8453 16.2804C62.8962 16.408 62.9461 16.5359 62.9945 16.6645C63.4816 17.9569 63.0138 19.204 61.9287 19.5544C60.5928 19.986 59.5054 19.3279 59.105 17.8639C59.0665 17.7216 59.0472 17.5748 59.0273 17.424Z" fill="white"/>
<path d="M74.3735 26.8793C74.0022 31.164 71.8006 34.4236 67.412 35.189C63.6287 35.8494 60.5952 34.0396 59.9972 30.5442C59.6548 28.5436 60.3855 26.8125 61.6827 25.2937C62.4904 24.3482 63.4226 23.532 64.3547 22.7157L64.6734 22.4362C65.073 22.085 65.4699 21.7311 65.8543 21.3642C67.9931 19.3255 69.3146 16.9245 69.4183 13.9367C69.4213 13.8654 69.44 13.7949 69.4651 13.7009C69.4794 13.6473 69.4957 13.586 69.5123 13.5124C70.4816 14.3708 70.9542 15.4533 71.3835 16.5358C72.266 18.7699 72.864 21.0351 71.8633 23.4147C71.3883 24.5425 70.5685 25.3962 69.7389 26.2546C69.6829 26.3126 69.6261 26.3701 69.5689 26.4272C69.5192 26.4771 69.4691 26.5267 69.4191 26.5764C68.9752 27.0168 68.5297 27.459 68.256 28.031C67.957 28.6581 67.9064 29.3257 68.4513 29.8407C68.9963 30.3581 69.6859 30.4106 70.3659 30.0935C72.3215 29.1779 73.585 27.6709 74.1758 25.6132L74.4 24.7381C74.5351 25.4749 74.6484 26.1854 74.3735 26.8793Z" fill="white"/>
<path d="M79.2302 45.775C78.7429 46.4368 78.2556 47.0988 77.7686 47.7611L76.2109 49.8815C72.5698 54.8435 68.9312 59.8079 65.3021 64.7817C65.0079 65.1823 64.8681 65.1202 64.6076 64.7626C60.8997 59.6287 57.1858 54.4991 53.4717 49.3694L50.3833 45.1033C48.2203 42.1156 46.0598 39.1303 43.9041 36.1403C43.7886 35.979 43.6815 35.8117 43.5591 35.6174L43.5005 35.5243C43.4216 35.3986 43.3353 35.2615 43.2362 35.1078L44.8643 35.3281C46.131 35.4989 47.3457 35.6628 48.5579 35.8375C48.8391 35.878 49.1206 35.9176 49.402 35.9571L49.4049 35.9575C50.5466 36.1178 51.6888 36.2782 52.8139 36.5075C54.6079 36.8747 56.074 37.8213 57.147 39.2996C58.9599 41.7963 60.7618 44.2999 62.564 46.8041L64.299 49.2139C64.9187 50.0747 65.0031 50.0771 65.6059 49.2426C66.3101 48.2665 67.0179 47.293 67.7256 46.3197C69.3275 44.1165 70.9292 41.9137 72.4879 39.6811C74.1083 37.3587 76.4087 36.4408 79.1142 36.1307C80.8418 35.9335 82.5637 35.6883 84.3224 35.4379L84.3472 35.4344L84.3883 35.4284C85.1807 35.3158 85.9806 35.202 86.7918 35.0912C86.188 36.2515 85.422 37.2688 84.6633 38.2763L84.6628 38.277C84.1399 38.9713 83.6207 39.6609 83.1603 40.3893C83.193 40.7743 82.9572 40.981 82.6443 41.138C81.9751 42.0477 81.3054 42.9571 80.6356 43.8667L79.2302 45.775Z" fill="white"/>
<path d="M27.1672 110.87C27.0384 111.927 27.0451 112.989 27.0518 114.049C27.0551 114.558 27.0583 115.066 27.0466 115.574C27.0369 115.951 27.0152 116.161 26.5281 116.156C24.6983 116.138 22.8685 116.14 20.9773 116.143H20.9568L19 116.144C19.2576 115.645 19.5072 115.153 19.7539 114.666C20.3365 113.517 20.9026 112.4 21.5174 111.311C21.9056 110.622 21.9081 110.088 21.5415 109.387C21.3089 108.942 21.0667 108.502 20.8244 108.062L20.8237 108.061C20.1875 106.905 19.5506 105.748 19.0844 104.508H33.5523C32.9974 104.966 32.4563 105.414 31.9244 105.855C30.5219 107.018 29.1832 108.128 27.823 109.21C27.2467 109.673 26.9501 110.147 27.1672 110.87Z" fill="white"/>
<path d="M108.23 106.026C108.477 105.542 108.726 105.055 108.978 104.565H94.508C96.466 106.17 98.2986 107.689 100.153 109.182C100.647 109.58 100.934 109.987 100.917 110.669C100.897 111.52 100.912 112.371 100.926 113.223C100.94 113.976 100.953 114.729 100.941 115.481C100.932 116.046 101.103 116.182 101.648 116.158C102.006 116.143 102.364 116.136 102.723 116.135C102.924 116.134 103.125 116.135 103.326 116.136L103.618 116.138L104.068 116.142L104.295 116.144C104.463 116.146 104.631 116.146 104.8 116.146H109C108.743 115.647 108.492 115.157 108.245 114.675C107.596 113.406 106.974 112.19 106.323 110.989C106.07 110.522 106.061 110.173 106.316 109.701C106.966 108.5 107.588 107.283 108.218 106.049L108.23 106.026Z" fill="white"/>
<path d="M69.6806 38.536L68.3934 40.3869C67.3758 41.851 66.3558 43.3149 65.3383 44.7789C65.3181 44.808 65.2987 44.8383 65.2795 44.8682C65.1397 45.0858 65.0119 45.2848 64.7258 44.8886C63.5586 43.2724 62.3865 41.6601 61.2144 40.048L61.1996 40.0277C60.5437 39.1255 59.8878 38.2234 59.2328 37.3206C59.2225 37.3058 59.2199 37.2857 59.2205 37.2581L59.2207 37.2514C59.2217 37.2243 59.2253 37.1904 59.2277 37.1481L59.229 37.1245L59.23 37.0988L59.2304 37.0631C59.6114 37.135 59.9945 37.1952 60.3763 37.2553C61.2341 37.3901 62.0856 37.5239 62.8932 37.7879C64.6269 38.3529 66.2377 37.9763 67.8919 37.5495C68.0532 37.5075 68.2144 37.4624 68.3778 37.4168L68.3845 37.415C69.0812 37.2206 69.8175 37.0152 70.7661 36.9748C70.3806 37.5297 70.0226 38.0442 69.6806 38.536Z" fill="white"/>
<path fill-rule="evenodd" clip-rule="evenodd" d="M43.175 83.7386C42.9562 83.452 42.6599 83.2483 42.2865 83.1273C42.5569 82.9873 42.7694 82.7899 42.924 82.5352C43.0785 82.2806 43.1557 81.9876 43.1557 81.6567C43.1557 81.1154 42.94 80.6921 42.5086 80.3865C42.0772 80.0744 41.4623 79.9184 40.6639 79.9184H37.496V86.6037H40.8571C41.7199 86.6037 42.3766 86.4477 42.8274 86.1358C43.2781 85.8174 43.5034 85.3685 43.5034 84.7891C43.5034 84.3689 43.394 84.0187 43.175 83.7386ZM38.7516 82.7358V80.8925H40.5287C40.9665 80.8925 41.3014 80.9722 41.5332 81.1313C41.7714 81.2841 41.8905 81.5133 41.8905 81.8189C41.8905 82.1182 41.7714 82.3474 41.5332 82.5066C41.3014 82.6594 40.9665 82.7358 40.5287 82.7358H38.7516ZM42.2382 84.665C42.2382 85.308 41.7521 85.6296 40.7799 85.6296H38.7516V83.7004H40.7799C41.7521 83.7004 42.2382 84.022 42.2382 84.665Z" fill="white"/>
<path d="M49.8174 86.6037V85.5627H46.0024V83.7195H49.2669V82.6976H46.0024V80.9594H49.6822V79.9184H44.7469V86.6037H49.8174Z" fill="white"/>
<path d="M51.7 86.4796C52.1893 86.6259 52.6948 86.6992 53.2163 86.6992C53.8087 86.6992 54.3109 86.6101 54.723 86.4317C55.1351 86.2535 55.4409 86.0148 55.6405 85.7155C55.8466 85.4163 55.9496 85.082 55.9496 84.7127C55.9496 84.2797 55.8337 83.9359 55.6019 83.6813C55.3765 83.4266 55.1029 83.2388 54.7809 83.1178C54.459 82.9904 54.0469 82.8695 53.5447 82.7549C53.1777 82.6657 52.888 82.5862 52.6755 82.5161C52.463 82.4461 52.2859 82.3505 52.1442 82.2296C52.009 82.1086 51.9414 81.9527 51.9414 81.7617C51.9414 81.4878 52.0605 81.2683 52.2988 81.1027C52.5434 80.9371 52.9137 80.8544 53.4095 80.8544C53.7121 80.8544 54.0244 80.899 54.3463 80.9881C54.6682 81.0772 54.9773 81.2077 55.2735 81.3797L55.6695 80.4151C55.3797 80.224 55.0353 80.0776 54.6361 79.9757C54.2368 79.8738 53.8312 79.8229 53.4191 79.8229C52.8268 79.8229 52.3246 79.9121 51.9125 80.0904C51.5068 80.2686 51.201 80.5106 50.9949 80.8162C50.7954 81.1154 50.6955 81.4496 50.6955 81.8189C50.6955 82.2583 50.8082 82.6084 51.0336 82.8695C51.2654 83.1242 51.539 83.312 51.8545 83.433C52.1765 83.5539 52.595 83.6749 53.1101 83.7959C53.4771 83.885 53.7668 83.9646 53.9793 84.0346C54.1918 84.1047 54.3657 84.2033 54.5009 84.3307C54.6425 84.4517 54.7133 84.6077 54.7133 84.7986C54.7133 85.0598 54.5878 85.2698 54.3367 85.429C54.092 85.5882 53.7186 85.6677 53.2163 85.6677C52.8107 85.6677 52.405 85.6009 51.9994 85.4671C51.6002 85.3271 51.2621 85.1488 50.9853 84.9324L50.5506 85.897C50.834 86.1389 51.2171 86.3331 51.7 86.4796Z" fill="white"/>
<path d="M56.1345 80.969H58.3752V86.6037H59.6307V80.969H61.8714V79.9184H56.1345V80.969Z" fill="white"/>
<path d="M72.9293 86.6037L75.17 79.9184H73.9724L72.2436 85.0279L70.5341 79.9184H69.3752L67.627 84.9992L65.9464 79.9184H64.6426L66.8833 86.6037H68.2258L69.9257 81.6567L71.5965 86.6037H72.9293Z" fill="white"/>
<path d="M81.1669 86.6037V85.5627H77.3519V83.7195H80.6163V82.6976H77.3519V80.9594H81.0317V79.9184H76.0963V86.6037H81.1669Z" fill="white"/>
<path fill-rule="evenodd" clip-rule="evenodd" d="M88.149 83.7386C87.9301 83.452 87.6339 83.2483 87.2604 83.1273C87.5309 82.9873 87.7433 82.7899 87.8979 82.5352C88.0524 82.2806 88.1297 81.9876 88.1297 81.6567C88.1297 81.1154 87.914 80.6921 87.4826 80.3865C87.0512 80.0744 86.4363 79.9184 85.6378 79.9184H82.47V86.6037H85.831C86.6938 86.6037 87.3505 86.4477 87.8013 86.1358C88.252 85.8174 88.4774 85.3685 88.4774 84.7891C88.4774 84.3689 88.3679 84.0187 88.149 83.7386ZM83.7256 82.7358V80.8925H85.5026C85.9405 80.8925 86.2753 80.9722 86.5071 81.1313C86.7453 81.2841 86.8644 81.5133 86.8644 81.8189C86.8644 81.9144 86.8523 82.0028 86.8281 82.0839C86.813 82.1343 86.7933 82.182 86.7689 82.2269C86.7094 82.3365 86.6221 82.4297 86.5071 82.5066C86.2753 82.6594 85.9405 82.7358 85.5026 82.7358H83.7256ZM87.2121 84.665C87.2121 85.308 86.726 85.6296 85.7538 85.6296H83.7256V83.7004H85.7538C86.726 83.7004 87.2121 84.022 87.2121 84.665Z" fill="white"/>
<path fill-rule="evenodd" clip-rule="evenodd" d="M28.2218 90.1713H25.2664V96.8566H28.2218C28.9429 96.8566 29.5836 96.7197 30.1437 96.446C30.704 96.1658 31.1385 95.7742 31.4476 95.2712C31.7567 94.7619 31.9112 94.1761 31.9112 93.514C31.9112 92.8518 31.7567 92.2692 31.4476 91.7662C31.1385 91.2569 30.704 90.8653 30.1437 90.5916C29.5836 90.3114 28.9429 90.1713 28.2218 90.1713ZM29.4677 95.5291C29.0942 95.7138 28.6596 95.8061 28.1638 95.8061H26.5219V91.2219H28.1638C28.6596 91.2219 29.0942 91.3174 29.4677 91.5084C29.8476 91.693 30.1373 91.9604 30.3369 92.3106C30.5429 92.6544 30.646 93.0555 30.646 93.514C30.646 93.9724 30.5429 94.3767 30.3369 94.7268C30.1373 95.0706 29.8476 95.3381 29.4677 95.5291Z" fill="white"/>
<path d="M38.2197 96.8566V95.8156H34.4047V93.9724H37.6692V92.9505H34.4047V91.2123H38.0844V90.1713H33.1491V96.8566H38.2197Z" fill="white"/>
<path d="M41.4277 96.8566H42.6639L45.6097 90.1713H44.3541L42.0844 95.3285L39.8341 90.1713H38.4723L41.4277 96.8566Z" fill="white"/>
<path d="M51.2971 96.8566V95.8156H47.4821V93.9724H50.7466V92.9505H47.4821V91.2123H51.1618V90.1713H46.2265V96.8566H51.2971Z" fill="white"/>
<path d="M53.8557 90.1713H52.6001V96.8566H57.3906V95.8061H53.8557V90.1713Z" fill="white"/>
<path fill-rule="evenodd" clip-rule="evenodd" d="M59.4569 96.5128C60.0106 96.8057 60.632 96.9521 61.3209 96.9521C62.0099 96.9521 62.6312 96.8057 63.1849 96.5128C63.7386 96.2136 64.1733 95.8028 64.4888 95.2808C64.8043 94.7587 64.962 94.1697 64.962 93.514C64.962 92.8582 64.8043 92.2692 64.4888 91.7471C64.1733 91.2251 63.7386 90.8176 63.1849 90.5247C62.6312 90.2255 62.0099 90.0759 61.3209 90.0759C60.632 90.0759 60.0106 90.2255 59.4569 90.5247C58.9031 90.8176 58.4685 91.2282 58.153 91.7567C57.8375 92.2787 57.6797 92.8646 57.6797 93.514C57.6797 94.1634 57.8375 94.7523 58.153 95.2808C58.4685 95.8028 58.9031 96.2136 59.4569 96.5128ZM62.5378 95.5673C62.1772 95.7646 61.7716 95.8634 61.3209 95.8634C60.8702 95.8634 60.4645 95.7646 60.104 95.5673C59.7434 95.3636 59.4601 95.0834 59.254 94.7268C59.048 94.3639 58.945 93.9597 58.945 93.514C58.945 93.0683 59.048 92.6671 59.254 92.3106C59.4601 91.9477 59.7434 91.6676 60.104 91.4702C60.4645 91.2664 60.8702 91.1646 61.3209 91.1646C61.7716 91.1646 62.1772 91.2664 62.5378 91.4702C62.8984 91.6676 63.1817 91.9477 63.3877 92.3106C63.5938 92.6671 63.6968 93.0683 63.6968 93.514C63.6968 93.9597 63.5938 94.3639 63.3877 94.7268C63.1817 95.0834 62.8984 95.3636 62.5378 95.5673Z" fill="white"/>
<path fill-rule="evenodd" clip-rule="evenodd" d="M70.5039 90.4578C70.0725 90.2669 69.5638 90.1713 68.9778 90.1713H66.1963V96.8566H67.4519V94.9274H68.9778C69.5638 94.9274 70.0725 94.832 70.5039 94.6409C70.9417 94.45 71.2765 94.1761 71.5083 93.8196C71.7401 93.4566 71.856 93.0333 71.856 92.5494C71.856 92.0592 71.7401 91.6357 71.5083 91.2792C71.2765 90.9226 70.9417 90.6489 70.5039 90.4578ZM70.1658 93.5331C69.8825 93.7622 69.4672 93.8769 68.9199 93.8769H67.4519V91.2219H68.9199C69.4672 91.2219 69.8825 91.3365 70.1658 91.5658C70.4491 91.7949 70.5908 92.1228 70.5908 92.5494C70.5908 92.976 70.4491 93.3039 70.1658 93.5331Z" fill="white"/>
<path d="M76.9924 96.0926L79.2138 92.4252L79.2235 96.8566H80.4114L80.4018 90.1713H79.3684L76.7316 94.6027L74.0467 90.1713H73.0133V96.8566H74.2109V92.4825L76.4323 96.0926H76.9924Z" fill="white"/>
<path d="M87.2115 96.8566V95.8156H83.3965V93.9724H86.661V92.9505H83.3965V91.2123H87.0763V90.1713H82.141V96.8566H87.2115Z" fill="white"/>
<path d="M93.4886 96.8566H94.522V90.1713H93.2761V94.6982L89.548 90.1713H88.5146V96.8566H89.7605V92.3297L93.4886 96.8566Z" fill="white"/>
<path d="M95.3678 91.2219H97.6085V96.8566H98.8641V91.2219H101.105V90.1713H95.3678V91.2219Z" fill="white"/>
<path fill-rule="evenodd" clip-rule="evenodd" d="M40.5178 105.801H43.8981L44.5742 107.348H45.8877L42.8357 100.663H41.5995L38.5572 107.348H39.8514L40.5178 105.801ZM42.208 101.904L43.4828 104.827H40.9428L42.208 101.904Z" fill="white"/>
<path d="M52.3612 103.929H51.1732V106.011C50.774 106.24 50.3104 106.355 49.7824 106.355C49.3124 106.355 48.8907 106.253 48.5173 106.049C48.1502 105.845 47.8605 105.565 47.648 105.209C47.4419 104.852 47.3389 104.451 47.3389 104.005C47.3389 103.547 47.4419 103.139 47.648 102.783C47.8605 102.426 48.1502 102.149 48.5173 101.952C48.8907 101.755 49.3157 101.656 49.7921 101.656C50.5197 101.656 51.141 101.911 51.6562 102.42L52.4481 101.656C52.1326 101.299 51.743 101.029 51.2795 100.844C50.8159 100.66 50.3008 100.567 49.7342 100.567C49.0388 100.567 48.411 100.717 47.8508 101.016C47.2971 101.309 46.8625 101.716 46.5469 102.238C46.2315 102.761 46.0737 103.35 46.0737 104.005C46.0737 104.661 46.2315 105.25 46.5469 105.772C46.8625 106.294 47.2971 106.705 47.8508 107.004C48.4046 107.297 49.0259 107.443 49.7149 107.443C50.2042 107.443 50.6807 107.37 51.1443 107.224C51.6079 107.077 52.0135 106.867 52.3612 106.594V103.929Z" fill="white"/>
<path d="M58.9911 107.348V106.307H55.1762V104.464H58.4406V103.442H55.1762V101.704H58.856V100.663H53.9206V107.348H58.9911Z" fill="white"/>
<path d="M66.3017 107.348V100.663H65.0557V105.19L61.3277 100.663H60.2943V107.348H61.5401V102.821L65.2682 107.348H66.3017Z" fill="white"/>
<path d="M69.2915 107.004C69.8452 107.297 70.4634 107.443 71.1459 107.443C71.6996 107.443 72.2051 107.348 72.6622 107.157C73.1258 106.966 73.5154 106.689 73.8309 106.326L73.0196 105.562C72.5302 106.09 71.9282 106.355 71.2135 106.355C70.7499 106.355 70.3346 106.256 69.9676 106.059C69.6006 105.855 69.3141 105.575 69.108 105.218C68.902 104.862 68.7989 104.457 68.7989 104.005C68.7989 103.553 68.902 103.149 69.108 102.792C69.3141 102.436 69.6006 102.159 69.9676 101.962C70.3346 101.758 70.7499 101.656 71.2135 101.656C71.9282 101.656 72.5302 101.917 73.0196 102.439L73.8309 101.685C73.5154 101.322 73.1291 101.045 72.6719 100.854C72.2148 100.663 71.7093 100.567 71.1556 100.567C70.473 100.567 69.8549 100.717 69.3012 101.016C68.7539 101.309 68.3225 101.716 68.007 102.238C67.6915 102.761 67.5338 103.35 67.5338 104.005C67.5338 104.661 67.6883 105.25 67.9973 105.772C68.3129 106.294 68.7443 106.705 69.2915 107.004Z" fill="white"/>
<path d="M76.1929 100.663H74.9373V107.348H76.1929V100.663Z" fill="white"/>
<path d="M82.9955 107.348V106.307H79.1806V104.464H82.445V103.442H79.1806V101.704H82.8603V100.663H77.925V107.348H82.9955Z" fill="white"/>
<path d="M84.8781 107.224C85.3674 107.37 85.8729 107.443 86.3944 107.443C86.9868 107.443 87.489 107.354 87.9011 107.176C88.3132 106.998 88.619 106.759 88.8186 106.46C89.0247 106.161 89.1277 105.826 89.1277 105.457C89.1277 105.024 89.0118 104.68 88.78 104.426C88.5547 104.171 88.281 103.983 87.9591 103.862C87.6371 103.735 87.225 103.614 86.7228 103.499C86.4973 103.444 86.3009 103.393 86.1338 103.346C86.0685 103.327 86.0076 103.309 85.9512 103.292C85.9171 103.281 85.8845 103.271 85.8536 103.26C85.6411 103.19 85.4641 103.095 85.3223 102.974C85.2518 102.911 85.1996 102.838 85.1658 102.756C85.135 102.68 85.1195 102.597 85.1195 102.506C85.1195 102.232 85.2387 102.013 85.4769 101.847C85.7216 101.681 86.0918 101.599 86.5876 101.599C86.8902 101.599 87.2025 101.643 87.5244 101.732C87.8464 101.821 88.1555 101.952 88.4516 102.124L88.8476 101.159C88.5578 100.968 88.2134 100.822 87.8142 100.72C87.415 100.618 87.0093 100.567 86.5972 100.567C86.0049 100.567 85.5027 100.656 85.0906 100.835C84.685 101.013 84.3791 101.255 84.173 101.56C83.9735 101.86 83.8737 102.194 83.8737 102.563C83.8737 103.003 83.9864 103.353 84.2117 103.614C84.4435 103.868 84.7171 104.056 85.0327 104.177C85.3546 104.298 85.7731 104.419 86.2882 104.54C86.3931 104.566 86.4917 104.59 86.5839 104.614L86.6371 104.628L86.7276 104.652C86.8951 104.697 87.0384 104.74 87.1574 104.779C87.3699 104.849 87.5438 104.948 87.679 105.075C87.8206 105.196 87.8914 105.352 87.8914 105.543C87.8914 105.804 87.7659 106.014 87.5148 106.173C87.2701 106.332 86.8967 106.412 86.3944 106.412C85.9888 106.412 85.5831 106.345 85.1775 106.211C84.7783 106.071 84.4402 105.893 84.1634 105.677L83.7288 106.641C84.0121 106.883 84.3952 107.077 84.8781 107.224Z" fill="white"/>
<path d="M36.0972 117.617C35.8332 117.747 35.5261 117.812 35.1758 117.812H34.0155V114.573H35.1758C35.5261 114.573 35.8332 114.64 36.0972 114.775C36.3656 114.906 36.5704 115.095 36.7114 115.342C36.857 115.585 36.9298 115.869 36.9298 116.192C36.9298 116.516 36.857 116.802 36.7114 117.05C36.5704 117.293 36.3656 117.482 36.0972 117.617Z" fill="white"/>
<path d="M63.3045 115.511C63.3045 115.209 63.2045 114.978 63.0042 114.816C62.804 114.654 62.5106 114.573 62.1238 114.573H61.0864V116.456H62.1238C62.5106 116.456 62.804 116.375 63.0042 116.213C63.2045 116.046 63.3045 115.812 63.3045 115.511Z" fill="white"/>
<path d="M87.0532 117.88C87.3672 117.88 87.6265 117.776 87.8313 117.569C88.036 117.362 88.1385 117.09 88.1385 116.753C88.1385 116.415 88.036 116.143 87.8313 115.936C87.6265 115.729 87.3672 115.626 87.0532 115.626C86.7393 115.626 86.4799 115.729 86.2752 115.936C86.0749 116.143 85.9749 116.415 85.9749 116.753C85.9749 117.09 86.0749 117.362 86.2752 117.569C86.4799 117.776 86.7393 117.88 87.0532 117.88Z" fill="white"/>
<path fill-rule="evenodd" clip-rule="evenodd" d="M28.1878 119.133C28.1881 120.089 28.1884 121.044 28.1896 122H99.9938C99.9944 121.124 99.994 120.248 99.9936 119.372V119.356C99.9924 116.609 99.9911 113.861 100.02 111.113C100.028 110.471 99.8395 110.345 99.2246 110.345C75.7722 110.359 52.3197 110.359 28.8672 110.345C28.3198 110.345 28.1583 110.46 28.1631 111.022C28.1863 113.727 28.187 116.429 28.1878 119.133ZM44.6838 118.622C44.3152 118.622 43.958 118.57 43.6122 118.467C43.271 118.363 43.0003 118.226 42.8 118.055L43.1072 117.374C43.3029 117.527 43.5417 117.653 43.8238 117.752C44.1105 117.846 44.3971 117.893 44.6838 117.893C45.0387 117.893 45.3026 117.837 45.4755 117.725C45.6529 117.612 45.7417 117.464 45.7417 117.279C45.7417 117.144 45.6916 117.034 45.5915 116.948C45.5829 116.94 45.574 116.932 45.5649 116.924C45.5443 116.907 45.5227 116.89 45.4999 116.874C45.4846 116.863 45.4689 116.853 45.4526 116.843C45.3848 116.802 45.3083 116.767 45.223 116.739L45.1583 116.718L45.1334 116.711L45.0799 116.695L45.03 116.68C44.9698 116.663 44.9041 116.645 44.8331 116.627L44.7336 116.601L44.6745 116.587L44.6087 116.57C44.4259 116.528 44.2603 116.485 44.1119 116.442C43.9648 116.399 43.8347 116.356 43.7214 116.314C43.4985 116.229 43.3051 116.096 43.1413 115.916C42.9821 115.731 42.9024 115.484 42.9024 115.173C42.9024 114.912 42.9729 114.676 43.114 114.465C43.2596 114.249 43.4758 114.078 43.7624 113.952C44.0536 113.826 44.4085 113.763 44.8271 113.763C45.1183 113.763 45.405 113.799 45.6871 113.871C45.9692 113.943 46.2126 114.046 46.4174 114.181L46.1375 114.863C46.0546 114.815 45.9701 114.771 45.8843 114.732C45.7536 114.673 45.6196 114.624 45.4823 114.586C45.2548 114.523 45.0342 114.492 44.8203 114.492C44.4699 114.492 44.2083 114.55 44.0354 114.667C43.8671 114.784 43.7829 114.939 43.7829 115.133C43.7829 115.214 43.8002 115.286 43.8347 115.35C43.8576 115.392 43.8881 115.43 43.9262 115.464C43.9571 115.49 43.9905 115.515 44.0262 115.538C44.0499 115.553 44.0747 115.567 44.1005 115.581C44.1319 115.598 44.1648 115.614 44.1993 115.628C44.2171 115.635 44.2354 115.643 44.2541 115.65C44.2696 115.655 44.2855 115.661 44.3016 115.666C44.4517 115.716 44.6565 115.772 44.9158 115.835C45.2708 115.916 45.5619 116.001 45.7895 116.091C46.0169 116.177 46.2103 116.309 46.3696 116.489C46.5334 116.669 46.6153 116.912 46.6153 117.218C46.6153 117.479 46.5425 117.716 46.3969 117.927C46.2558 118.138 46.0397 118.307 45.7485 118.433C45.4573 118.559 45.1024 118.622 44.6838 118.622ZM35.2167 113.83H33.1282V118.555H35.2167C35.7263 118.555 36.179 118.458 36.5749 118.264C36.9708 118.066 37.2779 117.79 37.4963 117.434C37.7147 117.074 37.8239 116.66 37.8239 116.192C37.8239 115.725 37.7147 115.313 37.4963 114.957C37.2779 114.598 36.9708 114.321 36.5749 114.127C36.179 113.929 35.7263 113.83 35.2167 113.83ZM42.2819 118.555V117.819H39.586V116.516H41.8929V115.794H39.586V114.566H42.1863V113.83H38.6987V118.555H42.2819ZM48.3141 113.83H47.4268V118.555H48.3141V113.83ZM52.8005 116.139H53.64V118.022C53.3943 118.215 53.1076 118.363 52.78 118.467C52.4524 118.57 52.1157 118.622 51.7699 118.622C51.283 118.622 50.844 118.519 50.4527 118.312C50.0614 118.1 49.7542 117.81 49.5312 117.441C49.3083 117.072 49.1969 116.656 49.1969 116.192C49.1969 115.729 49.3083 115.313 49.5312 114.944C49.7542 114.575 50.0614 114.287 50.4527 114.08C50.8485 113.869 51.2922 113.763 51.7836 113.763C52.184 113.763 52.548 113.828 52.8756 113.959C53.2032 114.089 53.4785 114.28 53.7014 114.532L53.1417 115.072C52.7778 114.712 52.3386 114.532 51.8245 114.532C51.4878 114.532 51.1875 114.602 50.9236 114.741C50.6643 114.881 50.4595 115.077 50.3093 115.329C50.1637 115.581 50.0909 115.869 50.0909 116.192C50.0909 116.508 50.1637 116.791 50.3093 117.043C50.4595 117.295 50.6643 117.493 50.9236 117.637C51.1875 117.781 51.4856 117.853 51.8177 117.853C52.1908 117.853 52.5184 117.772 52.8005 117.61V116.139ZM58.9872 118.555V113.83H58.1067V117.029L55.4723 113.83H54.742V118.555H55.6224V115.356L58.2569 118.555H58.9872ZM63.325 118.555L62.349 117.171C62.3081 117.176 62.2466 117.178 62.1648 117.178H61.0864V118.555H60.1991V113.83H62.1648C62.5788 113.83 62.9383 113.898 63.2431 114.033C63.5526 114.168 63.7892 114.361 63.9529 114.613C64.1168 114.865 64.1987 115.164 64.1987 115.511C64.1987 115.866 64.1099 116.172 63.9324 116.429C63.7595 116.685 63.5093 116.876 63.1817 117.002L64.2805 118.555H63.325ZM65.635 118.075C66.0035 118.44 66.5177 118.622 67.1774 118.622C67.8372 118.622 68.3491 118.44 68.7131 118.075C69.0816 117.706 69.2659 117.18 69.2659 116.496V113.83H68.3923V116.462C68.3923 117.389 67.9897 117.853 67.1843 117.853C66.3744 117.853 65.9694 117.389 65.9694 116.462V113.83H65.0821V116.496C65.0821 117.18 65.2664 117.706 65.635 118.075ZM71.9213 118.622C71.5528 118.622 71.1956 118.57 70.8498 118.467C70.6971 118.421 70.5586 118.368 70.4342 118.308C70.2804 118.234 70.1482 118.15 70.0376 118.055L70.3447 117.374C70.4497 117.456 70.5672 117.53 70.6971 117.597L70.7267 117.611C70.7422 117.619 70.758 117.627 70.7739 117.634L70.7933 117.643L70.8352 117.662L70.861 117.674L70.8891 117.686C70.9095 117.694 70.9302 117.702 70.9511 117.711C70.9871 117.725 71.0238 117.738 71.0614 117.752C71.1918 117.794 71.3223 117.828 71.4527 117.851C71.4966 117.859 71.5405 117.866 71.5843 117.872C71.6108 117.875 71.6372 117.878 71.6636 117.881L71.6912 117.883C71.7679 117.89 71.8446 117.893 71.9213 117.893C72.2762 117.893 72.5401 117.837 72.713 117.725C72.8905 117.612 72.9792 117.464 72.9792 117.279C72.9792 117.144 72.9291 117.034 72.8291 116.948C72.7335 116.858 72.6107 116.789 72.4605 116.739C72.3104 116.69 72.1056 116.633 71.8462 116.57C71.4822 116.485 71.1865 116.399 70.959 116.314C70.736 116.229 70.5427 116.096 70.3788 115.916C70.2196 115.731 70.1399 115.484 70.1399 115.173C70.1399 114.912 70.2105 114.676 70.3515 114.465C70.4972 114.249 70.7133 114.078 70.9999 113.952C71.2911 113.826 71.646 113.763 72.0646 113.763C72.3559 113.763 72.6425 113.799 72.9246 113.871C73.2067 113.943 73.4501 114.046 73.6549 114.181L73.3751 114.863C73.1657 114.741 72.9473 114.649 72.7199 114.586C72.4923 114.523 72.2717 114.492 72.0578 114.492C71.7075 114.492 71.4459 114.55 71.273 114.667C71.1046 114.784 71.0204 114.939 71.0204 115.133C71.0204 115.159 71.0222 115.184 71.0258 115.208C71.0292 115.232 71.0342 115.254 71.0409 115.275C71.0524 115.313 71.0689 115.347 71.0902 115.379C71.1104 115.41 71.1348 115.438 71.1637 115.464C71.2638 115.549 71.3889 115.617 71.5391 115.666C71.6893 115.716 71.894 115.772 72.1534 115.835C72.3447 115.878 72.5175 115.923 72.6718 115.97C72.8037 116.009 72.9221 116.05 73.027 116.091C73.2545 116.177 73.4478 116.309 73.6071 116.489C73.7709 116.669 73.8528 116.912 73.8528 117.218L73.8525 117.248L73.8513 117.282C73.8508 117.295 73.85 117.308 73.849 117.32L73.8466 117.348C73.8364 117.453 73.8137 117.554 73.7784 117.65C73.743 117.747 73.695 117.839 73.6344 117.927C73.4934 118.138 73.2772 118.307 72.986 118.433C72.6948 118.559 72.3399 118.622 71.9213 118.622ZM78.9096 118.555V113.83H78.0223V115.781H75.5516V113.83H74.6644V118.555H75.5516V116.53H78.0223V118.555H78.9096ZM80.2632 118.6L80.2356 118.597C80.1938 118.592 80.1537 118.583 80.1155 118.57C80.0425 118.544 79.9763 118.503 79.9168 118.447C79.8076 118.339 79.7529 118.204 79.7529 118.042C79.7529 117.964 79.7642 117.894 79.7867 117.83C79.8128 117.757 79.8539 117.692 79.91 117.637C79.9337 117.614 79.9586 117.594 79.9847 117.577C80.0165 117.555 80.0501 117.537 80.0854 117.523C80.1545 117.495 80.2302 117.482 80.3126 117.482C80.4719 117.482 80.6039 117.533 80.7085 117.637C80.7158 117.644 80.7229 117.651 80.7298 117.658L80.7386 117.668L80.7502 117.681C80.7557 117.688 80.761 117.694 80.7662 117.701C80.7916 117.734 80.8125 117.771 80.8288 117.809C80.8356 117.826 80.8416 117.842 80.8469 117.859C80.8525 117.878 80.8572 117.897 80.8609 117.917L80.8651 117.941C80.8699 117.973 80.8723 118.007 80.8723 118.042C80.8723 118.123 80.8584 118.198 80.8307 118.266C80.8272 118.275 80.8234 118.283 80.8194 118.292C80.7925 118.348 80.7556 118.4 80.7085 118.447C80.5993 118.55 80.4673 118.602 80.3126 118.602C80.2959 118.602 80.2794 118.601 80.2632 118.6ZM82.2263 118.366C82.5266 118.523 82.8655 118.602 83.2432 118.602C83.598 118.602 83.9098 118.53 84.1782 118.386C84.4512 118.237 84.6582 118.028 84.7993 117.758L84.1441 117.38C84.1258 117.409 84.1067 117.437 84.0868 117.464C84.0251 117.546 83.9553 117.617 83.8776 117.675C83.8366 117.706 83.7936 117.734 83.7482 117.758C83.5935 117.839 83.4229 117.88 83.2364 117.88C82.9133 117.88 82.6471 117.779 82.4378 117.576C82.233 117.369 82.1307 117.095 82.1307 116.753C82.1307 116.411 82.2353 116.139 82.4446 115.936C82.6539 115.729 82.9179 115.626 83.2364 115.626C83.4229 115.626 83.5935 115.668 83.7482 115.754C83.9075 115.835 84.0395 115.959 84.1441 116.125L84.7993 115.747C84.6628 115.477 84.458 115.27 84.185 115.126C83.9166 114.982 83.6026 114.91 83.2432 114.91C82.8609 114.91 82.5197 114.989 82.2194 115.146C81.9237 115.304 81.6916 115.522 81.5232 115.801C81.3549 116.08 81.2707 116.397 81.2707 116.753C81.2707 117.108 81.3549 117.427 81.5232 117.711C81.6916 117.99 81.9259 118.208 82.2263 118.366ZM87.0532 118.602C86.6847 118.602 86.3525 118.523 86.0568 118.366C85.761 118.208 85.529 117.99 85.3606 117.711C85.1968 117.427 85.1149 117.108 85.1149 116.753C85.1149 116.397 85.1968 116.08 85.3606 115.801C85.529 115.522 85.761 115.304 86.0568 115.146C86.3525 114.989 86.6847 114.91 87.0532 114.91C87.4264 114.91 87.7607 114.989 88.0565 115.146C88.3523 115.304 88.582 115.522 88.7459 115.801C88.9142 116.08 88.9984 116.397 88.9984 116.753C88.9984 117.108 88.9142 117.427 88.7459 117.711C88.582 117.99 88.3523 118.208 88.0565 118.366C87.7607 118.523 87.4264 118.602 87.0532 118.602ZM95.4381 115.308C95.1697 115.043 94.8057 114.91 94.3461 114.91C94.0594 114.91 93.7978 114.964 93.5612 115.072C93.3763 115.153 93.2178 115.26 93.0856 115.393L93.0577 115.422L93.0359 115.446C93.017 115.467 92.9987 115.489 92.981 115.511C92.9381 115.442 92.8895 115.378 92.8354 115.321C92.8144 115.299 92.7925 115.278 92.7698 115.257C92.7543 115.243 92.7384 115.23 92.7221 115.217C92.7029 115.202 92.6832 115.187 92.6629 115.173C92.605 115.132 92.5427 115.096 92.476 115.065C92.2667 114.962 92.0255 114.91 91.7525 114.91C91.5023 114.91 91.2748 114.953 91.07 115.038C90.8653 115.124 90.6947 115.248 90.5581 115.41V114.951H89.746V118.555H90.5991V116.726C90.5991 116.375 90.6833 116.107 90.8516 115.923C91.0245 115.738 91.2566 115.646 91.5478 115.646C91.8117 115.646 92.0142 115.727 92.1552 115.889C92.2963 116.046 92.3668 116.282 92.3668 116.597V118.555H93.2199V116.726C93.2199 116.379 93.3064 116.114 93.4793 115.929C93.6522 115.74 93.882 115.646 94.1686 115.646C94.4325 115.646 94.635 115.727 94.7761 115.889C94.9171 116.046 94.9876 116.282 94.9876 116.597V118.555H95.8408V116.489C95.8408 115.963 95.7066 115.569 95.4381 115.308Z" fill="white"/>
<path d="M34.4178 70.1994L33.2268 66.5748L32.0358 70.1994H28.1815L31.2997 72.4396L30.1086 76.0643L33.2268 73.8241L36.3449 76.0643L35.1539 72.4396L38.2721 70.1994H34.4178Z" fill="white"/>
<path d="M48.6592 66.5748L49.8502 70.1994H53.7045L50.5863 72.4396L51.7773 76.0643L48.6592 73.8241L45.541 76.0643L46.7321 72.4396L43.6139 70.1994H47.4682L48.6592 66.5748Z" fill="white"/>
<path d="M65.2826 70.1994L64.0916 66.5748L62.9006 70.1994H59.0464L62.1645 72.4396L60.9735 76.0643L64.0916 73.8241L67.2097 76.0643L66.0187 72.4396L69.1369 70.1994H65.2826Z" fill="white"/>
<path d="M79.5241 66.5748L80.7151 70.1994H84.5693L81.4512 72.4396L82.6422 76.0643L79.5241 73.8241L76.4059 76.0643L77.597 72.4396L74.4788 70.1994H78.3331L79.5241 66.5748Z" fill="white"/>
<path d="M96.1475 70.1994L94.9565 66.5748L93.7655 70.1994H89.9112L93.0294 72.4396L91.8383 76.0643L94.9565 73.8241L98.0746 76.0643L96.8836 72.4396L100.002 70.1994H96.1475Z" fill="white"/>
</svg>
