<svg width="128" height="128" viewBox="0 0 128 128" fill="none" xmlns="http://www.w3.org/2000/svg">
<path d="M27.085 92.1251C26.72 91.6393 26.3642 91.146 26.0179 90.6456L26.7633 90.1205C27.1028 90.6111 27.4516 91.0946 27.8094 91.5709L27.085 92.1251Z" fill="white"/>
<path d="M28.2087 93.5614C28.5926 94.0329 28.9856 94.4966 29.3873 94.9524L30.0666 94.3429C29.6728 93.896 29.2875 93.4413 28.9111 92.979L28.2087 93.5614Z" fill="white"/>
<path d="M30.6187 96.2959C31.0378 96.7355 31.4653 97.1669 31.9011 97.5898L32.5312 96.9287C32.104 96.5141 31.6848 96.0911 31.2739 95.66L30.6187 96.2959Z" fill="white"/>
<path d="M33.2326 98.8323C33.6843 99.2376 34.1439 99.634 34.6112 100.021L35.1883 99.3127C34.7302 98.9329 34.2795 98.5442 33.8367 98.1468L33.2326 98.8323Z" fill="white"/>
<path d="M36.0347 101.155C36.5162 101.524 37.005 101.883 37.501 102.232L38.0214 101.48C37.5352 101.137 37.056 100.785 36.5839 100.424L36.0347 101.155Z" fill="white"/>
<path d="M39.0079 103.25C39.5164 103.579 40.0316 103.898 40.5534 104.208L41.0139 103.417C40.5023 103.113 39.9972 102.8 39.4988 102.478L39.0079 103.25Z" fill="white"/>
<path d="M42.1353 105.103C42.6676 105.391 43.2062 105.668 43.7507 105.935L44.1481 105.11C43.6143 104.849 43.0863 104.577 42.5645 104.295L42.1353 105.103Z" fill="white"/>
<path d="M45.3968 106.702C45.9496 106.947 46.508 107.18 47.0718 107.403L47.4033 106.549C46.8507 106.331 46.3034 106.102 45.7616 105.862L45.3968 106.702Z" fill="white"/>
<path d="M48.7732 108.037C49.3434 108.236 49.9186 108.425 50.4987 108.602L50.7623 107.724C50.1937 107.55 49.6299 107.366 49.071 107.17L48.7732 108.037Z" fill="white"/>
<path d="M52.245 109.098C52.8282 109.251 53.4158 109.393 54.0077 109.524L54.2018 108.628C53.6216 108.5 53.0456 108.361 52.4739 108.21L52.245 109.098Z" fill="white"/>
<path d="M55.7862 109.879C56.3797 109.985 56.977 110.08 57.578 110.163L57.7015 109.254C57.1123 109.173 56.5268 109.08 55.9451 108.976L55.7862 109.879Z" fill="white"/>
<path d="M59.3807 110.376C59.98 110.435 60.5826 110.482 61.1884 110.518L61.2411 109.602C60.6472 109.567 60.0563 109.521 59.4688 109.463L59.3807 110.376Z" fill="white"/>
<path d="M62.9991 110.588C63.3017 110.594 63.6051 110.597 63.9091 110.597C64.2131 110.597 64.5165 110.594 64.8191 110.588L64.8015 109.671C64.5048 109.677 64.2073 109.68 63.9091 109.68C63.6109 109.68 63.3134 109.677 63.0166 109.671L62.9991 110.588Z" fill="white"/>
<path d="M66.6298 110.518C67.2356 110.482 67.8382 110.435 68.4375 110.376L68.3494 109.463C67.7619 109.521 67.171 109.567 66.5771 109.602L66.6298 110.518Z" fill="white"/>
<path d="M72.0319 109.879C71.4385 109.985 70.8412 110.08 70.2401 110.163L70.1167 109.254C70.7058 109.173 71.2914 109.08 71.8731 108.976L72.0319 109.879Z" fill="white"/>
<path d="M73.8104 109.524C74.4023 109.393 74.99 109.251 75.5732 109.098L75.3442 108.21C74.7726 108.361 74.1966 108.5 73.6164 108.628L73.8104 109.524Z" fill="white"/>
<path d="M77.3195 108.602C77.8996 108.425 78.4748 108.236 79.045 108.037L78.7472 107.17C78.1883 107.366 77.6245 107.55 77.0559 107.724L77.3195 108.602Z" fill="white"/>
<path d="M80.7464 107.403C81.3102 107.18 81.8686 106.947 82.4214 106.702L82.0566 105.862C81.5148 106.102 80.9675 106.331 80.4149 106.549L80.7464 107.403Z" fill="white"/>
<path d="M84.0674 105.935C84.612 105.668 85.1506 105.391 85.6829 105.103L85.2537 104.295C84.7319 104.577 84.2039 104.849 83.6701 105.11L84.0674 105.935Z" fill="white"/>
<path d="M87.2648 104.208C87.7866 103.898 88.3018 103.579 88.8103 103.25L88.3194 102.478C87.821 102.8 87.3159 103.113 86.8043 103.417L87.2648 104.208Z" fill="white"/>
<path d="M90.3172 102.232C90.8132 101.883 91.302 101.524 91.7835 101.155L91.2343 100.424C90.7622 100.785 90.283 101.137 89.7968 101.48L90.3172 102.232Z" fill="white"/>
<path d="M93.207 100.021C93.6743 99.634 94.1339 99.2376 94.5856 98.8323L93.9815 98.1468C93.5387 98.5442 93.088 98.9329 92.6299 99.3127L93.207 100.021Z" fill="white"/>
<path d="M95.9171 97.5898C96.3529 97.1669 96.7804 96.7355 97.1995 96.2959L96.5443 95.66C96.1334 96.0911 95.7142 96.5141 95.287 96.9286L95.9171 97.5898Z" fill="white"/>
<path d="M98.4309 94.9524C98.8326 94.4966 99.2255 94.0329 99.6095 93.5613L98.9071 92.979C98.5307 93.4413 98.1454 93.896 97.7516 94.3429L98.4309 94.9524Z" fill="white"/>
<path d="M100.733 92.125C101.098 91.6392 101.454 91.146 101.8 90.6456L101.055 90.1205C100.715 90.6111 100.367 91.0946 100.009 91.5709L100.733 92.125Z" fill="white"/>
<path fill-rule="evenodd" clip-rule="evenodd" d="M60.2946 93.1691V97.2371H60.0211L59.8989 96.9832C59.7787 97.0793 59.6409 97.1582 59.4858 97.2198C59.3345 97.2813 59.189 97.3121 59.0493 97.3121C58.6381 97.3121 58.3297 97.1736 58.1241 96.8966C57.9223 96.6158 57.8215 96.2638 57.8215 95.8407C57.8215 95.4098 57.9243 95.0559 58.1299 94.779C58.3394 94.4981 58.6497 94.3577 59.061 94.3577C59.1812 94.3577 59.3112 94.3847 59.4509 94.4385C59.5905 94.4885 59.7166 94.5558 59.8291 94.6405V93.221L60.2946 93.1691ZM59.1308 94.7443C58.8243 94.7443 58.6071 94.852 58.479 95.0675C58.3549 95.279 58.2928 95.5349 58.2928 95.8349C58.2928 96.1465 58.3549 96.4062 58.479 96.6139C58.6032 96.8178 58.8204 96.9197 59.1308 96.9197C59.2394 96.9197 59.3558 96.8947 59.4799 96.8447C59.6041 96.7908 59.7205 96.7158 59.8291 96.6197V95.0502C59.7205 94.954 59.6041 94.879 59.4799 94.8251C59.3558 94.7713 59.2394 94.7443 59.1308 94.7443Z" fill="white"/>
<path fill-rule="evenodd" clip-rule="evenodd" d="M50.9277 97.4621C50.9277 97.7545 50.8249 97.9987 50.6193 98.1949C50.4176 98.3911 50.115 98.4892 49.7115 98.4892C49.5951 98.4892 49.438 98.4661 49.2401 98.42C49.0423 98.3776 48.8832 98.3142 48.763 98.2295L48.9026 97.9006C49.019 97.9507 49.1335 97.9987 49.246 98.0449C49.3623 98.0911 49.5136 98.1141 49.6999 98.1141C49.9326 98.1141 50.1169 98.0584 50.2527 97.9468C50.3924 97.8391 50.4622 97.6756 50.4622 97.4563V97.0293C50.3497 97.114 50.2217 97.1813 50.0781 97.2313C49.9385 97.2813 49.8065 97.3063 49.6824 97.3063C49.2712 97.3063 48.9628 97.1698 48.7571 96.8966C48.5554 96.6197 48.4545 96.2677 48.4545 95.8407C48.4545 95.4137 48.5574 95.0598 48.763 94.779C48.9725 94.4981 49.2828 94.3577 49.694 94.3577C49.8298 94.3577 49.9734 94.3904 50.1247 94.4558C50.276 94.5174 50.4118 94.5962 50.532 94.6924C50.5514 94.6539 50.5708 94.6135 50.5902 94.5712C50.6096 94.5251 50.629 94.4808 50.6484 94.4385H50.9277V97.4621ZM50.4622 95.0502C50.3536 94.954 50.2352 94.879 50.1072 94.8251C49.9831 94.7713 49.8667 94.7443 49.7581 94.7443C49.4555 94.7443 49.2401 94.852 49.1121 95.0675C48.988 95.279 48.9259 95.5349 48.9259 95.8349C48.9259 96.1465 48.986 96.4062 49.1063 96.6139C49.2304 96.8216 49.4477 96.9255 49.7581 96.9255C49.8667 96.9255 49.9831 96.8985 50.1072 96.8447C50.2352 96.7908 50.3536 96.7158 50.4622 96.6197V95.0502Z" fill="white"/>
<path fill-rule="evenodd" clip-rule="evenodd" d="M52.8697 97.3121C52.4546 97.3082 52.1423 97.1678 51.9328 96.8909C51.7233 96.6139 51.6185 96.2581 51.6185 95.8234C51.6224 95.4002 51.7369 95.0521 51.9619 94.779C52.1869 94.5058 52.5089 94.3673 52.9279 94.3635C53.3546 94.3635 53.6727 94.5039 53.8822 94.7847C54.0956 95.0655 54.2023 95.4233 54.2023 95.858C54.1984 96.285 54.0801 96.635 53.8473 96.9082C53.6145 97.1774 53.2886 97.3121 52.8697 97.3121ZM53.7425 95.858C53.7425 95.5387 53.6805 95.2752 53.5563 95.0675C53.4361 94.8597 53.2305 94.7559 52.9395 94.7559C52.6524 94.7559 52.439 94.8559 52.2994 95.0559C52.1636 95.2521 52.0938 95.506 52.0899 95.8176C52.0899 96.1446 52.1481 96.41 52.2645 96.6139C52.3808 96.8178 52.5845 96.9197 52.8755 96.9197C53.1664 96.9197 53.3818 96.8235 53.5214 96.6312C53.665 96.4389 53.7387 96.1811 53.7425 95.858Z" fill="white"/>
<path fill-rule="evenodd" clip-rule="evenodd" d="M55.0342 96.8909C55.2437 97.1678 55.556 97.3082 55.9711 97.3121C56.3901 97.3121 56.716 97.1774 56.9488 96.9082C57.1815 96.635 57.2999 96.285 57.3037 95.858C57.3037 95.4233 57.1971 95.0655 56.9837 94.7847C56.7742 94.5039 56.4561 94.3635 56.0293 94.3635C55.6103 94.3673 55.2883 94.5058 55.0633 94.779C54.8383 95.0521 54.7239 95.4002 54.72 95.8234C54.72 96.2581 54.8247 96.6139 55.0342 96.8909ZM56.6578 95.0675C56.782 95.2752 56.844 95.5387 56.844 95.858C56.8401 96.1811 56.7664 96.4389 56.6229 96.6312C56.4832 96.8235 56.2679 96.9197 55.977 96.9197C55.686 96.9197 55.4823 96.8178 55.3659 96.6139C55.2496 96.41 55.1914 96.1446 55.1914 95.8176C55.1952 95.506 55.2651 95.2521 55.4008 95.0559C55.5405 94.8559 55.7539 94.7559 56.041 94.7559C56.3319 94.7559 56.5375 94.8597 56.6578 95.0675Z" fill="white"/>
<path d="M61.4394 93.423C61.2997 93.5768 61.2299 93.7865 61.2299 94.0519V94.4962H60.7992L60.8051 94.8482H61.2299V97.2371H61.6896V94.8482H62.3588L62.2075 94.4962H61.6896V94.075C61.6896 93.9327 61.7187 93.8173 61.7769 93.7288C61.8389 93.6403 61.9417 93.5961 62.0853 93.5961C62.1241 93.5961 62.1687 93.6018 62.2191 93.6134C62.2696 93.6249 62.3103 93.6384 62.3413 93.6538L62.4461 93.2902C62.4034 93.2672 62.3413 93.2441 62.2599 93.221C62.1784 93.1979 62.0969 93.1864 62.0155 93.1864C61.771 93.1864 61.579 93.2652 61.4394 93.423Z" fill="white"/>
<path d="M63.1304 93.8846C63.0412 93.8846 62.9674 93.8557 62.9093 93.798C62.8511 93.7365 62.822 93.6615 62.822 93.573C62.8181 93.4883 62.8452 93.4172 62.9034 93.3595C62.9655 93.2979 63.0412 93.2672 63.1304 93.2672C63.2157 93.2672 63.2894 93.2979 63.3515 93.3595C63.4175 93.4172 63.4504 93.4883 63.4504 93.573C63.4504 93.6615 63.4175 93.7365 63.3515 93.798C63.2894 93.8557 63.2157 93.8846 63.1304 93.8846Z" fill="white"/>
<path d="M62.9034 97.2371V94.4385H63.369V97.2371H62.9034Z" fill="white"/>
<path d="M64.2202 94.4385V97.2371H64.6799V95.2579C64.8041 95.1348 64.9515 95.029 65.1222 94.9405C65.2929 94.8482 65.4617 94.802 65.6285 94.802C65.6091 94.7405 65.5897 94.6809 65.5703 94.6232C65.5509 94.5616 65.5334 94.5001 65.5179 94.4385C65.3666 94.4385 65.2076 94.4827 65.0407 94.5712C64.8778 94.6559 64.7439 94.7424 64.6392 94.8309L64.4995 94.4385H64.2202Z" fill="white"/>
<path d="M68.2534 94.8136C68.3737 94.6866 68.525 94.5789 68.7073 94.4904C68.8896 94.402 69.0642 94.3577 69.231 94.3577C69.5569 94.3577 69.7974 94.452 69.9526 94.6405C70.1078 94.8251 70.1854 95.0579 70.1854 95.3387V97.2313H69.7198V95.4021C69.7198 95.2136 69.6733 95.0579 69.5802 94.9347C69.4871 94.8117 69.3435 94.7482 69.1496 94.7443C69.0254 94.7443 68.8916 94.779 68.748 94.8482C68.6084 94.9174 68.4765 95.0155 68.3523 95.1425C68.3562 95.1771 68.3582 95.2117 68.3582 95.2463C68.3604 95.2643 68.362 95.2822 68.363 95.3002C68.3636 95.313 68.364 95.3258 68.364 95.3387V97.2313H67.8984V95.4021C67.8984 95.2136 67.8519 95.0579 67.7588 94.9347C67.6695 94.8117 67.5299 94.7482 67.3398 94.7443C67.2118 94.7443 67.0779 94.779 66.9383 94.8482C66.7986 94.9136 66.6667 95.0117 66.5425 95.1425V97.2371H66.0828V94.4385H66.3622L66.496 94.7559C66.6201 94.6405 66.7656 94.5462 66.9324 94.4731C67.0993 94.3962 67.2603 94.3577 67.4154 94.3577C67.6249 94.3577 67.7995 94.4 67.9392 94.4847C68.0827 94.5655 68.1875 94.6751 68.2534 94.8136Z" fill="white"/>
<path d="M72.2889 94.8136C72.4091 94.8559 72.5158 94.9001 72.6089 94.9463L72.7486 94.6116C72.64 94.5347 72.4964 94.4751 72.318 94.4327C72.1395 94.3866 71.9901 94.3635 71.8699 94.3635C71.5479 94.3635 71.2918 94.4347 71.1017 94.577C70.9155 94.7155 70.8224 94.9097 70.8224 95.1598C70.8224 95.3791 70.9194 95.5541 71.1134 95.6849C71.3112 95.8118 71.5207 95.9118 71.7419 95.9849C71.9319 96.0465 72.091 96.1234 72.219 96.2157C72.3471 96.3042 72.4111 96.4081 72.4111 96.5273C72.4111 96.662 72.3529 96.762 72.2365 96.8274C72.1201 96.8928 71.9572 96.9255 71.7477 96.9255C71.6119 96.9255 71.4761 96.9062 71.3403 96.8678C71.2084 96.8293 71.0882 96.7831 70.9795 96.7293L70.8399 97.0755C70.9563 97.1524 71.1056 97.2101 71.2879 97.2486C71.4703 97.2909 71.6216 97.3121 71.7419 97.3121C72.1104 97.3121 72.3897 97.2409 72.5798 97.0986C72.7738 96.9524 72.8708 96.7524 72.8708 96.4985C72.8708 96.2677 72.7699 96.083 72.5682 95.9445C72.3703 95.8061 72.157 95.6964 71.9281 95.6156C71.7419 95.5541 71.5886 95.4868 71.4683 95.4137C71.352 95.3367 71.2938 95.2444 71.2938 95.1367C71.2938 95.0175 71.3442 94.9232 71.4451 94.854C71.5498 94.7847 71.6875 94.7501 71.8582 94.7501C72.0251 94.7501 72.1686 94.7713 72.2889 94.8136Z" fill="white"/>
<path d="M73.4893 96.6197C73.5747 96.6197 73.6464 96.6504 73.7046 96.712C73.7667 96.7697 73.7977 96.8409 73.7977 96.9255C73.7977 97.014 73.7667 97.089 73.7046 97.1505C73.6464 97.2082 73.5747 97.2371 73.4893 97.2371C73.4001 97.2371 73.3244 97.2082 73.2624 97.1505C73.2003 97.089 73.1693 97.014 73.1693 96.9255C73.1693 96.8409 73.2003 96.7697 73.2624 96.712C73.3244 96.6504 73.4001 96.6197 73.4893 96.6197Z" fill="white"/>
<path d="M74.7912 95.0617C74.927 94.854 75.1384 94.7501 75.4255 94.7501C75.6117 94.7501 75.7533 94.7713 75.8503 94.8136C75.9511 94.852 76.0559 94.8963 76.1645 94.9463L76.3042 94.6174C76.1839 94.5366 76.0365 94.4751 75.8619 94.4327C75.6912 94.3866 75.5496 94.3635 75.4371 94.3635C75.0104 94.3635 74.6825 94.502 74.4537 94.779C74.2287 95.0521 74.1142 95.4021 74.1103 95.8291C74.1103 96.2638 74.2189 96.6197 74.4362 96.8966C74.6573 97.1736 74.9813 97.3121 75.408 97.3121C75.5283 97.3121 75.6738 97.289 75.8445 97.2428C76.0152 97.2005 76.1606 97.1409 76.2809 97.064L76.1412 96.7293C76.0326 96.7831 75.9298 96.8293 75.8328 96.8678C75.7358 96.9062 75.5923 96.9255 75.4022 96.9255C75.1112 96.9255 74.9017 96.8216 74.7737 96.6139C74.6457 96.4023 74.5817 96.1388 74.5817 95.8234C74.5856 95.5195 74.6554 95.2656 74.7912 95.0617Z" fill="white"/>
<path fill-rule="evenodd" clip-rule="evenodd" d="M78.031 97.3121C77.6159 97.3082 77.3036 97.1678 77.0941 96.8909C76.8846 96.6139 76.7799 96.2581 76.7799 95.8234C76.7838 95.4002 76.8982 95.0521 77.1232 94.779C77.3482 94.5058 77.6702 94.3673 78.0892 94.3635C78.516 94.3635 78.8341 94.5039 79.0436 94.7847C79.257 95.0655 79.3636 95.4233 79.3636 95.858C79.3598 96.285 79.2414 96.635 79.0087 96.9082C78.7759 97.1774 78.45 97.3121 78.031 97.3121ZM78.9039 95.858C78.9039 95.5387 78.8419 95.2752 78.7177 95.0675C78.5974 94.8597 78.3918 94.7559 78.1009 94.7559C77.8138 94.7559 77.6004 94.8559 77.4608 95.0559C77.325 95.2521 77.2551 95.506 77.2513 95.8176C77.2513 96.1446 77.3094 96.41 77.4258 96.6139C77.5422 96.8178 77.7459 96.9197 78.0369 96.9197C78.3278 96.9197 78.5431 96.8235 78.6828 96.6312C78.8263 96.4389 78.9 96.1811 78.9039 95.858Z" fill="white"/>
<path d="M110.082 64.9182C110.088 64.6129 110.091 64.3068 110.091 64C110.091 63.6932 110.088 63.3872 110.082 63.0818L109.173 63.0995C109.179 63.399 109.182 63.6991 109.182 64C109.182 64.3009 109.179 64.601 109.173 64.9005L110.082 64.9182Z" fill="white"/>
<path d="M110.012 61.2548C109.977 60.6436 109.93 60.0356 109.872 59.4309L108.967 59.5198C109.024 60.1126 109.07 60.7087 109.105 61.308L110.012 61.2548Z" fill="white"/>
<path d="M109.661 57.612C109.578 57.0056 109.484 56.4029 109.379 55.8041L108.484 55.9644C108.587 56.5513 108.679 57.1421 108.76 57.7366L109.661 57.612Z" fill="white"/>
<path d="M109.027 54.0096C108.898 53.4124 108.757 52.8194 108.605 52.231L107.725 52.462C107.874 53.0388 108.012 53.62 108.139 54.2054L109.027 54.0096Z" fill="white"/>
<path d="M108.114 50.469C107.938 49.8837 107.751 49.3033 107.553 48.728L106.694 49.0285C106.888 49.5924 107.071 50.1613 107.244 50.735L108.114 50.469Z" fill="white"/>
<path d="M106.925 47.0112C106.705 46.4424 106.473 45.879 106.231 45.3212L105.398 45.6893C105.635 46.236 105.863 46.7882 106.079 47.3458L106.925 47.0112Z" fill="white"/>
<path d="M105.471 43.6604C105.206 43.1109 104.931 42.5675 104.646 42.0304L103.845 42.4635C104.124 42.99 104.394 43.5227 104.653 44.0613L105.471 43.6604Z" fill="white"/>
<path d="M103.758 40.4343C103.452 39.9078 103.135 39.3879 102.809 38.8749L102.044 39.3702C102.364 39.8731 102.674 40.3827 102.974 40.8989L103.758 40.4343Z" fill="white"/>
<path d="M101.8 37.3544C101.454 36.854 101.098 36.3607 100.733 35.8749L100.009 36.4291C100.367 36.9054 100.715 37.3889 101.055 37.8795L101.8 37.3544Z" fill="white"/>
<path d="M99.6095 34.4386C99.2255 33.9671 98.8326 33.5034 98.4309 33.0476L97.7516 33.6571C98.1454 34.104 98.5306 34.5587 98.9071 35.0209L99.6095 34.4386Z" fill="white"/>
<path d="M97.1995 31.7041C96.7804 31.2644 96.3529 30.833 95.9171 30.4102L95.2869 31.0713C95.7142 31.4859 96.1334 31.9089 96.5443 32.34L97.1995 31.7041Z" fill="white"/>
<path d="M94.5856 29.1677C94.1339 28.7624 93.6743 28.366 93.207 27.9785L92.6299 28.6873C93.088 29.0671 93.5387 29.4558 93.9815 29.8532L94.5856 29.1677Z" fill="white"/>
<path d="M91.7835 26.8447C91.302 26.4764 90.8132 26.1175 90.3172 25.768L89.7968 26.5201C90.283 26.8627 90.7622 27.2146 91.2342 27.5757L91.7835 26.8447Z" fill="white"/>
<path d="M88.8103 24.7501C88.3018 24.421 87.7866 24.1017 87.2648 23.7925L86.8043 24.5834C87.3159 24.8865 87.821 25.1995 88.3194 25.5222L88.8103 24.7501Z" fill="white"/>
<path d="M84.0674 22.0646C84.612 22.3316 85.1506 22.609 85.6829 22.8967L85.2537 23.7053C84.7318 23.4233 84.2039 23.1513 83.6701 22.8896L84.0674 22.0646Z" fill="white"/>
<path d="M80.7464 20.5968C81.3102 20.8196 81.8686 21.0533 82.4214 21.2976L82.0566 22.1378C81.5148 21.8984 80.9675 21.6693 80.4148 21.4509L80.7464 20.5968Z" fill="white"/>
<path d="M79.045 19.9632C78.4748 19.7637 77.8996 19.5752 77.3195 19.3979L77.0559 20.2757C77.6245 20.4495 78.1883 20.6343 78.7472 20.8298L79.045 19.9632Z" fill="white"/>
<path d="M75.5732 18.9019C74.99 18.7487 74.4023 18.6068 73.8104 18.4764L73.6164 19.3725C74.1966 19.5004 74.7726 19.6395 75.3442 19.7896L75.5732 18.9019Z" fill="white"/>
<path d="M72.0319 18.1213C71.4385 18.0151 70.8412 17.9203 70.2402 17.8371L70.1167 18.7459C70.7059 18.8274 71.2914 18.9203 71.8731 19.0245L72.0319 18.1213Z" fill="white"/>
<path d="M68.4375 17.624C67.8382 17.5652 67.2356 17.5179 66.6298 17.4824L66.5771 18.3981C67.171 18.4329 67.7619 18.4793 68.3494 18.537L68.4375 17.624Z" fill="white"/>
<path d="M64.8191 17.4117C64.5165 17.4058 64.2131 17.4029 63.9091 17.4029C63.6051 17.4029 63.3017 17.4058 62.9991 17.4117L63.0166 18.3288C63.3134 18.3231 63.6109 18.3201 63.9091 18.3201C64.2073 18.3201 64.5048 18.3231 64.8016 18.3288L64.8191 17.4117Z" fill="white"/>
<path d="M61.1884 17.4824C60.5826 17.5179 59.98 17.5652 59.3807 17.624L59.4688 18.537C60.0563 18.4793 60.6472 18.4329 61.2411 18.3981L61.1884 17.4824Z" fill="white"/>
<path d="M57.578 17.8371C56.977 17.9203 56.3797 18.0151 55.7863 18.1213L55.9451 19.0245C56.5268 18.9203 57.1123 18.8274 57.7015 18.7459L57.578 17.8371Z" fill="white"/>
<path d="M54.0077 18.4764C53.4158 18.6068 52.8282 18.7487 52.245 18.9019L52.4739 19.7896C53.0456 19.6395 53.6216 19.5004 54.2018 19.3725L54.0077 18.4764Z" fill="white"/>
<path d="M50.4987 19.3979C49.9186 19.5752 49.3434 19.7637 48.7732 19.9632L49.071 20.8298C49.6299 20.6343 50.1937 20.4495 50.7623 20.2757L50.4987 19.3979Z" fill="white"/>
<path d="M47.0718 20.5968C46.508 20.8196 45.9496 21.0533 45.3968 21.2976L45.7616 22.1378C46.3034 21.8984 46.8507 21.6693 47.4033 21.4509L47.0718 20.5968Z" fill="white"/>
<path d="M43.7507 22.0646C43.2062 22.3316 42.6676 22.609 42.1353 22.8967L42.5645 23.7053C43.0863 23.4233 43.6143 23.1513 44.1481 22.8896L43.7507 22.0646Z" fill="white"/>
<path d="M40.5534 23.7925C40.0316 24.1017 39.5164 24.421 39.0079 24.7501L39.4988 25.5222C39.9972 25.1996 40.5023 24.8865 41.0138 24.5834L40.5534 23.7925Z" fill="white"/>
<path d="M36.0347 26.8447C36.5162 26.4764 37.005 26.1175 37.501 25.768L38.0214 26.5201C37.5352 26.8627 37.0559 27.2146 36.5839 27.5757L36.0347 26.8447Z" fill="white"/>
<path d="M34.6112 27.9786C34.1439 28.366 33.6843 28.7624 33.2326 29.1677L33.8367 29.8532C34.2795 29.4558 34.7302 29.0671 35.1883 28.6873L34.6112 27.9786Z" fill="white"/>
<path d="M31.9011 30.4102C31.4653 30.8331 31.0377 31.2645 30.6187 31.7041L31.2739 32.34C31.6848 31.9089 32.104 31.4859 32.5312 31.0714L31.9011 30.4102Z" fill="white"/>
<path d="M29.3873 33.0476C28.9856 33.5034 28.5926 33.9671 28.2087 34.4387L28.9111 35.021C29.2875 34.5587 29.6728 34.104 30.0666 33.6571L29.3873 33.0476Z" fill="white"/>
<path d="M27.085 35.875C26.72 36.3607 26.3642 36.854 26.0179 37.3544L26.7632 37.8795C27.1028 37.3889 27.4516 36.9054 27.8094 36.4291L27.085 35.875Z" fill="white"/>
<path d="M25.009 38.8749C24.6828 39.3879 24.3664 39.9078 24.0599 40.4343L24.8438 40.8989C25.1442 40.3827 25.4545 39.8731 25.7742 39.3702L25.009 38.8749Z" fill="white"/>
<path d="M23.1722 42.0304C22.887 42.5675 22.612 43.1109 22.3474 43.6604L23.1651 44.0613C23.4245 43.5227 23.694 42.99 23.9735 42.4635L23.1722 42.0304Z" fill="white"/>
<path d="M20.8927 47.0113C21.1136 46.4424 21.3452 45.879 21.5873 45.3212L22.42 45.6893C22.1827 46.236 21.9557 46.7882 21.7392 47.3458L20.8927 47.0113Z" fill="white"/>
<path d="M20.2648 48.728C20.0671 49.3033 19.8802 49.8837 19.7045 50.469L20.5745 50.735C20.7468 50.1613 20.9299 49.5924 21.1237 49.0285L20.2648 48.728Z" fill="white"/>
<path d="M19.2129 52.231C19.0611 52.8194 18.9205 53.4124 18.7912 54.0096L19.6793 54.2054C19.8061 53.62 19.9439 53.0388 20.0927 52.462L19.2129 52.231Z" fill="white"/>
<path d="M18.4393 55.8041C18.334 56.4029 18.24 57.0056 18.1576 57.612L19.0583 57.7366C19.1391 57.1421 19.2312 56.5513 19.3344 55.9644L18.4393 55.8041Z" fill="white"/>
<path d="M17.9465 59.4309C17.8881 60.0356 17.8413 60.6436 17.8061 61.2548L18.7136 61.308C18.7482 60.7087 18.7941 60.1126 18.8513 59.5198L17.9465 59.4309Z" fill="white"/>
<path d="M17.7273 64C17.7273 63.6932 17.7302 63.3871 17.7361 63.0818L18.645 63.0995C18.6392 63.399 18.6364 63.6991 18.6364 64C18.6364 64.3009 18.6392 64.601 18.645 64.9005L17.7361 64.9182C17.7302 64.6128 17.7273 64.3068 17.7273 64Z" fill="white"/>
<path d="M55 34.464V46.6637H59.9091V34.8309C59.9091 34.1217 60.4789 33.5468 61.1818 33.5468H72.3636V28.5935H60.8182C57.6049 28.5935 55 31.2218 55 34.464Z" fill="white"/>
<path d="M61.2727 35.9317V39.7842H67.6364C67.7368 39.7842 67.8182 39.8663 67.8182 39.9676V41.1601C67.8182 41.3627 67.6554 41.527 67.4545 41.527H61.2727V46.6637H67.2727C70.2852 46.6637 72.7273 44.1996 72.7273 41.1601V35.1978H62C61.5983 35.1978 61.2727 35.5264 61.2727 35.9317Z" fill="white"/>
<path fill-rule="evenodd" clip-rule="evenodd" d="M59.7251 60.3309C59.0446 60.3309 58.5137 60.069 58.1324 59.5452C57.7511 59.0214 57.5604 58.2863 57.5604 57.3399C57.5604 56.3901 57.7527 55.6515 58.1373 55.1242C58.5252 54.5934 59.0611 54.328 59.7448 54.328C60.4614 54.328 61.0071 54.6091 61.3819 55.1713H61.4411C61.3852 54.7557 61.3572 54.4275 61.3572 54.1865V52.0755H62.5209V60.2262H61.6136L61.4115 59.4666H61.3572C60.9858 60.0428 60.4417 60.3309 59.7251 60.3309ZM60.0357 59.3357C60.5124 59.3357 60.8592 59.1942 61.0762 58.9114C61.2931 58.625 61.4049 58.1623 61.4115 57.5233V57.3504C61.4115 56.6205 61.2997 56.102 61.0762 55.7947C60.8526 55.4874 60.5025 55.3337 60.0259 55.3337C59.6183 55.3337 59.3043 55.51 59.0841 55.8628C58.8638 56.212 58.7537 56.7113 58.7537 57.3609C58.7537 58.0034 58.8605 58.4941 59.0742 58.8328C59.2879 59.1681 59.6084 59.3357 60.0357 59.3357Z" fill="white"/>
<path d="M41.5765 56.0723H44.2293V59.9171C43.7954 60.0673 43.3779 60.1738 42.9768 60.2366C42.5791 60.2995 42.1484 60.3309 41.6849 60.3309C40.5936 60.3309 39.752 59.9887 39.1603 59.3042C38.5686 58.6163 38.2727 57.6472 38.2727 56.397C38.2727 55.1643 38.6064 54.2005 39.2737 53.5056C39.941 52.8071 40.8598 52.4579 42.0301 52.4579C42.7829 52.4579 43.4962 52.6116 44.1701 52.9189L43.7559 53.9613C43.1708 53.6749 42.5857 53.5318 42.0005 53.5318C41.2313 53.5318 40.6231 53.7884 40.1761 54.3018C39.729 54.8151 39.5055 55.517 39.5055 56.4075C39.5055 57.3434 39.706 58.0558 40.107 58.5447C40.5114 59.0301 41.0916 59.2728 41.8477 59.2728C42.229 59.2728 42.6366 59.2222 43.0705 59.1209V57.1461H41.5765V56.0723Z" fill="white"/>
<path fill-rule="evenodd" clip-rule="evenodd" d="M50.578 57.319C50.578 58.2653 50.3495 59.0039 49.8926 59.5347C49.4357 60.0655 48.7996 60.3309 47.9843 60.3309C47.4748 60.3309 47.0244 60.2087 46.6332 59.9643C46.2421 59.7198 45.9413 59.3689 45.7309 58.9114C45.5205 58.4539 45.4153 57.9231 45.4153 57.319C45.4153 56.3796 45.6421 55.6462 46.0958 55.1189C46.5494 54.5916 47.1888 54.328 48.0139 54.328C48.8029 54.328 49.4274 54.5986 49.8877 55.1399C50.3479 55.6777 50.578 56.404 50.578 57.319ZM46.6086 57.319C46.6086 58.6565 47.0737 59.3252 48.004 59.3252C48.9245 59.3252 49.3847 58.6565 49.3847 57.319C49.3847 55.9955 48.9212 55.3337 47.9942 55.3337C47.5077 55.3337 47.1543 55.5048 46.934 55.847C46.7171 56.1893 46.6086 56.6799 46.6086 57.319Z" fill="white"/>
<path fill-rule="evenodd" clip-rule="evenodd" d="M55.9651 59.5347C56.4221 59.0039 56.6505 58.2653 56.6505 57.319C56.6505 56.404 56.4204 55.6777 55.9602 55.1399C55.5 54.5986 54.8754 54.328 54.0865 54.328C53.2613 54.328 52.622 54.5916 52.1683 55.1189C51.7147 55.6462 51.4879 56.3796 51.4879 57.319C51.4879 57.9231 51.593 58.4539 51.8034 58.9114C52.0138 59.3689 52.3146 59.7198 52.7058 59.9643C53.097 60.2087 53.5473 60.3309 54.0569 60.3309C54.8721 60.3309 55.5082 60.0655 55.9651 59.5347ZM54.0766 59.3252C53.1463 59.3252 52.6811 58.6565 52.6811 57.319C52.6811 56.6799 52.7896 56.1893 53.0066 55.847C53.2268 55.5048 53.5802 55.3337 54.0667 55.3337C54.9938 55.3337 55.4573 55.9955 55.4573 57.319C55.4573 58.6565 54.997 59.3252 54.0766 59.3252Z" fill="white"/>
<path d="M64.2 60.2262H65.3687V57.0833H68.0856V56.0199H65.3687V53.626H68.268V52.5679H64.2V60.2262Z" fill="white"/>
<path d="M70.5093 60.2262H69.3505V54.4327H70.5093V60.2262Z" fill="white"/>
<path d="M69.2815 52.8979C69.2815 52.6779 69.3373 52.5086 69.4491 52.3898C69.5642 52.2711 69.7269 52.2117 69.9373 52.2117C70.1411 52.2117 70.2989 52.2711 70.4106 52.3898C70.5257 52.5086 70.5832 52.6779 70.5832 52.8979C70.5832 53.1075 70.5257 53.2733 70.4106 53.3956C70.2989 53.5143 70.1411 53.5737 69.9373 53.5737C69.7269 53.5737 69.5642 53.5143 69.4491 53.3956C69.3373 53.2733 69.2815 53.1075 69.2815 52.8979Z" fill="white"/>
<path d="M75.4132 54.3803C75.262 54.3454 75.0697 54.328 74.8363 54.328C74.501 54.328 74.187 54.4292 73.8945 54.6318C73.6052 54.8343 73.3701 55.1085 73.1893 55.4542H73.1302L72.9773 54.4327H72.07V60.2262H73.2288V57.1985C73.2288 56.6852 73.3718 56.2678 73.6578 55.9466C73.947 55.6253 74.3234 55.4646 74.7869 55.4646C74.9645 55.4646 75.1354 55.4856 75.2998 55.5275L75.4132 54.3803Z" fill="white"/>
<path d="M80.9236 60.2262H79.7599V56.6537C79.7599 56.2102 79.681 55.8802 79.5232 55.6637C79.3654 55.4437 79.1189 55.3337 78.7836 55.3337C78.3365 55.3337 78.0078 55.4891 77.7974 55.7999C77.5903 56.1072 77.4867 56.6205 77.4867 57.3399V60.2262H76.328V54.4327H77.2353L77.398 55.1923H77.4572C77.6084 54.9164 77.827 54.7034 78.113 54.5532C78.4023 54.403 78.7195 54.328 79.0646 54.328C79.9029 54.328 80.4585 54.6318 80.7313 55.2394H80.8102C80.9713 54.9531 81.1981 54.7296 81.4907 54.5689C81.7832 54.4083 82.1185 54.328 82.4966 54.328C83.1475 54.328 83.6208 54.5026 83.9167 54.8518C84.2158 55.201 84.3654 55.7335 84.3654 56.4494V60.2262H83.2066V56.6537C83.2066 56.2102 83.1261 55.8802 82.965 55.6637C82.8072 55.4437 82.5607 55.3337 82.2254 55.3337C81.775 55.3337 81.4446 55.4839 81.2343 55.7842C81.0272 56.081 80.9236 56.5385 80.9236 57.1566V60.2262Z" fill="white"/>
<path d="M88.9636 59.8805C89.3515 59.5766 89.5455 59.1419 89.5455 58.5761C89.5455 58.2968 89.4962 58.0576 89.3975 57.8585C89.2989 57.656 89.1477 57.4779 88.9439 57.3242C88.7401 57.1706 88.413 57.0012 87.9626 56.8161C87.4268 56.5961 87.0783 56.4232 86.9173 56.2975C86.7595 56.1718 86.6806 56.0182 86.6806 55.8366C86.6806 55.4664 86.9863 55.2813 87.5977 55.2813C87.9988 55.2813 88.4935 55.4105 89.0819 55.6689L89.4567 54.7418C88.8847 54.4659 88.2782 54.328 87.6372 54.328C86.9896 54.328 86.4768 54.4659 86.0987 54.7418C85.724 55.0142 85.5366 55.3983 85.5366 55.8942C85.5366 56.3063 85.6467 56.6415 85.867 56.8999C86.0905 57.1583 86.5162 57.4168 87.1441 57.6752C87.4662 57.8079 87.7177 57.9266 87.8985 58.0314C88.0793 58.1361 88.2092 58.2374 88.2881 58.3352C88.367 58.433 88.4064 58.5552 88.4064 58.7019C88.4064 59.1593 88.0497 59.3881 87.3364 59.3881C86.7841 59.3881 86.1875 59.2309 85.5465 58.9166V59.98C85.987 60.2139 86.5705 60.3309 87.297 60.3309C88.0202 60.3309 88.5757 60.1808 88.9636 59.8805Z" fill="white"/>
<path d="M33.2442 74.9326C33.502 74.9326 33.734 74.8744 33.9402 74.7581C34.1464 74.638 34.3084 74.4729 34.4263 74.2627C34.5441 74.0489 34.603 73.8105 34.603 73.5479C34.603 73.2853 34.5441 73.0489 34.4263 72.8387C34.3084 72.6248 34.1464 72.4597 33.9402 72.3434C33.734 72.2233 33.502 72.1632 33.2442 72.1632C32.9865 72.1632 32.7545 72.2233 32.5483 72.3434C32.342 72.4597 32.18 72.6248 32.0622 72.8387C31.9443 73.0489 31.8854 73.2853 31.8854 73.5479C31.8854 73.8105 31.9443 74.0489 32.0622 74.2627C32.18 74.4729 32.342 74.638 32.5483 74.7581C32.7545 74.8744 32.9865 74.9326 33.2442 74.9326Z" fill="white"/>
<path d="M38.3027 73.5592C38.1407 73.6943 37.9032 73.7618 37.5902 73.7618H36.7506V72.197H37.5902C37.9032 72.197 38.1407 72.2645 38.3027 72.3996C38.4648 72.5348 38.5458 72.728 38.5458 72.9794C38.5458 73.2308 38.4648 73.4241 38.3027 73.5592Z" fill="white"/>
<path d="M52 72.152V73.2383H53.0164C53.2668 73.2383 53.4583 73.1933 53.5908 73.1032C53.7271 73.0095 53.7952 72.8744 53.7952 72.698C53.7952 72.5179 53.7271 72.3828 53.5908 72.2927C53.4583 72.1989 53.2668 72.152 53.0164 72.152H52Z" fill="white"/>
<path d="M53.16 74.9439C53.716 74.9439 53.9941 74.7543 53.9941 74.3753C53.9941 73.9963 53.716 73.8069 53.16 73.8069H52V74.9439H53.16Z" fill="white"/>
<path d="M59.3028 74.7356C59.0893 74.8443 58.8407 74.8988 58.5572 74.8988H57.6181V72.197H58.5572C58.8407 72.197 59.0893 72.2533 59.3028 72.3658C59.5201 72.4747 59.6858 72.6323 59.8 72.8387C59.9178 73.0413 59.9767 73.2777 59.9767 73.5479C59.9767 73.8181 59.9178 74.0563 59.8 74.2627C59.6858 74.4653 59.5201 74.623 59.3028 74.7356Z" fill="white"/>
<path d="M77.52 74.9326C77.7777 74.9326 78.0097 74.8744 78.216 74.7581C78.4222 74.638 78.5842 74.4729 78.702 74.2627C78.8199 74.0489 78.8788 73.8105 78.8788 73.5479C78.8788 73.2853 78.8199 73.0489 78.702 72.8387C78.5842 72.6248 78.4222 72.4597 78.216 72.3434C78.0097 72.2233 77.7777 72.1632 77.52 72.1632C77.2622 72.1632 77.0302 72.2233 76.824 72.3434C76.6178 72.4597 76.4558 72.6248 76.3379 72.8387C76.2201 73.0489 76.1612 73.2853 76.1612 73.5479C76.1612 73.8105 76.2201 74.0489 76.3379 74.2627C76.4558 74.4729 76.6178 74.638 76.824 74.7581C77.0302 74.8744 77.2622 74.9326 77.52 74.9326Z" fill="white"/>
<path d="M82.5785 73.5592C82.4165 73.6943 82.1789 73.7618 81.8659 73.7618H81.0263V72.197H81.8659C82.1789 72.197 82.4165 72.2645 82.5785 72.3996C82.7405 72.5348 82.8215 72.728 82.8215 72.9794C82.8215 73.2308 82.7405 73.4241 82.5785 73.5592Z" fill="white"/>
<path d="M56.8596 82.263C56.6534 82.3793 56.4214 82.4375 56.1636 82.4375C55.9059 82.4375 55.6739 82.3793 55.4676 82.263C55.2614 82.1429 55.0994 81.9778 54.9816 81.7676C54.8637 81.5537 54.8048 81.3155 54.8048 81.0528C54.8048 80.7902 54.8637 80.5537 54.9816 80.3436C55.0994 80.1297 55.2614 79.9646 55.4676 79.8483C55.6739 79.7282 55.9059 79.6681 56.1636 79.6681C56.4214 79.6681 56.6534 79.7282 56.8596 79.8483C57.0658 79.9646 57.2278 80.1297 57.3457 80.3436C57.4635 80.5537 57.5224 80.7902 57.5224 81.0528C57.5224 81.3155 57.4635 81.5537 57.3457 81.7676C57.2278 81.9778 57.0658 82.1429 56.8596 82.263Z" fill="white"/>
<path d="M66.4423 81.0641C66.2803 81.1992 66.0428 81.2667 65.7298 81.2667H64.8902V79.7019H65.7298C66.0428 79.7019 66.2803 79.7695 66.4423 79.9045C66.6044 80.0396 66.6854 80.2329 66.6854 80.4843C66.6854 80.7357 66.6044 80.929 66.4423 81.0641Z" fill="white"/>
<path d="M70.1468 81.5369L69.4177 79.8145L68.6941 81.5369H70.1468Z" fill="white"/>
<path fill-rule="evenodd" clip-rule="evenodd" d="M114.382 66.7518C114.43 65.8407 114.455 64.9232 114.455 64C114.455 35.8335 91.8246 13 63.9091 13C35.9936 13 13.3636 35.8335 13.3636 64C13.3636 64.9232 13.3879 65.8407 13.436 66.7518H11.5455V73.723H5L9.36364 84.7302L5.09091 94.545H18.1818L18.2727 94.6367V87.8489H19.2192C27.7022 103.999 44.5324 115 63.9091 115C83.2858 115 100.116 103.999 108.599 87.8489H109.818V94.545H122.909L118.636 84.7302L123 73.723H116.273V66.7518H114.382ZM105.277 87.8489C97.0668 102.317 81.6162 112.065 63.9091 112.065C46.202 112.065 30.7513 102.317 22.541 87.8489H24.2261C24.4805 88.2788 24.7415 88.7043 25.009 89.1251L25.7742 88.6298C25.6098 88.3713 25.448 88.111 25.2887 87.8489H102.53C102.37 88.111 102.208 88.3713 102.044 88.6298L102.809 89.1251C103.077 88.7043 103.338 88.2788 103.592 87.8489H105.277ZM111.469 66.7518C111.52 65.8411 111.545 64.9236 111.545 64C111.545 37.4546 90.2179 15.9353 63.9091 15.9353C37.6003 15.9353 16.2727 37.4546 16.2727 64C16.2727 64.9236 16.2985 65.8411 16.3495 66.7518H17.8065L17.8061 66.7452L18.7136 66.692L18.7171 66.7518H109.101C109.102 66.7319 109.103 66.7119 109.105 66.692L110.012 66.7452L110.012 66.7518H111.469ZM33.2442 75.5742C32.8502 75.5742 32.4949 75.4879 32.1782 75.3153C31.8615 75.139 31.6129 74.8969 31.4325 74.5892C31.252 74.2778 31.1618 73.9307 31.1618 73.5479C31.1618 73.1651 31.252 72.8199 31.4325 72.5122C31.6129 72.2008 31.8615 71.9587 32.1782 71.7861C32.4949 71.6097 32.8502 71.5216 33.2442 71.5216C33.6383 71.5216 33.9936 71.6097 34.3103 71.7861C34.627 71.9587 34.8755 72.1989 35.056 72.5066C35.2364 72.8143 35.3266 73.1614 35.3266 73.5479C35.3266 73.9344 35.2364 74.2815 35.056 74.5892C34.8755 74.8969 34.627 75.139 34.3103 75.3153C33.9936 75.4879 33.6383 75.5742 33.2442 75.5742ZM29.0087 72.197H27.7273V71.5778H31.0083V72.197H29.7268V75.518H29.0087V72.197ZM38.4961 71.7467C38.2493 71.6342 37.9584 71.5778 37.6233 71.5778H36.0325V75.518H36.7506V74.381H37.6233C37.9584 74.381 38.2493 74.3247 38.4961 74.2121C38.7464 74.0995 38.9379 73.9382 39.0705 73.728C39.2031 73.5141 39.2694 73.2646 39.2694 72.9794C39.2694 72.6905 39.2031 72.4409 39.0705 72.2308C38.9379 72.0206 38.7464 71.8593 38.4961 71.7467ZM45.8256 75.518H45.0633L44.1078 72.6023L43.1356 75.518H42.3678L41.0864 71.5778H41.8321L42.7931 74.5723L43.7929 71.5778H44.4558L45.4334 74.5892L46.4222 71.5778H47.1071L45.8256 75.518ZM50.5367 75.518V74.9044H48.3549V73.8181H50.2219V73.2158H48.3549V72.1914H50.4594V71.5778H47.6368V75.518H50.5367ZM54.0217 73.4691C54.2353 73.5404 54.4047 73.6605 54.5299 73.8293C54.6551 73.9944 54.7177 74.2008 54.7177 74.4485C54.7177 74.79 54.5888 75.0545 54.331 75.2422C54.0732 75.426 53.6976 75.518 53.2042 75.518H51.282V71.5778H53.0937C53.5503 71.5778 53.902 71.6698 54.1487 71.8536C54.3954 72.0338 54.5188 72.2833 54.5188 72.6023C54.5188 72.7974 54.4746 72.97 54.3862 73.1202C54.2979 73.2702 54.1763 73.3866 54.0217 73.4691ZM58.5903 71.5778H56.9001V75.518H58.5903C59.0027 75.518 59.3691 75.4373 59.6895 75.2759C60.0099 75.1108 60.2584 74.88 60.4352 74.5836C60.6119 74.2834 60.7003 73.9382 60.7003 73.5479C60.7003 73.1576 60.6119 72.8143 60.4352 72.5179C60.2584 72.2177 60.0099 71.9868 59.6895 71.8255C59.3691 71.6604 59.0027 71.5778 58.5903 71.5778ZM64.3082 74.9044V75.518H61.4083V71.5778H64.2308V72.1914H62.1264V73.2158H63.9933V73.8181H62.1264V74.9044H64.3082ZM66.1429 75.518H66.8499L68.5346 71.5778H67.8165L66.5185 74.6174L65.2315 71.5778H64.4527L66.1429 75.518ZM71.7873 74.9044V75.518H68.8874V71.5778H71.7099V72.1914H69.6054V73.2158H71.4724V73.8181H69.6054V74.9044H71.7873ZM73.2506 71.5778H72.5325V75.518H75.2722V74.8988H73.2506V71.5778ZM77.52 75.5742C77.126 75.5742 76.7706 75.4879 76.4539 75.3153C76.1372 75.139 75.8887 74.8969 75.7082 74.5892C75.5278 74.2778 75.4376 73.9307 75.4376 73.5479C75.4376 73.1651 75.5278 72.8199 75.7082 72.5122C75.8887 72.2008 76.1372 71.9587 76.4539 71.7861C76.7706 71.6097 77.126 71.5216 77.52 71.5216C77.914 71.5216 78.2694 71.6097 78.586 71.7861C78.9027 71.9587 79.1513 72.1989 79.3317 72.5066C79.5122 72.8143 79.6024 73.1614 79.6024 73.5479C79.6024 73.9344 79.5122 74.2815 79.3317 74.5892C79.1513 74.8969 78.9027 75.139 78.586 75.3153C78.2694 75.4879 77.914 75.5742 77.52 75.5742ZM82.7718 71.7467C82.5251 71.6342 82.2342 71.5778 81.8991 71.5778H80.3083V75.518H81.0263V74.381H81.8991C82.2342 74.381 82.5251 74.3247 82.7718 74.2121C83.0222 74.0995 83.2137 73.9382 83.3463 73.728C83.4788 73.5141 83.5451 73.2646 83.5451 72.9794C83.5451 72.6905 83.4788 72.4409 83.3463 72.2308C83.2137 72.0206 83.0222 71.8593 82.7718 71.7467ZM87.7531 72.9063L86.4827 75.0677H86.1623L84.8919 72.94V75.518H84.2069V71.5778H84.798L86.3335 74.1895L87.8415 71.5778H88.4325L88.438 75.518H87.7586L87.7531 72.9063ZM92.3271 75.518V74.9044H90.1452V73.8181H92.0122V73.2158H90.1452V72.1914H92.2497V71.5778H89.4272V75.518H92.3271ZM96.508 75.518H95.917L93.7849 72.8499V75.518H93.0723V71.5778H93.6634L95.7955 74.2459V71.5778H96.508V75.518ZM96.9917 72.197H98.2732V75.518H98.9913V72.197H100.273V71.5778H96.9917V72.197ZM52.27 83.0791C51.8796 83.0791 51.5261 82.9928 51.2094 82.8203C50.8964 82.6439 50.6497 82.4018 50.4693 82.0941C50.2925 81.7865 50.2041 81.4393 50.2041 81.0528C50.2041 80.6663 50.2943 80.3192 50.4748 80.0115C50.6552 79.7038 50.9019 79.4636 51.2149 79.291C51.5316 79.1146 51.8851 79.0265 52.2755 79.0265C52.5922 79.0265 52.8812 79.0828 53.1427 79.1954C53.4041 79.308 53.6251 79.4712 53.8055 79.6851L53.3415 80.1297C53.0617 79.822 52.7174 79.6681 52.3086 79.6681C52.0435 79.6681 51.806 79.7282 51.5961 79.8483C51.3862 79.9646 51.2223 80.1278 51.1045 80.338C50.9866 80.5481 50.9277 80.7864 50.9277 81.0528C50.9277 81.3192 50.9866 81.5575 51.1045 81.7676C51.2223 81.9778 51.3862 82.1429 51.5961 82.263C51.806 82.3793 52.0435 82.4375 52.3086 82.4375C52.7174 82.4375 53.0617 82.2817 53.3415 81.9703L53.8055 82.4206C53.6251 82.6345 53.4023 82.7977 53.1371 82.9103C52.8757 83.0229 52.5866 83.0791 52.27 83.0791ZM55.0975 82.8203C55.4142 82.9928 55.7696 83.0791 56.1636 83.0791C56.5576 83.0791 56.913 82.9928 57.2297 82.8203C57.5463 82.6439 57.7949 82.4018 57.9753 82.0941C58.1558 81.7865 58.246 81.4393 58.246 81.0528C58.246 80.6663 58.1558 80.3192 57.9753 80.0115C57.7949 79.7038 57.5463 79.4636 57.2297 79.291C56.913 79.1146 56.5576 79.0265 56.1636 79.0265C55.7696 79.0265 55.4142 79.1146 55.0975 79.291C54.7809 79.4636 54.5323 79.7057 54.3519 80.0171C54.1714 80.3248 54.0812 80.6701 54.0812 81.0528C54.0812 81.4356 54.1714 81.7827 54.3519 82.0941C54.5323 82.4018 54.7809 82.6439 55.0975 82.8203ZM62.5036 83.0229L62.4981 80.4112L61.2276 82.5726H60.9073L59.6368 80.445V83.0229H58.9519V79.0828H59.5429L61.0785 81.6945L62.5864 79.0828H63.1775L63.183 83.0229H62.5036ZM66.6357 79.2516C66.3889 79.1391 66.098 79.0828 65.7629 79.0828H64.1721V83.0229H64.8902V81.8859H65.7629C66.098 81.8859 66.3889 81.8295 66.6357 81.717C66.8861 81.6044 67.0775 81.4431 67.2101 81.233C67.3427 81.0191 67.409 80.7695 67.409 80.4843C67.409 80.1954 67.3427 79.9458 67.2101 79.7357C67.0775 79.5255 66.8861 79.3642 66.6357 79.2516ZM68.4511 82.111L68.0699 83.0229H67.3298L69.0697 79.0828H69.7767L71.5222 83.0229H70.771L70.3843 82.111H68.4511ZM74.8033 83.0229H75.3944V79.0828H74.6818V81.7508L72.5497 79.0828H71.9587V83.0229H72.6712V80.3548L74.8033 83.0229ZM78.0433 81.6326V83.0229H77.3253V81.6438L75.8063 79.0828H76.574L77.7064 81.0021L78.8498 79.0828H79.5568L78.0433 81.6326Z" fill="white"/>
</svg>
