<svg width="64" height="65" viewBox="0 0 64 65" fill="none" xmlns="http://www.w3.org/2000/svg">
<path fill-rule="evenodd" clip-rule="evenodd" d="M45.8033 26.1515C45.8031 25.6132 45.688 25.1376 45.4553 24.7293C45.2267 24.3279 44.8844 23.9914 44.4252 23.7254C42.8016 22.7889 41.1774 21.8535 39.5532 20.9182L39.5528 20.918L39.5523 20.9177L39.5505 20.9166C37.3836 19.6689 35.2168 18.4211 33.0516 17.1704C32.0301 16.5804 31.0396 16.6019 30.0257 17.2004C29.1164 17.7368 26.0117 19.5225 23.1953 21.1422L23.1952 21.1423L23.1944 21.1427C21.338 22.2104 19.6069 23.206 18.7127 23.7242C17.7857 24.261 17.3347 25.0826 17.3345 26.1505C17.3337 28.3491 17.3337 30.5476 17.3337 32.7462C17.3337 34.9448 17.3337 37.1434 17.333 39.342C17.333 39.8685 17.4434 40.3349 17.6659 40.737C17.8946 41.1506 18.2417 41.4963 18.7115 41.7683C19.6026 42.2847 21.3248 43.275 23.1741 44.3385L23.1758 44.3394C25.9974 45.962 29.1142 47.7542 30.0252 48.292C30.3324 48.4733 30.6374 48.6017 30.9417 48.6762C31.6425 48.8479 32.3398 48.7337 33.0524 48.3221C35.2485 47.0536 37.4462 45.7881 39.644 44.5226L39.6449 44.5221C41.2391 43.6042 42.8333 42.6862 44.4269 41.7671C44.8967 41.4952 45.2438 41.1492 45.4725 40.736L45.4721 40.7357C45.6942 40.3337 45.8048 39.8673 45.8048 39.3408C45.8048 39.3408 45.8048 30.5488 45.8033 26.1515ZM39.8214 29.7002V31.2018H41.3224V29.7002H42.0729V31.2018H43.5738V31.9526H42.0729V33.4542H43.5738V34.205H42.0729V35.7066H41.3224V34.205H39.8214V35.7066H39.071V34.205H37.57V33.4542H39.071V31.9526H37.57V31.2018H39.071V29.7002H39.8214ZM41.3224 31.9526H39.8214V33.4542H41.3224V31.9526ZM40.8065 27.4475C38.9757 24.2857 35.5576 22.1586 31.6426 22.1586C25.7977 22.1586 21.0596 26.8989 21.0596 32.7461C21.0596 34.6644 21.5697 36.4633 22.4612 38.015C24.2874 41.1934 27.7153 43.3336 31.6426 43.3336L31.7605 43.333C35.63 43.2907 39.0013 41.1702 40.812 38.0352L36.2128 35.3696C36.2201 35.3568 36.2274 35.344 36.2347 35.3311L36.2127 35.3696L36.2128 35.3696C35.3033 36.9519 33.5978 38.0182 31.6426 38.0182C29.6837 38.0182 27.9761 36.9482 27.0677 35.3617C26.6265 34.5908 26.3727 33.6982 26.3727 32.7461C26.3727 29.8344 28.7322 27.474 31.6426 27.474L31.7027 27.4744C33.6112 27.4957 35.2749 28.5332 36.1825 30.0704L40.7887 27.417L40.8065 27.4475Z" fill="#202020"/>
</svg>
