<svg width="126" height="56" viewBox="0 0 126 56" fill="none" xmlns="http://www.w3.org/2000/svg">
<path d="M32.8617 -0.000244141C28.1617 -0.000244141 24.3563 3.80723 24.3563 8.50999C24.3563 8.62081 24.3569 8.72674 24.3692 8.83756C23.4495 8.69857 22.517 8.62694 21.5722 8.62694C18.8004 8.62694 16.1792 9.238 13.8231 10.3267C12.4999 9.61579 10.987 9.20923 9.37418 9.20923C4.1956 9.20923 3.60771e-08 13.4132 3.60771e-08 18.5877C-0.000238757 21.3356 1.18497 23.7952 3.06244 25.5103C3.01204 26.0711 2.98706 26.6375 2.98706 27.2149C2.98706 37.4799 11.3032 45.7961 21.5725 45.7961C25.5659 45.7961 29.2568 44.536 32.2809 42.3985C35.0025 46.1298 39.4006 48.5612 44.3773 48.5612C44.5035 48.5612 44.6167 48.5514 44.73 48.5459C46.1664 52.6041 50.0226 55.5174 54.5714 55.5174C59.1703 55.5174 63.0749 52.5319 64.4648 48.3903C66.0383 51.3826 69.1733 53.4246 72.7919 53.4246C77.3167 53.4246 81.0946 50.2272 82.0008 45.9742C82.6559 46.063 83.3111 46.1298 83.9907 46.1298C87.6706 46.1298 91.0259 44.7307 93.5669 42.4493C96.4692 44.4196 99.9715 45.5689 103.737 45.5689C113.73 45.5689 121.843 37.4573 121.843 27.4586C121.843 26.2205 121.72 25.0161 121.481 23.8448C124.114 22.8676 126 20.3358 126 17.3545C126 13.5296 122.902 10.4258 119.069 10.4258C117.091 10.4258 115.316 11.2586 114.054 12.5854C111.121 10.5477 107.57 9.34822 103.737 9.34822C99.8552 9.34822 96.2672 10.5759 93.3282 12.6521C91.9934 11.4257 90.23 10.6695 88.2768 10.6695C86.8256 10.6695 85.4786 11.092 84.3458 11.8084C81.6212 6.98355 76.4718 3.7133 70.5387 3.7133C65.1199 3.71318 60.3422 6.43371 57.4816 10.5752C55.1004 8.12118 51.7616 6.59536 48.0572 6.59536C45.6129 6.59536 43.3321 7.27194 41.3795 8.43223C41.3287 3.76859 37.5356 -0.000244141 32.8614 -0.000244141H32.8617Z" fill="#00AFF0"/>
<path d="M33.0753 5.70679C31.0847 5.70679 29.775 6.83891 29.775 9.00949V29.6412C28.7035 26.4984 25.0242 25.2487 21.8618 24.5213L19.1015 23.8888C17.0602 23.4393 15.5735 23.0787 15.5735 21.5351C15.5735 20.136 17.0614 19.5035 19.3667 19.5035C23.5376 19.5035 23.6258 22.5338 26.2084 22.5338C27.9222 22.5338 28.9674 21.1739 28.9674 19.6364C28.9674 16.6105 23.8903 14.6168 18.8756 14.6168C14.3018 14.6168 8.97119 16.6099 8.97119 21.9894C8.97119 26.4255 11.9579 28.0089 15.8007 28.9579L19.6949 29.9076C22.0381 30.496 23.4868 30.7685 23.4868 32.4394C23.4868 33.7938 22.0007 34.8371 19.6446 34.8371C14.7555 34.8371 14.4898 30.7672 11.6298 30.7672C9.77758 30.7672 8.97119 32.0788 8.97119 33.5275C8.97119 36.7812 13.9491 39.4508 19.9085 39.4508C24.1676 39.4508 28.5902 37.6182 29.775 33.7154V36.1474C29.775 38.3186 31.0847 39.4508 33.0753 39.4508C35.0664 39.4508 36.3773 38.3186 36.3773 36.1474V31.1285L38.6826 29.0908L44.9323 37.9127C45.4239 38.6346 46.2805 39.4508 47.9184 39.4508C49.6824 39.4508 51.0301 37.9127 51.0301 36.2362C51.0301 35.1537 50.5764 34.4263 50.3498 34.1097L43.483 24.8825L48.3599 19.7748C48.5613 19.5531 48.737 19.3756 48.8883 19.176C49.0273 19.6199 49.2159 20.1526 49.4553 20.8634L56.335 40.4445C55.8311 42.4822 54.8863 42.5263 54.0297 42.5263H53.3488C51.5848 42.5263 50.3125 43.4313 50.3125 45.1971C50.3125 46.7793 51.5352 48.2224 54.4712 48.2224C58.6415 48.2224 60.4434 45.8749 62.0342 41.3501L69.4551 20.313V44.9253C69.4551 47.0964 70.7654 48.2224 72.7554 48.2224C74.7453 48.2224 76.0556 47.0964 76.0556 44.9253V36.1034H76.1414C77.3659 38.2299 79.6314 39.4508 82.6561 39.4508C88.3137 39.4508 91.5037 35.5364 92.4956 30.673C93.6039 35.3141 97.3205 39.4508 104.833 39.4508C108.801 39.4508 115.193 37.5967 115.193 33.6162C115.193 32.3947 114.054 31.0342 112.469 31.0342C109.811 31.0342 109.811 34.2928 104.833 34.2928C100.976 34.2928 98.7227 31.7616 98.7227 28.2752H113.656C115.873 28.2752 116.553 27.6917 116.553 25.4268C116.553 19.997 112.205 14.6168 104.607 14.6168C98.1165 14.6168 93.8182 18.1651 92.5385 23.7498C91.3996 17.565 87.1932 14.6168 82.4786 14.6168C79.2702 14.6168 76.5945 15.9774 75.5107 18.7749H75.425V17.7371C75.425 15.7049 74.378 14.6168 72.437 14.6168C71.0165 14.6168 70.1348 15.1612 69.7184 16.1825C69.2531 15.3883 68.3408 14.6168 66.7794 14.6168C64.967 14.6168 64.0731 15.8837 63.62 17.5601L59.5868 32.5276H59.4981L55.2396 17.1046C54.8367 15.6112 53.6133 14.6168 51.8493 14.6168C50.6149 14.6168 49.5447 15.2891 49.015 16.3166C48.4609 15.3063 47.3141 14.6168 46.2432 14.6168C45.2476 14.6168 44.391 15.1618 43.7101 15.8837L36.3773 24.0278V9.00949C36.3773 6.83891 35.0664 5.70679 33.0753 5.70679V5.70679ZM114.712 15.0895V15.8561H115.961V19.2476H116.88V15.8561H118.129V15.0895H114.712V15.0895ZM118.606 15.0895V19.2476H119.463V16.327L120.498 19.2476H121.19L122.213 16.2994H122.225V19.2476H123.082V15.0895H121.796L120.878 17.9489H120.866L119.892 15.0895H118.606V15.0895ZM104.738 19.2311C107.683 19.2311 109.936 21.4457 110.304 24.4772H98.7251C99.4415 21.2682 101.431 19.2311 104.738 19.2311ZM80.9809 19.7748C84.5138 19.8195 86.2405 23.0781 86.2405 26.9643C86.2405 30.0405 85.1935 34.2487 80.9809 34.2928C76.9643 34.2928 75.6907 30.357 75.6907 26.9643C75.6907 23.2116 77.1418 19.7252 80.9809 19.7748Z" fill="white"/>
</svg>
