<svg width="225" height="27" viewBox="0 0 225 27" fill="none" xmlns="http://www.w3.org/2000/svg">
<path d="M29.0888 25.7773H37.3054L41.7093 0.561279H33.4927L31.8694 9.58954H24.745L26.3683 0.561279H18.1517L13.7478 25.7773H21.9644L23.6228 16.3432H30.7472L29.0888 25.7773Z" fill="black"/>
<path d="M46.3688 0.531037L43.8687 14.5594C43.6483 15.6516 43.5581 16.7138 43.5581 17.7158C43.5581 25.1508 50.0562 26.2781 53.9641 26.2781C62.1507 26.2781 65.6828 23.5576 66.9604 16.2178L69.711 0.500977H61.4944L59.1496 13.6876C58.3981 17.811 57.867 19.9703 54.8058 19.9703C52.8068 19.9703 51.8399 18.9082 51.8399 16.7188C51.8399 15.8771 51.9651 14.845 52.2156 13.5624L54.5854 0.500977H46.3688V0.531037V0.531037Z" fill="black"/>
<path d="M113.139 25.7771H121.355L122.513 19.2789H126.385C133.54 19.2789 137.508 15.4061 137.508 8.3418C137.508 3.37175 134.071 0.531006 128.039 0.531006H117.543L113.139 25.7771ZM125.95 13.0613H123.575L124.667 7.12434H126.886C128.7 7.12434 129.667 8.03117 129.667 9.68452C129.667 11.7788 128.264 13.0613 125.95 13.0613Z" fill="black"/>
<path d="M153.48 0C144.542 0 139.201 5.78169 139.201 15.4963C139.201 22.245 143.45 26.3082 150.574 26.3082C159.512 26.3082 164.853 20.5265 164.853 10.8119C164.883 4.03316 160.635 0 153.48 0ZM151.07 19.78C148.946 19.78 147.694 18.2469 147.694 15.6867C147.694 14.7198 147.789 13.8731 147.974 12.9061C148.6 9.5944 149.663 6.56327 153.004 6.56327C155.129 6.56327 156.381 8.09637 156.381 10.6566C156.381 11.6235 156.286 12.4702 156.101 13.4372C155.479 16.7188 154.417 19.78 151.07 19.78Z" fill="black"/>
<path d="M193.441 25.7773H201.658L204.909 7.30993H211.097L212.284 0.561279H191.257L190.069 7.30993H196.633L193.441 25.7773Z" fill="black"/>
<path d="M179.819 9.87497C177.223 9.06333 176.161 8.71763 176.161 7.50017C176.161 6.68853 176.692 5.72157 178.255 5.72157C179.413 5.72157 180.38 6.3779 180.756 7.34485L188.005 5.37587C187.163 1.81367 184.097 0 178.817 0C168.882 0 168.1 6.65345 168.1 8.68757C168.1 12.8109 170.289 15.341 175.039 16.6537C176.286 16.9994 177.724 17.3701 177.724 18.7479C177.724 19.8401 176.913 20.5265 175.505 20.5265C174.222 20.5265 172.85 19.775 172.379 18.4623L165.224 20.4013C166.006 24.1488 169.538 26.2731 175.064 26.2731C179.283 26.2731 186.342 25.1459 186.342 17.5254C186.382 13.7177 184.223 11.2177 179.819 9.87497Z" fill="black"/>
<path d="M9.15351 25.7773L13.5925 0.561279H0V25.7773H9.15351Z" fill="#0DBE98"/>
<path d="M215.811 0.561279L211.407 25.7773H225V0.561279H215.811Z" fill="#0DBE98"/>
<path d="M74.3956 0.531006L69.9917 25.7771H78.2083L79.521 18.342H86.4249L87.5522 11.9992H80.6432L81.4248 7.30971H91.0793L92.2667 0.531006H74.3956Z" fill="black"/>
<path d="M95.954 0.531006L91.55 25.7771H99.7667L101.049 18.342H107.983L109.111 11.9992H102.207L102.983 7.30971H112.643L113.83 0.531006H95.954Z" fill="black"/>
</svg>
