<svg width="202" height="54" viewBox="0 0 202 54" fill="none" xmlns="http://www.w3.org/2000/svg">
<path d="M60.2492 37.5454C61.6496 37.5454 62.8428 37.2307 63.8288 36.6015C64.7941 35.9979 65.563 35.1241 66.041 34.0875C66.5232 33.0233 66.7727 31.8676 66.7727 30.6982C66.7727 29.5289 66.5232 28.3732 66.041 27.309C65.5615 26.2742 64.7929 25.4019 63.8288 24.7981C62.8428 24.1751 61.6496 23.8636 60.2492 23.8636H57.8246C57.7342 23.864 57.6477 23.9002 57.5839 23.9644C57.52 24.0286 57.4839 24.1155 57.4835 24.2063V37.2027C57.4835 37.2936 57.5194 37.3807 57.5834 37.445C57.6474 37.5093 57.7341 37.5454 57.8246 37.5454H60.2492ZM52.3242 19.8544C52.3242 19.8093 52.3331 19.7646 52.3503 19.7229C52.3676 19.6812 52.3928 19.6434 52.4247 19.6115C52.4565 19.5797 52.4943 19.5545 52.5358 19.5374C52.5774 19.5202 52.6219 19.5115 52.6668 19.5117H60.7282C63.0392 19.5117 65.0545 20.0179 66.7743 21.0304C68.4407 21.9881 69.8077 23.3945 70.7212 25.091C71.6205 26.8264 72.0901 28.7541 72.0901 30.7107C72.0901 32.6673 71.6205 34.595 70.7212 36.3304C69.8135 38.0316 68.4451 39.4399 66.7743 40.3926C65.0566 41.3936 63.0412 41.8941 60.7282 41.8941H52.6668C52.6219 41.8943 52.5774 41.8856 52.5358 41.8685C52.4943 41.8513 52.4565 41.8261 52.4247 41.7943C52.3928 41.7625 52.3676 41.7246 52.3503 41.6829C52.3331 41.6413 52.3242 41.5966 52.3242 41.5514V19.8544Z" fill="#10363D"/>
<path d="M93.9272 40.4389C92.4534 39.1108 91.6783 37.2739 91.6018 34.9282C91.6001 34.8819 91.6078 34.8358 91.6242 34.7926C91.6407 34.7494 91.6657 34.71 91.6976 34.6767C91.7296 34.6434 91.768 34.6169 91.8104 34.5988C91.8528 34.5807 91.8983 34.5714 91.9444 34.5715H96.4262C96.5135 34.5713 96.5976 34.6049 96.661 34.6651C96.7245 34.7254 96.7625 34.8079 96.7673 34.8955C96.82 35.9556 97.1409 36.7962 97.73 37.4172C98.377 38.0994 99.2627 38.4405 100.387 38.4405C101.341 38.4405 102.078 38.2271 102.599 37.8003C103.12 37.3736 103.379 36.7661 103.375 35.978C103.375 35.2958 103.179 34.747 102.787 34.3316C102.395 33.9163 101.69 33.5061 100.671 33.1011L96.6603 31.5342C95.1752 30.9797 94.0507 30.1859 93.2869 29.1527C92.5232 28.1195 92.1413 26.8776 92.1413 25.4269C92.117 24.2096 92.4549 23.0126 93.1117 21.9894C93.7936 20.9691 94.7554 20.1694 95.8805 19.6873C97.0794 19.1432 98.4746 18.8711 100.066 18.8711C101.681 18.8711 103.103 19.1644 104.333 19.7511C105.503 20.2862 106.496 21.146 107.196 22.2292C107.829 23.2443 108.178 24.4118 108.207 25.6092C108.209 25.6557 108.202 25.7021 108.186 25.7458C108.17 25.7895 108.145 25.8294 108.113 25.8632C108.081 25.8969 108.043 25.9239 108 25.9423C107.958 25.9608 107.912 25.9704 107.866 25.9705H103.393C103.306 25.9703 103.222 25.9366 103.159 25.8764C103.095 25.8162 103.057 25.734 103.052 25.6466C103.002 24.7587 102.74 24.0672 102.266 23.5719C101.736 23.0174 100.972 22.7406 99.9748 22.7417C99.1469 22.7417 98.4958 22.9379 98.0168 23.332C97.7813 23.5272 97.5941 23.7747 97.4701 24.055C97.346 24.3353 97.2885 24.6408 97.3021 24.9472C97.2989 25.2459 97.3596 25.5419 97.4803 25.8149C97.6009 26.088 97.7786 26.3317 98.0013 26.5297C98.4674 26.9679 99.2524 27.4103 100.356 27.8568L104.049 29.3271C105.575 29.9252 106.705 30.7461 107.438 31.7896C108.171 32.8332 108.536 34.1125 108.535 35.6275C108.562 36.9169 108.208 38.1854 107.517 39.2722C106.814 40.3373 105.819 41.1756 104.653 41.6865C103.423 42.2503 101.99 42.5328 100.356 42.5338C97.6194 42.5338 95.4764 41.8355 93.9272 40.4389Z" fill="#10363D"/>
<path d="M131.49 19.168H135.959C136.004 19.1678 136.048 19.1765 136.09 19.1936C136.131 19.2108 136.169 19.236 136.201 19.2679C136.232 19.2997 136.257 19.3376 136.274 19.3793C136.292 19.4209 136.3 19.4656 136.3 19.5106V36.9462C136.3 37.0372 136.337 37.1243 136.401 37.1886C136.465 37.2528 136.552 37.2888 136.643 37.2888H144.239C144.329 37.2888 144.416 37.3249 144.481 37.3891C144.545 37.4533 144.581 37.5405 144.582 37.6315V41.5504C144.582 41.5955 144.573 41.6402 144.555 41.6819C144.538 41.7235 144.513 41.7614 144.481 41.7932C144.449 41.8251 144.411 41.8503 144.37 41.8674C144.328 41.8845 144.284 41.8932 144.239 41.893H131.49C131.445 41.8932 131.4 41.8845 131.359 41.8674C131.317 41.8502 131.28 41.825 131.248 41.7931C131.216 41.7613 131.191 41.7234 131.174 41.6817C131.157 41.6401 131.148 41.5954 131.148 41.5504V19.5106C131.148 19.4656 131.157 19.4209 131.174 19.3793C131.191 19.3376 131.216 19.2997 131.248 19.2679C131.28 19.236 131.317 19.2108 131.359 19.1936C131.4 19.1765 131.445 19.1678 131.49 19.168Z" fill="#10363D"/>
<path d="M168.534 19.5117H173.272C173.333 19.512 173.394 19.5289 173.447 19.5607C173.5 19.5925 173.543 19.638 173.572 19.6924L180.566 32.7932C180.602 32.8602 180.66 32.9132 180.729 32.9438C180.799 32.9743 180.877 32.9808 180.95 32.962C181.024 32.9433 181.09 32.9005 181.136 32.8403C181.183 32.7801 181.209 32.706 181.209 32.6296V19.8575C181.209 19.7667 181.245 19.6798 181.309 19.6157C181.373 19.5515 181.46 19.5152 181.55 19.5148H185.799C185.844 19.5146 185.889 19.5233 185.93 19.5405C185.972 19.5576 186.01 19.5828 186.042 19.6146C186.073 19.6465 186.099 19.6843 186.116 19.726C186.133 19.7677 186.142 19.8124 186.142 19.8575V41.5546C186.142 41.5997 186.133 41.6444 186.116 41.6861C186.099 41.7277 186.073 41.7656 186.042 41.7974C186.01 41.8293 185.972 41.8545 185.93 41.8716C185.889 41.8887 185.844 41.8974 185.799 41.8972H181.071C181.008 41.8991 180.946 41.8835 180.891 41.8522C180.836 41.8209 180.791 41.775 180.761 41.7197L173.766 28.6189C173.731 28.5519 173.674 28.4988 173.605 28.4677C173.536 28.4367 173.459 28.4295 173.385 28.4473C173.312 28.4651 173.246 28.5069 173.199 28.5662C173.152 28.6254 173.126 28.6987 173.124 28.7746V41.5468C173.124 41.6378 173.088 41.725 173.023 41.7892C172.959 41.8534 172.872 41.8894 172.782 41.8894H168.532C168.442 41.8894 168.355 41.8533 168.291 41.7891C168.227 41.7248 168.191 41.6377 168.191 41.5468V19.8544C168.191 19.7635 168.227 19.6763 168.291 19.6121C168.355 19.5478 168.442 19.5117 168.532 19.5117" fill="#10363D"/>
<path d="M188.72 19.5117H201.657C201.748 19.5117 201.834 19.5478 201.899 19.612C201.963 19.6762 201.999 19.7634 202 19.8544V23.3247C202 23.416 201.963 23.5035 201.899 23.5681C201.835 23.6326 201.748 23.6689 201.657 23.6689H193.876C193.786 23.6689 193.699 23.7049 193.634 23.7692C193.57 23.8334 193.534 23.9205 193.534 24.0116V28.4086C193.534 28.4999 193.57 28.5875 193.634 28.652C193.698 28.7166 193.785 28.7528 193.876 28.7528H201.657C201.703 28.7526 201.748 28.7616 201.79 28.7792C201.832 28.7968 201.87 28.8227 201.902 28.8554C201.934 28.888 201.959 28.9268 201.976 28.9694C201.992 29.012 202.001 29.0575 202 29.1033V32.4786C202 32.5237 201.991 32.5684 201.973 32.61C201.956 32.6517 201.931 32.6896 201.899 32.7214C201.867 32.7532 201.829 32.7785 201.788 32.7956C201.746 32.8127 201.702 32.8214 201.657 32.8212H193.876C193.786 32.8212 193.699 32.8573 193.634 32.9215C193.57 32.9857 193.534 33.0729 193.534 33.1639V37.4021C193.534 37.4472 193.542 37.4919 193.56 37.5335C193.577 37.5752 193.602 37.6131 193.634 37.6449C193.666 37.6768 193.704 37.702 193.745 37.7191C193.787 37.7362 193.831 37.7449 193.876 37.7447H201.657C201.748 37.7447 201.835 37.781 201.899 37.8455C201.963 37.9101 202 37.9977 202 38.0889V41.5592C201.999 41.6503 201.963 41.7374 201.899 41.8016C201.834 41.8658 201.748 41.9019 201.657 41.9019H188.72C188.63 41.9019 188.543 41.8658 188.479 41.8015C188.415 41.7373 188.379 41.6501 188.379 41.5592V19.8544C188.379 19.7635 188.415 19.6763 188.479 19.6121C188.543 19.5478 188.63 19.5117 188.72 19.5117Z" fill="#10363D"/>
<path d="M78.8205 33.8461L81.0219 26.0302C81.0367 25.9772 81.0683 25.9305 81.112 25.8972C81.1557 25.8639 81.209 25.8459 81.2638 25.8459C81.3186 25.8459 81.3719 25.8639 81.4155 25.8972C81.4592 25.9305 81.4908 25.9772 81.5056 26.0302L83.707 33.8461C83.7212 33.8955 83.7238 33.9475 83.7145 33.998C83.7052 34.0486 83.6843 34.0962 83.6534 34.1372C83.6226 34.1782 83.5826 34.2114 83.5367 34.2341C83.4909 34.2569 83.4403 34.2686 83.3892 34.2682H79.1383C79.0873 34.2682 79.0369 34.2563 78.9912 34.2335C78.9455 34.2107 78.9057 34.1775 78.8749 34.1366C78.8441 34.0957 78.8232 34.0482 78.8137 33.9978C78.8043 33.9474 78.8066 33.8955 78.8205 33.8461ZM91.3033 41.5639L83.8992 19.6831C83.8826 19.6331 83.8507 19.5896 83.8082 19.5589C83.7656 19.5281 83.7145 19.5116 83.662 19.5117H78.8345C78.782 19.5114 78.7307 19.5278 78.6881 19.5586C78.6455 19.5894 78.6137 19.633 78.5973 19.6831L71.2242 41.5639C71.2114 41.6018 71.2078 41.6423 71.2136 41.6819C71.2195 41.7215 71.2346 41.7591 71.2578 41.7917C71.281 41.8242 71.3115 41.8508 71.3469 41.8691C71.3823 41.8875 71.4216 41.8971 71.4614 41.8972H76.2952C76.3695 41.8974 76.4418 41.8731 76.5011 41.8281C76.5605 41.7831 76.6035 41.7199 76.6238 41.648L77.554 38.3335H84.9673L85.8975 41.648C85.918 41.7197 85.9611 41.7828 86.0204 41.8278C86.0797 41.8727 86.1519 41.8971 86.2262 41.8972H91.0599C91.0997 41.8971 91.139 41.8875 91.1744 41.8691C91.2098 41.8508 91.2404 41.8242 91.2635 41.7917C91.2867 41.7591 91.3018 41.7215 91.3077 41.6819C91.3135 41.6423 91.3099 41.6018 91.2971 41.5639" fill="#10363D"/>
<path d="M153.723 33.8459L155.924 26.03C155.939 25.977 155.971 25.9303 156.014 25.897C156.058 25.8637 156.111 25.8457 156.166 25.8457C156.221 25.8457 156.274 25.8637 156.318 25.897C156.362 25.9303 156.393 25.977 156.408 26.03L158.611 33.8459C158.624 33.8954 158.627 33.9473 158.617 33.9977C158.607 34.0481 158.586 34.0956 158.555 34.1364C158.524 34.1773 158.484 34.2104 158.439 34.2332C158.393 34.2561 158.343 34.268 158.292 34.268H154.041C153.99 34.2669 153.941 34.2541 153.896 34.2308C153.851 34.2074 153.813 34.1741 153.783 34.1334C153.753 34.0926 153.732 34.0455 153.723 33.9957C153.714 33.9459 153.717 33.8946 153.731 33.8459H153.723ZM166.206 41.5637L158.802 19.686C158.785 19.6359 158.753 19.5923 158.711 19.5615C158.668 19.5307 158.617 19.5143 158.564 19.5147H153.737C153.684 19.5143 153.633 19.5307 153.59 19.5615C153.548 19.5923 153.516 19.6359 153.5 19.686L146.127 41.5637C146.114 41.6018 146.11 41.6423 146.116 41.6821C146.122 41.7218 146.137 41.7595 146.161 41.7921C146.184 41.8247 146.215 41.8512 146.25 41.8695C146.286 41.8877 146.325 41.8972 146.365 41.897H151.197C151.272 41.8972 151.345 41.873 151.404 41.828C151.464 41.7831 151.507 41.7198 151.528 41.6478L152.458 38.3333H159.87L160.8 41.6478C160.82 41.7195 160.863 41.7826 160.923 41.8276C160.982 41.8725 161.054 41.8969 161.129 41.897H165.962C166.002 41.8969 166.041 41.8873 166.077 41.869C166.112 41.8506 166.143 41.824 166.166 41.7915C166.189 41.7589 166.204 41.7213 166.21 41.6817C166.216 41.6421 166.212 41.6016 166.199 41.5637" fill="#10363D"/>
<path d="M128.457 19.5112H123.984C123.894 19.5112 123.807 19.5473 123.743 19.6115C123.679 19.6758 123.643 19.763 123.643 19.8538V28.2165C123.643 28.2617 123.634 28.3064 123.617 28.3482C123.6 28.39 123.575 28.4279 123.543 28.4599C123.511 28.4918 123.473 28.5172 123.432 28.5345C123.39 28.5518 123.345 28.5607 123.3 28.5607H116.282C116.237 28.5607 116.193 28.5518 116.152 28.5345C116.11 28.5172 116.072 28.4918 116.041 28.4598C116.009 28.4278 115.984 28.3898 115.967 28.3481C115.95 28.3063 115.941 28.2616 115.941 28.2165V19.6825C115.941 19.5915 115.905 19.5043 115.84 19.4401C115.776 19.3759 115.689 19.3398 115.599 19.3398H111.126C111.036 19.3403 110.949 19.3765 110.886 19.4407C110.822 19.5048 110.786 19.5918 110.785 19.6825V41.5509C110.786 41.6417 110.822 41.7286 110.886 41.7928C110.949 41.8569 111.036 41.8932 111.126 41.8936H115.599C115.689 41.8936 115.776 41.8575 115.84 41.7933C115.905 41.7291 115.941 41.6419 115.941 41.5509V33.3471C115.941 33.2563 115.977 33.1691 116.041 33.1048C116.105 33.0406 116.192 33.0045 116.282 33.0045H123.3C123.391 33.0045 123.478 33.0405 123.542 33.1047C123.606 33.169 123.643 33.2561 123.643 33.3471V41.5509C123.643 41.6418 123.679 41.7289 123.743 41.7932C123.807 41.8575 123.894 41.8936 123.984 41.8936H128.457C128.547 41.8936 128.634 41.8575 128.698 41.7932C128.762 41.7289 128.798 41.6418 128.798 41.5509V19.8538C128.798 19.763 128.762 19.6758 128.698 19.6115C128.634 19.5473 128.547 19.5112 128.457 19.5112Z" fill="#10363D"/>
<path d="M21.6459 22.1416L27.2966 24.2256C28.2097 24.5496 29.3213 24.1166 29.3213 23.4375V9.0548C29.3213 8.72616 29.0469 8.43177 28.6051 8.27602L22.9543 6.19198C22.0412 5.868 20.9297 6.29945 20.9297 6.97077V21.3534C20.9297 21.6821 21.2056 21.9843 21.6459 22.1416Z" fill="#10363D"/>
<path d="M21.6459 47.9596L27.2966 50.0436C28.2097 50.3676 29.3213 49.9362 29.3213 49.2571V34.8744C29.3213 34.5457 29.0469 34.2436 28.6051 34.0863L22.9543 32.0022C22.0412 31.6782 20.9297 32.1112 20.9297 32.7903V47.1699C20.9297 47.4986 21.2056 47.8007 21.6459 47.9565" fill="#10363D"/>
<path d="M11.1811 17.3321L16.8318 19.4161C17.7449 19.7401 18.8471 19.3071 18.8471 18.628V2.98056C18.8471 2.65191 18.5727 2.34974 18.1309 2.19243L12.4895 0.109947C11.5748 -0.214029 10.4648 0.21742 10.4648 0.888736V16.544C10.4648 16.8726 10.7392 17.1763 11.1811 17.3321Z" fill="#10363D"/>
<path d="M11.1811 51.8061L16.8318 53.8902C17.7449 54.2142 18.8471 53.7827 18.8471 53.102V37.4951C18.8471 37.1665 18.5727 36.8643 18.1309 36.707L12.4895 34.6245C11.5748 34.3005 10.4648 34.732 10.4648 35.4111V51.018C10.4648 51.3467 10.7392 51.6488 11.1811 51.8061Z" fill="#10363D"/>
<path d="M8.3916 3.56775C8.3916 3.2391 8.11565 2.94471 7.67382 2.77961L2.02465 0.695573C1.11154 0.371597 0 0.804603 0 1.48371V50.4321C0 50.7608 0.274397 51.0645 0.716223 51.2203L6.36695 53.3059C7.28005 53.6283 8.3916 53.1968 8.3916 52.5177V3.56775Z" fill="#10363D"/>
<path d="M39.0684 16.5628L33.4177 14.4788C32.5046 14.1548 31.4023 14.5878 31.4023 15.2669V38.8891C31.4023 39.2178 31.6767 39.52 32.1186 39.6757L37.7693 41.7598C38.6824 42.0837 39.7939 41.6523 39.7939 40.9732V17.3509C39.7939 17.0223 39.518 16.7201 39.0762 16.5628" fill="#10363D"/>
</svg>
