<svg width="128" height="128" viewBox="0 0 128 128" fill="none" xmlns="http://www.w3.org/2000/svg">
<path d="M64 32.5C63.6808 32.5 63.3628 32.5047 63.046 32.5142L63.0163 31.5146C63.343 31.5049 63.6709 31.5 64 31.5C64.3291 31.5 64.657 31.5049 64.9837 31.5146L64.954 32.5142C64.6372 32.5047 64.3192 32.5 64 32.5Z" fill="white"/>
<path d="M61.1468 32.6274C60.5117 32.6845 59.882 32.7603 59.2584 32.8544L59.1092 31.8656C59.7526 31.7685 60.4022 31.6903 61.0574 31.6315L61.1468 32.6274Z" fill="white"/>
<path d="M68.7416 32.8544C68.118 32.7603 67.4883 32.6845 66.8532 32.6274L66.9426 31.6315C67.5978 31.6903 68.2474 31.7685 68.8908 31.8656L68.7416 32.8544Z" fill="white"/>
<path d="M57.3857 33.1955C56.7626 33.3286 56.1463 33.4802 55.5375 33.6496L55.2695 32.6862C55.8978 32.5114 56.5338 32.3549 57.1768 32.2176L57.3857 33.1955Z" fill="white"/>
<path d="M72.4625 33.6496C71.8537 33.4802 71.2374 33.3286 70.6143 33.1955L70.8232 32.2176C71.4662 32.3549 72.1022 32.5114 72.7305 32.6862L72.4625 33.6496Z" fill="white"/>
<path d="M53.7209 34.2151C53.1196 34.4226 52.5265 34.6478 51.9423 34.89L51.5593 33.9663C52.1621 33.7163 52.7742 33.4839 53.3947 33.2698L53.7209 34.2151Z" fill="white"/>
<path d="M76.0577 34.89C75.4735 34.6478 74.8804 34.4226 74.2791 34.2151L74.6053 33.2698C75.2258 33.4839 75.8379 33.7163 76.4407 33.9663L76.0577 34.89Z" fill="white"/>
<path d="M50.2077 35.6719C49.6363 35.9506 49.0746 36.2461 48.5232 36.5578L48.0312 35.6872C48.6001 35.3657 49.1797 35.0608 49.7693 34.7732L50.2077 35.6719Z" fill="white"/>
<path d="M79.4768 36.5578C78.9254 36.2461 78.3637 35.9506 77.7923 35.6719L78.2307 34.7732C78.8203 35.0608 79.3999 35.3657 79.9688 35.6872L79.4768 36.5578Z" fill="white"/>
<path d="M46.8956 37.5438C46.3626 37.8891 45.8407 38.2501 45.3305 38.6261L44.7372 37.8211C45.2636 37.4332 45.802 37.0608 46.3519 36.7045L46.8956 37.5438Z" fill="white"/>
<path d="M82.6695 38.6261C82.1593 38.2501 81.6374 37.8891 81.1044 37.5438L81.6481 36.7045C82.198 37.0608 82.7364 37.4332 83.2628 37.8211L82.6695 38.6261Z" fill="white"/>
<path d="M43.8332 39.8008C43.3458 40.2074 42.8709 40.6285 42.4091 41.0634L41.7235 40.3354C42.1999 39.8868 42.6898 39.4524 43.1926 39.0329L43.8332 39.8008Z" fill="white"/>
<path d="M85.5909 41.0634C85.1291 40.6285 84.6542 40.2074 84.1668 39.8008L84.8074 39.0329C85.3102 39.4524 85.8001 39.8868 86.2765 40.3354L85.5909 41.0634Z" fill="white"/>
<path d="M41.0634 42.4091C40.6285 42.8709 40.2074 43.3458 39.8008 43.8332L39.0329 43.1926C39.4524 42.6898 39.8868 42.1999 40.3354 41.7235L41.0634 42.4091Z" fill="white"/>
<path d="M88.1992 43.8332C87.7926 43.3458 87.3715 42.8709 86.9366 42.4091L87.6646 41.7235C88.1132 42.1999 88.5476 42.6898 88.9671 43.1926L88.1992 43.8332Z" fill="white"/>
<path d="M38.6261 45.3305C38.2501 45.8407 37.8891 46.3626 37.5438 46.8956L36.7045 46.3519C37.0608 45.802 37.4332 45.2636 37.8211 44.7372L38.6261 45.3305Z" fill="white"/>
<path d="M90.4562 46.8956C90.1109 46.3626 89.7499 45.8407 89.3739 45.3305L90.1789 44.7372C90.5668 45.2636 90.9392 45.802 91.2955 46.3519L90.4562 46.8956Z" fill="white"/>
<path d="M36.5578 48.5232C36.2461 49.0746 35.9506 49.6363 35.6719 50.2077L34.7732 49.7693C35.0608 49.1797 35.3657 48.6001 35.6872 48.0312L36.5578 48.5232Z" fill="white"/>
<path d="M92.3281 50.2077C92.0494 49.6363 91.7539 49.0746 91.4422 48.5232L92.3128 48.0312C92.6343 48.6001 92.9392 49.1797 93.2268 49.7693L92.3281 50.2077Z" fill="white"/>
<path d="M34.89 51.9423C34.6478 52.5265 34.4226 53.1196 34.2151 53.7209L33.2698 53.3947C33.4839 52.7741 33.7163 52.1621 33.9663 51.5593L34.89 51.9423Z" fill="white"/>
<path d="M93.7849 53.7209C93.5774 53.1196 93.3522 52.5265 93.11 51.9423L94.0337 51.5593C94.2837 52.1621 94.5161 52.7742 94.7302 53.3947L93.7849 53.7209Z" fill="white"/>
<path d="M33.6496 55.5375C33.4802 56.1463 33.3286 56.7626 33.1955 57.3857L32.2176 57.1768C32.3549 56.5338 32.5114 55.8978 32.6862 55.2695L33.6496 55.5375Z" fill="white"/>
<path d="M94.8045 57.3857C94.6714 56.7626 94.5198 56.1463 94.3504 55.5375L95.3138 55.2695C95.4886 55.8978 95.6451 56.5338 95.7824 57.1768L94.8045 57.3857Z" fill="white"/>
<path d="M32.8544 59.2584C32.7603 59.882 32.6845 60.5117 32.6274 61.1468L31.6315 61.0574C31.6903 60.4022 31.7685 59.7526 31.8656 59.1092L32.8544 59.2584Z" fill="white"/>
<path d="M95.3726 61.1468C95.3155 60.5117 95.2397 59.882 95.1456 59.2584L96.1344 59.1092C96.2315 59.7526 96.3097 60.4022 96.3685 61.0574L95.3726 61.1468Z" fill="white"/>
<path d="M32.5142 63.046C32.5047 63.3628 32.5 63.6808 32.5 64C32.5 64.2158 32.5022 64.431 32.5065 64.6457L31.5067 64.6658C31.5022 64.4444 31.5 64.2225 31.5 64C31.5 63.6709 31.5049 63.343 31.5146 63.0163L32.5142 63.046Z" fill="white"/>
<path d="M95.5 64C95.5 63.6808 95.4953 63.3628 95.4858 63.046L96.4854 63.0163C96.4951 63.343 96.5 63.6709 96.5 64C96.5 64.1696 96.4987 64.3389 96.4961 64.508L95.4962 64.4926C95.4987 64.3287 95.5 64.1645 95.5 64Z" fill="white"/>
<path fill-rule="evenodd" clip-rule="evenodd" d="M67.125 50.0391C67.125 49.1328 67.3464 48.2552 67.7891 47.4062C68.2266 46.5625 68.9062 45.8516 69.8281 45.2734C70.1562 45.0703 70.4922 44.9089 70.8359 44.7891C71.1849 44.6693 71.5625 44.5781 71.9688 44.5156C72.375 44.4479 72.8021 44.4141 73.25 44.4141C75.1979 44.4141 76.7057 44.9844 77.7734 46.125C78.3047 46.6875 78.7057 47.2969 78.9766 47.9531C79.2474 48.6094 79.3828 49.3047 79.3828 50.0391C79.3828 51.5547 78.8307 52.8724 77.7266 53.9922C76.6224 55.112 75.1302 55.6719 73.25 55.6719C71.4323 55.6719 69.9583 55.1458 68.8281 54.0938C67.6927 53.0469 67.125 51.6953 67.125 50.0391ZM71.8438 50.0391C71.8438 51.2474 71.9609 52.0625 72.1953 52.4844C72.4193 52.9115 72.7708 53.125 73.25 53.125C73.724 53.125 74.0781 52.9193 74.3125 52.5078C74.5469 52.0911 74.6641 51.2682 74.6641 50.0391C74.6641 48.8464 74.5495 48.0339 74.3203 47.6016C74.0964 47.1745 73.7396 46.9609 73.25 46.9609C72.7812 46.9609 72.4297 47.1667 72.1953 47.5781C71.9609 47.9896 71.8438 48.8099 71.8438 50.0391Z" fill="white"/>
<path d="M57.0547 55.5H59.5V54.7891C60.276 55.3568 61.1432 55.6406 62.1016 55.6406C63.1328 55.6406 63.987 55.3203 64.6641 54.6797C65.3411 54.0495 65.6797 53.2786 65.6797 52.3672C65.6797 51.7734 65.5365 51.2214 65.25 50.7109C65.125 50.4818 64.9661 50.2604 64.7734 50.0469C64.5859 49.8281 64.401 49.6589 64.2188 49.5391C63.8594 49.2943 63.1458 48.9062 62.0781 48.375C61.2812 47.9844 60.8099 47.7318 60.6641 47.6172C60.513 47.5078 60.4375 47.3438 60.4375 47.125C60.4375 46.6719 60.7031 46.4453 61.2344 46.4453C61.9896 46.4453 62.5156 46.8724 62.8125 47.7266H65.2422V44.6328H62.7812V45.3047C62.1198 44.763 61.3125 44.4922 60.3594 44.4922C59.4062 44.4922 58.6042 44.776 57.9531 45.3438C57.2969 45.9115 56.9688 46.7005 56.9688 47.7109C56.9688 48.2734 57.1068 48.7865 57.3828 49.25C57.6589 49.7188 57.9922 50.0859 58.3828 50.3516C58.7995 50.6432 59.4505 50.9896 60.3359 51.3906C61.0391 51.7031 61.5 51.9479 61.7188 52.125C61.9219 52.2865 62.0234 52.4896 62.0234 52.7344C62.0234 53.2031 61.7318 53.4375 61.1484 53.4375C60.3411 53.4375 59.7917 52.9635 59.5 52.0156H57.0547V55.5Z" fill="white"/>
<path d="M49.5625 55.5H55.7578V52.8984H54.7656V47.2344H55.7578V44.6328H49.5625V47.2344H50.5625V52.8984H49.5625V55.5Z" fill="white"/>
<path fill-rule="evenodd" clip-rule="evenodd" d="M52.0894 43.1252C52.9506 41.6366 54.0826 40.3245 55.4181 39.2563C56.0395 39.7612 56.7197 40.175 57.4433 40.51L55.3157 42.8311L55.6843 43.1689L57.9287 40.7205C58.5362 40.9668 59.1706 41.1623 59.8235 41.3138L58.7919 42.8612L59.2079 43.1386L60.3498 41.4258C61.4512 41.6395 62.5975 41.7366 63.75 41.7487V42.9999H64.25V41.7487C65.4025 41.7366 66.5488 41.6395 67.6502 41.4258L68.7921 43.1386L69.2081 42.8612L68.1765 41.3138C68.8294 41.1623 69.4638 40.9668 70.0713 40.7205L72.3157 43.1689L72.6843 42.8311L70.5567 40.51C71.2804 40.175 71.9606 39.7612 72.582 39.2562C73.9175 40.3244 75.0496 41.6365 75.9107 43.1252L76.3435 42.8748C73.88 38.6161 69.2749 35.75 64.0001 35.75C58.7253 35.75 54.1202 38.6161 51.6566 42.8748L52.0894 43.1252ZM67.8794 40.8682C68.5117 40.7304 69.1243 40.5516 69.7095 40.3258L66.992 37.3613C66.6264 37.5372 66.2412 37.6926 65.8446 37.816L67.8794 40.8682ZM67.4526 37.1238L70.2011 40.1222C70.9089 39.8078 71.5713 39.4183 72.1741 38.9423C70.9152 38.0101 69.4915 37.2879 67.9548 36.8272C67.7938 36.9289 67.6261 37.0283 67.4526 37.1238ZM67.3487 40.9735L65.336 37.9545C64.9783 38.0377 64.6144 38.092 64.25 38.1093V41.2487C65.3074 41.2373 66.3495 41.153 67.3487 40.9735ZM55.826 38.9424C56.4288 39.4183 57.0912 39.8078 57.7989 40.1222L60.5474 37.1238C60.3739 37.0283 60.2062 36.929 60.0453 36.8272C58.5086 37.2879 57.0849 38.0102 55.826 38.9424ZM61.0079 37.3613L58.2905 40.3258C58.8757 40.5516 59.4883 40.7304 60.1206 40.8682L62.1553 37.816C61.7588 37.6927 61.3736 37.5372 61.0079 37.3613ZM60.6513 40.9735C61.6505 41.153 62.6926 41.2373 63.75 41.2487V38.1093C63.3855 38.092 63.0217 38.0377 62.664 37.9545L60.6513 40.9735ZM60.7149 36.6449C61.7676 36.3868 62.8679 36.25 64.0001 36.25C65.1323 36.25 66.2325 36.3868 67.2851 36.6449C66.3001 37.1993 65.1327 37.6153 63.9999 37.6153C62.8671 37.6153 61.6999 37.1993 60.7149 36.6449Z" fill="white"/>
<path fill-rule="evenodd" clip-rule="evenodd" d="M55.4181 60.7437C54.0826 59.6755 52.9506 58.3634 52.0894 56.8748L51.6566 57.1252C54.1202 61.3839 58.7253 64.25 64.0001 64.25C69.2749 64.25 73.88 61.3839 76.3435 57.1252L75.9107 56.8748C75.0496 58.3634 73.9175 59.6756 72.582 60.7438C71.9606 60.2388 71.2804 59.825 70.5567 59.49L72.6843 57.1689L72.3157 56.8311L70.0713 59.2795C69.4638 59.0332 68.8294 58.8377 68.1765 58.6862L69.2081 57.1388L68.7921 56.8614L67.6502 58.5742C66.5488 58.3605 65.4025 58.2634 64.25 58.2513V57.0001H63.75V58.2513C62.5975 58.2634 61.4512 58.3605 60.3498 58.5742L59.2079 56.8614L58.7919 57.1388L59.8235 58.6862C59.1706 58.8377 58.5362 59.0332 57.9287 59.2795L55.6843 56.8311L55.3157 57.1689L57.4433 59.49C56.7197 59.825 56.0395 60.2388 55.4181 60.7437ZM69.7095 59.6742C69.1243 59.4484 68.5117 59.2696 67.8794 59.1318L65.8446 62.184C66.2412 62.3074 66.6264 62.4628 66.992 62.6387L69.7095 59.6742ZM70.2011 59.8778L67.4526 62.8762C67.6261 62.9717 67.7938 63.0711 67.9548 63.1728C69.4915 62.7121 70.9152 61.9899 72.1741 61.0577C71.5713 60.5817 70.9089 60.1922 70.2011 59.8778ZM65.336 62.0455L67.3487 59.0265C66.3495 58.847 65.3074 58.7627 64.25 58.7513V61.8907C64.6144 61.908 64.9783 61.9623 65.336 62.0455ZM57.7989 59.8778C57.0912 60.1922 56.4288 60.5817 55.826 61.0576C57.0849 61.9898 58.5086 62.7121 60.0453 63.1728C60.2062 63.071 60.3739 62.9717 60.5474 62.8762L57.7989 59.8778ZM58.2905 59.6742L61.0079 62.6387C61.3736 62.4628 61.7588 62.3073 62.1553 62.184L60.1206 59.1318C59.4883 59.2696 58.8757 59.4484 58.2905 59.6742ZM63.75 58.7513C62.6926 58.7627 61.6505 58.847 60.6513 59.0265L62.664 62.0455C63.0217 61.9623 63.3855 61.908 63.75 61.8907V58.7513ZM64.0001 63.75C62.8679 63.75 61.7676 63.6132 60.7149 63.3551C61.6999 62.8007 62.8671 62.3847 63.9999 62.3847C65.1327 62.3847 66.3001 62.8007 67.2851 63.3551C66.2325 63.6132 65.1323 63.75 64.0001 63.75Z" fill="white"/>
<path d="M38.875 84.6167C38.4252 84.0691 37.993 83.5066 37.5791 82.93L38.3915 82.3469C38.7927 82.9058 39.2117 83.4511 39.6477 83.9819L38.875 84.6167Z" fill="white"/>
<path d="M90.4209 82.93C90.007 83.5066 89.5748 84.0691 89.125 84.6167L88.3523 83.9819C88.7883 83.4511 89.2073 82.9058 89.6085 82.3469L90.4209 82.93Z" fill="white"/>
<path d="M41.7819 87.7195C41.2644 87.2346 40.7628 86.7329 40.278 86.2154L41.0078 85.5317C41.4778 86.0334 41.964 86.5197 42.4657 86.9898L41.7819 87.7195Z" fill="white"/>
<path d="M87.722 86.2154C87.2372 86.7329 86.7356 87.2346 86.2181 87.7195L85.5343 86.9898C86.036 86.5197 86.5222 86.0334 86.9922 85.5317L87.722 86.2154Z" fill="white"/>
<path d="M45.0669 90.4187C44.4904 90.0048 43.9279 89.5724 43.3804 89.1226L44.0153 88.35C44.546 88.786 45.0912 89.2051 45.6501 89.6063L45.0669 90.4187Z" fill="white"/>
<path d="M84.6196 89.1226C84.0721 89.5724 83.5096 90.0048 82.9331 90.4187L82.3499 89.6063C82.9088 89.2051 83.454 88.786 83.9847 88.35L84.6196 89.1226Z" fill="white"/>
<path d="M48.6756 92.6674C48.0493 92.3319 47.4353 91.9765 46.8344 91.6021L47.3633 90.7534C47.9457 91.1163 48.5408 91.4608 49.1478 91.7859L48.6756 92.6674Z" fill="white"/>
<path d="M81.1656 91.6021C80.5647 91.9765 79.9507 92.3319 79.3244 92.6674L78.8522 91.7859C79.4592 91.4608 80.0543 91.1163 80.6367 90.7534L81.1656 91.6021Z" fill="white"/>
<path d="M52.5478 94.4247C51.8821 94.174 51.2268 93.9021 50.5827 93.6097L50.996 92.6991C51.6201 92.9824 52.2551 93.2459 52.9002 93.4888L52.5478 94.4247Z" fill="white"/>
<path d="M77.4173 93.6097C76.7732 93.9021 76.1179 94.174 75.4522 94.4247L75.0998 93.4888C75.7449 93.2459 76.3799 92.9824 77.004 92.6991L77.4173 93.6097Z" fill="white"/>
<path d="M56.6175 95.6578C55.9237 95.4966 55.2383 95.3132 54.5623 95.1084L54.8523 94.1513C55.5073 94.3498 56.1714 94.5275 56.8438 94.6837L56.6175 95.6578Z" fill="white"/>
<path d="M73.4377 95.1084C72.7617 95.3132 72.0763 95.4966 71.3825 95.6578L71.1562 94.6837C71.8286 94.5275 72.4927 94.3498 73.1477 94.1513L73.4377 95.1084Z" fill="white"/>
<path d="M60.8138 96.3458C60.1037 96.2767 59.4004 96.1847 58.7044 96.0706L58.8661 95.0838C59.5406 95.1944 60.2224 95.2835 60.9106 95.3505L60.8138 96.3458Z" fill="white"/>
<path d="M69.2956 96.0706C68.5996 96.1847 67.8963 96.2767 67.1862 96.3458L67.0894 95.3505C67.7776 95.2835 68.4594 95.1944 69.1339 95.0838L69.2956 96.0706Z" fill="white"/>
<path d="M64 96.5C63.6441 96.5 63.2896 96.4943 62.9365 96.4829L62.9686 95.4834C63.311 95.4944 63.6549 95.5 64 95.5C64.3451 95.5 64.689 95.4944 65.0314 95.4834L65.0635 96.4829C64.7104 96.4943 64.3559 96.5 64 96.5Z" fill="white"/>
<path d="M49.3691 71.7031C49.3691 71.0898 49.2891 70.6328 49.1289 70.332C48.9688 70.0273 48.7148 69.875 48.3672 69.875C48.0273 69.875 47.7793 70.0156 47.623 70.2969C47.4707 70.5781 47.3887 71.0039 47.377 71.5742V73.7539C47.377 74.3906 47.457 74.8574 47.6172 75.1543C47.7773 75.4473 48.0312 75.5938 48.3789 75.5938C48.7148 75.5938 48.9629 75.4512 49.123 75.166C49.2832 74.877 49.3652 74.4258 49.3691 73.8125V71.7031Z" fill="white"/>
<path d="M56.3184 71.7031C56.3184 71.0898 56.2383 70.6328 56.0781 70.332C55.918 70.0273 55.6641 69.875 55.3164 69.875C54.9766 69.875 54.7285 70.0156 54.5723 70.2969C54.4199 70.5781 54.3379 71.0039 54.3262 71.5742V73.7539C54.3262 74.3906 54.4062 74.8574 54.5664 75.1543C54.7266 75.4473 54.9805 75.5938 55.3281 75.5938C55.6641 75.5938 55.9121 75.4512 56.0723 75.166C56.2324 74.877 56.3145 74.4258 56.3184 73.8125V71.7031Z" fill="white"/>
<path d="M80.5352 70.332C80.6953 70.6328 80.7754 71.0898 80.7754 71.7031V73.8125C80.7715 74.4258 80.6895 74.877 80.5293 75.166C80.3691 75.4512 80.1211 75.5938 79.7852 75.5938C79.4375 75.5938 79.1836 75.4473 79.0234 75.1543C78.8633 74.8574 78.7832 74.3906 78.7832 73.7539V71.5742C78.7949 71.0039 78.877 70.5781 79.0293 70.2969C79.1855 70.0156 79.4336 69.875 79.7734 69.875C80.1211 69.875 80.375 70.0273 80.5352 70.332Z" fill="white"/>
<path fill-rule="evenodd" clip-rule="evenodd" d="M66.9595 26.3963L64 23L61.0405 26.3963L57.5862 23.5048L55.1944 27.3222L51.3303 25.0067L49.5652 29.1513L45.3864 27.4687L44.2914 31.8384L39.9008 30.8303L39.5028 35.3175L35.0086 35.0086L35.3175 39.5028L30.8303 39.9008L31.8384 44.2914L27.4687 45.3864L29.1513 49.5652L25.0067 51.3303L27.3222 55.1944L23.5048 57.5862L26.3963 61.0405L23 64L25.2952 66H21V62H4L7 67.5L4 73H11V80H28.5211L27.4687 82.6136L31.8384 83.7086L30.8303 88.0992L35.3175 88.4972L35.0086 92.9914L39.5028 92.6825L39.9008 97.1697L44.2914 96.1616L45.3864 100.531L49.5652 98.8487L51.3303 102.993L55.1944 100.678L57.5862 104.495L61.0405 101.604L64 105L66.9595 101.604L70.4138 104.495L72.8056 100.678L76.6697 102.993L78.4348 98.8487L82.6136 100.531L83.7086 96.1616L88.0992 97.1697L88.4972 92.6825L92.9914 92.9914L92.6825 88.4972L97.1697 88.0992L96.1616 83.7086L100.531 82.6136L99.4789 80H117V73H124L121 67.5L124 62H107V66H102.705L105 64L101.604 61.0405L104.495 57.5862L100.678 55.1944L102.993 51.3303L98.8487 49.5652L100.531 45.3864L96.1616 44.2914L97.1697 39.9008L92.6825 39.5028L92.9914 35.0086L88.4972 35.3175L88.0992 30.8303L83.7086 31.8384L82.6136 27.4687L78.4348 29.1513L76.6697 25.0067L72.8056 27.3222L70.4138 23.5048L66.9595 26.3963ZM97.2516 66C97.0986 65.2347 97 64.5495 97 64C97 45.7746 82.2254 31 64 31C45.7746 31 31 45.7746 31 64C31 64.6202 30.9256 65.2934 30.8073 66H31.5605L31.5603 65.9966L32.5585 65.9361L32.5625 66H95.9385L95.4395 65.9692C95.4496 65.8056 95.4584 65.6417 95.466 65.4774L96.4649 65.5235C96.4576 65.6826 96.4491 65.8415 96.4395 66H97.2516ZM35.1314 80C40.7627 90.1388 51.5801 97 64 97C76.4199 97 87.2373 90.1388 92.8686 80H91.719L92.1518 80.2504C91.9741 80.5576 91.7915 80.8616 91.6041 81.1623L90.7554 80.6335C90.8859 80.424 91.0141 80.2128 91.1398 80H36.8602C36.9859 80.2128 37.1141 80.424 37.2446 80.6335L36.3959 81.1623C36.2085 80.8616 36.0259 80.5576 35.8482 80.2504L36.281 80H35.1314ZM37.4746 77H31.5215V75.7109L34.2637 72.8281C34.9395 72.0586 35.2773 71.4473 35.2773 70.9941C35.2773 70.627 35.1973 70.3477 35.0371 70.1562C34.877 69.9648 34.6445 69.8691 34.3398 69.8691C34.0391 69.8691 33.7949 69.998 33.6074 70.2559C33.4199 70.5098 33.3262 70.8281 33.3262 71.2109H31.3457C31.3457 70.6875 31.4766 70.2051 31.7383 69.7637C32 69.3184 32.3633 68.9707 32.8281 68.7207C33.293 68.4707 33.8125 68.3457 34.3867 68.3457C35.3086 68.3457 36.0176 68.5586 36.5137 68.9844C37.0137 69.4102 37.2637 70.0215 37.2637 70.8184C37.2637 71.1543 37.2012 71.4824 37.0762 71.8027C36.9512 72.1191 36.7559 72.4531 36.4902 72.8047C36.2285 73.1523 35.8047 73.6191 35.2188 74.2051L34.1172 75.4766H37.4746V77ZM44.4004 69.5234L41.2129 77H39.127L42.3203 69.9922H38.2539V68.4688H44.4004V69.5234ZM51.3438 73.5137C51.3438 74.666 51.084 75.5547 50.5645 76.1797C50.0488 76.8047 49.3203 77.1172 48.3789 77.1172C47.4297 77.1172 46.6953 76.8027 46.1758 76.1738C45.6562 75.5449 45.3965 74.6582 45.3965 73.5137V71.9551C45.3965 70.8027 45.6543 69.9141 46.1699 69.2891C46.6895 68.6641 47.4219 68.3516 48.3672 68.3516C49.3125 68.3516 50.0449 68.666 50.5645 69.2949C51.084 69.9238 51.3438 70.8125 51.3438 71.9609V73.5137ZM58.293 73.5137C58.293 74.666 58.0332 75.5547 57.5137 76.1797C56.998 76.8047 56.2695 77.1172 55.3281 77.1172C54.3789 77.1172 53.6445 76.8027 53.125 76.1738C52.6055 75.5449 52.3457 74.6582 52.3457 73.5137V71.9551C52.3457 70.8027 52.6035 69.9141 53.1191 69.2891C53.6387 68.6641 54.3711 68.3516 55.3164 68.3516C56.2617 68.3516 56.9941 68.666 57.5137 69.2949C58.0332 69.9238 58.293 70.8125 58.293 71.9609V73.5137ZM63.6953 77H61.7148V70.6953L59.7695 71.2637V69.7637L63.5137 68.4688H63.6953V77ZM67.5273 75.084C67.8398 75.084 68.0996 75.1777 68.3066 75.3652C68.5137 75.5488 68.6172 75.7852 68.6172 76.0742C68.6172 76.3633 68.5137 76.6016 68.3066 76.7891C68.0996 76.9727 67.8398 77.0645 67.5273 77.0645C67.2109 77.0645 66.9492 76.9707 66.7422 76.7832C66.5391 76.5957 66.4375 76.3594 66.4375 76.0742C66.4375 75.7891 66.5391 75.5527 66.7422 75.3652C66.9492 75.1777 67.2109 75.084 67.5273 75.084ZM67.5273 70.4082C67.8398 70.4082 68.0996 70.502 68.3066 70.6895C68.5137 70.873 68.6172 71.1094 68.6172 71.3984C68.6172 71.6875 68.5137 71.9258 68.3066 72.1133C68.0996 72.2969 67.8398 72.3887 67.5273 72.3887C67.2109 72.3887 66.9492 72.2949 66.7422 72.1074C66.5391 71.9199 66.4375 71.6836 66.4375 71.3984C66.4375 71.1133 66.5391 70.877 66.7422 70.6895C66.9492 70.502 67.2109 70.4082 67.5273 70.4082ZM75.8301 77H69.877V75.7109L72.6191 72.8281C73.2949 72.0586 73.6328 71.4473 73.6328 70.9941C73.6328 70.627 73.5527 70.3477 73.3926 70.1562C73.2324 69.9648 73 69.8691 72.6953 69.8691C72.3945 69.8691 72.1504 69.998 71.9629 70.2559C71.7754 70.5098 71.6816 70.8281 71.6816 71.2109H69.7012C69.7012 70.6875 69.832 70.2051 70.0938 69.7637C70.3555 69.3184 70.7188 68.9707 71.1836 68.7207C71.6484 68.4707 72.168 68.3457 72.7422 68.3457C73.6641 68.3457 74.373 68.5586 74.8691 68.9844C75.3691 69.4102 75.6191 70.0215 75.6191 70.8184C75.6191 71.1543 75.5566 71.4824 75.4316 71.8027C75.3066 72.1191 75.1113 72.4531 74.8457 72.8047C74.584 73.1523 74.1602 73.6191 73.5742 74.2051L72.4727 75.4766H75.8301V77ZM82.75 73.5137C82.75 74.666 82.4902 75.5547 81.9707 76.1797C81.4551 76.8047 80.7266 77.1172 79.7852 77.1172C78.8359 77.1172 78.1016 76.8027 77.582 76.1738C77.0625 75.5449 76.8027 74.6582 76.8027 73.5137V71.9551C76.8027 70.8027 77.0605 69.9141 77.5762 69.2891C78.0957 68.6641 78.8281 68.3516 79.7734 68.3516C80.7188 68.3516 81.4512 68.666 81.9707 69.2949C82.4902 69.9238 82.75 70.8125 82.75 71.9609V73.5137ZM88.1523 77H86.1719V70.6953L84.2266 71.2637V69.7637L87.9707 68.4688H88.1523V77ZM92.5293 71.9082H93.4609C94.1992 71.9082 94.5684 71.5469 94.5684 70.8242C94.5684 70.543 94.4805 70.3145 94.3047 70.1387C94.1289 69.959 93.8809 69.8691 93.5605 69.8691C93.2988 69.8691 93.0703 69.9453 92.875 70.0977C92.6836 70.25 92.5879 70.4395 92.5879 70.666H90.6133C90.6133 70.2168 90.7383 69.8164 90.9883 69.4648C91.2383 69.1133 91.584 68.8398 92.0254 68.6445C92.4707 68.4453 92.959 68.3457 93.4902 68.3457C94.4395 68.3457 95.1855 68.5625 95.7285 68.9961C96.2715 69.4297 96.543 70.0254 96.543 70.7832C96.543 71.1504 96.4297 71.498 96.2031 71.8262C95.9805 72.1504 95.6543 72.4141 95.2246 72.6172C95.6777 72.7812 96.0332 73.0312 96.291 73.3672C96.5488 73.6992 96.6777 74.1113 96.6777 74.6035C96.6777 75.3652 96.3848 75.9746 95.7988 76.4316C95.2129 76.8887 94.4434 77.1172 93.4902 77.1172C92.9316 77.1172 92.4121 77.0117 91.9316 76.8008C91.4551 76.5859 91.0938 76.291 90.8477 75.916C90.6016 75.5371 90.4785 75.1074 90.4785 74.627H92.4648C92.4648 74.8887 92.5703 75.1152 92.7812 75.3066C92.9922 75.498 93.252 75.5938 93.5605 75.5938C93.9082 75.5938 94.1855 75.498 94.3926 75.3066C94.5996 75.1113 94.7031 74.8633 94.7031 74.5625C94.7031 74.1328 94.5957 73.8281 94.3809 73.6484C94.166 73.4688 93.8691 73.3789 93.4902 73.3789H92.5293V71.9082Z" fill="white"/>
</svg>
