<svg width="128" height="128" viewBox="0 0 128 128" fill="none" xmlns="http://www.w3.org/2000/svg">
<path d="M25.1759 51.5853C59.7729 24.8668 91.6295 15.6181 108.072 41.8228C108.586 10.6512 63.8834 9.10974 25.1759 51.5853Z" fill="white"/>
<path d="M113.381 54.3257H105.331L101.049 76.4199H109.099L113.381 54.3257Z" fill="white"/>
<path d="M81.0106 54.3257H70.3917L66.1099 76.5911H72.7895L76.0437 59.4639L77.9277 76.4199H83.7509L92.1433 59.4639L88.8891 76.4199H95.5687L99.8505 54.3257H89.2317L82.552 67.8562L81.0106 54.3257Z" fill="white"/>
<path d="M46.5848 54.3257H35.966L31.6842 76.4199H38.1925L41.4467 59.4639L43.3307 76.4199H49.3252L57.7176 59.4639L54.4634 76.4199H61.143L65.4248 54.3257H54.8059L48.1263 67.8562L46.5848 54.3257Z" fill="white"/>
<path d="M29.1151 69.3977L22.4354 67.5137C21.9216 68.8839 21.0653 69.9115 20.2089 70.7679C19.1813 71.453 17.9824 71.7955 16.4409 71.7955C14.8995 71.7955 13.7006 71.2817 13.0155 70.4253C12.3304 69.3977 12.1591 67.685 12.6729 65.2871C13.0155 63.4032 13.7006 61.8617 14.3856 61.1766C15.5845 59.9777 17.126 59.2926 19.01 59.2926C19.6951 59.2926 20.3802 59.2926 21.0653 59.6352C21.5791 59.9777 22.0929 60.3203 22.4354 60.8341C22.6067 61.1766 22.778 61.6904 22.9493 62.3755L30.314 61.0053C29.8002 58.7788 28.7725 57.0661 27.0598 55.8672C25.5183 54.6683 22.9493 54.1544 19.6951 54.1544C15.5845 54.1544 12.1591 55.0108 9.41874 57.0661C6.67838 58.9501 4.96566 61.8617 4.28057 65.4584C3.76675 68.3701 3.93803 70.5966 4.96566 72.3093C5.9933 74.1933 7.1922 75.3922 8.90493 76.0773C10.6176 76.7624 12.8442 77.1049 15.7558 77.1049C18.1536 77.1049 20.2089 76.7624 21.7504 76.2486C23.2918 75.7348 24.8333 74.8784 26.0322 73.6795C27.2311 72.4806 28.2587 71.1104 29.1151 69.3977Z" fill="white"/>
<path d="M97.6242 83.7844C97.3673 83.9381 97.1107 84.0909 96.8543 84.2428L98.6518 81.2155H96.9391L95.5689 83.6133L94.8838 84.9835C94.8838 84.8122 94.8838 84.2984 94.7125 83.6133L94.37 81.0443H92.8285L93.8749 85.977C59.6756 105.515 30.3833 109.4 18.1538 83.7844C14.325 112.417 53.8595 119.207 94.1379 86.6962H95.3976L96.6129 84.6494C96.95 84.3638 97.2871 84.0755 97.6242 83.7844Z" fill="white"/>
<path d="M115.265 47.3034C115.265 44.2205 112.696 41.6514 109.613 41.6514C106.53 41.6514 103.961 44.0493 103.961 47.3034C103.961 50.3863 106.53 52.9554 109.613 52.9554C112.696 52.9554 115.265 50.3863 115.265 47.3034Z" fill="white"/>
<path d="M104.818 86.6962L106.53 78.8177H108.072L106.359 86.6962H104.818Z" fill="white"/>
<path fill-rule="evenodd" clip-rule="evenodd" d="M104.304 84.2984H100.365V84.4697C100.365 84.8122 100.536 85.1548 100.707 85.3261C100.878 85.4973 101.221 85.6686 101.563 85.6686C102.077 85.6686 102.42 85.3261 102.762 84.8122L104.133 84.9835C103.79 85.4973 103.447 86.0112 103.105 86.1824C102.591 86.525 102.077 86.525 101.563 86.525C100.707 86.525 100.193 86.3537 99.6794 85.8399C99.1656 85.3261 98.9943 84.641 98.9943 83.9559C98.9943 83.0995 99.1656 82.4144 99.6794 81.9006C100.193 81.0443 101.05 80.7017 102.249 80.7017C102.934 80.7017 103.447 80.873 103.961 81.3868C104.304 81.9006 104.646 82.4144 104.646 83.2708C104.475 83.6133 104.304 83.9559 104.304 84.2984ZM102.591 82.0719C102.743 82.3749 102.894 82.6779 102.927 83.0995H100.536C100.593 82.9853 100.65 82.8521 100.707 82.7189C100.821 82.4525 100.935 82.1861 101.05 82.0719C101.221 81.9006 101.563 81.7293 101.906 81.7293C102.077 81.7293 102.42 81.9006 102.591 82.0719Z" fill="white"/>
<path fill-rule="evenodd" clip-rule="evenodd" d="M91.9722 84.2984H88.0329V84.4697C88.0329 84.8122 88.2042 85.1548 88.3754 85.3261C88.5467 85.4973 88.8893 85.6686 89.2318 85.6686C89.7456 85.6686 90.0882 85.3261 90.4307 84.8122L91.8009 84.9835C91.4584 85.4973 91.1158 86.0112 90.7733 86.1824C90.2594 86.525 89.7456 86.525 89.2318 86.525C88.3754 86.525 87.8616 86.3537 87.3478 85.8399C86.834 85.4973 86.4915 84.9835 86.4915 84.1272C86.4915 83.2708 86.6627 82.5857 87.1765 82.0719C87.6904 81.2155 88.5467 80.873 89.7456 80.873C90.4307 80.873 90.9445 81.0443 91.4584 81.5581C91.8009 82.0719 92.1434 82.5857 92.1434 83.4421C91.9722 83.6133 91.9722 83.9559 91.9722 84.2984ZM90.602 83.2708C90.602 82.757 90.4307 82.4144 90.2594 82.0719C90.0882 81.9006 89.7456 81.7293 89.4031 81.7293C89.0605 81.7293 88.718 81.9006 88.5467 82.0719C88.3755 82.4144 88.2042 82.757 88.2042 83.2708H90.602Z" fill="white"/>
<path d="M83.2373 86.6962L84.95 78.8177H86.4915L84.7787 86.6962H83.2373Z" fill="white"/>
<path d="M113.039 73.3366L116.635 74.0217C116.635 73.3366 116.807 72.8228 117.149 72.4802C117.32 72.309 117.663 72.1377 118.177 72.1377C118.373 72.1377 118.544 72.1627 118.691 72.184C118.927 72.2185 119.098 72.2435 119.204 72.1377C119.376 72.4802 119.547 72.8228 119.547 73.1653C119.547 73.6791 119.376 74.0217 119.033 74.3642C118.691 74.7068 118.348 74.878 117.834 74.878H117.32L117.149 77.6184C117.663 77.4471 118.005 77.4471 118.348 77.4471C119.033 77.4471 119.376 77.6184 119.718 77.9609C120.061 78.3035 120.232 78.646 120.232 79.3311C120.232 80.0162 120.061 80.53 119.718 80.8726C119.376 81.2151 119.033 81.3864 118.519 81.3864C118.005 81.3864 117.663 81.2151 117.32 80.8726C116.978 80.53 116.807 80.0162 116.635 79.3311L112.867 79.8449C113.039 80.7013 113.381 81.3864 113.895 81.9002C114.237 82.414 114.923 82.7566 115.608 83.0991C116.293 83.4417 117.32 83.6129 118.519 83.6129C119.889 83.6129 120.746 83.4417 121.602 83.0991C122.287 82.5853 122.972 82.0715 123.315 81.3864C123.829 80.7013 124 80.0162 124 79.1598C124 78.646 123.829 78.1323 123.657 77.6185C123.486 77.2759 123.144 76.9333 122.63 76.5908C122.287 76.4195 121.945 76.2482 121.431 76.0769C121.945 75.7344 122.459 75.3918 122.801 74.878C123.144 74.3642 123.315 73.8504 123.315 73.3366C123.315 72.4802 122.972 71.6239 122.116 70.9388C121.431 70.2537 120.061 69.9111 118.348 69.9111C116.807 69.9111 115.608 70.0824 114.751 70.7675C113.895 71.2813 113.381 72.1377 113.039 73.3366Z" fill="white"/>
</svg>
