<svg width="91" height="118" viewBox="0 0 91 118" fill="none" xmlns="http://www.w3.org/2000/svg">
<path d="M39.0437 11.424C39.0041 11.1224 38.9623 10.8044 38.7597 10.4738C37.4287 12.584 36.3966 14.7156 35.6732 16.976C34.5206 20.5479 35.789 24.7087 38.6392 26.919C38.7344 26.621 38.6323 26.3546 38.5329 26.0951C38.4964 25.9996 38.4601 25.905 38.4342 25.8102C37.7277 23.228 38.2582 20.9342 40.0281 18.9288C40.5996 18.2803 41.2193 17.6723 41.8462 17.0762C42.4153 16.5336 43.0079 16.0147 43.6007 15.4957L43.6058 15.4911C44.7644 14.4768 45.9236 13.4621 46.91 12.2692C48.0674 10.8719 48.6268 9.31254 48.4147 7.49328C48.1663 5.37351 47.5562 3.3611 46.3457 1.59667C46.2735 1.4913 46.2059 1.39118 46.1423 1.2964L46.051 1.15937L45.8948 0.923377L45.8934 0.921281C45.487 0.305739 45.2861 0.0015186 45.0829 5.06413e-06C44.8843 -0.00139204 44.6835 0.286296 44.2866 0.855268C44.1501 1.05098 43.9903 1.27987 43.7994 1.54183L43.7891 1.55416L43.7826 1.56179C43.7683 1.57828 43.7543 1.59458 43.7439 1.61332C43.5952 1.89984 43.4392 2.1838 43.2833 2.46765C42.4607 3.96505 41.6394 5.46009 41.8969 7.31212C42.0226 8.21497 42.3578 9.03892 42.693 9.86309L42.7386 9.97489C42.7799 10.0766 42.8211 10.1784 42.8617 10.2804C42.9125 10.408 42.9625 10.5359 43.0109 10.6645C43.498 11.9569 43.0302 13.204 41.9451 13.5544C40.6092 13.986 39.5218 13.3279 39.1214 11.8639C39.0829 11.7217 39.0636 11.5747 39.0437 11.424Z" fill="#3f3f3f"/>
<path d="M54.3899 20.8793C54.0186 25.164 51.817 28.4236 47.4284 29.189C43.6451 29.8494 40.6116 28.0396 40.0136 24.5442C39.6712 22.5436 40.4019 20.8125 41.6991 19.2937C42.5066 18.3484 43.4386 17.5323 44.3704 16.7163L44.6898 16.4362C45.0894 16.085 45.4863 15.7311 45.8707 15.3642C48.0095 13.3255 49.331 10.9245 49.4346 7.93674C49.4377 7.86537 49.4564 7.79494 49.4815 7.70086C49.4958 7.64731 49.5121 7.58595 49.5287 7.51237C50.498 8.37078 50.9706 9.4533 51.3998 10.5358C52.2824 12.7699 52.8804 15.0351 51.8797 17.4147C51.4047 18.5425 50.5848 19.3962 49.7553 20.2546C49.6993 20.3126 49.6425 20.3701 49.5853 20.4272C49.5355 20.4771 49.4855 20.5267 49.4355 20.5764C48.9916 21.0168 48.5461 21.459 48.2724 22.031C47.9734 22.6581 47.9227 23.3257 48.4677 23.8407C49.0127 24.3581 49.7023 24.4106 50.3823 24.0935C52.3379 23.1779 53.6014 21.6709 54.1922 19.6132L54.4164 18.7381C54.5515 19.4749 54.6648 20.1854 54.3899 20.8793Z" fill="#3f3f3f"/>
<path d="M57.785 41.7611C58.272 41.0988 58.7592 40.4368 59.2466 39.775L60.7791 37.694C61.4066 36.842 62.0339 35.9901 62.6607 35.138C62.9736 34.981 63.2094 34.7743 63.1767 34.3893C63.637 33.6609 64.1563 32.9713 64.6792 32.277C65.4378 31.2695 66.2044 30.2515 66.8082 29.0912C65.997 29.202 65.1971 29.3158 64.4047 29.4284L64.3636 29.4344L64.3388 29.4379C62.5801 29.6883 60.8581 29.9335 59.1305 30.1307C56.4251 30.4408 54.1246 31.3587 52.5042 33.6811C50.9468 35.912 49.3464 38.113 47.7458 40.3146L47.742 40.3197C47.0343 41.293 46.3265 42.2665 45.6223 43.2426C45.0195 44.0771 44.9351 44.0747 44.3154 43.2139L42.5804 40.8041C40.7782 38.2999 38.9763 35.7963 37.1634 33.2996C36.0904 31.8213 34.6243 30.8747 32.8303 30.5075C31.7052 30.2782 30.563 30.1178 29.4212 29.9575L29.4184 29.9571C29.137 29.9176 28.8554 29.878 28.5743 29.8375C27.3621 29.6628 26.1474 29.4989 24.8807 29.3281L23.2525 29.1078C23.3517 29.2615 23.438 29.3986 23.5169 29.5243L23.5755 29.6174C23.6979 29.8117 23.805 29.979 23.9205 30.1403C26.0762 33.1303 28.2367 36.1156 30.3997 39.1033L33.4881 43.3694C37.2022 48.4991 40.9161 53.6287 44.624 58.7626C44.8845 59.1202 45.0243 59.1823 45.3185 58.7817C48.9476 53.8079 52.5862 48.8435 56.2273 43.8815L57.785 41.7611Z" fill="#3f3f3f"/>
<path d="M8.16716 95.7669C8.03841 96.8241 8.04512 97.8857 8.05183 98.9464C8.05507 99.455 8.05831 99.9636 8.04659 100.471C8.03694 100.848 8.01522 101.058 7.52813 101.053C5.69833 101.035 3.86853 101.037 1.97727 101.04L0 101.041C0.256963 100.544 0.506074 100.052 0.752244 99.5664L0.753949 99.563L0.754556 99.5618C1.33686 98.4129 1.90278 97.2963 2.5174 96.208C2.90565 95.5189 2.90806 94.9847 2.54154 94.2837C2.30901 93.8397 2.06696 93.3999 1.82484 92.9601L1.82374 92.9583C1.1875 91.8023 0.550591 90.645 0.0844197 89.4052H14.5523C13.9974 89.8628 13.4563 90.3114 12.9244 90.7524C11.5219 91.9153 10.1832 93.025 8.82303 94.1073C8.24669 94.5699 7.95011 95.0443 8.16716 95.7669Z" fill="#3f3f3f"/>
<path d="M89.9783 89.4625C89.726 89.9522 89.4772 90.439 89.2299 90.9231L89.2181 90.9465L89.217 90.9487C88.587 92.1816 87.9657 93.3976 87.3162 94.5985C87.0606 95.0706 87.0703 95.4187 87.3234 95.8861C87.9735 97.087 88.5958 98.3031 89.2452 99.5723C89.4919 100.054 89.7425 100.544 90 101.043H85.7995C85.6314 101.043 85.4634 101.043 85.2955 101.041L85.0682 101.04L84.6179 101.035L84.3258 101.033C84.1248 101.032 83.9239 101.031 83.723 101.032C83.3645 101.034 83.0061 101.04 82.6479 101.055C82.1029 101.079 81.9317 100.943 81.9414 100.378C81.9527 99.6287 81.9396 98.8782 81.9264 98.1276V98.1036C81.9116 97.2577 81.8968 96.4112 81.9173 95.5665C81.9342 94.8846 81.6472 94.4769 81.1529 94.0787C79.8195 93.0053 78.4974 91.9185 77.1318 90.796C76.5982 90.3574 76.058 89.9133 75.508 89.4625H89.9783Z" fill="#3f3f3f"/>
<path d="M48.4098 34.3869C47.9009 35.1191 47.3914 35.8513 46.8819 36.5834L46.8726 36.5968C46.3664 37.3242 45.8602 38.0515 45.3547 38.7789C45.3445 38.7936 45.3345 38.8086 45.3247 38.8236L45.2978 38.8652L45.2958 38.8682C45.1561 39.0858 45.0283 39.2848 44.7422 38.8886C43.575 37.2724 42.4029 35.6601 41.2308 34.048L41.216 34.0277C40.56 33.1255 39.9042 32.2234 39.2492 31.3206C39.2389 31.3058 39.2363 31.2857 39.2369 31.2581L39.2371 31.2514C39.2376 31.2369 39.2389 31.2204 39.2403 31.2017C39.2416 31.1855 39.243 31.1677 39.2441 31.1481L39.2454 31.1245L39.2464 31.0988L39.2468 31.0631C39.6247 31.1344 40.0046 31.1942 40.3832 31.2538L40.3843 31.254L40.3937 31.2554C41.2512 31.3902 42.1023 31.524 42.9096 31.7879C44.6433 32.3529 46.2541 31.9763 47.9083 31.5495C48.0673 31.5081 48.2262 31.4637 48.3873 31.4187L48.3942 31.4168L48.4009 31.415C49.0976 31.2206 49.8338 31.0152 50.7825 30.9748C50.4839 31.4046 50.2018 31.8102 49.9308 32.1997L48.4098 34.3869Z" fill="#3f3f3f"/>
<path d="M16.1758 102.709C16.5261 102.709 16.8332 102.644 17.0972 102.514C17.3656 102.379 17.5704 102.19 17.7114 101.947C17.857 101.699 17.9298 101.414 17.9298 101.09C17.9298 100.766 17.857 100.482 17.7114 100.239C17.5704 99.9918 17.3656 99.8029 17.0972 99.6723C16.8332 99.5374 16.5261 99.4699 16.1758 99.4699H15.0155V102.709H16.1758Z" fill="#3f3f3f"/>
<path d="M44.3045 100.408C44.3045 100.106 44.2045 99.8748 44.0042 99.7129C43.804 99.5509 43.5106 99.4699 43.1238 99.4699H42.0864V101.353H43.1238C43.5106 101.353 43.804 101.272 44.0042 101.11C44.2045 100.943 44.3045 100.709 44.3045 100.408Z" fill="#3f3f3f"/>
<path d="M68.8313 102.466C68.6265 102.673 68.3672 102.777 68.0532 102.777C67.7393 102.777 67.4799 102.673 67.2752 102.466C67.0749 102.259 66.9749 101.987 66.9749 101.65C66.9749 101.312 67.0749 101.04 67.2752 100.833C67.4799 100.626 67.7393 100.523 68.0532 100.523C68.3672 100.523 68.6265 100.626 68.8313 100.833C69.036 101.04 69.1385 101.312 69.1385 101.65C69.1385 101.987 69.036 102.259 68.8313 102.466Z" fill="#3f3f3f"/>
<path fill-rule="evenodd" clip-rule="evenodd" d="M9.18779 104.03C9.18808 104.986 9.18838 105.941 9.18961 106.897H80.9938C80.9944 106.021 80.994 105.145 80.9936 104.269V104.253C80.9924 101.506 80.9911 98.7578 81.0204 96.0101C81.0276 95.3686 80.8395 95.2422 80.2246 95.2422C56.7722 95.2566 33.3197 95.2566 9.86721 95.2422C9.31984 95.2422 9.1583 95.3567 9.16312 95.9194C9.18626 98.6236 9.18702 101.327 9.18779 104.03ZM25.6838 103.519C25.3152 103.519 24.958 103.467 24.6122 103.364C24.271 103.261 24.0003 103.123 23.8 102.952L24.1072 102.271C24.3029 102.424 24.5417 102.55 24.8238 102.649C25.1105 102.743 25.3971 102.79 25.6838 102.79C26.0387 102.79 26.3026 102.734 26.4755 102.622C26.6529 102.509 26.7417 102.361 26.7417 102.176C26.7417 102.041 26.6916 101.931 26.5915 101.846L26.5773 101.832L26.5649 101.822C26.5443 101.804 26.5227 101.787 26.4999 101.771C26.4846 101.761 26.4689 101.75 26.4526 101.74C26.3848 101.699 26.3083 101.665 26.223 101.636L26.1583 101.616L26.1334 101.608L26.0799 101.592L26.03 101.578C25.9698 101.56 25.9041 101.542 25.8331 101.524L25.7336 101.498L25.6745 101.484L25.6087 101.468C25.4259 101.425 25.2603 101.382 25.1119 101.339C24.9648 101.296 24.8347 101.254 24.7214 101.211C24.4985 101.126 24.3051 100.993 24.1413 100.813C23.9821 100.628 23.9024 100.381 23.9024 100.071C23.9024 99.8096 23.9729 99.5734 24.114 99.362C24.2596 99.146 24.4758 98.975 24.7624 98.849C25.0536 98.723 25.4085 98.66 25.8271 98.66C26.1183 98.66 26.405 98.696 26.6871 98.768C26.9692 98.84 27.2126 98.9435 27.4174 99.0785L27.1375 99.7601C27.0546 99.7119 26.9701 99.6684 26.8843 99.6294C26.7536 99.5701 26.6196 99.5215 26.4823 99.4834C26.2548 99.4204 26.0342 99.389 25.8203 99.389C25.4699 99.389 25.2083 99.4474 25.0354 99.5644C24.8671 99.6813 24.7829 99.8366 24.7829 100.03C24.7829 100.111 24.8002 100.184 24.8347 100.247C24.8576 100.289 24.8881 100.327 24.9262 100.361C24.9571 100.387 24.9905 100.412 25.0262 100.435C25.0499 100.45 25.0747 100.465 25.1005 100.478C25.1319 100.495 25.1648 100.511 25.1993 100.525C25.2171 100.533 25.2354 100.54 25.2541 100.547C25.2696 100.553 25.2855 100.558 25.3016 100.563C25.4517 100.613 25.6565 100.669 25.9158 100.732C26.2708 100.813 26.5619 100.898 26.7895 100.988C27.0169 101.074 27.2103 101.207 27.3696 101.387C27.5334 101.567 27.6153 101.81 27.6153 102.115C27.6153 102.376 27.5425 102.613 27.3969 102.824C27.2558 103.036 27.0397 103.204 26.7485 103.33C26.4573 103.456 26.1024 103.519 25.6838 103.519ZM16.2167 98.7276H14.1282V103.452H16.2167C16.7263 103.452 17.179 103.355 17.5749 103.162C17.9708 102.964 18.2779 102.687 18.4963 102.331C18.7147 101.972 18.8239 101.558 18.8239 101.09C18.8239 100.622 18.7147 100.21 18.4963 99.8546C18.2779 99.4947 17.9708 99.2179 17.5749 99.0244C17.179 98.8265 16.7263 98.7276 16.2167 98.7276ZM23.2819 103.452V102.716H20.586V101.414H22.8929V100.691H20.586V99.4631H23.1863V98.7276H19.6987V103.452H23.2819ZM29.3141 98.7276H28.4268V103.452H29.3141V98.7276ZM33.8005 101.036H34.64V102.919C34.3943 103.112 34.1076 103.261 33.78 103.364C33.4524 103.467 33.1157 103.519 32.7699 103.519C32.283 103.519 31.844 103.416 31.4527 103.209C31.0614 102.997 30.7542 102.707 30.5312 102.338C30.3083 101.969 30.1969 101.553 30.1969 101.09C30.1969 100.626 30.3083 100.21 30.5312 99.841C30.7542 99.4721 31.0614 99.1842 31.4527 98.9772C31.8485 98.7657 32.2922 98.66 32.7836 98.66C33.184 98.66 33.548 98.7252 33.8756 98.8557C34.2032 98.9863 34.4785 99.1774 34.7014 99.4294L34.1417 99.9694C33.7778 99.6094 33.3386 99.4294 32.8245 99.4294C32.4878 99.4294 32.1875 99.4991 31.9236 99.6386C31.6643 99.7781 31.4595 99.9738 31.3093 100.226C31.1637 100.478 31.0909 100.766 31.0909 101.09C31.0909 101.405 31.1637 101.688 31.3093 101.94C31.4595 102.192 31.6643 102.39 31.9236 102.534C32.1875 102.678 32.4856 102.75 32.8177 102.75C33.1908 102.75 33.5184 102.669 33.8005 102.507V101.036ZM39.9872 103.452V98.7276H39.1067V101.926L36.4723 98.7276H35.742V103.452H36.6224V100.253L39.2569 103.452H39.9872ZM44.325 103.452L43.349 102.068C43.3081 102.073 43.2466 102.075 43.1648 102.075H42.0864V103.452H41.1991V98.7276H43.1648C43.5788 98.7276 43.9383 98.795 44.2431 98.93C44.5526 99.065 44.7892 99.2585 44.9529 99.5104C45.1168 99.7623 45.1987 100.062 45.1987 100.408C45.1987 100.763 45.1099 101.069 44.9324 101.326C44.7595 101.582 44.5093 101.773 44.1817 101.899L45.2805 103.452H44.325ZM46.635 102.973C47.0035 103.337 47.5177 103.519 48.1774 103.519C48.8372 103.519 49.3491 103.337 49.7131 102.973C50.0816 102.604 50.2659 102.077 50.2659 101.393V98.7276H49.3923V101.36C49.3923 102.286 48.9897 102.75 48.1843 102.75C47.3744 102.75 46.9694 102.286 46.9694 101.36V98.7276H46.0821V101.393C46.0821 102.077 46.2664 102.604 46.635 102.973ZM52.9213 103.519C52.5528 103.519 52.1956 103.467 51.8498 103.364C51.6971 103.318 51.5586 103.265 51.4342 103.205C51.2804 103.131 51.1482 103.047 51.0376 102.952L51.3447 102.271C51.4497 102.353 51.5672 102.427 51.6971 102.494L51.7267 102.509C51.7422 102.516 51.758 102.524 51.7739 102.531L51.7933 102.54L51.8352 102.559L51.861 102.571L51.8891 102.583C51.9095 102.591 51.9302 102.6 51.9511 102.608C51.9871 102.622 52.0238 102.635 52.0614 102.649C52.1918 102.692 52.3223 102.725 52.4527 102.748C52.4966 102.756 52.5405 102.763 52.5843 102.769C52.6108 102.772 52.6372 102.775 52.6636 102.778L52.6912 102.78C52.7679 102.787 52.8446 102.79 52.9213 102.79C53.2762 102.79 53.5401 102.734 53.713 102.622C53.8905 102.509 53.9792 102.361 53.9792 102.176C53.9792 102.041 53.9291 101.931 53.8291 101.846C53.7335 101.756 53.6107 101.686 53.4605 101.636C53.3104 101.587 53.1056 101.531 52.8462 101.468C52.4822 101.382 52.1865 101.297 51.959 101.211C51.736 101.126 51.5427 100.993 51.3788 100.813C51.2196 100.628 51.1399 100.381 51.1399 100.071C51.1399 99.8096 51.2105 99.5734 51.3515 99.362C51.4972 99.146 51.7133 98.975 51.9999 98.849C52.2911 98.723 52.646 98.66 53.0646 98.66C53.3559 98.66 53.6425 98.696 53.9246 98.768C54.2067 98.84 54.4501 98.9435 54.6549 99.0785L54.3751 99.7601C54.1657 99.6386 53.9473 99.5464 53.7199 99.4834C53.4923 99.4204 53.2717 99.389 53.0578 99.389C52.7075 99.389 52.4459 99.4474 52.273 99.5644C52.1046 99.6813 52.0204 99.8366 52.0204 100.03L52.0205 100.042L52.021 100.056C52.0218 100.073 52.0234 100.089 52.0258 100.106C52.0292 100.129 52.0342 100.151 52.0409 100.172C52.0524 100.21 52.0689 100.244 52.0902 100.276C52.1104 100.307 52.1348 100.335 52.1637 100.361C52.2638 100.446 52.3889 100.514 52.5391 100.563C52.6893 100.613 52.894 100.669 53.1534 100.732C53.3447 100.776 53.5175 100.821 53.6718 100.867C53.8037 100.906 53.9221 100.947 54.027 100.988C54.2545 101.074 54.4478 101.207 54.6071 101.387C54.7709 101.567 54.8528 101.81 54.8528 102.115L54.8525 102.145L54.8513 102.179L54.8507 102.193L54.849 102.217L54.8466 102.245C54.8364 102.35 54.8137 102.451 54.7784 102.547C54.743 102.644 54.695 102.736 54.6344 102.824C54.4934 103.036 54.2772 103.204 53.986 103.33C53.6948 103.456 53.3399 103.519 52.9213 103.519ZM59.9096 103.452V98.7276H59.0223V100.678H56.5516V98.7276H55.6644V103.452H56.5516V101.427H59.0223V103.452H59.9096ZM61.2632 103.497L61.2356 103.495C61.1938 103.49 61.1537 103.48 61.1155 103.467C61.0425 103.441 60.9763 103.4 60.9168 103.344C60.8076 103.236 60.7529 103.101 60.7529 102.939C60.7529 102.862 60.7642 102.791 60.7867 102.728C60.8128 102.654 60.8539 102.589 60.91 102.534C60.9337 102.511 60.9586 102.491 60.9847 102.474C61.0165 102.452 61.0501 102.434 61.0854 102.42C61.1545 102.393 61.2302 102.379 61.3126 102.379C61.4719 102.379 61.6039 102.43 61.7085 102.534C61.7158 102.541 61.7229 102.548 61.7298 102.555L61.7386 102.565L61.7502 102.578C61.7557 102.585 61.761 102.591 61.7662 102.598C61.7916 102.632 61.8125 102.668 61.8288 102.707C61.8356 102.723 61.8416 102.739 61.8469 102.757C61.8525 102.775 61.8572 102.794 61.8609 102.814L61.8651 102.838C61.8699 102.87 61.8723 102.904 61.8723 102.939C61.8723 103.02 61.8584 103.095 61.8307 103.163L61.8243 103.178L61.8194 103.189C61.7925 103.246 61.7556 103.297 61.7085 103.344C61.5993 103.447 61.4673 103.499 61.3126 103.499C61.3051 103.499 61.2976 103.499 61.2902 103.499L61.286 103.499L61.2736 103.498L61.2632 103.497ZM63.2263 103.263C63.5266 103.42 63.8655 103.499 64.2432 103.499C64.598 103.499 64.9098 103.427 65.1782 103.283C65.4512 103.135 65.6582 102.925 65.7993 102.655L65.1441 102.277C65.1369 102.289 65.1297 102.3 65.1223 102.311C65.1108 102.328 65.099 102.345 65.0868 102.361C65.0251 102.443 64.9553 102.514 64.8776 102.573C64.8366 102.603 64.7936 102.631 64.7482 102.655C64.5935 102.736 64.4229 102.777 64.2364 102.777C63.9133 102.777 63.6471 102.676 63.4378 102.473C63.233 102.266 63.1307 101.992 63.1307 101.65C63.1307 101.308 63.2353 101.036 63.4446 100.833C63.6539 100.626 63.9179 100.523 64.2364 100.523C64.4229 100.523 64.5935 100.565 64.7482 100.651C64.9075 100.732 65.0395 100.856 65.1441 101.022L65.7993 100.644C65.6628 100.374 65.458 100.167 65.185 100.023C64.9166 99.8794 64.6026 99.8073 64.2432 99.8073C63.8609 99.8073 63.5197 99.8861 63.2194 100.044C62.9237 100.201 62.6916 100.419 62.5232 100.698C62.3549 100.977 62.2707 101.294 62.2707 101.65C62.2707 102.005 62.3549 102.325 62.5232 102.608C62.6916 102.887 62.9259 103.105 63.2263 103.263ZM68.0532 103.499C67.6847 103.499 67.3525 103.42 67.0568 103.263C66.761 103.105 66.529 102.887 66.3606 102.608C66.1968 102.325 66.1149 102.005 66.1149 101.65C66.1149 101.294 66.1968 100.977 66.3606 100.698C66.529 100.419 66.761 100.201 67.0568 100.044C67.3525 99.8861 67.6847 99.8073 68.0532 99.8073C68.4264 99.8073 68.7607 99.8861 69.0565 100.044C69.3523 100.201 69.582 100.419 69.7459 100.698C69.9142 100.977 69.9984 101.294 69.9984 101.65C69.9984 102.005 69.9142 102.325 69.7459 102.608C69.582 102.887 69.3523 103.105 69.0565 103.263C68.7607 103.42 68.4264 103.499 68.0532 103.499ZM76.4381 100.206C76.1697 99.9401 75.8057 99.8073 75.3461 99.8073C75.0594 99.8073 74.7978 99.8613 74.5612 99.9694C74.3763 100.05 74.2178 100.157 74.0856 100.29L74.0577 100.319L74.0359 100.343C74.0283 100.352 74.0208 100.36 74.0134 100.369L73.9965 100.389L73.981 100.408C73.9381 100.339 73.8895 100.276 73.8354 100.218C73.8144 100.196 73.7925 100.175 73.7698 100.154C73.7543 100.141 73.7384 100.127 73.7221 100.114C73.7102 100.105 73.6982 100.095 73.6859 100.086L73.6739 100.078L73.6629 100.07C73.605 100.029 73.5427 99.9935 73.476 99.9626C73.2667 99.8591 73.0255 99.8073 72.7525 99.8073C72.5023 99.8073 72.2748 99.8501 72.07 99.9356C71.8653 100.021 71.6947 100.145 71.5581 100.307V99.8478H70.746V103.452H71.5991V101.623C71.5991 101.272 71.6833 101.004 71.8516 100.82C72.0245 100.635 72.2566 100.543 72.5478 100.543C72.8117 100.543 73.0142 100.624 73.1552 100.786C73.2963 100.943 73.3668 101.18 73.3668 101.495V103.452H74.2199V101.623C74.2199 101.276 74.3064 101.011 74.4793 100.826C74.6522 100.638 74.882 100.543 75.1686 100.543C75.4325 100.543 75.635 100.624 75.7761 100.786C75.9171 100.943 75.9876 101.18 75.9876 101.495V103.452H76.8408V101.387C76.8408 100.86 76.7066 100.466 76.4381 100.206Z" fill="#3f3f3f"/>
<path d="M14.0453 60.5748L15.2363 64.1994H19.0906L15.9724 66.4396L17.1634 70.0643L14.0453 67.8241L10.9271 70.0643L12.1182 66.4396L9 64.1994H12.8543L14.0453 60.5748Z" fill="#3f3f3f"/>
<path d="M29.4777 60.5748L30.6687 64.1994H34.523L31.4048 66.4396L32.5958 70.0643L29.4777 67.8241L26.3595 70.0643L27.5506 66.4396L24.4324 64.1994H28.2867L29.4777 60.5748Z" fill="#3f3f3f"/>
<path d="M44.9101 60.5748L46.1011 64.1994H49.9554L46.8372 66.4396L48.0283 70.0643L44.9101 67.8241L41.792 70.0643L42.983 66.4396L39.8649 64.1994H43.7191L44.9101 60.5748Z" fill="#3f3f3f"/>
<path d="M60.3426 60.5748L61.5336 64.1994H65.3879L62.2697 66.4396L63.4607 70.0643L60.3426 67.8241L57.2244 70.0643L58.4155 66.4396L55.2973 64.1994H59.1516L60.3426 60.5748Z" fill="#3f3f3f"/>
<path d="M75.775 60.5748L76.966 64.1994H80.8203L77.7021 66.4396L78.8931 70.0643L75.775 67.8241L72.6568 70.0643L73.8479 66.4396L70.7297 64.1994H74.584L75.775 60.5748Z" fill="#3f3f3f"/>
<path d="M29 113.897H10V114.897H29V113.897Z" fill="#3f3f3f"/>
<path d="M61 113.897H80V114.897H61V113.897Z" fill="#3f3f3f"/>
<path d="M38.6674 117.897V116.766H35.2731L37.1966 114.935C37.6629 114.496 37.9783 114.105 38.1429 113.762C38.3074 113.419 38.3897 113.053 38.3897 112.662C38.3897 112.024 38.1566 111.52 37.6903 111.15C37.224 110.779 36.6 110.594 35.8183 110.594C35.2286 110.594 34.6937 110.701 34.2137 110.913C33.7406 111.119 33.3634 111.41 33.0823 111.787L34.0183 112.507C34.4091 112.007 34.9714 111.757 35.7051 111.757C36.144 111.757 36.4766 111.846 36.7029 112.024C36.9291 112.202 37.0423 112.459 37.0423 112.795C37.0423 113.022 36.984 113.251 36.8674 113.485C36.7577 113.711 36.5417 113.978 36.2194 114.287L33.36 117.002V117.897H38.6674Z" fill="#3f3f3f"/>
<path fill-rule="evenodd" clip-rule="evenodd" d="M40.8696 117.568C41.3222 117.856 41.8365 118 42.4125 118C42.9885 118 43.5028 117.856 43.9553 117.568C44.4148 117.273 44.7748 116.848 45.0353 116.293C45.2959 115.73 45.4262 115.065 45.4262 114.297C45.4262 113.529 45.2959 112.867 45.0353 112.312C44.7748 111.75 44.4148 111.325 43.9553 111.037C43.5028 110.742 42.9885 110.594 42.4125 110.594C41.8365 110.594 41.3222 110.742 40.8696 111.037C40.417 111.325 40.0605 111.75 39.7999 112.312C39.5393 112.867 39.409 113.529 39.409 114.297C39.409 115.065 39.5393 115.73 39.7999 116.293C40.0605 116.848 40.417 117.273 40.8696 117.568ZM43.6262 116.2C43.3313 116.625 42.9268 116.838 42.4125 116.838C41.905 116.838 41.5005 116.625 41.1988 116.2C40.9039 115.775 40.7565 115.141 40.7565 114.297C40.7565 113.454 40.9039 112.819 41.1988 112.394C41.5005 111.969 41.905 111.757 42.4125 111.757C42.9268 111.757 43.3313 111.969 43.6262 112.394C43.9279 112.819 44.0788 113.454 44.0788 114.297C44.0788 115.141 43.9279 115.775 43.6262 116.2Z" fill="#3f3f3f"/>
<path d="M47.4316 117.897H48.7687V110.697H45.9093V111.818H47.4316V117.897Z" fill="#3f3f3f"/>
<path fill-rule="evenodd" clip-rule="evenodd" d="M55.7307 114.811C55.5318 114.517 55.2438 114.283 54.8667 114.112C55.1616 113.947 55.3878 113.738 55.5456 113.485C55.7033 113.231 55.7821 112.936 55.7821 112.6C55.7821 112.195 55.669 111.842 55.4427 111.541C55.2164 111.239 54.901 111.006 54.4964 110.841C54.0918 110.677 53.6221 110.594 53.0873 110.594C52.5593 110.594 52.093 110.677 51.6884 110.841C51.2838 111.006 50.9684 111.239 50.7421 111.541C50.5227 111.842 50.413 112.195 50.413 112.6C50.413 112.936 50.4884 113.234 50.6393 113.495C50.797 113.749 51.0198 113.954 51.3078 114.112C50.9376 114.283 50.653 114.517 50.4541 114.811C50.2553 115.099 50.1558 115.439 50.1558 115.83C50.1558 116.269 50.2758 116.653 50.5158 116.982C50.7558 117.311 51.0953 117.565 51.5341 117.743C51.9798 117.914 52.4976 118 53.0873 118C53.677 118 54.1947 117.914 54.6404 117.743C55.0861 117.565 55.429 117.311 55.669 116.982C55.9158 116.653 56.0393 116.269 56.0393 115.83C56.0393 115.439 55.9364 115.099 55.7307 114.811ZM52.0896 111.911C52.3364 111.733 52.669 111.643 53.0873 111.643C53.5056 111.643 53.8381 111.733 54.085 111.911C54.3387 112.089 54.4656 112.339 54.4656 112.662C54.4656 112.97 54.3421 113.217 54.0953 113.402C53.8484 113.581 53.5124 113.67 53.0873 113.67C52.669 113.67 52.3364 113.581 52.0896 113.402C51.8496 113.217 51.7296 112.97 51.7296 112.662C51.7296 112.339 51.8496 112.089 52.0896 111.911ZM54.2598 116.642C53.9718 116.848 53.581 116.951 53.0873 116.951C52.5936 116.951 52.2061 116.848 51.925 116.642C51.6438 116.437 51.5033 116.152 51.5033 115.789C51.5033 115.432 51.6438 115.151 51.925 114.945C52.2061 114.739 52.5936 114.637 53.0873 114.637C53.581 114.637 53.9718 114.739 54.2598 114.945C54.5478 115.151 54.6918 115.432 54.6918 115.789C54.6918 116.152 54.5478 116.437 54.2598 116.642Z" fill="#3f3f3f"/>
<path d="M4.62637 78.2524C4.91824 78.348 5.14972 78.509 5.32082 78.7355C5.49192 78.9569 5.57747 79.2337 5.57747 79.5658C5.57747 80.0237 5.40134 80.3785 5.04908 80.6301C4.69682 80.8767 4.18353 81 3.50921 81H0.882369V75.7161H3.35824C3.98224 75.7161 4.46282 75.8394 4.79998 76.086C5.13714 76.3276 5.30572 76.6622 5.30572 77.0899C5.30572 77.3516 5.24534 77.5831 5.12456 77.7844C5.00379 77.9857 4.83772 78.1417 4.62637 78.2524ZM1.86366 76.4861V77.9429H3.25256C3.59476 77.9429 3.85643 77.8825 4.0376 77.7617C4.22379 77.6359 4.31689 77.4548 4.31689 77.2183C4.31689 76.9767 4.22379 76.7955 4.0376 76.6748C3.85643 76.549 3.59476 76.4861 3.25256 76.4861H1.86366ZM3.44882 80.2301C4.20869 80.2301 4.58863 79.9759 4.58863 79.4677C4.58863 78.9594 4.20869 78.7053 3.44882 78.7053H1.86366V80.2301H3.44882Z" fill="#3f3f3f"/>
<path d="M10.5876 80.1772V81H6.62475V75.7161H10.482V76.5389H7.60604V77.9127H10.1574V78.7204H7.60604V80.1772H10.5876Z" fill="#3f3f3f"/>
<path d="M13.3196 81.0755C12.912 81.0755 12.5169 81.0176 12.1345 80.9019C11.7571 80.7861 11.4576 80.6326 11.2362 80.4414L11.5759 79.679C11.7923 79.8501 12.0565 79.991 12.3685 80.1017C12.6855 80.2074 13.0025 80.2603 13.3196 80.2603C13.7121 80.2603 14.004 80.1974 14.1952 80.0715C14.3914 79.9457 14.4896 79.7797 14.4896 79.5734C14.4896 79.4224 14.4342 79.2991 14.3235 79.2035C14.2178 79.1028 14.082 79.0248 13.9159 78.9695C13.7498 78.9141 13.5234 78.8512 13.2365 78.7808C12.834 78.6852 12.5069 78.5895 12.2553 78.4939C12.0087 78.3983 11.7948 78.2499 11.6136 78.0486C11.4375 77.8423 11.3494 77.5655 11.3494 77.2183C11.3494 76.9264 11.4274 76.6622 11.5834 76.4257C11.7445 76.1841 11.9835 75.9929 12.3005 75.852C12.6226 75.7111 13.0151 75.6406 13.4781 75.6406C13.8002 75.6406 14.1172 75.6809 14.4292 75.7614C14.7412 75.8419 15.0104 75.9577 15.2369 76.1087L14.9274 76.871C14.6959 76.7352 14.4543 76.632 14.2027 76.5616C13.9511 76.4911 13.7071 76.4559 13.4705 76.4559C13.0831 76.4559 12.7937 76.5213 12.6025 76.6521C12.4163 76.783 12.3232 76.9566 12.3232 77.173C12.3232 77.3239 12.376 77.4472 12.4817 77.5428C12.5924 77.6385 12.7308 77.7139 12.8969 77.7693C13.0629 77.8246 13.2894 77.8875 13.5762 77.958C13.9687 78.0486 14.2908 78.1442 14.5424 78.2448C14.794 78.3405 15.0079 78.4889 15.184 78.6902C15.3652 78.8915 15.4558 79.1632 15.4558 79.5054C15.4558 79.7973 15.3753 80.0615 15.2142 80.298C15.0582 80.5345 14.8192 80.7232 14.4971 80.8641C14.1751 81.005 13.7825 81.0755 13.3196 81.0755Z" fill="#3f3f3f"/>
<path d="M17.427 76.5465H15.6757V75.7161H20.1595V76.5465H18.4083V81H17.427V76.5465Z" fill="#3f3f3f"/>
<path d="M30.704 75.7161L28.9528 81H27.9111L26.6053 77.0899L25.2767 81H24.2275L22.4763 75.7161H23.4953L24.8088 79.7319L26.175 75.7161H27.0808L28.4169 79.7545L29.768 75.7161H30.704Z" fill="#3f3f3f"/>
<path d="M35.4664 80.1772V81H31.5035V75.7161H35.3607V76.5389H32.4848V77.9127H35.0361V78.7204H32.4848V80.1772H35.4664Z" fill="#3f3f3f"/>
<path d="M40.3043 78.2524C40.5962 78.348 40.8276 78.509 40.9987 78.7355C41.1698 78.9569 41.2554 79.2337 41.2554 79.5658C41.2554 80.0237 41.0793 80.3785 40.727 80.6301C40.3747 80.8767 39.8615 81 39.1871 81H36.5603V75.7161H39.0362C39.6602 75.7161 40.1407 75.8394 40.4779 76.086C40.8151 76.3276 40.9836 76.6622 40.9836 77.0899C40.9836 77.3516 40.9233 77.5831 40.8025 77.7844C40.6817 77.9857 40.5156 78.1417 40.3043 78.2524ZM37.5416 76.4861V77.9429H38.9305C39.2727 77.9429 39.5344 77.8825 39.7155 77.7617C39.9017 77.6359 39.9948 77.4548 39.9948 77.2183C39.9948 76.9767 39.9017 76.7955 39.7155 76.6748C39.5344 76.549 39.2727 76.4861 38.9305 76.4861H37.5416ZM39.1267 80.2301C39.8866 80.2301 40.2665 79.9759 40.2665 79.4677C40.2665 78.9594 39.8866 78.7053 39.1267 78.7053H37.5416V80.2301H39.1267Z" fill="#3f3f3f"/>
<path d="M43.9407 81.0755C43.5331 81.0755 43.138 81.0176 42.7556 80.9019C42.3782 80.7861 42.0787 80.6326 41.8573 80.4414L42.197 79.679C42.4134 79.8501 42.6776 79.991 42.9896 80.1017C43.3066 80.2074 43.6236 80.2603 43.9407 80.2603C44.3332 80.2603 44.6251 80.1974 44.8163 80.0715C45.0125 79.9457 45.1107 79.7797 45.1107 79.5734C45.1107 79.4224 45.0553 79.2991 44.9446 79.2035C44.8389 79.1028 44.7031 79.0248 44.537 78.9695C44.3709 78.9141 44.1445 78.8512 43.8576 78.7808C43.4551 78.6852 43.128 78.5895 42.8763 78.4939C42.6298 78.3983 42.4159 78.2499 42.2347 78.0486C42.0586 77.8423 41.9705 77.5655 41.9705 77.2183C41.9705 76.9264 42.0485 76.6622 42.2045 76.4257C42.3656 76.1841 42.6046 75.9929 42.9216 75.852C43.2437 75.7111 43.6362 75.6406 44.0992 75.6406C44.4212 75.6406 44.7383 75.6809 45.0503 75.7614C45.3623 75.8419 45.6315 75.9577 45.858 76.1087L45.5485 76.871C45.317 76.7352 45.0754 76.632 44.8238 76.5616C44.5722 76.4911 44.3281 76.4559 44.0916 76.4559C43.7041 76.4559 43.4148 76.5213 43.2236 76.6521C43.0374 76.783 42.9443 76.9566 42.9443 77.173C42.9443 77.3239 42.9971 77.4472 43.1028 77.5428C43.2135 77.6385 43.3519 77.7139 43.518 77.7693C43.684 77.8246 43.9105 77.8875 44.1973 77.958C44.5898 78.0486 44.9119 78.1442 45.1635 78.2448C45.4151 78.3405 45.629 78.4889 45.8051 78.6902C45.9863 78.8915 46.0769 79.1632 46.0769 79.5054C46.0769 79.7973 45.9963 80.0615 45.8353 80.298C45.6793 80.5345 45.4403 80.7232 45.1182 80.8641C44.7961 81.005 44.4036 81.0755 43.9407 81.0755Z" fill="#3f3f3f"/>
<path d="M47.0499 75.7161H48.0312V81H47.0499V75.7161Z" fill="#3f3f3f"/>
<path d="M50.5322 76.5465H48.781V75.7161H53.2648V76.5465H51.5135V81H50.5322V76.5465Z" fill="#3f3f3f"/>
<path d="M57.9641 80.1772V81H54.0012V75.7161H57.8584V76.5389H54.9825V77.9127H57.5338V78.7204H54.9825V80.1772H57.9641Z" fill="#3f3f3f"/>
<path d="M61.1441 75.7161H63.454C64.0176 75.7161 64.5183 75.8268 64.9561 76.0483C65.3939 76.2647 65.7336 76.5741 65.9751 76.9767C66.2167 77.3743 66.3374 77.8347 66.3374 78.3581C66.3374 78.8814 66.2167 79.3444 65.9751 79.747C65.7336 80.1445 65.3939 80.454 64.9561 80.6754C64.5183 80.8918 64.0176 81 63.454 81H61.1441V75.7161ZM63.4087 80.1697C63.7961 80.1697 64.1358 80.0967 64.4277 79.9508C64.7246 79.7998 64.9511 79.5885 65.1071 79.3167C65.2681 79.0399 65.3486 78.7204 65.3486 78.3581C65.3486 77.9957 65.2681 77.6787 65.1071 77.407C64.9511 77.1302 64.7246 76.9188 64.4277 76.7729C64.1358 76.6219 63.7961 76.5465 63.4087 76.5465H62.1254V80.1697H63.4087Z" fill="#3f3f3f"/>
<path d="M71.3433 80.1772V81H67.3804V75.7161H71.2376V76.5389H68.3617V77.9127H70.9131V78.7204H68.3617V80.1772H71.3433Z" fill="#3f3f3f"/>
<path d="M74.0752 81.0755C73.6676 81.0755 73.2726 81.0176 72.8901 80.9019C72.5127 80.7861 72.2133 80.6326 71.9919 80.4414L72.3316 79.679C72.548 79.8501 72.8121 79.991 73.1241 80.1017C73.4412 80.2074 73.7582 80.2603 74.0752 80.2603C74.4678 80.2603 74.7596 80.1974 74.9509 80.0715C75.1471 79.9457 75.2452 79.7797 75.2452 79.5734C75.2452 79.4224 75.1899 79.2991 75.0792 79.2035C74.9735 79.1028 74.8376 79.0248 74.6716 78.9695C74.5055 78.9141 74.279 78.8512 73.9922 78.7808C73.5896 78.6852 73.2625 78.5895 73.0109 78.4939C72.7643 78.3983 72.5505 78.2499 72.3693 78.0486C72.1932 77.8423 72.1051 77.5655 72.1051 77.2183C72.1051 76.9264 72.1831 76.6622 72.3391 76.4257C72.5001 76.1841 72.7392 75.9929 73.0562 75.852C73.3783 75.7111 73.7708 75.6406 74.2338 75.6406C74.5558 75.6406 74.8729 75.6809 75.1849 75.7614C75.4969 75.8419 75.7661 75.9577 75.9925 76.1087L75.683 76.871C75.4516 76.7352 75.21 76.632 74.9584 76.5616C74.7068 76.4911 74.4627 76.4559 74.2262 76.4559C73.8387 76.4559 73.5494 76.5213 73.3581 76.6521C73.172 76.783 73.0788 76.9566 73.0788 77.173C73.0788 77.3239 73.1317 77.4472 73.2374 77.5428C73.3481 77.6385 73.4865 77.7139 73.6525 77.7693C73.8186 77.8246 74.045 77.8875 74.3319 77.958C74.7244 78.0486 75.0465 78.1442 75.2981 78.2448C75.5497 78.3405 75.7636 78.4889 75.9397 78.6902C76.1209 78.8915 76.2114 79.1632 76.2114 79.5054C76.2114 79.7973 76.1309 80.0615 75.9699 80.298C75.8139 80.5345 75.5748 80.7232 75.2528 80.8641C74.9307 81.005 74.5382 81.0755 74.0752 81.0755Z" fill="#3f3f3f"/>
<path d="M77.1845 75.7161H78.1658V81H77.1845V75.7161Z" fill="#3f3f3f"/>
<path d="M83.2031 78.2977H84.1315V80.4037C83.8598 80.6201 83.5427 80.7861 83.1804 80.9019C82.8181 81.0176 82.4457 81.0755 82.0633 81.0755C81.5248 81.0755 81.0392 80.9597 80.6064 80.7283C80.1736 80.4917 79.834 80.1672 79.5874 79.7545C79.3408 79.3419 79.2175 78.8764 79.2175 78.3581C79.2175 77.8397 79.3408 77.3743 79.5874 76.9616C79.834 76.549 80.1736 76.2269 80.6064 75.9954C81.0442 75.7589 81.5349 75.6406 82.0784 75.6406C82.5212 75.6406 82.9238 75.7136 83.2861 75.8596C83.6484 76.0055 83.9529 76.2194 84.1995 76.5012L83.5805 77.105C83.1779 76.7025 82.6923 76.5012 82.1236 76.5012C81.7513 76.5012 81.4191 76.5792 81.1273 76.7352C80.8404 76.8912 80.614 77.1101 80.4479 77.3919C80.2869 77.6737 80.2064 77.9957 80.2064 78.3581C80.2064 78.7103 80.2869 79.0274 80.4479 79.3092C80.614 79.591 80.8404 79.8124 81.1273 79.9734C81.4191 80.1345 81.7487 80.215 82.1161 80.215C82.5287 80.215 82.8911 80.1244 83.2031 79.9432V78.2977Z" fill="#3f3f3f"/>
<path d="M90.1209 75.7161V81H89.3132L86.3995 77.4221V81H85.4258V75.7161H86.2335L89.1471 79.2941V75.7161H90.1209Z" fill="#3f3f3f"/>
<path d="M33.1465 90.7772H30.5046L29.9838 92H28.9723L31.35 86.7161H32.3162L34.7015 92H33.6749L33.1465 90.7772ZM32.822 90.0072L31.8256 87.6974L30.8367 90.0072H32.822Z" fill="#3f3f3f"/>
<path d="M38.9079 89.2977H39.8363V91.4037C39.5646 91.6201 39.2476 91.7861 38.8853 91.9019C38.5229 92.0176 38.1505 92.0755 37.7681 92.0755C37.2296 92.0755 36.744 91.9597 36.3113 91.7283C35.8785 91.4917 35.5388 91.1672 35.2922 90.7545C35.0456 90.3419 34.9224 89.8764 34.9224 89.3581C34.9224 88.8397 35.0456 88.3743 35.2922 87.9616C35.5388 87.549 35.8785 87.2269 36.3113 86.9954C36.7491 86.7589 37.2397 86.6406 37.7832 86.6406C38.226 86.6406 38.6286 86.7136 38.9909 86.8596C39.3533 87.0055 39.6577 87.2194 39.9043 87.5012L39.2853 88.105C38.8827 87.7025 38.3971 87.5012 37.8285 87.5012C37.4561 87.5012 37.124 87.5792 36.8321 87.7352C36.5453 87.8912 36.3188 88.1101 36.1527 88.3919C35.9917 88.6737 35.9112 88.9957 35.9112 89.3581C35.9112 89.7103 35.9917 90.0274 36.1527 90.3092C36.3188 90.591 36.5453 90.8124 36.8321 90.9734C37.124 91.1345 37.4536 91.215 37.8209 91.215C38.2336 91.215 38.5959 91.1244 38.9079 90.9432V89.2977Z" fill="#3f3f3f"/>
<path d="M45.0935 91.1772V92H41.1306V86.7161H44.9878V87.5389H42.1119V88.9127H44.6633V89.7204H42.1119V91.1772H45.0935Z" fill="#3f3f3f"/>
<path d="M50.8825 86.7161V92H50.0749L47.1612 88.4221V92H46.1874V86.7161H46.9951L49.9088 90.2941V86.7161H50.8825Z" fill="#3f3f3f"/>
<path d="M54.7441 92.0755C54.2106 92.0755 53.7275 91.9597 53.2948 91.7283C52.867 91.4917 52.5299 91.1672 52.2833 90.7545C52.0417 90.3419 51.921 89.8764 51.921 89.3581C51.921 88.8397 52.0443 88.3743 52.2908 87.9616C52.5374 87.549 52.8746 87.2269 53.3023 86.9954C53.7351 86.7589 54.2182 86.6406 54.7516 86.6406C55.1844 86.6406 55.5794 86.7161 55.9367 86.8671C56.294 87.0181 56.5959 87.237 56.8425 87.5238L56.2085 88.1201C55.826 87.7075 55.3555 87.5012 54.7969 87.5012C54.4346 87.5012 54.11 87.5817 53.8232 87.7427C53.5363 87.8987 53.3124 88.1176 53.1514 88.3994C52.9903 88.6812 52.9098 89.0008 52.9098 89.3581C52.9098 89.7154 52.9903 90.0349 53.1514 90.3167C53.3124 90.5985 53.5363 90.8199 53.8232 90.981C54.11 91.137 54.4346 91.215 54.7969 91.215C55.3555 91.215 55.826 91.0061 56.2085 90.5885L56.8425 91.1923C56.5959 91.4792 56.2915 91.6981 55.9292 91.849C55.5719 92 55.1768 92.0755 54.7441 92.0755Z" fill="#3f3f3f"/>
<path d="M59.9887 90.1356V92H59.0074V90.1507L56.9316 86.7161H57.9808L59.5282 89.2901L61.0907 86.7161H62.0569L59.9887 90.1356Z" fill="#3f3f3f"/>
</svg>
