<svg width="128" height="128" viewBox="0 0 128 128" fill="none" xmlns="http://www.w3.org/2000/svg">
<path d="M42.7221 52.0686C42.6106 52.2126 42.5031 52.3625 42.3408 52.5824C42.3799 52.5857 42.4156 52.5889 42.4482 52.5919L42.4989 52.5967L42.5066 52.5974L42.5077 52.5976L42.5724 52.6036C42.5924 52.6054 42.6112 52.607 42.6291 52.6085C42.6788 52.6123 42.722 52.6144 42.7651 52.6136L45.058 52.6132C47.7336 52.6125 50.4098 52.6118 53.0848 52.6194C53.3801 52.6194 53.5795 52.5104 53.779 52.3119C58.0785 48.0628 62.8454 44.4015 67.9662 41.186C74.6101 37.0168 81.6607 33.6748 88.9987 30.9108C95.1675 28.5887 101.467 26.6987 107.886 25.2019C110.987 24.4778 114.102 23.8355 117.248 23.3372C117.531 23.2919 117.814 23.2452 118.097 23.1983C118.398 23.1485 118.699 23.0983 119 23.0491C118.9 23.0005 118.808 22.9985 118.715 23.0005C118.484 23.0059 118.253 23.0107 118.023 23.0152L117.429 23.0265H117.418C116.443 23.0445 115.469 23.0624 114.495 23.1056C112.747 23.1834 110.999 23.271 109.255 23.415C107.231 23.5825 105.21 23.7849 103.196 24.034C100.904 24.3182 98.6088 24.6082 96.3348 25.0053C93.5095 25.4997 90.6881 26.0466 87.8901 26.6773C82.2356 27.9522 76.7022 29.6359 71.3194 31.7906C65.5319 34.1088 60.0201 36.9447 54.9248 40.5456C50.3065 43.8098 46.1907 47.5995 42.7221 52.0686Z" fill="#3f3f3f"/>
<path fill-rule="evenodd" clip-rule="evenodd" d="M74.3794 60.3176H76.4187C76.5497 60.8353 76.5399 72.9246 76.4129 73.3587H74.3657L74.363 73.4645C74.3404 74.3334 74.3193 75.146 74.3794 75.9747C74.4264 75.9788 74.468 75.9834 74.5063 75.9877L74.5426 75.9917C74.5558 75.9931 74.5686 75.9944 74.5811 75.9956L74.5911 75.9966C74.6267 75.9998 74.6603 76.0019 74.6942 76.0019C75.5544 76.0014 76.4144 76.0019 77.2744 76.0025H77.2919C79.5066 76.0038 81.7206 76.0051 83.9347 75.9883C84.8106 75.9805 85.6748 75.817 86.4999 75.5017C87.7689 75.0151 88.594 74.1217 88.9557 72.8176C89.2333 71.8152 89.3096 70.7953 89.1298 69.7695C88.8931 68.4186 88.1638 67.4279 86.8949 66.8595C86.6899 66.7674 86.4765 66.6974 86.2632 66.6273L86.2623 66.627L86.1747 66.5982L86.1091 66.5763C86.0626 66.5608 86.0163 66.5449 85.9701 66.5286C85.8786 66.4964 85.7862 66.4662 85.6847 66.4323C85.6452 66.419 85.6042 66.4052 85.5614 66.3904C85.624 66.3398 85.6435 66.3107 85.6709 66.3029C85.8058 66.26 85.9408 66.225 86.0756 66.1841C87.5108 65.7364 88.3613 64.7885 88.5959 63.2995C88.7133 62.554 88.7113 61.8144 88.5901 61.0708C88.3515 59.611 87.546 58.6417 86.1108 58.2096C85.2212 57.941 84.3081 57.8417 83.3833 57.8417C80.5228 57.8398 77.6603 57.8398 74.7998 57.8417C74.7114 57.8417 74.623 57.8509 74.5304 57.8605L74.5231 57.8612C74.4765 57.866 74.4288 57.8709 74.3794 57.8748V60.3176ZM80.1471 73.3231L80.1466 73.3229L80.1449 73.3226L80.138 73.3213L80.0932 73.3135L80.0821 73.3117L80.0594 73.3081C80.0594 71.5057 80.0594 69.7286 80.0574 67.9204L80.0816 67.9172L80.1016 67.9145L80.1235 67.9112L80.1745 67.9033L80.1756 67.9032C80.2587 67.8902 80.3399 67.8775 80.4211 67.8775C80.5132 67.8771 80.6054 67.8765 80.6976 67.8759L80.9101 67.8744C81.5591 67.8698 82.2088 67.8651 82.8573 67.8853C83.2268 67.897 83.5984 67.971 83.962 68.0508C84.9103 68.261 85.4402 68.878 85.5888 69.8142C85.6807 70.4001 85.6787 70.9918 85.5126 71.5699C85.3073 72.2862 84.8693 72.8156 84.1575 73.0648C83.7782 73.1971 83.3755 73.3081 82.9785 73.3256C82.3275 73.3556 81.6744 73.351 81.0216 73.3464L80.6093 73.3439L80.473 73.3433L80.3096 73.3431C80.2585 73.3431 80.2073 73.3339 80.1471 73.3231ZM80.9921 65.402L80.9876 65.4019C80.7715 65.3984 80.5532 65.3948 80.3322 65.3931C80.2417 65.3924 80.1508 65.3919 80.0594 65.3919C80.0594 63.6849 80.0594 62.0324 80.0574 60.3565C80.1019 60.3513 80.1432 60.3451 80.1823 60.3393L80.1835 60.3392L80.2121 60.335C80.2283 60.3326 80.2441 60.3304 80.2598 60.3283L80.2781 60.326L80.2915 60.3244L80.3108 60.3224C80.3407 60.3194 80.3701 60.3176 80.3996 60.3176C80.5248 60.3169 80.6499 60.3161 80.7751 60.3153C81.4007 60.3112 82.0261 60.3072 82.6501 60.3234C82.9433 60.3312 83.2445 60.3799 83.526 60.4616C84.7637 60.8197 85.1039 61.6957 85.1234 62.7993C85.1293 63.0601 85.0902 63.3287 85.0354 63.5856C84.8165 64.627 84.095 65.3004 82.9785 65.3783C82.3266 65.4239 81.67 65.4131 80.9921 65.402Z" fill="#3f3f3f"/>
<path fill-rule="evenodd" clip-rule="evenodd" d="M67.538 73.5611C67.6451 73.5504 67.7508 73.5392 67.8554 73.5279C67.9754 73.5149 68.0941 73.5017 68.2115 73.4886L68.2125 73.4885C68.7141 73.4326 69.1946 73.3792 69.6771 73.3548C70.1497 73.3305 70.6243 73.3361 71.1098 73.3419L71.2316 73.3433C71.3132 73.3443 71.3951 73.3452 71.4774 73.3458L71.5852 73.3465C71.6444 73.3468 71.7037 73.347 71.7633 73.347V76H71.251C70.8379 76 70.4246 76.0019 70.0112 76.0038C69.0336 76.0083 68.0556 76.0128 67.0785 75.9922C66.1987 75.9747 65.3384 76.0876 64.4741 76.2239C62.9002 76.4711 61.3262 76.4633 59.7816 76.0506C57.1009 75.3343 55.3412 73.6098 54.4086 71.0385C53.8552 69.5125 53.7144 67.9223 53.777 66.3087C53.8259 65.0591 53.9999 63.8309 54.4594 62.6611C55.5954 59.7745 57.6718 58.0227 60.7768 57.5517C62.3859 57.3084 63.9932 57.3551 65.5436 57.8826C68.1343 58.7663 69.8257 60.5609 70.6449 63.1399C71.2803 65.1408 71.3019 67.1807 70.7603 69.2108C70.3027 70.9276 69.3642 72.3193 67.8548 73.3042C67.757 73.3684 67.671 73.4521 67.538 73.5611ZM67.54 66.8771V66.4566C67.5302 65.3121 67.3699 64.1929 66.9417 63.1263C66.4998 62.0265 65.8252 61.1156 64.7518 60.5453C63.913 60.0995 63.0077 59.9808 62.0731 60.0353C60.9743 60.0995 60.0045 60.4733 59.2087 61.2499C58.4383 62.0032 57.9886 62.9336 57.7188 63.9554C57.3277 65.4348 57.3121 66.9394 57.4666 68.4459C57.5585 69.3451 57.7774 70.221 58.1802 71.0405C58.7531 72.2064 59.5997 73.0784 60.8667 73.4871C61.467 73.6818 62.0868 73.7402 62.7164 73.713C64.2141 73.6468 65.4244 73.0473 66.2964 71.8152C66.6777 71.276 66.9475 70.6843 67.1392 70.0556C67.452 69.0181 67.5673 67.9573 67.54 66.8771Z" fill="#3f3f3f"/>
<path d="M29.2074 57.9332V59.0485C29.1156 59.0427 29.0764 59.0504 29.0608 59.0388C29.0509 59.0298 29.041 59.0205 29.0312 59.0112L29.0134 58.9939L29.0029 58.9836L28.9901 58.9707L28.9759 58.9563L28.9583 58.938L28.938 58.9168C28.9266 58.9047 28.9153 58.8926 28.9041 58.8805L28.8653 58.8383C28.2435 58.159 27.4594 57.7639 26.5698 57.5673C25.9089 57.4213 25.2403 57.4116 24.5657 57.4563C22.542 57.5887 20.8644 58.8558 20.2329 60.7692C19.8379 61.9662 19.8164 63.1847 20.1273 64.4012C20.4362 65.61 21.1186 66.5326 22.28 67.0659C22.5342 67.1827 22.7825 67.3189 23.0465 67.4104C23.6153 67.6084 24.1854 67.8007 24.7557 67.9931C24.9239 68.0499 25.0921 68.1066 25.2603 68.1635C25.5254 68.2532 25.7905 68.3433 26.0556 68.4343C26.7829 68.6834 27.479 68.9929 28.0851 69.4756C28.4957 69.8026 28.8398 70.1918 28.9454 70.7174C29.1663 71.8152 28.7636 73.1524 27.2737 73.6137C26.5249 73.8473 25.7682 73.8259 25.0096 73.639C23.9419 73.3743 23.2537 72.7145 22.9741 71.6653C22.8928 71.3635 22.864 71.0462 22.8354 70.73C22.8262 70.6282 22.817 70.5265 22.806 70.4255C22.7994 70.3642 22.7974 70.3025 22.7976 70.241C22.7977 70.1901 22.7993 70.1394 22.8009 70.0893C22.8025 70.0383 22.804 69.988 22.804 69.9388C22.1979 69.8454 20.2094 69.8649 19.8731 69.9602C19.7754 70.4624 19.7968 75.6866 19.9044 76.0623H22.7473V74.6686C22.7735 74.6596 22.7988 74.6504 22.8238 74.6413L22.8607 74.6278L22.8644 74.6319C22.9088 74.68 22.9531 74.728 22.9973 74.7763C23.061 74.8458 23.1245 74.9155 23.1873 74.9859C23.7992 75.6691 24.5559 76.1071 25.4592 76.2861C26.5014 76.4944 27.5494 76.4866 28.5759 76.2531C30.6172 75.7859 31.9291 74.5344 32.4375 72.4984C32.6623 71.5991 32.6975 70.6804 32.5528 69.7656C32.3202 68.3019 31.6261 67.1398 30.2711 66.4314L30.2261 66.4079L30.1564 66.3713L30.0729 66.3271L30.0722 66.3267C29.8204 66.1935 29.5683 66.0601 29.3052 65.9583C28.8487 65.7823 28.3897 65.6138 27.9307 65.4452C27.3949 65.2484 26.8592 65.0517 26.3274 64.843C25.7193 64.6036 25.1112 64.3525 24.5383 64.0411C23.7738 63.6265 23.4825 62.9336 23.5489 62.0811C23.6135 61.2597 24.0378 60.6738 24.771 60.3351C25.9383 59.7959 27.7586 60.0062 28.6189 61.4971C28.9044 61.9896 29.0588 62.5229 29.1449 63.0796C29.1495 63.1099 29.1563 63.14 29.1642 63.1697C29.1759 63.2133 29.19 63.256 29.2037 63.2973C29.2118 63.322 29.2198 63.3461 29.227 63.3696H32.0504C32.1814 62.918 32.1735 58.2583 32.0484 57.8845C31.4892 57.8008 29.6005 57.8223 29.2074 57.9332Z" fill="#3f3f3f"/>
<path d="M50.4863 63.936H47.6336V60.4246C47.2132 60.3 45.3949 60.2883 44.9315 60.3876C44.8318 60.7302 44.8102 72.7572 44.9178 73.3295H47.1976C47.2328 74.2268 47.2191 75.0735 47.2054 75.9104C46.8554 76.0175 39.9026 76.0584 39.0462 75.9591C38.9983 75.411 39.004 74.8613 39.01 74.2965V74.2947C39.0133 73.9835 39.0166 73.6677 39.011 73.3451H41.3026C41.4238 72.8779 41.4238 60.8159 41.3045 60.3506C40.5567 60.3045 39.8006 60.317 39.0108 60.3302H39.0094C38.8683 60.3326 38.7262 60.335 38.5828 60.337V63.8523C38.2074 63.9769 36.2835 63.9983 35.7301 63.8932V57.8709H50.4863C50.5978 58.2582 50.5997 63.5292 50.4863 63.936Z" fill="#3f3f3f"/>
<path d="M9.00587 60.339H11.0608C11.1723 60.8295 11.1625 72.9227 11.0491 73.3509H9V75.9397C9.52203 76.0389 16.4299 76.0214 16.774 75.9241C16.8542 75.2798 16.8288 73.7207 16.7271 73.3665C16.4147 73.3383 16.0985 73.3433 15.7825 73.3482C15.4219 73.3538 15.0616 73.3595 14.7073 73.3159C14.5959 72.6677 14.6292 60.703 14.7582 60.3156H16.7819V57.9001C16.2148 57.7969 9.33434 57.8203 9.00587 57.9195V60.339Z" fill="#3f3f3f"/>
<path d="M29.7745 81.9152H34.25C31.5107 89.3954 29.8019 97.0351 29.8116 105C29.0706 101.08 28.8125 97.1208 28.832 93.1384C28.8496 89.3876 29.1605 85.6641 29.7745 81.9152Z" fill="#3f3f3f"/>
<path d="M42.9802 86.8962H42.0358C42.0222 86.9901 42.0099 87.0823 41.9977 87.1731L41.9974 87.1754L41.997 87.1787C41.982 87.2911 41.9672 87.4016 41.9506 87.5111C41.9448 87.5489 41.9389 87.5866 41.9326 87.6241L41.9266 87.6597L41.9224 87.6838L41.9163 87.718C41.912 87.7419 41.9075 87.7658 41.9028 87.7896C41.8344 88.136 41.6447 88.3229 41.3651 88.3541C41.0855 88.3852 40.7942 88.212 40.6847 87.8888C40.6026 87.6417 40.5517 87.373 40.5459 87.1142C40.5302 86.2577 40.5322 85.4033 40.5439 84.5468C40.5459 84.3327 40.583 84.1108 40.6514 83.9084C40.7668 83.5678 41.0112 83.4121 41.3202 83.4315C41.5998 83.451 41.7894 83.6262 41.8833 83.9746C41.9242 84.1226 41.9522 84.2752 41.9828 84.4317C41.9917 84.4769 42.0007 84.5224 42.0104 84.5682H42.9469C43.0838 83.2057 42.4307 82.5011 41.1285 82.5673C41.0972 82.5686 41.066 82.5699 41.0347 82.5718C41.0191 82.5727 41.0034 82.5738 40.9877 82.5751C40.364 82.6218 39.928 82.9254 39.7149 83.5132C39.6426 83.7157 39.5702 83.9318 39.5624 84.1439C39.5233 85.1833 39.492 86.2227 39.492 87.264C39.492 87.5852 39.5702 87.9161 39.6699 88.2237C39.9984 89.23 41.5509 89.6445 42.3701 88.9613C42.3812 88.9518 42.3921 88.942 42.4029 88.9321C42.4153 88.9206 42.4275 88.9089 42.4395 88.8969C42.4489 88.8875 42.4582 88.8779 42.4674 88.8682C42.49 88.8443 42.5117 88.8195 42.5324 88.794C42.9958 88.2353 43.0056 87.5813 42.9802 86.8962Z" fill="#3f3f3f"/>
<path fill-rule="evenodd" clip-rule="evenodd" d="M74.1975 84.5391V82.7113H75.0696C75.1752 83.0208 75.2104 88.358 75.1106 89.0081C74.5338 89.191 74.3109 89.1404 74.1252 88.7589C74.0333 88.8446 73.9492 88.9244 73.8613 89.0003C73.347 89.4402 72.6627 89.2962 72.4007 88.6714C72.301 88.4319 72.2306 88.1633 72.2227 87.9064C72.1993 87.0986 72.2032 86.2908 72.2188 85.485C72.2227 85.2573 72.2794 85.0218 72.3596 84.8057C72.6079 84.14 73.3177 83.9512 73.8788 84.3911C73.937 84.4377 73.9924 84.4884 74.0475 84.5386L74.0822 84.5702C74.1232 84.5585 74.1604 84.5488 74.1975 84.5391ZM74.1799 86.7307H74.1917C74.1917 86.6425 74.1922 86.5543 74.1927 86.4662C74.194 86.2605 74.1952 86.0547 74.1897 85.849C74.1858 85.6952 74.1741 85.5376 74.1311 85.3916C74.0431 85.0879 73.8436 84.9381 73.6031 84.9634C73.3783 84.9887 73.2082 85.1502 73.2004 85.4558C73.1808 86.2441 73.175 87.0344 73.1984 87.8207C73.2101 88.21 73.4467 88.4572 73.697 88.4475C73.9512 88.4377 74.1506 88.1886 74.1741 87.7974C74.1818 87.6808 74.1851 87.564 74.186 87.447C74.187 87.3153 74.185 87.1834 74.1831 87.0514C74.1821 86.9855 74.1812 86.9195 74.1806 86.8536C74.1802 86.8126 74.1799 86.7717 74.1799 86.7307Z" fill="#3f3f3f"/>
<path fill-rule="evenodd" clip-rule="evenodd" d="M87.8178 87.5502H86.9751L86.97 87.585L86.9658 87.6159L86.9611 87.6522L86.9552 87.6991L86.9548 87.7028L86.9547 87.7039C86.9426 87.8008 86.9313 87.8914 86.9105 87.9804C86.8363 88.286 86.6603 88.4455 86.41 88.4514C86.15 88.4572 85.9232 88.2743 85.888 87.9531C85.8635 87.7217 85.8692 87.4875 85.8751 87.2524C85.8776 87.1493 85.8801 87.0461 85.8801 86.9429C86.2127 86.8653 86.5425 86.8712 86.8737 86.8772C87.2319 86.8837 87.5918 86.8901 87.9586 86.7911C87.9446 86.614 87.9335 86.4395 87.9225 86.2671C87.898 85.8844 87.8743 85.5121 87.8217 85.1444C87.7513 84.6558 87.4521 84.3113 86.9497 84.2315C86.6173 84.179 86.2634 84.1712 85.9329 84.2237C85.4031 84.3094 85.0883 84.6656 84.971 85.1833C84.926 85.378 84.8967 85.5804 84.8928 85.7809C84.883 86.3084 84.8693 86.8378 84.8967 87.3653C84.9142 87.702 84.9729 88.0446 85.0687 88.3697C85.1782 88.7433 85.4324 89.0353 85.8215 89.1385C86.1832 89.2339 86.5528 89.2708 86.9321 89.1774C87.6203 89.0081 88.0505 88.2412 87.8178 87.5502ZM86.9379 86.0826H85.8763C85.8763 85.9966 85.8737 85.9154 85.8713 85.8378C85.8663 85.6801 85.8618 85.537 85.8801 85.3974C85.9212 85.1152 86.1187 84.9653 86.3924 84.9595C86.6916 84.9536 86.893 85.1094 86.9321 85.4169C86.9508 85.5581 86.9466 85.7031 86.9421 85.8592C86.9401 85.931 86.9379 86.0053 86.9379 86.0826Z" fill="#3f3f3f"/>
<path fill-rule="evenodd" clip-rule="evenodd" d="M100.887 87.5502C101.053 88.4261 100.621 89.0918 99.7976 89.1988C98.7358 89.337 98.0887 88.9088 98.0124 87.9239C97.944 87.0461 97.944 86.1546 98.0163 85.2787C98.073 84.5702 98.5736 84.2004 99.297 84.1692C99.4691 84.1614 99.6431 84.1595 99.8112 84.179C100.41 84.251 100.789 84.5858 100.875 85.1833C100.926 85.5382 100.947 85.8968 100.97 86.2677V86.2687C100.98 86.4405 100.99 86.615 101.004 86.793C100.639 86.8882 100.279 86.8817 99.9208 86.8752C99.5903 86.8692 99.2605 86.8633 98.9275 86.937C98.9275 87.0403 98.9249 87.1436 98.9224 87.2466C98.9166 87.4815 98.9108 87.7153 98.9353 87.9453C98.9705 88.2704 99.1934 88.4533 99.4535 88.4494C99.7174 88.4455 99.8953 88.2723 99.9657 87.9356C99.9772 87.8818 99.9851 87.8271 99.992 87.7701C99.9958 87.738 99.9994 87.7051 100.003 87.6712L100.008 87.6235C100.011 87.5996 100.013 87.5752 100.017 87.5502H100.887ZM99.9822 85.8411C99.9871 85.6794 99.9914 85.5347 99.9716 85.3935C99.9325 85.1133 99.735 84.9653 99.4574 84.9595C99.1777 84.9556 98.9705 85.0977 98.9294 85.376C98.9202 85.4371 98.9156 85.499 98.9138 85.562C98.9113 85.6531 98.9146 85.7467 98.9181 85.844V85.845C98.9208 85.9222 98.9236 86.0019 98.9236 86.0845H99.9774C99.9774 86.0523 99.9778 86.0207 99.9783 85.9898C99.9793 85.9385 99.9807 85.889 99.9822 85.8411Z" fill="#3f3f3f"/>
<path fill-rule="evenodd" clip-rule="evenodd" d="M45.9795 87.5661C45.9707 87.36 45.969 87.1441 45.958 86.9098C46.0652 86.9043 46.159 86.8982 46.245 86.8926C46.2946 86.8893 46.3415 86.8862 46.3869 86.8836C46.4582 86.8794 46.5257 86.8762 46.5934 86.8748C46.712 86.8728 46.8306 86.8728 46.9491 86.8732C47.1901 86.8741 47.4309 86.8767 47.6708 86.8689C47.9856 86.8592 48.0325 86.8202 48.0286 86.5166C48.0227 86.0981 48.0051 85.6777 47.9543 85.2631C47.8761 84.6189 47.4909 84.251 46.8652 84.1731C46.0205 84.068 45.4183 84.3346 45.1642 84.9283C45.1493 84.9637 45.1345 85.0001 45.1217 85.0373C45.1092 85.0736 45.0986 85.1107 45.0918 85.1483L45.0853 85.1832L45.0768 85.2274L45.0695 85.2652C45.0413 85.4093 45.0132 85.5536 45.0116 85.6991C45.0019 86.3064 44.9999 86.9117 45.0156 87.5171C45.0214 87.7487 45.0566 87.9842 45.1192 88.2061C45.2287 88.5896 45.4183 88.936 45.8172 89.0898C46.2826 89.2708 46.7655 89.2922 47.2367 89.1229C47.8233 88.9127 48.1439 88.1147 47.8917 87.5521H47.1018L47.0883 87.6156L47.081 87.6494C47.0727 87.6877 47.0654 87.7214 47.0588 87.7545C47.0525 87.7839 47.047 87.8135 47.0416 87.843L47.0413 87.8447L47.0409 87.8471L47.037 87.868L47.0313 87.898C47.0227 87.9418 47.0132 87.9851 47.0001 88.027C46.9102 88.3132 46.7518 88.4475 46.5133 88.4494C46.2826 88.4514 46.0597 88.3015 46.0205 88.0329C45.9974 87.8805 45.9863 87.7263 45.9795 87.5661ZM47.051 85.831L47.0509 85.8338L47.0508 85.8382L47.0506 85.8442V85.8461C47.0479 85.9231 47.0451 86.0023 47.0451 86.0845H45.9912C45.9912 85.9529 45.9844 85.8263 45.9827 85.7032C45.9812 85.597 45.9835 85.4935 45.9971 85.3916C46.0342 85.1074 46.2298 84.9614 46.5093 84.9595C46.7851 84.9575 46.9981 85.1016 47.0393 85.376C47.0566 85.491 47.0574 85.6087 47.0542 85.7318C47.0534 85.7645 47.0522 85.7976 47.051 85.831Z" fill="#3f3f3f"/>
<path fill-rule="evenodd" clip-rule="evenodd" d="M70.0915 86.8631H68.1422C68.0385 87.3069 68.0424 87.702 68.1461 88.0932C68.2087 88.3287 68.4198 88.4611 68.6388 88.4475C68.8891 88.4319 69.0377 88.2859 69.1022 88.0543C69.1312 87.9499 69.1538 87.8431 69.1772 87.7322L69.1793 87.7219C69.1915 87.6645 69.2039 87.606 69.2176 87.5463H70.0212C70.3145 88.4942 69.6145 89.3156 68.586 89.2319C67.7238 89.1638 67.2643 88.8543 67.1606 87.8188C67.0824 87.0344 67.1137 86.2344 67.1489 85.4422C67.1841 84.6597 67.7003 84.1984 68.4863 84.1653C68.6271 84.1595 68.7678 84.1595 68.9086 84.1712C69.5363 84.2218 69.9215 84.539 70.0485 85.1541C70.158 85.6894 70.1346 86.2324 70.0915 86.8631ZM69.0807 86.0903C69.1961 85.7594 69.2097 85.5259 69.1296 85.3079C69.0396 85.0626 68.8636 84.9458 68.5958 84.9575C68.3299 84.9692 68.1696 85.0938 68.1129 85.3663C68.064 85.6057 68.0288 85.8509 68.1773 86.0903H69.0807Z" fill="#3f3f3f"/>
<path d="M90.7604 87.6241H89.906C89.7124 88.2918 90.1621 88.9244 90.6157 89.1229C91.2003 89.3779 92.0939 89.2474 92.4576 88.8368C92.5084 88.7784 92.5534 88.7141 92.5905 88.646C92.9092 88.0602 92.7841 87.2582 92.2855 86.8067C92.1315 86.6669 91.9648 86.5421 91.798 86.4172L91.7975 86.4168C91.702 86.3453 91.6064 86.2738 91.5132 86.1993C91.3294 86.0534 91.1437 85.9113 90.9755 85.7497C90.8152 85.596 90.7507 85.378 90.8836 85.2008C90.9696 85.084 91.1554 85.0004 91.3079 84.977C91.5093 84.9439 91.6618 85.0743 91.7361 85.2689C91.7691 85.3564 91.7981 85.4455 91.8254 85.5289L91.8269 85.5333C91.8428 85.5819 91.858 85.6286 91.873 85.6719H92.7313C92.7861 84.8329 92.4361 84.358 91.6696 84.2042C91.257 84.1206 90.8601 84.1984 90.4828 84.3639C90.0448 84.5585 89.8297 84.942 89.8689 85.4188C89.9079 85.9035 90.0761 86.3278 90.4691 86.6392C90.7858 86.8923 91.1065 87.1414 91.433 87.3808C91.6168 87.5171 91.7556 87.6728 91.7791 87.9083C91.8104 88.2139 91.6422 88.4475 91.3626 88.4845C91.0987 88.5175 90.8973 88.3697 90.8308 88.0738C90.8084 87.9756 90.795 87.8748 90.7814 87.7731L90.7812 87.7721L90.7808 87.7692L90.7763 87.7363L90.7696 87.6865L90.767 87.6684C90.7648 87.6537 90.7627 87.6389 90.7604 87.6241Z" fill="#3f3f3f"/>
<path d="M82.3979 89.0625H81.4144V83.5872H80.1396V82.76C80.4465 82.6549 83.0626 82.6276 83.6805 82.7308V83.5444H82.48C82.4781 83.5679 82.4762 83.5909 82.4742 83.6136L82.4669 83.6933L82.4608 83.758L82.4604 83.7617L82.4598 83.768C82.4529 83.84 82.4463 83.9085 82.4415 83.9751C82.4363 84.0449 82.4331 84.1128 82.4331 84.1809C82.4323 84.4536 82.4318 84.7264 82.4314 84.9991C82.4305 85.5836 82.4304 86.168 82.4302 86.7525C82.4301 87.324 82.4299 87.8954 82.4291 88.4669C82.4291 88.5413 82.4259 88.6156 82.4213 88.6931C82.4146 88.8063 82.4048 88.9262 82.3979 89.0625Z" fill="#3f3f3f"/>
<path d="M60.6281 89.0606H61.5882V85.1055C61.7524 85.0627 61.8697 85.0334 61.9968 85.0004C61.9995 84.9629 62.0029 84.9277 62.0062 84.894L62.0066 84.8896C62.0127 84.8269 62.0183 84.769 62.0183 84.7103C62.0183 84.6979 62.0181 84.6854 62.0178 84.673C62.0175 84.6623 62.0171 84.6516 62.0166 84.641L62.0159 84.6279L62.0145 84.6056L62.013 84.5829C62.0112 84.5577 62.0091 84.5326 62.007 84.5077L62.0067 84.5044C62.0037 84.4689 62.0008 84.4337 61.9988 84.3989C61.9297 84.3708 61.8654 84.3445 61.8004 84.3179C61.7254 84.2872 61.6495 84.2562 61.5647 84.2218C61.5682 84.1616 61.5675 84.0998 61.5668 84.0382C61.5652 83.8946 61.5636 83.7519 61.6155 83.632C61.6233 83.6142 61.6341 83.5978 61.6472 83.5824C61.6701 83.5556 61.7002 83.532 61.7346 83.5099C61.7752 83.4837 61.8218 83.4597 61.8696 83.435L61.8725 83.4336L61.8772 83.4312C61.8914 83.4238 61.9058 83.4164 61.9201 83.4088C61.9388 83.3989 61.9574 83.3888 61.9758 83.3782C61.9916 83.3691 62.0072 83.3597 62.0223 83.3498L62.0224 83.3123L62.0229 83.2641C62.0237 83.1895 62.0245 83.1115 62.0203 83.0344C62.0175 82.998 62.0135 82.9616 62.0088 82.9243L62.0054 82.898L62.0006 82.8621L61.9952 82.8232L61.9948 82.8203C61.9897 82.7832 61.9843 82.7445 61.9792 82.7035C61.9475 82.7035 61.9162 82.703 61.8853 82.7022L61.8325 82.7006L61.8031 82.6996L61.7729 82.6985C61.7088 82.6961 61.6463 82.6939 61.585 82.6939C61.5587 82.6939 61.5327 82.6943 61.5069 82.6953C61.457 82.6973 61.4079 82.7016 61.3594 82.7094C60.8745 82.7853 60.7279 82.9352 60.6458 83.4276C60.6289 83.5286 60.6168 83.6308 60.6067 83.7351C60.6017 83.7863 60.5973 83.8379 60.5929 83.8902L60.5774 84.0809L60.5702 84.1647L60.5636 84.2373C60.3935 84.3249 60.2078 84.3853 60.2 84.6753C60.1911 84.9572 60.3568 85.035 60.5304 85.1164L60.5605 85.1306L60.5851 85.1424C60.6054 85.7372 60.6018 86.3276 60.5983 86.9163C60.5939 87.6319 60.5895 88.3451 60.6281 89.0606Z" fill="#3f3f3f"/>
<path d="M54.8857 84.2334C54.9569 84.2589 55.018 84.2812 55.0727 84.3011C55.1109 84.3151 55.146 84.3278 55.1792 84.3397C55.2146 84.3525 55.2479 84.3642 55.2806 84.3755C55.3979 84.9283 55.3901 84.9439 54.8993 85.121V86.4952L54.8991 86.6204L54.8987 86.724L54.898 86.8622C54.8961 87.2057 54.8942 87.5498 54.9071 87.8927C54.9111 88.0153 54.9776 88.2217 55.0557 88.2431C55.3565 88.3247 55.3497 88.5333 55.3426 88.7488L55.3418 88.7752L55.3412 88.7959C55.3405 88.8294 55.3365 88.8632 55.3309 88.8977C55.3267 88.9238 55.3217 88.9504 55.3165 88.9776L55.3163 88.978C55.31 89.0109 55.3035 89.0448 55.2982 89.0801C55.0362 89.1968 54.7742 89.1716 54.5161 89.1229C54.1915 89.0606 53.9921 88.8523 53.9491 88.5234C53.9276 88.356 53.9295 88.1828 53.9295 88.0134L53.9289 87.61C53.9287 87.4111 53.9287 87.2121 53.9287 87.0128L53.9292 85.9297C53.9294 85.6585 53.9295 85.3865 53.9295 85.1132C53.8783 85.093 53.8302 85.0742 53.7829 85.0557L53.7611 85.0471L53.7409 85.0393L53.6254 84.9941L53.5522 84.9653V84.393C53.9022 84.3424 53.955 84.0972 53.9334 83.7896C53.9201 83.6122 53.9232 83.4339 53.9265 83.2459C53.928 83.1596 53.9295 83.0712 53.9295 82.9799H54.8857V84.2334Z" fill="#3f3f3f"/>
<path d="M94.6312 84.2644C94.5222 84.3077 94.4286 84.3449 94.3248 84.3872C94.287 84.6797 94.269 84.8196 94.327 84.9123C94.3803 84.9971 94.4974 85.0423 94.7217 85.1288L94.7211 86.4012C94.7203 87.056 94.7195 87.7109 94.7237 88.3658C94.7276 88.8231 94.9055 89.0645 95.3142 89.1307C95.4778 89.1574 95.646 89.1511 95.8225 89.1446L95.8248 89.1444C95.9049 89.1415 95.9868 89.1385 96.0708 89.1385V88.3677C95.6876 88.3054 95.6759 88.0212 95.6856 87.7078C95.6966 87.4039 95.6941 87.099 95.6917 86.7946C95.6906 86.6642 95.6896 86.5339 95.6896 86.4037V85.1152C95.7807 85.0811 95.8566 85.0524 95.9277 85.0254C95.9786 85.0062 96.027 84.9879 96.0767 84.9692V84.4106L96.0371 84.3906C95.9927 84.368 95.95 84.3459 95.9066 84.3235L95.9013 84.3208L95.8865 84.3132C95.817 84.2773 95.7453 84.2403 95.6622 84.1984V82.9916H94.7139V84.2315L94.6312 84.2644Z" fill="#3f3f3f"/>
<path d="M105.036 84.2646V85.376C104.097 85.6271 104.054 85.6835 104.054 86.6334V88.9867C103.683 89.1209 103.618 89.1248 103.163 89.0489C103.067 88.7258 103.037 85.0782 103.127 84.393C103.385 84.284 103.653 84.3191 103.949 84.3678C103.992 84.5682 104.031 84.7551 104.081 84.9984C104.155 84.9186 104.218 84.8304 104.279 84.7436C104.458 84.4916 104.628 84.2516 105.036 84.2646Z" fill="#3f3f3f"/>
<path d="M51.024 84.3541H50.2048C50.1109 85.0529 50.1402 88.722 50.24 89.0606H51.1237V88.1983C51.1237 88.0373 51.1233 87.8762 51.1228 87.7152L51.1226 87.675C51.1211 87.1956 51.1196 86.7164 51.1296 86.2383C51.1394 85.7692 51.2841 85.6018 51.7279 85.4714C51.8106 85.4463 51.8944 85.4241 51.9777 85.4021L51.9885 85.3993C52.0177 85.3915 52.0469 85.3838 52.0759 85.376V84.2821C51.7047 84.2383 51.5457 84.4629 51.3826 84.6932C51.2992 84.811 51.2147 84.9303 51.1002 85.0159C51.0729 84.7707 51.0494 84.576 51.024 84.3541Z" fill="#3f3f3f"/>
<path d="M57.3942 84.3483H58.1978C58.2936 84.7064 58.3171 88.4144 58.2291 89.0528H57.4216C57.2906 88.7297 57.2593 84.8952 57.3942 84.3483Z" fill="#3f3f3f"/>
<path d="M63.9775 89.0567H64.8417C64.9492 88.576 64.9375 84.7434 64.8339 84.3639C64.5504 84.3094 64.263 84.2763 63.9775 84.397V89.0567Z" fill="#3f3f3f"/>
<path fill-rule="evenodd" clip-rule="evenodd" d="M91.824 60.2495C91.7107 60.0353 91.5992 59.8232 91.4838 59.6032C91.5698 59.5059 91.6676 59.4242 91.7263 59.321C91.871 59.068 91.7458 58.7312 91.4799 58.6884C91.1945 58.6417 90.8973 58.597 90.6255 58.7254C90.5082 59.4748 90.5434 60.0568 90.7467 60.3215C90.7565 60.2748 90.7661 60.2323 90.7751 60.1925C90.7911 60.1213 90.8051 60.0589 90.8152 59.9964C90.8347 59.8777 90.8445 59.759 90.8562 59.6519C91.0928 59.578 91.216 59.6889 91.3118 59.8407C91.3643 59.9223 91.4084 60.0101 91.4526 60.0981C91.4643 60.1214 91.4759 60.1446 91.4877 60.1677C91.5542 60.2981 91.6442 60.3526 91.824 60.2495ZM90.868 59.4144V58.8266C91.0537 58.848 91.1984 58.8403 91.3196 58.8909C91.4017 58.9259 91.4975 59.0427 91.4956 59.1225C91.4956 59.2023 91.3959 59.3132 91.3118 59.3482C91.2305 59.3827 91.1376 59.3901 91.0297 59.3987C90.9791 59.4027 90.9253 59.407 90.868 59.4144Z" fill="#3f3f3f"/>
<path fill-rule="evenodd" clip-rule="evenodd" d="M89.73 59.465C89.7363 59.4202 89.7415 59.375 89.7466 59.3295C89.7534 59.2704 89.7602 59.2111 89.7696 59.1524C89.7775 59.1035 89.7872 59.055 89.8004 59.0076C90.0135 58.2251 90.7272 57.7327 91.437 57.867C92.2386 58.0188 92.8037 58.8344 92.6883 59.6791C92.5827 60.4519 92.0235 61.0164 91.3431 61.0708C90.3303 61.1507 89.7105 60.2631 89.73 59.465ZM92.4732 59.5001C92.4869 58.7546 91.9414 58.1298 91.2473 58.1006C90.5629 58.0714 89.9783 58.6806 89.9647 59.4358C89.951 60.2008 90.4847 60.81 91.1808 60.8295C91.8749 60.847 92.4595 60.2455 92.4732 59.5001Z" fill="#3f3f3f"/>
<path d="M58.2506 82.7055H57.3649L57.3557 82.7631C57.306 83.0744 57.2616 83.3524 57.3942 83.6184H58.2506V82.7055Z" fill="#3f3f3f"/>
<path d="M64.8828 83.632H63.9951V82.7074H64.83C64.9501 82.93 64.9271 83.1584 64.9018 83.4101C64.8946 83.482 64.8871 83.5559 64.8828 83.632Z" fill="#3f3f3f"/>
</svg>
