<svg width="128" height="128" viewBox="0 0 128 128" fill="none" xmlns="http://www.w3.org/2000/svg">
<path d="M20.7582 73.0866C23.1028 73.1181 25.3752 72.2754 27.1323 70.7227L28.3142 69.6674L33.6329 74.9017L32.3666 76.0837C29.1916 78.9625 25.0436 80.5311 20.7582 80.4737C11.2183 80.4737 4 73.2555 4 63.6311C4 54.0067 11.0494 46.9995 20.7582 46.9995C25.0034 46.9399 29.1161 48.4765 32.2822 51.3051L33.5907 52.5293L28.3564 57.7636L27.1745 56.7505C25.3891 55.2224 23.1081 54.397 20.7582 54.4288C15.2284 54.4288 11.3871 58.2279 11.3871 63.6733C11.3871 69.1187 15.3551 73.0866 20.7582 73.0866Z" fill="#3f3f3f"/>
<path d="M53.4007 75.1261H54.3095C54.8805 75.1174 55.3294 74.967 55.6563 74.675C55.9832 74.3829 56.1466 73.9885 56.1466 73.4916C56.1466 72.3758 55.5909 71.8179 54.4795 71.8179C53.9564 71.8179 53.538 71.9683 53.2242 72.269C52.9147 72.5654 52.76 72.9599 52.76 73.4524H51.5505C51.5505 72.6983 51.8251 72.0729 52.3742 71.576C52.9278 71.0748 53.6295 70.8241 54.4795 70.8241C55.3773 70.8241 56.0813 71.0617 56.5912 71.5368C57.1012 72.0119 57.3562 72.6722 57.3562 73.5178C57.3562 73.9318 57.221 74.3328 56.9508 74.7207C56.6849 75.1087 56.321 75.3985 55.859 75.5903C56.382 75.7559 56.7852 76.0305 57.0685 76.4141C57.3562 76.7976 57.5 77.2662 57.5 77.8197C57.5 78.674 57.221 79.3518 56.6631 79.853C56.1052 80.3543 55.3795 80.6049 54.486 80.6049C53.5925 80.6049 52.8646 80.363 52.3023 79.8792C51.7444 79.3954 51.4655 78.7568 51.4655 77.9636H52.6815C52.6815 78.4648 52.845 78.8658 53.1719 79.1665C53.4988 79.4673 53.9368 79.6177 54.486 79.6177C55.0701 79.6177 55.5168 79.4651 55.8263 79.16C56.1357 78.8549 56.2905 78.4169 56.2905 77.8459C56.2905 77.2923 56.1205 76.8674 55.7805 76.571C55.4405 76.2746 54.9502 76.122 54.3095 76.1133H53.4007V75.1261Z" fill="#3f3f3f"/>
<path d="M48.0984 80.4741H46.8824V72.4129L44.4437 73.3085V72.2102L47.9088 70.9091H48.0984V80.4741Z" fill="#3f3f3f"/>
<path fill-rule="evenodd" clip-rule="evenodd" d="M67.3723 76.6233H69.6083L71.6742 80.4741H73.0211V80.3957L70.7851 76.3552C71.3561 76.1373 71.8007 75.8082 72.1188 75.368C72.4414 74.9278 72.6026 74.4113 72.6026 73.8185C72.6026 72.8858 72.3128 72.1753 71.7331 71.6871C71.1578 71.199 70.334 70.9549 69.2617 70.9549H66.1105V80.4741H67.3723V76.6233ZM69.301 75.5968H67.3723V71.9879H69.2944C69.957 71.9922 70.4626 72.1513 70.8112 72.4652C71.1643 72.779 71.3408 73.2301 71.3408 73.8185C71.3408 74.359 71.1556 74.7905 70.7851 75.113C70.419 75.4356 69.9243 75.5968 69.301 75.5968Z" fill="#3f3f3f"/>
<path d="M80.4181 76.0741H76.2926V79.4477H81.085V80.4741H75.0374V70.9549H81.0196V71.9879H76.2926V75.0476H80.4181V76.0741Z" fill="#3f3f3f"/>
<path d="M89.1881 70.9549L86.4683 78.807L83.7616 70.9549H82.3952L85.9191 80.4741H87.0306L90.5611 70.9549H89.1881Z" fill="#3f3f3f"/>
<path d="M93.8588 80.4741H92.6035V70.9549H93.8588V80.4741Z" fill="#3f3f3f"/>
<path d="M98.0849 76.0741H102.21V75.0476H98.0849V71.9879H102.812V70.9549H96.8296V80.4741H102.877V79.4477H98.0849V76.0741Z" fill="#3f3f3f"/>
<path d="M107.162 77.4732L107.345 78.7285L107.613 77.5974L109.496 70.9549H110.555L112.393 77.5974L112.654 78.7481L112.857 77.4667L114.334 70.9549H115.596L113.288 80.4741H112.144L110.183 73.5374L110.032 72.8117L109.882 73.5374L107.849 80.4741H106.705L104.403 70.9549H105.658L107.162 77.4732Z" fill="#3f3f3f"/>
<path d="M118.116 75.0934C118.608 75.5423 119.393 75.9215 120.47 76.231C121.328 76.4795 121.921 76.7323 122.248 76.9894C122.575 77.2422 122.738 77.6018 122.738 78.0682C122.738 78.5345 122.562 78.9028 122.209 79.1731C121.856 79.4433 121.348 79.5784 120.685 79.5784C119.975 79.5784 119.406 79.4128 118.979 79.0816C118.556 78.7459 118.345 78.2905 118.345 77.7151H117.083C117.083 78.2687 117.235 78.7634 117.541 79.1992C117.85 79.6351 118.288 79.9794 118.855 80.2322C119.421 80.4807 120.031 80.6049 120.685 80.6049C121.692 80.6049 122.496 80.3739 123.098 79.9119C123.699 79.4455 124 78.8266 124 78.0551C124 77.5713 123.891 77.1507 123.673 76.7933C123.46 76.4359 123.128 76.1242 122.679 75.8583C122.235 75.5881 121.616 75.3418 120.823 75.1196C120.034 74.8973 119.474 74.6532 119.142 74.3873C118.815 74.1171 118.652 73.788 118.652 73.4001C118.652 72.9163 118.824 72.5393 119.168 72.269C119.517 71.9944 120.001 71.8571 120.62 71.8571C121.287 71.8571 121.803 72.0228 122.169 72.354C122.536 72.6809 122.719 73.132 122.719 73.7074H123.98C123.98 73.18 123.839 72.694 123.555 72.2494C123.276 71.8048 122.88 71.4561 122.366 71.2033C121.856 70.9505 121.274 70.8241 120.62 70.8241C119.661 70.8241 118.881 71.0704 118.279 71.5629C117.682 72.0511 117.384 72.67 117.384 73.4197C117.384 74.0822 117.628 74.6401 118.116 75.0934Z" fill="#3f3f3f"/>
<path d="M20.505 69.3301C23.6056 69.3301 26.1192 66.8166 26.1192 63.7159C26.1192 60.6153 23.6056 58.1017 20.505 58.1017C17.4043 58.1017 14.8908 60.6153 14.8908 63.7159C14.8908 66.8166 17.4043 69.3301 20.505 69.3301Z" fill="#3f3f3f"/>
<path d="M56.9112 51.647C57.1957 51.6726 57.4362 51.8652 57.5239 52.1363C57.612 52.4079 57.53 52.7048 57.3152 52.8928L54.394 55.4542L55.2554 59.2486C55.3184 59.527 55.2102 59.8155 54.9786 59.9834C54.7476 60.1508 54.4402 60.1642 54.1964 60.0175L50.864 58.0251L47.5304 60.0175C47.4177 60.0849 47.2921 60.119 47.1656 60.119C47.0188 60.119 46.8732 60.0733 46.7488 59.9834C46.5173 59.816 46.409 59.5276 46.472 59.2486L47.3334 55.4542L44.4122 52.8923C44.1974 52.7048 44.1159 52.4074 44.2041 52.1363C44.2923 51.8652 44.5321 51.6732 44.8161 51.647L48.6814 51.2961L50.2096 47.7198C50.3223 47.4571 50.5789 47.2874 50.864 47.2874C51.1491 47.2874 51.4057 47.4571 51.5184 47.7192L53.0466 51.2961L56.9112 51.647Z" fill="#3f3f3f"/>
<path d="M73.4241 52.1363C73.3365 51.8652 73.096 51.6726 72.8115 51.647L68.9469 51.2961L67.4187 47.7192C67.306 47.4571 67.0494 47.2874 66.7643 47.2874C66.4791 47.2874 66.2225 47.4571 66.1098 47.7198L64.5817 51.2961L60.7164 51.647C60.4324 51.6732 60.1925 51.8652 60.1044 52.1363C60.0162 52.4074 60.0976 52.7048 60.3125 52.8923L63.2337 55.4542L62.3723 59.2486C62.3093 59.5276 62.4175 59.816 62.649 59.9834C62.7735 60.0733 62.919 60.119 63.0658 60.119C63.1924 60.119 63.318 60.0849 63.4306 60.0175L66.7643 58.0251L70.0967 60.0175C70.3405 60.1642 70.6479 60.1508 70.8789 59.9834C71.1105 59.8155 71.2187 59.527 71.1556 59.2486L70.2942 55.4542L73.2154 52.8928C73.4303 52.7048 73.5123 52.4079 73.4241 52.1363Z" fill="#3f3f3f"/>
<path d="M88.7118 51.647C88.9963 51.6726 89.2368 51.8652 89.3244 52.1363C89.4126 52.4079 89.3305 52.7048 89.1157 52.8928L86.1945 55.4542L87.0559 59.2486C87.1189 59.527 87.0107 59.8155 86.7792 59.9834C86.5482 60.1508 86.2408 60.1642 85.9969 60.0175L82.6645 58.0251L79.3309 60.0175C79.2182 60.0849 79.0927 60.119 78.9661 60.119C78.8193 60.119 78.6737 60.0733 78.5493 59.9834C78.3178 59.816 78.2095 59.5276 78.2726 59.2486L79.1339 55.4542L76.2127 52.8923C75.9979 52.7048 75.9165 52.4074 76.0046 52.1363C76.0928 51.8652 76.3327 51.6732 76.6167 51.647L80.4819 51.2961L82.0101 47.7198C82.1228 47.4571 82.3794 47.2874 82.6645 47.2874C82.9497 47.2874 83.2063 47.4571 83.319 47.7192L84.8471 51.2961L88.7118 51.647Z" fill="#3f3f3f"/>
<path d="M105.225 52.1363C105.137 51.8652 104.897 51.6726 104.612 51.647L100.747 51.2961L99.2192 47.7192C99.1065 47.4571 98.8499 47.2874 98.5648 47.2874C98.2797 47.2874 98.0231 47.4571 97.9104 47.7198L96.3822 51.2961L92.5169 51.647C92.2329 51.6732 91.9931 51.8652 91.9049 52.1363C91.8167 52.4074 91.8982 52.7048 92.113 52.8923L95.0342 55.4542L94.1728 59.2486C94.1098 59.5276 94.2181 59.816 94.4496 59.9834C94.574 60.0733 94.7196 60.119 94.8664 60.119C94.9929 60.119 95.1185 60.0849 95.2312 60.0175L98.5648 58.0251L101.897 60.0175C102.141 60.1642 102.448 60.1508 102.679 59.9834C102.911 59.8155 103.019 59.527 102.956 59.2486L102.095 55.4542L105.016 52.8928C105.231 52.7048 105.313 52.4079 105.225 52.1363Z" fill="#3f3f3f"/>
<path d="M120.512 51.647C120.797 51.6726 121.037 51.8652 121.125 52.1363C121.213 52.4079 121.131 52.7048 120.916 52.8928L117.995 55.4542L118.856 59.2486C118.919 59.527 118.811 59.8155 118.58 59.9834C118.349 60.1508 118.041 60.1642 117.797 60.0175L114.465 58.0251L111.131 60.0175C111.019 60.0849 110.893 60.119 110.767 60.119C110.62 60.119 110.474 60.0733 110.35 59.9834C110.118 59.816 110.01 59.5276 110.073 59.2486L110.934 55.4542L108.013 52.8923C107.798 52.7048 107.717 52.4074 107.805 52.1363C107.893 51.8652 108.133 51.6732 108.417 51.647L112.282 51.2961L113.811 47.7198C113.923 47.4571 114.18 47.2874 114.465 47.2874C114.75 47.2874 115.007 47.4571 115.119 47.7192L116.648 51.2961L120.512 51.647Z" fill="#3f3f3f"/>
</svg>
