<svg width="64" height="64" viewBox="0 0 64 64" fill="none" xmlns="http://www.w3.org/2000/svg">
<path fill-rule="evenodd" clip-rule="evenodd" d="M32.4053 48L19.7127 41.0239L17.3335 21.2984L32.3892 16L47.5415 21.2047L45.1632 40.9294L32.4053 48ZM32.3519 46.3339V46.3332L43.8209 39.9858L46.0373 22.3447L32.3519 17.6778V17.6777L32.3518 17.6778L32.3517 17.6777V17.6778L19.021 22.4294L21.0597 40.0706L32.3519 46.3339ZM32.3621 34.6904L32.3531 34.6945H28.3826L26.5161 39.363L23.0444 39.4273L32.3517 18.7218L32.3517 18.7188L32.3524 18.7203L32.3531 18.7188L32.3549 18.7255L42.0892 39.4895L38.7674 39.428L36.7239 34.6945L32.3621 34.6904ZM32.3774 25.3601L35.5208 31.9361H32.5036L32.3529 31.931H29.6072L32.3774 25.3601Z" fill="#202020"/>
</svg>
