<svg width="20" height="20" viewBox="0 0 20 20" fill="none" xmlns="http://www.w3.org/2000/svg">
<g clip-path="url(#clip0)">
<path d="M10 20C4.47715 20 0 15.5228 0 10C0 4.47715 4.47715 0 10 0C15.5228 0 20 4.47715 20 10C20 15.5228 15.5228 20 10 20Z" fill="#F0F0F0"/>
<path d="M-0.000326157 9.99992C-0.000326157 6.03531 2.3069 2.60969 5.65186 0.992188V19.0076C2.3069 17.3902 -0.000326157 13.9645 -0.000326157 9.99992Z" fill="#D80027"/>
<path d="M20 9.99992C20 13.9645 17.6928 17.3902 14.3478 19.0077V0.992188C17.6928 2.60969 20 6.03531 20 9.99992Z" fill="#D80027"/>
<path d="M8.26113 11.3044L6.52203 10.4348L7.39156 10V9.13045L9.1307 10L8.26113 8.26088H9.1307L10.0003 6.95654L10.8698 8.26088H11.7394L10.8698 10L12.609 9.13045V10L13.4785 10.4348L11.7394 11.3044L12.1742 12.1739H10.435V13.4783H9.56551V12.1739H7.82637L8.26113 11.3044Z" fill="#D80027"/>
</g>
<defs>
<clipPath id="clip0">
<rect width="20" height="20" fill="white" transform="matrix(-1 0 0 1 20 0)"/>
</clipPath>
</defs>
</svg>
