<svg width="20" height="20" viewBox="0 0 20 20" fill="none" xmlns="http://www.w3.org/2000/svg">
<path d="M20 10C20 15.5228 15.5228 20 10 20C4.47719 20 0 15.5228 0 10C0 10.0023 10 0.00113281 10 0C15.5228 0 20 4.47719 20 10Z" fill="#0052B4"/>
<path d="M9.97363 9.9999H10.0004C10.0004 9.99084 10.0004 9.98217 10.0004 9.97314C9.99148 9.98209 9.98258 9.991 9.97363 9.9999Z" fill="#F0F0F0"/>
<path d="M10 5.21836C10 3.45879 10 2.30578 10 0.000976562H9.99832C4.47625 0.001875 0 4.47863 0 10.0009H5.21738V7.06297L8.15535 10.0009H9.97328C9.98223 9.99203 9.99113 9.98313 10 9.97418C10 9.30047 10 8.69934 10 8.15637L7.06203 5.21836H10Z" fill="#F0F0F0"/>
<path d="M5.05953 1.3042C3.49551 2.19478 2.19527 3.49502 1.30469 5.05904V9.99986H3.9134V3.91295V3.91291H10.0004C10.0004 3.09014 10.0004 2.30631 10.0004 1.3042H5.05953Z" fill="#D80027"/>
<path d="M10.0003 8.77011L6.4475 5.2173H5.21777C5.21777 5.21726 5.21777 5.2173 5.21777 5.2173L10.0003 9.99984H10.0003C10.0003 9.99984 10.0003 9.15199 10.0003 8.77011Z" fill="#D80027"/>
<path d="M6.03059 11.739L6.57941 12.8866L7.81875 12.6001L7.26375 13.7448L8.26039 14.5351L7.01949 14.8148L7.02297 16.0868L6.03059 15.291L5.03824 16.0868L5.04172 14.8148L3.80078 14.5351L4.79746 13.7448L4.24238 12.6001L5.4818 12.8866L6.03059 11.739Z" fill="#F0F0F0"/>
<path d="M14.9713 13.9131L15.2457 14.4869L15.8654 14.3436L15.5879 14.9159L16.0863 15.3111L15.4658 15.451L15.4675 16.087L14.9713 15.6891L14.4752 16.087L14.4769 15.451L13.8564 15.3111L14.3548 14.9159L14.0773 14.3436L14.6969 14.4869L14.9713 13.9131Z" fill="#F0F0F0"/>
<path d="M12.4186 7.82593L12.693 8.39976L13.3127 8.25647L13.0352 8.82878L13.5335 9.22398L12.9131 9.36382L12.9148 9.99984L12.4186 9.60191L11.9225 9.99984L11.9241 9.36382L11.3037 9.22398L11.802 8.82878L11.5245 8.25647L12.1442 8.39976L12.4186 7.82593Z" fill="#F0F0F0"/>
<path d="M14.9713 4.34766L15.2457 4.92148L15.8654 4.77824L15.5879 5.35055L16.0862 5.7457L15.4658 5.88559L15.4675 6.5216L14.9713 6.12367L14.4752 6.5216L14.4769 5.88559L13.8564 5.7457L14.3547 5.35055L14.0773 4.77824L14.6969 4.92148L14.9713 4.34766Z" fill="#F0F0F0"/>
<path d="M17.2018 6.9563L17.4762 7.53013L18.0959 7.38685L17.8184 7.95915L18.3167 8.35435L17.6963 8.49423L17.698 9.1302L17.2018 8.73231L16.7057 9.1302L16.7073 8.49423L16.0869 8.35435L16.5852 7.95915L16.3077 7.38685L16.9274 7.53013L17.2018 6.9563Z" fill="#F0F0F0"/>
<path d="M15.6067 10L15.8225 10.6643H16.5211L15.9559 11.0749L16.1718 11.7391L15.6067 11.3286L15.0416 11.7391L15.2575 11.0749L14.6924 10.6643H15.3909L15.6067 10Z" fill="#F0F0F0"/>
</svg>
