<svg width="20" height="20" viewBox="0 0 20 20" fill="none" xmlns="http://www.w3.org/2000/svg">
<path d="M10 20C15.5228 20 20 15.5228 20 10C20 4.47715 15.5228 0 10 0C4.47715 0 0 4.47715 0 10C0 15.5228 4.47715 20 10 20Z" fill="#6DA544"/>
<path d="M5.65234 11.9563C5.65234 12.6767 6.23633 13.2606 6.95668 13.2606H10.8697C10.8697 13.8609 11.3564 14.3476 11.9567 14.3476H13.261C13.8613 14.3476 14.348 13.8609 14.348 13.2606V11.9563H5.65234Z" fill="#F0F0F0"/>
<path d="M14.4565 5.6521V8.69557C14.4565 9.17506 14.0664 9.56514 13.5869 9.56514V10.8695C14.7856 10.8695 15.7608 9.89424 15.7608 8.69557V5.6521H14.4565Z" fill="#F0F0F0"/>
<path d="M5.10883 8.69654C5.10883 9.17603 4.71875 9.56611 4.23926 9.56611V10.8704C5.43797 10.8704 6.41316 9.89521 6.41316 8.69654V5.65308H5.10883V8.69654Z" fill="#F0F0F0"/>
<path d="M13.8043 5.6521H12.5V8.69558H13.8043V5.6521Z" fill="#F0F0F0"/>
<path d="M10.5437 7.39124C10.5437 7.51112 10.4461 7.60862 10.3263 7.60862C10.2064 7.60862 10.1089 7.51108 10.1089 7.39124V5.6521H8.80457V7.39124C8.80457 7.51112 8.70703 7.60862 8.58719 7.60862C8.46734 7.60862 8.3698 7.51108 8.3698 7.39124V5.6521H7.06543V7.39124C7.06543 8.23034 7.74809 8.913 8.58719 8.913C8.91035 8.913 9.21004 8.81144 9.45676 8.63894C9.70344 8.8114 10.0032 8.913 10.3263 8.913C10.3914 8.913 10.4554 8.90843 10.5183 8.90042C10.4259 9.28124 10.0829 9.56515 9.67414 9.56515V10.8695C10.8729 10.8695 11.848 9.89425 11.848 8.69558V7.39124V5.6521H10.5437V7.39124H10.5437Z" fill="#F0F0F0"/>
<path d="M9.02195 9.56519H7.06543V10.8695H9.02195V9.56519Z" fill="#F0F0F0"/>
</svg>
