<svg width="20" height="20" viewBox="0 0 20 20" fill="none" xmlns="http://www.w3.org/2000/svg">
<g clip-path="url(#clip0)">
<path d="M10 20C15.5228 20 20 15.5228 20 10C20 4.47715 15.5228 0 10 0C4.47715 0 0 4.47715 0 10C0 15.5228 4.47715 20 10 20Z" fill="#F0F0F0"/>
<path d="M10.0001 0C5.70043 0 2.035 2.71375 0.62207 6.52176H19.3781C17.9652 2.71375 14.2997 0 10.0001 0Z" fill="#D80027"/>
<path d="M10.0001 20C14.2997 20 17.9652 17.2863 19.3781 13.4783H0.62207C2.035 17.2863 5.70043 20 10.0001 20Z" fill="black"/>
<path d="M13.478 8.91303H10.8693C10.8693 8.43279 10.48 8.04346 9.99976 8.04346C9.51952 8.04346 9.13019 8.43279 9.13019 8.91303H6.52148C6.52148 9.3933 6.9398 9.7826 7.42004 9.7826H7.39105C7.39105 10.2629 7.78035 10.6522 8.26062 10.6522C8.26062 11.1324 8.64992 11.5217 9.13019 11.5217H10.8693C11.3496 11.5217 11.7389 11.1324 11.7389 10.6522C12.2192 10.6522 12.6085 10.2629 12.6085 9.7826H12.5795C13.0598 9.7826 13.478 9.3933 13.478 8.91303Z" fill="#FF9811"/>
</g>
<defs>
<clipPath id="clip0">
<rect width="20" height="20" fill="white"/>
</clipPath>
</defs>
</svg>
