<svg width="20" height="20" viewBox="0 0 20 20" fill="none" xmlns="http://www.w3.org/2000/svg">
<g clip-path="url(#clip0)">
<path d="M20 9.99995C20 8.77675 19.78 7.605 19.378 6.52172L10 6.08691L0.621992 6.52168C0.220039 7.605 0 8.77675 0 9.99995C0 11.2232 0.220039 12.3949 0.621992 13.4782L10 13.913L19.378 13.4782C19.78 12.3949 20 11.2232 20 9.99995Z" fill="#496E2D"/>
<path d="M10.0001 20C14.2997 20 17.9652 17.2863 19.3781 13.4783H0.62207C2.035 17.2863 5.70043 20 10.0001 20Z" fill="#D80027"/>
<path d="M0.62207 6.52176H19.3781C17.9652 2.71375 14.2997 0 10.0001 0C5.70043 0 2.035 2.71375 0.62207 6.52176Z" fill="#F0F0F0"/>
</g>
<defs>
<clipPath id="clip0">
<rect width="20" height="20" fill="white"/>
</clipPath>
</defs>
</svg>
