<svg width="20" height="20" viewBox="0 0 20 20" fill="none" xmlns="http://www.w3.org/2000/svg">
<g clip-path="url(#clip0)">
<path d="M13.4784 0.621953C12.3951 0.220039 11.2234 5.19912e-09 10.0002 5.19912e-09C8.77696 -3.90573e-05 7.60524 0.220039 6.52192 0.621953L5.65234 9.99996L6.52192 19.378C7.6052 19.78 8.77692 20 10.0002 20C11.2233 20 12.3951 19.78 13.4784 19.378L14.3479 10L13.4784 0.621953Z" fill="#FFDA44"/>
<path d="M20.0003 10.0001C20.0003 5.70047 17.2865 2.03496 13.4785 0.62207V19.3782C17.2865 17.9651 20.0002 14.2998 20.0003 10.0001Z" fill="#D80027"/>
<path d="M0 10C0 14.2997 2.71375 17.9651 6.52168 19.3781L6.52172 0.62207C2.71375 2.03496 0 5.70035 0 10Z" fill="#0052B4"/>
</g>
<defs>
<clipPath id="clip0">
<rect width="20" height="20" fill="white"/>
</clipPath>
</defs>
</svg>
