<svg width="20" height="20" viewBox="0 0 20 20" fill="none" xmlns="http://www.w3.org/2000/svg">
<path d="M10 20C15.5228 20 20 15.5228 20 10C20 4.47715 15.5228 0 10 0C4.47715 0 0 4.47715 0 10C0 15.5228 4.47715 20 10 20Z" fill="#F0F0F0"/>
<path d="M9.99992 0C6.03531 0 2.60969 2.30723 0.992188 5.65219H19.0076C17.3902 2.30723 13.9645 0 9.99992 0Z" fill="#D80027"/>
<path d="M9.99992 20.0001C13.9645 20.0001 17.3902 17.6929 19.0077 14.3479H0.992188C2.60969 17.6929 6.03531 20.0001 9.99992 20.0001Z" fill="#D80027"/>
<path d="M12.6085 11.7392L9.99983 6.95654L7.39111 11.7392H9.34764V13.0435H10.652V11.7392H12.6085Z" fill="#6DA544"/>
</svg>
