<svg width="20" height="20" viewBox="0 0 20 20" fill="none" xmlns="http://www.w3.org/2000/svg">
<g clip-path="url(#clip0)">
<path d="M10 20C15.5228 20 20 15.5228 20 10C20 4.47715 15.5228 0 10 0C4.47715 0 0 4.47715 0 10C0 15.5228 4.47715 20 10 20Z" fill="#F0F0F0"/>
<path d="M5.65234 13.4783L6.52191 19.3781C7.6052 19.7801 8.77695 20 10.0002 20C14.2998 20 17.9652 17.2863 19.3781 13.4783H5.65234Z" fill="black"/>
<path d="M5.65234 6.52176L6.52191 0.621914C7.6052 0.219922 8.77695 0 10.0002 0C14.2998 0 17.9652 2.71375 19.3781 6.52176H5.65234Z" fill="#6DA544"/>
<path d="M0 9.99983C0 14.2995 2.71379 17.9649 6.52176 19.3778V0.621826C2.71379 2.03476 0 5.70019 0 9.99983Z" fill="#A2001D"/>
</g>
<defs>
<clipPath id="clip0">
<rect width="20" height="20" fill="white"/>
</clipPath>
</defs>
</svg>
