<svg width="20" height="20" viewBox="0 0 20 20" fill="none" xmlns="http://www.w3.org/2000/svg">
<path d="M10 20C15.5228 20 20 15.5228 20 10C20 4.47715 15.5228 0 10 0C4.47715 0 0 4.47715 0 10C0 15.5228 4.47715 20 10 20Z" fill="#338AF3"/>
<path d="M15.652 10.1086H4.34766C4.34766 10.8891 5.02738 11.5217 5.80773 11.5217H5.7607C5.7607 12.3021 6.39332 12.9347 7.17375 12.9347C7.17375 13.7152 7.80637 14.3478 8.5868 14.3478H11.4129C12.1933 14.3478 12.8259 13.7152 12.8259 12.9347C13.6064 12.9347 14.239 12.3021 14.239 11.5217H14.192C14.9722 11.5217 15.652 10.8891 15.652 10.1086Z" fill="#FFDA44"/>
<path d="M13.913 8.26074C13.913 10.4218 12.161 12.1738 9.99995 12.1738C7.83882 12.1738 6.08691 10.4218 6.08691 8.26074" fill="#338AF3"/>
<path d="M12.9894 8.26096L11.7682 8.83545L12.4185 10.0183L11.0923 9.76455L10.9243 11.1042L10.0006 10.1189L9.07683 11.1042L8.90882 9.76455L7.58265 10.0182L8.23297 8.83541L7.01172 8.26096L8.233 7.68651L7.58265 6.50374L8.90878 6.75741L9.07687 5.41772L10.0006 6.40307L10.9243 5.41772L11.0923 6.75741L12.4185 6.50374L11.7682 7.68655L12.9894 8.26096Z" fill="#FFDA44"/>
</svg>
