<svg width="20" height="20" viewBox="0 0 20 20" fill="none" xmlns="http://www.w3.org/2000/svg">
<path d="M10 20C15.5228 20 20 15.5228 20 10C20 4.47715 15.5228 0 10 0C4.47715 0 0 4.47715 0 10C0 15.5228 4.47715 20 10 20Z" fill="#F0F0F0"/>
<path d="M9.03223 16.5167C9.38208 16.2875 9.68608 16.2126 10.1564 16.1376C10.627 16.0627 11.1239 15.9348 11.3845 15.8731C11.6474 15.8093 10.5014 16.1773 10.2095 16.25C9.92246 16.3271 9.03223 16.5167 9.03223 16.5167Z" fill="#73AF00"/>
<path d="M10.9266 15.8714C10.8325 15.3529 11.0664 14.8071 11.602 14.5891C11.7275 14.9658 11.3438 15.6047 10.9266 15.8714Z" fill="#73AF00"/>
<path d="M11.8403 15.6027C11.5532 15.169 12.0357 14.6124 12.3951 14.3416C12.5616 14.6018 12.2696 15.3784 11.8403 15.6027Z" fill="#73AF00"/>
<path d="M12.6837 15.2685C12.3797 14.8982 12.7416 14.2506 13.1276 13.9946C13.2772 14.3608 13.1276 15.0166 12.6837 15.2685Z" fill="#73AF00"/>
<path d="M13.5279 14.8033C13.2481 14.4541 13.4436 13.9125 13.8464 13.5591C14.1335 13.8512 13.8873 14.4817 13.5279 14.8033Z" fill="#73AF00"/>
<path d="M14.2047 14.3373C13.9707 14.0072 14.2576 13.2181 14.634 13C14.7956 13.292 14.675 14.1173 14.2047 14.3373Z" fill="#73AF00"/>
<path d="M14.7427 14.2127C14.6752 13.7408 15.616 13.2181 15.9997 13.233C15.9587 13.618 15.5557 14.0412 14.7427 14.2127Z" fill="#73AF00"/>
<path d="M14.2158 14.746C14.6598 14.3483 15.5163 14.3483 15.8202 14.4307C15.7406 14.6635 14.7274 15.1693 14.2158 14.746Z" fill="#73AF00"/>
<path d="M13.6084 15.1459C14.2309 14.9998 14.6337 14.8813 15.0053 15.2198C14.7423 15.5119 13.7339 15.4252 13.6084 15.1459Z" fill="#73AF00"/>
<path d="M12.7208 15.4991C13.3167 15.2197 14.0381 15.6323 14.1467 15.8714C13.4832 16.1147 12.7087 15.5603 12.7208 15.4991Z" fill="#73AF00"/>
<path d="M11.9062 15.8986C12.4491 15.7166 13.0716 15.9579 13.3176 16.2245C13.0281 16.3473 12.2706 16.4805 11.9062 15.8986Z" fill="#73AF00"/>
<path d="M11.1641 16.104C11.7865 16.0427 12.3823 16.4574 12.5127 16.6923C11.7212 16.76 11.4148 16.5506 11.1641 16.104Z" fill="#73AF00"/>
<path d="M10.964 16.5167C10.6189 16.2875 10.315 16.2126 9.84451 16.1376C9.37396 16.0627 8.87705 15.9348 8.6118 15.8731C8.35364 15.8093 9.49953 16.1773 9.79143 16.25C10.0809 16.3271 10.964 16.5167 10.964 16.5167Z" fill="#73AF00"/>
<path d="M9.06918 15.8714C9.16796 15.3529 8.93401 14.8071 8.39363 14.5891C8.273 14.9658 8.65666 15.6047 9.06918 15.8714Z" fill="#73AF00"/>
<path d="M8.15997 15.6027C8.45194 15.169 7.96456 14.6124 7.60511 14.3416C7.43857 14.6018 7.73061 15.3784 8.15997 15.6027Z" fill="#73AF00"/>
<path d="M7.31183 15.2685C7.62063 14.8982 7.25868 14.2506 6.87266 13.9946C6.72073 14.3608 6.87273 15.0166 7.31183 15.2685Z" fill="#73AF00"/>
<path d="M6.47118 14.8033C6.74861 14.4541 6.5557 13.9125 6.15514 13.5591C5.86811 13.8512 6.11416 14.4817 6.47118 14.8033Z" fill="#73AF00"/>
<path d="M5.79542 14.3373C6.03423 14.0072 5.74226 13.2181 5.36591 13C5.19944 13.292 5.32487 14.1173 5.79542 14.3373Z" fill="#73AF00"/>
<path d="M5.25219 14.2127C5.32461 13.7408 4.38366 13.2181 4 13.233C4.04104 13.618 4.43681 14.0412 5.25219 14.2127Z" fill="#73AF00"/>
<path d="M5.78304 14.746C5.33907 14.3483 4.48271 14.3483 4.17871 14.4307C4.26302 14.6635 5.27145 15.1693 5.78304 14.746Z" fill="#73AF00"/>
<path d="M6.39103 15.1459C5.76855 14.9998 5.36569 14.8813 4.99414 15.2198C5.2523 15.5119 6.26553 15.4252 6.39103 15.1459Z" fill="#73AF00"/>
<path d="M7.27259 15.4991C6.67912 15.2197 5.96016 15.6323 5.85156 15.8714C6.51508 16.1147 7.28469 15.5603 7.27259 15.4991Z" fill="#73AF00"/>
<path d="M8.08715 15.8986C7.54676 15.7166 6.92672 15.9579 6.68066 16.2245C6.97256 16.3473 7.73021 16.4805 8.08715 15.8986Z" fill="#73AF00"/>
<path d="M8.8412 16.104C8.21393 16.0427 7.6181 16.4574 7.49023 16.6923C8.28635 16.76 8.59035 16.5506 8.8412 16.104Z" fill="#73AF00"/>
<path d="M3.0382 8.30469C3.0382 8.30469 2.90757 8.47507 3.12945 8.90658C3.35133 9.3381 3.19194 9.83612 3.43099 9.99544C3.67003 10.1548 3.44101 10.4708 3.71487 10.6813C3.98869 10.8918 4.70836 11.3761 5.20508 11.4328C5.7018 11.4894 6.18433 10.9875 6.47093 11.358C6.75752 11.7284 6.69491 11.9895 6.96526 12.0183C7.23561 12.0471 7.23561 11.9276 7.21573 11.7483C7.19586 11.5691 7.39499 11.0711 7.85315 11.0711C8.31131 11.0711 8.79665 11.0166 9.56989 10.7251C10.3431 10.4336 10.7216 10.2942 10.8212 9.83606C10.9208 9.3779 11.2039 8.83624 11.7496 9.08719C12.2952 9.3381 12.2585 9.22042 12.4262 9.09998C12.594 8.97953 13.1564 9.32792 13.2835 9.14379C13.4107 8.9596 12.2883 8.04854 12.3516 7.56785C12.4147 7.08721 12.5661 6.68798 13.0282 6.64855C13.4904 6.60913 13.3709 6.09123 13.849 5.83226C14.3271 5.57334 14.5473 5.54366 14.9252 5.16008C15.3031 4.77649 16.2969 4 16.2969 4C16.2969 4 14.3635 4.9259 13.9768 5.01055C13.5901 5.09525 13.4305 5.653 12.3549 5.95178C11.2792 6.25056 11.2194 6.37008 10.4028 6.54934C9.66726 6.71083 8.00581 6.65657 7.02299 6.34122C6.88744 6.29773 6.75275 6.40474 6.76478 6.54663C6.80523 7.02434 6.79391 7.88325 6.21368 8.01653C6.21368 8.01653 5.42284 7.42591 4.92488 7.68483C4.42692 7.94375 4.07274 8.86727 3.70204 8.72419C3.33134 8.58111 3.28282 7.98837 3.0382 8.30469Z" fill="#FFC850"/>
</svg>
