<svg width="20" height="20" viewBox="0 0 20 20" fill="none" xmlns="http://www.w3.org/2000/svg">
<g clip-path="url(#clip0)">
<path d="M10 20C15.5228 20 20 15.5228 20 10C20 4.47715 15.5228 0 10 0C4.47715 0 0 4.47715 0 10C0 15.5228 4.47715 20 10 20Z" fill="#F0F0F0"/>
<path d="M10.0001 0C5.70043 0 2.035 2.71375 0.62207 6.52176H19.3781C17.9652 2.71375 14.2997 0 10.0001 0Z" fill="#A2001D"/>
<path d="M10.0001 20C14.2997 20 17.9652 17.2863 19.3781 13.4783H0.62207C2.035 17.2863 5.70043 20 10.0001 20Z" fill="black"/>
<path d="M7.60898 9.34789C7.60352 9.34789 7.59816 9.34824 7.5927 9.34832V9.34789H5.68109C5.77801 8.97343 6.11777 8.6957 6.52203 8.6957V7.39136C5.32332 7.39136 4.34813 8.36659 4.34813 9.56527V10.6305V10.6523H7.5927C7.60004 10.6523 7.60582 10.6523 7.60898 10.6523C7.72887 10.6523 7.82637 10.7498 7.82637 10.8696V11.3044H3.47852V12.6088H9.1307V10.8696C9.1307 10.0305 8.44805 9.34789 7.60898 9.34789Z" fill="#496E2D"/>
<path d="M10.8698 11.3044V7.39136H9.56543V12.6088H11.7393V11.3044H10.8698Z" fill="#496E2D"/>
<path d="M15.2173 11.3044V7.39136H13.913V11.3044H13.4782V10.0001H12.1738V12.6088H16.0869V11.3044H15.2173Z" fill="#496E2D"/>
</g>
<defs>
<clipPath id="clip0">
<rect width="20" height="20" fill="white"/>
</clipPath>
</defs>
</svg>
