<svg width="20" height="20" viewBox="0 0 20 20" fill="none" xmlns="http://www.w3.org/2000/svg">
<path d="M20 10C20 15.5228 15.5228 20 10 20C4.47719 20 0 15.5228 0 10C0 10.0024 10 0.00109375 10 0C15.5228 0 20 4.47719 20 10Z" fill="#338AF3"/>
<path d="M10.0002 4.78247V8.15524L6.52197 4.78247H10.0002Z" fill="#0052B4"/>
<path d="M5.21748 9.9997H8.15545L5.21748 6.08667L4.78271 9.13014L5.21748 9.9997Z" fill="#0052B4"/>
<path d="M9.97314 10.0001H9.9999C9.9999 9.99116 9.9999 9.98241 9.9999 9.97339C9.991 9.98233 9.98209 9.99124 9.97314 10.0001Z" fill="#F0F0F0"/>
<path d="M10 5.21738C10 3.45781 10 2.30488 10 0H9.99832C4.47625 0.0009375 0 4.4777 0 10H5.21738V7.06207L8.15535 10H9.97332C9.98223 9.99109 9.99113 9.98219 10.0001 9.97324C10.0001 9.29953 10.0001 8.6984 10.0001 8.15539L7.06203 5.21738H10Z" fill="#F0F0F0"/>
<path d="M5.05904 1.3042C3.49502 2.19479 2.19479 3.49502 1.3042 5.05904V9.99986H3.91291V3.91299V3.91291H9.99986C9.99986 3.09014 9.99986 2.30631 9.99986 1.3042H5.05904Z" fill="#D80027"/>
<path d="M9.99986 8.77013L6.44701 5.21729H5.21729V5.21736L9.99979 9.99985H9.99986C9.99986 9.99985 9.99986 9.15192 9.99986 8.77013Z" fill="#D80027"/>
<path d="M11.3042 6.52167V9.99988C11.3042 12.3296 14.3477 13.0434 14.3477 13.0434C14.3477 13.0434 17.3912 12.3296 17.3912 9.99988V6.52167L14.3477 5.6521L11.3042 6.52167Z" fill="#F3F3F3"/>
<path d="M17.3912 6.52186V5.21753H11.3042V6.52186H13.9128V9.13061H11.3042V10.0001C11.3042 10.0001 11.3042 10.0002 11.3042 10.0002L13.9128 10.0002V12.9102C14.1753 13.0031 14.3477 13.0436 14.3477 13.0436C14.3477 13.0436 14.52 13.0031 14.7824 12.9102V10.0002H17.3912V10.0001V9.13057H14.7824V6.52182H17.3912V6.52186Z" fill="#D80027"/>
</svg>
