<svg width="20" height="20" viewBox="0 0 20 20" fill="none" xmlns="http://www.w3.org/2000/svg">
<path d="M10 20C15.5228 20 20 15.5228 20 10C20 4.47715 15.5228 0 10 0C4.47715 0 0 4.47715 0 10C0 15.5228 4.47715 20 10 20Z" fill="#FFDA44"/>
<path d="M7.82621 8.69566H19.9154C19.2762 3.78914 15.0808 0 10.0001 0C9.25344 0 8.52613 0.0825391 7.82617 0.237695V8.69566H7.82621Z" fill="#0052B4"/>
<path d="M5.2177 8.69579V1.21606C2.47184 2.71427 0.506172 5.46235 0.0849609 8.69583H5.2177V8.69579Z" fill="#0052B4"/>
<path d="M5.21766 11.3042H0.0849609C0.506172 14.5377 2.47184 17.2858 5.2177 18.7839L5.21766 11.3042Z" fill="#0052B4"/>
<path d="M7.82617 11.3042V19.7622C8.52613 19.9173 9.25344 19.9999 10.0001 19.9999C15.0808 19.9999 19.2762 16.2107 19.9154 11.3042H7.82617V11.3042Z" fill="#0052B4"/>
</svg>
