<svg width="20" height="20" viewBox="0 0 20 20" fill="none" xmlns="http://www.w3.org/2000/svg">
<path d="M19.378 13.4782C19.78 12.3949 20 11.2231 20 9.99992C20 8.77671 19.78 7.60503 19.378 6.52167L10 5.6521L0.621992 6.52167C0.220039 7.60503 0 8.77671 0 9.99992C0 11.2231 0.220039 12.3949 0.621992 13.4782L10 14.3477L19.378 13.4782Z" fill="#F0F0F0"/>
<path d="M10.0001 20C14.2997 20 17.9652 17.2863 19.3781 13.4783H0.62207C2.03504 17.2863 5.70043 20 10.0001 20Z" fill="#D80027"/>
<path d="M10.0001 0C5.70043 0 2.03504 2.71375 0.62207 6.52176H19.3781C17.9652 2.71375 14.2997 0 10.0001 0Z" fill="#D80027"/>
</svg>
