<svg width="20" height="20" viewBox="0 0 20 20" fill="none" xmlns="http://www.w3.org/2000/svg">
<path d="M10 20C15.5228 20 20 15.5228 20 10C20 4.47715 15.5228 0 10 0C4.47715 0 0 4.47715 0 10C0 15.5228 4.47715 20 10 20Z" fill="#F0F0F0"/>
<path d="M9.56543 10.0001H20.0002C20.0002 9.09744 19.8799 8.22315 19.6557 7.39136H9.56543V10.0001Z" fill="#D80027"/>
<path d="M9.56543 4.78254H18.5325C17.9203 3.78363 17.1377 2.9007 16.2251 2.17383H9.56543V4.78254Z" fill="#D80027"/>
<path d="M9.99978 19.9999C12.3533 19.9999 14.5164 19.1864 16.2247 17.8259H3.7749C5.48314 19.1864 7.64631 19.9999 9.99978 19.9999Z" fill="#D80027"/>
<path d="M1.46797 15.2171H18.5325C19.0239 14.4152 19.405 13.5386 19.6557 12.6084H0.344727C0.595391 13.5386 0.976523 14.4152 1.46797 15.2171Z" fill="#D80027"/>
<path d="M10 10C10 4.47719 10 3.82609 10 0C4.47719 0 0 4.47719 0 10H10Z" fill="#0052B4"/>
<path d="M6.64984 8.55971C5.28414 8.55971 4.17703 7.45256 4.17703 6.08689C4.17703 4.72123 5.28418 3.61408 6.64984 3.61408C7.07566 3.61408 7.47633 3.72178 7.82613 3.91131C7.27738 3.37471 6.52691 3.04346 5.69875 3.04346C4.01793 3.04346 2.65527 4.40607 2.65527 6.08693C2.65527 7.76779 4.01793 9.13041 5.69875 9.13041C6.52691 9.13041 7.27738 8.79916 7.82613 8.26256C7.47633 8.45201 7.0757 8.55971 6.64984 8.55971Z" fill="#FFDA44"/>
<path d="M7.34641 4.3479L7.78543 5.26595L8.77688 5.03688L8.33289 5.95247L9.13023 6.58477L8.1375 6.80856L8.14027 7.82618L7.34641 7.18954L6.5525 7.82618L6.55523 6.80856L5.5625 6.58477L6.35984 5.95247L5.91582 5.03688L6.90734 5.26595L7.34641 4.3479Z" fill="#FFDA44"/>
</svg>
