<svg width="20" height="20" viewBox="0 0 20 20" fill="none" xmlns="http://www.w3.org/2000/svg">
<g clip-path="url(#clip0)">
<path d="M10 20C15.5228 20 20 15.5228 20 10C20 4.47715 15.5228 0 10 0C4.47715 0 0 4.47715 0 10C0 15.5228 4.47715 20 10 20Z" fill="#F0F0F0"/>
<path d="M20.0003 9.99983C20.0003 5.70019 17.2865 2.03476 13.4785 0.621826V19.3779C17.2865 17.9649 20.0003 14.2995 20.0003 9.99983Z" fill="#D80027"/>
<path d="M0 9.99983C0 14.2995 2.71375 17.9649 6.52176 19.3778V0.621826C2.71375 2.03476 0 5.70019 0 9.99983Z" fill="#6DA544"/>
</g>
<defs>
<clipPath id="clip0">
<rect width="20" height="20" fill="white"/>
</clipPath>
</defs>
</svg>
