<svg width="20" height="20" viewBox="0 0 20 20" fill="none" xmlns="http://www.w3.org/2000/svg">
<path d="M20 10C20 15.5228 15.5228 20 10 20C4.47719 20 0 15.5228 0 10C0 10.0024 10 0.00109375 10 0C15.5228 0 20 4.47719 20 10Z" fill="#0052B4"/>
<path d="M9.97314 10.0001H9.9999C9.9999 9.99116 9.9999 9.98241 9.9999 9.97339C9.991 9.98233 9.98209 9.99124 9.97314 10.0001Z" fill="#F0F0F0"/>
<path d="M10 5.21738C10 3.45781 10 2.30488 10 0H9.99832C4.47625 0.0009375 0 4.4777 0 10H5.21738V7.06207L8.15535 10H9.97328C9.98219 9.99109 9.99113 9.98219 10 9.97324C10 9.29953 10 8.6984 10 8.15539L7.06203 5.21738H10Z" fill="#F0F0F0"/>
<path d="M5.05904 1.3042C3.49502 2.19479 2.19479 3.49502 1.3042 5.05904V9.99986H3.91291V3.91299V3.91291H9.99986C9.99986 3.09014 9.99986 2.30631 9.99986 1.3042H5.05904Z" fill="#D80027"/>
<path d="M9.99986 8.77013L6.44701 5.21729C6.44701 5.21729 5.21729 5.21736 5.21729 5.21729V5.21736L9.99982 9.99985H9.99986C9.99986 9.99985 9.99986 9.15192 9.99986 8.77013Z" fill="#D80027"/>
<path d="M17.3177 7.42017L17.5335 8.08446H18.232L17.6669 8.49501L17.8828 9.15927L17.3177 8.74876L16.7526 9.15927L16.9684 8.49501L16.4033 8.08446H17.1018L17.3177 7.42017Z" fill="#D80027"/>
<path d="M14.8207 12.2029L15.1445 13.1994H16.1922L15.3445 13.8151L15.6684 14.8116L14.8207 14.1958L13.973 14.8116L14.2969 13.8151L13.4492 13.1994H14.4969L14.8207 12.2029Z" fill="#D80027"/>
<path d="M14.9148 4.37671L15.1847 5.20714H16.0578L15.3513 5.72022L15.6212 6.55061L14.9148 6.03737L14.2085 6.55061L14.4783 5.72022L13.772 5.20714H14.645L14.9148 4.37671Z" fill="#D80027"/>
<path d="M12.5126 7.39111L12.8363 8.38759H13.8841L13.0364 9.00337L13.3603 9.99981L12.5126 9.38399L11.6649 9.99981L11.9888 9.00337L11.1411 8.38759H12.1888L12.5126 7.39111Z" fill="#D80027"/>
</svg>
