<svg width="20" height="20" viewBox="0 0 20 20" fill="none" xmlns="http://www.w3.org/2000/svg">
<g clip-path="url(#clip0)">
<path d="M19.378 13.4782C19.78 12.3949 20 11.2231 20 9.99992C20 8.77671 19.78 7.60495 19.378 6.52167L10 5.6521L0.621992 6.52167C0.22 7.60495 0 8.77671 0 9.99992C0 11.2231 0.22 12.3949 0.621992 13.4782L10 14.3477L19.378 13.4782Z" fill="#6DA544"/>
<path d="M19.3781 6.52176C17.9652 2.71375 14.2997 0 10.0001 0C5.70043 0 2.035 2.71375 0.62207 6.52176H19.3781Z" fill="#FFDA44"/>
<path d="M10.0001 20C14.2997 20 17.9652 17.2863 19.3781 13.4783H0.62207C2.035 17.2863 5.70043 20 10.0001 20Z" fill="#D80027"/>
</g>
<defs>
<clipPath id="clip0">
<rect width="20" height="20" fill="white"/>
</clipPath>
</defs>
</svg>
