<svg width="20" height="20" viewBox="0 0 20 20" fill="none" xmlns="http://www.w3.org/2000/svg">
<path d="M10 20C15.5228 20 20 15.5228 20 10C20 4.47715 15.5228 0 10 0C4.47715 0 0 4.47715 0 10C0 15.5228 4.47715 20 10 20Z" fill="#F0F0F0"/>
<path d="M13.7651 7.82601H11.2548L9.99973 5.6521L8.74469 7.82601H6.23438L7.48961 9.99992L6.23438 12.1738H8.74469L9.99973 14.3477L11.2548 12.1738H13.7651L12.5098 9.99992L13.7651 7.82601ZM11.5417 9.99992L10.7708 11.3354H9.22879L8.45773 9.99992L9.22875 8.66445H10.7707L11.5417 9.99992ZM9.99973 7.32894L10.2867 7.82597H9.71285L9.99973 7.32894ZM7.68668 8.66445H8.26059L7.97363 9.16148L7.68668 8.66445ZM7.68668 11.3354L7.97367 10.8384L8.26063 11.3354H7.68668ZM9.99973 12.6709L9.71281 12.1738H10.2867L9.99973 12.6709ZM12.3128 11.3354H11.7389L12.0259 10.8384L12.3128 11.3354ZM11.7389 8.66445H12.3128L12.0258 9.16148L11.7389 8.66445Z" fill="#0052B4"/>
<path d="M16.2249 2.17383H3.77516C2.86254 2.9007 2.07988 3.78359 1.46777 4.78254H18.5323C17.9202 3.78363 17.1375 2.9007 16.2249 2.17383Z" fill="#0052B4"/>
<path d="M3.77516 17.826H16.2249C17.1375 17.0991 17.9202 16.2162 18.5323 15.2173H1.46777C2.07992 16.2162 2.86258 17.0991 3.77516 17.826Z" fill="#0052B4"/>
</svg>
