<svg width="20" height="20" viewBox="0 0 20 20" fill="none" xmlns="http://www.w3.org/2000/svg">
<g clip-path="url(#clip0)">
<path d="M10 20C15.5228 20 20 15.5228 20 10C20 4.47715 15.5228 0 10 0C4.47715 0 0 4.47715 0 10C0 15.5228 4.47715 20 10 20Z" fill="#F0F0F0"/>
<path d="M10.0001 0C5.70043 0 2.035 2.71375 0.62207 6.52176H19.3781C17.9652 2.71375 14.2997 0 10.0001 0Z" fill="#A2001D"/>
<path d="M10.0001 20C14.2997 20 17.9652 17.2863 19.3781 13.4783H0.62207C2.035 17.2863 5.70043 20 10.0001 20Z" fill="#0052B4"/>
</g>
<defs>
<clipPath id="clip0">
<rect width="20" height="20" fill="white"/>
</clipPath>
</defs>
</svg>
