<svg width="20" height="20" viewBox="0 0 20 20" fill="none" xmlns="http://www.w3.org/2000/svg">
<path d="M10 20C15.5228 20 20 15.5228 20 10C20 4.47715 15.5228 0 10 0C4.47715 0 0 4.47715 0 10C0 15.5228 4.47715 20 10 20Z" fill="#F0F0F0"/>
<path d="M7.82572 8.69566H19.9149C19.2758 3.78914 15.0803 0 9.99959 0C9.25291 0 8.52568 0.0825391 7.82568 0.237695V8.69566H7.82572Z" fill="#D80027"/>
<path d="M5.21721 8.69579V1.21606C2.47139 2.71427 0.505684 5.46235 0.0844727 8.69583H5.21721V8.69579Z" fill="#D80027"/>
<path d="M5.21717 11.3042H0.0844727C0.505684 14.5377 2.47139 17.2858 5.21721 18.7839L5.21717 11.3042Z" fill="#D80027"/>
<path d="M7.82568 11.3042V19.7622C8.52568 19.9173 9.25291 19.9999 9.99959 19.9999C15.0803 19.9999 19.2758 16.2107 19.9149 11.3042H7.82568V11.3042Z" fill="#D80027"/>
</svg>
