<svg width="20" height="20" viewBox="0 0 20 20" fill="none" xmlns="http://www.w3.org/2000/svg">
<g clip-path="url(#clip0)">
<path d="M13.4784 0.621992C12.3951 0.220039 11.2234 0 10.0002 0C8.77696 0 7.60524 0.220039 6.52192 0.621992L5.65234 10L6.52192 19.378C7.60524 19.78 8.77696 20 10.0002 20C11.2234 20 12.3951 19.78 13.4784 19.378L14.348 10L13.4784 0.621992Z" fill="#FFDA44"/>
<path d="M20.0003 10C20.0003 5.70043 17.2865 2.03496 13.4785 0.62207V19.3781C17.2865 17.9651 20.0003 14.2997 20.0003 10Z" fill="#D80027"/>
<path d="M0 10C0 14.2997 2.71375 17.9651 6.52176 19.3781V0.62207C2.71375 2.03496 0 5.70043 0 10Z" fill="black"/>
</g>
<defs>
<clipPath id="clip0">
<rect width="20" height="20" fill="white"/>
</clipPath>
</defs>
</svg>
