<svg width="20" height="20" viewBox="0 0 20 20" fill="none" xmlns="http://www.w3.org/2000/svg">
<g clip-path="url(#clip0)">
<path d="M10 20C15.5228 20 20 15.5228 20 10C20 4.47715 15.5228 0 10 0C4.47715 0 0 4.47715 0 10C0 15.5228 4.47715 20 10 20Z" fill="#F0F0F0"/>
<path d="M2.92893 17.0711C-0.976309 13.1659 -0.976309 6.83423 2.92893 2.92896C2.92865 2.92938 8.69568 10 8.69568 10L2.92893 17.0711Z" fill="black"/>
<path d="M8.69609 9.99998L1.32672 5.02002C1.09824 5.41717 0.896758 5.8317 0.723633 6.26076L4.45445 10L0.72375 13.7395C0.896719 14.1682 1.09801 14.5825 1.32633 14.9794L8.69609 9.99998Z" fill="#FFDA44"/>
<path d="M19.9156 8.6958H8.69566L2.9291 2.9292C2.3077 3.55061 1.76781 4.25338 1.32656 5.02022L6.29684 10.0001L1.32617 14.9794C1.76742 15.7465 2.30754 16.4495 2.9291 17.071L8.69566 11.3045H19.9156C19.9712 10.8775 20.0003 10.4422 20.0003 10.0001C20.0003 9.55807 19.9712 9.12275 19.9156 8.6958Z" fill="#6DA544"/>
<path d="M3.91211 17.9326C5.5984 19.2288 7.70922 19.9999 10.0005 19.9999C14.6207 19.9999 18.5085 16.8663 19.656 12.6086H9.23613L3.91211 17.9326Z" fill="#0052B4"/>
<path d="M19.656 7.39129C18.5085 3.13363 14.6207 0 10.0005 0C7.70922 0 5.5984 0.771133 3.91211 2.0673L9.23609 7.39129H19.656Z" fill="#D80027"/>
</g>
<defs>
<clipPath id="clip0">
<rect width="20" height="20" fill="white"/>
</clipPath>
</defs>
</svg>
