<svg width="20" height="20" viewBox="0 0 20 20" fill="none" xmlns="http://www.w3.org/2000/svg">
<path d="M10 20C15.5228 20 20 15.5228 20 10C20 4.47715 15.5228 0 10 0C4.47715 0 0 4.47715 0 10C0 15.5228 4.47715 20 10 20Z" fill="#F0F0F0"/>
<path d="M0 10C0 4.47719 4.47719 0 10 0C15.5228 0 20 4.47719 20 10" fill="#D80027"/>
<path d="M6.08709 5.21727C6.08709 3.76031 7.11103 2.5432 8.47837 2.24457C8.26822 2.19871 8.05021 2.17383 7.82619 2.17383C6.14529 2.17383 4.78271 3.53641 4.78271 5.2173C4.78271 6.8982 6.14529 8.26078 7.82619 8.26078C8.05013 8.26078 8.26818 8.2359 8.47837 8.19C7.11103 7.89137 6.08709 6.67426 6.08709 5.21727Z" fill="#F0F0F0"/>
<path d="M9.99975 2.39136L10.2156 3.05562H10.9141L10.349 3.4662L10.5648 4.13046L9.99975 3.71995L9.43467 4.13046L9.65053 3.4662L9.08545 3.05562H9.78389L9.99975 2.39136Z" fill="#F0F0F0"/>
<path d="M8.30549 3.69556L8.52131 4.35985H9.21979L8.65471 4.7704L8.87057 5.43466L8.30549 5.02415L7.74033 5.43466L7.95623 4.7704L7.39111 4.35985H8.08959L8.30549 3.69556Z" fill="#F0F0F0"/>
<path d="M11.6946 3.69556L11.9105 4.35985H12.6089L12.0438 4.7704L12.2597 5.43466L11.6946 5.02415L11.1295 5.43466L11.3454 4.7704L10.7803 4.35985H11.4787L11.6946 3.69556Z" fill="#F0F0F0"/>
<path d="M11.0427 5.6521L11.2586 6.3164H11.957L11.3919 6.72694L11.6078 7.3912L11.0427 6.98069L10.4776 7.3912L10.6935 6.72694L10.1284 6.3164H10.8268L11.0427 5.6521Z" fill="#F0F0F0"/>
<path d="M8.95779 5.6521L9.17361 6.3164H9.87213L9.30701 6.72694L9.52291 7.3912L8.95779 6.98069L8.39268 7.3912L8.60854 6.72694L8.04346 6.3164H8.74193L8.95779 5.6521Z" fill="#F0F0F0"/>
</svg>
