<svg width="20" height="20" viewBox="0 0 20 20" fill="none" xmlns="http://www.w3.org/2000/svg">
<path d="M10 20C15.5228 20 20 15.5228 20 10C20 4.47715 15.5228 0 10 0C4.47715 0 0 4.47715 0 10C0 15.5228 4.47715 20 10 20Z" fill="#F0F0F0"/>
<path d="M9.99992 0C6.03531 0 2.60969 2.30723 0.992188 5.65219H19.0076C17.3902 2.30723 13.9645 0 9.99992 0Z" fill="#338AF3"/>
<path d="M9.99992 20.0001C13.9645 20.0001 17.3902 17.6929 19.0077 14.3479H0.992188C2.60969 17.6929 6.03531 20.0001 9.99992 20.0001Z" fill="#338AF3"/>
<path d="M12.9885 9.99999L11.7672 10.5745L12.4175 11.7573L11.0914 11.5035L10.9233 12.8432L9.9996 11.8579L9.07585 12.8432L8.90785 11.5035L7.58168 11.7572L8.23199 10.5744L7.01074 9.99999L8.23203 9.42549L7.58168 8.24276L8.90781 8.49643L9.07589 7.15674L9.9996 8.14205L10.9234 7.15674L11.0914 8.49643L12.4176 8.24276L11.7672 9.42553L12.9885 9.99999Z" fill="#FFDA44"/>
</svg>
