<svg width="24" height="24" viewBox="0 0 24 24" fill="none" xmlns="http://www.w3.org/2000/svg">
<g clip-path="url(#clip0)">
<path d="M19.0312 9.8906H13.212L18.2354 1.05194C18.3598 0.834226 18.359 0.567076 18.2334 0.350097C18.1071 0.1333 17.8756 0 17.625 0H9.1875C8.88482 0 8.61621 0.193725 8.52081 0.480651L4.30207 13.1837C4.22993 13.398 4.26637 13.6342 4.3982 13.8175C4.53077 14.0009 4.74299 14.1093 4.96876 14.1093H10.9338L7.13526 23.0201C6.99921 23.3367 7.11328 23.7055 7.40442 23.8901C7.6908 24.0732 8.0755 24.025 8.30658 23.7639L19.5565 11.0608C19.7406 10.8541 19.786 10.558 19.6726 10.3061C19.5593 10.0534 19.3081 9.8906 19.0312 9.8906Z" fill="#FF3333"/>
</g>
<defs>
<clipPath id="clip0">
<rect width="24" height="24" fill="white"/>
</clipPath>
</defs>
</svg>
