<svg width="64" height="65" viewBox="0 0 64 65" fill="none" xmlns="http://www.w3.org/2000/svg">
<path d="M11.6233 28.8413C11.5298 28.8413 11.5064 28.7945 11.5532 28.7244L12.0439 28.0934C12.0907 28.0233 12.2075 27.9766 12.301 27.9766H20.6442C20.7377 27.9766 20.7611 28.0467 20.7144 28.1168L20.3171 28.7244C20.2703 28.7945 20.1535 28.8646 20.0834 28.8646L11.6233 28.8413Z" fill="#202020"/>
<path d="M8.09348 30.9917C8 30.9917 7.97663 30.9449 8.02337 30.8748L8.51415 30.2438C8.56089 30.1737 8.67774 30.127 8.77122 30.127H19.4281C19.5216 30.127 19.5684 30.1971 19.545 30.2672L19.358 30.8281C19.3347 30.9215 19.2412 30.9683 19.1477 30.9683L8.09348 30.9917Z" fill="#202020"/>
<path d="M13.7502 33.1433C13.6567 33.1433 13.6334 33.0732 13.6801 33.0031L14.0073 32.4188C14.054 32.3487 14.1475 32.2786 14.241 32.2786H18.9151C19.0086 32.2786 19.0553 32.3487 19.0553 32.4422L19.0086 33.0031C19.0086 33.0965 18.9151 33.1666 18.845 33.1666L13.7502 33.1433Z" fill="#202020"/>
<path d="M38.007 28.4206C36.5347 28.7947 35.5297 29.0753 34.0808 29.4494C33.7302 29.5429 33.7068 29.5663 33.403 29.2156C33.0525 28.8181 32.7954 28.5609 32.3046 28.3271C30.8323 27.6023 29.4067 27.8127 28.0746 28.6778C26.4854 29.7065 25.6674 31.2263 25.6908 33.1201C25.7142 34.9905 26.9995 36.5336 28.8458 36.7908C30.435 37.0013 31.7671 36.4401 32.8188 35.2477C33.0291 34.9905 33.2161 34.71 33.4498 34.3826C32.6084 34.3826 31.5568 34.3826 28.9393 34.3826C28.4485 34.3826 28.3316 34.0787 28.4952 33.6812C28.7991 32.9564 29.3599 31.7406 29.6871 31.1328C29.7572 30.9925 29.9208 30.7587 30.2714 30.7587C31.4633 30.7587 35.8569 30.7587 38.7782 30.7587C38.7315 31.3899 38.7315 32.0212 38.638 32.6525C38.3809 34.3359 37.7499 35.879 36.7216 37.2351C35.039 39.4562 32.8421 40.8356 30.0611 41.2097C27.7708 41.5137 25.644 41.0695 23.7744 39.6666C22.045 38.3573 21.0634 36.6272 20.8064 34.4762C20.5026 31.9277 21.2504 29.6364 22.7929 27.6257C24.4522 25.4513 26.649 24.0719 29.3366 23.5809C31.5334 23.1834 33.6367 23.4406 35.5297 24.7265C36.7684 25.5448 37.6564 26.6671 38.2407 28.0232C38.3809 28.2336 38.2874 28.3505 38.007 28.4206Z" fill="#202020"/>
<path d="M45.7435 41.3498C43.6168 41.3031 41.677 40.6952 40.0411 39.2923C38.6623 38.0999 37.7976 36.5802 37.5171 34.7799C37.0964 32.1379 37.8209 29.7999 39.4101 27.719C41.1162 25.4745 43.1728 24.3055 45.9538 23.8145C48.3376 23.3936 50.5812 23.6274 52.6144 25.0069C54.4607 26.2694 55.6058 27.9762 55.9096 30.2207C56.3069 33.3771 55.3955 35.9489 53.222 38.1467C51.6796 39.7132 49.7866 40.6952 47.6131 41.1394C46.9821 41.2563 46.3511 41.2797 45.7435 41.3498ZM51.3057 31.9041C51.2823 31.6002 51.2823 31.3664 51.2355 31.1326C50.8149 28.8179 48.6882 27.5086 46.468 28.023C44.2945 28.514 42.8923 29.8934 42.3782 32.0912C41.9575 33.9148 42.8456 35.7619 44.5282 36.5101C45.8136 37.0712 47.099 37.0011 48.3376 36.3698C50.1839 35.4112 51.1888 33.9148 51.3057 31.9041Z" fill="#202020"/>
</svg>
