<svg width="118" height="102" viewBox="0 0 118 102" fill="none" xmlns="http://www.w3.org/2000/svg">
<path d="M22.085 79.1251C21.72 78.6393 21.3642 78.146 21.0179 77.6456L21.7633 77.1205C22.1028 77.6111 22.4516 78.0946 22.8094 78.5709L22.085 79.1251Z" fill="#3F3F3F"/>
<path d="M23.2087 80.5614C23.5926 81.0329 23.9856 81.4966 24.3873 81.9524L25.0666 81.3429C24.6728 80.896 24.2875 80.4413 23.9111 79.979L23.2087 80.5614Z" fill="#3F3F3F"/>
<path d="M25.6187 83.2959C26.0378 83.7355 26.4653 84.1669 26.9011 84.5898L27.5312 83.9287C27.104 83.5141 26.6848 83.0911 26.2739 82.66L25.6187 83.2959Z" fill="#3F3F3F"/>
<path d="M28.2326 85.8323C28.6843 86.2376 29.1439 86.634 29.6112 87.0214L30.1883 86.3127C29.7302 85.9329 29.2795 85.5442 28.8367 85.1468L28.2326 85.8323Z" fill="#3F3F3F"/>
<path d="M31.0347 88.1553C31.5162 88.5236 32.005 88.8825 32.501 89.232L33.0214 88.4799C32.5352 88.1373 32.056 87.7854 31.5839 87.4243L31.0347 88.1553Z" fill="#3F3F3F"/>
<path d="M34.0079 90.2499C34.5164 90.579 35.0316 90.8983 35.5534 91.2075L36.0139 90.4166C35.5023 90.1135 34.9972 89.8005 34.4988 89.4778L34.0079 90.2499Z" fill="#3F3F3F"/>
<path d="M37.1353 92.1033C37.6676 92.391 38.2062 92.6684 38.7507 92.9354L39.1481 92.1104C38.6143 91.8487 38.0863 91.5767 37.5645 91.2947L37.1353 92.1033Z" fill="#3F3F3F"/>
<path d="M40.3968 93.7024C40.9496 93.9467 41.508 94.1804 42.0718 94.4032L42.4033 93.5491C41.8507 93.3307 41.3034 93.1016 40.7616 92.8622L40.3968 93.7024Z" fill="#3F3F3F"/>
<path d="M43.7732 95.0368C44.3434 95.2363 44.9186 95.4248 45.4987 95.6021L45.7623 94.7243C45.1937 94.5505 44.6299 94.3657 44.071 94.1702L43.7732 95.0368Z" fill="#3F3F3F"/>
<path d="M47.245 96.0981C47.8282 96.2513 48.4158 96.3932 49.0077 96.5236L49.2018 95.6275C48.6216 95.4996 48.0456 95.3605 47.4739 95.2104L47.245 96.0981Z" fill="#3F3F3F"/>
<path d="M50.7862 96.8787C51.3797 96.9849 51.977 97.0797 52.578 97.1629L52.7015 96.2541C52.1123 96.1726 51.5268 96.0797 50.9451 95.9755L50.7862 96.8787Z" fill="#3F3F3F"/>
<path d="M54.3807 97.376C54.98 97.4348 55.5826 97.4821 56.1884 97.5176L56.2411 96.6019C55.6472 96.5671 55.0563 96.5207 54.4688 96.463L54.3807 97.376Z" fill="#3F3F3F"/>
<path d="M57.9991 97.5882C58.3017 97.5942 58.6051 97.5971 58.9091 97.5971C59.2131 97.5971 59.5165 97.5942 59.8191 97.5882L59.8015 96.6712C59.5048 96.6769 59.2073 96.6799 58.9091 96.6799C58.6109 96.6799 58.3134 96.6769 58.0166 96.6712L57.9991 97.5882Z" fill="#3F3F3F"/>
<path d="M61.6298 97.5176C62.2356 97.4821 62.8382 97.4348 63.4375 97.376L63.3494 96.463C62.7619 96.5207 62.171 96.5671 61.5771 96.6019L61.6298 97.5176Z" fill="#3F3F3F"/>
<path d="M67.0319 96.8787C66.4385 96.9849 65.8412 97.0797 65.2401 97.1629L65.1167 96.2541C65.7058 96.1726 66.2914 96.0797 66.8731 95.9755L67.0319 96.8787Z" fill="#3F3F3F"/>
<path d="M68.8104 96.5236C69.4023 96.3932 69.99 96.2513 70.5732 96.0981L70.3442 95.2104C69.7726 95.3605 69.1966 95.4996 68.6164 95.6275L68.8104 96.5236Z" fill="#3F3F3F"/>
<path d="M72.3195 95.6021C72.8996 95.4248 73.4748 95.2363 74.045 95.0368L73.7472 94.1702C73.1883 94.3657 72.6245 94.5505 72.0559 94.7243L72.3195 95.6021Z" fill="#3F3F3F"/>
<path d="M75.7464 94.4032C76.3102 94.1804 76.8686 93.9467 77.4214 93.7024L77.0566 92.8622C76.5148 93.1016 75.9675 93.3307 75.4149 93.5491L75.7464 94.4032Z" fill="#3F3F3F"/>
<path d="M79.0674 92.9354C79.612 92.6684 80.1506 92.391 80.6829 92.1033L80.2537 91.2947C79.7319 91.5767 79.2039 91.8487 78.6701 92.1104L79.0674 92.9354Z" fill="#3F3F3F"/>
<path d="M82.2648 91.2075C82.7866 90.8983 83.3018 90.579 83.8103 90.2499L83.3194 89.4778C82.821 89.8004 82.3159 90.1135 81.8043 90.4166L82.2648 91.2075Z" fill="#3F3F3F"/>
<path d="M85.3172 89.232C85.8132 88.8825 86.302 88.5235 86.7835 88.1553L86.2343 87.4243C85.7622 87.7854 85.283 88.1373 84.7968 88.4799L85.3172 89.232Z" fill="#3F3F3F"/>
<path d="M88.207 87.0214C88.6743 86.634 89.1339 86.2376 89.5856 85.8323L88.9815 85.1468C88.5387 85.5442 88.088 85.9329 87.6299 86.3127L88.207 87.0214Z" fill="#3F3F3F"/>
<path d="M90.9171 84.5898C91.3529 84.1669 91.7804 83.7355 92.1995 83.2959L91.5443 82.66C91.1334 83.0911 90.7142 83.5141 90.287 83.9286L90.9171 84.5898Z" fill="#3F3F3F"/>
<path d="M93.4309 81.9524C93.8326 81.4966 94.2255 81.0329 94.6095 80.5613L93.9071 79.979C93.5307 80.4413 93.1454 80.896 92.7516 81.3429L93.4309 81.9524Z" fill="#3F3F3F"/>
<path d="M95.7332 79.125C96.0982 78.6392 96.454 78.146 96.8003 77.6456L96.0549 77.1205C95.7154 77.6111 95.3666 78.0946 95.0088 78.5709L95.7332 79.125Z" fill="#3F3F3F"/>
<path fill-rule="evenodd" clip-rule="evenodd" d="M55.2946 80.1691V84.2371H55.0211L54.8989 83.9832C54.7787 84.0793 54.6409 84.1582 54.4858 84.2198C54.3345 84.2813 54.189 84.3121 54.0493 84.3121C53.6381 84.3121 53.3297 84.1736 53.1241 83.8966C52.9223 83.6158 52.8215 83.2638 52.8215 82.8407C52.8215 82.4098 52.9243 82.0559 53.1299 81.779C53.3394 81.4981 53.6497 81.3577 54.061 81.3577C54.1812 81.3577 54.3112 81.3847 54.4509 81.4385C54.5905 81.4885 54.7166 81.5558 54.8291 81.6405V80.221L55.2946 80.1691ZM54.1308 81.7443C53.8243 81.7443 53.6071 81.852 53.479 82.0675C53.3549 82.279 53.2928 82.5349 53.2928 82.8349C53.2928 83.1465 53.3549 83.4062 53.479 83.6139C53.6032 83.8178 53.8204 83.9197 54.1308 83.9197C54.2394 83.9197 54.3558 83.8947 54.4799 83.8447C54.6041 83.7908 54.7205 83.7158 54.8291 83.6197V82.0502C54.7205 81.954 54.6041 81.879 54.4799 81.8251C54.3558 81.7713 54.2394 81.7443 54.1308 81.7443Z" fill="#3F3F3F"/>
<path fill-rule="evenodd" clip-rule="evenodd" d="M45.9277 84.4621C45.9277 84.7545 45.8249 84.9987 45.6193 85.1949C45.4176 85.3911 45.115 85.4892 44.7115 85.4892C44.5951 85.4892 44.438 85.4661 44.2401 85.42C44.0423 85.3776 43.8832 85.3142 43.763 85.2295L43.9026 84.9006C44.019 84.9507 44.1335 84.9987 44.246 85.0449C44.3623 85.0911 44.5136 85.1141 44.6999 85.1141C44.9326 85.1141 45.1169 85.0584 45.2527 84.9468C45.3924 84.8391 45.4622 84.6756 45.4622 84.4563V84.0293C45.3497 84.114 45.2217 84.1813 45.0781 84.2313C44.9385 84.2813 44.8065 84.3063 44.6824 84.3063C44.2712 84.3063 43.9628 84.1698 43.7571 83.8966C43.5554 83.6197 43.4545 83.2677 43.4545 82.8407C43.4545 82.4137 43.5574 82.0598 43.763 81.779C43.9725 81.4981 44.2828 81.3577 44.694 81.3577C44.8298 81.3577 44.9734 81.3904 45.1247 81.4558C45.276 81.5174 45.4118 81.5962 45.532 81.6924C45.5514 81.6539 45.5708 81.6135 45.5902 81.5712C45.6096 81.5251 45.629 81.4808 45.6484 81.4385H45.9277V84.4621ZM45.4622 82.0502C45.3536 81.954 45.2352 81.879 45.1072 81.8251C44.9831 81.7713 44.8667 81.7443 44.7581 81.7443C44.4555 81.7443 44.2401 81.852 44.1121 82.0675C43.988 82.279 43.9259 82.5349 43.9259 82.8349C43.9259 83.1465 43.986 83.4062 44.1063 83.6139C44.2304 83.8216 44.4477 83.9255 44.7581 83.9255C44.8667 83.9255 44.9831 83.8985 45.1072 83.8447C45.2352 83.7908 45.3536 83.7158 45.4622 83.6197V82.0502Z" fill="#3F3F3F"/>
<path fill-rule="evenodd" clip-rule="evenodd" d="M47.8697 84.3121C47.4546 84.3082 47.1423 84.1678 46.9328 83.8909C46.7233 83.6139 46.6185 83.2581 46.6185 82.8234C46.6224 82.4002 46.7369 82.0521 46.9619 81.779C47.1869 81.5058 47.5089 81.3673 47.9279 81.3635C48.3546 81.3635 48.6727 81.5039 48.8822 81.7847C49.0956 82.0655 49.2023 82.4233 49.2023 82.858C49.1984 83.285 49.0801 83.635 48.8473 83.9082C48.6145 84.1774 48.2886 84.3121 47.8697 84.3121ZM48.7425 82.858C48.7425 82.5387 48.6805 82.2752 48.5563 82.0675C48.4361 81.8597 48.2305 81.7559 47.9395 81.7559C47.6524 81.7559 47.439 81.8559 47.2994 82.0559C47.1636 82.2521 47.0938 82.506 47.0899 82.8176C47.0899 83.1446 47.1481 83.41 47.2645 83.6139C47.3808 83.8178 47.5845 83.9197 47.8755 83.9197C48.1664 83.9197 48.3818 83.8235 48.5214 83.6312C48.665 83.4389 48.7387 83.1811 48.7425 82.858Z" fill="#3F3F3F"/>
<path fill-rule="evenodd" clip-rule="evenodd" d="M50.0342 83.8909C50.2437 84.1678 50.556 84.3082 50.9711 84.3121C51.3901 84.3121 51.716 84.1774 51.9488 83.9082C52.1815 83.635 52.2999 83.285 52.3037 82.858C52.3037 82.4233 52.1971 82.0655 51.9837 81.7847C51.7742 81.5039 51.4561 81.3635 51.0293 81.3635C50.6103 81.3673 50.2883 81.5058 50.0633 81.779C49.8383 82.0521 49.7239 82.4002 49.72 82.8234C49.72 83.2581 49.8247 83.6139 50.0342 83.8909ZM51.6578 82.0675C51.782 82.2752 51.844 82.5387 51.844 82.858C51.8401 83.1811 51.7664 83.4389 51.6229 83.6312C51.4832 83.8235 51.2679 83.9197 50.977 83.9197C50.686 83.9197 50.4823 83.8178 50.3659 83.6139C50.2496 83.41 50.1914 83.1446 50.1914 82.8176C50.1952 82.506 50.2651 82.2521 50.4008 82.0559C50.5405 81.8559 50.7539 81.7559 51.041 81.7559C51.3319 81.7559 51.5375 81.8597 51.6578 82.0675Z" fill="#3F3F3F"/>
<path d="M56.4394 80.423C56.2997 80.5768 56.2299 80.7865 56.2299 81.0519V81.4962H55.7992L55.8051 81.8482H56.2299V84.2371H56.6896V81.8482H57.3588L57.2075 81.4962H56.6896V81.075C56.6896 80.9327 56.7187 80.8173 56.7769 80.7288C56.8389 80.6403 56.9417 80.5961 57.0853 80.5961C57.1241 80.5961 57.1687 80.6018 57.2191 80.6134C57.2696 80.6249 57.3103 80.6384 57.3413 80.6538L57.4461 80.2902C57.4034 80.2672 57.3413 80.2441 57.2599 80.221C57.1784 80.1979 57.0969 80.1864 57.0155 80.1864C56.771 80.1864 56.579 80.2652 56.4394 80.423Z" fill="#3F3F3F"/>
<path d="M58.1304 80.8846C58.0412 80.8846 57.9674 80.8557 57.9093 80.798C57.8511 80.7365 57.822 80.6615 57.822 80.573C57.8181 80.4883 57.8452 80.4172 57.9034 80.3595C57.9655 80.2979 58.0412 80.2672 58.1304 80.2672C58.2157 80.2672 58.2894 80.2979 58.3515 80.3595C58.4175 80.4172 58.4504 80.4883 58.4504 80.573C58.4504 80.6615 58.4175 80.7365 58.3515 80.798C58.2894 80.8557 58.2157 80.8846 58.1304 80.8846Z" fill="#3F3F3F"/>
<path d="M57.9034 84.2371V81.4385H58.369V84.2371H57.9034Z" fill="#3F3F3F"/>
<path d="M59.2202 81.4385V84.2371H59.6799V82.2579C59.8041 82.1348 59.9515 82.029 60.1222 81.9405C60.2929 81.8482 60.4617 81.802 60.6285 81.802C60.6091 81.7405 60.5897 81.6809 60.5703 81.6232C60.5509 81.5616 60.5334 81.5001 60.5179 81.4385C60.3666 81.4385 60.2076 81.4827 60.0407 81.5712C59.8778 81.6559 59.7439 81.7424 59.6392 81.8309L59.4995 81.4385H59.2202Z" fill="#3F3F3F"/>
<path d="M63.2534 81.8136C63.3737 81.6866 63.525 81.5789 63.7073 81.4904C63.8896 81.402 64.0642 81.3577 64.231 81.3577C64.5569 81.3577 64.7974 81.452 64.9526 81.6405C65.1078 81.8251 65.1854 82.0579 65.1854 82.3387V84.2313H64.7198V82.4021C64.7198 82.2136 64.6733 82.0579 64.5802 81.9347C64.4871 81.8117 64.3435 81.7482 64.1496 81.7443C64.0254 81.7443 63.8916 81.779 63.748 81.8482C63.6084 81.9174 63.4765 82.0155 63.3523 82.1425C63.3562 82.1771 63.3582 82.2117 63.3582 82.2463C63.3604 82.2643 63.362 82.2822 63.363 82.3002C63.3636 82.313 63.364 82.3258 63.364 82.3387V84.2313H62.8984V82.4021C62.8984 82.2136 62.8519 82.0579 62.7588 81.9347C62.6695 81.8117 62.5299 81.7482 62.3398 81.7443C62.2118 81.7443 62.0779 81.779 61.9383 81.8482C61.7986 81.9136 61.6667 82.0117 61.5425 82.1425V84.2371H61.0828V81.4385H61.3622L61.496 81.7559C61.6201 81.6405 61.7656 81.5462 61.9324 81.4731C62.0993 81.3962 62.2603 81.3577 62.4154 81.3577C62.6249 81.3577 62.7995 81.4 62.9392 81.4847C63.0827 81.5655 63.1875 81.6751 63.2534 81.8136Z" fill="#3F3F3F"/>
<path d="M67.2889 81.8136C67.4091 81.8559 67.5158 81.9001 67.6089 81.9463L67.7486 81.6116C67.64 81.5347 67.4964 81.4751 67.318 81.4327C67.1395 81.3866 66.9901 81.3635 66.8699 81.3635C66.5479 81.3635 66.2918 81.4347 66.1017 81.577C65.9155 81.7155 65.8224 81.9097 65.8224 82.1598C65.8224 82.3791 65.9194 82.5541 66.1134 82.6849C66.3112 82.8118 66.5207 82.9118 66.7419 82.9849C66.9319 83.0465 67.091 83.1234 67.219 83.2157C67.3471 83.3042 67.4111 83.4081 67.4111 83.5273C67.4111 83.662 67.3529 83.762 67.2365 83.8274C67.1201 83.8928 66.9572 83.9255 66.7477 83.9255C66.6119 83.9255 66.4761 83.9062 66.3403 83.8678C66.2084 83.8293 66.0882 83.7831 65.9795 83.7293L65.8399 84.0755C65.9563 84.1524 66.1056 84.2101 66.2879 84.2486C66.4703 84.2909 66.6216 84.3121 66.7419 84.3121C67.1104 84.3121 67.3897 84.2409 67.5798 84.0986C67.7738 83.9524 67.8708 83.7524 67.8708 83.4985C67.8708 83.2677 67.7699 83.083 67.5682 82.9445C67.3703 82.8061 67.157 82.6964 66.9281 82.6156C66.7419 82.5541 66.5886 82.4868 66.4683 82.4137C66.352 82.3367 66.2938 82.2444 66.2938 82.1367C66.2938 82.0175 66.3442 81.9232 66.4451 81.854C66.5498 81.7847 66.6875 81.7501 66.8582 81.7501C67.0251 81.7501 67.1686 81.7713 67.2889 81.8136Z" fill="#3F3F3F"/>
<path d="M68.4893 83.6197C68.5747 83.6197 68.6464 83.6504 68.7046 83.712C68.7667 83.7697 68.7977 83.8409 68.7977 83.9255C68.7977 84.014 68.7667 84.089 68.7046 84.1505C68.6464 84.2082 68.5747 84.2371 68.4893 84.2371C68.4001 84.2371 68.3244 84.2082 68.2624 84.1505C68.2003 84.089 68.1693 84.014 68.1693 83.9255C68.1693 83.8409 68.2003 83.7697 68.2624 83.712C68.3244 83.6504 68.4001 83.6197 68.4893 83.6197Z" fill="#3F3F3F"/>
<path d="M69.7912 82.0617C69.927 81.854 70.1384 81.7501 70.4255 81.7501C70.6117 81.7501 70.7533 81.7713 70.8503 81.8136C70.9511 81.852 71.0559 81.8963 71.1645 81.9463L71.3042 81.6174C71.1839 81.5366 71.0365 81.4751 70.8619 81.4327C70.6912 81.3866 70.5496 81.3635 70.4371 81.3635C70.0104 81.3635 69.6825 81.502 69.4537 81.779C69.2287 82.0521 69.1142 82.4021 69.1103 82.8291C69.1103 83.2638 69.2189 83.6197 69.4362 83.8966C69.6573 84.1736 69.9813 84.3121 70.408 84.3121C70.5283 84.3121 70.6738 84.289 70.8445 84.2428C71.0152 84.2005 71.1606 84.1409 71.2809 84.064L71.1412 83.7293C71.0326 83.7831 70.9298 83.8293 70.8328 83.8678C70.7358 83.9062 70.5923 83.9255 70.4022 83.9255C70.1112 83.9255 69.9017 83.8216 69.7737 83.6139C69.6457 83.4023 69.5817 83.1388 69.5817 82.8234C69.5856 82.5195 69.6554 82.2656 69.7912 82.0617Z" fill="#3F3F3F"/>
<path fill-rule="evenodd" clip-rule="evenodd" d="M73.031 84.3121C72.6159 84.3082 72.3036 84.1678 72.0941 83.8909C71.8846 83.6139 71.7799 83.2581 71.7799 82.8234C71.7838 82.4002 71.8982 82.0521 72.1232 81.779C72.3482 81.5058 72.6702 81.3673 73.0892 81.3635C73.516 81.3635 73.8341 81.5039 74.0436 81.7847C74.257 82.0655 74.3636 82.4233 74.3636 82.858C74.3598 83.285 74.2414 83.635 74.0087 83.9082C73.7759 84.1774 73.45 84.3121 73.031 84.3121ZM73.9039 82.858C73.9039 82.5387 73.8419 82.2752 73.7177 82.0675C73.5974 81.8597 73.3918 81.7559 73.1009 81.7559C72.8138 81.7559 72.6004 81.8559 72.4608 82.0559C72.325 82.2521 72.2551 82.506 72.2513 82.8176C72.2513 83.1446 72.3094 83.41 72.4258 83.6139C72.5422 83.8178 72.7459 83.9197 73.0369 83.9197C73.3278 83.9197 73.5431 83.8235 73.6828 83.6312C73.8263 83.4389 73.9 83.1811 73.9039 82.858Z" fill="#3F3F3F"/>
<path d="M105.082 51.9182C105.088 51.6129 105.091 51.3068 105.091 51C105.091 50.6932 105.088 50.3872 105.082 50.0818L104.173 50.0995C104.179 50.399 104.182 50.6991 104.182 51C104.182 51.3009 104.179 51.601 104.173 51.9005L105.082 51.9182Z" fill="#3F3F3F"/>
<path d="M105.012 48.2548C104.977 47.6436 104.93 47.0356 104.872 46.4309L103.967 46.5198C104.024 47.1126 104.07 47.7087 104.105 48.308L105.012 48.2548Z" fill="#3F3F3F"/>
<path d="M104.661 44.612C104.578 44.0056 104.484 43.4029 104.379 42.8041L103.484 42.9644C103.587 43.5513 103.679 44.1421 103.76 44.7366L104.661 44.612Z" fill="#3F3F3F"/>
<path d="M104.027 41.0096C103.898 40.4124 103.757 39.8194 103.605 39.231L102.725 39.462C102.874 40.0388 103.012 40.62 103.139 41.2054L104.027 41.0096Z" fill="#3F3F3F"/>
<path d="M103.114 37.469C102.938 36.8837 102.751 36.3033 102.553 35.728L101.694 36.0285C101.888 36.5924 102.071 37.1613 102.244 37.735L103.114 37.469Z" fill="#3F3F3F"/>
<path d="M101.925 34.0112C101.705 33.4424 101.473 32.879 101.231 32.3212L100.398 32.6893C100.635 33.236 100.863 33.7882 101.079 34.3458L101.925 34.0112Z" fill="#3F3F3F"/>
<path d="M100.471 30.6604C100.206 30.1109 99.9312 29.5675 99.646 29.0304L98.8447 29.4635C99.1242 29.99 99.3937 30.5227 99.6531 31.0613L100.471 30.6604Z" fill="#3F3F3F"/>
<path d="M98.7583 27.4343C98.4518 26.9078 98.1353 26.3879 97.8092 25.8749L97.044 26.3702C97.3637 26.8731 97.6739 27.3827 97.9744 27.8989L98.7583 27.4343Z" fill="#3F3F3F"/>
<path d="M96.8003 24.3544C96.454 23.854 96.0982 23.3607 95.7332 22.8749L95.0088 23.4291C95.3666 23.9054 95.7154 24.3889 96.0549 24.8795L96.8003 24.3544Z" fill="#3F3F3F"/>
<path d="M94.6095 21.4386C94.2255 20.9671 93.8326 20.5034 93.4309 20.0476L92.7516 20.6571C93.1454 21.104 93.5306 21.5587 93.9071 22.0209L94.6095 21.4386Z" fill="#3F3F3F"/>
<path d="M92.1995 18.7041C91.7804 18.2644 91.3529 17.833 90.9171 17.4102L90.2869 18.0713C90.7142 18.4859 91.1334 18.9089 91.5443 19.34L92.1995 18.7041Z" fill="#3F3F3F"/>
<path d="M89.5856 16.1677C89.1339 15.7624 88.6743 15.366 88.207 14.9785L87.6299 15.6873C88.088 16.0671 88.5387 16.4558 88.9815 16.8532L89.5856 16.1677Z" fill="#3F3F3F"/>
<path d="M86.7835 13.8447C86.302 13.4764 85.8132 13.1175 85.3172 12.768L84.7968 13.5201C85.283 13.8627 85.7622 14.2146 86.2342 14.5757L86.7835 13.8447Z" fill="#3F3F3F"/>
<path d="M83.8103 11.7501C83.3018 11.421 82.7866 11.1017 82.2648 10.7925L81.8043 11.5834C82.3159 11.8865 82.821 12.1995 83.3194 12.5222L83.8103 11.7501Z" fill="#3F3F3F"/>
<path d="M79.0674 9.06456C79.612 9.33155 80.1506 9.60903 80.6829 9.89672L80.2537 10.7053C79.7318 10.4233 79.2039 10.1513 78.6701 9.88958L79.0674 9.06456Z" fill="#3F3F3F"/>
<path d="M75.7464 7.59679C76.3102 7.81962 76.8686 8.05332 77.4214 8.29762L77.0566 9.13782C76.5148 8.89835 75.9675 8.66929 75.4148 8.45087L75.7464 7.59679Z" fill="#3F3F3F"/>
<path d="M74.045 6.96319C73.4748 6.76371 72.8996 6.57518 72.3195 6.39785L72.0559 7.27571C72.6245 7.44952 73.1883 7.63431 73.7472 7.82983L74.045 6.96319Z" fill="#3F3F3F"/>
<path d="M70.5732 5.90187C69.99 5.74874 69.4023 5.60683 68.8104 5.47636L68.6164 6.3725C69.1966 6.50038 69.7726 6.63948 70.3442 6.78957L70.5732 5.90187Z" fill="#3F3F3F"/>
<path d="M67.0319 5.12132C66.4385 5.01507 65.8412 4.92026 65.2402 4.83712L65.1167 5.74589C65.7059 5.82739 66.2914 5.92033 66.8731 6.02447L67.0319 5.12132Z" fill="#3F3F3F"/>
<path d="M63.4375 4.62404C62.8382 4.5652 62.2356 4.51791 61.6298 4.4824L61.5771 5.39812C62.171 5.43294 62.7619 5.4793 63.3494 5.537L63.4375 4.62404Z" fill="#3F3F3F"/>
<path d="M59.8191 4.41174C59.5165 4.40584 59.2131 4.40288 58.9091 4.40288C58.6051 4.40288 58.3017 4.40584 57.9991 4.41174L58.0166 5.32884C58.3134 5.32305 58.6109 5.32014 58.9091 5.32014C59.2073 5.32014 59.5048 5.32305 59.8016 5.32884L59.8191 4.41174Z" fill="#3F3F3F"/>
<path d="M56.1884 4.4824C55.5826 4.51791 54.98 4.5652 54.3807 4.62404L54.4688 5.537C55.0563 5.4793 55.6472 5.43294 56.2411 5.39812L56.1884 4.4824Z" fill="#3F3F3F"/>
<path d="M52.578 4.83712C51.977 4.92026 51.3797 5.01507 50.7863 5.12131L50.9451 6.02447C51.5268 5.92033 52.1123 5.82739 52.7015 5.74589L52.578 4.83712Z" fill="#3F3F3F"/>
<path d="M49.0077 5.47636C48.4158 5.60683 47.8282 5.74874 47.245 5.90187L47.4739 6.78957C48.0456 6.63948 48.6216 6.50038 49.2018 6.3725L49.0077 5.47636Z" fill="#3F3F3F"/>
<path d="M45.4987 6.39785C44.9186 6.57518 44.3434 6.76371 43.7732 6.96319L44.071 7.82983C44.6299 7.63431 45.1937 7.44952 45.7623 7.27571L45.4987 6.39785Z" fill="#3F3F3F"/>
<path d="M42.0718 7.59679C41.508 7.81963 40.9496 8.05332 40.3968 8.29763L40.7616 9.13782C41.3034 8.89835 41.8507 8.66929 42.4033 8.45087L42.0718 7.59679Z" fill="#3F3F3F"/>
<path d="M38.7507 9.06457C38.2062 9.33156 37.6676 9.60903 37.1353 9.89673L37.5645 10.7053C38.0863 10.4233 38.6143 10.1513 39.1481 9.88959L38.7507 9.06457Z" fill="#3F3F3F"/>
<path d="M35.5534 10.7925C35.0316 11.1017 34.5164 11.421 34.0079 11.7501L34.4988 12.5222C34.9972 12.1996 35.5023 11.8865 36.0138 11.5834L35.5534 10.7925Z" fill="#3F3F3F"/>
<path d="M31.0347 13.8447C31.5162 13.4764 32.005 13.1175 32.501 12.768L33.0214 13.5201C32.5352 13.8627 32.0559 14.2146 31.5839 14.5757L31.0347 13.8447Z" fill="#3F3F3F"/>
<path d="M29.6112 14.9786C29.1439 15.366 28.6843 15.7624 28.2326 16.1677L28.8367 16.8532C29.2795 16.4558 29.7302 16.0671 30.1883 15.6873L29.6112 14.9786Z" fill="#3F3F3F"/>
<path d="M26.9011 17.4102C26.4653 17.8331 26.0377 18.2645 25.6187 18.7041L26.2739 19.34C26.6848 18.9089 27.104 18.4859 27.5312 18.0714L26.9011 17.4102Z" fill="#3F3F3F"/>
<path d="M24.3873 20.0476C23.9856 20.5034 23.5926 20.9671 23.2087 21.4387L23.9111 22.021C24.2875 21.5587 24.6728 21.104 25.0666 20.6571L24.3873 20.0476Z" fill="#3F3F3F"/>
<path d="M22.085 22.875C21.72 23.3607 21.3642 23.854 21.0179 24.3544L21.7632 24.8795C22.1028 24.3889 22.4516 23.9054 22.8094 23.4291L22.085 22.875Z" fill="#3F3F3F"/>
<path d="M20.009 25.8749C19.6828 26.3879 19.3664 26.9078 19.0599 27.4343L19.8438 27.8989C20.1442 27.3827 20.4545 26.8731 20.7742 26.3702L20.009 25.8749Z" fill="#3F3F3F"/>
<path d="M18.1722 29.0304C17.887 29.5675 17.612 30.1109 17.3474 30.6604L18.1651 31.0613C18.4245 30.5227 18.694 29.99 18.9735 29.4635L18.1722 29.0304Z" fill="#3F3F3F"/>
<path d="M15.8927 34.0113C16.1136 33.4424 16.3452 32.879 16.5873 32.3212L17.42 32.6893C17.1827 33.236 16.9557 33.7882 16.7392 34.3458L15.8927 34.0113Z" fill="#3F3F3F"/>
<path d="M15.2648 35.728C15.0671 36.3033 14.8802 36.8837 14.7045 37.469L15.5745 37.735C15.7468 37.1613 15.9299 36.5924 16.1237 36.0285L15.2648 35.728Z" fill="#3F3F3F"/>
<path d="M14.2129 39.231C14.0611 39.8194 13.9205 40.4124 13.7912 41.0096L14.6793 41.2054C14.8061 40.62 14.9439 40.0388 15.0927 39.462L14.2129 39.231Z" fill="#3F3F3F"/>
<path d="M13.4393 42.8041C13.334 43.4029 13.24 44.0056 13.1576 44.612L14.0583 44.7366C14.1391 44.1421 14.2312 43.5513 14.3344 42.9644L13.4393 42.8041Z" fill="#3F3F3F"/>
<path d="M12.9465 46.4309C12.8881 47.0356 12.8413 47.6436 12.8061 48.2548L13.7136 48.308C13.7482 47.7087 13.7941 47.1126 13.8513 46.5198L12.9465 46.4309Z" fill="#3F3F3F"/>
<path d="M12.7273 51C12.7273 50.6932 12.7302 50.3871 12.7361 50.0818L13.645 50.0995C13.6392 50.399 13.6364 50.6991 13.6364 51C13.6364 51.3009 13.6392 51.601 13.645 51.9005L12.7361 51.9182C12.7302 51.6128 12.7273 51.3068 12.7273 51Z" fill="#3F3F3F"/>
<path d="M50 21.464V33.6637H54.9091V21.8309C54.9091 21.1217 55.4789 20.5468 56.1818 20.5468H67.3636V15.5935H55.8182C52.6049 15.5935 50 18.2218 50 21.464Z" fill="#3F3F3F"/>
<path d="M56.2727 22.9317V26.7842H62.6364C62.7368 26.7842 62.8182 26.8663 62.8182 26.9676V28.1601C62.8182 28.3627 62.6554 28.527 62.4545 28.527H56.2727V33.6637H62.2727C65.2852 33.6637 67.7273 31.1996 67.7273 28.1601V22.1978H57C56.5983 22.1978 56.2727 22.5264 56.2727 22.9317Z" fill="#3F3F3F"/>
<path fill-rule="evenodd" clip-rule="evenodd" d="M54.7251 47.3309C54.0446 47.3309 53.5137 47.069 53.1324 46.5452C52.7511 46.0214 52.5604 45.2863 52.5604 44.3399C52.5604 43.3901 52.7527 42.6515 53.1373 42.1242C53.5252 41.5934 54.0611 41.328 54.7448 41.328C55.4614 41.328 56.0071 41.6091 56.3819 42.1713H56.4411C56.3852 41.7557 56.3572 41.4275 56.3572 41.1865V39.0755H57.5209V47.2262H56.6136L56.4115 46.4666H56.3572C55.9858 47.0428 55.4417 47.3309 54.7251 47.3309ZM55.0357 46.3357C55.5124 46.3357 55.8592 46.1942 56.0762 45.9114C56.2931 45.625 56.4049 45.1623 56.4115 44.5233V44.3504C56.4115 43.6205 56.2997 43.102 56.0762 42.7947C55.8526 42.4874 55.5025 42.3337 55.0259 42.3337C54.6183 42.3337 54.3043 42.51 54.0841 42.8628C53.8638 43.212 53.7537 43.7113 53.7537 44.3609C53.7537 45.0034 53.8605 45.4941 54.0742 45.8328C54.2879 46.1681 54.6084 46.3357 55.0357 46.3357Z" fill="#3F3F3F"/>
<path d="M36.5765 43.0723H39.2293V46.9171C38.7954 47.0673 38.3779 47.1738 37.9768 47.2366C37.5791 47.2995 37.1484 47.3309 36.6849 47.3309C35.5936 47.3309 34.752 46.9887 34.1603 46.3042C33.5686 45.6163 33.2727 44.6472 33.2727 43.397C33.2727 42.1643 33.6064 41.2005 34.2737 40.5056C34.941 39.8071 35.8598 39.4579 37.0301 39.4579C37.7829 39.4579 38.4962 39.6116 39.1701 39.9189L38.7559 40.9613C38.1708 40.6749 37.5857 40.5318 37.0005 40.5318C36.2313 40.5318 35.6231 40.7884 35.1761 41.3018C34.729 41.8151 34.5055 42.517 34.5055 43.4075C34.5055 44.3434 34.706 45.0558 35.107 45.5447C35.5114 46.0301 36.0916 46.2728 36.8477 46.2728C37.229 46.2728 37.6366 46.2222 38.0705 46.1209V44.1461H36.5765V43.0723Z" fill="#3F3F3F"/>
<path fill-rule="evenodd" clip-rule="evenodd" d="M45.578 44.319C45.578 45.2653 45.3495 46.0039 44.8926 46.5347C44.4357 47.0655 43.7996 47.3309 42.9843 47.3309C42.4748 47.3309 42.0244 47.2087 41.6332 46.9643C41.2421 46.7198 40.9413 46.3689 40.7309 45.9114C40.5205 45.4539 40.4153 44.9231 40.4153 44.319C40.4153 43.3796 40.6421 42.6462 41.0958 42.1189C41.5494 41.5916 42.1888 41.328 43.0139 41.328C43.8029 41.328 44.4274 41.5986 44.8877 42.1399C45.3479 42.6777 45.578 43.404 45.578 44.319ZM41.6086 44.319C41.6086 45.6565 42.0737 46.3252 43.004 46.3252C43.9245 46.3252 44.3847 45.6565 44.3847 44.319C44.3847 42.9955 43.9212 42.3337 42.9942 42.3337C42.5077 42.3337 42.1543 42.5048 41.934 42.847C41.7171 43.1893 41.6086 43.6799 41.6086 44.319Z" fill="#3F3F3F"/>
<path fill-rule="evenodd" clip-rule="evenodd" d="M50.9651 46.5347C51.4221 46.0039 51.6505 45.2653 51.6505 44.319C51.6505 43.404 51.4204 42.6777 50.9602 42.1399C50.5 41.5986 49.8754 41.328 49.0865 41.328C48.2613 41.328 47.622 41.5916 47.1683 42.1189C46.7147 42.6462 46.4879 43.3796 46.4879 44.319C46.4879 44.9231 46.593 45.4539 46.8034 45.9114C47.0138 46.3689 47.3146 46.7198 47.7058 46.9643C48.097 47.2087 48.5473 47.3309 49.0569 47.3309C49.8721 47.3309 50.5082 47.0655 50.9651 46.5347ZM49.0766 46.3252C48.1463 46.3252 47.6811 45.6565 47.6811 44.319C47.6811 43.6799 47.7896 43.1893 48.0066 42.847C48.2268 42.5048 48.5802 42.3337 49.0667 42.3337C49.9938 42.3337 50.4573 42.9955 50.4573 44.319C50.4573 45.6565 49.997 46.3252 49.0766 46.3252Z" fill="#3F3F3F"/>
<path d="M59.2 47.2262H60.3687V44.0833H63.0856V43.0199H60.3687V40.626H63.268V39.5679H59.2V47.2262Z" fill="#3F3F3F"/>
<path d="M65.5093 47.2262H64.3505V41.4327H65.5093V47.2262Z" fill="#3F3F3F"/>
<path d="M64.2815 39.8979C64.2815 39.6779 64.3373 39.5086 64.4491 39.3898C64.5642 39.2711 64.7269 39.2117 64.9373 39.2117C65.1411 39.2117 65.2989 39.2711 65.4106 39.3898C65.5257 39.5086 65.5832 39.6779 65.5832 39.8979C65.5832 40.1075 65.5257 40.2733 65.4106 40.3956C65.2989 40.5143 65.1411 40.5737 64.9373 40.5737C64.7269 40.5737 64.5642 40.5143 64.4491 40.3956C64.3373 40.2733 64.2815 40.1075 64.2815 39.8979Z" fill="#3F3F3F"/>
<path d="M70.4132 41.3803C70.262 41.3454 70.0697 41.328 69.8363 41.328C69.501 41.328 69.187 41.4292 68.8945 41.6318C68.6052 41.8343 68.3701 42.1085 68.1893 42.4542H68.1302L67.9773 41.4327H67.07V47.2262H68.2288V44.1985C68.2288 43.6852 68.3718 43.2678 68.6578 42.9466C68.947 42.6253 69.3234 42.4646 69.7869 42.4646C69.9645 42.4646 70.1354 42.4856 70.2998 42.5275L70.4132 41.3803Z" fill="#3F3F3F"/>
<path d="M75.9236 47.2262H74.7599V43.6537C74.7599 43.2102 74.681 42.8802 74.5232 42.6637C74.3654 42.4437 74.1189 42.3337 73.7836 42.3337C73.3365 42.3337 73.0078 42.4891 72.7974 42.7999C72.5903 43.1072 72.4867 43.6205 72.4867 44.3399V47.2262H71.328V41.4327H72.2353L72.398 42.1923H72.4572C72.6084 41.9164 72.827 41.7034 73.113 41.5532C73.4023 41.403 73.7195 41.328 74.0646 41.328C74.9029 41.328 75.4585 41.6318 75.7313 42.2394H75.8102C75.9713 41.9531 76.1981 41.7296 76.4907 41.5689C76.7832 41.4083 77.1185 41.328 77.4966 41.328C78.1475 41.328 78.6208 41.5026 78.9167 41.8518C79.2158 42.201 79.3654 42.7335 79.3654 43.4494V47.2262H78.2066V43.6537C78.2066 43.2102 78.1261 42.8802 77.965 42.6637C77.8072 42.4437 77.5607 42.3337 77.2254 42.3337C76.775 42.3337 76.4446 42.4839 76.2343 42.7842C76.0272 43.081 75.9236 43.5385 75.9236 44.1566V47.2262Z" fill="#3F3F3F"/>
<path d="M83.9636 46.8805C84.3515 46.5766 84.5455 46.1419 84.5455 45.5761C84.5455 45.2968 84.4962 45.0576 84.3975 44.8585C84.2989 44.656 84.1477 44.4779 83.9439 44.3242C83.7401 44.1706 83.413 44.0012 82.9626 43.8161C82.4268 43.5961 82.0783 43.4232 81.9173 43.2975C81.7595 43.1718 81.6806 43.0182 81.6806 42.8366C81.6806 42.4664 81.9863 42.2813 82.5977 42.2813C82.9988 42.2813 83.4935 42.4105 84.0819 42.6689L84.4567 41.7418C83.8847 41.4659 83.2782 41.328 82.6372 41.328C81.9896 41.328 81.4768 41.4659 81.0987 41.7418C80.724 42.0142 80.5366 42.3983 80.5366 42.8942C80.5366 43.3063 80.6467 43.6415 80.867 43.8999C81.0905 44.1583 81.5162 44.4168 82.1441 44.6752C82.4662 44.8079 82.7177 44.9266 82.8985 45.0314C83.0793 45.1361 83.2092 45.2374 83.2881 45.3352C83.367 45.433 83.4064 45.5552 83.4064 45.7019C83.4064 46.1593 83.0497 46.3881 82.3364 46.3881C81.7841 46.3881 81.1875 46.2309 80.5465 45.9166V46.98C80.987 47.2139 81.5705 47.3309 82.297 47.3309C83.0202 47.3309 83.5757 47.1808 83.9636 46.8805Z" fill="#3F3F3F"/>
<path d="M28.2442 61.9326C28.502 61.9326 28.734 61.8744 28.9402 61.7581C29.1464 61.638 29.3084 61.4729 29.4263 61.2627C29.5441 61.0489 29.603 60.8105 29.603 60.5479C29.603 60.2853 29.5441 60.0489 29.4263 59.8387C29.3084 59.6248 29.1464 59.4597 28.9402 59.3434C28.734 59.2233 28.502 59.1632 28.2442 59.1632C27.9865 59.1632 27.7545 59.2233 27.5483 59.3434C27.342 59.4597 27.18 59.6248 27.0622 59.8387C26.9443 60.0489 26.8854 60.2853 26.8854 60.5479C26.8854 60.8105 26.9443 61.0489 27.0622 61.2627C27.18 61.4729 27.342 61.638 27.5483 61.7581C27.7545 61.8744 27.9865 61.9326 28.2442 61.9326Z" fill="#3F3F3F"/>
<path d="M33.3027 60.5592C33.1407 60.6943 32.9032 60.7618 32.5902 60.7618H31.7506V59.197H32.5902C32.9032 59.197 33.1407 59.2645 33.3027 59.3996C33.4648 59.5348 33.5458 59.728 33.5458 59.9794C33.5458 60.2308 33.4648 60.4241 33.3027 60.5592Z" fill="#3F3F3F"/>
<path d="M47 59.152V60.2383H48.0164C48.2668 60.2383 48.4583 60.1933 48.5908 60.1032C48.7271 60.0095 48.7952 59.8744 48.7952 59.698C48.7952 59.5179 48.7271 59.3828 48.5908 59.2927C48.4583 59.1989 48.2668 59.152 48.0164 59.152H47Z" fill="#3F3F3F"/>
<path d="M48.16 61.9439C48.716 61.9439 48.9941 61.7543 48.9941 61.3753C48.9941 60.9963 48.716 60.8069 48.16 60.8069H47V61.9439H48.16Z" fill="#3F3F3F"/>
<path d="M54.3028 61.7356C54.0893 61.8443 53.8407 61.8988 53.5572 61.8988H52.6181V59.197H53.5572C53.8407 59.197 54.0893 59.2533 54.3028 59.3658C54.5201 59.4747 54.6858 59.6323 54.8 59.8387C54.9178 60.0413 54.9767 60.2777 54.9767 60.5479C54.9767 60.8181 54.9178 61.0563 54.8 61.2627C54.6858 61.4653 54.5201 61.623 54.3028 61.7356Z" fill="#3F3F3F"/>
<path d="M72.52 61.9326C72.7777 61.9326 73.0097 61.8744 73.216 61.7581C73.4222 61.638 73.5842 61.4729 73.702 61.2627C73.8199 61.0489 73.8788 60.8105 73.8788 60.5479C73.8788 60.2853 73.8199 60.0489 73.702 59.8387C73.5842 59.6248 73.4222 59.4597 73.216 59.3434C73.0097 59.2233 72.7777 59.1632 72.52 59.1632C72.2622 59.1632 72.0302 59.2233 71.824 59.3434C71.6178 59.4597 71.4558 59.6248 71.3379 59.8387C71.2201 60.0489 71.1612 60.2853 71.1612 60.5479C71.1612 60.8105 71.2201 61.0489 71.3379 61.2627C71.4558 61.4729 71.6178 61.638 71.824 61.7581C72.0302 61.8744 72.2622 61.9326 72.52 61.9326Z" fill="#3F3F3F"/>
<path d="M77.5785 60.5592C77.4165 60.6943 77.1789 60.7618 76.8659 60.7618H76.0263V59.197H76.8659C77.1789 59.197 77.4165 59.2645 77.5785 59.3996C77.7405 59.5348 77.8215 59.728 77.8215 59.9794C77.8215 60.2308 77.7405 60.4241 77.5785 60.5592Z" fill="#3F3F3F"/>
<path d="M51.8596 69.263C51.6534 69.3793 51.4214 69.4375 51.1636 69.4375C50.9059 69.4375 50.6739 69.3793 50.4676 69.263C50.2614 69.1429 50.0994 68.9778 49.9816 68.7676C49.8637 68.5537 49.8048 68.3155 49.8048 68.0528C49.8048 67.7902 49.8637 67.5537 49.9816 67.3436C50.0994 67.1297 50.2614 66.9646 50.4676 66.8483C50.6739 66.7282 50.9059 66.6681 51.1636 66.6681C51.4214 66.6681 51.6534 66.7282 51.8596 66.8483C52.0658 66.9646 52.2278 67.1297 52.3457 67.3436C52.4635 67.5537 52.5224 67.7902 52.5224 68.0528C52.5224 68.3155 52.4635 68.5537 52.3457 68.7676C52.2278 68.9778 52.0658 69.1429 51.8596 69.263Z" fill="#3F3F3F"/>
<path d="M61.4423 68.0641C61.2803 68.1992 61.0428 68.2667 60.7298 68.2667H59.8902V66.7019H60.7298C61.0428 66.7019 61.2803 66.7695 61.4423 66.9045C61.6044 67.0396 61.6854 67.2329 61.6854 67.4843C61.6854 67.7357 61.6044 67.929 61.4423 68.0641Z" fill="#3F3F3F"/>
<path d="M65.1468 68.5369L64.4177 66.8145L63.6941 68.5369H65.1468Z" fill="#3F3F3F"/>
<path fill-rule="evenodd" clip-rule="evenodd" d="M109.382 53.7518C109.43 52.8407 109.455 51.9232 109.455 51C109.455 22.8335 86.8246 0 58.9091 0C30.9936 0 8.36364 22.8335 8.36364 51C8.36364 51.9232 8.38795 52.8407 8.43596 53.7518H6.54545V60.723H0L4.36364 71.7302L0.0909091 81.545H13.1818L13.2727 81.6367V74.8489H14.2192C22.7022 90.9987 39.5324 102 58.9091 102C78.2858 102 95.1159 90.9987 103.599 74.8489H104.818V81.545H117.909L113.636 71.7302L118 60.723H111.273V53.7518H109.382ZM100.277 74.8489C92.0668 89.3166 76.6162 99.0647 58.9091 99.0647C41.202 99.0647 25.7513 89.3166 17.541 74.8489H19.2261C19.4805 75.2788 19.7415 75.7043 20.009 76.1251L20.7742 75.6298C20.6098 75.3713 20.448 75.111 20.2887 74.8489H97.5295C97.3702 75.111 97.2084 75.3713 97.044 75.6298L97.8092 76.1251C98.0767 75.7043 98.3377 75.2788 98.5921 74.8489H100.277ZM106.469 53.7518C106.52 52.8411 106.545 51.9236 106.545 51C106.545 24.4546 85.2179 2.93525 58.9091 2.93525C32.6003 2.93525 11.2727 24.4546 11.2727 51C11.2727 51.9236 11.2985 52.8411 11.3495 53.7518H12.8065L12.8061 53.7452L13.7136 53.692L13.7171 53.7518H104.101C104.102 53.7319 104.103 53.7119 104.105 53.692L105.012 53.7452L105.012 53.7518H106.469ZM28.2442 62.5742C27.8502 62.5742 27.4949 62.4879 27.1782 62.3153C26.8615 62.139 26.6129 61.8969 26.4325 61.5892C26.252 61.2778 26.1618 60.9307 26.1618 60.5479C26.1618 60.1651 26.252 59.8199 26.4325 59.5122C26.6129 59.2008 26.8615 58.9587 27.1782 58.7861C27.4949 58.6097 27.8502 58.5216 28.2442 58.5216C28.6383 58.5216 28.9936 58.6097 29.3103 58.7861C29.627 58.9587 29.8755 59.1989 30.056 59.5066C30.2364 59.8143 30.3266 60.1614 30.3266 60.5479C30.3266 60.9344 30.2364 61.2815 30.056 61.5892C29.8755 61.8969 29.627 62.139 29.3103 62.3153C28.9936 62.4879 28.6383 62.5742 28.2442 62.5742ZM24.0087 59.197H22.7273V58.5778H26.0083V59.197H24.7268V62.518H24.0087V59.197ZM33.4961 58.7467C33.2493 58.6342 32.9584 58.5778 32.6233 58.5778H31.0325V62.518H31.7506V61.381H32.6233C32.9584 61.381 33.2493 61.3247 33.4961 61.2121C33.7464 61.0995 33.9379 60.9382 34.0705 60.728C34.2031 60.5141 34.2694 60.2646 34.2694 59.9794C34.2694 59.6905 34.2031 59.4409 34.0705 59.2308C33.9379 59.0206 33.7464 58.8593 33.4961 58.7467ZM40.8256 62.518H40.0633L39.1078 59.6023L38.1356 62.518H37.3678L36.0864 58.5778H36.8321L37.7931 61.5723L38.7929 58.5778H39.4558L40.4334 61.5892L41.4222 58.5778H42.1071L40.8256 62.518ZM45.5367 62.518V61.9044H43.3549V60.8181H45.2219V60.2158H43.3549V59.1914H45.4594V58.5778H42.6368V62.518H45.5367ZM49.0217 60.4691C49.2353 60.5404 49.4047 60.6605 49.5299 60.8293C49.6551 60.9944 49.7177 61.2008 49.7177 61.4485C49.7177 61.79 49.5888 62.0545 49.331 62.2422C49.0732 62.426 48.6976 62.518 48.2042 62.518H46.282V58.5778H48.0937C48.5503 58.5778 48.902 58.6698 49.1487 58.8536C49.3954 59.0338 49.5188 59.2833 49.5188 59.6023C49.5188 59.7974 49.4746 59.97 49.3862 60.1202C49.2979 60.2702 49.1763 60.3866 49.0217 60.4691ZM53.5903 58.5778H51.9001V62.518H53.5903C54.0027 62.518 54.3691 62.4373 54.6895 62.2759C55.0099 62.1108 55.2584 61.88 55.4352 61.5836C55.6119 61.2834 55.7003 60.9382 55.7003 60.5479C55.7003 60.1576 55.6119 59.8143 55.4352 59.5179C55.2584 59.2177 55.0099 58.9868 54.6895 58.8255C54.3691 58.6604 54.0027 58.5778 53.5903 58.5778ZM59.3082 61.9044V62.518H56.4083V58.5778H59.2308V59.1914H57.1264V60.2158H58.9933V60.8181H57.1264V61.9044H59.3082ZM61.1429 62.518H61.8499L63.5346 58.5778H62.8165L61.5185 61.6174L60.2315 58.5778H59.4527L61.1429 62.518ZM66.7873 61.9044V62.518H63.8874V58.5778H66.7099V59.1914H64.6054V60.2158H66.4724V60.8181H64.6054V61.9044H66.7873ZM68.2506 58.5778H67.5325V62.518H70.2722V61.8988H68.2506V58.5778ZM72.52 62.5742C72.126 62.5742 71.7706 62.4879 71.4539 62.3153C71.1372 62.139 70.8887 61.8969 70.7082 61.5892C70.5278 61.2778 70.4376 60.9307 70.4376 60.5479C70.4376 60.1651 70.5278 59.8199 70.7082 59.5122C70.8887 59.2008 71.1372 58.9587 71.4539 58.7861C71.7706 58.6097 72.126 58.5216 72.52 58.5216C72.914 58.5216 73.2694 58.6097 73.586 58.7861C73.9027 58.9587 74.1513 59.1989 74.3317 59.5066C74.5122 59.8143 74.6024 60.1614 74.6024 60.5479C74.6024 60.9344 74.5122 61.2815 74.3317 61.5892C74.1513 61.8969 73.9027 62.139 73.586 62.3153C73.2694 62.4879 72.914 62.5742 72.52 62.5742ZM77.7718 58.7467C77.5251 58.6342 77.2342 58.5778 76.8991 58.5778H75.3083V62.518H76.0263V61.381H76.8991C77.2342 61.381 77.5251 61.3247 77.7718 61.2121C78.0222 61.0995 78.2137 60.9382 78.3463 60.728C78.4788 60.5141 78.5451 60.2646 78.5451 59.9794C78.5451 59.6905 78.4788 59.4409 78.3463 59.2308C78.2137 59.0206 78.0222 58.8593 77.7718 58.7467ZM82.7531 59.9063L81.4827 62.0677H81.1623L79.8919 59.94V62.518H79.2069V58.5778H79.798L81.3335 61.1895L82.8415 58.5778H83.4325L83.438 62.518H82.7586L82.7531 59.9063ZM87.3271 62.518V61.9044H85.1452V60.8181H87.0122V60.2158H85.1452V59.1914H87.2497V58.5778H84.4272V62.518H87.3271ZM91.508 62.518H90.917L88.7849 59.8499V62.518H88.0723V58.5778H88.6634L90.7955 61.2459V58.5778H91.508V62.518ZM91.9917 59.197H93.2732V62.518H93.9913V59.197H95.2727V58.5778H91.9917V59.197ZM47.27 70.0791C46.8796 70.0791 46.5261 69.9928 46.2094 69.8203C45.8964 69.6439 45.6497 69.4018 45.4693 69.0941C45.2925 68.7865 45.2041 68.4393 45.2041 68.0528C45.2041 67.6663 45.2943 67.3192 45.4748 67.0115C45.6552 66.7038 45.9019 66.4636 46.2149 66.291C46.5316 66.1146 46.8851 66.0265 47.2755 66.0265C47.5922 66.0265 47.8812 66.0828 48.1427 66.1954C48.4041 66.308 48.6251 66.4712 48.8055 66.6851L48.3415 67.1297C48.0617 66.822 47.7174 66.6681 47.3086 66.6681C47.0435 66.6681 46.806 66.7282 46.5961 66.8483C46.3862 66.9646 46.2223 67.1278 46.1045 67.338C45.9866 67.5481 45.9277 67.7864 45.9277 68.0528C45.9277 68.3192 45.9866 68.5575 46.1045 68.7676C46.2223 68.9778 46.3862 69.1429 46.5961 69.263C46.806 69.3793 47.0435 69.4375 47.3086 69.4375C47.7174 69.4375 48.0617 69.2817 48.3415 68.9703L48.8055 69.4206C48.6251 69.6345 48.4023 69.7977 48.1371 69.9103C47.8757 70.0229 47.5866 70.0791 47.27 70.0791ZM50.0975 69.8203C50.4142 69.9928 50.7696 70.0791 51.1636 70.0791C51.5576 70.0791 51.913 69.9928 52.2297 69.8203C52.5463 69.6439 52.7949 69.4018 52.9753 69.0941C53.1558 68.7865 53.246 68.4393 53.246 68.0528C53.246 67.6663 53.1558 67.3192 52.9753 67.0115C52.7949 66.7038 52.5463 66.4636 52.2297 66.291C51.913 66.1146 51.5576 66.0265 51.1636 66.0265C50.7696 66.0265 50.4142 66.1146 50.0975 66.291C49.7809 66.4636 49.5323 66.7057 49.3519 67.0171C49.1714 67.3248 49.0812 67.6701 49.0812 68.0528C49.0812 68.4356 49.1714 68.7827 49.3519 69.0941C49.5323 69.4018 49.7809 69.6439 50.0975 69.8203ZM57.5036 70.0229L57.4981 67.4112L56.2276 69.5726H55.9073L54.6368 67.445V70.0229H53.9519V66.0828H54.5429L56.0785 68.6945L57.5864 66.0828H58.1775L58.183 70.0229H57.5036ZM61.6357 66.2516C61.3889 66.1391 61.098 66.0828 60.7629 66.0828H59.1721V70.0229H59.8902V68.8859H60.7629C61.098 68.8859 61.3889 68.8295 61.6357 68.717C61.8861 68.6044 62.0775 68.4431 62.2101 68.233C62.3427 68.0191 62.409 67.7695 62.409 67.4843C62.409 67.1954 62.3427 66.9458 62.2101 66.7357C62.0775 66.5255 61.8861 66.3642 61.6357 66.2516ZM63.4511 69.111L63.0699 70.0229H62.3298L64.0697 66.0828H64.7767L66.5222 70.0229H65.771L65.3843 69.111H63.4511ZM69.8033 70.0229H70.3944V66.0828H69.6818V68.7508L67.5497 66.0828H66.9587V70.0229H67.6712V67.3548L69.8033 70.0229ZM73.0433 68.6326V70.0229H72.3253V68.6438L70.8063 66.0828H71.574L72.7064 68.0021L73.8498 66.0828H74.5568L73.0433 68.6326Z" fill="#3F3F3F"/>
</svg>
