<svg width="154" height="126" viewBox="0 0 154 126" fill="none" xmlns="http://www.w3.org/2000/svg">
<path fill-rule="evenodd" clip-rule="evenodd" d="M151.965 73.4534H143.589V66.1301L151.965 73.4534ZM142.481 64.9047V64.9163V73.4534H69.6631L83.8615 62.3438C84.1023 62.1554 84.1446 61.8077 83.956 61.5671C83.7674 61.3265 83.4193 61.2842 83.1785 61.4726L67.7165 73.571C67.644 73.6277 67.5895 73.6988 67.5539 73.7771C67.522 73.8471 67.5042 73.9248 67.5042 74.0067V74.0068C67.5042 74.0069 67.5042 74.007 67.5042 74.0071V125.447C67.5041 125.476 67.5065 125.506 67.5113 125.536C67.5257 125.625 67.5613 125.706 67.6127 125.776C67.698 125.891 67.8218 125.965 67.9552 125.99C67.994 125.998 68.0336 126.001 68.0733 126H153.424C153.434 126 153.445 126 153.456 126C153.757 125.995 154 125.749 154 125.447V74.0067C154 73.8142 153.902 73.6446 153.752 73.5455L143.589 64.6597V26.314H142.481V64.9047ZM152.892 124.471V74.9821L111.821 99.7268L152.892 124.471ZM110.748 99.0807L151.448 74.5599H70.0486L110.748 99.0807ZM68.6117 74.9865L109.676 99.7268L68.6117 124.467V74.9865ZM110.748 100.373L151.448 124.893H70.0489L110.748 100.373Z" fill="#1A1A1A"/>
<path fill-rule="evenodd" clip-rule="evenodd" d="M142.481 26.3139C142.481 12.3892 131.181 1.10655 117.25 1.10655V0C131.792 0 143.589 11.7779 143.589 26.3139H142.481Z" fill="#1A1A1A"/>
<path fill-rule="evenodd" clip-rule="evenodd" d="M38.2712 25.7605H78.7649V26.8671H38.2712V25.7605Z" fill="#1A1A1A"/>
<path fill-rule="evenodd" clip-rule="evenodd" d="M0.103516 25.9746H36.4696V27.0812H0.103516V25.9746Z" fill="#1A1A1A"/>
<path fill-rule="evenodd" clip-rule="evenodd" d="M58.5178 0H117.25V1.10655H58.5178V0Z" fill="#1A1A1A"/>
<path d="M38.2711 88.9596C40.094 88.9596 41.5717 87.4832 41.5717 85.662C41.5717 83.8409 40.094 82.3645 38.2711 82.3645C36.4482 82.3645 34.9705 83.8409 34.9705 85.662C34.9705 87.4832 36.4482 88.9596 38.2711 88.9596Z" fill="#FF3333"/>
<path d="M117.342 61.2983L123.944 61.2983L123.944 54.7033L117.342 54.7033L117.342 61.2983Z" fill="#FF3333"/>
<path d="M58.5182 49.8761L55.2176 43.9893L51.2007 49.8761H58.5182Z" fill="#FF3333"/>
<path d="M19.324 39.6441C26.6932 39.6441 32.6669 33.6761 32.6669 26.3138H32.7333C32.7333 12.0909 44.2744 0.553223 58.5181 0.553223C72.7618 0.553223 84.3029 12.0835 84.3029 26.3138L84.2808 73.1358H78.7428L78.765 26.3138C78.765 15.145 69.7048 6.086 58.5181 6.086C47.3314 6.086 38.2713 15.1376 38.2713 26.3138C38.2713 36.7745 29.7871 45.2507 19.3166 45.2507C8.84618 45.2507 0.369385 36.7671 0.369385 26.3138H5.97382C5.97382 33.6761 11.9548 39.6441 19.324 39.6441Z" fill="#FF3333"/>
<path fill-rule="evenodd" clip-rule="evenodd" d="M58.5179 0.922029C44.4782 0.922029 33.1023 12.2945 33.1023 26.3138V26.6826H33.031C32.8353 34.0781 26.7735 40.0129 19.3238 40.0129C11.8745 40.0129 5.8052 34.0783 5.60931 26.6826H0.74199C0.938544 36.7624 9.17361 44.8818 19.3165 44.8818C29.583 44.8818 37.9019 36.5707 37.9019 26.3138C37.9019 14.9339 47.1273 5.7171 58.5179 5.7171C69.9086 5.7171 79.134 14.9413 79.134 26.3138L79.112 72.7669H83.9116L83.9335 26.3138C83.9335 26.3137 83.9335 26.3138 83.9335 26.3138C83.9334 12.2873 72.5576 0.922029 58.5179 0.922029ZM32.3665 25.9449C32.564 11.6883 44.1936 0.184326 58.5179 0.184326C72.9655 0.184326 84.6719 11.8798 84.6719 26.3138L84.6496 73.5046H78.3732L78.3956 26.3138C78.3956 26.3137 78.3956 26.3138 78.3956 26.3138C78.3955 15.3486 69.5006 6.4548 58.5179 6.4548C47.5351 6.4548 38.6403 15.3413 38.6403 26.3138C38.6403 36.9781 29.9908 45.6195 19.3165 45.6195C8.64181 45.6195 0 36.9705 0 26.3138V25.9449H6.34283V26.3138C6.34283 33.4721 12.1583 39.2752 19.3238 39.2752C26.4891 39.2752 32.2975 33.4723 32.2975 26.3138V25.9449H32.3665Z" fill="#FF3333"/>
</svg>
