<svg width="64" height="65" viewBox="0 0 64 65" fill="none" xmlns="http://www.w3.org/2000/svg">
                            <path d="M27.6008 41.499C27.6008 41.499 26.3779 42.2105 28.4711 42.4512C31.0069 42.7406 32.3029 42.6991 35.0974 42.17C35.0974 42.17 35.832 42.6309 36.8581 43.03C30.5936 45.7161 22.6804 42.8745 27.6008 41.499Z" fill="#1C1C1C"></path>
                            <path d="M26.8336 37.9927C26.8336 37.9927 25.4621 39.0084 27.5568 39.2251C30.2656 39.5047 32.4048 39.5276 36.1065 38.8145C36.1065 38.8145 36.6185 39.3338 37.4235 39.6178C29.8494 41.8335 21.4132 39.7925 26.8336 37.9927Z" fill="#1C1C1C"></path>
                            <path d="M33.2888 32.0472C34.8324 33.825 32.8833 35.4249 32.8833 35.4249C32.8833 35.4249 36.8026 33.4008 35.0026 30.866C33.3215 28.5022 32.0323 27.3278 39.0115 23.2783C39.0115 23.2783 28.0564 26.0156 33.2888 32.0472Z" fill="#1C1C1C"></path>
                            <path d="M41.5741 44.0906C41.5741 44.0906 42.479 44.8366 40.5774 45.4137C36.9615 46.5095 25.5275 46.8405 22.3512 45.4573C21.2094 44.9604 23.3506 44.2708 24.0241 44.1261C24.7266 43.9737 25.128 44.0021 25.128 44.0021C23.8582 43.1072 16.9205 45.7593 21.604 46.5188C34.3765 48.591 44.8871 45.5856 41.5741 44.0906Z" fill="#1C1C1C"></path>
                            <path d="M28.1919 34.3617C28.1919 34.3617 22.3759 35.7437 26.1323 36.2455C27.7184 36.458 30.8802 36.4099 33.8254 36.163C36.2323 35.9599 38.6492 35.528 38.6492 35.528C38.6492 35.528 37.8004 35.8916 37.1864 36.3111C31.2803 37.8651 19.8708 37.1421 23.1555 35.5526C25.9333 34.2093 28.1919 34.3617 28.1919 34.3617Z" fill="#1C1C1C"></path>
                            <path d="M38.6241 40.1959C44.6279 37.0747 41.852 34.0753 39.9144 34.4794C39.4395 34.5783 39.2278 34.664 39.2278 34.664C39.2278 34.664 39.4041 34.3877 39.7408 34.2681C43.5739 32.9199 46.5218 38.2444 38.5034 40.3532C38.5034 40.3533 38.5963 40.2702 38.6241 40.1959Z" fill="#1C1C1C"></path>
                            <path d="M35.0012 16.7393C35.0012 16.7393 38.3262 20.0668 31.8476 25.1837C26.6524 29.2882 30.6629 31.6286 31.8455 34.3025C28.8129 31.5652 26.5875 29.1556 28.0805 26.913C30.2719 23.621 36.3428 22.0249 35.0012 16.7393Z" fill="#1C1C1C"></path>
                            <path d="M28.7761 48.6525C34.539 49.0216 43.3886 48.4478 43.5982 45.7197C43.5982 45.7197 43.1953 46.7539 38.8355 47.5752C33.9167 48.5013 27.8501 48.3931 24.252 47.7996C24.252 47.7996 24.9885 48.4095 28.7761 48.6525Z" fill="#1C1C1C"></path>
                        </svg>