<svg width="64" height="64" viewBox="0 0 64 64" fill="none" xmlns="http://www.w3.org/2000/svg">
<path fill-rule="evenodd" clip-rule="evenodd" d="M16 16H48V48H16V16ZM40.4611 42.8262C38.9779 42.8262 38.1393 42.0527 37.4947 41.0002L35.051 42.4199C35.9338 44.1642 37.738 45.4949 40.5306 45.4949C43.3868 45.4949 45.5135 44.0118 45.5135 41.3045C45.5135 38.7932 44.071 37.6763 41.516 36.5807L40.7643 36.2586C39.4741 35.6999 38.9154 35.3347 38.9154 34.4326C38.9154 33.7027 39.4736 33.144 40.3544 33.144C41.2179 33.144 41.7741 33.5082 42.2896 34.4326L44.6312 32.9291C43.6407 31.1869 42.2663 30.5215 40.3544 30.5215C37.6689 30.5215 35.9506 32.2383 35.9506 34.4935C35.9506 36.9418 37.3921 38.0999 39.562 39.0243L40.3137 39.3469C41.6852 39.9468 42.503 40.312 42.503 41.3431C42.503 42.2035 41.707 42.8262 40.4611 42.8262ZM28.8075 42.8075C27.7743 42.8075 27.3446 42.0989 26.8722 41.2608L24.4245 42.7427C25.1336 44.2434 26.5278 45.4894 28.9355 45.4894C31.6001 45.4894 33.4256 44.0722 33.4256 40.9586V30.6932H30.4186V40.9179C30.4186 42.4209 29.7954 42.8075 28.8075 42.8075Z" fill="#202020"/>
</svg>
