<svg width="128" height="128" viewBox="0 0 128 128" fill="none" xmlns="http://www.w3.org/2000/svg">
<mask id="mask0" mask-type="alpha" maskUnits="userSpaceOnUse" x="4" y="6" width="120" height="117">
<g clip-path="url(#clip0)">
<path d="M33.0539 74.1133L30.6167 68.0845H29.334L26.9609 74.1133H28.2437L28.7568 72.7665H31.194L31.7071 74.1133H33.0539ZM29.1416 71.6761L29.9754 69.4313L30.8091 71.6761H29.1416Z" fill="white"/>
<path d="M37.9284 71.8686C37.9284 71.1631 37.7359 70.5858 37.4153 70.201C37.0304 69.8162 36.6456 69.6238 36.1325 69.6238C35.8118 69.6238 35.5553 69.6879 35.3629 69.8162C35.1063 69.9445 34.9139 70.1369 34.7856 70.3293V69.6879H33.6953V75.7168H34.7856V73.5361C34.9781 73.7927 35.2346 73.9209 35.427 74.0492C35.6194 74.1134 35.8118 74.1775 36.0684 74.1775C36.5815 74.1775 37.0304 73.9851 37.3511 73.6003C37.7359 73.1513 37.9284 72.6382 37.9284 71.8686ZM36.4532 72.9589C36.2608 73.1513 36.0684 73.2796 35.8118 73.2796C35.5553 73.2796 35.2987 73.1513 35.1063 72.8948C34.9139 72.6382 34.7856 72.3175 34.7856 71.8044C34.7856 71.3555 34.8498 71.0348 35.0422 70.8424C35.2346 70.65 35.4911 70.5217 35.7477 70.5217C36.0042 70.5217 36.2608 70.65 36.4532 70.8424C36.6456 71.0348 36.7097 71.4196 36.7097 71.8686C36.7097 72.3817 36.6456 72.7023 36.4532 72.9589Z" fill="white"/>
<path d="M41.2634 69.6238C40.9427 69.6238 40.6861 69.6879 40.4937 69.8162C40.2372 69.9445 40.0448 70.1369 39.9165 70.3293V69.6879H38.8262V75.7168H39.9806V73.5361C40.173 73.7927 40.4296 73.9209 40.622 74.0492C40.8144 74.1134 41.0068 74.1775 41.2634 74.1775C41.7765 74.1775 42.2254 73.9851 42.5461 73.6003C42.9309 73.2154 43.0592 72.6382 43.0592 71.8686C43.0592 71.1631 42.8668 70.5858 42.5461 70.201C42.1613 69.8162 41.7765 69.6238 41.2634 69.6238ZM41.6482 72.9589C41.4558 73.1513 41.2634 73.2796 41.0068 73.2796C40.7503 73.2796 40.4937 73.1513 40.3013 72.8948C40.1089 72.6382 39.9806 72.3175 39.9806 71.8044C39.9806 71.3555 40.0448 71.0348 40.2372 70.8424C40.4296 70.65 40.6861 70.5217 40.9427 70.5217C41.1992 70.5217 41.4558 70.65 41.6482 70.8424C41.8406 71.0348 41.9047 71.4196 41.9047 71.8686C41.9047 72.3817 41.7765 72.7023 41.6482 72.9589Z" fill="white"/>
<path d="M50.5631 73.4719C50.8196 73.2153 51.0762 72.8305 51.2045 72.3816C51.3327 71.9967 51.3969 71.6119 51.3969 71.0988C51.3969 70.5216 51.3327 70.0726 51.2045 69.6878C51.0762 69.303 50.8838 68.9823 50.6272 68.7258C50.3707 68.4692 50.05 68.2768 49.7293 68.1485C49.4728 68.0844 49.088 68.0203 48.5749 68.0203H46.3301V74.0491H48.639C49.088 74.0491 49.4728 73.985 49.7293 73.9208C50.1141 73.8567 50.3707 73.6643 50.5631 73.4719ZM49.2162 73.0229C49.088 73.0871 48.8314 73.0871 48.4466 73.0871H47.5487V69.1106H48.1259C48.639 69.1106 48.9597 69.1106 49.1521 69.1747C49.4086 69.2389 49.5369 69.303 49.7293 69.4313C49.8576 69.5595 49.9859 69.752 50.05 70.0085C50.1141 70.2651 50.1783 70.6499 50.1783 71.0988C50.1783 71.5478 50.1141 71.9326 50.05 72.1892C49.9859 72.4457 49.8576 72.6381 49.7293 72.7664C49.6011 72.8947 49.4086 72.9588 49.2162 73.0229Z" fill="white"/>
<path d="M54.2192 74.1774C54.7323 74.1774 55.1171 74.0491 55.4378 73.8567C55.7585 73.6643 56.015 73.3436 56.1433 72.8947L54.9888 72.7023C54.9247 72.8947 54.8606 73.0871 54.7323 73.1512C54.604 73.2154 54.4757 73.2795 54.2833 73.2795C54.0268 73.2795 53.7702 73.2154 53.642 73.023C53.4496 72.8305 53.3854 72.574 53.3854 72.1892H56.2716C56.2716 71.2913 56.0792 70.6499 55.7585 70.2009C55.3737 69.752 54.8606 69.5596 54.2192 69.5596C53.642 69.5596 53.1289 69.752 52.8082 70.2009C52.4234 70.5858 52.231 71.163 52.231 71.9326C52.231 72.5099 52.3592 73.023 52.6799 73.4719C52.9365 73.9209 53.4496 74.1774 54.2192 74.1774ZM53.5778 70.7782C53.7702 70.5858 53.9627 70.5216 54.2192 70.5216C54.4758 70.5216 54.6682 70.5858 54.7964 70.7782C54.9247 70.9706 55.053 71.2271 55.053 71.5478H53.3213C53.3213 71.2271 53.3854 70.9706 53.5778 70.7782Z" fill="white"/>
<path d="M61.146 69.6877H59.9274L59.0936 71.9325C59.0295 72.0608 59.0295 72.1891 58.9653 72.3174C58.9653 72.3815 58.9012 72.5098 58.8371 72.7022L58.5805 71.9325L57.7467 69.6877H56.5923L58.3881 74.049H59.4143L61.146 69.6877Z" fill="white"/>
<path d="M64.0961 73.1512C63.9678 73.2795 63.8395 73.2795 63.6471 73.2795C63.3905 73.2795 63.134 73.2154 63.0057 73.023C62.8133 72.8305 62.7492 72.574 62.7492 72.1892H65.6353C65.6353 71.2913 65.4429 70.6499 65.1222 70.2009C64.7374 69.752 64.2243 69.5596 63.583 69.5596C63.0057 69.5596 62.4926 69.752 62.172 70.2009C61.7871 70.5858 61.5947 71.163 61.5947 71.9326C61.5947 72.5099 61.723 73.023 62.0437 73.4719C62.4285 73.985 63.0057 74.2416 63.7112 74.2416C64.2243 74.2416 64.6091 74.1133 64.9298 73.9209C65.2505 73.7285 65.5071 73.4078 65.6353 72.9588L64.4809 72.7664C64.3526 72.8947 64.2243 73.0871 64.0961 73.1512ZM62.9416 70.7782C63.134 70.5858 63.3264 70.5216 63.583 70.5216C63.8395 70.5216 64.0319 70.5858 64.1602 70.7782C64.2885 70.9706 64.4167 71.2271 64.4167 71.5478H62.685C62.685 71.2271 62.8133 70.9706 62.9416 70.7782Z" fill="white"/>
<path d="M67.6877 68.0203H66.5332V74.0491H67.6877V68.0203Z" fill="white"/>
<path d="M72.4981 70.2651C72.0491 69.8162 71.5361 69.6238 70.8947 69.6238C70.4457 69.6238 70.0609 69.6879 69.7402 69.8803C69.4195 70.0727 69.0989 70.3293 68.9064 70.7141C68.714 71.0989 68.6499 71.4196 68.6499 71.8044C68.6499 72.3175 68.714 72.7665 68.9064 73.0872C69.0989 73.4078 69.3554 73.7285 69.7402 73.8568C70.125 73.9851 70.5099 74.1133 70.8947 74.1133C71.5361 74.1133 72.1133 73.9209 72.4981 73.472C72.8829 73.023 73.1395 72.5099 73.1395 71.8044C73.1395 71.2272 72.9471 70.7141 72.4981 70.2651ZM71.6643 72.8948C71.4719 73.1513 71.2154 73.2154 70.8947 73.2154C70.574 73.2154 70.3175 73.0872 70.125 72.8948C69.9326 72.6382 69.8044 72.3175 69.8044 71.8686C69.8044 71.4196 69.9326 71.0989 70.125 70.8424C70.3175 70.5858 70.574 70.5217 70.8947 70.5217C71.2154 70.5217 71.4719 70.65 71.6643 70.8424C71.8567 71.0989 71.985 71.4196 71.985 71.8044C71.985 72.3175 71.8567 72.7023 71.6643 72.8948Z" fill="white"/>
<path d="M76.4748 69.6238C76.1541 69.6238 75.8976 69.6879 75.7052 69.8162C75.4486 69.9445 75.2562 70.1369 75.1279 70.3293V69.6879H74.0376V75.7168H75.1921V73.5361C75.3845 73.7927 75.641 73.9209 75.8334 74.0492C76.0258 74.1134 76.2182 74.1775 76.4748 74.1775C76.9879 74.1775 77.4368 73.9851 77.7575 73.6003C78.1423 73.2154 78.2706 72.6382 78.2706 71.8686C78.2706 71.1631 78.0782 70.5858 77.7575 70.201C77.4368 69.8162 76.9879 69.6238 76.4748 69.6238ZM76.8596 72.9589C76.6672 73.1513 76.4748 73.2796 76.2182 73.2796C75.9617 73.2796 75.7052 73.1513 75.5127 72.8948C75.3203 72.6382 75.1921 72.3175 75.1921 71.8044C75.1921 71.3555 75.2562 71.0348 75.4486 70.8424C75.641 70.65 75.8976 70.5217 76.1541 70.5217C76.4107 70.5217 76.6672 70.65 76.8596 70.8424C77.052 71.0348 77.1162 71.4196 77.1162 71.8686C77.1162 72.3817 77.052 72.7023 76.8596 72.9589Z" fill="white"/>
<path d="M84.2991 70.7782C84.3632 70.9065 84.4274 71.1631 84.4274 71.612V74.1133H85.5818V71.2913C85.5818 70.8424 85.5177 70.5858 85.4536 70.3934C85.3253 70.1369 85.197 69.9445 84.9405 69.8162C84.7481 69.6879 84.4274 69.6238 84.1067 69.6238C83.8501 69.6238 83.5936 69.6879 83.4012 69.8162C83.2088 69.9445 82.9522 70.1369 82.7598 70.3293C82.6315 70.0727 82.4391 69.9445 82.2467 69.8162C82.0543 69.6879 81.7978 69.6238 81.5412 69.6238C81.0281 69.6238 80.5792 69.8803 80.1943 70.3293V69.7521H79.104V74.1133H80.2585V71.9968C80.2585 71.5479 80.2585 71.2913 80.3226 71.0989C80.3867 70.9065 80.515 70.7782 80.6433 70.65C80.7716 70.5858 80.964 70.5217 81.1564 70.5217C81.2847 70.5217 81.4129 70.5217 81.5412 70.5858C81.6053 70.65 81.6695 70.7141 81.7336 70.8424C81.7978 70.9707 81.7978 71.2272 81.7978 71.6762V74.0492H82.9522V71.9327C82.9522 71.5479 82.9522 71.2272 83.0164 71.0348C83.0805 70.8424 83.2088 70.7141 83.337 70.5858C83.4653 70.4576 83.6577 70.4576 83.786 70.4576C84.0425 70.5217 84.1708 70.5858 84.2991 70.7782Z" fill="white"/>
<path d="M88.5322 74.1774C89.0453 74.1774 89.4301 74.0491 89.7508 73.8567C90.0715 73.6643 90.328 73.3436 90.4563 72.8947L89.3018 72.7023C89.2377 72.8947 89.1736 73.0871 89.0453 73.1512C88.917 73.2154 88.7887 73.2795 88.5963 73.2795C88.3398 73.2795 88.0832 73.2154 87.955 73.023C87.7625 72.8305 87.6984 72.574 87.6984 72.1892H90.5846C90.5846 71.2913 90.3922 70.6499 90.0715 70.2009C89.6867 69.752 89.1736 69.5596 88.5322 69.5596C87.955 69.5596 87.4419 69.752 87.1212 70.2009C86.7364 70.5858 86.5439 71.163 86.5439 71.9326C86.5439 72.5099 86.6722 73.023 86.9929 73.4719C87.1853 73.9209 87.7626 74.1774 88.5322 74.1774ZM87.8267 70.7782C88.0191 70.5858 88.2115 70.5216 88.4681 70.5216C88.7246 70.5216 88.917 70.5858 89.0453 70.7782C89.1736 70.9706 89.3018 71.2271 89.3018 71.5478H87.5701C87.6343 71.2271 87.6984 70.9706 87.8267 70.7782Z" fill="white"/>
<path d="M94.1762 70.9705C94.2403 71.0988 94.2403 71.4194 94.2403 71.8684V74.1132H95.3948V71.4194C95.3948 71.0988 95.3948 70.8422 95.3306 70.6498C95.2665 70.4574 95.2024 70.3291 95.0741 70.1367C94.9458 70.0084 94.8176 69.8802 94.561 69.816C94.3686 69.7519 94.1121 69.6877 93.8555 69.6877C93.2783 69.6877 92.7652 69.9443 92.3804 70.4574V69.816H91.29V74.1773H92.4445V72.1891C92.4445 71.676 92.4445 71.3553 92.5086 71.1629C92.5728 70.9705 92.701 70.8422 92.8293 70.7139C92.9576 70.5857 93.15 70.5215 93.3424 70.5215C93.4707 70.5215 93.6631 70.5857 93.7272 70.6498C94.0479 70.7139 94.1121 70.7781 94.1762 70.9705Z" fill="white"/>
<path d="M96.6775 72.5739C96.6775 72.9588 96.6775 73.2794 96.7416 73.4077C96.7416 73.6001 96.8057 73.7284 96.934 73.8567C96.9982 73.985 97.1264 74.0491 97.3188 74.1132C97.5113 74.1774 97.7037 74.2415 97.8961 74.2415C98.2168 74.2415 98.5374 74.1774 98.794 74.0491L98.6657 73.1512C98.4733 73.2153 98.2809 73.2794 98.2168 73.2794C98.1526 73.2794 98.0885 73.2795 98.0244 73.2153C97.9602 73.1512 97.9602 73.1512 97.8961 73.087C97.8961 73.0229 97.8961 72.8305 97.8961 72.4457V70.6498H98.6657V69.7519H97.8961V68.2126L96.7416 68.9181V69.8161H96.2285V70.714H96.7416V72.5739H96.6775Z" fill="white"/>
<path d="M28.8851 83.1565C28.6286 83.3489 28.372 83.4771 28.0513 83.4771C27.6024 83.4771 27.2817 83.2847 26.961 82.964C26.7045 82.6434 26.5762 82.1303 26.5762 81.3606C26.5762 80.6551 26.7045 80.142 26.961 79.8213C27.2176 79.5007 27.6024 79.3724 28.0513 79.3724C28.372 79.3724 28.6286 79.4365 28.8851 79.6289C29.1417 79.8213 29.2699 80.0779 29.3341 80.3344L30.5527 80.0779C30.4244 79.6289 30.232 79.2441 29.9113 78.9876C29.4624 78.5386 28.8851 78.3462 28.1155 78.3462C27.2817 78.3462 26.5762 78.6027 26.0631 79.18C25.55 79.7572 25.2935 80.5268 25.2935 81.4889C25.2935 82.4509 25.55 83.1564 26.0631 83.7337C26.5762 84.3109 27.2176 84.5675 28.0513 84.5675C28.6927 84.5675 29.2058 84.4392 29.6548 84.1185C30.1037 83.7978 30.3603 83.2847 30.5527 82.6434L29.3982 82.2585C29.2699 82.6434 29.0775 82.964 28.8851 83.1565Z" fill="white"/>
<path d="M33.5029 79.9497C33.054 79.9497 32.6691 80.0138 32.3485 80.2063C32.0278 80.3987 31.7071 80.6552 31.5788 81.04C31.3864 81.4249 31.3223 81.7455 31.3223 82.1304C31.3223 82.6435 31.3864 83.0283 31.5788 83.4131C31.7712 83.7338 32.0278 84.0545 32.4126 84.1828C32.7974 84.311 33.1822 84.4393 33.5671 84.4393C34.2084 84.4393 34.7215 84.2469 35.1705 83.7979C35.6194 83.349 35.8118 82.8359 35.8118 82.1945C35.8118 81.5531 35.6194 80.9759 35.1705 80.5911C34.7215 80.2063 34.2084 79.9497 33.5029 79.9497ZM34.2726 83.2207C34.0801 83.4772 33.8236 83.5414 33.5029 83.5414C33.1822 83.5414 32.9257 83.4131 32.7333 83.2207C32.5409 82.9641 32.4126 82.6435 32.4126 82.2586C32.4126 81.8097 32.5409 81.489 32.7333 81.2966C32.9257 81.04 33.1822 80.9759 33.5029 80.9759C33.8236 80.9759 34.0801 81.1042 34.2726 81.2966C34.465 81.5531 34.5932 81.8738 34.5932 82.2586C34.5932 82.6435 34.465 83.0283 34.2726 83.2207Z" fill="white"/>
<path d="M42.354 80.1421C42.1616 80.0138 41.8409 79.9497 41.5203 79.9497C41.2637 79.9497 41.0072 80.0138 40.8147 80.1421C40.6223 80.2704 40.3658 80.3987 40.1734 80.6552C40.0451 80.3987 39.8527 80.2704 39.6603 80.1421C39.4679 80.0138 39.2113 79.9497 38.9548 79.9497C38.4417 79.9497 37.9927 80.2063 37.6079 80.6552V80.078H36.5176V84.4393H37.672V82.3228C37.672 81.8738 37.672 81.6173 37.7362 81.4249C37.8003 81.2324 37.9286 81.1042 38.0569 81.04C38.1851 80.9759 38.3775 80.9118 38.5058 80.9118C38.6341 80.9118 38.7624 80.9118 38.8265 80.9759C38.8906 81.04 38.9548 81.1042 39.0189 81.2324C39.083 81.3607 39.0831 81.6173 39.0831 82.0662V84.4393H40.2375V82.3228C40.2375 81.938 40.2375 81.6173 40.3016 81.4249C40.3658 81.2324 40.4941 81.1042 40.6223 80.9759C40.7506 80.8476 40.943 80.8476 41.0713 80.8476C41.2637 80.8476 41.4561 80.9118 41.5844 81.1042C41.6485 81.2324 41.7127 81.489 41.7127 81.938V84.4393H42.8671V81.6814C42.8671 81.2966 42.803 80.9759 42.7389 80.7835C42.7389 80.4628 42.6106 80.2704 42.354 80.1421Z" fill="white"/>
<path d="M46.5227 79.9497C46.202 79.9497 45.9454 80.0138 45.753 80.1421C45.4965 80.2704 45.304 80.4628 45.1758 80.6552V80.0138H44.0854V85.9786H45.2399V83.7979C45.4323 84.0545 45.6889 84.1827 45.8813 84.311C46.0737 84.4393 46.2661 84.4393 46.5227 84.4393C47.0357 84.4393 47.4847 84.2469 47.8054 83.8621C48.1261 83.4772 48.3185 82.9 48.3185 82.1945C48.3185 81.489 48.1261 80.9118 47.8054 80.5269C47.4206 80.1421 47.0357 79.9497 46.5227 79.9497ZM46.9075 83.2848C46.7151 83.4772 46.5226 83.6055 46.2661 83.6055C46.0096 83.6055 45.753 83.4772 45.5606 83.2848C45.3682 83.0924 45.2399 82.7076 45.2399 82.1945C45.2399 81.7455 45.304 81.4249 45.4965 81.2324C45.6889 81.04 45.9454 80.9118 46.202 80.9118C46.4585 80.9118 46.7151 81.04 46.9075 81.2324C47.0999 81.4249 47.164 81.8097 47.164 82.2586C47.164 82.7076 47.0357 83.0924 46.9075 83.2848Z" fill="white"/>
<path d="M52.744 82.9641V81.6173C52.744 81.1042 52.6799 80.7835 52.6158 80.5911C52.4875 80.3987 52.3592 80.2704 52.1027 80.1421C51.8461 80.0138 51.4613 79.9497 50.9482 79.9497C50.371 79.9497 49.9861 80.078 49.6655 80.2704C49.4089 80.4628 49.1524 80.7835 49.0882 81.2324L50.1144 81.4249C50.1786 81.2324 50.3068 81.1042 50.371 80.9759C50.4992 80.9118 50.6275 80.8476 50.8199 80.8476C51.1406 80.8476 51.333 80.9118 51.4613 80.9759C51.5896 81.04 51.6537 81.2324 51.6537 81.4249V81.5531C51.4613 81.6173 51.0765 81.7455 50.5634 81.8097C50.1786 81.8738 49.8579 82.0021 49.6655 82.0662C49.4731 82.1945 49.2806 82.3228 49.1524 82.5152C49.0241 82.7076 48.96 82.9 48.96 83.1566C48.96 83.5414 49.0882 83.8621 49.3448 84.0545C49.6013 84.311 49.9862 84.4393 50.371 84.4393C50.6275 84.4393 50.8841 84.3752 51.0765 84.311C51.2689 84.2469 51.5254 84.0545 51.7178 83.8621C51.7178 83.8621 51.7178 83.9262 51.782 83.9903C51.8461 84.1186 51.8461 84.2469 51.9102 84.311H53.0647C52.9364 84.1186 52.8723 83.9262 52.8723 83.7338C52.744 83.6697 52.744 83.349 52.744 82.9641ZM51.6537 82.5793C51.6537 82.8359 51.6537 83.0283 51.5896 83.1566C51.5254 83.2848 51.4613 83.4131 51.333 83.5414C51.1406 83.6697 50.9482 83.7338 50.7558 83.7338C50.5634 83.7338 50.4351 83.6697 50.3068 83.5414C50.1786 83.4131 50.1144 83.2848 50.1144 83.0924C50.1144 82.9 50.1786 82.7717 50.371 82.7076C50.4992 82.6435 50.6917 82.5793 51.0123 82.5152C51.333 82.4511 51.5896 82.3869 51.7178 82.3228V82.5793H51.6537Z" fill="white"/>
<path d="M57.5542 80.4629C57.426 80.3346 57.2977 80.2063 57.1053 80.1422C56.9129 80.0781 56.6563 80.0139 56.3998 80.0139C55.8225 80.0139 55.3736 80.2705 54.9888 80.7194V80.0781H53.8984V84.4394H55.0529V82.4511C55.0529 81.938 55.0529 81.6173 55.117 81.4249C55.1812 81.2325 55.3094 81.1042 55.4377 80.976C55.566 80.8477 55.7584 80.7836 55.9508 80.7836C56.0791 80.7836 56.2074 80.8477 56.3356 80.9118C56.4639 80.976 56.528 81.1042 56.5922 81.2325C56.6563 81.3608 56.6563 81.6815 56.6563 82.1304V84.3752H57.8108V81.6815C57.8108 81.3608 57.8108 81.1042 57.7466 80.9118C57.6825 80.7194 57.6825 80.5911 57.5542 80.4629Z" fill="white"/>
<path d="M60.1838 78.4104H59.0293V79.5007H60.1838V78.4104Z" fill="white"/>
<path d="M60.1838 80.0781H59.0293V84.4394H60.1838V80.0781Z" fill="white"/>
<path d="M64.4811 80.5911C64.0963 80.1421 63.5832 79.9497 62.9419 79.9497C62.3646 79.9497 61.9157 80.1421 61.5308 80.5911C61.146 80.9759 60.9536 81.5531 60.9536 82.2586C60.9536 82.8359 61.0819 83.349 61.4026 83.7338C61.7874 84.2469 62.3005 84.5034 63.0701 84.5034C63.5191 84.5034 63.968 84.3751 64.2887 84.1827C64.6094 83.9903 64.866 83.6696 64.9942 83.2207L63.8398 83.0283C63.7756 83.2207 63.7115 83.4131 63.5832 83.4772C63.4549 83.6055 63.3267 83.6055 63.1343 83.6055C62.8777 83.6055 62.6212 83.5414 62.4929 83.349C62.3005 83.1565 62.2364 82.9 62.2364 82.5793H65.1225C65.0584 81.6814 64.866 81.04 64.4811 80.5911ZM62.1722 81.8738C62.1722 81.5531 62.2363 81.2966 62.4288 81.1042C62.6212 80.9118 62.8136 80.8476 63.0701 80.8476C63.3267 80.8476 63.5191 80.9118 63.6474 81.1042C63.8398 81.2966 63.9039 81.5531 63.9039 81.8738H62.1722Z" fill="white"/>
<path d="M68.0087 81.6814C67.3673 81.5531 67.0466 81.4249 66.9183 81.3607C66.8542 81.2966 66.7901 81.2324 66.7901 81.1683C66.7901 81.1042 66.8542 80.9759 66.9183 80.9118C67.0466 80.8476 67.239 80.7835 67.5597 80.7835C67.8162 80.7835 68.0087 80.8476 68.1369 80.9118C68.2652 80.9759 68.3293 81.1042 68.3935 81.2966L69.4838 81.1042C69.3555 80.7193 69.1631 80.4628 68.9066 80.2704C68.65 80.078 68.2011 79.9497 67.5597 79.9497C66.9183 79.9497 66.4694 80.078 66.1487 80.3345C65.828 80.5911 65.6997 80.9118 65.6997 81.2966C65.6997 81.6814 65.8921 82.0662 66.2128 82.2586C66.4694 82.451 67.0466 82.6435 67.9445 82.8359C68.1369 82.9 68.2652 82.9641 68.3293 82.9641C68.3935 83.0283 68.3935 83.0924 68.3935 83.1565C68.3935 83.2848 68.3293 83.4131 68.2652 83.4772C68.1369 83.6055 67.8804 83.6696 67.6238 83.6696C67.3673 83.6696 67.1749 83.6055 66.9825 83.4772C66.8542 83.349 66.7259 83.2207 66.6618 82.9641L65.5073 83.1565C65.6356 83.5414 65.828 83.8621 66.2128 84.1186C66.5976 84.3751 67.0466 84.5034 67.6238 84.5034C68.2652 84.5034 68.7783 84.3751 69.099 84.0545C69.4197 83.7338 69.6121 83.4131 69.6121 83.0283C69.6121 82.6434 69.4838 82.3869 69.2273 82.1945C69.0348 82.0021 68.5859 81.8097 68.0087 81.6814Z" fill="white"/>
<path d="M76.5389 81.7454C76.5389 82.1944 76.5389 82.5792 76.4748 82.7716C76.4107 82.964 76.3465 83.1565 76.1541 83.2847C75.9617 83.413 75.7052 83.4771 75.3845 83.4771C75.0638 83.4771 74.8072 83.413 74.6148 83.2847C74.4224 83.1565 74.2941 82.964 74.23 82.7075C74.23 82.5792 74.1659 82.1944 74.1659 81.6813V78.4103H72.9473V81.6172C72.9473 82.2585 73.0114 82.7716 73.0755 83.1565C73.1397 83.413 73.2679 83.6054 73.3962 83.7978C73.5245 83.9902 73.781 84.1826 74.1017 84.3109C74.4224 84.4392 74.8072 84.5033 75.3845 84.5033C75.8334 84.5033 76.2182 84.4392 76.5389 84.3109C76.8596 84.1826 77.052 84.0544 77.2444 83.7978C77.4369 83.6054 77.5651 83.3489 77.6293 83.0282C77.6934 82.7075 77.7575 82.1944 77.7575 81.4889V78.3462H76.5389V81.7454Z" fill="white"/>
<path d="M82.8884 80.078H81.4774L80.1305 81.6172V78.4104H78.9761V84.4393H80.1305V83.0283L80.6436 82.451L81.734 84.4393H83.0167L81.4133 81.6814L82.8884 80.078Z" fill="white"/>
<path d="M85.1972 80.142C85.0689 80.2061 84.8765 80.3985 84.6841 80.7192V80.0778H83.5938V84.4391H84.7482V83.0922C84.7482 82.3226 84.8124 81.8737 84.8124 81.6171C84.8124 81.3606 84.9406 81.2323 85.0689 81.1681C85.1972 81.104 85.3254 81.0399 85.4537 81.0399C85.6461 81.0399 85.7744 81.104 85.9668 81.2323L86.3516 80.2061C86.0951 80.0778 85.8385 80.0137 85.582 80.0137C85.5179 79.9496 85.3254 80.0137 85.1972 80.142Z" fill="white"/>
<path d="M90.4564 82.9641V81.6173C90.4564 81.1042 90.3923 80.7835 90.3282 80.5911C90.1999 80.3987 90.0716 80.2704 89.8151 80.1421C89.5585 80.0138 89.1737 79.9497 88.6606 79.9497C88.0834 79.9497 87.6986 80.078 87.3779 80.2704C87.1213 80.4628 86.8648 80.7835 86.8006 81.2324L87.8268 81.4249C87.891 81.2324 88.0192 81.1042 88.0834 80.9759C88.2117 80.9118 88.3399 80.8476 88.5323 80.8476C88.853 80.8476 89.0454 80.9118 89.1737 80.9759C89.302 81.04 89.3661 81.2324 89.3661 81.4249V81.5531C89.1737 81.6173 88.7889 81.7455 88.2758 81.8097C87.891 81.8738 87.5703 82.0021 87.3779 82.0662C87.1855 82.1945 86.993 82.3228 86.8648 82.5152C86.7365 82.7076 86.6724 82.9 86.6724 83.1566C86.6724 83.5414 86.8006 83.8621 87.0572 84.0545C87.3137 84.311 87.6986 84.4393 88.0834 84.4393C88.3399 84.4393 88.5965 84.3752 88.7889 84.311C88.9813 84.2469 89.2378 84.0545 89.4302 83.8621C89.4302 83.8621 89.4303 83.9262 89.4944 83.9903C89.5585 84.1186 89.5585 84.2469 89.6227 84.311H90.7771C90.6488 84.1186 90.5847 83.9262 90.5847 83.7338C90.4564 83.6697 90.4564 83.349 90.4564 82.9641ZM89.302 82.5793C89.302 82.8359 89.302 83.0283 89.2378 83.1566C89.1737 83.2848 89.1096 83.4131 88.9813 83.5414C88.7889 83.6697 88.5965 83.7338 88.4041 83.7338C88.2117 83.7338 88.0834 83.6697 87.9551 83.5414C87.8268 83.4131 87.7627 83.2848 87.7627 83.0924C87.7627 82.9 87.8268 82.7717 88.0192 82.7076C88.1475 82.6435 88.3399 82.5793 88.6606 82.5152C88.9813 82.4511 89.2378 82.3869 89.3661 82.3228V82.5793H89.302Z" fill="white"/>
<path d="M92.7653 80.0781H91.6108V84.4394H92.7653V80.0781Z" fill="white"/>
<path d="M92.7653 78.4104H91.6108V79.5007H92.7653V78.4104Z" fill="white"/>
<path d="M97.5757 80.4629C97.4474 80.3346 97.3192 80.2063 97.1268 80.1422C96.9344 80.0781 96.6778 80.0139 96.4213 80.0139C95.844 80.0139 95.3951 80.2705 95.0102 80.7194V80.0781H93.9199V84.4394H95.0744V82.4511C95.0744 81.938 95.0744 81.6173 95.1385 81.4249C95.2027 81.2325 95.3309 81.1042 95.4592 80.976C95.5875 80.8477 95.7799 80.7836 95.9723 80.7836C96.1006 80.7836 96.2289 80.8477 96.3571 80.9118C96.4854 80.976 96.5495 81.1042 96.6137 81.2325C96.6778 81.3608 96.6778 81.6815 96.6778 82.1304V84.3752H97.8323V81.6815C97.8323 81.3608 97.8323 81.1042 97.7681 80.9118C97.704 80.7194 97.704 80.5911 97.5757 80.4629Z" fill="white"/>
<path d="M102.194 80.5911C101.809 80.1421 101.296 79.9497 100.654 79.9497C100.077 79.9497 99.6281 80.1421 99.2432 80.5911C98.8584 80.9759 98.666 81.5531 98.666 82.2586C98.666 82.8359 98.7943 83.349 99.115 83.7338C99.4998 84.2469 100.013 84.5034 100.783 84.5034C101.231 84.5034 101.68 84.3751 102.001 84.1827C102.322 83.9903 102.578 83.6696 102.707 83.2207L101.552 83.0283C101.488 83.2207 101.424 83.4131 101.296 83.4772C101.167 83.6055 101.039 83.6055 100.847 83.6055C100.59 83.6055 100.334 83.5414 100.205 83.349C100.013 83.1565 99.9488 82.9 99.9488 82.5793H102.835C102.771 81.6814 102.578 81.04 102.194 80.5911ZM99.8846 81.8738C99.8846 81.5531 99.9487 81.2966 100.141 81.1042C100.334 80.9118 100.526 80.8476 100.783 80.8476C101.039 80.8476 101.231 80.9118 101.36 81.1042C101.552 81.2966 101.616 81.5531 101.616 81.8738H99.8846Z" fill="white"/>
<path d="M79.2324 28.9608C79.2966 29.0249 79.3607 29.0249 79.4248 29.0249H81.4131L82.311 30.7566C82.3751 30.8849 82.5034 30.949 82.6317 30.949C82.7599 30.949 82.8882 30.8208 82.9523 30.6925L83.5937 28.8325L85.582 28.5118C85.7102 28.5118 85.8385 28.3836 85.9026 28.2553C85.9668 28.127 85.9026 27.9346 85.7744 27.8705L84.1709 26.6519L84.4916 24.6636C84.4916 24.5354 84.4275 24.4071 84.2992 24.2788C84.1709 24.2147 84.0427 24.2147 83.9144 24.2788L82.311 25.4333L80.5152 24.5354C80.3869 24.4712 80.2586 24.4712 80.1303 24.5995C80.0021 24.6636 80.0021 24.856 80.0021 24.9843L80.5793 26.9084L79.1683 28.3194C79.04 28.4477 79.04 28.576 79.1041 28.7043C79.1041 28.8325 79.1683 28.8967 79.2324 28.9608Z" fill="white"/>
<path d="M98.4736 36.7857C98.5377 36.6574 98.5377 36.5291 98.4094 36.4008C98.3453 36.2726 98.1529 36.2726 98.0246 36.2726L96.1005 36.8498L94.6895 35.4388C94.5612 35.3105 94.433 35.3105 94.3047 35.3746C94.1764 35.4388 94.1123 35.5671 94.0481 35.6953V37.6836L92.3164 38.5815C92.1882 38.6456 92.124 38.7739 92.124 38.9022C92.124 38.9663 92.1882 39.0304 92.1882 39.0946C92.2523 39.1587 92.3164 39.1587 92.3806 39.2229L94.2405 39.8642L94.5612 41.8525C94.5612 41.9807 94.6895 42.109 94.8178 42.1732C94.9461 42.2373 95.1385 42.1732 95.2026 42.0449L96.4212 40.4415L98.4094 40.698C98.5377 40.698 98.666 40.6339 98.7943 40.5056C98.8584 40.3773 98.8584 40.249 98.7943 40.1208L97.6398 38.5174L98.4736 36.7857Z" fill="white"/>
<path d="M86.2876 32.2319C86.3517 32.296 86.4159 32.296 86.5441 32.3602L89.0455 32.8091L89.8151 35.2463C89.8793 35.4387 90.0075 35.567 90.1999 35.567C90.3923 35.567 90.5848 35.5029 90.6489 35.3105L91.8675 33.0657H94.433C94.6254 33.0657 94.8178 32.9374 94.8819 32.8091C94.9461 32.6167 94.9461 32.4243 94.8178 32.296L93.022 30.4361L93.8557 27.9989C93.9199 27.8064 93.8557 27.614 93.7275 27.4858C93.5992 27.3575 93.4068 27.3575 93.2144 27.4216L90.9054 28.512L88.8531 26.9727C88.7248 26.8444 88.4682 26.8444 88.34 26.9727C88.1476 27.0368 88.0834 27.2292 88.0834 27.4216L88.4041 29.9871L86.2876 31.4622C86.1593 31.5905 86.031 31.7829 86.0952 31.9753C86.1593 32.1036 86.2235 32.1678 86.2876 32.2319Z" fill="white"/>
<path d="M47.9977 29.7947L49.986 29.9871C50.0501 29.9871 50.1142 29.9871 50.1784 29.923C50.2425 29.8588 50.3066 29.8588 50.3708 29.7947C50.4349 29.6664 50.4349 29.5381 50.3066 29.4099L49.0239 27.8064L49.7935 25.9465C49.8577 25.8182 49.7935 25.6258 49.7294 25.5617C49.6011 25.4334 49.4729 25.4334 49.3446 25.4975L47.4846 26.203L46.0095 24.9203C45.8812 24.8562 45.7529 24.792 45.6246 24.8562C45.4964 24.9203 45.4322 25.0486 45.4322 25.1768L45.5605 27.1651L43.7647 28.1913C43.6364 28.2554 43.5723 28.3837 43.5723 28.5761C43.5723 28.7044 43.7005 28.8326 43.8288 28.8968L45.7529 29.4099L46.2019 31.334C46.266 31.4622 46.3302 31.5905 46.5226 31.5905C46.6508 31.5905 46.7791 31.5264 46.9074 31.4622L47.9977 29.7947Z" fill="white"/>
<path d="M36.3249 38.6455C36.3249 38.5173 36.2608 38.389 36.1966 38.2607L34.5291 37.1704L34.7215 35.1821C34.7215 35.0539 34.6573 34.9256 34.5291 34.8615C34.4008 34.7973 34.2725 34.7973 34.1442 34.9256L32.5408 36.1442L30.6809 35.3746C30.5526 35.3104 30.3602 35.3746 30.296 35.4387C30.1678 35.567 30.1678 35.6952 30.2319 35.8235L30.9374 37.6835L29.6547 39.1586C29.5905 39.2869 29.5264 39.4152 29.5905 39.5435C29.6547 39.6717 29.7829 39.7359 29.9112 39.7359L31.8995 39.6717L32.9256 41.4034C32.9898 41.5317 33.1181 41.5958 33.3105 41.5958C33.4387 41.5958 33.567 41.4676 33.6312 41.3393L34.1442 39.4152L36.0684 38.9662C36.1325 38.9662 36.1966 38.9021 36.2608 38.9021C36.2608 38.7738 36.3249 38.7097 36.3249 38.6455Z" fill="white"/>
<path d="M34.5293 32.5526L37.0947 32.8091L38.1209 35.1822C38.1851 35.3746 38.3775 35.4387 38.5699 35.4387C38.7623 35.4387 38.9547 35.3105 39.0188 35.1822L40.045 32.8091L42.6105 32.5526C42.6746 32.5526 42.8029 32.4884 42.8671 32.4884C42.9312 32.4243 42.9953 32.3602 43.0595 32.2319C43.1236 32.0395 43.0595 31.8471 42.9312 31.7188L41.0071 29.9871L41.5843 27.4858C41.6485 27.2934 41.5843 27.1009 41.3919 26.9727C41.1995 26.8444 41.0071 26.8444 40.8788 26.9727L38.634 28.3195L36.4534 26.9727C36.261 26.8444 36.0685 26.9085 35.9403 26.9727C35.812 27.1009 35.6837 27.2934 35.7479 27.4858L36.3251 29.9871L34.401 31.6547C34.2727 31.7829 34.2086 31.9753 34.2727 32.1677C34.2086 32.4243 34.3369 32.5526 34.5293 32.5526Z" fill="white"/>
<path d="M28.0513 48.5871H30.8733V56.4118H32.7974V48.5871H35.5553V46.9836H28.0513V48.5871Z" fill="white"/>
<path d="M40.7502 46.7908C39.9805 46.7908 39.275 46.919 38.6978 47.1756C38.2488 47.368 37.864 47.6246 37.4792 48.0094C37.0944 48.3942 36.8378 48.8432 36.5813 49.2921C36.3247 49.9335 36.1323 50.7673 36.1323 51.7293C36.1323 53.2045 36.5171 54.4231 37.3509 55.2568C38.1847 56.0906 39.275 56.5396 40.686 56.5396C42.097 56.5396 43.1874 56.0906 44.0212 55.2568C44.8549 54.4231 45.2398 53.2045 45.2398 51.6652C45.2398 50.1259 44.7908 48.9073 43.957 48.0735C43.1232 47.2397 42.1612 46.7908 40.7502 46.7908ZM42.6743 54.1665C42.1612 54.7437 41.584 55.0003 40.8143 55.0003C40.0447 55.0003 39.4033 54.7437 38.9543 54.1665C38.4413 53.5893 38.1847 52.8196 38.1847 51.7293C38.1847 50.639 38.4413 49.8052 38.8902 49.2921C39.3392 48.779 39.9805 48.4583 40.8143 48.4583C41.6481 48.4583 42.2253 48.7149 42.7384 49.228C43.1874 49.7411 43.4439 50.5748 43.4439 51.6652C43.3798 52.7555 43.1232 53.5893 42.6743 54.1665Z" fill="white"/>
<path d="M52.1666 47.1119C51.8459 47.0478 51.0763 46.9836 49.9218 46.9836H46.8433V56.4118H48.7674V52.8201H49.986C50.8197 52.8201 51.5253 52.756 51.9742 52.6918C52.2949 52.6277 52.6156 52.4994 52.9363 52.2429C53.2569 51.9863 53.5135 51.7298 53.77 51.2808C53.9624 50.896 54.0907 50.3829 54.0907 49.8057C54.0907 49.036 53.8983 48.4588 53.5135 47.9457C53.1928 47.5609 52.7438 47.2402 52.1666 47.1119ZM51.9101 50.6394C51.7818 50.8319 51.5894 51.0243 51.3328 51.0884C51.0763 51.1525 50.5632 51.2167 49.7936 51.2167H48.7674V48.5229H49.6653C50.3708 48.5229 50.8197 48.5229 51.0122 48.5871C51.3328 48.6512 51.5894 48.7795 51.7818 49.036C51.9742 49.2284 52.1025 49.5491 52.1025 49.8698C52.1025 50.1905 52.0383 50.447 51.9101 50.6394Z" fill="white"/>
<path d="M65.379 53.0765C65.1224 52.8199 64.7376 52.4992 64.3528 52.3068C65.1866 52.1786 65.8279 51.922 66.2128 51.4089C66.5976 50.96 66.8541 50.3827 66.8541 49.6772C66.8541 49.1 66.7259 48.651 66.4693 48.2021C66.2128 47.7531 65.8279 47.4966 65.379 47.3042C64.93 47.1117 64.1604 47.0476 63.1983 47.0476H59.1577V56.4757H61.0818V52.4992H61.4666C61.9156 52.4992 62.2363 52.5634 62.4287 52.6275C62.6211 52.6916 62.8135 52.8199 63.0059 53.0123C63.1983 53.2047 63.519 53.6537 64.0321 54.4233L65.4431 56.4757H67.7521L66.5976 54.6158C66.0204 53.8461 65.6355 53.333 65.379 53.0765ZM62.4287 50.96H61.0177V48.5869H62.4928C63.2625 48.5869 63.7114 48.5869 63.9038 48.651C64.2245 48.7152 64.4811 48.8434 64.6093 49.0358C64.8018 49.2283 64.8659 49.4848 64.8659 49.8055C64.8659 50.062 64.8018 50.3186 64.6735 50.511C64.5452 50.7034 64.3528 50.8317 64.1604 50.8958C63.968 50.96 63.3266 50.96 62.4287 50.96Z" fill="white"/>
<path d="M71.3438 46.9836L67.688 56.4118H69.7404L70.51 54.2952H74.2941L75.1279 56.4118H77.1802L73.3962 46.9836H71.3438ZM71.0872 52.6918L72.37 49.1643L73.6527 52.6918H71.0872Z" fill="white"/>
<path d="M76.5386 48.5871H79.2965V56.4118H81.2206V48.5871H84.0426V46.9836H76.5386V48.5871Z" fill="white"/>
<path d="M87.1853 52.2429H91.9315V50.6394H87.1853V48.5871H92.2522V46.9836H85.2612V56.4118H92.4446V54.8083H87.1853V52.2429Z" fill="white"/>
<path d="M94.0483 46.9833V56.4114H97.64C98.3455 56.4114 98.9227 56.3473 99.3076 56.219C99.8848 56.0266 100.334 55.7701 100.654 55.4494C101.103 55.0004 101.424 54.4873 101.681 53.7818C101.873 53.2046 102.001 52.5632 102.001 51.7936C102.001 50.8957 101.873 50.1902 101.681 49.5488C101.488 48.9716 101.168 48.4585 100.783 48.0095C100.398 47.5606 99.8848 47.304 99.3717 47.1116C98.9869 46.9833 98.3455 46.9192 97.5759 46.9192H94.0483V46.9833ZM99.3076 49.0998C99.5641 49.2923 99.6924 49.6129 99.8206 49.9978C99.9489 50.3826 100.013 50.9598 100.013 51.6653C100.013 52.3708 99.9489 52.9481 99.8206 53.397C99.6924 53.846 99.5 54.1025 99.3076 54.2949C99.1152 54.4873 98.8586 54.6156 98.5379 54.6797C98.2814 54.7439 97.8966 54.7439 97.3835 54.7439H95.9724V48.4585H96.8062C97.5759 48.4585 98.089 48.4585 98.3455 48.5226C98.7303 48.715 99.051 48.9074 99.3076 49.0998Z" fill="white"/>
<path d="M70.8946 41.2111C71.4077 41.2111 71.8567 40.7621 71.8567 40.249C71.8567 39.7359 71.4077 39.287 70.8946 39.287H70.5098V38.5815C70.5098 38.0684 70.0608 37.6194 69.5478 37.6194H67.8161C67.1106 36.3367 66.7257 34.9898 66.5975 33.7712C67.4954 33.2581 68.3292 32.4885 69.0347 31.5264H72.3056C73.396 31.5264 74.2939 30.7568 74.4863 29.7306L75.7049 23.4452C75.8332 22.8038 75.6408 22.0983 75.2559 21.5852C74.807 21.0721 74.1656 20.7514 73.5242 20.7514H71.4719C71.2153 20.1742 70.8305 19.7894 70.3174 19.7894C69.1629 19.4687 60.1196 19.5328 59.6707 19.7894C59.2217 19.9818 58.901 20.3025 58.6445 20.7514H56.2073C55.5018 20.7514 54.9246 21.0721 54.4756 21.5852C54.0266 22.0983 53.8984 22.8038 54.0266 23.4452L55.2452 29.7306C55.4376 30.7568 56.3997 31.5264 57.4259 31.5264H61.1458C61.7872 32.4885 62.5568 33.2581 63.2623 33.7712C63.1982 35.1181 62.8134 36.4008 62.172 37.6836H60.4403C59.9272 37.6836 59.4783 38.1325 59.4783 38.6456V39.3511H59.0934C58.5804 39.3511 58.1314 39.8001 58.1314 40.3132C58.1314 40.8263 58.5804 41.2752 59.0934 41.2752H70.8946V41.2111ZM71.9208 22.6755H73.6525C73.7808 22.6755 73.8449 22.7397 73.9091 22.8038C73.9732 22.868 73.9732 22.9321 73.9732 23.0604L72.7546 29.3458C72.7546 29.4741 72.5622 29.6023 72.4339 29.6023H70.3174C71.4077 27.3575 71.985 24.6638 71.9208 22.6755ZM57.6183 29.6023C57.49 29.6023 57.3618 29.4741 57.2976 29.3458L56.079 23.0604C56.079 22.9321 56.079 22.868 56.1432 22.8038C56.2073 22.7397 56.2714 22.6755 56.3997 22.6755H58.4521C58.4521 24.6638 59.1576 27.3575 60.2479 29.6023H57.6183Z" fill="white"/>
<path fill-rule="evenodd" clip-rule="evenodd" d="M116.945 89.3779H124L114.508 101.628L124 112.98H96.4853C87.2496 119.137 76.0898 122.729 64.1603 122.729C52.2309 122.729 41.0711 119.137 31.8354 112.98H4L11.953 101.692L4 89.3779H11.3757C7.78407 81.8098 5.79583 73.3437 5.79583 64.4287C5.79583 32.232 31.9637 6.06421 64.1603 6.06421C96.357 6.06421 122.525 32.1679 122.525 64.4287C122.525 73.3437 120.537 81.8098 116.945 89.3779ZM38.1208 113.044C45.9455 117.213 54.7964 119.586 64.2245 119.586C73.6526 119.586 82.5035 117.213 90.1999 113.044H80.9C75.6408 114.84 69.9968 115.866 64.1603 115.866C58.3239 115.866 52.6798 114.84 47.4206 113.044H38.1208ZM15.9936 64.4287C15.9936 73.5361 18.5591 82.0663 22.9845 89.3779H105.4C109.826 82.1305 112.391 73.5361 112.391 64.4287V63.6591H15.9936V64.4287ZM64.2245 16.1978C38.7622 16.1978 17.9177 35.952 16.1219 60.9653H112.327C110.531 36.0161 89.6868 16.1978 64.2245 16.1978ZM115.662 64.4287C115.662 73.472 113.289 82.0022 109.184 89.3779H113.289C117.137 81.8739 119.318 73.4079 119.318 64.4287C119.318 34.0279 94.5612 9.27105 64.1603 9.27105C33.7595 9.27105 9.00267 34.0279 9.00267 64.4287C9.00267 73.4079 11.1833 81.8739 15.0315 89.3779H19.2646C15.1598 82.0022 12.7867 73.472 12.7867 64.4287C12.7867 36.0161 35.8119 12.991 64.2245 12.991C92.6371 12.991 115.662 36.0161 115.662 64.4287ZM18.3666 102.269L16.9556 102.398C17.0152 103.172 17.4622 103.615 17.8852 104.033C17.9176 104.065 17.9499 104.097 17.9818 104.129C18.4308 104.578 19.1363 104.771 20.0342 104.771C20.6114 104.771 21.1887 104.642 21.5735 104.514C21.9583 104.386 22.279 104.129 22.5355 103.744C22.728 103.36 22.8562 102.975 22.8562 102.59C22.8562 102.141 22.7921 101.756 22.5997 101.436C22.4073 101.179 22.1507 100.922 21.83 100.73C21.5393 100.556 21.0903 100.434 20.4831 100.269L20.2908 100.217C19.5852 100.089 19.1363 99.8963 18.9439 99.768C18.8156 99.6397 18.7515 99.5114 18.7515 99.319C18.7515 99.1266 18.8797 98.9983 19.008 98.8701C19.2004 98.6777 19.5211 98.6135 19.9701 98.6135C20.3549 98.6135 20.6756 98.6777 20.868 98.8701C21.0604 98.9983 21.1887 99.2549 21.2528 99.6397L22.6638 99.5756C22.6638 98.8701 22.4073 98.357 21.9583 97.9721C21.4452 97.5873 20.8038 97.3949 19.9059 97.3949C19.3287 97.3949 18.8797 97.4591 18.4949 97.6515C18.1101 97.7797 17.7894 98.0363 17.597 98.357C17.4046 98.6777 17.2763 98.9983 17.2763 99.3832C17.2763 99.8963 17.4687 100.409 17.9177 100.794C18.1742 101.051 18.7515 101.307 19.5211 101.5C20.0983 101.628 20.4832 101.756 20.6756 101.82C20.9321 101.949 21.0604 102.013 21.1887 102.141C21.2528 102.269 21.3169 102.398 21.3169 102.59C21.3169 102.847 21.1887 103.103 20.9321 103.296C20.7397 103.488 20.3549 103.616 19.9059 103.616C19.457 103.616 19.1363 103.488 18.8797 103.296C18.6232 103.103 18.4308 102.718 18.3666 102.269ZM24.0107 99.3832C23.8183 99.8963 23.69 100.538 23.69 101.243C23.69 102.333 24.0107 103.231 24.5879 103.873C25.1652 104.514 25.999 104.835 27.0893 104.835C28.1155 104.835 28.9492 104.514 29.5906 103.873C30.232 103.231 30.5527 102.333 30.5527 101.179C30.5527 100.025 30.232 99.1266 29.5906 98.4852C29.0134 97.8439 28.1155 97.5232 27.0893 97.5232C26.512 97.5232 25.999 97.5873 25.55 97.7797C25.2293 97.908 24.9086 98.1004 24.6521 98.4211C24.3955 98.6777 24.2031 98.9983 24.0107 99.3832ZM25.7424 103.039C25.3576 102.59 25.1652 102.013 25.1652 101.179C25.1652 100.345 25.3576 99.768 25.8065 99.3832C26.1272 98.9342 26.6403 98.7418 27.2176 98.7418C27.7948 98.7418 28.2437 98.9342 28.6286 99.319C28.9492 99.768 29.1417 100.345 29.1417 101.179C29.1417 102.013 28.9492 102.654 28.5644 103.039C28.1796 103.488 27.7306 103.68 27.1534 103.68C26.5762 103.68 26.1272 103.488 25.7424 103.039ZM31.7713 104.771V97.6515H36.6457V98.8701H33.1823V100.538H36.1326V101.756H33.1823V104.771H31.7713ZM37.287 98.8701H39.4035V104.771H40.8145V98.8701H42.931V97.6515H37.287V98.8701ZM44.9193 104.771L43.1876 97.6515H44.6628L45.7531 102.526L47.0358 97.6515H48.7675L50.0503 102.654L51.1406 97.6515H52.6157L50.884 104.771H49.3448L47.9338 99.4473L46.5227 104.771H44.9193ZM57.6825 104.771H59.2218L56.3357 97.6515H54.7964L52.0385 104.771H53.5778L54.155 103.167H57.0412L57.6825 104.771ZM55.6301 99.319L56.5922 101.949H54.6681L55.6301 99.319ZM59.9915 104.771V97.6515H63.0059C63.7755 97.6515 64.3528 97.7156 64.6735 97.8439C64.9941 97.9721 65.3148 98.2287 65.5072 98.5494C65.6996 98.8701 65.8279 99.2549 65.8279 99.7038C65.8279 100.217 65.6996 100.666 65.379 101.051C65.0583 101.371 64.6093 101.628 63.9679 101.692C64.2886 101.884 64.5452 102.077 64.7376 102.269C64.93 102.462 65.1865 102.847 65.5714 103.424L66.4693 104.835H64.7376L63.7114 103.295C63.3266 102.718 63.07 102.398 62.9418 102.269C62.8135 102.141 62.6852 102.013 62.4928 101.949C62.3645 101.884 62.108 101.884 61.7873 101.884H61.4666V104.835H59.9915V104.771ZM61.4666 100.602H62.5569C63.2624 100.602 63.7114 100.602 63.8397 100.538C64.0321 100.473 64.1604 100.409 64.2245 100.217C64.2379 100.177 64.2513 100.139 64.2641 100.104C64.3126 99.9682 64.3528 99.8561 64.3528 99.7038C64.3528 99.4473 64.2886 99.2549 64.1604 99.1266C64.0321 98.9983 63.8397 98.8701 63.6473 98.8701H62.6211H61.4666V100.602ZM67.1747 97.6515V104.771V104.835H72.6264V103.616H68.6499V101.692H72.2415V100.473H68.6499V98.8701H72.4981V97.6515H67.1747ZM74.8712 104.771L73.1395 97.6515H74.6147L75.705 102.526L76.9877 97.6515H78.7194L80.0022 102.654L81.0925 97.6515H82.5676L80.836 104.771H79.2967L77.8857 99.4473L76.4747 104.771H74.8712ZM83.2731 99.3832C83.0807 99.8963 82.9524 100.538 82.9524 101.243C82.9524 102.333 83.2731 103.231 83.8503 103.873C84.4275 104.514 85.2613 104.835 86.3516 104.835C87.3778 104.835 88.2116 104.514 88.853 103.873C89.4943 103.231 89.815 102.333 89.815 101.179C89.815 100.025 89.4943 99.1266 88.853 98.4852C88.2757 97.8439 87.3778 97.5232 86.3516 97.5232C85.7744 97.5232 85.2613 97.5873 84.8124 97.7797C84.4917 97.908 84.171 98.1004 83.9145 98.4211C83.6579 98.6777 83.4655 98.9983 83.2731 99.3832ZM85.0048 103.039C84.62 102.59 84.4275 102.013 84.4275 101.179C84.4275 100.345 84.62 99.768 85.0689 99.3832C85.3896 98.9342 85.9027 98.7418 86.4799 98.7418C87.0572 98.7418 87.5061 98.9342 87.8909 99.319C88.2116 99.768 88.404 100.345 88.404 101.179C88.404 102.013 88.2116 102.654 87.8268 103.039C87.442 103.488 86.993 103.68 86.4158 103.68C85.8386 103.68 85.3896 103.488 85.0048 103.039ZM91.0337 104.771V97.6515H94.0481C94.8177 97.6515 95.395 97.7156 95.7157 97.8439C96.0363 97.9721 96.357 98.2287 96.5494 98.5494C96.7419 98.8701 96.8701 99.2549 96.8701 99.7038C96.8701 100.217 96.7419 100.666 96.4212 101.051C96.1005 101.371 95.6515 101.628 95.0102 101.692C95.3308 101.884 95.5874 102.077 95.7798 102.269C95.9722 102.462 96.2287 102.846 96.6134 103.423L96.6134 103.424L96.6136 103.424L97.5115 104.835H95.7157L94.6895 103.295C94.3046 102.718 94.0481 102.398 93.9198 102.269C93.7916 102.141 93.6633 102.013 93.4709 101.949C93.3426 101.884 93.0861 101.884 92.7654 101.884H92.4447V104.835H91.0337V104.771ZM92.4447 100.602H93.535C94.2405 100.602 94.6895 100.602 94.8178 100.538C95.0102 100.473 95.1384 100.409 95.2026 100.217C95.2101 100.194 95.2176 100.173 95.225 100.152C95.2308 100.135 95.2365 100.119 95.2421 100.104C95.2907 99.9682 95.3308 99.8561 95.3308 99.7038C95.3308 99.4473 95.2667 99.2549 95.1384 99.1266C95.0102 98.9983 94.8177 98.8701 94.6253 98.8701H93.5992H92.4447V100.602ZM98.2811 97.7156V104.771V104.835H103.284V103.616H99.6921V97.7156H98.2811ZM104.374 97.5874H106.94C107.517 97.5874 107.966 97.6515 108.287 97.7156C108.735 97.8439 109.056 98.0363 109.377 98.357C109.698 98.6777 109.89 99.0625 110.082 99.5115C110.211 99.9604 110.339 100.538 110.339 101.179C110.339 101.756 110.275 102.269 110.146 102.718C109.954 103.231 109.698 103.68 109.377 104.001C109.12 104.258 108.8 104.45 108.351 104.578C108.03 104.707 107.581 104.707 107.068 104.707H104.374V97.5874ZM105.721 98.806V103.552H106.811C107.196 103.552 107.517 103.552 107.709 103.488C107.966 103.424 108.158 103.36 108.287 103.167C108.415 103.039 108.543 102.782 108.671 102.462C108.8 102.141 108.8 101.692 108.8 101.179C108.8 100.666 108.735 100.217 108.671 99.8963C108.543 99.5756 108.415 99.3832 108.287 99.1908C108.158 98.9984 107.902 98.9342 107.645 98.8701C107.453 98.806 107.068 98.806 106.491 98.806H105.721Z" fill="white"/>
</g>
</mask>
<g mask="url(#mask0)">
<rect x="-5.73291" y="-2.1106" width="139.503" height="133.014" fill="#3F3F3F"/>
</g>
<defs>
<clipPath id="clip0">
<rect width="120" height="116.793" fill="white" transform="translate(4 6)"/>
</clipPath>
</defs>
</svg>
