<svg width="176" height="56" viewBox="0 0 176 56" fill="none" xmlns="http://www.w3.org/2000/svg">
<path fill-rule="evenodd" clip-rule="evenodd" d="M65.5149 32.5886C66.1481 33.7032 67.354 34.2756 69.1329 34.2756C70.9117 34.2756 72.1177 33.7032 72.7508 32.5886C73.384 31.4741 73.7156 29.5763 73.7156 26.9254C73.7156 24.2745 73.384 22.3466 72.7207 21.1416C72.0574 19.9367 70.8514 19.3342 69.1329 19.3342C67.3842 19.3342 66.1782 19.9367 65.5451 21.1416C64.8818 22.3466 64.5501 24.2745 64.5501 26.9254C64.5501 29.5763 64.8818 31.4439 65.5149 32.5886ZM74.3186 37.3181C74.2583 37.3181 74.198 37.2879 74.1377 37.2879C73.9869 37.2879 73.6854 37.3482 73.595 37.3783C72.3589 37.8603 70.8815 38.1314 69.1027 38.1314C65.726 38.1314 63.3442 37.2277 61.9573 35.4203C60.5704 33.6129 59.877 30.7511 59.877 26.8953C59.877 23.0394 60.5704 20.1475 61.9573 18.2799C63.3442 16.4122 65.726 15.4482 69.1027 15.4482C72.4795 15.4482 74.8613 16.3821 76.2482 18.2799C77.635 20.1475 78.3285 23.0394 78.3285 26.8953C78.3285 29.6968 78.0571 31.7151 77.3335 33.4321C77.3034 33.4924 77.2732 33.5526 77.2732 33.6129C77.1225 34.7576 78.6903 35.5709 78.9918 36.083L79.3536 36.4144C79.7455 36.7457 79.7757 37.3181 79.444 37.7097L77.9968 39.3665C77.6652 39.7581 77.0923 39.7882 76.7004 39.4569L74.3186 37.3181Z" fill="#1C1C1C"/>
<path fill-rule="evenodd" clip-rule="evenodd" d="M90.7804 19.1536H90.7502C90.3281 19.1536 89.9362 19.4548 89.8457 19.8766L87.7956 29.6065H93.7049L91.6547 19.8766C91.5944 19.4548 91.2025 19.1536 90.7804 19.1536ZM93.8858 33.4925H87.6448C87.2529 33.4925 86.9212 33.7636 86.8609 34.1552L86.2881 36.8362C86.1976 37.2278 85.866 37.499 85.5042 37.499H82.7907C82.2782 37.499 81.8862 37.017 82.0068 36.4747L86.3182 16.9245C86.4991 16.081 87.2529 15.4785 88.097 15.4785H93.4637C94.3079 15.4785 95.0616 16.081 95.2425 16.9245L99.5539 36.4747C99.6745 36.9869 99.2825 37.499 98.77 37.499H96.0565C95.6646 37.499 95.3329 37.2278 95.2726 36.8362L94.6998 34.1552C94.6094 33.7636 94.2777 33.4925 93.8858 33.4925Z" fill="#1C1C1C"/>
<path fill-rule="evenodd" clip-rule="evenodd" d="M112.58 26.2628C113.605 26.2628 114.389 25.9314 114.931 25.2989C115.474 24.6663 115.746 23.7927 115.746 22.7383C115.746 21.6539 115.474 20.8104 114.901 20.2079C114.328 19.6055 113.545 19.2741 112.519 19.2741H108.389V26.2628H112.58ZM103.836 16.3822C103.836 15.8701 104.259 15.4785 104.771 15.4785H112.519C117.766 15.4785 120.389 17.8884 120.389 22.7383C120.389 25.3591 119.484 27.3473 117.675 28.7028C117.343 28.9438 117.223 29.3656 117.374 29.7572L119.846 36.294C120.057 36.8965 119.635 37.5291 118.972 37.5291H116.017C115.625 37.5291 115.263 37.2881 115.143 36.9266L112.972 30.7814C112.851 30.4199 112.489 30.1789 112.097 30.1789H109.324C108.811 30.1789 108.389 30.6006 108.389 31.0826V36.6254C108.389 37.1375 107.967 37.5291 107.454 37.5291H104.771C104.259 37.5291 103.836 37.1073 103.836 36.6254V16.3822Z" fill="#1C1C1C"/>
<path fill-rule="evenodd" clip-rule="evenodd" d="M129.282 19.7312V24.8823H136.217C136.729 24.8823 137.151 25.3041 137.151 25.8162V27.7742C137.151 28.2863 136.729 28.708 136.217 28.708H129.282V33.9797H138.176C138.689 33.9797 139.111 34.4014 139.111 34.9135V36.9318C139.111 37.4439 138.689 37.8657 138.176 37.8657H125.725C125.212 37.8657 124.79 37.4439 124.79 36.9318V16.7791C124.79 16.2669 125.212 15.8452 125.725 15.8452H138.176C138.689 15.8452 139.111 16.2669 139.111 16.7791V18.7973C139.111 19.3094 138.689 19.7312 138.176 19.7312H129.282Z" fill="#1C1C1C"/>
<path fill-rule="evenodd" clip-rule="evenodd" d="M150.146 19.5501H150.116C149.694 19.5501 149.302 19.8513 149.211 20.2731L147.161 30.003H153.071L151.02 20.2731C150.96 19.8513 150.598 19.5501 150.146 19.5501ZM153.191 33.889H147.071C146.649 33.889 146.287 34.1902 146.197 34.612L145.654 37.1725C145.563 37.5942 145.202 37.8954 144.78 37.8954H142.217C141.644 37.8954 141.222 37.3532 141.342 36.7809L145.654 17.3209C145.835 16.4775 146.588 15.875 147.433 15.875H152.829C153.674 15.875 154.427 16.4775 154.608 17.3209L158.92 36.7809C159.04 37.3532 158.618 37.8954 158.045 37.8954H155.483C155.061 37.8954 154.699 37.5942 154.608 37.1725L154.066 34.612C153.975 34.1902 153.613 33.889 153.191 33.889Z" fill="#1C1C1C"/>
<path fill-rule="evenodd" clip-rule="evenodd" d="M25.4161 0C17.9088 0 8.65293 0.994083 3.55765 8.73588C0 14.128 0 20.5745 0 27.9849C0 35.3954 0 41.8419 3.55765 47.2641C8.65293 55.0059 17.9088 56 25.4161 56C32.9233 56 42.2094 55.0059 47.2745 47.2641C50.8322 41.8419 50.8322 35.4255 50.8322 27.9849C50.8322 20.5444 50.8322 14.128 47.2745 8.70576C42.2094 0.994083 32.9535 0 25.4161 0ZM25.4161 4.54868C32.1696 4.54868 39.5864 5.3319 43.4455 11.206C46.2796 15.5198 46.2796 20.9962 46.2796 27.9849C46.2796 34.9736 46.2796 40.4863 43.4455 44.7639C39.5864 50.638 32.1696 51.4212 25.4161 51.4212C18.6626 51.4212 11.2458 50.638 7.38665 44.7639C4.55259 40.4863 4.55259 34.9736 4.55259 27.9849C4.55259 20.9962 4.55259 15.4836 7.38665 11.206C11.2458 5.3319 18.6927 4.54868 25.4161 4.54868ZM33.0439 26.6595C33.0439 22.9543 33.0741 20.3034 31.9284 19.1587C30.9938 18.255 28.8531 17.8031 25.3859 17.8031C21.9489 17.8031 19.8083 18.2249 18.9038 19.1286C17.078 20.9527 17.078 35.0171 18.9038 36.8413C19.8083 37.745 21.9489 38.1668 25.3859 38.1668C28.8531 38.1668 30.9938 37.7149 31.9284 36.8112C33.0741 35.6966 33.0741 33.0156 33.0439 29.3104C33.0439 28.8887 33.0439 28.4368 33.0439 27.9849C33.0439 27.5331 33.0439 27.0812 33.0439 26.6595ZM41.2145 39.3416C41.9682 36.3895 41.9682 32.7144 41.9682 28.0151C41.9682 14.7004 41.8476 8.55514 25.4462 8.55514C9.04487 8.55514 8.92427 14.7305 8.92427 28.0151C8.92427 30.9371 8.92427 33.5277 9.10517 35.7569C9.76846 43.7095 12.6327 47.475 25.4462 47.475C29.0039 47.475 31.8078 47.1737 34.0087 46.6014C35.3052 46.2399 35.7272 44.6434 34.7926 43.7095L34.5514 43.4685C33.7374 42.6552 32.5615 41.8419 31.4762 42.1431C29.8782 42.5949 27.8884 42.8359 25.4161 42.8359C20.5922 42.8359 17.6074 41.9925 15.7381 40.1248C13.296 37.6547 13.296 34.4917 13.3261 29.8526C13.3261 29.3706 13.3261 28.8585 13.3261 28.3464C13.3261 27.8343 13.3261 27.3222 13.3261 26.8402C13.2658 22.1108 13.2658 18.4658 15.7079 15.9656C17.5772 14.0678 20.562 13.2544 25.3859 13.2544C30.24 13.2544 33.2248 14.0979 35.0941 15.9957C37.5664 18.496 37.5664 22.2313 37.5362 26.9306C37.5362 27.3825 37.5362 27.8042 37.5362 28.2862C37.5362 28.738 37.5362 29.1899 37.5362 29.6417C37.5362 32.4432 37.5664 34.8833 37.0538 36.9317C36.8126 37.9559 37.084 39.0102 37.8076 39.7332L38.3201 40.2453C39.2547 41.1791 40.8828 40.6068 41.2145 39.3416Z" fill="#FF3333"/>
</svg>
