<svg width="64" height="65" viewBox="0 0 64 65" fill="none" xmlns="http://www.w3.org/2000/svg">
<path d="M30.4849 17.0796C31.2749 16.6272 32.3039 16.6251 33.0932 17.0796C37.0643 19.3244 41.0366 21.5657 45.007 23.8119C45.7538 24.2327 46.2533 25.0642 46.2457 25.925V39.4308C46.2512 40.3273 45.7024 41.1786 44.9145 41.5899C40.9565 43.8224 37.0005 46.0576 33.0432 48.29C32.2368 48.7513 31.1872 48.7157 30.406 48.2167C29.2194 47.5285 28.0308 46.8437 26.844 46.1562C26.6015 46.0116 26.3282 45.8965 26.1569 45.6612C26.3083 45.4571 26.5789 45.4317 26.7989 45.3426C27.2942 45.185 27.7491 44.9321 28.2041 44.6866C28.3192 44.6078 28.4597 44.638 28.57 44.7085C29.5847 45.2906 30.5904 45.8895 31.6085 46.466C31.8257 46.5915 32.0456 46.4249 32.2313 46.3214C36.1153 44.1253 40.0041 41.9374 43.8874 39.7406C44.0313 39.6714 44.1109 39.5186 44.0992 39.3609C44.1019 34.9056 44.0999 30.4495 44.1005 25.9943C44.117 25.8154 44.0135 25.6509 43.8518 25.5777C39.9075 23.3554 35.9653 21.1298 32.0217 18.907C31.9533 18.86 31.8724 18.8348 31.7895 18.8346C31.7066 18.8345 31.6256 18.8595 31.5571 18.9063C27.6135 21.1298 23.6719 23.3575 19.7283 25.5796C19.5672 25.6529 19.4591 25.8147 19.4782 25.9943C19.4789 30.4495 19.4782 34.9056 19.4782 39.3615C19.4714 39.4385 19.4883 39.5157 19.5266 39.5827C19.565 39.6498 19.6229 39.7034 19.6927 39.7365C20.7451 40.3335 21.7988 40.9264 22.8519 41.5213C23.4451 41.8408 24.1735 42.0306 24.8271 41.7859C25.4039 41.5789 25.8082 40.9901 25.7972 40.3774C25.8027 35.9481 25.7945 31.5182 25.8013 27.0896C25.7869 26.8929 25.9733 26.7305 26.1644 26.749C26.6701 26.7456 27.1764 26.7422 27.682 26.7504C27.8931 26.7456 28.0384 26.9573 28.0123 27.1554C28.0102 31.6127 28.0177 36.0701 28.0088 40.5274C28.0102 41.7154 27.5224 43.0079 26.4241 43.5892C25.071 44.2904 23.3986 44.1417 22.0618 43.4693C20.9046 42.8915 19.8003 42.2095 18.6636 41.5905C17.8737 41.1815 17.3275 40.3267 17.3331 39.4309V25.925C17.3248 25.0464 17.8442 24.1998 18.6142 23.7851C22.5716 21.5508 26.5282 19.3149 30.4849 17.0796Z" fill="#202020"/>
<path d="M33.9372 26.4351C35.6632 26.324 37.5109 26.3693 39.064 27.2199C40.2665 27.8718 40.9332 29.2399 40.9544 30.5764C40.9208 30.7566 40.7325 30.8561 40.5604 30.8437C40.0597 30.843 39.5588 30.8505 39.058 30.8403C38.8456 30.8485 38.7221 30.6525 38.6955 30.4647C38.5516 29.8252 38.203 29.1918 37.6013 28.8834C36.6778 28.4208 35.6069 28.4441 34.5998 28.4537C33.8646 28.4928 33.074 28.5564 32.4511 28.989C31.9729 29.3166 31.8277 29.978 31.9984 30.5106C32.1593 30.8931 32.6006 31.0165 32.9616 31.1303C35.0417 31.6745 37.2458 31.6203 39.2861 32.3366C40.1308 32.6285 40.9572 33.1962 41.2463 34.081C41.6245 35.2668 41.4587 36.6843 40.6154 37.6363C39.9314 38.4197 38.9354 38.8461 37.9419 39.0777C36.6202 39.3725 35.2486 39.38 33.9064 39.2491C32.6444 39.1052 31.331 38.7735 30.3567 37.9132C29.5236 37.1895 29.1166 36.0618 29.157 34.9735C29.1667 34.7897 29.3496 34.6615 29.5256 34.6766C30.0299 34.6725 30.5342 34.6712 31.0385 34.6773C31.2399 34.6629 31.3892 34.837 31.3995 35.027C31.4926 35.6362 31.7215 36.2757 32.2525 36.637C33.2775 37.2985 34.5635 37.2532 35.737 37.2717C36.7093 37.2285 37.8007 37.2155 38.5941 36.5726C39.0127 36.2059 39.1368 35.5924 39.0236 35.0647C38.9011 34.6191 38.4352 34.4114 38.035 34.2757C35.9817 33.6258 33.7529 33.8616 31.7194 33.1268C30.8939 32.8349 30.0956 32.2831 29.7784 31.4346C29.3359 30.2338 29.5387 28.7484 30.4704 27.8285C31.3789 26.9135 32.6903 26.5611 33.9372 26.435V26.4351Z" fill="#202020"/>
</svg>
