<svg width="64" height="65" viewBox="0 0 64 65" fill="none" xmlns="http://www.w3.org/2000/svg">
<g clip-path="url(#clip0)">
<path fill-rule="evenodd" clip-rule="evenodd" d="M53.3333 33.185C53.3333 39.3207 43.782 44.2947 32 44.2947C20.2179 44.2947 10.6666 39.3207 10.6666 33.185C10.6666 27.0492 20.2179 22.0752 32 22.0752C43.782 22.0752 53.3333 27.0492 53.3333 33.185ZM18.9955 27.9224L16.6575 39.7631H19.4338L20.0183 36.6933H22.6482C25.1323 36.8395 27.9085 34.793 27.9085 31.2847C27.9085 29.2379 26.7395 28.0686 24.4017 27.9224H18.9955ZM21.3333 30.1152L20.6027 34.5007H20.6028H22.3562C23.6712 34.3545 24.8402 33.9159 24.9862 31.4307C24.9862 30.5537 24.2557 30.1152 23.2328 30.1152H21.3333ZM29.7032 24.8527L27.3653 36.6933H30.1417L31.4567 30.1152H33.6485C34.6712 30.1152 34.6712 30.5537 34.5252 31.2847L33.5023 36.6933H36.4247L37.4475 30.6999C37.7397 29.2379 36.863 28.0686 34.525 27.9224H31.895L32.4795 24.8527H29.7032ZM38.5753 27.9224L36.2375 39.7631H39.0137L39.5982 36.6933H42.2283C44.7123 36.8395 47.4887 34.793 47.4887 31.2847C47.4887 29.2379 46.3197 28.0686 43.9817 27.9224H38.5753ZM40.9132 30.1152L40.1825 34.5007H40.1827H41.9362C43.2512 34.3545 44.4202 33.9159 44.5662 31.4307C44.5662 30.5537 43.8357 30.1152 42.8128 30.1152H40.9132Z" fill="#202020"/>
</g>
<defs>
<clipPath id="clip0">
<rect width="42.6667" height="22.3499" fill="white" transform="translate(10.6666 22.0752)"/>
</clipPath>
</defs>
</svg>
