<svg width="64" height="65" viewBox="0 0 64 65" fill="none" xmlns="http://www.w3.org/2000/svg">
<path d="M31.6372 16.7398C30.3321 16.7458 29.0857 16.8572 27.9891 17.0513C24.7584 17.6223 24.1719 18.8175 24.1719 21.0215V23.9324H31.8063V24.9027H24.1719H21.3067C19.088 24.9027 17.1451 26.2368 16.5374 28.7749C15.8365 31.6841 15.8054 33.4995 16.5374 36.5372C17.0801 38.7984 18.3761 40.4095 20.5949 40.4095H23.2198V36.92C23.2198 34.3991 25.4 32.1754 27.9891 32.1754H35.6146C37.7373 32.1754 39.4318 30.4269 39.4318 28.2942V21.0215C39.4318 18.9516 37.6864 17.3968 35.6146 17.0513C34.3031 16.8329 32.9423 16.7337 31.6372 16.7398ZM27.5086 19.0809C28.2972 19.0809 28.9412 19.7357 28.9412 20.5408C28.9412 21.3431 28.2972 21.9918 27.5086 21.9918C26.7172 21.9918 26.076 21.3431 26.076 20.5408C26.076 19.7357 26.7172 19.0809 27.5086 19.0809Z" fill="#202020"/>
<path d="M40.3863 24.9019V28.2934C40.3863 30.9229 38.158 33.136 35.617 33.136H27.9915C25.9028 33.136 24.1743 34.9244 24.1743 37.0171V44.2899C24.1743 46.3597 25.9734 47.5772 27.9915 48.171C30.4082 48.8819 32.7256 49.0104 35.617 48.171C37.539 47.6143 39.4343 46.4939 39.4343 44.2899V41.379H31.8087V40.4087H39.4343H43.2515C45.4702 40.4087 46.2971 38.8604 47.0687 36.5364C47.8657 34.144 47.8318 31.8432 47.0687 28.7741C46.5203 26.5644 45.4731 24.9019 43.2515 24.9019H40.3863ZM36.0975 43.3196C36.8889 43.3196 37.5301 43.9683 37.5301 44.7705C37.5301 45.5757 36.8889 46.2304 36.0975 46.2304C35.309 46.2304 34.665 45.5757 34.665 44.7705C34.665 43.9683 35.309 43.3196 36.0975 43.3196Z" fill="#202020"/>
</svg>
