<svg xmlns="http://www.w3.org/2000/svg" width="185" height="160" viewBox="0 0 185 160">
    <path fill="#000" fill-rule="nonzero" d="M.016 80.074c.227 3.812 2.755 7.02 6.415 8.114l67.774 20.49 2.49 46.717c.114 1.85 1.359 3.472 3.133 4.076.49.188 1.018.264 1.509.264 1.32 0 2.566-.529 3.472-1.547l23.962-26.529 33.962 23.51a8.91 8.91 0 0 0 5.132 1.622c4.264 0 7.963-3.019 8.868-7.245l28.189-143.66c.34-1.66-.302-3.397-1.585-4.453a4.583 4.583 0 0 0-4.68-.717L5.45 71.206C1.94 72.791-.21 76.263.016 80.074zM85.3 143.81l-1.547-29.472 17.359 12-15.812 17.472zm62.415 3.585l-61.811-42.792 86.68-83.85-24.869 126.642zm15.359-130.34L77.375 99.961 9.677 79.508l153.396-62.453z" opacity=".12"/>
</svg>
