<svg width="140" height="48" viewBox="0 0 140 48" fill="none" xmlns="http://www.w3.org/2000/svg">
<path fill-rule="evenodd" clip-rule="evenodd" d="M56.1558 27.9332C56.6985 28.8886 57.7322 29.3792 59.2569 29.3792C60.7816 29.3792 61.8153 28.8886 62.358 27.9332C62.9007 26.9779 63.1849 25.3512 63.1849 23.079C63.1849 20.8068 62.9007 19.1543 62.3321 18.1215C61.7636 17.0887 60.7299 16.5723 59.2569 16.5723C57.758 16.5723 56.7243 17.0887 56.1816 18.1215C55.6131 19.1543 55.3288 20.8068 55.3288 23.079C55.3288 25.3512 55.6131 26.9521 56.1558 27.9332ZM63.7018 31.987C63.6501 31.987 63.5984 31.9612 63.5467 31.9612C63.4175 31.9612 63.1591 32.0128 63.0816 32.0387C62.022 32.4518 60.7557 32.6842 59.231 32.6842C56.3367 32.6842 54.2951 31.9096 53.1064 30.3603C51.9176 28.8111 51.3232 26.3582 51.3232 23.0532C51.3232 19.7482 51.9176 17.2694 53.1064 15.6686C54.2951 14.0677 56.3367 13.2415 59.231 13.2415C62.1254 13.2415 64.167 14.0419 65.3557 15.6686C66.5445 17.2694 67.1388 19.7482 67.1388 23.0532C67.1388 25.4545 66.9063 27.1844 66.286 28.6562C66.2602 28.7078 66.2343 28.7595 66.2343 28.8111C66.1051 29.7923 67.4489 30.4894 67.7074 30.9284L68.0175 31.2124C68.3534 31.4964 68.3793 31.987 68.095 32.3227L66.8546 33.7428C66.5703 34.0785 66.0793 34.1043 65.7433 33.8203L63.7018 31.987Z" fill="#1C1C1C"/>
<path fill-rule="evenodd" clip-rule="evenodd" d="M77.8119 16.4174H77.7861C77.4243 16.4174 77.0884 16.6756 77.0108 17.0371L75.2535 25.3771H80.3187L78.5614 17.0371C78.5097 16.6756 78.1737 16.4174 77.8119 16.4174ZM80.4737 28.7079H75.1243C74.7884 28.7079 74.5041 28.9403 74.4524 29.2759L73.9614 31.5739C73.8839 31.9096 73.5996 32.142 73.2895 32.142H70.9637C70.5244 32.142 70.1884 31.7289 70.2918 31.2641L73.9873 14.5067C74.1423 13.7837 74.7884 13.2673 75.512 13.2673H80.1119C80.8355 13.2673 81.4816 13.7837 81.6366 14.5067L85.3321 31.2641C85.4355 31.7031 85.0995 32.142 84.6602 32.142H82.3344C81.9984 32.142 81.7142 31.9096 81.6625 31.5739L81.1715 29.2759C81.0939 28.9403 80.8097 28.7079 80.4737 28.7079Z" fill="#1C1C1C"/>
<path fill-rule="evenodd" clip-rule="evenodd" d="M96.4968 22.511C97.3754 22.511 98.0473 22.227 98.5125 21.6848C98.9776 21.1425 99.2102 20.3937 99.2102 19.49C99.2102 18.5605 98.9776 17.8375 98.4866 17.3211C97.9956 16.8047 97.3237 16.5207 96.4451 16.5207H92.9047V22.511H96.4968ZM89.0024 14.0419C89.0024 13.603 89.3642 13.2673 89.8036 13.2673H96.4451C100.942 13.2673 103.19 15.333 103.19 19.49C103.19 21.7364 102.415 23.4405 100.864 24.6025C100.58 24.809 100.477 25.1705 100.606 25.5062L102.725 31.1092C102.906 31.6256 102.544 32.1678 101.975 32.1678H99.4428C99.1069 32.1678 98.7967 31.9613 98.6934 31.6514L96.8327 26.3841C96.7293 26.0742 96.4192 25.8677 96.0833 25.8677H93.7058C93.2664 25.8677 92.9047 26.2291 92.9047 26.6423V31.3932C92.9047 31.8322 92.5429 32.1678 92.1035 32.1678H89.8036C89.3642 32.1678 89.0024 31.8063 89.0024 31.3932V14.0419Z" fill="#1C1C1C"/>
<path fill-rule="evenodd" clip-rule="evenodd" d="M110.813 16.9126V21.3279H116.757C117.196 21.3279 117.558 21.6894 117.558 22.1283V23.8066C117.558 24.2456 117.196 24.6071 116.757 24.6071H110.813V29.1256H118.437C118.876 29.1256 119.238 29.4871 119.238 29.9261V31.656C119.238 32.095 118.876 32.4564 118.437 32.4564H107.764C107.325 32.4564 106.963 32.095 106.963 31.656V14.3822C106.963 13.9433 107.325 13.5818 107.764 13.5818H118.437C118.876 13.5818 119.238 13.9433 119.238 14.3822V16.1122C119.238 16.5511 118.876 16.9126 118.437 16.9126H110.813Z" fill="#1C1C1C"/>
<path fill-rule="evenodd" clip-rule="evenodd" d="M128.697 16.7573H128.671C128.309 16.7573 127.973 17.0155 127.895 17.3769L126.138 25.7169H131.203L129.446 17.3769C129.394 17.0155 129.084 16.7573 128.697 16.7573ZM131.307 29.0477H126.061C125.699 29.0477 125.389 29.3059 125.311 29.6674L124.846 31.8622C124.768 32.2236 124.458 32.4818 124.097 32.4818H121.9C121.409 32.4818 121.047 32.0171 121.151 31.5265L124.846 14.8466C125.001 14.1236 125.647 13.6072 126.371 13.6072H130.997C131.72 13.6072 132.366 14.1236 132.521 14.8466L136.217 31.5265C136.32 32.0171 135.958 32.4818 135.467 32.4818H133.271C132.909 32.4818 132.599 32.2236 132.521 31.8622L132.056 29.6674C131.979 29.3059 131.668 29.0477 131.307 29.0477Z" fill="#1C1C1C"/>
<path fill-rule="evenodd" clip-rule="evenodd" d="M35.6773 33.7214C36.3233 31.191 36.3233 28.0409 36.3233 24.0129C36.3233 12.6003 36.22 7.33298 22.1617 7.33298C8.10337 7.33298 8 12.6261 8 24.0129C8 26.5175 8 28.738 8.15505 30.6487C8.72359 37.4653 11.1786 40.6929 22.1617 40.6929C25.2111 40.6929 27.6144 40.4346 29.5009 39.9441C30.6122 39.6342 30.974 38.2657 30.1728 37.4653L29.9661 37.2587C29.2683 36.5616 28.2605 35.8644 27.3302 36.1226C25.9605 36.51 24.2549 36.7165 22.1358 36.7165C18.001 36.7165 15.4426 35.9935 13.8404 34.3927C11.7471 32.2754 11.7471 29.5643 11.773 25.588C11.773 25.1748 11.773 24.7359 11.773 24.2969C11.773 23.858 11.773 23.419 11.773 23.0059C11.7213 18.9521 11.7213 15.8279 13.8145 13.6848C15.4168 12.0581 17.9752 11.3609 22.11 11.3609C26.2706 11.3609 28.829 12.0839 30.4313 13.7106C32.5503 15.8537 32.5503 19.0554 32.5245 23.0834C32.5245 23.4707 32.5245 23.8322 32.5245 24.2453C32.5245 24.6326 32.5245 25.0199 32.5245 25.4072C32.5245 27.8085 32.5503 29.8999 32.111 31.6557C31.9043 32.5336 32.1369 33.4373 32.7571 34.057L33.1964 34.496C33.9975 35.2964 35.393 34.8058 35.6773 33.7214Z" fill="#FF3333"/>
<path fill-rule="evenodd" clip-rule="evenodd" d="M21.7852 0C15.3504 0 7.41679 0.852071 3.04941 7.4879C0 12.1097 0 17.6353 0 23.9871C0 30.3389 0 35.8644 3.04941 40.5121C7.41679 47.1479 15.3504 48 21.7852 48C28.22 48 36.1795 47.1479 40.521 40.5121C43.5704 35.8644 43.5704 30.3647 43.5704 23.9871C43.5704 17.6095 43.5704 12.1097 40.521 7.46208C36.1795 0.852071 28.2458 0 21.7852 0ZM21.7852 3.89887C27.5739 3.89887 33.9312 4.5702 37.239 9.60517C39.6682 13.3027 39.6682 17.9968 39.6682 23.9871C39.6682 29.9774 39.6682 34.7025 37.239 38.369C33.9312 43.404 27.5739 44.0753 21.7852 44.0753C15.9965 44.0753 9.63925 43.404 6.33141 38.369C3.90222 34.7025 3.90222 29.9774 3.90222 23.9871C3.90222 17.9968 3.90222 13.2717 6.33141 9.60517C9.63925 4.5702 16.0223 3.89887 21.7852 3.89887Z" fill="#FF3333"/>
<path d="M15.762 24C15.7629 27.2056 16.1317 30.408 16.8684 31.1441C17.5993 31.8743 19.329 32.2151 22.1063 32.2151C24.9079 32.2151 26.6376 31.85 27.3928 31.1198C28.3185 30.2191 28.3185 28.0528 28.2942 25.0588V24H15.762Z" fill="#FFDF70"/>
<path d="M28.2942 24H15.762C15.761 20.7863 16.1299 17.809 16.8684 17.071C17.5993 16.3408 19.329 16 22.1063 16C24.908 16 26.6376 16.3651 27.3928 17.0953C28.2953 17.9971 28.2949 20.0554 28.2943 22.9321C28.2943 23.0063 28.2943 23.081 28.2943 23.1563L28.2942 24Z" fill="#3385FF"/>
</svg>
