<svg width="64" height="64" viewBox="0 0 64 64" fill="none" xmlns="http://www.w3.org/2000/svg">
<path fill-rule="evenodd" clip-rule="evenodd" d="M43.7179 26.2349L43.7179 26.2349C43.4989 26.1599 43.2746 26.083 43.038 26.0185C43.0755 25.8872 43.1037 25.7558 43.1318 25.6245L43.1318 25.6245C43.1599 25.4931 43.1881 25.3617 43.2256 25.2304C44.0888 20.9897 43.5259 17.5371 41.5744 16.4112C39.698 15.3229 36.6206 16.4487 33.5433 19.1508C33.2431 19.4135 32.9428 19.6762 32.6426 19.9764L32.6426 19.9764C32.4549 19.7887 32.2673 19.6011 32.0422 19.4135C28.8147 16.5238 25.5497 15.3229 23.5983 16.4487C21.7218 17.5371 21.1589 20.7645 21.947 24.78C22.0221 25.1929 22.0971 25.5682 22.2097 25.981C21.7594 26.0935 21.309 26.2437 20.8962 26.3938C17.1058 27.7073 14.6665 29.8089 14.6665 31.948C14.6665 34.1622 17.2935 36.4139 21.234 37.7649C21.3025 37.7877 21.3694 37.8105 21.4355 37.8331L21.4355 37.8331C21.6951 37.9216 21.9405 38.0053 22.2097 38.0651C22.1534 38.2715 22.1065 38.4873 22.0596 38.7031L22.0596 38.7031C22.0127 38.9189 21.9658 39.1347 21.9095 39.3411C21.1589 43.3191 21.7594 46.4339 23.5983 47.5223C25.5122 48.6481 28.7772 47.4847 31.9296 44.7452C32.0609 44.6326 32.1829 44.52 32.3048 44.4075C32.4268 44.2949 32.5488 44.1823 32.6801 44.0697C32.9803 44.3698 33.318 44.67 33.6556 44.9701L33.6556 44.9701L33.6559 44.9703C36.6957 47.5973 39.7355 48.6481 41.6119 47.5973C43.5259 46.4715 44.1638 43.0939 43.3382 39.0033C43.2632 38.7032 43.1882 38.3656 43.1131 38.0279L43.1131 38.0279L43.113 38.0276L43.7885 37.8024C47.9167 36.4514 50.5812 34.2372 50.5812 31.9855C50.5812 29.8464 48.0668 27.7448 44.2014 26.3938C44.0412 26.3457 43.881 26.2908 43.7179 26.2349ZM43.2259 36.3149C43.1321 36.3524 43.0289 36.3805 42.9257 36.4087C42.8225 36.4368 42.7193 36.465 42.6255 36.5025C42.1376 34.9263 41.4996 33.4252 40.8241 31.9616C41.4996 30.4979 42.1001 28.9968 42.5879 27.4581C42.9632 27.5707 43.3009 27.6833 43.6387 27.7959L43.6387 27.7959C46.9787 28.9217 49.0053 30.6481 49.0053 31.924C48.9678 33.3126 46.7911 35.1139 43.2259 36.3149ZM41.7623 39.2421C42.1001 40.8183 42.1751 42.3945 41.9499 43.9706C41.7248 45.134 41.312 45.8846 40.7866 46.1848C39.6607 46.8228 37.2214 45.9972 34.6319 43.7455C34.3317 43.4828 34.0314 43.2201 33.7312 42.9198C34.8195 41.7189 35.8328 40.443 36.7335 39.092C38.3847 38.9418 39.9985 38.7167 41.6122 38.3414C41.6122 38.6482 41.6741 38.893 41.7417 39.1603L41.7417 39.1603L41.7623 39.2421ZM26.826 46.1098C25.7377 46.485 24.837 46.5226 24.3116 46.2224C23.1857 45.5844 22.6979 43.0324 23.3358 39.6549C23.4109 39.2421 23.486 38.8668 23.5985 38.454C25.2123 38.7917 26.826 39.0169 28.4397 39.167C29.3779 40.518 30.4287 41.794 31.517 42.9949C31.4045 43.1075 31.2919 43.2107 31.1793 43.3139L31.1792 43.314C31.0667 43.4171 30.9541 43.5203 30.8415 43.6329C29.6781 44.6462 28.2896 45.5093 26.826 46.1098ZM21.6471 36.3149C20.1084 35.827 18.7199 35.0764 17.4439 34.1007C16.5432 33.3501 16.0929 32.562 16.0929 31.9616C16.0929 30.6481 18.0443 28.9968 21.3093 27.8334C21.7221 27.6833 22.1349 27.5707 22.5477 27.4582L22.5478 27.4581C23.0356 28.9968 23.5985 30.5355 24.3116 31.9991C23.6361 33.5002 23.0356 35.0389 22.5478 36.6151C22.4307 36.576 22.3181 36.537 22.21 36.4996C22.0064 36.4289 21.8187 36.3639 21.6471 36.3149ZM23.3734 24.4559C22.6979 21.0033 23.1482 18.4138 24.2741 17.7383C25.475 17.0252 28.1395 18.0385 30.9541 20.5154C31.1418 20.6655 31.3294 20.8531 31.4795 21.0033C30.3912 22.2042 29.3404 23.4801 28.4022 24.7936C26.7885 24.9437 25.1747 25.1689 23.5985 25.5442C23.5235 25.2065 23.4484 24.8312 23.3734 24.4559L23.3734 24.4559ZM38.8726 28.2838C38.5349 27.6834 38.1596 27.083 37.7844 26.4826L37.7843 26.4824C38.9477 26.6325 40.036 26.8202 41.0493 27.0453C40.7115 28.0961 40.3362 29.1469 39.8859 30.1227C39.5856 29.5222 39.2479 28.9217 38.8726 28.2838ZM32.5678 22.1291C33.3184 22.9547 34.0314 23.7804 34.6694 24.681C33.2433 24.606 31.8548 24.606 30.4287 24.681C31.1042 23.8179 31.8173 22.9547 32.5678 22.1291ZM26.188 28.3213C25.8503 28.9216 25.5126 29.5595 25.1749 30.1973L25.1747 30.1977C24.7619 29.1844 24.3491 28.1337 24.0489 27.0829C25.1372 26.8577 26.2255 26.67 27.3139 26.5199C26.8952 27.0922 26.5189 27.6942 26.188 28.3213ZM27.3139 37.4782C26.188 37.3656 25.0997 37.178 24.0114 36.9528C24.3491 35.8645 24.7244 34.8137 25.1747 33.7629C25.3436 34.0819 25.5125 34.3915 25.6814 34.7011C25.8503 35.0107 26.0191 35.3203 26.188 35.6393C26.5633 36.2773 26.9385 36.8777 27.3138 37.4781L27.3139 37.4782ZM32.6054 41.8315C31.8548 41.0059 31.1042 40.1427 30.4287 39.2421C31.1042 39.2796 31.8173 39.2796 32.5303 39.2796C33.2809 39.2796 33.9939 39.2796 34.707 39.2421C34.0314 40.1427 33.3559 41.0059 32.6054 41.8315ZM39.9234 33.7254C40.3737 34.7762 40.7866 35.827 41.1243 36.8778C39.9985 37.1405 38.9101 37.3281 37.7843 37.4407C38.1596 36.8402 38.5349 36.2398 38.8726 35.6018C39.2479 35.0014 39.5856 34.3634 39.9234 33.7255L39.9234 33.7254L39.9234 33.7254ZM37.5591 34.8512L37.5591 34.8513C36.9962 35.7895 36.4332 36.7277 35.8328 37.6283C34.782 37.7034 33.6562 37.7409 32.5303 37.7409C31.4045 37.7409 30.3161 37.7034 29.2653 37.6283C28.6274 36.7277 28.0645 35.7896 27.5016 34.8514L27.5015 34.8512C26.9386 33.913 26.4507 32.9373 25.9628 31.9616L25.9629 31.9615C26.4507 30.9858 26.9386 30.01 27.5015 29.0719C28.0644 28.1336 28.6274 27.1954 29.2278 26.2948C31.4045 26.1446 33.5811 26.1446 35.7953 26.2948C36.3957 27.1954 36.9962 28.1336 37.5216 29.0719C38.0845 30.0101 38.5724 30.9858 39.0603 31.9616C38.6099 32.9373 38.0845 33.913 37.5591 34.8512ZM40.7115 17.7008C41.9124 18.4138 42.4003 21.1909 41.6122 24.8687C41.5934 24.9812 41.5653 25.1032 41.5371 25.2251L41.5371 25.2252C41.509 25.3472 41.4808 25.4691 41.4621 25.5817C39.8859 25.2064 38.2722 24.9813 36.6584 24.8312C35.7202 23.5177 34.707 22.2417 33.6186 21.0408C33.8813 20.7781 34.1816 20.5154 34.4443 20.2902C37.1088 17.9635 39.5856 17.0628 40.7115 17.7008ZM32.6048 28.8326C34.3687 28.8326 35.8323 30.2587 35.8323 32.0601C35.8323 33.8239 34.4062 35.2875 32.6048 35.2875C30.841 35.2875 29.3774 33.8615 29.3774 32.0601C29.4149 30.2587 30.841 28.8326 32.6048 28.8326Z" fill="#333333"/>
</svg>
