<svg width="25" height="24" viewBox="0 0 25 24" fill="none" xmlns="http://www.w3.org/2000/svg">
<rect x="0.612305" width="24" height="24" fill="#346BF6"/>
<path d="M9.08993 6.5625C9.60737 6.5625 10.0797 6.60858 10.5069 6.69978C10.9341 6.79098 11.2989 6.94074 11.6032 7.14906C11.9075 7.35738 12.1437 7.63386 12.3117 7.97946C12.4797 8.32506 12.5632 8.7513 12.5632 9.25914C12.5632 9.8073 12.4384 10.2643 12.1898 10.63C11.9411 10.9958 11.5725 11.2953 11.0858 11.5286C11.7558 11.7215 12.256 12.0595 12.5862 12.5414C12.9165 13.0233 13.0816 13.6051 13.0816 14.2857C13.0816 14.8339 12.975 15.3091 12.7619 15.7103C12.5488 16.1116 12.2618 16.439 11.9008 16.6924C11.5398 16.9468 11.129 17.134 10.6672 17.2559C10.2026 17.3779 9.72353 17.4393 9.24353 17.4383H3.97217V6.5625H9.08993ZM8.78561 10.9641C9.21185 10.9641 9.56225 10.8623 9.83681 10.6598C10.1114 10.4563 10.2486 10.127 10.2477 9.67002C10.2477 9.41658 10.2016 9.20826 10.1104 9.04602C10.0192 8.88378 9.89729 8.7561 9.74465 8.6649C9.59201 8.5737 9.41729 8.51034 9.21953 8.47482C9.01601 8.4393 8.80961 8.42106 8.60225 8.42202H6.36449V10.966L8.78561 10.9641ZM8.92289 15.5788C9.14849 15.5798 9.37313 15.5567 9.59297 15.5107C9.80609 15.4646 9.99425 15.3887 10.1565 15.2822C10.3187 15.1756 10.4483 15.0307 10.5453 14.8483C10.6413 14.6659 10.6902 14.4316 10.6902 14.1475C10.6902 13.5897 10.5328 13.1903 10.2179 12.9523C9.90305 12.7132 9.48641 12.5942 8.96897 12.5942H6.36449V15.5798L8.92289 15.5788ZM16.0903 15.3503C16.4147 15.6652 16.8822 15.8227 17.4919 15.8227C17.9287 15.8227 18.304 15.7132 18.6189 15.4953C18.9338 15.2774 19.1267 15.046 19.1978 14.8022H21.1014C20.7971 15.7468 20.3296 16.4217 19.6999 16.8278C19.0701 17.2339 18.3088 17.4374 17.4151 17.4374C16.7959 17.4374 16.2371 17.3385 15.7399 17.1407C15.2426 16.943 14.8211 16.6607 14.4755 16.295C14.1299 15.9292 13.863 15.4934 13.6758 14.9855C13.4886 14.4777 13.3946 13.919 13.3946 13.3103C13.3946 12.7219 13.4906 12.1737 13.6835 11.6659C13.8765 11.158 14.151 10.7193 14.5063 10.3487C14.8615 9.97818 15.2858 9.68634 15.7782 9.47322C16.2707 9.2601 16.817 9.15354 17.416 9.15354C18.0861 9.15354 18.6698 9.28314 19.168 9.54234C19.6653 9.80154 20.0743 10.1491 20.3939 10.5859C20.7136 11.0227 20.945 11.5199 21.0871 12.0787C21.2291 12.6374 21.28 13.2211 21.2397 13.8307H15.5584C15.5882 14.5286 15.7658 15.0364 16.0903 15.3503ZM18.5354 11.2079C18.2762 10.9238 17.8826 10.7817 17.3546 10.7817C17.009 10.7817 16.7219 10.8403 16.4944 10.9564C16.2659 11.0735 16.0835 11.2175 15.9462 11.3903C15.809 11.5631 15.713 11.7455 15.6573 11.9385C15.6016 12.1315 15.568 12.3043 15.5584 12.4559H19.0768C18.9741 11.9087 18.7936 11.4921 18.5354 11.2079ZM15.1878 7.1145H19.5837V8.3337H15.1878V7.1145Z" fill="white"/>
</svg>
