<svg width="25" height="24" viewBox="0 0 25 24" fill="none" xmlns="http://www.w3.org/2000/svg">
<path d="M22.9214 24C23.6529 24 24.2459 23.4069 24.2459 22.6754V1.32457C24.2459 0.592862 23.6528 0 22.9214 0H1.57066C0.838956 0 0.246094 0.592952 0.246094 1.32457V22.6753C0.246094 23.4069 0.838956 23.9999 1.57066 23.9999H22.9214V24Z" fill="#485A96"/>
<path d="M16.8056 24V14.7059H19.9252L20.3923 11.0838H16.8055V8.77123C16.8055 7.72255 17.0967 7.00793 18.6006 7.00793L20.5186 7.00703V3.76746C20.1868 3.7234 19.0482 3.62476 17.7238 3.62476C14.9584 3.62476 13.0651 5.3127 13.0651 8.41262V11.0838H9.9375V14.7059H13.0651V23.9999H16.8056V24Z" fill="white"/>
</svg>
