<svg width="25" height="24" viewBox="0 0 25 24" fill="none" xmlns="http://www.w3.org/2000/svg">
<path d="M12.4291 0C5.69786 0 0.246094 5.45177 0.246094 12.183C0.246094 17.9085 4.17472 22.6604 9.47511 24C9.41393 23.8476 9.38387 23.634 9.38387 23.4214V21.3498H7.86073C7.03851 21.3498 6.27642 20.9848 5.94152 20.314C5.54544 19.583 5.48427 18.456 4.47956 17.755C4.17472 17.5114 4.41838 17.2677 4.75329 17.2978C5.39302 17.4803 5.91041 17.9075 6.39773 18.5462C6.88505 19.1859 7.09865 19.3383 8.01211 19.3383C8.43826 19.3383 9.10806 19.3082 9.71773 19.216C10.0526 18.3626 10.6312 17.6016 11.3321 17.2366C7.25106 16.7493 5.30178 14.7388 5.30178 11.9974C5.30178 10.8092 5.81917 9.68212 6.6725 8.70748C6.39877 7.76291 6.03276 5.81363 6.79485 5.05258C8.62282 5.05258 9.71877 6.24081 9.9925 6.54461C10.906 6.23977 11.9117 6.05729 12.9465 6.05729C14.0124 6.05729 14.987 6.23977 15.9005 6.54461C16.1742 6.23977 17.2712 5.05258 19.0981 5.05258C19.8291 5.78356 19.4942 7.76291 19.1894 8.70748C20.0427 9.65205 20.53 10.8092 20.53 11.9974C20.53 14.7388 18.6108 16.7493 14.5609 17.1754C15.6879 17.754 16.4801 19.3985 16.4801 20.6168V23.3914C16.4801 23.4826 16.45 23.5739 16.45 23.6651C21.2009 22.0206 24.6121 17.5135 24.6121 12.183C24.6121 5.45177 19.1603 0 12.4291 0Z" fill="black"/>
</svg>
