<svg width="22" height="24" viewBox="0 0 22 24" fill="none" xmlns="http://www.w3.org/2000/svg">
<g clip-path="url(#clip0)">
<path d="M16.5851 17.0081C15.3253 18.1213 13.6961 18.7255 12.0151 18.7029C8.14124 18.7029 5.29634 15.858 5.29634 11.9538C5.29634 8.04968 8.05044 5.32585 12.0151 5.32585C13.6999 5.30307 15.3353 5.89482 16.6154 6.99042L17.4628 7.71677L21.2156 3.96394L20.2774 3.08626C18.0075 1.05823 15.0588 -0.0434859 12.0151 -0.00075511C5.05422 -0.00075511 0 5.0232 0 11.9236C0 18.824 5.17528 23.9992 12.0151 23.9992C15.0876 24.0404 18.0616 22.9157 20.338 20.8517L21.2459 20.0043L17.4325 16.2514L16.5851 17.0081Z" fill="#17313B"/>
<path d="M11.8338 16.0102C14.0569 16.0102 15.859 14.208 15.859 11.9849C15.859 9.76187 14.0569 7.95972 11.8338 7.95972C9.61075 7.95972 7.80859 9.76187 7.80859 11.9849C7.80859 14.208 9.61075 16.0102 11.8338 16.0102Z" fill="#FF3D2E"/>
</g>
<defs>
<clipPath id="clip0">
<rect width="21.2459" height="24" fill="white"/>
</clipPath>
</defs>
</svg>
