<svg width="25" height="24" viewBox="0 0 25 24" fill="none" xmlns="http://www.w3.org/2000/svg">
<path d="M0.246094 1.71919C0.246094 0.77025 1.04053 0 2.01984 0H22.4723C23.452 0 24.2461 0.77025 24.2461 1.71919V22.2811C24.2461 23.2303 23.452 24 22.4723 24H2.01984C1.04063 24 0.246094 23.2304 0.246094 22.2814V1.71891V1.71919Z" fill="#006699"/>
<path d="M7.53939 20.0847V9.27985H3.94802V20.0847H7.53977H7.53939ZM5.74445 7.80488C6.99658 7.80488 7.77611 6.9752 7.77611 5.93832C7.75267 4.87782 6.99658 4.07129 5.76827 4.07129C4.53911 4.07129 3.73633 4.87782 3.73633 5.93823C3.73633 6.9751 4.51558 7.80479 5.72092 7.80479H5.74417L5.74445 7.80488ZM9.52726 20.0847H13.1184V14.0514C13.1184 13.7289 13.1418 13.4056 13.2367 13.1753C13.4962 12.5298 14.0871 11.8616 15.0794 11.8616C16.3786 11.8616 16.8986 12.8524 16.8986 14.305V20.0847H20.4896V13.8895C20.4896 10.5709 18.7181 9.02654 16.3554 9.02654C14.4182 9.02654 13.5674 10.1093 13.0947 10.8467H13.1186V9.28023H9.52745C9.57433 10.2939 9.52717 20.0851 9.52717 20.0851L9.52726 20.0847Z" fill="white"/>
</svg>
