<svg width="25" height="24" viewBox="0 0 25 24" fill="none" xmlns="http://www.w3.org/2000/svg">
<path d="M12.6127 0.797852C18.8002 0.797852 23.8064 5.80998 23.8064 11.9953C23.8064 18.1807 18.8002 23.2022 12.6127 23.2022C6.4252 23.2022 1.41895 18.1901 1.41895 12.0047C1.41895 5.81936 6.4252 0.797852 12.6127 0.797852Z" fill="#E74D89"/>
<path d="M12.6123 24C5.99356 24 0.612305 18.6218 0.612305 12.0047C0.612305 5.37818 5.99356 0 12.6123 0C19.2311 0 24.6123 5.37818 24.6123 11.9953C24.6123 18.6124 19.2311 24 12.6123 24ZM22.7279 13.6379C22.3811 13.5252 19.5592 12.6899 16.3436 13.1967C17.6842 16.876 18.2279 19.8795 18.3311 20.499C20.6373 18.9503 22.2779 16.4912 22.7279 13.6379ZM16.6154 21.447C16.4654 20.546 15.8654 17.411 14.4311 13.6754C14.4123 13.6848 14.3842 13.6942 14.3654 13.6942C8.58105 15.7122 6.50918 19.72 6.32168 20.0954C8.05606 21.447 10.2404 22.2542 12.6123 22.2542C14.0279 22.2636 15.3873 21.9726 16.6154 21.447ZM4.9998 18.8659C5.23418 18.4716 8.04668 13.8162 13.3342 12.0986C13.4654 12.0516 13.6061 12.0141 13.7373 11.9765C13.4842 11.3946 13.2029 10.8127 12.9029 10.2401C7.78418 11.77 2.81543 11.7043 2.36543 11.695C2.36543 11.7982 2.35605 11.9014 2.35605 12.0047C2.36543 14.6422 3.35918 17.045 4.9998 18.8659ZM2.58105 9.91162C3.04043 9.921 7.25918 9.93977 12.0592 8.66328C10.3623 5.64099 8.5248 3.10677 8.2623 2.74071C5.38418 4.0923 3.24668 6.73915 2.58105 9.91162ZM10.2123 2.04615C10.4936 2.42159 12.3592 4.95581 14.0373 8.0438C17.6842 6.67345 19.2217 4.60853 19.4092 4.34572C17.5998 2.74071 15.2186 1.76457 12.6123 1.76457C11.7873 1.76457 10.9811 1.86781 10.2123 2.04615ZM20.5436 5.52835C20.3279 5.81932 18.6123 8.02503 14.8248 9.57372C15.0592 10.0618 15.2936 10.5592 15.5092 11.0567C15.5842 11.235 15.6592 11.4134 15.7342 11.5823C19.1467 11.1506 22.5311 11.8451 22.8686 11.9108C22.8404 9.49863 21.9779 7.27415 20.5436 5.52835Z" fill="#B2215A"/>
</svg>
