<svg width="24" height="24" viewBox="0 0 24 24" fill="none" xmlns="http://www.w3.org/2000/svg">
<g clip-path="url(#clip0)">
<path d="M23.9372 9.20577C23.7792 8.7198 23.3482 8.37574 22.8402 8.32978L15.9121 7.7008L13.1741 1.29054C12.972 0.819585 12.512 0.515625 12 0.515625C11.4881 0.515625 11.0279 0.819585 10.827 1.29054L8.08902 7.7008L1.15982 8.32978C0.651881 8.37666 0.221759 8.72072 0.0628208 9.20577C-0.0952019 9.69174 0.0507355 10.2248 0.434897 10.5617L5.67198 15.1539L4.12783 21.9549C4.01485 22.455 4.20895 22.9721 4.62387 23.272C4.8469 23.434 5.10893 23.515 5.37187 23.515C5.59783 23.515 5.82396 23.4549 6.02593 23.3341L12 19.762L17.973 23.3341C18.4112 23.5959 18.9622 23.5719 19.3762 23.272C19.7911 22.9721 19.9852 22.455 19.8722 21.9549L18.3281 15.1539L23.5652 10.5617C23.9491 10.2248 24.0953 9.69284 23.9372 9.20577Z" fill="#FF3333"/>
</g>
<defs>
<clipPath id="clip0">
<rect width="24" height="24" fill="white"/>
</clipPath>
</defs>
</svg>
