<svg width="128" height="128" viewBox="0 0 128 128" fill="none" xmlns="http://www.w3.org/2000/svg">
<path d="M25.1364 42.5713C25.1364 47.3051 21.3003 51.1426 16.5683 51.1426C11.8362 51.1426 8.0001 47.3051 8.0001 42.5713C8.0001 37.8375 11.8362 34 16.5683 34C21.3003 34 25.1364 37.8375 25.1364 42.5713Z" fill="#3f3f3f"/>
<path fill-rule="evenodd" clip-rule="evenodd" d="M16.4227 56.2288C11.298 56.2028 7.75147 60.6383 8.01982 64.6151C7.70724 68.5076 11.1181 73.0713 16.3328 73.0851C21.0576 73.0973 24.8008 69.3423 24.7979 64.5921C24.7949 60.0087 21.0167 56.2534 16.4227 56.2288ZM16.2321 71.6896C12.4614 71.6654 9.34037 68.4742 9.35711 64.6608C9.37384 60.7208 12.5179 57.6046 16.4607 57.6228C20.2314 57.6396 23.4151 60.8415 23.3999 64.6013C23.3829 68.6177 20.2529 71.7141 16.2321 71.6896Z" fill="#3f3f3f"/>
<path fill-rule="evenodd" clip-rule="evenodd" d="M16.3875 76.9659C11.217 76.9537 7.73922 81.4426 8.01982 85.3857C8.01385 90.1114 11.6456 93.7947 16.3663 93.8467C20.9602 93.8984 24.7886 90.0653 24.7916 85.4084C24.7949 80.7347 21.0562 76.9782 16.3875 76.9659ZM23.3996 85.3582C23.3936 89.2752 20.2633 92.4345 16.3875 92.4345C12.4704 92.4345 9.3586 89.2875 9.35711 85.3277C9.35711 81.5281 12.5588 78.3414 16.36 78.3551C20.2266 78.3689 23.4056 81.5326 23.3996 85.3582Z" fill="#3f3f3f"/>
<path d="M29.7851 34.6122H40.5114V37.4184H32.9763V41.2575H39.3893V44.1461H36.1843L35.5066 44.1449C34.8004 44.1426 34.0937 44.1402 33.3881 44.1599C33.2387 44.1644 32.9671 44.3387 32.9641 44.4394C32.9351 45.6546 32.9444 46.8695 32.9444 48.1364H40.5055V50.9519H29.7836L29.7851 34.6122Z" fill="#3f3f3f"/>
<path d="M52.168 39.0094V50.9534H49.2774L49.2667 50.7358C49.2562 50.5157 49.2449 50.2775 49.2299 49.986C48.4538 50.6446 47.635 51.0389 46.6791 51.1292C44.2929 51.354 42.4162 49.928 42.285 47.5391C42.1864 45.729 42.1939 43.9142 42.2016 42.099C42.2049 41.3023 42.2082 40.5056 42.2025 39.7095C42.2016 39.569 42.2019 39.4288 42.2022 39.2796V39.2608L42.2025 39.0094H45.2094V39.6635C45.2094 41.8933 45.1942 44.1249 45.2124 46.3547C45.2246 47.8722 46.362 48.757 47.7573 48.375C48.5103 48.1687 48.9634 47.6689 49.1172 46.9156C49.1812 46.6008 49.1875 46.2722 49.189 45.9497C49.194 44.1868 49.1938 42.423 49.1935 40.6599V39.0124C50.2014 39.0094 51.1619 39.0094 52.168 39.0094Z" fill="#3f3f3f"/>
<path d="M63.2162 39.9173L60.9077 42.1821L60.8133 42.1124C60.7377 42.0559 60.6469 41.9884 60.5554 41.9238C59.9243 41.4793 59.2397 41.421 58.5535 41.742C57.7837 42.1011 57.4511 42.7797 57.4359 43.5943C57.4102 44.9285 57.4269 46.263 57.4269 47.5971V50.9534H54.4643V39.0169H57.3292V40.0243C59.2991 38.5631 61.2278 38.3401 63.2162 39.9173Z" fill="#3f3f3f"/>
<path fill-rule="evenodd" clip-rule="evenodd" d="M102.682 41.3875C104.169 41.4942 104.777 42.3136 104.478 43.8893C104.387 43.8893 104.296 43.8885 104.203 43.8876C103.984 43.8858 103.76 43.8837 103.536 43.8923C103.227 43.9037 102.917 43.9073 102.606 43.9106C101.868 43.9192 101.13 43.9276 100.407 44.0406C98.7102 44.3064 97.69 45.5643 97.6275 47.2486C97.5621 49.0644 98.4783 50.4993 100.098 50.9121C101.616 51.2987 103.123 51.3262 104.413 50.1905C104.443 50.1642 104.488 50.1552 104.538 50.1456C104.563 50.1409 104.589 50.1355 104.615 50.128L104.634 50.4535L104.663 50.9609H107.535C107.535 50.5591 107.536 50.1579 107.538 49.7573L107.544 48.4414V48.439C107.555 46.4925 107.565 44.5605 107.518 42.6299C107.473 40.7561 106.41 39.5654 104.586 39.0964C103.273 38.7586 101.945 38.7541 100.622 39.0001C99.6187 39.1867 98.7924 39.7 98.2145 40.3923L99.6557 41.9405L99.6641 41.9495L100.043 42.3564C100.743 41.4867 101.671 41.3154 102.682 41.3875ZM102.843 48.7206C103.996 48.5878 104.625 47.6934 104.553 46.1787C104.551 46.1455 104.545 46.1123 104.533 46.0504C104.526 46.0098 104.515 45.9562 104.503 45.8821C104.201 45.8968 103.9 45.9069 103.602 45.9168H103.591C103.252 45.9278 102.915 45.9389 102.58 45.9568C102.45 45.964 102.32 45.9721 102.19 45.9817C102.042 45.9927 101.893 46.0059 101.745 46.0214C101.659 46.0307 101.572 46.0408 101.485 46.0519C100.826 46.1374 100.495 46.6755 100.503 47.3266C100.511 47.9654 100.881 48.4255 101.523 48.595C101.92 48.6993 102.283 48.7457 102.609 48.737C102.635 48.7364 102.661 48.7352 102.687 48.7337C102.74 48.731 102.792 48.7266 102.843 48.7206Z" fill="#3f3f3f"/>
<path fill-rule="evenodd" clip-rule="evenodd" d="M78.1782 55.3822V50.0607C79.4226 50.9486 79.7184 51.0694 80.8056 51.1489C83.0071 51.3109 84.6447 50.1125 85.0197 47.9376C85.3691 45.9189 85.3795 43.8738 84.9725 41.8595C84.8491 41.2497 84.5518 40.6153 84.163 40.1295C82.9432 38.601 80.1329 38.3963 78.5625 39.6494C78.4651 39.7275 78.3671 39.8046 78.238 39.9059L78.0701 40.0378V39.0258H75.2189V55.3822H78.1782ZM79.0207 41.8846C78.7069 42.1163 78.4908 42.4703 78.3794 42.954C78.3558 43.055 78.3351 43.1569 78.3169 43.2589L78.299 43.3629L78.2939 43.3949L78.2816 43.4729C78.2413 43.7411 78.2141 44.005 78.189 44.2505L78.1881 44.2612C78.1714 44.4265 78.1555 44.5823 78.137 44.7252L78.1436 44.8235L78.1708 45.2636L78.1714 45.2729C78.195 45.6615 78.2159 46.002 78.244 46.3383L78.25 46.4109C78.2682 46.619 78.3154 46.8253 78.3671 47.0271C78.6113 47.9684 79.2149 48.4438 80.1679 48.45C81.0641 48.4566 81.6471 48.1194 81.9325 47.3637C81.9701 47.2641 82.0024 47.1577 82.0299 47.0438C82.353 45.6926 82.3392 44.3246 82.0404 42.9737C81.8285 42.0171 81.2063 41.5585 80.2459 41.5492C80.0743 41.5474 79.9136 41.5591 79.7636 41.5845C79.5914 41.6135 79.4336 41.6607 79.2905 41.7262C79.2128 41.7618 79.1399 41.8027 79.0709 41.8494C79.0538 41.8607 79.0371 41.8724 79.0207 41.8846Z" fill="#3f3f3f"/>
<path d="M112.571 39.0124H109.706V50.9564H112.652L112.651 48.5104C112.651 46.9302 112.65 45.35 112.655 43.7704C112.658 43.084 112.803 42.4314 113.381 41.9836C114.061 41.4533 114.826 41.4042 115.587 41.7606C116.341 42.1136 116.633 42.7952 116.638 43.5883C116.648 45.2301 116.647 46.8725 116.645 48.5155L116.644 50.9597H119.638L119.639 48.1248C119.639 47.6477 119.638 47.1723 119.637 46.697C119.636 46.5413 119.636 46.3852 119.637 46.2292L119.639 45.9521L119.641 45.6767L119.642 45.5386C119.646 44.9996 119.65 44.4609 119.643 43.9228C119.636 43.4753 119.622 43.0284 119.593 42.5827C119.439 40.2321 117.822 38.8124 115.468 38.8489C114.401 38.8659 113.486 39.2677 112.639 40.0028L112.613 39.6336L112.571 39.0124Z" fill="#3f3f3f"/>
<path fill-rule="evenodd" clip-rule="evenodd" d="M90.6369 48.3032C89.6962 47.8904 89.3394 47.0253 89.3334 45.9051C91.8672 45.9051 94.3299 45.9051 96.9507 45.9036C96.9396 45.8107 96.9295 45.718 96.9199 45.6259C96.9074 45.5078 96.8957 45.3906 96.8849 45.2738L96.8637 45.0415L96.8413 44.7823C96.7729 43.9937 96.7068 43.2335 96.524 42.5014C95.9765 40.3161 94.2077 38.9511 92.0229 38.8563C89.4918 38.7463 87.6713 39.8423 86.8603 42.0736C86.1389 44.0574 86.1649 46.0869 86.8647 48.0707C87.3695 49.5014 88.3909 50.4855 89.8836 50.8601C90.5957 51.0389 91.3461 51.1274 92.0809 51.1411C93.7977 51.1734 95.2736 50.5788 96.3515 49.3759L95.603 48.543L95.5931 48.5322L94.6697 47.5054C93.4606 48.6515 92.1006 48.9451 90.6369 48.3032ZM93.7182 42.8661C93.7544 42.9815 93.7825 43.1019 93.8019 43.2266C93.8312 43.4152 93.8404 43.6137 93.8279 43.82L93.8252 43.8586H89.3669C89.3648 43.8143 89.3639 43.7704 89.3639 43.7267C89.3636 43.6786 89.3645 43.6311 89.3663 43.5841C89.3776 43.3079 89.4255 43.0505 89.5055 42.8158C89.8148 41.9071 90.607 41.3385 91.6431 41.3474C92.652 41.3567 93.4349 41.9618 93.7182 42.8661Z" fill="#3f3f3f"/>
<path fill-rule="evenodd" clip-rule="evenodd" d="M63.2605 44.8185L63.276 44.6089L63.2927 44.353C63.305 44.1608 63.3184 43.9536 63.3355 43.7393C63.3426 43.6508 63.3504 43.5608 63.3591 43.4702C63.3749 43.3025 63.394 43.1324 63.4176 42.9629C63.7284 40.7071 65.3508 39.1269 67.6106 38.8838C68.7234 38.7646 69.8106 38.8746 70.8308 39.3974C72.1131 40.0545 72.9334 41.0802 73.2275 42.4876C73.5553 44.0511 73.5523 45.6361 73.2884 47.2043C72.8722 49.6724 70.7773 51.2942 68.2662 51.1626C65.2653 51.0051 63.5883 49.3821 63.3352 46.3834C63.3104 46.0854 63.299 45.7873 63.2859 45.4355C63.2787 45.2477 63.2709 45.0448 63.2605 44.8185ZM70.5182 44.9652L70.5138 44.9318L70.4958 44.7862C70.4779 44.6334 70.4618 44.4807 70.4459 44.3276L70.4441 44.3097C70.416 44.0391 70.3879 43.7686 70.3473 43.5019C70.3348 43.4188 70.321 43.3363 70.3058 43.2538C70.2974 43.2087 70.2887 43.1635 70.2795 43.1187C70.2666 43.0559 70.2526 42.9934 70.2376 42.9312C70.0165 42.0416 69.2802 41.5388 68.3774 41.5358C68.0155 41.5352 67.6862 41.6084 67.4056 41.7519C67.3862 41.7618 67.3667 41.7722 67.3476 41.783C67.3282 41.7938 67.3091 41.8048 67.2899 41.8165C67.2511 41.8401 67.2134 41.8652 67.177 41.8918C67.1558 41.9074 67.1348 41.9232 67.1142 41.9396C67.0156 42.0186 66.926 42.1088 66.8462 42.2102C66.6932 42.4045 66.5763 42.6398 66.5034 42.9142C66.1421 44.2804 66.1484 45.6714 66.4882 47.039C66.7216 47.9744 67.4367 48.4635 68.3819 48.4527C69.0315 48.4455 69.5626 48.2133 69.9032 47.7696C70.064 47.561 70.1823 47.306 70.2514 47.0058C70.3545 46.5556 70.3999 46.092 70.4459 45.6247L70.4495 45.6032C70.4707 45.3909 70.4916 45.1778 70.5182 44.9652Z" fill="#3f3f3f"/>
<path d="M68.5328 57.7499C68.5343 57.8231 68.5573 57.8948 68.5833 58.0386L69.1684 58.0392H69.9191L70.1629 58.0389L70.3458 58.0383L70.673 58.0368C70.887 58.0357 71.1007 58.0336 71.314 58.0303L71.5337 58.0264C71.6159 58.0249 71.7653 57.8706 71.7668 57.7833C71.785 57.0115 71.7775 56.2399 71.7775 55.471H68.5313L68.531 57.0106L68.5328 57.7499Z" fill="#3f3f3f"/>
<path fill-rule="evenodd" clip-rule="evenodd" d="M29.7806 73.0851V55.6193C29.8009 55.6055 29.8156 55.5942 29.8266 55.5855L29.8284 55.5837C29.8365 55.5783 29.8422 55.5736 29.8475 55.5706L29.8547 55.5673L29.8613 55.5658C30.6921 55.57 31.524 55.5583 32.356 55.5469C34.2461 55.5206 36.1359 55.4946 38.0111 55.6528C40.9262 55.8973 42.6051 58.3014 42.1628 61.1366C41.9632 62.4203 41.2525 63.3694 40.2858 63.9778C40.4227 64.132 40.5682 64.2815 40.7158 64.4292L40.8593 64.5723C40.9642 64.6767 41.0688 64.781 41.171 64.8862L41.2585 64.9774L41.3464 65.0719C41.4136 65.1451 41.4794 65.2196 41.5424 65.2952C41.7053 65.4907 41.8511 65.6952 41.9662 65.9155C43.6097 69.061 41.5834 72.6863 37.9988 73.0193C36.9613 73.1153 35.9139 73.1027 34.8668 73.0898C34.4275 73.0848 33.9882 73.0794 33.5498 73.0821C32.6712 73.0886 31.7927 73.0875 30.8911 73.086L29.7806 73.0851ZM33.222 65.7445V70.0009C33.6353 70.0009 34.0444 70.0056 34.4499 70.0104C35.3817 70.0212 36.2958 70.032 37.206 69.9841C38.3022 69.9276 39.034 69.0212 39.054 67.8825C39.0737 66.7609 38.3311 65.8177 37.2395 65.7598C36.3272 65.7122 35.4127 65.7233 34.4893 65.7343H34.4597C34.0492 65.7394 33.6365 65.7445 33.222 65.7445ZM33.2127 58.6485V62.5425C33.6335 62.5425 34.0506 62.5503 34.4645 62.5584C35.0132 62.5688 35.5565 62.579 36.0962 62.5706C36.4927 62.5646 36.8875 62.5485 37.2807 62.515C38.075 62.4472 38.592 61.8705 38.7492 61.1133C38.7869 60.9327 38.8039 60.7417 38.7997 60.545C38.7782 59.5824 38.1623 58.7385 37.2168 58.6715C36.9183 58.6506 36.6188 58.638 36.3185 58.6311C35.7208 58.6159 35.1193 58.6258 34.512 58.6356H34.4305C34.1125 58.6407 33.7931 58.6458 33.4721 58.6476L33.2127 58.6485Z" fill="#3f3f3f"/>
<path d="M119.58 61.5127L118.943 62.1285C118.471 62.5844 118.011 63.028 117.533 63.4887C116.785 62.9171 115.807 62.7335 114.784 62.7335C114.482 62.7335 114.171 62.7551 113.88 62.8268C113.168 63.0026 112.801 63.4552 112.833 64.0588C112.864 64.6166 113.282 64.9756 114.029 65.0599C114.421 65.1042 114.813 65.1427 115.206 65.1813C115.532 65.2136 115.859 65.2459 116.186 65.2814C116.45 65.3104 116.716 65.3457 116.976 65.3992C118.676 65.7523 119.733 66.7884 119.945 68.2984C120.209 70.1844 119.524 71.6669 117.963 72.483C117.894 72.5189 117.825 72.5535 117.755 72.5873C117.678 72.6241 117.6 72.6597 117.522 72.6937C117.308 72.7861 117.089 72.8668 116.867 72.9299C116.753 72.9622 116.639 72.9897 116.525 73.0118C114.569 73.3939 112.619 73.4016 110.762 72.57C110.571 72.4848 110.387 72.3819 110.208 72.2692C110.089 72.1948 109.972 72.1165 109.855 72.0358C109.769 71.9766 109.684 71.9165 109.598 71.8558C109.424 71.7335 109.249 71.6101 109.068 71.4926L111.256 69.391C112.368 70.3985 113.783 70.6155 115.29 70.4427C115.586 70.4089 115.887 70.3127 116.159 70.1859C116.645 69.9581 116.938 69.5791 116.868 69.0045C116.798 68.4221 116.404 68.1349 115.88 68.0523C115.4 67.9773 114.917 67.9292 114.433 67.8811C114.197 67.8577 113.961 67.8344 113.725 67.8078L113.609 67.7947C113.502 67.7827 113.395 67.7707 113.288 67.7579C113.095 67.7349 112.901 67.7089 112.708 67.6748C110.106 67.2147 108.912 64.6136 110.229 62.295C110.778 61.3306 111.62 60.7148 112.652 60.4182C114.659 59.8422 116.642 59.9689 118.551 60.8463C118.917 61.0128 119.239 61.2879 119.58 61.5127Z" fill="#3f3f3f"/>
<path d="M77.3412 73.0683H74.1849V60.29H77.2297L77.2803 61.3384C77.5011 61.1719 77.6553 61.0526 77.8107 60.9378C79.7166 59.5363 82.5678 59.8529 83.8913 61.7127C84.3333 62.3348 84.6979 63.1631 84.7206 63.909C84.7338 64.3425 84.7442 64.7762 84.7523 65.21C84.7577 65.5095 84.7619 65.8091 84.7651 66.1086C84.7813 67.5794 84.7741 69.0538 84.7669 70.5363V70.5434C84.763 71.3721 84.7589 72.2032 84.7589 73.0378H81.6074L81.6086 70.4804C81.6104 68.7561 81.6121 67.0318 81.6011 65.3075C81.5936 64.12 81.1194 63.3864 80.2336 63.1007C78.663 62.5916 77.3532 63.5819 77.3427 65.3104C77.3403 65.7152 77.3385 66.12 77.3373 66.5247C77.3364 66.9188 77.3358 67.3128 77.3358 67.7068L77.3379 70.2367C77.3388 70.9575 77.3397 71.6782 77.3397 72.399C77.3412 72.6053 77.3412 72.81 77.3412 73.0683Z" fill="#3f3f3f"/>
<path d="M47.5316 60.267H44.3921C44.3876 60.3333 44.3822 60.3916 44.3774 60.4448L44.3765 60.4574C44.3703 60.5264 44.3649 60.5877 44.3631 60.649C44.3616 63.3556 44.3508 66.0626 44.3754 68.7692C44.3813 69.2948 44.4668 69.8391 44.6192 70.3435C45.467 73.1541 49.0425 74.1918 51.4425 72.3425C51.5157 72.286 51.5898 72.2307 51.6821 72.1622L51.9182 71.9864V73.0501H54.998V60.2777H51.8692C51.8653 60.3408 51.8608 60.4006 51.8564 60.4586C51.8471 60.58 51.8387 60.6921 51.8387 60.8051C51.8372 63.0546 51.842 65.303 51.8357 67.5525C51.8342 67.9133 51.819 68.2787 51.7625 68.6332C51.5979 69.6693 50.8433 70.3112 49.7911 70.3387C48.666 70.3695 47.8881 69.8131 47.6566 68.7677C47.5789 68.4177 47.5696 68.0494 47.5681 67.6885C47.5642 66.4865 47.5636 65.285 47.5633 64.0833L47.5621 60.8263C47.5621 60.6992 47.5529 60.5713 47.5433 60.4377L47.5316 60.267Z" fill="#3f3f3f"/>
<path d="M98.117 71.4146L100.221 69.3453C101.177 70.2454 102.392 70.5434 103.699 70.4855C104.184 70.4642 104.679 70.3539 105.137 70.1919C105.643 70.0116 105.933 69.5991 105.873 69.032C105.811 68.4329 105.413 68.1226 104.855 68.0416C104.361 67.9707 103.865 67.9211 103.368 67.8715C103.126 67.8476 102.885 67.8237 102.644 67.7971C102.506 67.7818 102.367 67.7663 102.229 67.7486L102.119 67.7343C102.03 67.7223 101.941 67.7092 101.852 67.6948C100.122 67.4075 99.1172 66.5379 98.8396 65.0934C98.5028 63.3329 99.1492 61.7877 100.596 60.9043C102.119 59.9767 103.781 59.9919 105.465 60.2075C106.616 60.354 107.679 60.727 108.577 61.5707L106.511 63.4627C105.657 62.8331 104.51 62.6785 103.312 62.7536C103.143 62.7643 102.972 62.7978 102.81 62.8483C102.141 63.0576 101.796 63.5087 101.854 64.0863C101.909 64.6426 102.303 64.9834 103.008 65.0614C103.708 65.1394 104.41 65.1989 105.109 65.2722C105.373 65.2997 105.638 65.335 105.899 65.384C107.583 65.7003 108.65 66.6814 108.927 68.1579C109.263 69.9551 108.6 71.4744 107.148 72.3975C105.305 73.5682 100.552 73.6569 98.5835 71.8397C98.4341 71.7007 98.2802 71.5628 98.117 71.4146Z" fill="#3f3f3f"/>
<path d="M56.2134 71.4331C56.9177 70.7147 57.5811 70.0376 58.2747 69.3315C59.4503 70.3817 60.8531 70.6322 62.364 70.4442C62.387 70.4415 62.41 70.4382 62.4327 70.4346C62.4635 70.4301 62.4942 70.4248 62.525 70.4191C62.5959 70.4056 62.6664 70.3892 62.7363 70.3701C62.8708 70.3336 63.0029 70.2876 63.1296 70.2349C63.744 69.9796 64.0246 69.5471 63.9588 69.0167C63.8919 68.4789 63.5169 68.1196 62.8612 68.0326C62.6293 68.0015 62.3968 67.9749 62.164 67.9501C61.9593 67.9283 61.7543 67.9083 61.5493 67.8882C61.2299 67.8568 60.9107 67.8255 60.5925 67.7881C60.4825 67.7755 60.3725 67.7621 60.2629 67.7468C60.1648 67.7334 60.0671 67.7184 59.9697 67.7017C59.8206 67.676 59.6724 67.6458 59.5265 67.609C56.808 66.9229 55.884 63.6737 57.8112 61.6104C58.4442 60.9333 59.2262 60.4992 60.109 60.3007C61.8168 59.9169 63.5184 60.0072 65.159 60.6353C65.3278 60.6998 65.4907 60.7797 65.6517 60.8684C65.8382 60.9713 66.0223 61.0861 66.2102 61.2036L66.212 61.2053C66.3773 61.3079 66.5449 61.4125 66.7201 61.5127C65.9745 62.2233 65.3188 62.8483 64.6375 63.4994C63.7165 62.8101 62.5591 62.6681 61.3608 62.7658C61.0512 62.7903 60.7326 62.9126 60.452 63.0576C60.0145 63.2854 59.8759 63.6982 59.9458 64.1736C60.013 64.6229 60.3041 64.9039 60.7326 64.9682L60.9523 64.9998L61.1561 65.0276C61.4083 65.0611 61.6608 65.0916 61.9133 65.1209C62.1219 65.1451 62.3308 65.1681 62.5397 65.1912L62.9664 65.239C63.1078 65.2548 63.2491 65.271 63.3902 65.2877C64.575 65.4297 65.6789 65.766 66.4182 66.7824C67.6611 68.4894 67.1638 71.0373 65.4455 72.263C63.5838 73.5912 58.5918 73.7134 56.5504 71.7464C56.4984 71.6965 56.4462 71.6477 56.3933 71.5987L56.2134 71.4331Z" fill="#3f3f3f"/>
<path d="M71.7258 73.0594H68.6093V60.2855H71.7258V73.0594Z" fill="#3f3f3f"/>
<path fill-rule="evenodd" clip-rule="evenodd" d="M89.5695 67.6733C89.6107 68.8457 89.9813 69.7979 91.0439 70.2379C92.5991 70.8827 94.0233 70.559 95.3041 69.3211L97.0406 71.3963C95.7661 72.8178 93.9561 73.3344 91.8977 73.2289C90.1642 73.1389 88.641 72.6145 87.5828 71.1566C86.796 70.0744 86.5217 68.809 86.4455 67.496C86.3448 65.7783 86.4912 64.1 87.3922 62.5793C88.5328 60.6568 90.7299 59.7429 93.1205 60.1737C95.4063 60.585 97.0377 62.2233 97.4279 64.6181C97.5361 65.2779 97.5648 65.9526 97.595 66.6617V66.6697C97.609 66.9962 97.6234 67.3301 97.6461 67.6733H89.5695ZM94.3906 65.4375C94.4686 63.8083 93.4286 62.7138 91.884 62.7599C91.2681 62.7781 90.7266 63.0217 90.327 63.4127C89.8232 63.9054 89.5453 64.6318 89.6305 65.4375H94.3906Z" fill="#3f3f3f"/>
<path d="M114.44 77.701V76.8565H110.206V77.701H111.805V81.5269H112.841V77.701H114.44Z" fill="#3f3f3f"/>
<path d="M118.635 78.5713H118.648V81.5269H119.646V76.8565H118.571L117.292 79.6077H117.279L115.988 76.8565H114.952V81.5269H115.924V78.5713H115.937L116.819 80.4265H117.753L118.635 78.5713Z" fill="#3f3f3f"/>
<path d="M54.2736 86.2398L53.9918 87.006C53.7148 87.7599 53.4554 88.4648 53.1987 89.1697C52.6835 90.5819 52.1621 91.9923 51.6633 93.4123C51.5507 93.7334 51.395 93.8679 51.0489 93.8524C50.7644 93.8407 50.4793 93.8428 50.1942 93.8449C49.8509 93.8473 49.5075 93.85 49.166 93.8282C48.9953 93.8174 48.7374 93.6491 48.6872 93.4963C48.233 92.1583 47.7812 90.819 47.3311 89.4791C46.9408 88.3177 46.5521 87.1557 46.1636 85.9934C45.7324 84.7026 45.3017 83.4115 44.8714 82.1203L44.8006 81.9069C44.7839 81.8564 44.7991 81.7954 44.7991 81.6638L45.5247 81.6626H45.5507C45.9678 81.6615 46.3844 81.6603 46.8007 81.6626L47.101 81.665C47.248 81.6665 47.3951 81.6689 47.5421 81.6719C47.7029 81.6749 47.8633 81.6788 48.0238 81.6839C48.094 81.6857 48.1798 81.7924 48.2467 81.9144C48.2871 81.9885 48.3206 82.068 48.3397 82.1332C48.7216 83.4393 49.0978 84.7471 49.4732 86.055L50.2531 88.7754C50.2606 88.8008 50.269 88.8256 50.2803 88.8576L50.309 88.9365L50.3735 89.1162L50.7196 88.168C50.8209 87.8896 50.9168 87.6254 51.0125 87.3602L51.5037 85.9985C51.7999 85.1788 52.096 84.3591 52.3886 83.5382L52.6294 82.8593L52.8802 82.1454C52.9274 82.0103 52.9779 81.9009 53.0451 81.8193C53.078 81.7795 53.1147 81.7464 53.1572 81.7203C53.217 81.6833 53.2881 81.66 53.3747 81.6513C53.4294 81.6456 53.4904 81.6456 53.5588 81.6516C53.6075 81.6561 53.6571 81.6588 53.7073 81.66C53.7701 81.6618 53.8337 81.6615 53.8983 81.6597C54.0121 81.6567 54.1281 81.6495 54.2434 81.642L54.2671 81.6402C54.3935 81.6322 54.5196 81.6241 54.6412 81.6211C54.949 81.6136 55.2323 81.6393 55.4403 81.7816C55.7385 81.9849 55.8595 82.4513 55.9797 82.9155C56.0305 83.111 56.081 83.3062 56.1446 83.4811C56.7605 85.1821 57.3719 86.8849 57.9863 88.5859C58.0052 88.6379 58.0264 88.6887 58.0515 88.7458C58.0769 88.8035 58.1062 88.8678 58.1414 88.9458L58.2182 89.1207L58.6139 87.7411C58.8168 87.035 59.0113 86.3573 59.2047 85.679L59.5983 84.3044L59.7925 83.6228L59.9225 83.1601L60.0803 82.5909L60.1314 82.4043L60.2127 82.1042C60.2267 82.0528 60.2416 82.0058 60.2587 81.9637L60.2706 81.9356C60.2772 81.9206 60.2841 81.9063 60.2912 81.8925C60.2999 81.8758 60.3089 81.86 60.3184 81.8453C60.4102 81.7051 60.5494 81.6459 60.7951 81.6531C61.4884 81.674 62.1826 81.6707 62.9072 81.6668C63.1944 81.6653 63.4864 81.6638 63.7849 81.6638C63.7718 81.7159 63.7604 81.7661 63.7496 81.813L63.747 81.8238L63.7434 81.8378L63.7416 81.8441L63.7362 81.8683C63.7204 81.9374 63.7051 82.0025 63.689 82.0656C63.6746 82.1212 63.6594 82.1747 63.6418 82.228C63.3026 83.2512 62.9625 84.2742 62.6224 85.2972C61.7439 87.9417 60.8653 90.5861 60.0023 93.2351C59.8436 93.7211 59.6225 93.9029 59.1162 93.8557C58.8799 93.8335 58.6232 93.8485 58.3688 93.8634C57.8973 93.8909 57.4347 93.9178 57.1266 93.7074C56.8056 93.488 56.6721 92.989 56.5397 92.4946C56.4856 92.2931 56.4318 92.0925 56.3658 91.9116C55.7514 90.2319 55.1444 88.5476 54.533 86.8664C54.4673 86.6954 54.3926 86.5285 54.2736 86.2398Z" fill="#3f3f3f"/>
<path fill-rule="evenodd" clip-rule="evenodd" d="M29.7576 93.8371L30.0206 93.1603L30.0427 93.1038C30.245 92.5825 30.4374 92.088 30.6329 91.595C32.4638 86.9764 34.3029 82.3595 36.1171 77.7345C36.1885 77.5537 36.2671 77.4227 36.3681 77.3336C36.3821 77.3214 36.3965 77.31 36.4111 77.2993L36.4321 77.2849C36.4494 77.2736 36.4673 77.2631 36.4858 77.2538L36.5026 77.2458L36.5235 77.2362C36.5674 77.2177 36.6152 77.2039 36.6672 77.1946C36.7046 77.1878 36.7443 77.1833 36.7865 77.1809C36.8373 77.1782 36.8914 77.1785 36.9496 77.1815C37.1346 77.1917 37.3199 77.1973 37.5055 77.2C37.6283 77.2018 37.7511 77.2024 37.8742 77.2021C38.2899 77.2015 38.7086 77.1919 39.1332 77.1919L45.7551 93.8341L44.9554 93.8353C44.035 93.8371 43.154 93.8389 42.274 93.8174C42.2121 93.8159 42.1386 93.7624 42.0737 93.6906C42.0107 93.6207 41.9557 93.5337 41.9279 93.4613C41.7558 93.021 41.5905 92.5774 41.4318 92.1313C41.329 91.842 41.2292 91.5514 41.1321 91.2605C41.093 91.1427 41.0446 91.0572 40.9797 90.9978C40.9349 90.9568 40.8823 90.9281 40.8192 90.9099C40.7568 90.8919 40.6839 90.8842 40.5984 90.8845C38.7136 90.8952 36.8307 90.8967 34.9463 90.88C34.6122 90.877 34.4843 91.016 34.3835 91.3033C34.1349 92.0231 33.8666 92.7352 33.5815 93.4413C33.5205 93.5926 33.3636 93.8144 33.2462 93.8174C32.3622 93.8422 31.4774 93.8404 30.551 93.8383L29.7576 93.8371ZM37.8889 82.2752H37.7577L35.5532 88.1213H40.0342C39.6116 86.9674 39.196 85.8341 38.7833 84.7095L37.8889 82.2752Z" fill="#3f3f3f"/>
<path fill-rule="evenodd" clip-rule="evenodd" d="M94.4348 77.2257H97.707V93.7944H94.502V92.8485C94.4734 92.8542 94.4477 92.8578 94.4249 92.8605L94.3813 92.8665C94.3472 92.8712 94.3213 92.8772 94.3024 92.8928C92.6648 94.2637 90.8458 94.2254 88.9841 93.5149C87.5951 92.9845 86.883 91.8184 86.7915 90.4214C86.6726 88.6074 86.6176 86.7596 86.8265 84.9591C87.0766 82.8103 88.5756 81.6519 90.7391 81.5341C92.0701 81.4609 93.3157 81.6626 94.4348 82.711V77.2257ZM94.4898 87.6627C94.3891 86.8971 94.3601 86.3408 94.2367 85.8075C93.9898 84.7451 93.3004 84.25 92.1586 84.2392C91.0669 84.2285 90.3578 84.7193 90.114 85.7662C89.8029 87.0989 89.8104 88.4514 90.1337 89.7826C90.3656 90.7347 91.035 91.207 92.0579 91.2423C93.1343 91.2788 93.8739 90.8755 94.1345 89.9234C94.1578 89.8399 94.179 89.7562 94.1984 89.6722C94.2182 89.5876 94.2361 89.5027 94.2525 89.4181C94.283 89.2612 94.3084 89.1048 94.3305 88.9506C94.3655 88.707 94.3924 88.4693 94.4178 88.2451C94.4414 88.037 94.4635 87.8409 94.4898 87.6627Z" fill="#3f3f3f"/>
<path fill-rule="evenodd" clip-rule="evenodd" d="M74.5175 93.8144H71.3367L71.2791 92.862C69.7909 94.1154 68.1183 94.1214 66.4212 93.7609C64.3521 93.3205 63.1523 91.326 63.6842 89.2749C64.0488 87.8675 65.0702 87.1187 66.4167 86.8158C67.0769 86.6679 67.772 86.6508 68.4536 86.6281C68.8143 86.6155 69.1756 86.612 69.5357 86.612L69.9233 86.6129L70.3249 86.6161H70.3285L70.5571 86.6179C70.743 86.6191 70.9282 86.6203 71.1126 86.6203C71.5199 85.4556 71.026 84.4485 69.8961 84.2117C68.5863 83.9382 67.31 83.9564 66.2336 85.0873C65.54 84.47 64.8538 83.8587 64.1295 83.2121C64.8461 82.422 65.6831 81.9284 66.6773 81.7326C68.4004 81.3933 70.1232 81.3933 71.8095 81.9284C73.5616 82.4847 74.5265 83.7424 74.551 85.5794C74.5767 87.4445 74.5698 89.3105 74.563 91.1762L74.5597 92.0829C74.5582 92.5642 74.5573 93.0455 74.557 93.5268C74.5555 93.6004 74.5373 93.6736 74.5175 93.8144ZM71.2378 88.7431C71.0839 88.7204 70.9922 88.6959 70.8993 88.6944C70.0455 88.6944 69.1902 88.6759 68.3376 88.7111C68.0269 88.7249 67.6913 88.8119 67.4184 88.9602C66.5324 89.4418 66.5112 90.7667 67.4169 91.187C68.4461 91.6653 69.5333 91.6515 70.5272 91.048C71.2788 90.5936 71.2614 89.8606 71.2432 89.0977L71.2393 88.9186C71.2384 88.8603 71.2378 88.8017 71.2378 88.7431Z" fill="#3f3f3f"/>
<path d="M98.8689 92.2509L101.031 90.2366C102.15 91.178 103.467 91.453 104.867 91.3583C105.18 91.3377 105.496 91.2752 105.802 91.187C105.952 91.1439 106.099 91.0949 106.242 91.042C106.677 90.8815 106.96 90.5362 106.927 90.0286C106.892 89.4938 106.556 89.1835 106.067 89.101C105.626 89.0256 105.178 88.9799 104.731 88.9341L104.718 88.9327C104.525 88.9129 104.332 88.8932 104.14 88.8711L103.916 88.8442C103.777 88.8268 103.637 88.811 103.498 88.7951L103.48 88.7933C103.344 88.7778 103.208 88.7623 103.073 88.7452C102.768 88.707 102.465 88.6606 102.168 88.5889C100.904 88.2848 99.9163 87.6278 99.6557 86.249C99.3781 84.7833 99.7532 83.5272 100.982 82.601C101.778 82.0002 102.699 81.6869 103.675 81.5861C105.201 81.4286 106.723 81.4899 108.179 82.0309C108.543 82.1661 108.887 82.3598 109.26 82.5702C109.439 82.6716 109.625 82.7765 109.824 82.8805L109.343 83.3281C109.102 83.5535 108.871 83.769 108.643 83.9777C108.539 84.0736 108.435 84.1681 108.331 84.2617C108.238 84.346 108.144 84.4291 108.051 84.5113L107.884 84.6566C107.852 84.6847 107.795 84.6963 107.73 84.696C107.632 84.6957 107.517 84.6679 107.445 84.6276C106.383 84.0315 105.235 83.9642 104.064 84.0667C103.807 84.0895 103.547 84.1965 103.313 84.3173C102.926 84.5161 102.716 84.8521 102.759 85.2969C102.803 85.7525 103.092 86.0473 103.519 86.11C103.912 86.1677 104.309 86.206 104.705 86.244C105.274 86.2987 105.843 86.3534 106.401 86.4661C107.208 86.6296 108.074 86.8131 108.751 87.2424C110.832 88.5647 110.603 91.8154 108.404 93.07C106.866 93.9489 105.187 94.0314 103.477 93.9444C101.865 93.8619 100.352 93.4966 99.093 92.4085C99.038 92.3594 98.9711 92.3212 98.8689 92.2509Z" fill="#3f3f3f"/>
<path d="M76.8974 81.6913H80.046V82.7152C82.2277 81.251 84.3533 80.9912 86.5871 82.6235L84.1247 84.922C83.9971 84.8554 83.8737 84.7824 83.7518 84.7104C83.4903 84.5558 83.2354 84.4052 82.9599 84.3292C81.4609 83.9164 80.1909 84.89 80.1757 86.4628C80.1604 87.985 80.1637 89.5075 80.167 91.0297C80.1682 91.6608 80.1694 92.2919 80.1694 92.923V93.8033H76.896C76.8974 89.7473 76.8974 85.7366 76.8974 81.6913Z" fill="#3f3f3f"/>
</svg>
