<svg width="65" height="48" viewBox="0 0 65 48" fill="none" xmlns="http://www.w3.org/2000/svg">
<path d="M11.3807 17.5126C29.9745 3.15305 47.0956 -1.81757 55.9322 12.2658C56.2084 -4.48698 32.1837 -5.31542 11.3807 17.5126Z" fill="#BDBDBD"/>
<path d="M58.7857 18.9854H54.4594L52.1582 30.8597H56.4845L58.7857 18.9854Z" fill="#BDBDBD"/>
<path d="M41.3885 18.9854H35.6815L33.3803 30.9517H36.9702L38.7191 21.7469L39.7316 30.8597H42.8613L47.3717 21.7469L45.6227 30.8597H49.2126L51.5139 18.9854H45.8068L42.217 26.2573L41.3885 18.9854Z" fill="#BDBDBD"/>
<path d="M22.8868 18.9854H17.1798L14.8786 30.8597H18.3764L20.1253 21.7469L21.1378 30.8597H24.3595L28.8699 21.7469L27.121 30.8597H30.7109L33.0121 18.9854H27.3051L23.7152 26.2573L22.8868 18.9854Z" fill="#BDBDBD"/>
<path d="M13.4978 27.0857L9.90793 26.0732C9.63179 26.8096 9.17154 27.3618 8.7113 27.8221C8.15901 28.1903 7.51467 28.3744 6.68623 28.3744C5.8578 28.3744 5.21346 28.0982 4.84526 27.638C4.47707 27.0857 4.38502 26.1652 4.66117 24.8765C4.84526 23.864 5.21346 23.0356 5.58165 22.6674C6.22599 22.023 7.05443 21.6548 8.06696 21.6548C8.43516 21.6548 8.80335 21.6548 9.17154 21.8389C9.44769 22.023 9.72384 22.2071 9.90793 22.4833C9.99998 22.6674 10.092 22.9435 10.1841 23.3117L14.1422 22.5753C13.866 21.3787 13.3137 20.4582 12.3932 19.8139C11.5648 19.1695 10.1841 18.8934 8.43516 18.8934C6.22599 18.8934 4.38502 19.3536 2.91225 20.4582C1.43947 21.4707 0.518984 23.0356 0.15079 24.9686C-0.125355 26.5334 -0.0333068 27.73 0.518984 28.6505C1.07128 29.6631 1.71561 30.3074 2.6361 30.6756C3.55659 31.0438 4.75321 31.2279 6.31804 31.2279C7.60672 31.2279 8.7113 31.0438 9.53974 30.7676C10.3682 30.4915 11.1966 30.0313 11.841 29.3869C12.4853 28.7426 13.0376 28.0062 13.4978 27.0857Z" fill="#BDBDBD"/>
<path d="M50.3173 34.8177C50.1793 34.9003 50.0414 34.9824 49.9036 35.0641L50.8696 33.4371H49.9491L49.2127 34.7258L48.8445 35.4621C48.8445 35.3701 48.8445 35.0939 48.7525 34.7258L48.5684 33.345H47.7399L48.3023 35.9961C29.9223 46.4966 14.1794 48.5847 7.60682 34.8177C5.54906 50.2062 26.7964 53.8551 48.4436 36.3826H49.1207L49.7738 35.2826C49.955 35.1291 50.1362 34.9742 50.3173 34.8177Z" fill="#BDBDBD"/>
<path d="M59.7982 15.2114C59.7982 13.5545 58.4175 12.1738 56.7606 12.1738C55.1037 12.1738 53.723 13.4625 53.723 15.2114C53.723 16.8682 55.1037 18.249 56.7606 18.249C58.4175 18.249 59.7982 16.8682 59.7982 15.2114Z" fill="#BDBDBD"/>
<path d="M54.1833 36.3826L55.1038 32.1484H55.9323L55.0118 36.3826H54.1833Z" fill="#BDBDBD"/>
<path fill-rule="evenodd" clip-rule="evenodd" d="M53.9072 35.0939H51.7901V35.186C51.7901 35.3701 51.8821 35.5542 51.9742 35.6462C52.0662 35.7383 52.2503 35.8303 52.4344 35.8303C52.7106 35.8303 52.8947 35.6462 53.0788 35.3701L53.8151 35.4621C53.6311 35.7383 53.447 36.0144 53.2629 36.1065C52.9867 36.2906 52.7106 36.2906 52.4344 36.2906C51.9742 36.2906 51.698 36.1985 51.4219 35.9224C51.1457 35.6462 51.0537 35.278 51.0537 34.9099C51.0537 34.4496 51.1457 34.0814 51.4219 33.8053C51.698 33.345 52.1583 33.1609 52.8026 33.1609C53.1708 33.1609 53.447 33.253 53.7231 33.5291C53.9072 33.8053 54.0913 34.0814 54.0913 34.5417C53.9992 34.7257 53.9072 34.9098 53.9072 35.0939ZM52.9867 33.8973C53.0681 34.0602 53.1496 34.223 53.1673 34.4496H51.8821C51.9128 34.3882 51.9435 34.3166 51.9742 34.245C52.0355 34.1019 52.0969 33.9587 52.1583 33.8973C52.2503 33.8053 52.4344 33.7132 52.6185 33.7132C52.7106 33.7132 52.8947 33.8053 52.9867 33.8973Z" fill="#BDBDBD"/>
<path fill-rule="evenodd" clip-rule="evenodd" d="M47.2797 35.0939H45.1626V35.186C45.1626 35.3701 45.2546 35.5542 45.3467 35.6462C45.4387 35.7383 45.6228 35.8303 45.8069 35.8303C46.0831 35.8303 46.2672 35.6462 46.4513 35.3701L47.1877 35.4621C47.0036 35.7383 46.8195 36.0144 46.6354 36.1065C46.3592 36.2906 46.0831 36.2906 45.8069 36.2906C45.3467 36.2906 45.0705 36.1985 44.7944 35.9224C44.5182 35.7383 44.3342 35.4621 44.3342 35.0019C44.3342 34.5417 44.4262 34.1735 44.7023 33.8973C44.9785 33.4371 45.4387 33.253 46.0831 33.253C46.4513 33.253 46.7274 33.345 47.0036 33.6212C47.1877 33.8973 47.3718 34.1735 47.3718 34.6337C47.2797 34.7257 47.2797 34.9098 47.2797 35.0939ZM46.5433 34.5417C46.5433 34.2655 46.4513 34.0814 46.3592 33.8973C46.2672 33.8053 46.0831 33.7132 45.899 33.7132C45.7149 33.7132 45.5308 33.8053 45.4387 33.8973C45.3467 34.0814 45.2546 34.2655 45.2546 34.5417H46.5433Z" fill="#BDBDBD"/>
<path d="M42.5852 36.3826L43.5057 32.1484H44.3342L43.4137 36.3826H42.5852Z" fill="#BDBDBD"/>
<path d="M58.6016 29.2026L60.5346 29.5708C60.5346 29.2026 60.6267 28.9265 60.8108 28.7424C60.9028 28.6503 61.0869 28.5583 61.3631 28.5583C61.4685 28.5583 61.5606 28.5717 61.6392 28.5832C61.7664 28.6017 61.8585 28.6152 61.9153 28.5583C62.0074 28.7424 62.0994 28.9265 62.0994 29.1106C62.0994 29.3867 62.0074 29.5708 61.8233 29.7549C61.6392 29.939 61.4551 30.0311 61.179 30.0311H60.9028L60.8108 31.5038C61.0869 31.4118 61.271 31.4118 61.4551 31.4118C61.8233 31.4118 62.0074 31.5038 62.1915 31.6879C62.3756 31.872 62.4676 32.0561 62.4676 32.4243C62.4676 32.7925 62.3756 33.0687 62.1915 33.2528C62.0074 33.4368 61.8233 33.5289 61.5471 33.5289C61.271 33.5289 61.0869 33.4368 60.9028 33.2528C60.7187 33.0687 60.6267 32.7925 60.5346 32.4243L58.5096 32.7005C58.6016 33.1607 58.7857 33.5289 59.0618 33.805C59.2459 34.0812 59.6141 34.2653 59.9823 34.4494C60.3505 34.6335 60.9028 34.7255 61.5471 34.7255C62.2835 34.7255 62.7438 34.6335 63.204 34.4494C63.5722 34.1732 63.9404 33.8971 64.1245 33.5289C64.4007 33.1607 64.4927 32.7925 64.4927 32.3323C64.4927 32.0561 64.4007 31.78 64.3086 31.5039C64.2166 31.3198 64.0325 31.1356 63.7563 30.9515C63.5722 30.8595 63.3881 30.7674 63.112 30.6754C63.3881 30.4913 63.6643 30.3072 63.8484 30.0311C64.0325 29.7549 64.1245 29.4788 64.1245 29.2026C64.1245 28.7424 63.9404 28.2821 63.4802 27.9139C63.112 27.5457 62.3756 27.3616 61.4551 27.3616C60.6267 27.3616 59.9823 27.4537 59.5221 27.8219C59.0618 28.098 58.7857 28.5583 58.6016 29.2026Z" fill="#BDBDBD"/>
</svg>
