<svg xmlns="http://www.w3.org/2000/svg" viewBox="0 0 270 270" width="270" height="270" preserveAspectRatio="xMidYMid meet" style="width: 100%; height: 100%; transform: translate3d(0px, 0px, 0px);"><defs><clipPath id="__lottie_element_23"><rect width="270" height="270" x="0" y="0"></rect></clipPath></defs><g clip-path="url(#__lottie_element_23)"><g transform="matrix(8.107139587402344,0,0,8.107139587402344,-2113.11767578125,1528.115234375)" opacity="1" style="display: block;"><g opacity="1" transform="matrix(1,0,0,1,0,0)"><path fill="rgb(255,51,51)" fill-opacity="1" d=" M266.4840087890625,-162.95599365234375 C267.5889892578125,-162.95599365234375 268.4840087890625,-162.06100463867188 268.4840087890625,-160.95599365234375 C268.4840087890625,-159.8509979248047 267.5889892578125,-158.95599365234375 266.4840087890625,-158.95599365234375 C265.3789978027344,-158.95599365234375 264.4840087890625,-159.8509979248047 264.4840087890625,-160.95599365234375 C264.4840087890625,-162.06100463867188 265.3789978027344,-162.95599365234375 266.4840087890625,-162.95599365234375z"></path></g></g><g transform="matrix(8.107139587402344,0,0,8.107139587402344,-2113.11767578125,1528.115234375)" opacity="1" style="display: block;"><g opacity="1" transform="matrix(1,0,0,1,0,0)"><path fill="rgb(255,51,51)" fill-opacity="1" d=" M288.4840087890625,-162.95599365234375 C289.5889892578125,-162.95599365234375 290.4840087890625,-162.06100463867188 290.4840087890625,-160.95599365234375 C290.4840087890625,-159.8509979248047 289.5889892578125,-158.95599365234375 288.4840087890625,-158.95599365234375 C287.3789978027344,-158.95599365234375 286.4840087890625,-159.8509979248047 286.4840087890625,-160.95599365234375 C286.4840087890625,-162.06100463867188 287.3789978027344,-162.95599365234375 288.4840087890625,-162.95599365234375z"></path></g></g><g transform="matrix(8.107139587402344,0,0,8.107139587402344,-2113.11767578125,1528.115234375)" opacity="1" style="display: block;"><g opacity="1" transform="matrix(1,0,0,1,0,0)"><path fill="rgb(255,51,51)" fill-opacity="1" d=" M288.4840087890625,-184.95599365234375 C289.5889892578125,-184.95599365234375 290.4840087890625,-184.06100463867188 290.4840087890625,-182.95599365234375 C290.4840087890625,-181.8509979248047 289.5889892578125,-180.95599365234375 288.4840087890625,-180.95599365234375 C287.3789978027344,-180.95599365234375 286.4840087890625,-181.8509979248047 286.4840087890625,-182.95599365234375 C286.4840087890625,-184.06100463867188 287.3789978027344,-184.95599365234375 288.4840087890625,-184.95599365234375z"></path></g></g><g transform="matrix(8.107139587402344,0,0,8.107139587402344,-2113.11767578125,1528.115234375)" opacity="1" style="display: block;"><g opacity="1" transform="matrix(1,0,0,1,0,0)"><path fill="rgb(255,51,51)" fill-opacity="1" d=" M266.4840087890625,-184.95599365234375 C267.5889892578125,-184.95599365234375 268.4840087890625,-184.06100463867188 268.4840087890625,-182.95599365234375 C268.4840087890625,-181.8509979248047 267.5889892578125,-180.95599365234375 266.4840087890625,-180.95599365234375 C265.3789978027344,-180.95599365234375 264.4840087890625,-181.8509979248047 264.4840087890625,-182.95599365234375 C264.4840087890625,-184.06100463867188 265.3789978027344,-184.95599365234375 266.4840087890625,-184.95599365234375z"></path></g></g><g transform="matrix(8.107139587402344,0,0,8.107139587402344,-2113.11767578125,1528.115234375)" opacity="1" style="display: block;"><g opacity="1" transform="matrix(1,0,0,1,0,0)"><path stroke-linecap="butt" stroke-linejoin="miter" fill-opacity="0" stroke-miterlimit="10" stroke="rgb(255,51,51)" stroke-opacity="1" stroke-width="3" d=" M277.4840087890625,-177.95599365234375 C280.7980041503906,-177.95599365234375 283.4840087890625,-175.27000427246094 283.4840087890625,-171.95599365234375 C283.4840087890625,-168.64199829101562 280.7980041503906,-165.95599365234375 277.4840087890625,-165.95599365234375 C274.1700134277344,-165.95599365234375 271.4840087890625,-168.64199829101562 271.4840087890625,-171.95599365234375 C271.4840087890625,-175.27000427246094 274.1700134277344,-177.95599365234375 277.4840087890625,-177.95599365234375z"></path></g></g><g transform="matrix(-0.9987570643424988,0.04984339699149132,-0.04984339699149132,-0.9987570643424988,137.9185028076172,133.01522827148438)" opacity="1" style="display: block;"><g opacity="1" transform="matrix(1,0,0,1,0,0)"><path fill="rgb(255,51,51)" fill-opacity="1" d=" M64.375,-69 C61.98899841308594,-67.14399719238281 53,-59.1879997253418 49.25,-53.6879997253418 C45.685001373291016,-48.45899963378906 53.4370002746582,-38.875 60,-43.25 C63.2599983215332,-45.42300033569336 72.02400207519531,-53.88199996948242 76.125,-59.75 C79.75,-64.93800354003906 69.43800354003906,-72.93800354003906 64.375,-69z"></path></g></g><g transform="matrix(0.056413982063531876,0.9984074831008911,-0.9984074831008911,0.056413982063531876,135.44580078125,132.61630249023438)" opacity="1" style="display: block;"><g opacity="1" transform="matrix(1,0,0,1,0,0)"><path fill="rgb(255,51,51)" fill-opacity="1" d=" M64.375,-69 C61.98899841308594,-67.14399719238281 53,-59.1879997253418 49.25,-53.6879997253418 C45.685001373291016,-48.45899963378906 53.4370002746582,-38.875 60,-43.25 C63.2599983215332,-45.42300033569336 72.02400207519531,-53.88199996948242 76.125,-59.75 C79.75,-64.93800354003906 69.43800354003906,-72.93800354003906 64.375,-69z"></path></g></g><g transform="matrix(1,0,0,1,135,135)" opacity="1" style="display: block;"><g opacity="1" transform="matrix(1,0,0,1,0,0)"><path fill="rgb(255,51,51)" fill-opacity="1" d=" M64.375,-69 C61.98899841308594,-67.14399719238281 53,-59.1879997253418 49.25,-53.6879997253418 C45.685001373291016,-48.45899963378906 53.4370002746582,-38.875 60,-43.25 C63.2599983215332,-45.42300033569336 72.02400207519531,-53.88199996948242 76.125,-59.75 C79.75,-64.93800354003906 69.43800354003906,-72.93800354003906 64.375,-69z"></path></g></g><g transform="matrix(-0.062302783131599426,-0.9980573058128357,0.9980573058128357,-0.062302783131599426,137.5305938720703,135.46556091308594)" opacity="1" style="display: block;"><g opacity="1" transform="matrix(1,0,0,1,0,0)"><path fill="rgb(255,51,51)" fill-opacity="1" d=" M64.375,-69 C61.98899841308594,-67.14399719238281 53,-59.1879997253418 49.25,-53.6879997253418 C45.685001373291016,-48.45899963378906 53.4370002746582,-38.875 60,-43.25 C63.2599983215332,-45.42300033569336 72.02400207519531,-53.88199996948242 76.125,-59.75 C79.75,-64.93800354003906 69.43800354003906,-72.93800354003906 64.375,-69z"></path></g></g></g></svg>