<svg xmlns="http://www.w3.org/2000/svg" viewBox="0 0 270 270" width="270" height="270" preserveAspectRatio="xMidYMid meet" style="width: 100%; height: 100%; transform: translate3d(0px, 0px, 0px);"><defs><clipPath id="__lottie_element_52"><rect width="270" height="270" x="0" y="0"></rect></clipPath></defs><g clip-path="url(#__lottie_element_52)"><g transform="matrix(7.840000152587891,0,0,7.840000152587891,-2044.990966796875,1089.3388671875)" opacity="1" style="display: block;"><g opacity="1" transform="matrix(1,0,0,1,0,0)"><path fill="rgb(255,51,51)" fill-opacity="1" d=" M283.8340148925781,-107.95600128173828 C283.8340148925781,-107.95600128173828 271.1440124511719,-108.10600280761719 271.1440124511719,-108.10600280761719 C267.4739990234375,-108.10600280761719 264.4939880371094,-111.08599853515625 264.4939880371094,-114.75599670410156 C264.4939880371094,-114.75599670410156 264.4939880371094,-127.2959976196289 264.4939880371094,-127.2959976196289 C264.4939880371094,-130.96600341796875 267.4739990234375,-133.9459991455078 271.1440124511719,-133.9459991455078 C271.1440124511719,-133.9459991455078 283.9939880371094,-133.9459991455078 283.9939880371094,-133.9459991455078 C287.66400146484375,-133.9459991455078 290.4939880371094,-130.80599975585938 290.4939880371094,-127.13600158691406 C290.4939880371094,-127.13600158691406 290.4939880371094,-114.59600067138672 290.4939880371094,-114.59600067138672 C290.4840087890625,-110.93599700927734 287.5039978027344,-107.95600128173828 283.8340148925781,-107.95600128173828z M271.1340026855469,-130.95599365234375 C269.1239929199219,-130.95599365234375 267.4840087890625,-129.3159942626953 267.4840087890625,-127.30599975585938 C267.4840087890625,-127.30599975585938 267.4840087890625,-114.76599884033203 267.4840087890625,-114.76599884033203 C267.4840087890625,-112.75599670410156 269.1239929199219,-111.11599731445312 271.1340026855469,-111.11599731445312 C271.1340026855469,-111.11599731445312 283.8240051269531,-110.96600341796875 283.8240051269531,-110.96600341796875 C285.8340148925781,-110.96600341796875 287.4739990234375,-112.60600280761719 287.4739990234375,-114.61599731445312 C287.4739990234375,-114.61599731445312 287.4739990234375,-127.15599822998047 287.4739990234375,-127.15599822998047 C287.4739990234375,-129.16600036621094 285.9840087890625,-130.96600341796875 283.9739990234375,-130.96600341796875 C283.9739990234375,-130.96600341796875 271.1340026855469,-130.96600341796875 271.1340026855469,-130.96600341796875 C271.1340026855469,-130.96600341796875 271.1340026855469,-130.95599365234375 271.1340026855469,-130.95599365234375z"></path></g></g><g transform="matrix(7.840000152587891,0,0,7.840000152587891,-2044.99072265625,1089.339111328125)" opacity="1" style="display: block;"><g opacity="1" transform="matrix(1,0,0,1,0,0)"><path stroke-linecap="round" stroke-linejoin="round" fill-opacity="0" stroke="rgb(255,51,51)" stroke-opacity="1" stroke-width="2" d=" M283.4840087890625,-126.95600128173828 C283.4840087890625,-126.95600128173828 271.4840087890625,-126.95600128173828 271.4840087890625,-126.95600128173828"></path></g></g><g transform="matrix(7.840000152587891,0,0,7.840000152587891,-2044.990478515625,1089.339111328125)" opacity="1" style="display: block;"><g opacity="1" transform="matrix(1,0,0,1,0,0)"><path fill="rgb(255,51,51)" fill-opacity="1" d=" M282.4840087890625,-117.95600128173828 C282.4840087890625,-117.95600128173828 284.4840087890625,-113.95600128173828 284.4840087890625,-113.95600128173828 C284.4840087890625,-113.95600128173828 280.4840087890625,-113.96600341796875 280.4840087890625,-113.96600341796875 C280.4840087890625,-113.96600341796875 282.4840087890625,-117.95600128173828 282.4840087890625,-117.95600128173828z"></path></g></g><g transform="matrix(7.840000152587891,0,0,7.840000152587891,-2044.99072265625,1089.339111328125)" opacity="1" style="display: block;"><g opacity="1" transform="matrix(1,0,0,1,0,0)"><path fill="rgb(255,51,51)" fill-opacity="1" d=" M278.4840087890625,-123.95600128173828 C279.5889892578125,-123.95600128173828 280.4840087890625,-123.06099700927734 280.4840087890625,-121.95600128173828 C280.4840087890625,-120.85099792480469 279.5889892578125,-119.95600128173828 278.4840087890625,-119.95600128173828 C277.3789978027344,-119.95600128173828 276.4840087890625,-120.85099792480469 276.4840087890625,-121.95600128173828 C276.4840087890625,-123.06099700927734 277.3789978027344,-123.95600128173828 278.4840087890625,-123.95600128173828z"></path></g></g><g transform="matrix(7.840000152587891,0,0,7.840000152587891,-2044.99609375,1089.3409423828125)" opacity="1" style="display: block;"><g opacity="1" transform="matrix(1,0,0,1,0,0)"><path fill="rgb(255,51,51)" fill-opacity="1" d=" M274.4849853515625,-117.95700073242188 C274.4849853515625,-117.95700073242188 274.4849853515625,-113.95700073242188 274.4849853515625,-113.95700073242188 C274.4849853515625,-113.95700073242188 270.4849853515625,-113.95700073242188 270.4849853515625,-113.95700073242188 C270.4849853515625,-113.95700073242188 270.4849853515625,-117.95700073242188 270.4849853515625,-117.95700073242188 C270.4849853515625,-117.95700073242188 274.4849853515625,-117.95700073242188 274.4849853515625,-117.95700073242188z"></path></g></g></g></svg>