<svg xmlns="http://www.w3.org/2000/svg" viewBox="0 0 270 270" width="270" height="270" preserveAspectRatio="xMidYMid meet" style="width: 100%; height: 100%; transform: translate3d(0px, 0px, 0px);"><defs><clipPath id="__lottie_element_69"><rect width="270" height="270" x="0" y="0"></rect></clipPath></defs><g clip-path="url(#__lottie_element_69)"><g transform="matrix(7.900000095367432,0,0,7.900000095367432,-2065.638916015625,759.7969360351562)" opacity="1" style="display: block;"><g opacity="1" transform="matrix(1,0,0,1,0,0)"><path fill="rgb(255,51,51)" fill-opacity="1" d=" M266.3940124511719,-66.40599822998047 C266.3940124511719,-66.40599822998047 264.9339904785156,-67.86599731445312 264.9339904785156,-67.86599731445312 C264.4540100097656,-68.34600067138672 264.4540100097656,-69.1259994506836 264.9339904785156,-69.61599731445312 C264.9339904785156,-69.61599731445312 270.65399169921875,-75.33599853515625 270.65399169921875,-75.33599853515625 C271.1340026855469,-75.81600189208984 271.91400146484375,-75.81600189208984 272.40399169921875,-75.33599853515625 C272.40399169921875,-75.33599853515625 273.864013671875,-73.8759994506836 273.864013671875,-73.8759994506836 C274.343994140625,-73.39600372314453 274.343994140625,-72.61599731445312 273.864013671875,-72.1259994506836 C273.864013671875,-72.1259994506836 268.1440124511719,-66.40599822998047 268.1440124511719,-66.40599822998047 C267.65399169921875,-65.9260025024414 266.8739929199219,-65.9260025024414 266.3940124511719,-66.40599822998047z"></path></g></g><g transform="matrix(7.900000095367432,0,0,7.900000095367432,-2065.6396484375,759.79638671875)" opacity="1" style="display: block;"><g opacity="1" transform="matrix(1,0,0,1,0,0)"><path fill="rgb(255,51,51)" fill-opacity="1" d=" M288.9840087890625,-69.45600128173828 C288.9840087890625,-69.45600128173828 290.9840087890625,-65.45600128173828 290.9840087890625,-65.45600128173828 C290.9840087890625,-65.45600128173828 286.9840087890625,-65.46600341796875 286.9840087890625,-65.46600341796875 C286.9840087890625,-65.46600341796875 288.9840087890625,-69.45600128173828 288.9840087890625,-69.45600128173828z"></path></g></g><g transform="matrix(7.900000095367432,0,0,7.900000095367432,-2065.6396484375,759.79638671875)" opacity="1" style="display: block;"><g opacity="1" transform="matrix(1,0,0,1,0,0)"><path fill="rgb(255,51,51)" fill-opacity="1" d=" M288.4840087890625,-91.95600128173828 C289.5889892578125,-91.95600128173828 290.4840087890625,-91.06099700927734 290.4840087890625,-89.95600128173828 C290.4840087890625,-88.85099792480469 289.5889892578125,-87.95600128173828 288.4840087890625,-87.95600128173828 C287.3789978027344,-87.95600128173828 286.4840087890625,-88.85099792480469 286.4840087890625,-89.95600128173828 C286.4840087890625,-91.06099700927734 287.3789978027344,-91.95600128173828 288.4840087890625,-91.95600128173828z"></path></g></g><g transform="matrix(7.900000095367432,0,0,7.900000095367432,-2065.6455078125,759.79833984375)" opacity="1" style="display: block;"><g opacity="1" transform="matrix(1,0,0,1,0,0)"><path fill="rgb(255,51,51)" fill-opacity="1" d=" M279.4849853515625,-80.95700073242188 C279.4849853515625,-80.95700073242188 279.4849853515625,-76.95700073242188 279.4849853515625,-76.95700073242188 C279.4849853515625,-76.95700073242188 275.4849853515625,-76.95700073242188 275.4849853515625,-76.95700073242188 C275.4849853515625,-76.95700073242188 275.4849853515625,-80.95700073242188 275.4849853515625,-80.95700073242188 C275.4849853515625,-80.95700073242188 279.4849853515625,-80.95700073242188 279.4849853515625,-80.95700073242188z"></path></g></g><g transform="matrix(7.900000095367432,0,0,7.900000095367432,-2065.6396484375,759.7964477539062)" opacity="1" style="display: block;"><g opacity="1" transform="matrix(1,0,0,1,0,0)"><path stroke-linecap="butt" stroke-linejoin="miter" fill-opacity="0" stroke-miterlimit="10" stroke="rgb(255,51,51)" stroke-opacity="1" stroke-width="3" d=" M278.9739990234375,-88.71600341796875 C283.67401123046875,-88.71600341796875 287.4840087890625,-84.90599822998047 287.4840087890625,-80.20600128173828 C287.4840087890625,-75.50599670410156 283.67401123046875,-71.69599914550781 278.9739990234375,-71.69599914550781 C274.27398681640625,-71.69599914550781 270.4639892578125,-75.50599670410156 270.4639892578125,-80.20600128173828 C270.4639892578125,-84.90599822998047 274.27398681640625,-88.71600341796875 278.9739990234375,-88.71600341796875z"></path></g></g></g></svg>