<svg xmlns="http://www.w3.org/2000/svg" viewBox="0 0 270 270" width="270" height="270" preserveAspectRatio="xMidYMid meet" style="width: 100%; height: 100%; transform: translate3d(0px, 0px, 0px);"><defs><clipPath id="__lottie_element_86"><rect width="270" height="270" x="0" y="0"></rect></clipPath><mask id="__lottie_element_94" mask-type="alpha"><g transform="matrix(7.94936990737915,0,0,7.94936990737915,-2073.338623046875,397.0740661621094)" opacity="1" style="display: block;"><g opacity="1" transform="matrix(1,0,0,1,0,0)"><path fill="rgb(246,90,84)" fill-opacity="1" d=" M272.04400634765625,-21.95599937438965 C272.04400634765625,-21.95599937438965 279.864013671875,-21.95599937438965 279.864013671875,-21.95599937438965 C281.8739929199219,-21.95599937438965 283.5039978027344,-23.586000442504883 283.5039978027344,-25.59600067138672 C283.5039978027344,-25.59600067138672 283.8450012207031,-38.35599899291992 283.8450012207031,-38.35599899291992 C283.8450012207031,-39.76599884033203 284.114990234375,-40.97600173950195 284.6449890136719,-41.95600128173828 C284.6449890136719,-41.95600128173828 278.1549987792969,-41.95600128173828 278.1549987792969,-41.95600128173828 C275.3550109863281,-41.95600128173828 273.4649963378906,-40.49599838256836 273.4649963378906,-38.316001892089844 C273.4649963378906,-38.316001892089844 273.4849853515625,-25.916000366210938 273.4849853515625,-25.916000366210938 C273.4849853515625,-24.59600067138672 272.7239990234375,-22.996000289916992 272.04400634765625,-21.95599937438965z"></path></g></g></mask><mask id="__lottie_element_100" mask-type="alpha"><g transform="matrix(7.94936990737915,0,0,7.94936990737915,-2073.338623046875,397.0740661621094)" opacity="1" style="display: block;"><g opacity="1" transform="matrix(1,0,0,1,0,0)"><path fill="rgb(246,90,84)" fill-opacity="1" d=" M272.04400634765625,-21.95599937438965 C272.04400634765625,-21.95599937438965 279.864013671875,-21.95599937438965 279.864013671875,-21.95599937438965 C281.8739929199219,-21.95599937438965 283.5039978027344,-23.586000442504883 283.5039978027344,-25.59600067138672 C283.5039978027344,-25.59600067138672 283.8450012207031,-38.35599899291992 283.8450012207031,-38.35599899291992 C283.8450012207031,-39.76599884033203 284.114990234375,-40.97600173950195 284.6449890136719,-41.95600128173828 C284.6449890136719,-41.95600128173828 278.1549987792969,-41.95600128173828 278.1549987792969,-41.95600128173828 C275.3550109863281,-41.95600128173828 273.4649963378906,-40.49599838256836 273.4649963378906,-38.316001892089844 C273.4649963378906,-38.316001892089844 273.4849853515625,-25.916000366210938 273.4849853515625,-25.916000366210938 C273.4849853515625,-24.59600067138672 272.7239990234375,-22.996000289916992 272.04400634765625,-21.95599937438965z"></path></g></g></mask><mask id="__lottie_element_106" mask-type="alpha"><g transform="matrix(7.94936990737915,0,0,7.94936990737915,-2073.338623046875,397.0740661621094)" opacity="1" style="display: block;"><g opacity="1" transform="matrix(1,0,0,1,0,0)"><path fill="rgb(246,90,84)" fill-opacity="1" d=" M272.04400634765625,-21.95599937438965 C272.04400634765625,-21.95599937438965 279.864013671875,-21.95599937438965 279.864013671875,-21.95599937438965 C281.8739929199219,-21.95599937438965 283.5039978027344,-23.586000442504883 283.5039978027344,-25.59600067138672 C283.5039978027344,-25.59600067138672 283.8450012207031,-38.35599899291992 283.8450012207031,-38.35599899291992 C283.8450012207031,-39.76599884033203 284.114990234375,-40.97600173950195 284.6449890136719,-41.95600128173828 C284.6449890136719,-41.95600128173828 278.1549987792969,-41.95600128173828 278.1549987792969,-41.95600128173828 C275.3550109863281,-41.95600128173828 273.4649963378906,-40.49599838256836 273.4649963378906,-38.316001892089844 C273.4649963378906,-38.316001892089844 273.4849853515625,-25.916000366210938 273.4849853515625,-25.916000366210938 C273.4849853515625,-24.59600067138672 272.7239990234375,-22.996000289916992 272.04400634765625,-21.95599937438965z"></path></g></g></mask><mask id="__lottie_element_112" mask-type="alpha"><g transform="matrix(7.94936990737915,0,0,7.94936990737915,-2073.338623046875,397.0740661621094)" opacity="1" style="display: block;"><g opacity="1" transform="matrix(1,0,0,1,0,0)"><path fill="rgb(246,90,84)" fill-opacity="1" d=" M272.04400634765625,-21.95599937438965 C272.04400634765625,-21.95599937438965 279.864013671875,-21.95599937438965 279.864013671875,-21.95599937438965 C281.8739929199219,-21.95599937438965 283.5039978027344,-23.586000442504883 283.5039978027344,-25.59600067138672 C283.5039978027344,-25.59600067138672 283.8450012207031,-38.35599899291992 283.8450012207031,-38.35599899291992 C283.8450012207031,-39.76599884033203 284.114990234375,-40.97600173950195 284.6449890136719,-41.95600128173828 C284.6449890136719,-41.95600128173828 278.1549987792969,-41.95600128173828 278.1549987792969,-41.95600128173828 C275.3550109863281,-41.95600128173828 273.4649963378906,-40.49599838256836 273.4649963378906,-38.316001892089844 C273.4649963378906,-38.316001892089844 273.4849853515625,-25.916000366210938 273.4849853515625,-25.916000366210938 C273.4849853515625,-24.59600067138672 272.7239990234375,-22.996000289916992 272.04400634765625,-21.95599937438965z"></path></g></g></mask></defs><g clip-path="url(#__lottie_element_86)"><g transform="matrix(7.94936990737915,0,0,7.94936990737915,-2073.338623046875,397.0740661621094)" opacity="1" style="display: block;"><g opacity="1" transform="matrix(1,0,0,1,0,0)"><path fill="rgb(255,51,51)" fill-opacity="1" d=" M279.864013671875,-18.95599937438965 C279.864013671875,-18.95599937438965 266.4840087890625,-18.95599937438965 266.4840087890625,-18.95599937438965 C266.4840087890625,-18.95599937438965 266.4840087890625,-21.95599937438965 266.4840087890625,-21.95599937438965 C268.4939880371094,-21.95599937438965 270.4840087890625,-23.945999145507812 270.4840087890625,-25.95599937438965 C270.4840087890625,-25.95599937438965 270.4639892578125,-38.35599899291992 270.4639892578125,-38.35599899291992 C270.4639892578125,-42.16600036621094 273.6940002441406,-44.95600128173828 278.1440124511719,-44.95600128173828 C278.1440124511719,-44.95600128173828 290.4739990234375,-44.95600128173828 290.4739990234375,-44.95600128173828 C290.4739990234375,-44.95600128173828 290.4739990234375,-41.95600128173828 290.4739990234375,-41.95600128173828 C287.92401123046875,-41.95600128173828 286.8340148925781,-40.86600112915039 286.8340148925781,-38.316001892089844 C286.8340148925781,-38.316001892089844 286.5039978027344,-25.555999755859375 286.5039978027344,-25.555999755859375 C286.5039978027344,-21.93600082397461 283.52398681640625,-18.95599937438965 279.864013671875,-18.95599937438965z M272.04400634765625,-21.95599937438965 C272.04400634765625,-21.95599937438965 279.864013671875,-21.95599937438965 279.864013671875,-21.95599937438965 C281.8739929199219,-21.95599937438965 283.5039978027344,-23.586000442504883 283.5039978027344,-25.59600067138672 C283.5039978027344,-25.59600067138672 283.8450012207031,-38.35599899291992 283.8450012207031,-38.35599899291992 C283.8450012207031,-39.76599884033203 284.114990234375,-40.97600173950195 284.6449890136719,-41.95600128173828 C284.6449890136719,-41.95600128173828 278.1549987792969,-41.95600128173828 278.1549987792969,-41.95600128173828 C275.3550109863281,-41.95600128173828 273.4649963378906,-40.49599838256836 273.4649963378906,-38.316001892089844 C273.4649963378906,-38.316001892089844 273.4849853515625,-25.916000366210938 273.4849853515625,-25.916000366210938 C273.4849853515625,-24.59600067138672 272.7239990234375,-22.996000289916992 272.04400634765625,-21.95599937438965z"></path></g></g><g mask="url(#__lottie_element_94)" style="display: block;"><g transform="matrix(7.94936990737915,0,0,7.94936990737915,-2073.338623046875,397.07391357421875)" opacity="1"><g opacity="1" transform="matrix(1,0,0,1,0,0)"><path fill="rgb(255,51,51)" fill-opacity="1" d=" M279.4840087890625,-38.95600128173828 C279.4840087890625,-38.95600128173828 281.4840087890625,-34.95600128173828 281.4840087890625,-34.95600128173828 C281.4840087890625,-34.95600128173828 277.4840087890625,-34.965999603271484 277.4840087890625,-34.965999603271484 C277.4840087890625,-34.965999603271484 279.4840087890625,-38.95600128173828 279.4840087890625,-38.95600128173828z"></path></g></g></g><g mask="url(#__lottie_element_100)" style="display: block;"><g transform="matrix(7.94936990737915,0,0,7.94936990737915,-2073.338623046875,234.57391357421875)" opacity="1"><g opacity="1" transform="matrix(1,0,0,1,0,0)"><path fill="rgb(255,51,51)" fill-opacity="1" d=" M279.4840087890625,-38.95600128173828 C279.4840087890625,-38.95600128173828 281.4840087890625,-34.95600128173828 281.4840087890625,-34.95600128173828 C281.4840087890625,-34.95600128173828 277.4840087890625,-34.965999603271484 277.4840087890625,-34.965999603271484 C277.4840087890625,-34.965999603271484 279.4840087890625,-38.95600128173828 279.4840087890625,-38.95600128173828z"></path></g></g></g><g mask="url(#__lottie_element_106)" style="display: block;"><g transform="matrix(7.94936990737915,0,0,7.94936990737915,-2073.338623046875,397.0741882324219)" opacity="1"><g opacity="1" transform="matrix(1,0,0,1,0,0)"><path fill="rgb(255,51,51)" fill-opacity="1" d=" M279.4840087890625,-28.95599937438965 C280.5889892578125,-28.95599937438965 281.4840087890625,-28.06100082397461 281.4840087890625,-26.95599937438965 C281.4840087890625,-25.85099983215332 280.5889892578125,-24.95599937438965 279.4840087890625,-24.95599937438965 C278.3789978027344,-24.95599937438965 277.4840087890625,-25.85099983215332 277.4840087890625,-26.95599937438965 C277.4840087890625,-28.06100082397461 278.3789978027344,-28.95599937438965 279.4840087890625,-28.95599937438965z"></path></g></g></g><g mask="url(#__lottie_element_112)" style="display: block;"><g transform="matrix(7.94936990737915,0,0,7.94936990737915,-2073.338623046875,234.57421875)" opacity="1"><g opacity="1" transform="matrix(1,0,0,1,0,0)"><path fill="rgb(255,51,51)" fill-opacity="1" d=" M279.4840087890625,-28.95599937438965 C280.5889892578125,-28.95599937438965 281.4840087890625,-28.06100082397461 281.4840087890625,-26.95599937438965 C281.4840087890625,-25.85099983215332 280.5889892578125,-24.95599937438965 279.4840087890625,-24.95599937438965 C278.3789978027344,-24.95599937438965 277.4840087890625,-25.85099983215332 277.4840087890625,-26.95599937438965 C277.4840087890625,-28.06100082397461 278.3789978027344,-28.95599937438965 279.4840087890625,-28.95599937438965z"></path></g></g></g><g transform="matrix(7.94936990737915,0,0,7.94936990737915,-2073.3447265625,397.07666015625)" opacity="1" style="display: block;"><g opacity="1" transform="matrix(1,0,0,1,0,0)"><path fill="rgb(255,51,51)" fill-opacity="1" d=" M268.4849853515625,-32.957000732421875 C268.4849853515625,-32.957000732421875 268.4849853515625,-28.957000732421875 268.4849853515625,-28.957000732421875 C268.4849853515625,-28.957000732421875 264.4849853515625,-28.957000732421875 264.4849853515625,-28.957000732421875 C264.4849853515625,-28.957000732421875 264.4849853515625,-32.957000732421875 264.4849853515625,-32.957000732421875 C264.4849853515625,-32.957000732421875 268.4849853515625,-32.957000732421875 268.4849853515625,-32.957000732421875z"></path></g></g></g></svg>