<svg width="128" height="128" viewBox="0 0 128 128" fill="none" xmlns="http://www.w3.org/2000/svg">
<path d="M115.283 32.3774C115.283 35.7736 113.358 38.717 110.641 40.3019L117.207 49.6981H112.566L107.019 42.1132C106.906 41.7736 106.453 41.5472 106 41.5472H105.547V49.6981H101.585V24H105.547V37.6981H106.113C108.943 37.6981 111.321 35.3207 111.321 32.3774H115.283Z" fill="#3f3f3f"/>
<path fill-rule="evenodd" clip-rule="evenodd" d="M68.3018 40.9811C68.3018 35.8868 72.3773 31.8113 77.3584 31.8113C82.3396 31.8113 86.415 35.8868 86.415 40.9811C86.415 46.0754 82.3396 50.1509 77.3584 50.1509C72.3773 50.1509 68.3018 46.0754 68.3018 40.9811ZM72.0377 41.0943C72.0377 44.0377 74.415 46.415 77.3584 46.415C80.1886 46.415 82.6792 43.9245 82.6792 41.0943C82.6792 38.1509 80.3018 35.7735 77.3584 35.7735C74.415 35.7735 72.0377 38.1509 72.0377 41.0943Z" fill="#3f3f3f"/>
<path d="M92.8678 40.9811C92.8678 38.3773 94.9056 36.2264 97.5094 36.2264H99.0943V32.3773H97.9622C94.566 32.3773 92.8678 35.0943 92.8678 35.0943V32.3773H88.9056V49.6981H92.8678V40.9811Z" fill="#3f3f3f"/>
<path d="M60.9433 44.2641L57.9999 32.3773H54.2641L51.4339 44.2641L48.0377 32.3773H44.1886L49.2829 49.6981H53.132L56.1886 37.5849L59.2452 49.6981H63.0943L68.0754 32.3773H64.1131L60.9433 44.2641Z" fill="#3f3f3f"/>
<path fill-rule="evenodd" clip-rule="evenodd" d="M35.0189 31.8113C30.717 31.8113 27.434 34.6415 26.1887 39.1698C24.1509 36 22.566 32.3773 21.6604 29.3207H17.1321V41.3207C17.1321 43.6981 15.2076 45.6226 12.8302 45.6226C10.4528 45.6226 8.5283 43.6981 8.5283 41.3207V29.3207H4V41.3207C4 46.3018 7.96227 50.2641 12.8302 50.2641C17.6981 50.2641 21.6604 46.3018 21.6604 41.3207V39.283C22.566 41.0943 23.6981 43.0188 24.9434 44.7169L22.1132 57.9622H26.7547L28.7925 48.3396C30.6038 49.4717 32.6415 50.1509 35.0189 50.1509C40 50.1509 44.0755 46.0754 44.0755 40.8679C44.0755 35.8868 40 31.8113 35.0189 31.8113ZM35.0189 45.5094C33.2076 45.5094 31.3962 44.717 29.9245 43.4717L30.3774 41.6604V41.5471C30.717 39.6226 31.7358 36.3396 35.1321 36.3396C37.6226 36.3396 39.6604 38.3773 39.6604 40.8679C39.5472 43.4717 37.3962 45.5094 35.0189 45.5094Z" fill="#3f3f3f"/>
<path d="M116.528 32.9434H117.887V36.4529H118.34V32.9434H119.585V32.4906H116.528V32.9434Z" fill="#3f3f3f"/>
<path d="M120.83 32.4906H120.377V36.3397H120.83V33.1699L122.189 35.2076L123.547 33.1699V36.3397H124V32.4906H123.547L122.189 34.6415L120.83 32.4906Z" fill="#3f3f3f"/>
<path fill-rule="evenodd" clip-rule="evenodd" d="M36.0755 98.5494V92.6927H24V98.5494C24 99.3946 24.3623 100.24 25.0868 100.783L29.1321 104.406C29.6755 104.889 30.4604 104.889 31.0038 104.406L35.0491 100.783C35.7132 100.24 36.0755 99.3946 36.0755 98.5494ZM32.2716 99.9384C32.332 99.9987 32.4528 99.9384 32.4528 99.8176H32.3924V99.4553C32.3924 99.395 32.332 99.3346 32.2113 99.3346H27.8037C27.7433 99.3346 27.6226 99.395 27.6226 99.5157V99.8176C27.6226 99.878 27.7433 99.9384 27.8037 99.9384H32.2716ZM33.0566 96.0138H33.2981C33.4188 96.0138 33.4188 96.0742 33.3584 96.1346L32.4528 98.8516C32.4528 98.9119 32.332 98.9119 32.2716 98.9119H27.7433C27.683 98.9723 27.6226 98.9119 27.5622 98.8516L26.6566 96.1346C26.6566 96.0742 26.7169 96.0138 26.7773 96.0138C26.8377 95.9535 26.9584 95.9535 27.0188 96.0138L28.649 97.0402L29.8566 95.2893C29.9773 95.2289 30.0981 95.2289 30.2188 95.2893L31.4264 97.0402L33.0566 96.0138Z" fill="#3f3f3f"/>
<path d="M43.0711 96.5853H41.4423V95.4392H45.9063V96.5853H44.2776V100.687H43.0711V96.5853Z" fill="#3f3f3f"/>
<path fill-rule="evenodd" clip-rule="evenodd" d="M48.8622 100.808C47.3541 100.748 46.2079 99.5412 46.2683 98.0934V97.9125C46.3286 96.4044 47.5954 95.3185 49.1035 95.3789H49.4051C50.9132 95.4392 52.0594 96.6457 51.999 98.0934V98.2744C51.9387 99.7825 50.6719 100.868 49.1638 100.808H48.8622ZM49.0432 96.4647C48.1986 96.525 47.5351 97.2489 47.5351 98.0934C47.5351 98.9983 48.2589 99.6619 49.1638 99.6619H49.3448C50.129 99.6015 50.7322 98.8777 50.6719 98.0934V97.9728C50.6116 97.1283 49.8877 96.4647 49.0432 96.4647Z" fill="#3f3f3f"/>
<path fill-rule="evenodd" clip-rule="evenodd" d="M54.1707 98.938V100.687H52.9642V95.4392H54.593C56.2217 95.4392 56.7647 96.2837 56.7647 97.1886V97.3092C56.644 98.2744 55.7995 99.0586 54.774 98.938H54.1707ZM55.4375 97.0076C55.3772 96.706 55.0153 96.525 54.7136 96.5853H54.1707V97.7918C54.3517 97.8521 54.5327 97.8521 54.7136 97.8521H54.8343C55.1962 97.8521 55.4375 97.5505 55.4375 97.1886V97.0076Z" fill="#3f3f3f"/>
<path fill-rule="evenodd" clip-rule="evenodd" d="M60.5048 98.938V100.748H59.2983V95.4995H61.108C62.5558 95.4995 63.0987 96.2234 63.0987 97.1886C63.159 97.7918 62.7971 98.3951 62.1938 98.6967L63.7623 100.748H62.2542L60.927 98.938H60.5048ZM61.7716 97.1886C61.7716 96.887 61.6509 96.5853 61.0477 96.5853H60.5048V97.7918H60.927C61.4096 97.7918 61.7716 97.6109 61.7716 97.1886Z" fill="#3f3f3f"/>
<path fill-rule="evenodd" clip-rule="evenodd" d="M63.7623 100.748L65.9339 95.4995H67.0198L69.2518 100.748H67.9246L67.5024 99.6619H65.391L64.9687 100.748H63.7623ZM67.0801 98.5157L66.4768 97.0076L65.8736 98.5157H67.0801Z" fill="#3f3f3f"/>
<path d="M71.0012 96.5853H69.3724V95.4392H73.8364V96.5853H72.2076V100.687H71.0012V96.5853Z" fill="#3f3f3f"/>
<path d="M77.8178 100.748H74.5603L74.5 95.4392H77.6971V96.5853H75.7668V97.4902H77.5162V98.6364H75.7668V99.6015H77.8178V100.748Z" fill="#3f3f3f"/>
<path fill-rule="evenodd" clip-rule="evenodd" d="M78.9639 100.748V95.4392H80.653C82.8247 95.4392 83.6692 96.6457 83.6692 98.0331C83.6692 99.5412 82.6437 100.748 80.5927 100.748H78.9639ZM82.4024 98.0934C82.4024 97.1283 81.6182 96.5853 80.653 96.5853H80.2308V99.6619H80.653C81.7389 99.6619 82.4024 99.119 82.4024 98.0934Z" fill="#3f3f3f"/>
<path d="M24 85.1458H104V87.4099H24V85.1458Z" fill="#3f3f3f"/>
<path fill-rule="evenodd" clip-rule="evenodd" d="M62.5732 76.8808V77.5987H61.5139V71.2078H62.5732V73.7466C62.9876 73.1688 63.5129 72.8799 64.149 72.8799C64.721 72.8799 65.2142 73.0871 65.6286 73.5015C66.0722 73.9451 66.2939 74.5375 66.2939 75.2787V75.2962C66.2939 76.0316 66.0722 76.624 65.6286 77.0734C65.2259 77.4878 64.7327 77.695 64.149 77.695C63.5129 77.695 62.9876 77.4236 62.5732 76.8808ZM64.8319 76.373C65.0887 76.0987 65.2171 75.7398 65.2171 75.2962V75.2787C65.2171 74.841 65.0858 74.482 64.8232 74.2019C64.5722 73.9334 64.2628 73.7992 63.8951 73.7992C63.5275 73.7992 63.2123 73.9363 62.9496 74.2106C62.6812 74.4849 62.5469 74.841 62.5469 75.2787V75.2962C62.5469 75.734 62.6812 76.09 62.9496 76.3643C63.2123 76.6386 63.5275 76.7758 63.8951 76.7758C64.2687 76.7758 64.5809 76.6415 64.8319 76.373Z" fill="#3f3f3f"/>
<path fill-rule="evenodd" clip-rule="evenodd" d="M27.9702 74.5521C27.9702 75.4392 28.2124 76.1834 28.6968 76.7845C29.1987 77.3973 29.8437 77.7038 30.6316 77.7038C31.4195 77.7038 32.0674 77.3944 32.5751 76.7758C33.0654 76.1688 33.3105 75.4217 33.3105 74.5346V74.517C33.3105 73.6299 33.0683 72.8857 32.5839 72.2846C32.0878 71.6718 31.4429 71.3653 30.6491 71.3653C29.8612 71.3653 29.2133 71.6747 28.7056 72.2934C28.2153 72.8945 27.9702 73.6416 27.9702 74.5346V74.5521ZM32.1987 74.5521C32.1987 75.1649 32.0586 75.6785 31.7785 76.0929C31.4925 76.519 31.116 76.732 30.6491 76.732C30.1822 76.732 29.8028 76.516 29.511 76.0841C29.225 75.6756 29.082 75.1591 29.082 74.5346V74.517C29.082 73.8925 29.2221 73.376 29.5022 72.9675C29.7941 72.5472 30.1705 72.3371 30.6316 72.3371C31.0927 72.3371 31.4721 72.5531 31.7697 72.985C32.0557 73.3935 32.1987 73.9101 32.1987 74.5346V74.5521Z" fill="#3f3f3f"/>
<path d="M24.4553 72.8274L25.5584 72.521V77.5987H26.6265V71.4266H25.8823L24.2277 71.9519L24.4553 72.8274Z" fill="#3f3f3f"/>
<path fill-rule="evenodd" clip-rule="evenodd" d="M35.032 76.7845C34.5476 76.1834 34.3054 75.4392 34.3054 74.5521V74.5346C34.3054 73.6416 34.5505 72.8945 35.0408 72.2934C35.5485 71.6747 36.1964 71.3653 36.9843 71.3653C37.7781 71.3653 38.423 71.6718 38.9191 72.2846C39.4035 72.8857 39.6457 73.6299 39.6457 74.517V74.5346C39.6457 75.4217 39.4006 76.1688 38.9104 76.7758C38.4026 77.3944 37.7547 77.7038 36.9668 77.7038C36.1789 77.7038 35.5339 77.3973 35.032 76.7845ZM38.1137 76.0929C38.3938 75.6785 38.5339 75.1649 38.5339 74.5521V74.5346C38.5339 73.9101 38.3909 73.3935 38.1049 72.985C37.8073 72.5531 37.4279 72.3371 36.9668 72.3371C36.5057 72.3371 36.1293 72.5472 35.8374 72.9675C35.5573 73.376 35.4172 73.8925 35.4172 74.517V74.5346C35.4172 75.1591 35.5602 75.6756 35.8462 76.0841C36.138 76.516 36.5174 76.732 36.9843 76.732C37.4512 76.732 37.8277 76.519 38.1137 76.0929Z" fill="#3f3f3f"/>
<path fill-rule="evenodd" clip-rule="evenodd" d="M40.5618 72.985C40.5618 73.4169 40.6931 73.7787 40.9557 74.0706C41.2301 74.3799 41.5773 74.5346 41.9976 74.5346C42.4236 74.5346 42.7767 74.3799 43.0569 74.0706C43.3195 73.7729 43.4508 73.4052 43.4508 72.9675V72.95C43.4508 72.5181 43.3195 72.1533 43.0569 71.8556C42.7884 71.5521 42.4411 71.4004 42.0151 71.4004C41.589 71.4004 41.2388 71.555 40.9645 71.8644C40.696 72.1562 40.5618 72.5239 40.5618 72.9675V72.985ZM41.3409 72.95C41.3409 72.7107 41.3993 72.5064 41.516 72.3371C41.6386 72.162 41.7991 72.0745 41.9976 72.0745C42.1902 72.0745 42.3507 72.162 42.4791 72.3371C42.6075 72.5005 42.6717 72.7107 42.6717 72.9675V72.985C42.6717 73.2243 42.6133 73.4285 42.4966 73.5978C42.374 73.7729 42.2135 73.8604 42.0151 73.8604C41.8283 73.8604 41.6678 73.7729 41.5336 73.5978C41.4051 73.4344 41.3409 73.2243 41.3409 72.9675V72.95Z" fill="#3f3f3f"/>
<path d="M46.5325 71.4704H45.6658L43.5909 74.342L41.1834 77.5987H42.0501L44.1162 74.7359L46.5325 71.4704Z" fill="#3f3f3f"/>
<path fill-rule="evenodd" clip-rule="evenodd" d="M44.265 76.1192C44.265 76.5511 44.3963 76.9129 44.659 77.2047C44.9333 77.5141 45.2806 77.6687 45.7008 77.6687C46.1269 77.6687 46.477 77.5141 46.7514 77.2047C47.0198 76.9012 47.1541 76.5336 47.1541 76.1017V76.0841C47.1541 75.6522 47.0228 75.2875 46.7601 74.9898C46.4916 74.6863 46.1444 74.5346 45.7183 74.5346C45.2922 74.5346 44.9421 74.6892 44.6677 74.9986C44.3993 75.2904 44.265 75.6581 44.265 76.1017V76.1192ZM46.3749 76.1192C46.3749 76.3585 46.3165 76.5627 46.1998 76.732C46.0772 76.9071 45.9167 76.9946 45.7183 76.9946C45.5315 76.9946 45.371 76.9071 45.2368 76.732C45.1084 76.5686 45.0442 76.3585 45.0442 76.1017V76.0841C45.0442 75.8448 45.1026 75.6406 45.2193 75.4713C45.3419 75.2962 45.5024 75.2087 45.7008 75.2087C45.8934 75.2087 46.0539 75.2962 46.1823 75.4713C46.3107 75.6347 46.3749 75.8448 46.3749 76.1017V76.1192Z" fill="#3f3f3f"/>
<path d="M50.3796 76.697L51.0888 75.9616C51.4681 76.446 51.8796 76.6882 52.3232 76.6882C52.971 76.6882 53.295 76.2855 53.295 75.4801V71.4704H54.4068V75.5151C54.4068 76.2155 54.2142 76.7583 53.829 77.1435C53.4671 77.5053 52.971 77.6863 52.3407 77.6863C51.5178 77.6863 50.8641 77.3565 50.3796 76.697Z" fill="#3f3f3f"/>
<path fill-rule="evenodd" clip-rule="evenodd" d="M55.5061 75.3137C55.5061 75.9732 55.7396 76.5365 56.2065 77.0034C56.6734 77.4703 57.2571 77.7038 57.9575 77.7038C58.6637 77.7038 59.2561 77.4674 59.7347 76.9946C60.2016 76.5277 60.4351 75.9616 60.4351 75.2962V75.2787C60.4351 74.6133 60.2016 74.0472 59.7347 73.5803C59.2561 73.1134 58.6695 72.8799 57.975 72.8799C57.2804 72.8799 56.691 73.1163 56.2065 73.589C55.7396 74.056 55.5061 74.625 55.5061 75.2962V75.3137ZM59.3757 75.3137C59.3757 75.7281 59.2502 76.0725 58.9993 76.3468C58.7366 76.6328 58.3952 76.7758 57.975 76.7758C57.5723 76.7758 57.2337 76.6299 56.9594 76.338C56.6968 76.0462 56.5655 75.6989 56.5655 75.2962V75.2787C56.5655 74.8585 56.691 74.5112 56.9419 74.2369C57.2046 73.9509 57.5431 73.8079 57.9575 73.8079C58.366 73.8079 58.7075 73.9538 58.9818 74.2457C59.2444 74.5316 59.3757 74.8818 59.3757 75.2962V75.3137Z" fill="#3f3f3f"/>
<path d="M70.2684 75.9353L69.6206 76.7057C70.3443 77.3594 71.1964 77.6863 72.177 77.6863C72.8365 77.6863 73.3618 77.5257 73.7528 77.2047C74.1614 76.8721 74.3657 76.4227 74.3657 75.8565V75.839C74.3657 75.3546 74.2022 74.9665 73.8754 74.6746C73.5719 74.4178 73.0816 74.2077 72.4046 74.0443C72.1069 73.9743 71.8618 73.9042 71.6692 73.8342C71.4766 73.7641 71.3307 73.697 71.2315 73.6328C71.0389 73.4986 70.9426 73.3147 70.9426 73.0813V73.0638C70.9426 72.8478 71.0301 72.6756 71.2052 72.5472C71.392 72.4072 71.6371 72.3371 71.9406 72.3371C72.4834 72.3371 73.0379 72.5472 73.604 72.9675L74.1818 72.1533C73.5456 71.6397 72.8044 71.3829 71.9581 71.3829C71.3511 71.3829 70.8492 71.5463 70.4523 71.8731C70.0612 72.2058 69.8657 72.6348 69.8657 73.1601V73.1776C69.8657 73.7087 70.0437 74.1143 70.3998 74.3945C70.6799 74.6221 71.1819 74.8264 71.9056 75.0073C72.4542 75.1357 72.8277 75.27 73.0262 75.41C73.2013 75.5384 73.2888 75.7164 73.2888 75.9441V75.9616C73.2888 76.1892 73.1925 76.373 72.9999 76.5131C72.8015 76.659 72.5359 76.732 72.2032 76.732C71.5204 76.732 70.8754 76.4664 70.2684 75.9353Z" fill="#3f3f3f"/>
<path d="M75.8859 77.2135C75.5999 76.8925 75.4569 76.4606 75.4569 75.9178V72.9762H76.5162V75.6026C76.5162 76.3497 76.846 76.7232 77.5055 76.7232C77.8149 76.7232 78.0658 76.624 78.2584 76.4256C78.451 76.2213 78.5473 75.9411 78.5473 75.5851V72.9762H79.6154V77.5987H78.5473V76.8808C78.1796 77.4236 77.6981 77.695 77.1028 77.695C76.5892 77.695 76.1836 77.5345 75.8859 77.2135Z" fill="#3f3f3f"/>
<path d="M80.4622 75.3137C80.4622 75.9732 80.6898 76.5365 81.1451 77.0034C81.6003 77.4703 82.1694 77.7038 82.8523 77.7038C83.5993 77.7038 84.2297 77.4149 84.7433 76.837L84.1042 76.2067C83.7365 76.5861 83.3367 76.7758 82.9048 76.7758C82.5021 76.7758 82.1694 76.6328 81.9067 76.3468C81.6499 76.055 81.5215 75.7048 81.5215 75.2962V75.2787C81.5215 74.876 81.6499 74.5287 81.9067 74.2369C82.1577 73.9509 82.4758 73.8079 82.861 73.8079C83.2871 73.8079 83.684 74.0005 84.0517 74.3857L84.717 73.6766C84.2268 73.1455 83.611 72.8799 82.8698 72.8799C82.1811 72.8799 81.6062 73.1192 81.1451 73.5978C80.6898 74.0589 80.4622 74.625 80.4622 75.2962V75.3137Z" fill="#3f3f3f"/>
<path d="M86.0183 77.0034C85.5631 76.5365 85.3354 75.9732 85.3354 75.3137V75.2962C85.3354 74.625 85.5631 74.0589 86.0183 73.5978C86.4794 73.1192 87.0543 72.8799 87.743 72.8799C88.4842 72.8799 89.1 73.1455 89.5902 73.6766L88.9249 74.3857C88.5572 74.0005 88.1603 73.8079 87.7342 73.8079C87.349 73.8079 87.0309 73.9509 86.78 74.2369C86.5232 74.5287 86.3948 74.876 86.3948 75.2787V75.2962C86.3948 75.7048 86.5232 76.055 86.78 76.3468C87.0426 76.6328 87.3753 76.7758 87.778 76.7758C88.2099 76.7758 88.6097 76.5861 88.9774 76.2067L89.6165 76.837C89.1029 77.4149 88.4726 77.7038 87.7255 77.7038C87.0426 77.7038 86.4736 77.4703 86.0183 77.0034Z" fill="#3f3f3f"/>
<path fill-rule="evenodd" clip-rule="evenodd" d="M90.2087 75.305C90.2087 76.0112 90.4363 76.589 90.8915 77.0384C91.3351 77.482 91.8983 77.7038 92.5812 77.7038C93.3633 77.7038 93.9936 77.4149 94.4722 76.837L93.8506 76.2855C93.4771 76.6532 93.0598 76.837 92.5987 76.837C92.2544 76.837 91.9625 76.7349 91.7233 76.5306C91.484 76.3205 91.3322 76.0316 91.268 75.6639H94.6648C94.6707 75.5939 94.6736 75.5355 94.6736 75.4888C94.6794 75.4363 94.6823 75.3954 94.6823 75.3663C94.6823 74.66 94.4985 74.0793 94.1308 73.6241C93.7222 73.128 93.1678 72.8799 92.4674 72.8799C91.8137 72.8799 91.2709 73.1163 90.839 73.589C90.4188 74.0501 90.2087 74.6163 90.2087 75.2875V75.305ZM93.2816 74.0968C93.48 74.3128 93.5968 74.6017 93.6318 74.9635H91.2593C91.3059 74.5958 91.4373 74.304 91.6532 74.0881C91.875 73.8604 92.1435 73.7466 92.4586 73.7466C92.7972 73.7466 93.0715 73.8634 93.2816 74.0968Z" fill="#3f3f3f"/>
<path d="M95.3697 76.9946L95.8425 76.2767C96.3619 76.6561 96.8668 76.8458 97.357 76.8458C97.8356 76.8458 98.0749 76.6795 98.0749 76.3468V76.3293C98.0749 76.1717 97.9699 76.0404 97.7598 75.9353C97.7072 75.9061 97.6197 75.8711 97.4971 75.8303C97.3804 75.7894 97.2287 75.7398 97.0419 75.6814C96.5983 75.5589 96.2715 75.4188 96.0614 75.2612C95.752 75.0336 95.5974 74.7213 95.5974 74.3244V74.3069C95.5974 73.8809 95.7579 73.5365 96.0789 73.2739C96.3824 73.0229 96.7705 72.8974 97.2432 72.8974C97.8444 72.8974 98.4105 73.0725 98.9417 73.4227L98.5214 74.1756C98.037 73.8838 97.6022 73.7379 97.217 73.7379C96.7851 73.7379 96.5691 73.8896 96.5691 74.1931V74.2106C96.5691 74.3565 96.6742 74.4879 96.8843 74.6046C96.9427 74.6338 97.0302 74.6688 97.1469 74.7097C97.2695 74.7505 97.4242 74.803 97.6109 74.8672C98.5681 75.1649 99.0467 75.6143 99.0467 76.2155V76.233C99.0467 76.6999 98.8804 77.0647 98.5477 77.3273C98.2384 77.5666 97.8327 77.6863 97.3308 77.6863C96.6071 77.6863 95.9534 77.4557 95.3697 76.9946Z" fill="#3f3f3f"/>
<path d="M100.143 76.2767L99.6701 76.9946C100.254 77.4557 100.907 77.6863 101.631 77.6863C102.133 77.6863 102.539 77.5666 102.848 77.3273C103.181 77.0647 103.347 76.6999 103.347 76.233V76.2155C103.347 75.6143 102.869 75.1649 101.911 74.8672C101.725 74.803 101.57 74.7505 101.447 74.7097C101.331 74.6688 101.243 74.6338 101.185 74.6046C100.975 74.4879 100.87 74.3565 100.87 74.2106V74.1931C100.87 73.8896 101.085 73.7379 101.517 73.7379C101.903 73.7379 102.337 73.8838 102.822 74.1756L103.242 73.4227C102.711 73.0725 102.145 72.8974 101.544 72.8974C101.071 72.8974 100.683 73.0229 100.379 73.2739C100.058 73.5365 99.8978 73.8809 99.8978 74.3069V74.3244C99.8978 74.7213 100.052 75.0336 100.362 75.2612C100.572 75.4188 100.899 75.5589 101.342 75.6814C101.529 75.7398 101.681 75.7894 101.798 75.8303C101.92 75.8711 102.008 75.9061 102.06 75.9353C102.27 76.0404 102.375 76.1717 102.375 76.3293V76.3468C102.375 76.6795 102.136 76.8458 101.657 76.8458C101.167 76.8458 100.662 76.6561 100.143 76.2767Z" fill="#3f3f3f"/>
</svg>
