<svg width="128" height="128" viewBox="0 0 128 128" fill="none" xmlns="http://www.w3.org/2000/svg">
<path d="M104.662 47.7045H23.6109V47.3433H104.662V47.7045Z" fill="white"/>
<path d="M41.2026 38.3681C41.2026 38.8411 40.8831 39.2149 40.244 39.4897L39.5947 39.7667C38.8989 40.0617 38.5511 40.6124 38.5511 41.4186V41.9254H41.7125V41.4186H39.061C39.061 40.8353 39.2955 40.448 39.7647 40.2565L40.4139 39.9761C41.2797 39.6068 41.7125 39.0708 41.7125 38.3681C41.7125 37.3614 41.1856 36.858 40.1318 36.858C39.078 36.858 38.5511 37.3614 38.5511 38.3681H39.061C39.061 37.6992 39.4179 37.3648 40.1318 37.3648C40.8457 37.3648 41.2026 37.6992 41.2026 38.3681Z" fill="white"/>
<path fill-rule="evenodd" clip-rule="evenodd" d="M35.1563 36.9855H33.7361V41.9254H35.4835C36.0173 41.9254 36.4373 41.8032 36.7437 41.5587C37.0546 41.3142 37.2101 40.9683 37.2101 40.5209C37.2101 40.2626 37.1614 40.0527 37.0639 39.8913C36.9664 39.7299 36.8318 39.6053 36.6601 39.5177C36.493 39.4301 36.305 39.3701 36.0962 39.3378V39.3032C36.4025 39.2479 36.6369 39.1256 36.7993 38.9365C36.9618 38.7428 37.043 38.5007 37.043 38.2101C37.043 37.7581 36.8829 37.4421 36.5626 37.2622C36.247 37.0777 35.7783 36.9855 35.1563 36.9855ZM35.2816 39.0887H34.3627V37.5182H35.1842C35.6065 37.5182 35.9129 37.5782 36.1032 37.6981C36.2981 37.8134 36.3956 38.0071 36.3956 38.2793C36.3956 38.5468 36.3167 38.7497 36.1588 38.8881C36.001 39.0219 35.7086 39.0887 35.2816 39.0887ZM34.3627 41.3996V39.6076H35.3164C35.7759 39.6076 36.0939 39.6884 36.2702 39.8498C36.4513 40.0066 36.5418 40.2142 36.5418 40.4725C36.5418 40.7492 36.4559 40.9729 36.2842 41.1436C36.1124 41.3142 35.8061 41.3996 35.3652 41.3996H34.3627Z" fill="white"/>
<path fill-rule="evenodd" clip-rule="evenodd" d="M43.2889 36.9855H44.7092C45.3311 36.9855 45.7999 37.0777 46.1155 37.2622C46.4358 37.4421 46.5959 37.7581 46.5959 38.2101C46.5959 38.5007 46.5147 38.7428 46.3522 38.9365C46.1898 39.1256 45.9554 39.2479 45.6491 39.3032V39.3378C45.8579 39.3701 46.0459 39.4301 46.213 39.5177C46.3847 39.6053 46.5193 39.7299 46.6168 39.8913C46.7142 40.0527 46.763 40.2626 46.763 40.5209C46.763 40.9683 46.6075 41.3142 46.2965 41.5587C45.9902 41.8032 45.5702 41.9254 45.0364 41.9254H43.2889V36.9855ZM43.9155 39.0887H44.8345C45.2615 39.0887 45.5539 39.0219 45.7117 38.8881C45.8695 38.7497 45.9484 38.5468 45.9484 38.2793C45.9484 38.0071 45.851 37.8134 45.656 37.6981C45.4657 37.5782 45.1594 37.5182 44.737 37.5182H43.9155V39.0887ZM43.9155 39.6076V41.3996H44.918C45.359 41.3996 45.6653 41.3142 45.837 41.1436C46.0088 40.9729 46.0946 40.7492 46.0946 40.4725C46.0946 40.2142 46.0041 40.0066 45.8231 39.8498C45.6467 39.6884 45.3288 39.6076 44.8693 39.6076H43.9155Z" fill="white"/>
<path d="M51.8084 37.9956C52.1147 37.6404 52.5348 37.4629 53.0685 37.4629C53.2913 37.4629 53.4955 37.4905 53.6812 37.5459C53.8715 37.6012 54.0432 37.6635 54.1964 37.7327L54.447 37.2069C54.0571 37.0132 53.5999 36.9163 53.0755 36.9163C52.5649 36.9163 52.131 37.0247 51.7736 37.2415C51.4162 37.4536 51.1447 37.7511 50.959 38.134C50.778 38.5122 50.6875 38.9504 50.6875 39.4485C50.6875 39.9651 50.7711 40.4148 50.9381 40.7976C51.1099 41.1805 51.3651 41.4757 51.704 41.6832C52.0428 41.8908 52.4651 41.9946 52.971 41.9946C53.2449 41.9946 53.4793 41.9784 53.6742 41.9461C53.8738 41.9139 54.0664 41.8631 54.252 41.7939V41.2543C54.0664 41.3096 53.8761 41.3558 53.6812 41.3927C53.4862 41.4296 53.2797 41.448 53.0615 41.448C52.4907 41.448 52.0613 41.2704 51.7736 40.9153C51.4905 40.5555 51.3489 40.0689 51.3489 39.4554C51.3489 38.8374 51.5021 38.3508 51.8084 37.9956Z" fill="white"/>
<path fill-rule="evenodd" clip-rule="evenodd" d="M60.1301 39.4485C60.1301 39.9605 60.0419 40.4079 59.8655 40.7907C59.6938 41.1689 59.4385 41.4641 59.0997 41.6763C58.7609 41.8885 58.3408 41.9946 57.8396 41.9946C57.3244 41.9946 56.8951 41.8885 56.5516 41.6763C56.2128 41.4641 55.9599 41.1666 55.7928 40.7838C55.6257 40.401 55.5421 39.9536 55.5421 39.4416C55.5421 38.9342 55.6257 38.4914 55.7928 38.1132C55.9599 37.735 56.2128 37.4398 56.5516 37.2276C56.8951 37.0155 57.3267 36.9094 57.8465 36.9094C58.3432 36.9094 58.7609 37.0155 59.0997 37.2276C59.4385 37.4352 59.6938 37.7304 59.8655 38.1132C60.0419 38.4914 60.1301 38.9365 60.1301 39.4485ZM56.2035 39.4485C56.2035 40.0712 56.3358 40.5624 56.6004 40.9222C56.8649 41.2773 57.278 41.4549 57.8396 41.4549C58.4058 41.4549 58.8189 41.2773 59.0788 40.9222C59.3387 40.5624 59.4687 40.0712 59.4687 39.4485C59.4687 38.8258 59.3387 38.3392 59.0788 37.9887C58.8189 37.6335 58.4081 37.456 57.8465 37.456C57.2849 37.456 56.8695 37.6335 56.6004 37.9887C56.3358 38.3392 56.2035 38.8258 56.2035 39.4485Z" fill="white"/>
<path d="M62.3805 37.5943L64.0166 41.9254H64.5318L66.1887 37.6012H66.2166C66.2073 37.7488 66.1957 37.9403 66.1818 38.1755C66.1725 38.4107 66.1678 38.6483 66.1678 38.8881V41.9254H66.7875V36.9855H65.8685L64.309 41.0329H64.2811L62.7495 36.9855H61.8236V41.9254H62.4014V38.9296C62.4014 38.6667 62.3968 38.4153 62.3875 38.1755C62.3782 37.931 62.3666 37.7373 62.3527 37.5943H62.3805Z" fill="white"/>
<path fill-rule="evenodd" clip-rule="evenodd" d="M70.0472 36.9855C70.697 36.9855 71.1704 37.1123 71.4675 37.366C71.7645 37.6197 71.9131 37.9772 71.9131 38.4384C71.9131 38.7105 71.8504 38.9665 71.7251 39.2064C71.6044 39.4416 71.3979 39.633 71.1055 39.7806C70.8177 39.9282 70.4255 40.002 69.9289 40.002H69.358V41.9254H68.7314V36.9855H70.0472ZM69.9915 37.5182H69.358V39.4693H69.8593C70.3327 39.4693 70.6854 39.3932 70.9175 39.241C71.1496 39.0887 71.2656 38.8305 71.2656 38.4661C71.2656 38.1478 71.1635 37.9103 70.9593 37.7535C70.755 37.5966 70.4325 37.5182 69.9915 37.5182Z" fill="white"/>
<path fill-rule="evenodd" clip-rule="evenodd" d="M75.712 40.3964L76.3107 41.9254H76.9581L75.0227 36.9647H74.4588L72.5164 41.9254H73.1499L73.7417 40.3964H75.712ZM74.967 38.3485L75.524 39.8429H73.9506L74.5145 38.3485C74.5423 38.27 74.5771 38.164 74.6189 38.0302C74.6607 37.8918 74.6978 37.7511 74.7303 37.6082C74.7489 37.6635 74.7721 37.7442 74.7999 37.8503C74.8324 37.9518 74.8649 38.051 74.8974 38.1478C74.9299 38.2447 74.9531 38.3116 74.967 38.3485Z" fill="white"/>
<path d="M82.1704 41.9254H81.4394L78.7799 37.8226H78.7521C78.7613 37.9841 78.7729 38.1847 78.7869 38.4246C78.8008 38.6644 78.8077 38.9112 78.8077 39.1649V41.9254H78.2299V36.9855H78.9539L81.6065 41.0744H81.6343L81.6134 40.7423C81.6088 40.5947 81.6018 40.4333 81.5925 40.258C81.5879 40.0827 81.5856 39.9213 81.5856 39.7737V36.9855H82.1704V41.9254Z" fill="white"/>
<path d="M83.7143 41.9254H85.5105V41.5656L84.9257 41.4342V37.4836L85.5105 37.3453V36.9855H83.7143V37.3453L84.2991 37.4836V41.4342L83.7143 41.5656V41.9254Z" fill="white"/>
<path d="M89.8399 41.9254H87.0621V36.9855H89.8399V37.5321H87.6887V39.0749H89.7146V39.6146H87.6887V41.3788H89.8399V41.9254Z" fill="white"/>
<path d="M93.8616 41.6279C94.1819 41.3834 94.342 41.0421 94.342 40.6039C94.342 40.3456 94.2886 40.1312 94.1819 39.9605C94.0798 39.7898 93.9266 39.6445 93.7224 39.5246C93.5228 39.4001 93.2768 39.2848 92.9844 39.1787C92.7152 39.0772 92.5017 38.9827 92.3439 38.895C92.1861 38.8074 92.0724 38.7082 92.0028 38.5975C91.9331 38.4868 91.8983 38.3485 91.8983 38.1824C91.8983 37.9656 91.9772 37.7927 92.135 37.6635C92.2928 37.5298 92.5272 37.4629 92.8382 37.4629C93.0563 37.4629 93.2652 37.4882 93.4648 37.539C93.669 37.5897 93.857 37.652 94.0287 37.7258L94.2236 37.193C94.038 37.11 93.8314 37.0431 93.604 36.9924C93.3766 36.9417 93.126 36.9163 92.8521 36.9163C92.5412 36.9163 92.265 36.967 92.0236 37.0685C91.7869 37.17 91.6013 37.3153 91.4667 37.5044C91.3321 37.6889 91.2648 37.9126 91.2648 38.1755C91.2648 38.5583 91.3715 38.8604 91.585 39.0818C91.8032 39.3032 92.1234 39.49 92.5458 39.6422C92.8475 39.7483 93.0819 39.8498 93.249 39.9467C93.4207 40.0389 93.5414 40.1404 93.611 40.2511C93.6806 40.3618 93.7154 40.4978 93.7154 40.6593C93.7154 40.9037 93.6203 41.0975 93.43 41.2404C93.2443 41.3834 92.9658 41.4549 92.5945 41.4549C92.33 41.4549 92.0724 41.4249 91.8218 41.365C91.5758 41.305 91.3692 41.2381 91.2021 41.1643V41.7593C91.3599 41.8331 91.5572 41.8908 91.7939 41.9323C92.0306 41.9738 92.2882 41.9946 92.5667 41.9946C93.1097 41.9946 93.5414 41.8723 93.8616 41.6279Z" fill="white"/>
<path fill-rule="evenodd" clip-rule="evenodd" d="M65.7579 28.5101C65.9342 28.1273 66.0224 27.6799 66.0224 27.1679C66.0224 26.6559 65.9342 26.2108 65.7579 25.8326C65.5861 25.4498 65.3309 25.1546 64.992 24.947C64.6532 24.7348 64.2355 24.6288 63.7389 24.6288C63.2191 24.6288 62.7874 24.7348 62.444 24.947C62.1051 25.1592 61.8522 25.4544 61.6851 25.8326C61.518 26.2108 61.4345 26.6536 61.4345 27.161C61.4345 27.673 61.518 28.1204 61.6851 28.5032C61.8522 28.886 62.1051 29.1835 62.444 29.3957C62.7874 29.6079 63.2167 29.7139 63.7319 29.7139C64.2332 29.7139 64.6532 29.6079 64.992 29.3957C65.3309 29.1835 65.5861 28.8883 65.7579 28.5101ZM62.4927 28.6416C62.2281 28.2818 62.0959 27.7906 62.0959 27.1679C62.0959 26.5452 62.2281 26.0586 62.4927 25.7081C62.7619 25.3529 63.1773 25.1753 63.7389 25.1753C64.3005 25.1753 64.7112 25.3529 64.9712 25.7081C65.2311 26.0586 65.361 26.5452 65.361 27.1679C65.361 27.7906 65.2311 28.2818 64.9712 28.6416C64.7112 28.9967 64.2982 29.1743 63.7319 29.1743C63.1703 29.1743 62.7573 28.9967 62.4927 28.6416Z" fill="white"/>
<path d="M58.3076 29.6448H58.9342V25.2514H60.4798V24.7049H56.7551V25.2514H58.3076V29.6448Z" fill="white"/>
<path fill-rule="evenodd" clip-rule="evenodd" d="M69.0317 24.7049C69.6815 24.7049 70.1549 24.8317 70.452 25.0854C70.749 25.3391 70.8975 25.6965 70.8975 26.1578C70.8975 26.4299 70.8349 26.6859 70.7096 26.9257C70.5889 27.161 70.3824 27.3524 70.09 27.5C69.8022 27.6476 69.41 27.7214 68.9134 27.7214H68.3425V29.6448H67.7159V24.7049H69.0317ZM68.976 25.2376H68.3425V27.1886H68.8438C69.3172 27.1886 69.6699 27.1125 69.902 26.9603C70.134 26.8081 70.2501 26.5498 70.2501 26.1854C70.2501 25.8672 70.148 25.6297 69.9438 25.4728C69.7395 25.316 69.417 25.2376 68.976 25.2376Z" fill="white"/>
<path d="M23.6109 81.2955H104.662V80.9343H23.6109V81.2955Z" fill="white"/>
<path d="M57.8903 101.226C57.8903 101.699 57.5708 102.073 56.9317 102.348L56.2824 102.625C55.5867 102.92 55.2388 103.471 55.2388 104.277V104.784H58.4002V104.277H55.7487C55.7487 103.694 55.9833 103.306 56.4524 103.115L57.1017 102.835C57.9674 102.465 58.4002 101.929 58.4002 101.226C58.4002 100.22 57.8733 99.7164 56.8195 99.7164C55.7657 99.7164 55.2388 100.22 55.2388 101.226H55.7487C55.7487 100.558 56.1057 100.223 56.8195 100.223C57.5334 100.223 57.8903 100.558 57.8903 101.226Z" fill="white"/>
<path fill-rule="evenodd" clip-rule="evenodd" d="M61.8054 99.7164C60.6836 99.7164 60.1227 100.561 60.1227 102.25C60.1227 103.939 60.6836 104.784 61.8054 104.784C62.9272 104.784 63.4881 103.939 63.4881 102.25C63.4881 100.561 62.9272 99.7164 61.8054 99.7164ZM61.8054 100.223C62.5872 100.223 62.9782 100.899 62.9782 102.25C62.9782 103.601 62.5872 104.277 61.8054 104.277C61.0235 104.277 60.6326 103.601 60.6326 102.25C60.6326 100.899 61.0235 100.223 61.8054 100.223Z" fill="white"/>
<path fill-rule="evenodd" clip-rule="evenodd" d="M70.0569 102.149C69.7555 101.928 69.6048 101.568 69.6048 101.068C69.6048 100.167 70.0977 99.7164 71.0836 99.7164C72.0694 99.7164 72.5623 100.167 72.5623 101.068C72.5623 101.568 72.4116 101.928 72.1102 102.149C72.4796 102.381 72.6643 102.78 72.6643 103.348C72.6643 104.305 72.1374 104.784 71.0836 104.784C70.0297 104.784 69.5028 104.305 69.5028 103.348C69.5028 102.78 69.6875 102.381 70.0569 102.149ZM71.0836 100.223C70.4377 100.223 70.1147 100.505 70.1147 101.068C70.1147 101.631 70.4377 101.912 71.0836 101.912C71.7294 101.912 72.0524 101.631 72.0524 101.068C72.0524 100.505 71.7294 100.223 71.0836 100.223ZM71.0836 102.419C70.3697 102.419 70.0127 102.729 70.0127 103.348C70.0127 103.967 70.3697 104.277 71.0836 104.277C71.7974 104.277 72.1544 103.967 72.1544 103.348C72.1544 102.729 71.7974 102.419 71.0836 102.419Z" fill="white"/>
<path d="M65.1216 101.076V100.53L66.3887 99.7271H66.7159V104.176H67.809V104.653H65.0451V104.176H66.1381V100.432L65.1216 101.076Z" fill="white"/>
<path fill-rule="evenodd" clip-rule="evenodd" d="M66.5389 92.4926L65.9401 90.9635H63.9699L63.3781 92.4926H62.7446L64.687 87.5319H65.2509L67.1863 92.4926H66.5389ZM65.7522 90.41L65.1952 88.9156C65.1813 88.8787 65.1581 88.8118 65.1256 88.715C65.0931 88.6181 65.0606 88.519 65.0281 88.4175C65.0003 88.3114 64.9771 88.2307 64.9585 88.1753C64.926 88.3183 64.8889 88.459 64.8471 88.5974C64.8053 88.7311 64.7705 88.8372 64.7427 88.9156L64.1788 90.41H65.7522Z" fill="white"/>
<path d="M51.6914 87.5527V90.7491C51.6914 91.0904 51.6218 91.3994 51.4825 91.6762C51.3433 91.9483 51.1298 92.1651 50.842 92.3265C50.5589 92.4833 50.1969 92.5617 49.7559 92.5617C49.1387 92.5617 48.6676 92.3957 48.3427 92.0636C48.0224 91.7269 47.8623 91.2841 47.8623 90.7352V87.5527H48.4889V90.756C48.4889 91.1573 48.5956 91.4686 48.8091 91.69C49.0273 91.9114 49.3545 92.0221 49.7908 92.0221C50.241 92.0221 50.5659 91.9045 50.7654 91.6692C50.9697 91.4294 51.0718 91.1227 51.0718 90.7491V87.5527H51.6914Z" fill="white"/>
<path d="M57.2292 92.4926H56.4913L54.7299 90.1333L54.2217 90.5761V92.4926H53.5951V87.5527H54.2217V89.988C54.3609 89.8312 54.5025 89.6744 54.6464 89.5175L55.078 89.0471L56.4217 87.5527H57.1527L55.1824 89.7043L57.2292 92.4926Z" fill="white"/>
<path fill-rule="evenodd" clip-rule="evenodd" d="M61.2334 87.9055C60.941 87.6703 60.4861 87.5527 59.8688 87.5527H58.4973V92.4926H59.1239V90.4516H60.1125L61.3169 92.4926H62.0479L60.6834 90.2786C60.8505 90.2186 61.0083 90.1379 61.1568 90.0364C61.3099 89.9304 61.4353 89.7897 61.5327 89.6144C61.6302 89.4391 61.6789 89.22 61.6789 88.9571C61.6789 88.4867 61.5304 88.1361 61.2334 87.9055ZM59.1239 88.0923H59.834C60.2424 88.0923 60.5441 88.1615 60.7391 88.2999C60.934 88.4336 61.0315 88.6619 61.0315 88.9848C61.0315 89.2938 60.9386 89.5291 60.753 89.6905C60.5673 89.8473 60.2726 89.9257 59.8688 89.9257H59.1239V88.0923Z" fill="white"/>
<path d="M68.0613 92.4926H69.8575V92.1328L69.2727 92.0013V88.0508L69.8575 87.9124V87.5527H68.0613V87.9124L68.6461 88.0508V92.0013L68.0613 92.1328V92.4926Z" fill="white"/>
<path d="M75.3495 92.4926H74.6185L71.959 88.3898H71.9312L71.966 88.9917C71.9799 89.2316 71.9869 89.4783 71.9869 89.732V92.4926H71.409V87.5527H72.1331L74.7856 91.6416H74.8135L74.7926 91.3095C74.7879 91.1619 74.781 91.0004 74.7717 90.8252C74.7671 90.6499 74.7647 90.4885 74.7647 90.3409V87.5527H75.3495V92.4926Z" fill="white"/>
<path d="M77.2903 92.4926H80.0681V91.946H77.9169V90.1817H79.9428V89.6421H77.9169V88.0992H80.0681V87.5527H77.2903V92.4926Z" fill="white"/>
<path fill-rule="evenodd" clip-rule="evenodd" d="M117.746 36.056V92.944L64.4999 121.388L11.2534 92.944V36.056L64.4999 7.61194L117.746 36.056ZM64.4999 12.9429L113.021 38.8629V50.9552H15.9783V38.8629L64.4999 12.9429ZM15.9783 90.1372V78.0448H113.021V90.1372L64.4999 116.057L15.9783 90.1372ZM53.3185 56.7343H50.7103V72.7367H53.3185V56.7343ZM59.6688 70.3701C60.3492 70.3701 62.3904 70.1448 62.3904 67.6655V61.9182H64.9985V72.7367H62.3904V71.8351C61.71 72.5113 60.576 72.7367 59.6688 72.7367C58.4214 72.7367 57.4008 72.3986 56.607 71.6098C55.6999 70.8209 55.2463 69.4686 55.2463 68.0036V61.9182H57.8544V68.1163C57.8544 68.9051 58.0812 70.3701 59.6688 70.3701ZM70.1015 57.9739H67.4933V61.9181H65.5656V64.3974H67.4933V72.7366H70.1015V64.3974H72.0293V61.9181H70.1015V57.9739ZM78.0393 70.2574C78.8331 70.2574 79.6269 69.9194 80.1939 69.4686L80.5341 69.1305L82.3485 70.9336L81.8949 71.2717C80.8743 72.1732 79.5135 72.7367 78.0393 72.7367C74.8642 72.7367 72.4828 70.3701 72.4828 67.2147C72.4828 64.0594 74.8642 61.6928 78.0393 61.6928C79.5135 61.6928 80.8743 62.2563 81.8949 63.1578L82.3485 63.4959L80.5341 65.1863L80.1939 64.8482C79.6269 64.2847 78.8331 64.0594 78.0393 64.0594C76.225 64.0594 74.9776 65.299 74.9776 67.1021C74.9776 68.9051 76.225 70.2574 78.0393 70.2574ZM91.5338 62.8197C90.7401 62.0309 89.9463 61.6928 88.6989 61.6928C87.7917 61.6928 86.8845 61.9182 86.2041 62.5943V56.7343H83.5959V72.7367H86.2041V66.764C86.2041 64.2847 87.9051 64.0593 88.5855 64.0593C90.0778 64.0593 90.0671 65.3538 90.0605 66.1643C90.0601 66.2161 90.0597 66.2659 90.0597 66.3132V72.624H92.6678V66.4259C92.6678 64.9609 92.3276 63.6086 91.5338 62.8197ZM79.7404 67.2148C79.7404 68.2106 78.9281 69.0179 77.9261 69.0179C76.924 69.0179 76.1117 68.2106 76.1117 67.2148C76.1117 66.219 76.924 65.4117 77.9261 65.4117C78.9281 65.4117 79.7404 66.219 79.7404 67.2148ZM47.0815 68.7924C46.1744 69.6939 44.8136 70.2574 43.3394 70.2574C40.5044 70.2574 38.4632 68.0035 38.4632 64.9608C38.4632 61.9181 40.5044 59.6643 43.4528 59.6643C44.8136 59.6643 46.1744 60.2277 47.1949 61.242L47.5351 61.58L49.2361 59.8897L48.8959 59.5516C47.4217 58.0866 45.494 57.2977 43.4528 57.2977C39.1436 57.185 35.9685 60.5658 35.9685 64.9608C35.9685 69.3558 39.1436 72.7366 43.3394 72.7366C45.3806 72.7366 47.4217 71.9478 48.7825 70.4827L49.1227 70.1447L47.4217 68.4543L47.0815 68.7924Z" fill="white"/>
<path fill-rule="evenodd" clip-rule="evenodd" d="M121 34.25V94.75L64.5 125L8 94.75V34.25L64.5 4L121 34.25ZM64.5 5.23083L119.91 34.897V94.103L64.5 123.769L9.09037 94.103V34.8971L64.5 5.23083Z" fill="white"/>
</svg>
