<svg width="128" height="128" viewBox="0 0 128 128" fill="none" xmlns="http://www.w3.org/2000/svg">
<path d="M51.658 6.30853C51.7745 6.24905 51.9005 6.18474 51.8753 6.00131C51.3785 6.00131 50.8816 6.00131 50.3822 6C50.2957 6.1308 50.1714 6.12762 50.0479 6.12445C50.0079 6.12343 49.968 6.12241 49.9295 6.12593C47.4114 6.36075 44.9311 6.77266 42.5834 7.76833C41.1214 8.38751 39.7505 9.15755 38.7737 10.4733C38.2561 11.1712 38.3731 11.4257 39.242 11.511C40.25 11.6107 41.2177 11.3968 42.1672 11.0859C45.5385 9.98138 48.5768 8.20386 51.5788 6.35157C51.6032 6.33648 51.6303 6.32264 51.658 6.30853Z" fill="white"/>
<path d="M80.2167 6.26287C79.6767 6.21376 79.1366 6.16465 78.6131 6.00136H77.1213C77.1505 6.26063 77.3422 6.35047 77.5269 6.43701C77.5806 6.46213 77.6336 6.48697 77.6818 6.5156C77.9525 6.67602 78.2227 6.83749 78.4929 6.99894L78.4953 7.00036C79.5412 7.62521 80.5879 8.25063 81.6632 8.82047C83.7872 9.94601 85.9463 11.0073 88.3356 11.4546C88.9898 11.5766 89.6519 11.5963 90.2983 11.3772C90.5988 11.2749 90.6729 11.1358 90.4765 10.8328C90.1201 10.2845 89.7052 9.79908 89.1953 9.39767C86.832 7.53619 84.0369 6.84355 81.1572 6.3713C80.846 6.3201 80.5313 6.29149 80.2167 6.26287Z" fill="white"/>
<path d="M15.4514 95.4111C17.1379 96.5876 19.0647 97.1603 20.9924 97.7332L20.9947 97.7339L20.9967 97.7345C21.2278 97.8032 21.4588 97.8718 21.6894 97.9416C23.1904 98.3955 24.6706 98.9084 26.1169 99.6535C24.3974 96.2795 24.0033 92.7783 24.9762 88.9333C25.4794 91.5811 27.0044 93.481 28.5154 95.3635C28.9844 95.9479 29.4522 96.5306 29.8875 97.1335C30.9242 98.5686 31.5797 100.141 31.6889 101.919C31.7272 102.55 31.6137 103.179 31.5011 103.802L31.4717 103.965C31.4269 104.215 31.2409 104.274 31.0475 104.337L31.0278 104.343L31.0031 104.351L30.9876 104.356L30.971 104.362C28.9849 105.042 27.0885 104.603 25.2298 103.864C23.0265 102.988 21.1236 101.625 19.3482 100.069C17.9838 98.8743 16.7495 97.5585 15.722 96.0539C15.6995 96.0207 15.676 95.988 15.6525 95.9552C15.5432 95.8026 15.433 95.6488 15.4137 95.4491L15.415 95.4478L15.4084 95.4442C15.3622 95.4192 15.3156 95.394 15.3864 95.3402C15.3884 95.3391 15.4136 95.3679 15.4351 95.3924L15.4411 95.3993L15.4514 95.4111Z" fill="white"/>
<path fill-rule="evenodd" clip-rule="evenodd" d="M19.518 91.3936C19.3961 90.8142 19.2742 90.2344 19.1792 89.6509C18.8255 87.4759 19.3223 85.4282 20.1469 83.4355C20.2498 83.1878 20.3557 82.9416 20.477 82.6595L20.5918 82.3926C20.7674 82.8371 20.7773 83.263 20.7869 83.675C20.7924 83.9099 20.7978 84.1402 20.8337 84.3669C21.1065 86.0918 21.8181 87.6502 22.5297 89.2085L22.5304 89.2102C22.6396 89.4492 22.7487 89.6881 22.8562 89.9277C23.8265 92.0909 24.3013 94.3551 24.2479 96.7282C24.2258 97.716 24.205 97.7462 23.2646 97.5599C17.5807 96.4357 13.416 93.2361 10.656 88.1331C10.4622 87.775 10.2996 87.3972 10.1968 86.8462C11.4104 88.225 12.9022 88.8848 14.4305 89.4804C16.2657 90.1953 18.075 90.9654 19.6618 92.1709L19.6761 92.1565C19.625 91.9023 19.5714 91.6476 19.518 91.3936ZM19.7317 92.2269C19.7263 92.2227 19.7209 92.2184 19.7155 92.2141L19.7227 92.22L19.7317 92.2269Z" fill="white"/>
<path d="M17.4235 74.4782L17.4585 74.4312C17.4494 74.4482 17.4402 74.4665 17.4311 74.4849L17.4254 74.4923L17.4235 74.4782Z" fill="white"/>
<path d="M14.7933 83.8788C14.3359 80.3479 15.2963 77.2479 17.4254 74.4923C17.4719 74.8408 17.4203 75.1817 17.3686 75.5229C17.3366 75.7336 17.3047 75.9445 17.2958 76.1575C17.2165 78.1291 17.7198 79.9998 18.2297 81.8691C18.9216 84.4101 19.0218 86.959 18.4443 89.5393C18.3233 90.0798 18.0983 90.1165 17.6652 89.9565C12.3429 87.9835 8.77646 84.2448 6.78644 78.932C6.57963 78.381 6.42095 77.8051 6.36893 77.0206C7.41324 78.724 8.9157 79.6488 10.4107 80.569L10.4116 80.5696L10.4168 80.5728C10.5247 80.6392 10.6328 80.7057 10.7405 80.7724C12.1699 81.6566 13.5746 82.5723 14.7933 83.8788Z" fill="white"/>
<path d="M14.9375 58.4318C14.9368 58.4284 14.936 58.4251 14.9352 58.4217C14.9404 58.4185 14.9457 58.4152 14.9509 58.4119L14.9496 58.4151C14.9482 58.4185 14.9469 58.4219 14.9455 58.4252C14.9447 58.4271 14.9439 58.429 14.9431 58.4308L14.9416 58.4291L14.9375 58.4318Z" fill="white"/>
<path d="M14.9509 58.4119C14.9554 58.4004 14.9603 58.3889 14.9678 58.3797C14.9721 58.3753 14.9816 58.3756 14.9913 58.3759C14.9946 58.376 14.9979 58.3761 15.001 58.376C15.0025 58.376 15.004 58.3759 15.0055 58.3757C14.9873 58.388 14.9691 58.4002 14.9509 58.4119Z" fill="white"/>
<path d="M9.70779 66.0867C10.3694 62.7555 12.1546 60.2431 14.9375 58.4318C14.9779 58.6108 14.8962 58.7548 14.8159 58.8962C14.7955 58.9321 14.7751 58.9681 14.757 59.0042C13.9974 60.497 13.6592 62.0961 13.563 63.7569C13.4017 66.5235 13.044 69.2403 11.6003 71.6842C11.564 71.7454 11.5268 71.8061 11.4896 71.8667C11.396 72.0193 11.3025 72.1717 11.2244 72.3323C11.0045 72.7809 10.7535 72.7494 10.4023 72.4608C6.74097 69.4502 4.69892 65.5554 4.10452 60.8512C3.95364 59.6614 3.95624 58.4821 4.17736 57.1755C4.23575 57.3418 4.28824 57.4981 4.33805 57.6464C4.44021 57.9505 4.53155 58.2224 4.6417 58.486C5.12424 59.6351 5.89033 60.5993 6.67333 61.5438C7.83093 62.9383 8.9443 64.359 9.70779 66.0867Z" fill="white"/>
<path d="M4.62228 67.6201C5.343 69.1996 6.60397 70.2842 7.86173 71.3661C8.14064 71.606 8.41939 71.8458 8.69206 72.0908C9.7495 73.0406 10.7211 74.0507 11.5743 75.4727C11.6082 71.9268 12.9114 69.1405 15.3931 66.8265C15.4373 67.1006 15.3564 67.3136 15.2797 67.5157C15.2503 67.5932 15.2215 67.669 15.2006 67.7461C14.7206 69.5315 14.7948 71.3378 15.0068 73.1455C15.3307 75.9043 15.1343 78.5935 14.0404 81.1791C13.8609 81.6015 13.671 81.6356 13.2964 81.4205C8.43323 78.6211 5.61989 74.3904 4.64309 68.869C4.62491 68.7669 4.62358 68.6608 4.62228 68.5574C4.62142 68.3504 4.6217 68.1422 4.62199 67.9341C4.62213 67.8297 4.62228 67.7248 4.62228 67.6201Z" fill="white"/>
<path d="M16.9178 43.7602L16.9278 43.7502L16.933 43.7567L16.9178 43.7602Z" fill="white"/>
<path d="M16.9178 43.7602C15.301 45.3932 14.4301 47.4578 13.602 49.5537C12.8294 51.5122 11.6016 53.1454 10.0343 54.5373C9.61415 54.9112 9.41775 54.8259 9.13161 54.3838C7.34319 51.6198 6.55629 48.5777 6.64474 45.3021C6.68636 43.7554 6.9621 42.2363 7.49927 40.7776C7.57506 40.5723 7.67236 40.3754 7.77374 40.1702C7.82199 40.0725 7.87116 39.973 7.91939 39.8698C7.95064 39.9034 7.97741 39.9285 7.99839 39.9481C8.03154 39.9792 8.05025 39.9967 8.04945 40.0128C7.97378 41.5232 8.50437 42.8708 9.03549 44.2198C9.15247 44.517 9.26947 44.8141 9.38003 45.1132C9.77804 46.1875 10.1747 47.2646 10.2346 48.4295C10.2379 48.4912 10.2586 48.5524 10.2909 48.6482C10.3094 48.703 10.3317 48.7691 10.3568 48.8532C10.5087 48.6318 10.6509 48.4143 10.7894 48.2023C11.1279 47.6846 11.4451 47.1992 11.8318 46.7674C13.2148 45.2233 14.9097 44.2235 16.9178 43.7602Z" fill="white"/>
<path d="M12.7485 57.058C13.2443 55.0912 13.7402 53.124 14.9651 51.427L14.9287 51.3902C12.1986 52.6076 10.3126 54.6265 9.27599 57.6647C9.01326 56.3148 8.5099 55.2719 7.95842 54.25C7.74571 53.8553 7.51723 53.4679 7.28872 53.0804C6.51536 51.7691 5.74155 50.4569 5.5769 48.861C5.47284 49.0657 5.40911 49.2611 5.35839 49.4592C4.85243 51.4545 4.87974 53.4642 5.25043 55.4726C5.79021 58.3875 6.99332 60.9744 9.00415 63.1664C9.33452 63.5272 9.54523 63.4996 9.84048 63.1441C10.9551 61.8022 11.8539 60.3408 12.3326 58.6459C12.4808 58.1202 12.6146 57.5891 12.7485 57.058Z" fill="white"/>
<path d="M15.6601 41.6766C16.6178 40.0327 17.5744 38.3909 19.2026 37.2751C16.4868 37.5401 14.3056 38.7601 12.5991 40.9272C12.7041 39.5059 12.5602 38.1022 12.4163 36.6989C12.2395 34.9745 12.0627 33.2506 12.3481 31.4953C12.2954 31.5213 12.2562 31.5381 12.2267 31.5507C12.1835 31.5691 12.1615 31.5786 12.1491 31.595C10.3203 34.0782 9.27591 36.8593 9.2681 39.9591C9.2629 41.9806 9.79747 43.9103 10.6897 45.7377C10.9447 46.2598 11.1463 46.3569 11.6561 46.0197C13.2468 44.969 14.5215 43.6257 15.4827 41.9806C15.5419 41.8794 15.601 41.778 15.6601 41.6766Z" fill="white"/>
<path d="M116.667 31.4638L116.671 31.4681C116.919 33.1757 116.764 34.8693 116.607 36.5826C116.473 38.0432 116.338 39.5182 116.451 41.0283C114.164 38.1147 111.383 37.3145 109.75 37.3027C111.303 38.3456 112.278 39.8149 113.147 41.3694C114.189 43.2348 115.509 44.8378 117.321 46.0053C117.797 46.3123 118.026 46.3254 118.298 45.7627C119.938 42.3624 120.194 38.8874 118.874 35.3376C118.353 33.9344 117.71 32.581 116.671 31.4681L116.669 31.4586L116.663 31.4527C116.661 31.4447 116.658 31.4367 116.656 31.4287L116.648 31.4029L116.642 31.3851L116.642 31.3837L116.641 31.3825C116.633 31.3574 116.625 31.3323 116.617 31.3076C116.615 31.3097 116.613 31.312 116.61 31.3145L116.601 31.3229C116.59 31.3335 116.579 31.3439 116.58 31.3456C116.586 31.3556 116.594 31.3653 116.601 31.375C116.618 31.3978 116.636 31.42 116.655 31.4424L116.663 31.4527L116.667 31.4624C116.667 31.4627 116.666 31.4625 116.667 31.4624L116.667 31.4638Z" fill="white"/>
<path d="M117.668 47.4181C116.25 45.5041 114.359 44.3183 112.075 43.7424L112.074 43.7432C112.063 43.7351 112.052 43.7269 112.041 43.7188L112.03 43.7107L112.013 43.6986L112 43.6886L112.058 43.7594C113.474 45.1919 114.379 46.9314 115.075 48.8047C115.902 51.0295 117.144 52.971 118.947 54.5334C119.316 54.8548 119.531 54.8915 119.814 54.4442C122.446 50.2897 123.006 45.8531 121.617 41.1515L121.615 41.1456C121.488 40.7171 121.354 40.2632 120.982 39.925C121.008 41.1318 120.717 42.2482 120.299 43.341C119.921 44.3327 119.55 45.327 119.191 46.3267C118.964 46.9609 118.856 47.6267 118.743 48.3307C118.713 48.5119 118.684 48.6957 118.651 48.8821C118.535 48.7075 118.425 48.5393 118.319 48.3766L118.319 48.3755C118.098 48.0363 117.892 47.7201 117.668 47.4181Z" fill="white"/>
<path d="M119.709 57.6687C118.676 54.6397 116.801 52.609 114.067 51.3903C114.064 51.3874 114.06 51.3841 114.057 51.3806L114.054 51.3777L114.047 51.3707L114.038 51.3609C114.02 51.3422 114.003 51.3244 114 51.3261C113.935 51.3748 113.976 51.3988 114.016 51.4223C114.02 51.4247 114.025 51.4273 114.029 51.4297L114.067 51.3903L114.029 51.431C115.289 53.2231 115.801 55.288 116.314 57.3583C116.402 57.711 116.49 58.0648 116.581 58.4165C117.043 60.1966 117.969 61.7524 119.156 63.1521C119.453 63.5024 119.697 63.5509 119.996 63.1652C120.147 62.9702 120.307 62.7815 120.467 62.5929C120.67 62.3527 120.873 62.1127 121.058 61.86C122.799 59.4816 123.711 56.7806 123.967 53.8605C124.116 52.1787 124.018 50.4983 123.411 48.8703C123.279 50.1074 122.793 51.2054 122.191 52.2575C122.058 52.4892 121.924 52.7199 121.789 52.951C120.95 54.3876 120.102 55.8403 119.709 57.6687Z" fill="white"/>
<path d="M124.742 61.8354C124.822 61.4086 124.903 60.982 125 60.5587V57.9258C124.884 57.8396 124.876 57.7217 124.867 57.5908C124.859 57.4748 124.851 57.3486 124.766 57.2253C124.46 58.5817 123.796 59.7007 122.975 60.7266C122.809 60.9335 122.642 61.1396 122.475 61.3456L122.475 61.3466L122.474 61.3476L122.471 61.3507L122.468 61.3548C121.291 62.8084 120.114 64.2613 119.356 66.0079C119.352 66.018 119.326 66.0184 119.286 66.0191C119.275 66.0193 119.263 66.0195 119.25 66.0199L119.239 66.0204L119.228 66.0209C119.221 66.0213 119.213 66.0218 119.206 66.0224C118.614 62.7296 116.828 60.243 114.063 58.4371L114.063 58.4342L114.062 58.4278L114.062 58.4217L114.054 58.4169L114.046 58.4115C114.041 58.3995 114.037 58.3882 114.029 58.3797C114.028 58.3787 114.027 58.378 114.026 58.3775C114.025 58.3772 114.024 58.3769 114.023 58.3767L114.022 58.3764L114.02 58.3762L114.019 58.376L114.017 58.3759C114.014 58.3756 114.009 58.3758 114.005 58.3759L114 58.376L113.996 58.376L113.993 58.3759L113.991 58.3757L113.998 58.38L114.004 58.384C114.011 58.3889 114.019 58.3938 114.026 58.3988C114.033 58.403 114.04 58.4072 114.046 58.4115L114.048 58.4165L114.048 58.4175L114.05 58.4205L114.052 58.4261L114.054 58.4309L114.063 58.4371C114.066 58.4646 114.067 58.4931 114.068 58.5215C114.071 58.5937 114.073 58.6658 114.104 58.7221C115.239 60.7751 115.421 63.038 115.564 65.3166C115.721 67.8406 116.439 70.1887 117.78 72.3388C118.012 72.7087 118.207 72.7769 118.557 72.4962C121.349 70.253 123.21 67.3854 124.26 63.9563C124.474 63.2592 124.608 62.5471 124.742 61.8354Z" fill="white"/>
<path d="M117.417 75.3875C117.387 71.8994 116.075 69.1301 113.587 66.9053C114.345 69.0973 114.209 71.313 113.954 73.5418C113.682 75.9162 113.85 78.2551 114.707 80.4984C114.774 80.6753 114.829 80.8289 114.876 80.9604C115.009 81.3344 115.079 81.5302 115.205 81.5794C115.343 81.6335 115.549 81.5112 115.981 81.2549L115.983 81.2532L115.987 81.2509C116.068 81.2032 116.156 81.1506 116.253 81.0939C116.272 81.083 116.291 81.0721 116.309 81.0613C116.332 81.0481 116.356 81.0351 116.379 81.0221L116.406 81.0071L116.444 80.9859C116.562 80.9205 116.679 80.8551 116.79 80.7804C120.379 78.3614 122.727 75.0294 123.928 70.8657C124.235 69.8018 124.468 68.7195 124.352 67.4746C123.767 68.7891 122.927 69.7401 121.97 70.619C121.635 70.9258 121.291 71.223 120.948 71.5202C120.034 72.3096 119.121 73.0993 118.381 74.0704C118.181 74.3327 117.988 74.6 117.774 74.8953L117.773 74.8977C117.661 75.0522 117.544 75.2144 117.417 75.3875Z" fill="white"/>
<path d="M113.989 28.436C113.427 27.1793 112.787 25.9593 111.712 25.0436C111.705 25.0365 111.695 25.0272 111.686 25.0177C111.664 24.9957 111.641 24.973 111.636 24.9767C111.565 25.0241 111.606 25.0591 111.647 25.0932L111.657 25.1013L111.658 25.1C112.192 26.5424 112.237 28.0454 112.282 29.5584C112.319 30.788 112.356 32.0242 112.655 33.2399C110.132 31.3364 107.5 29.8134 104.253 29.9065C104.476 30.0243 104.701 30.1358 104.926 30.2471L104.928 30.2478C105.334 30.4486 105.739 30.6491 106.127 30.8851C107.702 31.8418 108.88 33.2071 110.058 34.5721L110.06 34.5736C110.388 34.9545 110.717 35.3355 111.054 35.7074C112.143 36.9103 113.353 37.9244 114.906 38.4714C115.326 38.6196 115.513 38.5317 115.59 38.0831C115.611 37.9583 115.636 37.8342 115.66 37.7101L115.66 37.7091C115.723 37.3851 115.787 37.0617 115.802 36.728C115.937 33.7987 115.163 31.0688 113.989 28.436Z" fill="white"/>
<path d="M16.3172 33.3305C16.4662 33.2238 16.6149 33.1166 16.7636 33.0094L16.7652 33.0083C17.8562 32.2217 18.9463 31.4358 20.1795 30.8708C21.6323 30.2057 23.1424 29.8437 24.75 29.8411C24.7325 30.0261 24.6056 30.0604 24.4883 30.0921C24.4575 30.1004 24.4274 30.1085 24.4002 30.1192C22.6039 30.8315 21.1823 32.0462 19.9025 33.4709C19.6 33.8075 19.306 34.1523 19.012 34.4971C18.2416 35.4008 17.4709 36.3049 16.5454 37.0626C15.8483 37.6333 15.1017 38.1068 14.2511 38.4033C13.5461 38.6499 13.5045 38.6434 13.3588 37.8904C13.0323 36.2047 13.1663 34.5334 13.5396 32.8687C14.0729 30.4904 14.8832 28.2301 16.2528 26.1994C16.5441 25.7679 16.8602 25.3546 17.2842 25.0424L17.2862 25.0444C17.2933 25.0379 17.3017 25.0297 17.3102 25.0213C17.3328 24.9991 17.3566 24.9756 17.3622 24.9794C17.4318 25.0271 17.3898 25.0639 17.3496 25.0991L17.344 25.104L17.3424 25.1025C16.8126 26.6085 16.7471 28.1732 16.6816 29.7379C16.631 30.9444 16.5805 32.1509 16.3172 33.3305Z" fill="white"/>
<path d="M21.2919 23.062C21.5149 21.7282 21.7378 20.3946 22.4113 19.1785L22.3892 19.1575C22.2534 19.1509 22.1621 19.2286 22.0697 19.3071C22.0515 19.3226 22.0333 19.3381 22.0146 19.353C21.0131 20.161 20.2756 21.1921 19.6396 22.2954C18.1894 24.8115 17.0747 27.4364 17.1696 30.4326C17.1957 31.2538 17.2854 31.3141 18.1048 31.1292C19.784 30.7488 21.0716 29.7059 22.3151 28.5934L22.3722 28.5424C24.2221 26.8894 26.0704 25.2378 28.6246 24.7301C27.1887 24.4232 25.7866 24.5333 24.3974 24.9387C23.0174 25.3414 21.7532 26.017 20.3979 26.7503C20.4619 26.535 20.5236 26.3341 20.5823 26.1426C20.706 25.7392 20.8169 25.3778 20.9104 25.0122C21.0731 24.3713 21.1825 23.7166 21.2919 23.062Z" fill="white"/>
<path d="M108.735 21.3262C108.163 20.4831 107.578 19.6221 106.615 19.1484L106.614 19.1497C106.593 19.0972 106.571 19.046 106.51 19.1142C106.522 19.1254 106.534 19.1362 106.547 19.1469C106.559 19.1578 106.572 19.1687 106.584 19.1798L106.614 19.1497L106.586 19.1785C107.003 20.0653 107.368 20.9639 107.513 21.9478C107.654 22.9146 107.839 23.8775 108.046 24.8325C108.136 25.2487 108.259 25.6571 108.394 26.1038C108.458 26.316 108.525 26.5369 108.592 26.7714C105.973 25.2326 103.375 24.1346 100.382 24.7249C101.914 25.045 103.262 25.7495 104.469 26.7254C105.081 27.2206 105.679 27.7329 106.277 28.2453L106.28 28.2477C106.659 28.5721 107.038 28.8965 107.42 29.2166C108.497 30.1178 109.655 30.8747 111.052 31.1738C111.664 31.305 111.798 31.2106 111.815 30.5756L111.816 30.5391C111.834 29.8639 111.852 29.1887 111.731 28.5148C111.269 25.9489 110.282 23.5994 108.825 21.4585C108.798 21.4194 108.772 21.3802 108.745 21.341L108.74 21.333L108.736 21.328L108.735 21.3262Z" fill="white"/>
<path d="M30.9334 19.8358C28.9798 19.7518 27.1575 20.3539 25.321 21.0203C25.8463 20.1102 26.1398 19.1143 26.4358 18.1097C26.8177 16.8135 27.204 15.5027 28.0979 14.3432C27.5698 14.5268 27.2915 14.7407 27.0249 14.961C25.0609 16.5838 23.6991 18.6538 22.6676 20.9626C22.2163 21.974 21.908 23.0327 21.8105 24.1438C21.752 24.8141 21.8742 24.8928 22.5246 24.8469C23.6717 24.7643 24.6889 24.3327 25.654 23.7476C26.1567 23.4424 26.649 23.1152 27.1413 22.7879C28.924 21.603 30.7072 20.4176 32.9871 20.2778C32.3147 19.9814 31.6227 19.8659 30.9334 19.8358Z" fill="white"/>
<path d="M103.105 15.9974C102.551 15.3848 101.976 14.7761 101.167 14.4836C101.125 14.4403 101.081 14.3943 101.031 14.4691C101.027 14.4751 101.048 14.4965 101.069 14.5185C101.08 14.53 101.091 14.5419 101.099 14.5518C101.81 15.5805 102.172 16.7502 102.542 17.9463C102.875 19.0198 103.214 20.1145 103.817 21.1476C102.419 20.5835 101.187 20.1047 99.879 19.9407C98.1192 19.7204 96.8484 19.8568 96.0212 20.2792C96.9642 20.4104 97.8694 20.594 98.7357 20.96C99.7979 21.4075 100.745 22.0448 101.692 22.6825C102.034 22.9123 102.375 23.1424 102.722 23.3633C103.919 24.1241 105.148 24.78 106.614 24.8601C107.094 24.8863 107.228 24.7092 107.193 24.3091C107.155 23.8749 107.104 23.4367 107.001 23.0143C106.347 20.3133 104.942 18.0281 103.105 15.9974Z" fill="white"/>
<path fill-rule="evenodd" clip-rule="evenodd" d="M32.308 13.2429C32.8284 12.1024 33.3488 10.9617 34.2227 10.022L34.2131 10.0103C34.217 10.015 34.2231 10.022 34.224 10.022C34.2493 10.0122 34.275 10.0023 34.3007 9.99248C34.3264 9.98264 34.3521 9.9728 34.3774 9.96297C34.3739 9.95898 34.3697 9.954 34.3654 9.94893C34.3542 9.93563 34.3426 9.92171 34.3397 9.92361C34.2996 9.9456 34.2625 9.97065 34.2248 9.99606L34.2097 10.0063C34.0068 9.97922 33.8412 10.0701 33.677 10.1601C33.6422 10.1792 33.6074 10.1983 33.5724 10.2162C32.1235 10.96 30.9841 12.0868 29.9292 13.2963C28.6364 14.7787 27.5295 16.3896 27.0027 18.3271C26.662 19.5773 26.8961 19.7767 28.2189 19.6206C29.6483 19.4514 30.9216 18.8755 32.182 18.2419C33.4423 17.607 34.7131 17.0101 36.0905 16.6677C36.5948 16.5429 37.1076 16.5305 37.6618 16.517C37.9523 16.51 38.2542 16.5027 38.5721 16.4788C37.5836 15.9908 36.6966 15.7271 35.7588 15.6641C34.3047 15.5684 32.8674 15.6996 31.4549 16.0734C31.4123 16.0847 31.3673 16.1011 31.3216 16.1178C31.1592 16.1771 30.988 16.2395 30.8865 16.0839C30.7928 15.9402 30.8991 15.8208 31.0049 15.7019C31.0488 15.6526 31.0926 15.6034 31.1219 15.5526C31.1638 15.4801 31.2063 15.4078 31.2487 15.3354C31.3221 15.2104 31.3959 15.0845 31.4666 14.9584C31.7781 14.4043 32.0431 13.8236 32.308 13.2429ZM30.7012 16.2319L30.6654 16.2269L30.7018 16.2335L30.7012 16.2319Z" fill="white"/>
<path fill-rule="evenodd" clip-rule="evenodd" d="M97.0709 11.3207C96.4049 10.7461 95.7117 10.1545 94.7869 10.0076C94.7778 9.94467 94.7596 9.90138 94.6919 9.96303L94.7069 9.97272L94.7149 9.97795L94.7528 10.0028L94.7618 10.0086L94.7741 10.0166C95.2866 10.641 95.7923 11.2722 96.1305 12.0133C96.1654 12.0898 96.2002 12.1663 96.235 12.2429L96.2355 12.2439C96.8449 13.5829 97.4543 14.9216 98.2649 16.1548L98.2665 16.157L98.2519 16.1718C98.2584 16.1773 98.265 16.1827 98.2715 16.188L98.2493 16.1705C98.1874 16.1633 98.1249 16.1582 98.0622 16.153C97.9193 16.1413 97.7758 16.1296 97.6393 16.0931C96.1695 15.7048 94.6776 15.533 93.1611 15.6628C92.3026 15.7376 91.4793 15.9527 90.6443 16.3883C90.6923 16.4105 90.7297 16.4309 90.7601 16.4475C90.8104 16.475 90.8419 16.4922 90.8719 16.4906C92.1322 16.425 93.3445 16.6559 94.4942 17.1596C95.417 17.5646 96.3285 17.9977 97.2395 18.4305C97.5264 18.5668 97.8139 18.7034 98.101 18.8387C99.0869 19.3031 100.127 19.5537 101.208 19.6376C102.076 19.7045 102.284 19.4658 102.084 18.6236C101.998 18.2589 101.882 17.8995 101.745 17.5518C100.757 15.0423 99.0739 13.0497 97.0709 11.3207ZM98.3 16.2108C98.3065 16.2161 98.313 16.2215 98.3195 16.2269L98.318 16.2249L98.3 16.2108Z" fill="white"/>
<path d="M93.005 12.5643C90.5897 12.1563 88.4188 12.1747 86.4184 13.4445C86.6629 13.4301 86.9088 13.4143 87.1533 13.3973C88.7975 13.2925 90.298 13.8384 91.7988 14.3844C91.9138 14.4263 92.0289 14.4681 92.144 14.5097C93.2599 14.9124 94.3863 15.2312 95.5946 15.1617C96.5883 15.1053 96.7366 14.9452 96.336 14.0388C95.0405 11.1055 92.8294 9.07483 90.0213 7.66069C89.7963 7.54656 89.5452 7.42063 89.181 7.48097C90.1249 8.23005 90.718 9.21198 91.322 10.2118C91.8117 11.0224 92.3085 11.8447 93.005 12.5643Z" fill="white"/>
<path d="M37.6918 10.2208C38.2532 9.26307 38.8132 8.30787 39.6855 7.56892C39.4308 7.45726 39.2515 7.54181 39.0817 7.62191C39.046 7.63874 39.0108 7.65536 38.9754 7.66993C37.6916 8.20122 36.5977 9.03292 35.604 9.98136C34.306 11.2197 33.1406 12.5696 32.5514 14.3327C32.3758 14.8574 32.5319 15.0843 33.0326 15.1276C33.7987 15.1945 34.5596 15.1854 35.3127 14.9807C36.0937 14.768 36.8542 14.4969 37.6151 14.2257C37.8678 14.1357 38.1209 14.0455 38.3745 13.9575C39.7388 13.4839 41.1423 13.2517 42.599 13.3934C40.5739 12.1616 38.3875 12.1577 36.123 12.4764C36.7645 11.8028 37.2286 11.0109 37.6918 10.2208Z" fill="white"/>
<path d="M111.566 74.4852L111.571 74.4918C111.524 74.8267 111.575 75.1529 111.627 75.4797C111.659 75.6832 111.691 75.8871 111.7 76.0932C111.772 77.9153 111.368 79.6601 110.879 81.3864C110.114 84.0835 109.922 86.7911 110.548 89.5459C110.658 90.0261 110.859 90.1494 111.278 89.9736C111.497 89.8821 111.719 89.7944 111.94 89.7066L111.942 89.7061L111.943 89.7053C112.512 89.4801 113.081 89.2546 113.615 88.9661C117.303 86.9774 119.989 84.0245 121.717 80.1953C122.156 79.2245 122.5 78.2092 122.593 77.1217C121.747 78.5463 120.424 79.4095 119.087 80.2477C118.979 80.316 118.87 80.384 118.761 80.4519C118.691 80.4953 118.621 80.5388 118.551 80.5823C116.953 81.5751 115.347 82.5735 114.046 84.1753C114.691 80.4594 113.728 77.3144 111.571 74.4918L111.573 74.477L111.573 74.4744L111.572 74.4762L111.566 74.471L111.558 74.4644L111.556 74.461C111.556 74.4587 111.555 74.4564 111.554 74.4541C111.553 74.452 111.552 74.4498 111.551 74.4477C111.55 74.4459 111.549 74.4442 111.548 74.4425C111.547 74.4413 111.547 74.4402 111.546 74.4391C111.544 74.436 111.54 74.4341 111.536 74.4328C111.532 74.4317 111.528 74.431 111.524 74.4303C111.521 74.4298 111.517 74.4293 111.515 74.4286C111.524 74.4364 111.534 74.4446 111.544 74.4528L111.558 74.4644L111.558 74.4655L111.56 74.4718L111.562 74.4778L111.564 74.4827L111.565 74.4863C111.565 74.4861 111.566 74.4857 111.566 74.4852Z" fill="white"/>
<path d="M109.336 92.1708C110.878 90.983 112.647 90.2649 114.418 89.5462C114.775 89.4014 115.132 89.2565 115.487 89.1077C116.694 88.6027 117.836 87.9783 118.743 86.9734C118.602 87.7041 118.281 88.3508 117.906 88.9634C115.168 93.4486 111.285 96.3385 106.168 97.5008C104.767 97.8183 104.763 97.8156 104.751 96.3556C104.732 93.7345 105.446 91.2972 106.572 88.9595C107.268 87.5139 107.879 86.0355 108.149 84.4311C108.19 84.1859 108.2 83.9378 108.211 83.6839C108.227 83.2761 108.245 82.8533 108.393 82.403C108.838 83.3147 109.162 84.1884 109.444 85.0804C110.124 87.2371 110.035 89.3924 109.43 91.5464C109.418 91.5876 109.406 91.6285 109.393 91.6693C109.344 91.8272 109.295 91.9841 109.321 92.1551C109.304 92.1773 109.286 92.1995 109.267 92.2217L109.273 92.2182L109.278 92.2148L109.288 92.2018C109.3 92.1871 109.311 92.1724 109.323 92.1577L109.336 92.1708Z" fill="white"/>
<path d="M111.872 97.8461C112.54 97.1249 113.216 96.3959 113.578 95.4439L113.582 95.4418C113.632 95.4202 113.681 95.3986 113.613 95.3376C113.592 95.3638 113.57 95.3887 113.549 95.415L113.578 95.4439L113.545 95.415C112.134 96.4068 110.541 96.9761 108.91 97.4615L108.644 97.5404C106.711 98.1154 104.779 98.6902 102.988 99.6548C102.976 99.6613 102.953 99.6472 102.918 99.6255C102.907 99.6186 102.895 99.6109 102.882 99.6029L102.872 99.5972L102.867 99.5946L102.861 99.5908C102.854 99.5872 102.848 99.5836 102.841 99.5801C104.607 96.2612 104.984 92.7678 104.045 89.0527C104.025 89.1077 104.005 89.1546 103.988 89.1967C103.956 89.2741 103.931 89.3348 103.918 89.3977C103.508 91.2618 102.5 92.8032 101.35 94.2698C101.113 94.5719 100.872 94.8705 100.63 95.1692L100.629 95.1704C99.9302 96.0347 99.2303 96.9 98.6448 97.8511C97.5353 99.6535 97.0515 101.574 97.4664 103.7C97.5561 104.158 97.7629 104.326 98.1544 104.435C99.6593 104.852 101.143 104.746 102.612 104.276C106.251 103.113 109.137 100.82 111.687 98.0465L111.725 98.0045L111.777 97.9491L111.871 97.8474L111.872 97.8461Z" fill="white"/>
<path d="M75.6268 119.806C74.598 120.35 73.5106 120.632 72.3869 120.752C70.0977 120.996 67.9373 120.628 66.0006 119.289C65.7054 119.084 65.626 119.219 65.5558 119.507C65.31 120.508 64.8859 121.434 64.3514 122.31C64.2801 122.427 64.2052 122.542 64.1096 122.69L64.1078 122.692L64.0147 122.836C63.9938 122.868 63.972 122.902 63.9491 122.938L63.9091 123C63.8046 122.284 63.6421 121.642 63.4854 121.023C63.3828 120.617 63.2826 120.222 63.2029 119.821C63.1092 119.353 63.0377 119.247 62.559 119.529C59.5324 121.306 56.4199 121.069 53.2788 119.852C54.6965 119.802 56.0934 119.617 57.4617 119.251C58.6089 118.944 59.6976 118.502 60.651 117.762C62.4888 116.336 62.8439 114.337 61.6161 112.34C60.3882 110.344 58.5595 109.025 56.641 107.801L56.6099 107.781C56.3666 107.627 56.1234 107.472 55.91 107.262C57.4006 107.5 58.7988 107.993 60.1476 108.624C61.049 109.045 61.9399 109.5 62.6943 110.168C63.013 110.45 63.1092 110.262 63.1782 109.972C63.3745 109.153 63.5693 108.333 63.7756 107.465L63.9338 106.799C64.8157 107.964 65.2969 109.23 65.6897 110.591C67.8658 108.747 70.3787 107.81 73.0931 107.303C73.0469 107.332 73.0007 107.361 72.9544 107.39L72.601 107.612L72.5981 107.613C72.4385 107.714 72.2789 107.814 72.1189 107.914C70.419 108.981 68.8439 110.195 67.6446 111.836C65.9642 114.135 66.3323 116.476 68.5941 118.002C69.2172 118.422 69.8935 118.741 70.6011 118.981C72.0409 119.471 73.5198 119.749 75.0415 119.777C75.1834 119.78 75.3253 119.788 75.4672 119.797L75.4684 119.797C75.4974 119.798 75.5263 119.8 75.5553 119.802L75.5942 119.804L75.6268 119.806Z" fill="white"/>
<path d="M86.0984 116.893C85.926 117.137 85.6872 117.232 85.4615 117.322C85.4267 117.336 85.3922 117.35 85.3583 117.364C81.2833 119.074 77.0925 119.694 72.7522 118.618C70.7921 118.133 69.1195 117.137 67.8682 115.491C67.6211 115.166 67.5509 114.878 67.6874 114.465C68.6174 111.642 70.6673 110.038 73.3427 109.099C73.7617 108.951 74.1839 108.812 74.6055 108.672L74.9308 108.565C75.0181 108.536 75.1054 108.507 75.1927 108.478L75.3446 108.428C77.6674 107.662 79.9909 106.896 81.6631 104.886C81.4654 106.19 80.789 107.213 79.9774 108.171C79.5306 108.699 79.0547 109.201 78.5788 109.702C77.9244 110.392 77.2697 111.082 76.6906 111.84C76.2107 112.469 75.7555 113.114 75.3809 113.815C75.2274 114.102 75.2716 114.247 75.5526 114.406C77.8534 115.698 80.2961 116.55 82.9156 116.888C83.9679 117.025 85.0149 117.05 86.0984 116.893Z" fill="white"/>
<path d="M43.0439 117.002L43.0553 117.003C43.138 117.19 43.307 117.254 43.4733 117.318C43.5151 117.333 43.5566 117.349 43.5966 117.367C45.7154 118.308 47.9357 118.824 50.2378 119.04C52.6766 119.266 55.0711 119.144 57.3811 118.255C58.8586 117.687 60.1216 116.811 61.101 115.533C61.3845 115.163 61.4444 114.842 61.2792 114.396C60.807 113.123 60.1463 111.99 59.137 111.072C57.8259 109.879 56.2183 109.284 54.586 108.73C54.2607 108.62 53.9339 108.513 53.6071 108.407L53.6052 108.406C52.2627 107.969 50.9202 107.532 49.6812 106.817C48.7954 106.306 48.0475 105.633 47.2658 104.779C47.2843 104.875 47.2976 104.948 47.3083 105.008C47.3248 105.1 47.3354 105.159 47.3504 105.217C47.751 106.771 48.7525 107.94 49.8099 109.066C49.926 109.189 50.0423 109.313 50.1586 109.436C51.3966 110.749 52.6334 112.06 53.5298 113.657C53.7405 114.035 53.7743 114.24 53.3321 114.48C52.1251 115.134 50.8765 115.679 49.5784 116.112C47.4606 116.819 45.2819 117.093 43.0553 117.003L43.0517 116.994L43.0439 117.002Z" fill="white"/>
<path d="M92.8437 113.505C93.866 113.017 94.8636 112.473 95.7169 111.654C94.1314 111.987 92.5367 111.924 90.9551 111.819C90.4597 111.786 89.9648 111.746 89.4699 111.706C88.3185 111.614 87.1671 111.522 86.01 111.507C85.8178 111.505 85.6265 111.529 85.4298 111.554C85.0877 111.598 84.7293 111.644 84.3204 111.554C85.3415 110.734 86.1622 109.837 86.8724 108.841C87.6007 107.819 88.1847 106.721 88.6009 105.532C89.2188 103.77 89.4789 102.553 89.3241 102C88.2406 103.677 86.7033 104.781 85.0111 105.706L84.8246 105.808C83.8511 106.339 82.8757 106.872 81.922 107.44C79.746 108.735 78.3023 110.568 77.8483 113.131C77.7846 113.49 77.8587 113.708 78.1137 113.944C79.5119 115.239 81.221 115.755 83.0523 115.845C86.5303 116.017 89.7468 114.985 92.8437 113.505Z" fill="white"/>
<path d="M37.3849 111.854C36.0222 111.913 34.6516 111.971 33.2889 111.644C33.8117 112.259 34.4868 112.622 35.1553 112.98C38.524 114.791 42.0631 116.001 45.9352 115.843C47.7887 115.767 49.5173 115.234 50.9207 113.906C51.134 113.704 51.212 113.523 51.16 113.203C50.7334 110.607 49.274 108.76 47.085 107.447C46.3576 107.011 45.6117 106.605 44.8656 106.199L44.8635 106.198L44.8586 106.195C44.7465 106.134 44.6343 106.073 44.5222 106.012L44.3185 105.9C42.5093 104.91 40.8106 103.784 39.6036 102.027C40.0679 105.845 41.6638 109.055 44.7347 111.625C44.3376 111.612 43.9663 111.585 43.6112 111.559L43.61 111.559C42.9805 111.513 42.4018 111.471 41.8199 111.519C41.4359 111.551 41.052 111.585 40.6682 111.62L40.666 111.62L40.6554 111.621L40.6517 111.622C39.6629 111.711 38.6733 111.8 37.6825 111.842L37.3849 111.854Z" fill="white"/>
<path fill-rule="evenodd" clip-rule="evenodd" d="M97.6132 105.942C96.8359 106.007 96.0825 106.178 95.3293 106.349L95.3195 106.351L95.3183 106.352L95.3164 106.352C94.9347 106.439 94.5525 106.526 94.1678 106.598L94.1516 106.583C94.1608 106.559 94.1685 106.532 94.1758 106.506C94.1913 106.451 94.2069 106.396 94.2405 106.356C95.9821 104.246 97.0057 101.821 97.3335 99.1039C97.4038 98.5218 97.4254 97.9336 97.447 97.3456C97.457 97.0735 97.467 96.8015 97.4818 96.5301C97.4704 96.5277 97.459 96.5252 97.4477 96.5227C97.4348 96.5198 97.4219 96.5169 97.409 96.514L97.4076 96.5137L97.4059 96.5133L97.3786 96.5071C97.3635 96.5038 97.3485 96.5005 97.3335 96.4973C96.5115 98.465 95.0456 99.887 93.4666 101.215C93.2314 101.412 92.9941 101.608 92.7569 101.803L92.756 101.804L92.7545 101.805C91.9193 102.493 91.0842 103.181 90.3372 103.972C88.9104 105.485 88.0949 107.245 88.0454 109.358C88.0337 109.853 88.1989 110.119 88.6255 110.332C90.3958 111.215 92.2544 111.275 94.1378 110.904C97.7874 110.185 100.988 108.483 103.893 106.194C103.996 106.113 104.102 106.034 104.209 105.954C104.706 105.583 105.216 105.204 105.47 104.587L105.477 104.585L105.473 104.581L105.47 104.587C104.376 105.007 103.267 105.364 102.09 105.477C101.444 105.538 100.799 105.61 100.153 105.683C99.3074 105.778 98.4608 105.872 97.6132 105.942ZM94.0979 106.651L94.0962 106.653L94.1048 106.646L94.1122 106.64L94.0979 106.651Z" fill="white"/>
<path fill-rule="evenodd" clip-rule="evenodd" d="M34.4222 105.956C34.5642 106.165 34.7064 106.373 34.8458 106.583C34.8458 106.583 34.8354 106.593 34.8308 106.597C34.7686 106.585 34.7062 106.574 34.6438 106.563C34.5054 106.538 34.3671 106.514 34.2319 106.476C32.978 106.126 31.6956 105.958 30.404 105.835C30.0338 105.8 29.6628 105.769 29.2918 105.738L29.2899 105.738C27.3308 105.576 25.3712 105.413 23.5298 104.588L23.529 104.579L23.5287 104.575L23.5222 104.585L23.5298 104.588C23.5609 104.909 23.7886 105.087 24.0051 105.257C24.0573 105.299 24.1089 105.339 24.1569 105.381C27.5595 108.34 31.3821 110.454 35.8941 111.06C37.4953 111.275 39.0743 111.056 40.5258 110.245C40.5403 110.237 40.5548 110.229 40.5692 110.221C40.7762 110.108 40.9691 110.002 40.9472 109.702C40.9349 109.53 40.9297 109.358 40.9245 109.186C40.9164 108.92 40.9083 108.654 40.8744 108.392C40.557 105.952 39.1107 104.22 37.3288 102.707C37.0217 102.447 36.7103 102.19 36.3986 101.933L36.3976 101.933L36.3965 101.932L36.3955 101.931C34.5352 100.398 32.6637 98.8562 31.6214 96.3923C31.4537 99.4029 32.0312 102.065 33.4801 104.511C33.7731 105.006 34.0977 105.481 34.4222 105.956ZM34.8458 106.583C34.864 106.606 34.8835 106.63 34.9043 106.652L34.8955 106.645C34.8883 106.636 34.881 106.627 34.8737 106.618L34.8596 106.6C34.855 106.594 34.8503 106.588 34.8458 106.583Z" fill="white"/>
<path d="M33.0352 111.556L33.0704 111.547L33.0391 111.528L33.0352 111.556Z" fill="white"/>
<path d="M43.0517 116.993L43.0337 116.99L42.9645 116.917L42.9546 116.934C42.9467 116.947 42.939 116.96 42.9307 116.973L43.0337 116.99L43.0439 117.001C43.0439 117.001 43.0436 117.001 43.0439 117.001L43.0452 117L43.047 116.998L43.0487 116.996L43.0501 116.995L43.0517 116.993Z" fill="white"/>
<path d="M44.671 29.4343C44.5968 30.3303 44.632 30.3329 45.5229 30.3329C45.5553 30.3329 45.5881 30.3314 45.6209 30.3298C45.6923 30.3264 45.7639 30.323 45.8325 30.3356C46.4607 30.4484 46.6649 30.1808 46.6675 29.5524C46.6698 29.0332 46.7737 28.5097 46.8761 27.9936C46.8872 27.9372 46.8984 27.8809 46.9094 27.8247C47.6391 24.0939 49.3664 20.8826 52.0457 18.2327C55.0009 15.31 58.579 13.6072 62.6904 13.051C63.9589 12.8795 63.9585 12.8635 63.9275 11.5467L63.9273 11.5398L63.9266 11.5203C63.9254 11.4855 63.924 11.4494 63.9273 11.4152C63.9637 11.0715 63.7869 10.998 63.4812 11.0019C62.6085 11.0124 61.7474 11.141 60.9033 11.3286C55.049 12.6273 50.511 15.8242 47.4037 21.0111C45.8546 23.598 44.9207 26.4119 44.671 29.4343Z" fill="white"/>
<path d="M49.6994 30.2425C51.3938 30.2326 53.0875 30.2339 54.7811 30.2351C55.3454 30.2355 55.9103 30.2359 56.4745 30.2359C57.0695 30.2359 57.6644 30.2344 58.2593 30.2328L58.2619 30.2328H58.265C59.8645 30.2287 61.4639 30.2245 63.0637 30.2503C63.6464 30.2595 63.835 30.1283 63.8311 29.5039C63.8093 26.1296 63.8116 22.7558 63.814 19.3818L63.814 19.3611C63.8147 18.3125 63.8155 17.2639 63.8155 16.2152C63.8155 16.1526 63.8148 16.0904 63.8142 16.0282L63.8142 16.0269C63.8135 15.9645 63.8129 15.9014 63.8129 15.8387C63.8129 15.6288 63.7283 15.5501 63.5059 15.5737C60.1827 15.9226 57.1977 17.119 54.6718 19.3281C51.545 22.062 49.6929 25.5081 49.2116 29.6863C49.1531 30.1834 49.2805 30.2451 49.6994 30.2425Z" fill="white"/>
<path d="M66.0429 38.0472C66.0418 38.6525 66.0408 39.2579 66.0408 39.8633C66.0408 41.953 66.0408 44.0415 66.0421 46.1299C66.0421 46.7991 66.0421 47.1327 66.2047 47.2697C66.3662 47.4059 66.6881 47.3482 67.3298 47.2331C71.566 46.4736 75.0336 44.4337 77.6167 40.9311C79.3349 38.6013 80.3247 35.9869 80.6226 33.0982C80.6746 32.5853 80.5003 32.4659 80.0152 32.4673C75.563 32.483 71.1095 32.4843 66.6573 32.4659C66.1657 32.4633 66.0252 32.5997 66.0304 33.0956C66.0485 34.7442 66.0457 36.3922 66.0429 38.0404V38.0472Z" fill="white"/>
<path d="M58.3508 32.5791C60.0114 32.5814 61.6726 32.5837 63.3329 32.5683C63.7842 32.5644 63.9403 32.6719 63.9377 33.156C63.9195 37.7119 63.9234 42.2666 63.9338 46.8225C63.9351 47.2476 63.874 47.3656 63.3849 47.3145C59.2618 46.8868 55.8307 45.1001 53.0798 42.0029C50.7854 39.4186 49.5276 36.3608 49.1726 32.9146C49.1341 32.5373 49.3415 32.5569 49.535 32.5751C49.577 32.5791 49.6184 32.583 49.6564 32.5827C51.0302 32.5764 52.404 32.5768 53.7784 32.5773H53.7837C54.1278 32.5774 54.4719 32.5775 54.8161 32.5775H56.5577C57.1551 32.5775 57.7533 32.5783 58.3508 32.5791Z" fill="white"/>
<path d="M66.1489 21.2488C66.1488 21.8173 66.1488 22.3857 66.1488 22.954C66.1488 23.5533 66.1492 24.1524 66.1497 24.7515V24.7573C66.1509 26.4331 66.1522 28.1085 66.1436 29.7847C66.1409 30.1638 66.2112 30.3435 66.6482 30.3422C71.142 30.3278 75.6358 30.3278 80.1296 30.3409C80.5575 30.3422 80.6577 30.1913 80.6199 29.7912C80.4821 28.3272 80.1634 26.9052 79.5872 25.5593C77.1212 19.7938 72.8134 16.4644 66.6235 15.6196C66.1404 15.5535 66.143 15.7554 66.1468 16.0443C66.1471 16.0702 66.1475 16.0976 66.1475 16.1247C66.1494 17.8322 66.1492 19.5409 66.1489 21.2488Z" fill="white"/>
<path d="M45.6062 32.5905C45.658 32.5905 45.7102 32.592 45.7623 32.5934C45.8763 32.5965 45.9906 32.5996 46.103 32.5879C46.4737 32.5486 46.6194 32.7099 46.6415 33.0812C46.7586 35.0804 47.2541 36.9943 48.0566 38.8164C50.0909 43.434 53.4284 46.7241 58.0666 48.6525C59.7808 49.3648 61.5614 49.8043 63.4175 49.9066C63.77 49.9263 63.9703 50.0391 63.93 50.4287C63.9211 50.5132 63.9237 50.5983 63.9262 50.6836L63.9273 50.7211C63.9276 50.7304 63.9278 50.7398 63.928 50.7491C63.9284 50.7678 63.9287 50.7865 63.9287 50.8052C63.9287 52.0042 63.9248 52.0344 62.7516 51.8796C56.3029 51.0282 51.2433 47.9165 47.7081 42.3767C45.917 39.5707 44.9181 36.488 44.6437 33.1586C44.6034 32.664 44.7139 32.5197 45.1731 32.5879C45.2689 32.6013 45.3677 32.5977 45.4671 32.594C45.5134 32.5923 45.5599 32.5905 45.6062 32.5905Z" fill="white"/>
<path d="M84.2333 30.333C84.1814 30.333 84.1293 30.3316 84.0771 30.3301C83.9631 30.327 83.8488 30.3239 83.7364 30.3356C83.3774 30.3736 83.25 30.2464 83.2044 29.8607C82.2953 22.0882 78.1787 16.8029 70.973 13.9667C69.5878 13.4223 68.1167 13.1311 66.6248 13.0301C66.2411 13.0038 66.0838 12.8858 66.0721 12.4725L66.0711 12.4392C66.0304 10.9558 66.0299 10.9378 67.5262 11.1332C71.7092 11.6776 75.3692 13.3725 78.5103 16.2191C82.1119 19.4842 84.2112 23.5679 85.0449 28.3456C85.0857 28.5811 85.1066 28.8205 85.1275 29.06C85.1465 29.278 85.1656 29.4961 85.1997 29.7112C85.2777 30.207 85.106 30.413 84.6065 30.3356C84.5229 30.323 84.4375 30.3264 84.3519 30.3298C84.3124 30.3314 84.2727 30.333 84.2333 30.333Z" fill="white"/>
<path d="M66.0832 50.7938C66.0854 50.678 66.0876 50.5612 66.0786 50.4458C66.05 50.0837 66.1905 49.9289 66.5677 49.8974C70.3968 49.5774 73.7941 48.1396 76.7219 45.6655C79.6003 43.2321 81.5734 40.165 82.5983 36.4985C82.9131 35.3703 83.1069 34.2251 83.2188 33.0615C83.2222 33.0268 83.2222 32.9872 83.2221 32.9465C83.222 32.8029 83.2218 32.6451 83.3748 32.6339C83.9302 32.5919 84.4921 32.584 85.0462 32.6234C85.2582 32.6385 85.2304 32.8341 85.2075 32.9958C85.2025 33.0304 85.1978 33.0636 85.1958 33.093C85.1073 34.3209 84.8979 35.5304 84.5818 36.7202C83.6376 40.2647 81.8986 43.3646 79.3285 45.9502C76.3187 48.9765 72.7055 50.9023 68.5017 51.6526C68.2234 51.7025 67.9434 51.7406 67.6634 51.7787C67.3913 51.8157 67.1191 51.8527 66.8486 51.9006C66.2789 52.0016 65.9667 51.8481 66.0799 51.1988C66.0887 51.1427 66.0862 51.0854 66.0836 51.0282C66.0824 51.001 66.0812 50.9739 66.0812 50.9469C66.0812 50.8963 66.0822 50.8456 66.0832 50.7949V50.7938Z" fill="white"/>
<path d="M23.5106 104.573L23.4975 104.57L23.4793 104.557L23.4558 104.54C23.4347 104.525 23.4135 104.509 23.3921 104.494C23.3883 104.502 23.3843 104.51 23.3803 104.517L23.375 104.528C23.3724 104.533 23.3698 104.538 23.3674 104.543C23.3792 104.545 23.391 104.548 23.4028 104.55C23.4177 104.554 23.4325 104.557 23.4473 104.56L23.4682 104.564L23.4975 104.57L23.5059 104.576L23.5195 104.586C23.5195 104.585 23.5213 104.583 23.5232 104.581L23.5254 104.579L23.5273 104.577L23.5106 104.573Z" fill="white"/>
<path d="M14.9286 51.389C14.9315 51.384 14.9344 51.3787 14.9373 51.3734C14.9588 51.3343 14.9806 51.2943 15.0288 51.3601C15.0306 51.3629 15.0097 51.3828 14.9894 51.4021L14.9883 51.4031C14.98 51.4111 14.9714 51.4193 14.965 51.4257C14.965 51.427 14.9286 51.389 14.9286 51.389Z" fill="white"/>
<path d="M16.9424 43.7474L16.9343 43.7568L16.9328 43.7553L16.9312 43.7535C16.9306 43.7528 16.9301 43.7522 16.9299 43.7518C16.9297 43.7514 16.9293 43.7515 16.9299 43.7518C16.9337 43.7503 16.9383 43.7487 16.9424 43.7474Z" fill="white"/>
<path d="M16.9424 43.7474C16.9487 43.7401 16.9549 43.7326 16.9612 43.7252L16.9748 43.7091C16.9795 43.7035 16.9842 43.698 16.9889 43.6926C16.988 43.6973 16.9877 43.7029 16.9875 43.7083C16.987 43.718 16.9866 43.7272 16.9824 43.7306C16.9725 43.7379 16.9596 43.742 16.9469 43.746L16.9424 43.7474Z" fill="white"/>
<path d="M22.4185 19.1182C22.4088 19.131 22.399 19.1438 22.3893 19.1562C22.3893 19.1562 22.4114 19.1785 22.4114 19.1772C22.4185 19.1736 22.4265 19.1704 22.4345 19.1672C22.4735 19.1514 22.5125 19.1356 22.4478 19.0801C22.4381 19.0926 22.4282 19.1055 22.4185 19.1182Z" fill="white"/>
<path d="M105.481 104.574L105.482 104.571C105.49 104.566 105.498 104.56 105.506 104.555L105.525 104.541L105.531 104.537L105.541 104.531C105.538 104.531 105.536 104.531 105.533 104.531L105.529 104.53C105.518 104.529 105.507 104.529 105.502 104.533C105.5 104.535 105.499 104.537 105.497 104.539C105.496 104.541 105.496 104.542 105.495 104.543L105.493 104.546C105.492 104.549 105.491 104.551 105.489 104.554C105.487 104.558 105.486 104.563 105.484 104.567L105.482 104.571L105.472 104.578C105.472 104.579 105.477 104.583 105.477 104.583C105.479 104.58 105.48 104.577 105.481 104.574Z" fill="white"/>
<path fill-rule="evenodd" clip-rule="evenodd" d="M54.2134 62.7428C53.7811 62.7428 53.3904 62.6487 53.0414 62.4606C52.6964 62.2724 52.4247 62.0142 52.2264 61.686C52.0321 61.3537 51.9349 60.9815 51.9349 60.5692L51.9349 60.5578L51.9351 60.5415C51.9004 60.6342 51.856 60.7215 51.802 60.8033C51.6552 61.0275 51.445 61.1996 51.1714 61.3197L52.1054 62.6707H51.0702L50.2671 61.4999H49.3807V62.6707H48.417V58.4676H50.2195C50.5884 58.4676 50.9076 58.5296 51.1773 58.6537C51.451 58.7778 51.6612 58.9539 51.8079 59.1821C51.9424 59.3913 52.0153 59.6357 52.0265 59.9155C52.0744 59.755 52.141 59.6026 52.2264 59.4583C52.4247 59.1261 52.6964 58.8659 53.0414 58.6777C53.3904 58.4896 53.7811 58.3955 54.2134 58.3955C54.6457 58.3955 55.0343 58.4896 55.3794 58.6777C55.7244 58.8659 55.9961 59.1261 56.1944 59.4583C56.3927 59.7866 56.4918 60.1568 56.4918 60.5692C56.4918 60.9815 56.3927 61.3537 56.1944 61.686C55.9961 62.0142 55.7244 62.2724 55.3794 62.4606C55.0343 62.6487 54.6457 62.7428 54.2134 62.7428ZM54.2134 61.9142C54.4593 61.9142 54.6814 61.8581 54.8797 61.746C55.078 61.63 55.2326 61.4698 55.3437 61.2657C55.4587 61.0615 55.5162 60.8294 55.5162 60.5692C55.5162 60.309 55.4587 60.0768 55.3437 59.8726C55.2326 59.6685 55.078 59.5104 54.8797 59.3983C54.6814 59.2822 54.4593 59.2241 54.2134 59.2241C53.9675 59.2241 53.7454 59.2822 53.5471 59.3983C53.3488 59.5104 53.1921 59.6685 53.0771 59.8726C52.9661 60.0768 52.9106 60.309 52.9106 60.5692C52.9106 60.8294 52.9661 61.0615 53.0771 61.2657C53.1921 61.4698 53.3488 61.63 53.5471 61.746C53.7454 61.8581 53.9675 61.9142 54.2134 61.9142ZM50.8263 59.4523C50.977 59.5764 51.0524 59.7565 51.0524 59.9927C51.0524 60.2249 50.977 60.405 50.8263 60.5331C50.6756 60.6612 50.4555 60.7253 50.166 60.7253H49.3807V59.2602H50.166C50.4555 59.2602 50.6756 59.3242 50.8263 59.4523Z" fill="white"/>
<path d="M28.6791 59.2602H30.0116V62.6707H30.9754V59.2602H32.2316V62.6707H33.1953V60.9474H35.0871V62.6707H36.0508V58.4676H35.0871V60.1248H33.1953V58.4676H28.6791V59.2602Z" fill="white"/>
<path d="M39.6655 62.6707V61.8901H37.399V60.9174H39.3324V60.1609H37.399V59.2482H39.5882V58.4676H36.4412V62.6707H39.6655Z" fill="white"/>
<path d="M44.1517 62.6707V61.8901H41.8851V60.9174H43.8185V60.1609H41.8851V59.2482H44.0743V58.4676H40.9273V62.6707H44.1517Z" fill="white"/>
<path d="M44.7816 62.2444C45.1148 62.5767 45.5788 62.7428 46.1737 62.7428C46.7686 62.7428 47.2306 62.5767 47.5598 62.2444C47.893 61.9122 48.0595 61.4378 48.0595 60.8213V58.4676H47.1077V60.7853C47.1077 61.1736 47.0284 61.4598 46.8697 61.644C46.7111 61.8241 46.4811 61.9142 46.1797 61.9142C45.561 61.9142 45.2516 61.5379 45.2516 60.7853V58.4676H44.2879V60.8213C44.2879 61.4378 44.4525 61.9122 44.7816 62.2444Z" fill="white"/>
<path fill-rule="evenodd" clip-rule="evenodd" d="M59.3816 58.6537C59.1119 58.5296 58.7926 58.4676 58.4238 58.4676H56.6212V62.6707H57.585V61.5119H58.4238C58.7926 61.5119 59.1119 61.4518 59.3816 61.3317C59.6552 61.2076 59.8654 61.0315 60.0122 60.8033C60.1589 60.5712 60.2323 60.301 60.2323 59.9927C60.2323 59.6805 60.1589 59.4103 60.0122 59.1821C59.8654 58.9539 59.6552 58.7778 59.3816 58.6537ZM59.0306 60.5331C58.8799 60.6572 58.6598 60.7193 58.3702 60.7193H57.585V59.2602H58.3702C58.6598 59.2602 58.8799 59.3242 59.0306 59.4523C59.1813 59.5764 59.2566 59.7565 59.2566 59.9927C59.2566 60.2249 59.1813 60.405 59.0306 60.5331Z" fill="white"/>
<path fill-rule="evenodd" clip-rule="evenodd" d="M63.5191 61.8901H61.2832V60.9174H63.2166V60.1609H61.2832V59.2482H63.4724V58.4676H60.3254V62.6707H64.1619L64.5307 61.7701H66.4642L66.833 62.6707H68.6333V60.1188L70.7095 62.6707H71.5007V58.4676H70.5489V61.0195L68.4786 58.4676H67.6815V62.3031L65.9823 58.4676H65.0304L63.5191 61.8901ZM66.1608 61.0315L65.5004 59.4223L64.8401 61.0315H66.1608Z" fill="white"/>
<path fill-rule="evenodd" clip-rule="evenodd" d="M73.3914 62.6107C73.7008 62.6987 74.02 62.7428 74.3492 62.7428C74.7299 62.7428 75.0532 62.6847 75.3189 62.5687C75.5846 62.4526 75.7829 62.2965 75.9138 62.1003C76.0366 61.9181 76.1035 61.7192 76.1144 61.5038C76.143 61.5658 76.1747 61.6265 76.2094 61.686C76.4077 62.0142 76.6794 62.2724 77.0244 62.4606C77.3734 62.6487 77.7641 62.7428 78.1964 62.7428C78.6287 62.7428 79.0173 62.6487 79.3624 62.4606C79.7074 62.2724 79.9791 62.0142 80.1774 61.686C80.3757 61.3537 80.4748 60.9815 80.4748 60.5692C80.4748 60.1568 80.3757 59.7866 80.1774 59.4583C79.9791 59.1261 79.7074 58.8659 79.3624 58.6777C79.0173 58.4896 78.6287 58.3955 78.1964 58.3955C77.7641 58.3955 77.3734 58.4896 77.0244 58.6777C76.6794 58.8659 76.4077 59.1261 76.2094 59.4583C76.0151 59.7866 75.9179 60.1568 75.9179 60.5692C75.9179 60.6524 75.9219 60.7339 75.9298 60.8139C75.919 60.8 75.9077 60.7865 75.8959 60.7733C75.7532 60.6092 75.5807 60.4891 75.3784 60.413C75.1761 60.337 74.9163 60.2609 74.5991 60.1849C74.2937 60.1168 74.0656 60.0488 73.9149 59.9807C73.7682 59.9087 73.6948 59.8006 73.6948 59.6565C73.6948 59.5124 73.7583 59.3963 73.8852 59.3082C74.0161 59.2201 74.2164 59.1761 74.486 59.1761C74.8707 59.1761 75.2554 59.2862 75.6401 59.5064L75.9376 58.7678C75.7472 58.6477 75.5251 58.5557 75.2713 58.4916C75.0175 58.4276 74.7577 58.3955 74.492 58.3955C74.1112 58.3955 73.788 58.4536 73.5223 58.5697C73.2605 58.6857 73.0642 58.8439 72.9333 59.044C72.8025 59.2402 72.737 59.4603 72.737 59.7045C72.737 59.9847 72.8084 60.2089 72.9512 60.377C73.0979 60.5451 73.2724 60.6672 73.4747 60.7433C73.677 60.8193 73.9367 60.8954 74.254 60.9715C74.4603 61.0195 74.6229 61.0635 74.7418 61.1036C74.8648 61.1436 74.9639 61.1976 75.0393 61.2657C75.1186 61.3297 75.1583 61.4118 75.1583 61.5119C75.1583 61.648 75.0928 61.758 74.962 61.8421C74.8311 61.9222 74.6288 61.9622 74.3552 61.9622C74.1093 61.9622 73.8634 61.9222 73.6175 61.8421C73.3716 61.7621 73.1594 61.656 72.9809 61.5239L72.6537 62.2564C72.8401 62.4005 73.086 62.5186 73.3914 62.6107ZM78.1964 61.9142C78.4423 61.9142 78.6644 61.8581 78.8627 61.746C79.061 61.63 79.2157 61.4698 79.3267 61.2657C79.4417 61.0615 79.4992 60.8294 79.4992 60.5692C79.4992 60.309 79.4417 60.0768 79.3267 59.8726C79.2157 59.6685 79.061 59.5104 78.8627 59.3983C78.6644 59.2822 78.4423 59.2241 78.1964 59.2241C77.9505 59.2241 77.7284 59.2822 77.5301 59.3983C77.3318 59.5104 77.1751 59.6685 77.0601 59.8726C76.9491 60.0768 76.8936 60.309 76.8936 60.5692C76.8936 60.8294 76.9491 61.0615 77.0601 61.2657C77.1751 61.4698 77.3318 61.63 77.5301 61.746C77.7284 61.8581 77.9505 61.9142 78.1964 61.9142Z" fill="white"/>
<path d="M81.568 59.2482V60.359H83.4954V61.1396H81.568V62.6707H80.6042V58.4676H86.9967V58.5192H87.5644L88.8316 61.5214L89.3122 60.3983L88.509 58.5192H89.5501L89.8313 59.1855L90.1165 58.5192H91.0743L90.3061 60.3105L90.8172 61.5214L92.1022 58.5192H93.06L91.2574 62.7223H90.3056L89.7896 61.515L89.2718 62.7223H88.3199L86.8401 59.2602H85.6642V62.6707H84.7004V59.2602H83.3679V59.2482H81.568Z" fill="white"/>
<path fill-rule="evenodd" clip-rule="evenodd" d="M93.7516 61.7701H95.685L96.0539 62.6707H97.8661V61.4999H98.7525L99.5556 62.6707H100.591L99.6567 61.3197C99.9304 61.1996 100.141 61.0275 100.287 60.8033C100.438 60.5752 100.513 60.305 100.513 59.9927C100.513 59.6805 100.44 59.4103 100.293 59.1821C100.147 58.9539 99.9363 58.7778 99.6627 58.6537C99.393 58.5296 99.0737 58.4676 98.7049 58.4676H96.9024V62.3031L95.2032 58.4676H94.2514L92.3953 62.6707H93.3828L93.7516 61.7701ZM94.7213 59.4223L95.3817 61.0315H94.061L94.7213 59.4223ZM99.5378 59.9927C99.5378 59.7565 99.4624 59.5764 99.3117 59.4523C99.161 59.3242 98.9409 59.2602 98.6514 59.2602H97.8661V60.7253H98.6514C98.9409 60.7253 99.161 60.6612 99.3117 60.5331C99.4624 60.405 99.5378 60.2249 99.5378 59.9927Z" fill="white"/>
<path d="M103.906 61.8901V62.6707H100.682V58.4676H103.829V59.2482H101.64V60.1609H103.573V60.9174H101.64V61.8901H103.906Z" fill="white"/>
<path d="M41.342 69.7983C40.9106 69.7983 40.4957 69.7285 40.0974 69.5889C39.7047 69.4493 39.4005 69.2651 39.1847 69.0362L39.4254 68.5588C39.6356 68.771 39.9149 68.9441 40.2634 69.0781C40.6119 69.2065 40.9714 69.2707 41.342 69.2707C41.862 69.2707 42.252 69.1758 42.512 68.9859C42.7719 68.7905 42.9019 68.5393 42.9019 68.2322C42.9019 67.9977 42.83 67.8107 42.6862 67.6711C42.5479 67.5315 42.3764 67.4255 42.1718 67.3529C41.9671 67.2747 41.6822 67.191 41.3171 67.1016C40.8802 66.99 40.5317 66.8839 40.2717 66.7834C40.0117 66.6773 39.7877 66.5182 39.5996 66.306C39.4171 66.0939 39.3258 65.8063 39.3258 65.4434C39.3258 65.1475 39.4032 64.8795 39.5581 64.6395C39.713 64.3938 39.9509 64.1984 40.2717 64.0532C40.5925 63.9081 40.9908 63.8355 41.4665 63.8355C41.7984 63.8355 42.122 63.883 42.4373 63.9779C42.7581 64.0672 43.0347 64.1928 43.267 64.3547L43.0596 64.8488C42.8162 64.6869 42.5562 64.5669 42.2796 64.4887C42.0031 64.405 41.732 64.3631 41.4665 64.3631C40.9576 64.3631 40.5732 64.4636 40.3132 64.6646C40.0587 64.86 39.9315 65.114 39.9315 65.4267C39.9315 65.6612 40.0006 65.851 40.1389 65.9962C40.2828 66.1357 40.4598 66.2446 40.67 66.3228C40.8857 66.3954 41.1733 66.4763 41.5329 66.5657C41.9588 66.6717 42.3018 66.7778 42.5617 66.8839C42.8272 66.9844 43.0513 67.1407 43.2338 67.3529C43.4164 67.5594 43.5076 67.8414 43.5076 68.1987C43.5076 68.4946 43.4274 68.7654 43.267 69.0111C43.1121 69.2511 42.8715 69.4438 42.5451 69.5889C42.2188 69.7285 41.8177 69.7983 41.342 69.7983Z" fill="white"/>
<path d="M30.7202 64.4217H28.6791V63.8857H33.3753V64.4217H31.3342V69.748H30.7202V64.4217Z" fill="white"/>
<path d="M38.3804 69.748V69.2121H34.8872V67.0346H37.8908V66.507H34.8872V64.4217H38.2559V63.8857H34.2732V69.748H38.3804Z" fill="white"/>
<path d="M45.8099 64.4217H43.7687V63.8857H48.465V64.4217H46.4239V69.748H45.8099V64.4217Z" fill="white"/>
<path d="M49.3629 63.8857H49.9769V69.748H49.3629V63.8857Z" fill="white"/>
<path d="M56.6376 63.8857V69.748H56.1315L52.3977 64.9912V69.748H51.7837V63.8857H52.2898L56.0319 68.6426V63.8857H56.6376Z" fill="white"/>
<path d="M62.5409 66.8169H63.13V69.0529C62.859 69.293 62.5381 69.4773 62.1675 69.6057C61.7969 69.7341 61.4069 69.7983 60.9976 69.7983C60.4168 69.7983 59.8941 69.6699 59.4294 69.413C58.9648 69.1562 58.5997 68.8017 58.3342 68.3495C58.0687 67.8916 57.9359 67.3808 57.9359 66.8169C57.9359 66.253 58.0687 65.7449 58.3342 65.2927C58.5997 64.8349 58.9648 64.4776 59.4294 64.2207C59.8941 63.9639 60.4196 63.8355 61.0059 63.8355C61.4484 63.8355 61.855 63.9081 62.2256 64.0532C62.5962 64.1928 62.9087 64.4022 63.1632 64.6813L62.7815 65.075C62.3224 64.6171 61.7388 64.3882 61.0308 64.3882C60.5606 64.3882 60.1347 64.4943 59.753 64.7065C59.3769 64.913 59.0809 65.2034 58.8652 65.5774C58.6495 65.9459 58.5416 66.3591 58.5416 66.8169C58.5416 67.2747 58.6495 67.6879 58.8652 68.0563C59.0809 68.4248 59.3769 68.7152 59.753 68.9273C60.1292 69.1395 60.5523 69.2456 61.0225 69.2456C61.6199 69.2456 62.126 69.0948 62.5409 68.7933V66.8169Z" fill="white"/>
<path fill-rule="evenodd" clip-rule="evenodd" d="M67.2799 68.182L66.583 69.748H65.9441L68.5992 63.8857H69.2049L71.86 69.748H71.2128L70.5159 68.182H67.2799ZM70.2918 67.6795L68.8979 64.5306L67.504 67.6795H70.2918Z" fill="white"/>
<path fill-rule="evenodd" clip-rule="evenodd" d="M81.6828 68.182L80.9858 69.748H80.347L83.0021 63.8857H83.6078L86.2629 69.748H85.6157L84.9188 68.182H81.6828ZM84.6947 67.6795L83.3008 64.5306L81.9069 67.6795H84.6947Z" fill="white"/>
<path fill-rule="evenodd" clip-rule="evenodd" d="M91.1068 69.748L89.7793 67.8637C89.6299 67.8805 89.4751 67.8889 89.3146 67.8889H87.7547V69.748H87.1407V63.8857H89.3146C90.0559 63.8857 90.6367 64.0644 91.0571 64.4217C91.4774 64.779 91.6876 65.2704 91.6876 65.8957C91.6876 66.3535 91.5715 66.7415 91.3392 67.0598C91.1124 67.3724 90.786 67.5985 90.3601 67.7381L91.7789 69.748H91.1068ZM89.298 67.3613C89.8733 67.3613 90.3131 67.2328 90.6173 66.976C90.9215 66.7192 91.0737 66.3591 91.0737 65.8957C91.0737 65.4211 90.9215 65.0582 90.6173 64.807C90.3131 64.5501 89.8733 64.4217 89.298 64.4217H87.7547V67.3613H89.298Z" fill="white"/>
<path fill-rule="evenodd" clip-rule="evenodd" d="M93.0538 63.8857H95.4186C96.0326 63.8857 96.5746 64.0114 97.0448 64.2626C97.515 64.5083 97.8801 64.8544 98.1401 65.3011C98.4 65.7421 98.53 66.2474 98.53 66.8169C98.53 67.3864 98.4 67.8944 98.1401 68.3411C97.8801 68.7822 97.515 69.1283 97.0448 69.3796C96.5746 69.6252 96.0326 69.748 95.4186 69.748H93.0538V63.8857ZM95.3854 69.2121C95.8943 69.2121 96.3396 69.1116 96.7212 68.9106C97.1029 68.704 97.3988 68.422 97.609 68.0647C97.8192 67.7018 97.9243 67.2859 97.9243 66.8169C97.9243 66.3479 97.8192 65.9348 97.609 65.5774C97.3988 65.2145 97.1029 64.9326 96.7212 64.7316C96.3396 64.525 95.8943 64.4217 95.3854 64.4217H93.6678V69.2121H95.3854Z" fill="white"/>
<path d="M101.427 69.7983C100.996 69.7983 100.581 69.7285 100.183 69.5889C99.7899 69.4493 99.4856 69.2651 99.2699 69.0362L99.5105 68.5588C99.7207 68.771 100 68.9441 100.349 69.0781C100.697 69.2065 101.057 69.2707 101.427 69.2707C101.947 69.2707 102.337 69.1758 102.597 68.9859C102.857 68.7905 102.987 68.5393 102.987 68.2322C102.987 67.9977 102.915 67.8107 102.771 67.6711C102.633 67.5315 102.462 67.4255 102.257 67.3529C102.052 67.2747 101.767 67.191 101.402 67.1016C100.965 66.99 100.617 66.8839 100.357 66.7834C100.097 66.6773 99.8729 66.5182 99.6848 66.306C99.5022 66.0939 99.411 65.8063 99.411 65.4434C99.411 65.1475 99.4884 64.8795 99.6433 64.6395C99.7982 64.3938 100.036 64.1984 100.357 64.0532C100.678 63.9081 101.076 63.8355 101.552 63.8355C101.884 63.8355 102.207 63.883 102.522 63.9779C102.843 64.0672 103.12 64.1928 103.352 64.3547L103.145 64.8488C102.901 64.6869 102.641 64.5669 102.365 64.4887C102.088 64.405 101.817 64.3631 101.552 64.3631C101.043 64.3631 100.658 64.4636 100.398 64.6646C100.144 64.86 100.017 65.114 100.017 65.4267C100.017 65.6612 100.086 65.851 100.224 65.9962C100.368 66.1357 100.545 66.2446 100.755 66.3228C100.971 66.3954 101.258 66.4763 101.618 66.5657C102.044 66.6717 102.387 66.7778 102.647 66.8839C102.912 66.9844 103.136 67.1407 103.319 67.3529C103.502 67.5594 103.593 67.8414 103.593 68.1987C103.593 68.4946 103.513 68.7654 103.352 69.0111C103.197 69.2511 102.957 69.4438 102.63 69.5889C102.304 69.7285 101.903 69.7983 101.427 69.7983Z" fill="white"/>
<path d="M77.797 64.172L76.6696 66.7415L77.7711 69.2638L80.0114 64.172H80.6336L78.0615 70.0343H77.4558L76.3403 67.4919L75.2248 70.0343H74.6191L72.047 64.172H72.7107L74.9344 69.2638L76.0276 66.7792L74.8836 64.172H75.5474L76.358 66.0281L77.1747 64.172H77.797Z" fill="white"/>
<path d="M85.5326 84.4013C86.4063 84.6327 87.3073 84.7485 88.2356 84.7485C89.3277 84.7485 90.256 84.5831 91.0205 84.2524C91.785 83.9107 92.3584 83.4588 92.7406 82.8966C93.1228 82.3344 93.314 81.7061 93.314 81.0117C93.314 80.207 93.101 79.5731 92.6751 79.1102C92.2601 78.6362 91.7632 78.2945 91.1843 78.085C90.6164 77.8646 89.8957 77.6606 89.0219 77.4732C88.2465 77.3079 87.6841 77.1481 87.3346 76.9937C86.9851 76.8394 86.8104 76.6079 86.8104 76.2993C86.8104 75.9906 86.9578 75.7426 87.2527 75.5552C87.5476 75.3568 88.0172 75.2576 88.6615 75.2576C89.6881 75.2576 90.7475 75.5552 91.8396 76.1505L92.8389 73.7199C92.2819 73.3892 91.6376 73.1412 90.9058 72.9758C90.1741 72.7994 89.4315 72.7113 88.6779 72.7113C87.5749 72.7113 86.6411 72.8766 85.8766 73.2073C85.1231 73.538 84.5552 73.9899 84.1729 74.5631C83.7907 75.1253 83.5996 75.7591 83.5996 76.4646C83.5996 77.2693 83.8071 77.9086 84.2221 78.3826C84.6371 78.8566 85.134 79.2038 85.7128 79.4243C86.2916 79.6338 87.0124 79.8322 87.8752 80.0196C88.6615 80.1959 89.2294 80.3668 89.5789 80.5321C89.9393 80.6865 90.1195 80.929 90.1195 81.2597C90.1195 81.888 89.497 82.2021 88.252 82.2021C87.5967 82.2021 86.9305 82.0974 86.2534 81.888C85.5763 81.6785 84.9811 81.403 84.4678 81.0612L83.403 83.4753C83.9491 83.8611 84.6589 84.1698 85.5326 84.4013Z" fill="white"/>
<path d="M32.2184 78.0189V75.4725H37.9684V72.9427H28.9748V84.517H32.2184V80.5487H37.2803V78.0189H32.2184Z" fill="white"/>
<path d="M39.0758 72.9427H42.3194V84.517H39.0758V72.9427Z" fill="white"/>
<path d="M55.1278 72.9427V84.517H52.4575L47.3956 78.3496V84.517H44.2175V72.9427H46.8877L51.9497 79.1102V72.9427H55.1278Z" fill="white"/>
<path fill-rule="evenodd" clip-rule="evenodd" d="M59.8402 82.2683L58.9392 84.517H55.6301L60.6921 72.9427H63.8865L68.9649 84.517H65.5902L64.6892 82.2683H59.8402ZM63.7391 79.8542L62.2647 76.1505L60.7904 79.8542H63.7391Z" fill="white"/>
<path d="M69.4749 72.9427H72.7185V81.9211H78.19V84.517H69.4749V72.9427Z" fill="white"/>
<path d="M79.064 72.9427H82.3076V84.517H79.064V72.9427Z" fill="white"/>
<path d="M93.1615 75.5387H96.6836V84.517H99.9272V75.5387H103.433V72.9427H93.1615V75.5387Z" fill="white"/>
<path d="M56.0327 99.7545V98.0319H52.6191L54.445 96.0482C54.9666 95.4914 55.3182 94.9955 55.4997 94.5605C55.6811 94.1255 55.7718 93.66 55.7718 93.1641C55.7718 92.616 55.6471 92.1419 55.3976 91.7417C55.1557 91.3327 54.8117 91.0195 54.3656 90.802C53.9271 90.5758 53.5547 90.4627 52.965 90.4627C52.2619 90.4627 51.6381 90.615 51.0938 90.9195C50.2377 91.3217 49.6704 92.4725 49.6704 93.1641L51.1505 93.1511C51.3395 92.8466 51.5739 92.6204 51.8536 92.4725C52.1333 92.3159 52.4471 92.2376 52.7949 92.2376C53.2107 92.2376 53.3827 92.3376 53.5944 92.5377C53.8137 92.7291 53.9233 93.0075 53.9233 93.3729C53.9233 93.6252 53.8666 93.8819 53.7532 94.1429C53.6398 94.3952 53.4205 94.6997 53.0954 95.0564L50.0334 98.3842V99.7545H56.0327Z" fill="white"/>
<path fill-rule="evenodd" clip-rule="evenodd" d="M61.3049 99.9111C60.6471 99.9111 60.0612 99.724 59.5471 99.3499C59.033 98.9758 58.6285 98.4364 58.3336 97.7317C58.0463 97.0183 57.9027 96.17 57.9027 95.1869C57.9027 94.2038 58.0463 93.3599 58.3336 92.6552C58.6285 91.9418 59.033 91.398 59.5471 91.0239C60.0612 90.6498 60.6471 90.4627 61.3049 90.4627C61.9627 90.4627 62.5486 90.6498 63.0627 91.0239C63.5768 91.398 63.9775 91.9418 64.2648 92.6552C64.5597 93.3599 64.7071 94.2038 64.7071 95.1869C64.7071 96.17 64.5597 97.0183 64.2648 97.7317C63.9775 98.4364 63.5768 98.9758 63.0627 99.3499C62.5486 99.724 61.9627 99.9111 61.3049 99.9111ZM61.3049 98.1232C61.7888 98.1232 62.1668 97.884 62.439 97.4055C62.7187 96.9269 62.8586 96.1874 62.8586 95.1869C62.8586 94.1864 62.7187 93.4469 62.439 92.9684C62.1668 92.4899 61.7888 92.2506 61.3049 92.2506C60.8286 92.2506 60.4506 92.4899 60.1708 92.9684C59.8986 93.4469 59.7626 94.1864 59.7626 95.1869C59.7626 96.1874 59.8986 96.9269 60.1708 97.4055C60.4506 97.884 60.8286 98.1232 61.3049 98.1232Z" fill="white"/>
<path d="M67.8922 99.7545H69.7294V90.6193H67.8922V99.7545Z" fill="white"/>
<path fill-rule="evenodd" clip-rule="evenodd" d="M77.6748 94.952C78.0679 95.1782 78.3665 95.474 78.5707 95.8394C78.7824 96.2048 78.8882 96.6268 78.8882 97.1053C78.8882 97.6708 78.7484 98.1667 78.4686 98.593C78.1889 99.0106 77.7957 99.3369 77.2892 99.5718C76.7826 99.798 76.1967 99.9111 75.5314 99.9111C74.866 99.9111 74.2801 99.798 73.7735 99.5718C73.2745 99.3369 72.8852 99.0106 72.6054 98.593C72.3333 98.1667 72.1972 97.6708 72.1972 97.1053C72.1972 96.6268 72.2992 96.2048 72.5034 95.8394C72.7151 95.474 73.0137 95.1782 73.3993 94.952C73.1044 94.7432 72.8776 94.4822 72.7188 94.169C72.5601 93.8471 72.4807 93.4817 72.4807 93.0728C72.4807 92.5421 72.6092 92.081 72.8663 91.6895C73.1233 91.2979 73.4825 90.9978 73.9436 90.789C74.4048 90.5715 74.9341 90.4627 75.5314 90.4627C76.1362 90.4627 76.6692 90.5715 77.1304 90.789C77.5992 90.9978 77.9621 91.2979 78.2191 91.6895C78.4762 92.081 78.6047 92.5421 78.6047 93.0728C78.6047 93.4817 78.5253 93.8471 78.3665 94.169C78.2078 94.4822 77.9772 94.7432 77.6748 94.952ZM75.5314 92.0157C75.1609 92.0157 74.8623 92.1201 74.6354 92.3289C74.4162 92.529 74.3066 92.8074 74.3066 93.1641C74.3066 93.5121 74.4162 93.7862 74.6354 93.9863C74.8547 94.1864 75.1533 94.2865 75.5314 94.2865C75.9094 94.2865 76.2118 94.1864 76.4386 93.9863C76.6654 93.7862 76.7788 93.5121 76.7788 93.1641C76.7788 92.8074 76.6654 92.529 76.4386 92.3289C76.2118 92.1201 75.9094 92.0157 75.5314 92.0157ZM75.5314 98.3581C75.9925 98.3581 76.3555 98.2407 76.6201 98.0058C76.8923 97.7622 77.0283 97.4403 77.0283 97.0401C77.0283 96.6398 76.8923 96.3223 76.6201 96.0874C76.3555 95.8525 75.9925 95.735 75.5314 95.735C75.0777 95.735 74.7186 95.8525 74.454 96.0874C74.1894 96.3223 74.0571 96.6398 74.0571 97.0401C74.0571 97.449 74.1894 97.7709 74.454 98.0058C74.7186 98.2407 75.0777 98.3581 75.5314 98.3581Z" fill="white"/>
</svg>
