<svg width="128" height="128" viewBox="0 0 128 128" fill="none" xmlns="http://www.w3.org/2000/svg">
<path d="M103.662 47.3433H22.6109V46.9851H103.662V47.3433Z" fill="white"/>
<path fill-rule="evenodd" clip-rule="evenodd" d="M67.5488 40.4867C67.7252 40.107 67.8134 39.6633 67.8134 39.1556C67.8134 38.6478 67.7252 38.2064 67.5488 37.8313C67.3771 37.4516 67.1218 37.1589 66.783 36.953C66.4442 36.7426 66.0265 36.6374 65.5298 36.6374C65.01 36.6374 64.5784 36.7426 64.2349 36.953C63.8961 37.1635 63.6431 37.4562 63.4761 37.8313C63.309 38.2064 63.2254 38.6455 63.2254 39.1487C63.2254 39.6565 63.309 40.1002 63.4761 40.4798C63.6431 40.8595 63.8961 41.1545 64.2349 41.365C64.5784 41.5754 65.0077 41.6806 65.5229 41.6806C66.0241 41.6806 66.4442 41.5754 66.783 41.365C67.1218 41.1545 67.3771 40.8618 67.5488 40.4867ZM64.2836 40.6171C64.0191 40.2603 63.8868 39.7731 63.8868 39.1556C63.8868 38.538 64.0191 38.0555 64.2836 37.7078C64.5528 37.3556 64.9682 37.1795 65.5298 37.1795C66.0914 37.1795 66.5022 37.3556 66.7621 37.7078C67.022 38.0555 67.152 38.538 67.152 39.1556C67.152 39.7731 67.022 40.2603 66.7621 40.6171C66.5022 40.9693 66.0891 41.1454 65.5229 41.1454C64.9613 41.1454 64.5482 40.9693 64.2836 40.6171Z" fill="white"/>
<path fill-rule="evenodd" clip-rule="evenodd" d="M43.2982 40.9876C43.7577 40.5667 43.9875 39.9423 43.9875 39.1144C43.9875 38.5884 43.8877 38.1492 43.6881 37.797C43.4885 37.4402 43.2054 37.1703 42.8387 36.9874C42.4721 36.8044 42.0381 36.7129 41.5369 36.7129H40.0052V41.612H41.3907C42.2075 41.612 42.8434 41.4038 43.2982 40.9876ZM42.8318 37.7009C43.1613 38.0028 43.3261 38.4809 43.3261 39.135C43.3261 40.4341 42.6531 41.0836 41.3071 41.0836H40.6318V37.2412H41.4464C42.0451 37.2412 42.5069 37.3945 42.8318 37.7009Z" fill="white"/>
<path d="M45.6825 41.612H48.4603V41.0699H46.3091V39.3202H48.335V38.7851H46.3091V37.2549H48.4603V36.7129H45.6825V41.612Z" fill="white"/>
<path d="M53.6447 36.7129L51.8694 41.612H51.2428L49.4675 36.7129H50.1219L51.2428 39.8554C51.317 40.0567 51.3797 40.2465 51.4308 40.4249C51.4818 40.5988 51.5236 40.7657 51.5561 40.9258C51.5886 40.7657 51.6303 40.5965 51.6814 40.4181C51.7324 40.2397 51.7951 40.0476 51.8694 39.8417L52.9833 36.7129H53.6447Z" fill="white"/>
<path d="M54.909 41.612H57.6869V41.0699H55.5356V39.3202H57.5615V38.7851H55.5356V37.2549H57.6869V36.7129H54.909V41.612Z" fill="white"/>
<path d="M59.3693 41.612V36.7129H59.9959V41.063H62.168V41.612H59.3693Z" fill="white"/>
<path fill-rule="evenodd" clip-rule="evenodd" d="M70.8227 36.7129C71.4725 36.7129 71.9459 36.8387 72.2429 37.0903C72.54 37.3419 72.6885 37.6964 72.6885 38.1538C72.6885 38.4237 72.6258 38.6776 72.5005 38.9154C72.3798 39.1487 72.1733 39.3385 71.8809 39.4849C71.5931 39.6313 71.201 39.7045 70.7043 39.7045H70.1334V41.612H69.5069V36.7129H70.8227ZM70.767 37.2412H70.1334V39.1762H70.6347C71.1081 39.1762 71.4609 39.1007 71.6929 38.9497C71.925 38.7988 72.041 38.5426 72.041 38.1812C72.041 37.8656 71.9389 37.63 71.7347 37.4745C71.5305 37.319 71.2079 37.2412 70.767 37.2412Z" fill="white"/>
<path d="M74.3139 41.612H77.0917V41.0699H74.9405V39.3202H76.9664V38.7851H74.9405V37.2549H77.0917V36.7129H74.3139V41.612Z" fill="white"/>
<path fill-rule="evenodd" clip-rule="evenodd" d="M80.1457 36.7129C80.763 36.7129 81.2178 36.8295 81.5102 37.0628C81.8073 37.2915 81.9558 37.6392 81.9558 38.1058C81.9558 38.3665 81.9071 38.5838 81.8096 38.7576C81.7121 38.9314 81.5868 39.0709 81.4337 39.1762C81.2851 39.2768 81.1273 39.3568 80.9603 39.4163L82.3248 41.612H81.5938L80.3894 39.5878H79.4008V41.612H78.7742V36.7129H80.1457ZM80.1109 37.2481H79.4008V39.0664H80.1457C80.5495 39.0664 80.8442 38.9886 81.0299 38.8331C81.2155 38.673 81.3083 38.4397 81.3083 38.1332C81.3083 37.813 81.2109 37.5866 81.0159 37.4539C80.821 37.3167 80.5193 37.2481 80.1109 37.2481Z" fill="white"/>
<path d="M86.036 41.3169C86.3563 41.0745 86.5164 40.736 86.5164 40.3014C86.5164 40.0453 86.463 39.8326 86.3563 39.6633C86.2542 39.4941 86.101 39.35 85.8968 39.231C85.6972 39.1075 85.4512 38.9932 85.1588 38.888C84.8896 38.7873 84.6761 38.6936 84.5183 38.6067C84.3605 38.5197 84.2468 38.4214 84.1772 38.3116C84.1076 38.2018 84.0727 38.0646 84.0727 37.8999C84.0727 37.6849 84.1516 37.5134 84.3094 37.3853C84.4672 37.2527 84.7016 37.1863 85.0126 37.1863C85.2308 37.1863 85.4396 37.2115 85.6392 37.2618C85.8434 37.3121 86.0314 37.3739 86.2031 37.4471L86.398 36.9187C86.2124 36.8364 86.0058 36.7701 85.7784 36.7198C85.551 36.6694 85.3004 36.6443 85.0265 36.6443C84.7156 36.6443 84.4394 36.6946 84.1981 36.7952C83.9613 36.8959 83.7757 37.04 83.6411 37.2275C83.5065 37.4105 83.4392 37.6323 83.4392 37.8931C83.4392 38.2727 83.546 38.5723 83.7595 38.7919C83.9776 39.0115 84.2978 39.1967 84.7202 39.3477C85.0219 39.4529 85.2563 39.5535 85.4234 39.6496C85.5951 39.7411 85.7158 39.8417 85.7854 39.9515C85.855 40.0613 85.8898 40.1962 85.8898 40.3563C85.8898 40.5988 85.7947 40.7909 85.6044 40.9327C85.4187 41.0745 85.1402 41.1454 84.7689 41.1454C84.5044 41.1454 84.2468 41.1157 83.9962 41.0562C83.7502 40.9967 83.5436 40.9304 83.3765 40.8572V41.4473C83.5343 41.5205 83.7316 41.5777 83.9683 41.6188C84.205 41.66 84.4626 41.6806 84.7411 41.6806C85.2841 41.6806 85.7158 41.5594 86.036 41.3169Z" fill="white"/>
<path fill-rule="evenodd" clip-rule="evenodd" d="M64.7579 28.3076C64.9342 27.9279 65.0224 27.4842 65.0224 26.9765C65.0224 26.4687 64.9342 26.0273 64.7579 25.6522C64.5861 25.2725 64.3309 24.9798 63.992 24.7739C63.6532 24.5635 63.2355 24.4583 62.7389 24.4583C62.2191 24.4583 61.7874 24.5635 61.444 24.7739C61.1051 24.9844 60.8522 25.2771 60.6851 25.6522C60.518 26.0273 60.4345 26.4664 60.4345 26.9696C60.4345 27.4773 60.518 27.9211 60.6851 28.3007C60.8522 28.6804 61.1051 28.9754 61.444 29.1858C61.7874 29.3963 62.2167 29.5015 62.7319 29.5015C63.2332 29.5015 63.6532 29.3963 63.992 29.1858C64.3309 28.9754 64.5861 28.6827 64.7579 28.3076ZM61.4927 28.438C61.2281 28.0812 61.0959 27.594 61.0959 26.9765C61.0959 26.3589 61.2281 25.8763 61.4927 25.5287C61.7619 25.1765 62.1773 25.0004 62.7389 25.0004C63.3005 25.0004 63.7112 25.1765 63.9712 25.5287C64.2311 25.8763 64.361 26.3589 64.361 26.9765C64.361 27.594 64.2311 28.0812 63.9712 28.438C63.7112 28.7902 63.2982 28.9663 62.7319 28.9663C62.1703 28.9663 61.7573 28.7902 61.4927 28.438Z" fill="white"/>
<path d="M57.3076 29.4329H57.9342V25.0758H59.4798V24.5338H55.7551V25.0758H57.3076V29.4329Z" fill="white"/>
<path fill-rule="evenodd" clip-rule="evenodd" d="M68.0317 24.5338C68.6815 24.5338 69.1549 24.6596 69.452 24.9112C69.749 25.1628 69.8975 25.5173 69.8975 25.9747C69.8975 26.2446 69.8349 26.4985 69.7096 26.7363C69.5889 26.9696 69.3824 27.1594 69.09 27.3058C68.8022 27.4522 68.41 27.5254 67.9134 27.5254H67.3425V29.4329H66.7159V24.5338H68.0317ZM67.976 25.0621H67.3425V26.997H67.8438C68.3172 26.997 68.6699 26.9216 68.902 26.7706C69.134 26.6197 69.2501 26.3635 69.2501 26.0021C69.2501 25.6865 69.148 25.4509 68.9438 25.2954C68.7395 25.1399 68.417 25.0621 67.976 25.0621Z" fill="white"/>
<path d="M22.6109 80.6567H103.662V80.2985H22.6109V80.6567Z" fill="white"/>
<path d="M55.9317 92.5748C56.5708 92.3023 56.8903 91.9315 56.8903 91.4625C56.8903 90.7991 56.5334 90.4674 55.8195 90.4674C55.1057 90.4674 54.7487 90.7991 54.7487 91.4625H54.2388C54.2388 90.4641 54.7657 89.9649 55.8195 89.9649C56.8733 89.9649 57.4002 90.4641 57.4002 91.4625C57.4002 92.1594 56.9674 92.6909 56.1017 93.0572L55.4524 93.3353C54.9833 93.5252 54.7487 93.9093 54.7487 94.4878H57.4002V94.9904H54.2388V94.4878C54.2388 93.6882 54.5867 93.1421 55.2824 92.8495L55.9317 92.5748Z" fill="white"/>
<path fill-rule="evenodd" clip-rule="evenodd" d="M59.1227 92.4776C59.1227 90.8025 59.6836 89.9649 60.8054 89.9649C61.9272 89.9649 62.4881 90.8025 62.4881 92.4776C62.4881 94.1528 61.9272 94.9904 60.8054 94.9904C59.6836 94.9904 59.1227 94.1528 59.1227 92.4776ZM61.9782 92.4776C61.9782 91.1375 61.5872 90.4674 60.8054 90.4674C60.0235 90.4674 59.6326 91.1375 59.6326 92.4776C59.6326 93.8178 60.0235 94.4878 60.8054 94.4878C61.5872 94.4878 61.9782 93.8178 61.9782 92.4776Z" fill="white"/>
<path d="M64.1216 91.3081V90.7661L65.3887 89.9701H65.7159V94.3821H66.809V94.8555H64.0451V94.3821H65.1381V90.6697L64.1216 91.3081Z" fill="white"/>
<path fill-rule="evenodd" clip-rule="evenodd" d="M69.0852 93.7121L68.4982 93.7657C68.5479 94.152 68.6961 94.4524 68.9427 94.6668C69.1893 94.879 69.5071 94.9851 69.8962 94.9851C70.2627 94.9851 70.5816 94.8879 70.8531 94.6936C71.1268 94.4993 71.3327 94.2168 71.4707 93.8461C71.6087 93.4731 71.6777 92.9728 71.6777 92.3453C71.6777 91.7423 71.6075 91.2822 71.4673 90.9651C71.3293 90.6457 71.1257 90.4001 70.8565 90.2281C70.5895 90.0561 70.2943 89.9701 69.9708 89.9701C69.5229 89.9701 69.1497 90.122 68.8511 90.4258C68.5547 90.7295 68.4065 91.1304 68.4065 91.6284C68.4065 92.1108 68.5491 92.4994 68.8341 92.7942C69.1191 93.089 69.4675 93.2364 69.8792 93.2364C70.1258 93.2364 70.3543 93.1772 70.5647 93.0588C70.7773 92.9382 70.9447 92.7819 71.0669 92.5898C71.0691 92.6434 71.0703 92.6836 71.0703 92.7104C71.0703 92.9606 71.0397 93.2062 70.9786 93.4474C70.9176 93.6886 70.8418 93.8807 70.7513 94.0236C70.6608 94.1643 70.5443 94.2771 70.4018 94.362C70.2615 94.4468 70.0975 94.4893 69.9098 94.4893C69.6903 94.4893 69.5105 94.4279 69.3702 94.305C69.23 94.1822 69.135 93.9846 69.0852 93.7121ZM70.7174 90.7741C70.9051 90.9774 70.999 91.2521 70.999 91.5982C70.999 91.9444 70.9074 92.2158 70.7241 92.4123C70.5432 92.6066 70.3113 92.7037 70.0285 92.7037C69.748 92.7037 69.5116 92.6066 69.3193 92.4123C69.1293 92.2158 69.0343 91.9612 69.0343 91.6485C69.0343 91.3001 69.135 91.0165 69.3363 90.7976C69.5376 90.5787 69.774 90.4693 70.0455 90.4693C70.3079 90.4693 70.5319 90.5709 70.7174 90.7741Z" fill="white"/>
<path fill-rule="evenodd" clip-rule="evenodd" d="M116.746 35.791V92.209L63.4999 120.418L10.2534 92.209V35.791L63.4999 7.58209L116.746 35.791ZM63.4999 12.869L112.021 38.5747V50.5672H14.9783V38.5747L63.4999 12.869ZM14.9783 89.4253V77.4328H112.021V89.4253L63.4999 115.131L14.9783 89.4253ZM52.3185 56.2985H49.7103V72.1686H52.3185V56.2985ZM58.6688 69.8216C59.3492 69.8216 61.3904 69.5981 61.3904 67.1394V61.4395H63.9985V72.1686H61.3904V71.2745C60.71 71.9451 59.576 72.1686 58.6688 72.1686C57.4214 72.1686 56.4008 71.8333 55.607 71.051C54.6999 70.2687 54.2463 68.9275 54.2463 67.4746V61.4395H56.8544V67.5864C56.8544 68.3687 57.0812 69.8216 58.6688 69.8216ZM69.1015 57.5278H66.4933V61.4395H64.5656V63.8982H66.4933V72.1686H69.1015V63.8982H71.0293V61.4395H69.1015V57.5278ZM77.0393 69.7099C77.8331 69.7099 78.6269 69.3746 79.1939 68.9275L79.5341 68.5922L81.3485 70.3804L80.8949 70.7157C79.8743 71.6098 78.5135 72.1686 77.0393 72.1686C73.8642 72.1686 71.4828 69.8216 71.4828 66.6923C71.4828 63.563 73.8642 61.216 77.0393 61.216C78.5135 61.216 79.8743 61.7748 80.8949 62.6689L81.3485 63.0042L79.5341 64.6806L79.1939 64.3453C78.6269 63.7865 77.8331 63.563 77.0393 63.563C75.225 63.563 73.9776 64.7924 73.9776 66.5805C73.9776 68.3687 75.225 69.7099 77.0393 69.7099ZM90.5338 62.3336C89.7401 61.5513 88.9463 61.216 87.6989 61.216C86.7917 61.216 85.8845 61.4395 85.2041 62.1101V56.2985H82.5959V72.1686H85.2041V66.2453C85.2041 63.7865 86.9051 63.563 87.5855 63.563C89.0778 63.563 89.0671 64.8467 89.0605 65.6506C89.0601 65.7019 89.0597 65.7513 89.0597 65.7982V72.0568H91.6678V65.91C91.6678 64.4571 91.3276 63.1159 90.5338 62.3336ZM78.7404 66.6924C78.7404 67.6799 77.9281 68.4805 76.9261 68.4805C75.924 68.4805 75.1117 67.6799 75.1117 66.6924C75.1117 65.7048 75.924 64.9042 76.9261 64.9042C77.9281 64.9042 78.7404 65.7048 78.7404 66.6924ZM46.0815 68.2569C45.1744 69.151 43.8136 69.7098 42.3394 69.7098C39.5044 69.7098 37.4632 67.4746 37.4632 64.457C37.4632 61.4395 39.5044 59.2042 42.4528 59.2042C43.8136 59.2042 45.1744 59.763 46.1949 60.7689L46.5351 61.1042L48.2361 59.4278L47.8959 59.0925C46.4217 57.6396 44.494 56.8573 42.4528 56.8573C38.1436 56.7455 34.9685 60.0983 34.9685 64.457C34.9685 68.8157 38.1436 72.1685 42.3394 72.1685C44.3806 72.1685 46.4217 71.3862 47.7825 69.9333L48.1227 69.598L46.4217 67.9216L46.0815 68.2569Z" fill="white"/>
<path fill-rule="evenodd" clip-rule="evenodd" d="M120 34V94L63.5 124L7 94V34L63.5 4L120 34ZM63.5 5.22066L118.91 34.6417V93.3583L63.5 122.779L8.09037 93.3583V34.6417L63.5 5.22066Z" fill="white"/>
</svg>
