<svg width="128" height="128" viewBox="0 0 128 128" fill="none" xmlns="http://www.w3.org/2000/svg">
<path d="M52.9699 15.0765C52.8187 14.164 53.0069 13.6413 53.96 13.4588C54.8884 13.2825 55.2277 12.1195 54.6324 11.371C54.2314 10.8668 54.0525 10.4987 54.4442 9.82133C54.8452 9.13157 55.2987 9.12538 55.9156 9.2058C56.7576 9.31715 57.6737 8.38922 57.3529 7.61595C56.9621 6.68071 57.4805 6.33127 58.0271 5.96282C58.1059 5.90967 58.1855 5.85606 58.2629 5.8003C58.556 5.58852 58.7792 5.742 58.9951 5.89054C59.0473 5.92641 59.099 5.96199 59.1512 5.99207C60.2123 6.60451 61.1715 6.19003 61.406 5.01156C61.4954 4.55997 61.591 4.16405 62.1925 4.10528C62.3002 4.09489 62.4054 4.07694 62.5082 4.05942C62.9556 3.98311 63.3558 3.91487 63.707 4.51357C64.3208 5.55595 65.5052 5.54667 66.1252 4.47645C66.46 3.90095 66.8263 3.97424 67.2227 4.05355C67.3376 4.07654 67.455 4.10003 67.5749 4.10837C68.1487 4.14859 68.3091 4.49501 68.3985 4.97444C68.6268 6.17766 69.6292 6.67565 70.6255 5.99207C71.1703 5.61747 71.4991 5.82265 71.8871 6.06479C71.9604 6.11055 72.0359 6.15768 72.1153 6.2024C72.686 6.52718 72.6119 6.93237 72.504 7.41181C72.251 8.52223 72.979 9.33262 74.1264 9.17796C74.7094 9.10064 75.0487 9.2522 75.3263 9.80896L75.3414 9.83943C75.5866 10.3336 75.7614 10.6859 75.317 11.2163C74.5305 12.1535 74.8759 13.1619 76.0141 13.5238C76.8624 13.796 76.8624 13.796 76.8685 15.225C76.6003 15.1234 76.3341 15.0201 76.0689 14.9172L76.0676 14.9167L76.0662 14.9162C75.4599 14.681 74.8585 14.4477 74.2498 14.2414C73.9771 14.1494 73.9236 13.9555 73.8698 13.7609C73.8567 13.7134 73.8436 13.6658 73.8272 13.6197C72.4238 9.7007 69.0308 7.20766 65.021 7.16436C60.971 7.12105 57.4886 9.54914 56.0297 13.4836C55.8569 13.9506 55.6194 14.1269 55.166 14.2445C54.4196 14.4455 53.6762 14.6744 52.9699 15.0765Z" fill="white"/>
<path d="M6.91912 63.1883C5.79933 61.8388 4.67297 60.4814 4.26568 58.5624C3.89863 60.0161 3.9634 61.2998 4.15155 62.5803C4.81164 67.1148 6.77954 70.9193 10.3792 73.8299C10.8418 74.2042 11.0701 74.13 11.3415 73.6629C12.1712 72.2401 12.8221 70.7523 13.1675 69.1253C13.3791 68.1245 13.4587 67.1093 13.5384 66.0939C13.6109 65.1699 13.6834 64.2456 13.8554 63.332C14.0018 62.5532 14.2664 61.8168 14.5328 61.0756C14.6537 60.7394 14.7749 60.4021 14.8856 60.0595C12.1281 61.739 10.447 64.1764 9.7715 67.5602C9.06516 65.9704 8.21384 64.7641 7.27306 63.6165C7.15595 63.4737 7.0379 63.3314 6.91978 63.1891L6.91912 63.1883Z" fill="white"/>
<path d="M119.012 85.8281C120.622 83.867 121.911 81.7328 122.436 79.2026C122.649 78.9521 122.673 78.6861 122.485 78.3242C122.429 78.4449 122.382 78.5435 122.339 78.6336L122.338 78.6357C122.319 78.6748 122.301 78.7124 122.284 78.7494C122.272 78.7728 122.262 78.7959 122.251 78.8191L122.252 78.8221L122.248 78.8222C121.797 79.4284 121.279 79.9759 120.678 80.4244C119.95 80.9661 119.178 81.4455 118.402 81.9278C116.895 82.8638 115.371 83.8106 114.117 85.2435C114.663 80.5698 113 77.6097 111.39 75.76C111.936 78.2314 111.421 80.5327 110.764 82.8247C110.052 85.3115 109.866 87.8293 110.369 90.3842C110.564 91.374 110.693 91.4544 111.662 91.1018C114.601 90.0347 117.032 88.2376 119.012 85.8281Z" fill="white"/>
<path d="M22.6153 90.4986C21.5697 88.3551 20.7184 86.1683 20.7276 83.5021C19.0435 86.7776 18.5932 89.914 19.6265 93.2546C18.2458 92.1883 16.6583 91.5735 15.0775 90.9614C13.4163 90.3181 11.7624 89.6776 10.3637 88.5191C11.0022 90.3285 12.0201 91.8256 13.257 93.1742C15.9713 96.1312 19.2779 98.0489 23.2292 98.8067C24.2039 98.9954 24.2655 98.9057 24.2964 97.8695C24.3766 95.262 23.7474 92.8216 22.6153 90.4986Z" fill="white"/>
<path d="M103.99 90.146C104.95 93.8175 104.629 97.2602 103.019 100.659C104.463 99.9105 106.017 99.4604 107.579 99.0078C109.72 98.3875 111.878 97.7625 113.793 96.357C112.948 97.9685 111.834 99.1593 110.662 100.298C108.185 102.698 105.462 104.702 102.06 105.596C100.823 105.921 99.5827 105.973 98.3304 105.68C97.7536 105.543 97.4668 105.281 97.3557 104.616C96.8437 101.56 98.2441 99.2212 100.039 97.0034C100.202 96.8023 100.367 96.602 100.531 96.4017C101.753 94.9142 102.977 93.4239 103.58 91.5348C103.672 91.2494 103.755 90.9611 103.847 90.6398L103.848 90.6365C103.893 90.4818 103.94 90.3194 103.99 90.146Z" fill="white"/>
<path d="M29.7556 106.88C27.598 106.707 25.423 106.534 23.3124 105.581C23.3782 105.677 23.4249 105.748 23.4609 105.803C23.5212 105.895 23.5514 105.941 23.59 105.98C26.7054 109.011 30.379 111.046 34.6171 111.983C36.5696 112.413 38.5344 112.398 40.4005 111.473C40.8601 111.247 41.0884 110.978 41.039 110.437C40.8786 108.698 40.3944 107.102 39.2562 105.735C38.6794 105.042 38.0378 104.421 37.35 103.839C37.0158 103.555 36.6765 103.277 36.3371 102.998C34.4712 101.464 32.6048 99.9308 31.5974 97.5911C31.437 101.334 32.4209 104.684 34.7251 107.647C33.1048 107.147 31.4354 107.014 29.7556 106.88Z" fill="white"/>
<path d="M89.4008 103.063C88.9875 106.87 87.4052 110.09 84.2775 112.732C86.074 112.499 87.8223 112.644 89.5499 112.788C91.7048 112.967 93.8274 113.143 95.9708 112.58C95.5475 113.115 95.0165 113.416 94.4956 113.712L94.4031 113.765C94.3704 113.783 94.3378 113.802 94.3052 113.821C91.1837 115.624 87.8524 116.787 84.2343 116.957C82.0721 117.059 80.0116 116.663 78.2504 115.247C77.8093 114.894 77.7013 114.535 77.8155 114.009C78.3152 111.677 79.623 109.926 81.631 108.702C82.5632 108.133 83.5222 107.609 84.4795 107.086C84.6466 106.995 84.8139 106.903 84.9808 106.812C86.7019 105.868 88.2781 104.761 89.4008 103.063Z" fill="white"/>
<path d="M39.5122 103.193C40.0304 106.836 41.5171 109.945 44.2808 112.382C44.1334 112.551 43.949 112.539 43.764 112.527C43.6255 112.517 43.4867 112.508 43.3628 112.575L43.3586 112.574C42.0672 112.559 40.779 112.669 39.4902 112.78C37.3989 112.959 35.3058 113.139 33.1952 112.781C36.8256 115.33 40.8015 116.864 45.2463 116.96C47.1926 117.003 49.0402 116.57 50.6256 115.321C51.0976 114.95 51.2857 114.551 51.1377 113.935C50.7151 112.16 49.8823 110.647 48.4542 109.49C47.3808 108.618 46.1685 107.965 44.9502 107.331C42.9452 106.289 41.0298 105.138 39.725 103.208C39.7079 103.182 39.6446 103.186 39.5848 103.19C39.5588 103.192 39.5327 103.194 39.5122 103.193Z" fill="white"/>
<path d="M79.7772 109.564C80.6933 108.531 81.4922 107.427 81.7544 105.828C80.1042 107.792 78.0129 108.677 75.8044 109.36C75.0949 109.577 74.3886 109.812 73.6853 110.05C70.9771 110.969 68.7532 112.435 67.7323 115.293C67.5318 115.85 67.5441 116.267 67.9513 116.753C68.8766 117.86 69.9809 118.695 71.3103 119.221C74.9777 120.666 78.6915 120.387 82.4114 119.475C83.6791 119.165 84.9345 118.794 86.1868 117.984C81.9826 118.052 79.0431 117.353 75.9308 115.689C75.2954 115.349 75.243 115.089 75.607 114.501C76.4446 113.14 77.5235 111.99 78.603 110.839C78.9982 110.418 79.3937 109.996 79.7772 109.564Z" fill="white"/>
<path d="M63.0315 111.467C60.9217 109.855 58.6546 108.909 56.2024 108.377C56.0019 108.207 55.7983 108.089 55.5269 108.355C55.5884 108.382 55.647 108.408 55.7035 108.433C55.8073 108.479 55.9045 108.522 56.0017 108.564L56.0019 108.565C56.1025 108.628 56.2037 108.689 56.305 108.75L56.3086 108.752C56.5135 108.876 56.7185 108.999 56.918 109.131C58.778 110.356 60.567 111.665 61.7021 113.657C62.6922 115.398 62.467 117.087 61.0913 118.405C60.3418 119.122 59.4473 119.589 58.4849 119.948C56.807 120.57 55.0488 120.752 53.0346 120.907C56.5911 122.212 59.8329 122.342 63.0191 120.359C63.3245 121.566 63.6206 122.735 63.9414 124C64.6817 122.97 65.203 121.959 65.4929 120.861C65.6595 120.223 65.8044 120.273 66.298 120.567C69.3393 122.382 72.47 122.144 75.8907 120.895C73.4262 120.724 71.2393 120.474 69.2437 119.41C68.1579 118.831 67.2326 118.08 66.8069 116.886C66.227 115.25 66.9303 113.898 67.8865 112.651C69.0339 111.157 70.5361 110.069 72.1091 109.063C72.1684 109.025 72.2333 108.992 72.3003 108.957C72.5367 108.835 72.7985 108.7 72.9235 108.299C70.2523 108.952 67.8279 109.865 65.7119 111.625C65.2893 110.273 64.8082 109.026 63.9291 107.876C63.7737 108.496 63.6253 109.09 63.478 109.68L63.4706 109.71C63.3251 110.293 63.1805 110.872 63.0315 111.467Z" fill="white"/>
<path d="M45.7305 117.996C48.2999 117.672 50.7151 116.883 53.0223 115.701C53.741 115.333 53.7101 115.058 53.3277 114.442C52.423 112.993 51.2671 111.769 50.1086 110.543L50.1055 110.54C49.9497 110.375 49.7939 110.21 49.6386 110.044C48.5714 108.909 47.6183 107.699 47.2512 106.131C47.2683 106.124 47.2894 106.112 47.3102 106.101C47.3497 106.079 47.3881 106.058 47.3962 106.066C49.2191 108.092 51.6836 108.893 54.1697 109.679C56.1376 110.301 58.0932 110.969 59.5645 112.543C59.9562 112.961 60.3295 113.391 60.5855 113.904L60.6641 114.06C60.6934 114.118 60.722 114.175 60.7498 114.229C61.7392 116.183 61.7737 116.251 59.7403 118.002C58.2228 119.308 56.3381 119.877 54.3887 120.081C50.7028 120.468 47.1217 119.96 43.6979 118.497C43.6286 118.468 43.5657 118.424 43.5026 118.38C43.4674 118.355 43.4321 118.331 43.3956 118.309L43.3525 118.292L43.3102 118.276L43.279 118.263C43.239 118.248 43.199 118.232 43.159 118.216L43.158 118.216L43.157 118.215L43.156 118.215L43.155 118.214L43.0736 118.182L43.0118 118.158L42.972 118.142L42.9352 118.128L42.9144 118.12C42.9144 118.086 42.9163 118.054 42.9171 118.022L42.9174 118.009L42.9174 118.002L42.9175 117.993C43.8552 117.996 44.7929 117.996 45.7305 117.996Z" fill="white"/>
<path d="M26.0484 100.629C22.6647 99.8151 17.1589 97.6746 15.2989 96.6013C15.3465 96.6785 15.3928 96.7566 15.4392 96.8348C15.5582 97.0355 15.6773 97.2363 15.8171 97.421C18.1983 100.625 21.1379 103.168 24.7714 104.844C26.4679 105.627 28.2476 106.122 30.1538 105.748C31.5573 105.472 31.5943 105.37 31.6992 103.957C31.8935 101.312 30.7306 99.215 29.1421 97.2663C29.0374 97.1381 28.9323 97.01 28.8273 96.8819C27.2252 94.9281 25.6237 92.9752 25.0274 90.412C25.0229 90.394 24.9806 90.3825 24.9449 90.3728C24.9317 90.3692 24.9194 90.3659 24.9102 90.3625C24.0774 93.8794 24.3519 97.2942 26.0484 100.629Z" fill="white"/>
<path d="M97.3804 97.4334C97.5809 101.386 96.5445 104.681 94.0461 107.771C95.8126 107.216 97.5909 107.053 99.3595 106.891C101.417 106.703 103.462 106.515 105.459 105.714C105.136 106.409 104.652 106.77 104.201 107.106C104.122 107.165 104.044 107.223 103.969 107.282C100.921 109.67 97.5778 111.47 93.7099 112.098C92.0689 112.364 90.4341 112.286 88.8672 111.621C88.2565 111.362 87.9511 111.021 87.9881 110.282C88.0838 108.47 88.7192 106.908 89.8851 105.543C90.7276 104.553 91.7287 103.737 92.7309 102.919L92.957 102.735C93.8321 102.021 94.706 101.309 95.4649 100.468C96.2176 99.6295 96.8252 98.6953 97.3804 97.4334Z" fill="white"/>
<path d="M118.778 88.2314C118.102 90.2141 117.059 91.6957 115.841 93.0505C113.139 96.0538 109.823 98.0056 105.847 98.7974C105.147 98.9366 104.725 98.9645 104.7 97.9623C104.638 95.3857 105.187 92.9731 106.282 90.6719C107.337 88.4603 108.33 86.2364 108.201 83.5979C109.903 86.0198 110.36 90.1893 109.296 92.9731C109.802 93.0041 117.572 89.1624 118.778 88.2314Z" fill="white"/>
<path d="M14.79 84.563C14.5031 81.3554 15.3822 78.5005 17.3624 75.9425C17.3624 76.2028 17.3612 76.4583 17.3601 76.7105C17.3575 77.2674 17.3549 77.8082 17.3655 78.3489C17.391 79.8069 17.7586 81.1977 18.1263 82.5885C18.2937 83.2218 18.4611 83.8552 18.5962 84.4949C19.0404 86.5952 18.9448 88.6613 18.5407 90.743C18.3988 91.4822 17.9886 91.3554 17.492 91.1791C14.8794 90.245 12.6339 88.7418 10.7462 86.7189C8.59939 84.4145 7.0263 81.7854 6.36622 78.6211C6.41015 78.6337 6.45302 78.642 6.49193 78.6496C6.56773 78.6643 6.62863 78.6761 6.65308 78.7108C7.61368 80.1134 9.01804 80.967 10.4229 81.821L10.5118 81.8751C11.9705 82.7626 13.4107 83.678 14.5826 84.9489C14.7137 84.9093 14.731 84.8094 14.7485 84.7088C14.7573 84.6578 14.7662 84.6065 14.79 84.563Z" fill="white"/>
<path d="M15.4902 68.2283C14.6966 70.3329 14.8709 72.4667 15.0447 74.596C15.0973 75.2394 15.1498 75.8824 15.1755 76.524C15.2588 78.5964 14.8671 80.5543 14.1176 82.472C13.8793 83.0822 13.5877 82.9157 13.2452 82.7202L13.2432 82.7191C13.2183 82.7048 13.193 82.6904 13.1675 82.6762C9.36435 80.5512 6.86282 77.3468 5.39769 73.2794C4.89183 71.8813 4.61423 70.4399 4.65432 68.9181C5.40779 70.5317 6.68998 71.6426 7.97378 72.7549C8.24017 72.9857 8.50722 73.2171 8.76904 73.4526C9.76534 74.3496 10.7339 75.2806 11.5204 76.4714C11.6561 73.1402 13.0164 70.4275 15.4902 68.2283Z" fill="white"/>
<path d="M121.989 76.6756C123.429 74.2939 124.333 71.7297 124.348 68.8903C123.563 70.5782 122.218 71.7476 120.85 72.9373C119.568 74.0518 118.265 75.1843 117.383 76.7777C117.346 73.1123 115.943 70.3718 113.281 67.9376C114.356 70.5415 114.1 72.9906 113.844 75.4473L113.836 75.5188C113.596 77.8262 113.932 80.0563 114.758 82.2246C115.008 82.8742 115.237 83.0288 115.894 82.6515C118.451 81.1884 120.471 79.1841 121.989 76.6756Z" fill="white"/>
<path d="M119.228 67.6716C118.562 64.1547 116.788 61.674 113.96 59.9357C114.987 61.9091 115.32 64.0062 115.434 66.1807C115.564 68.683 116.119 71.0863 117.411 73.2763C118.022 74.3155 118.047 74.3217 118.947 73.5546C122.467 70.5512 124.348 66.6818 124.891 62.1411C125.024 61.0307 125.104 59.8739 124.712 58.6799C124.227 60.5432 123.083 61.9584 121.926 63.3896C120.877 64.6882 119.816 66 119.228 67.6716Z" fill="white"/>
<path d="M69.3239 52.271C68.9565 52.516 68.6034 52.751 68.2604 52.9794L68.256 52.9823C67.483 53.4968 66.761 53.9774 66.042 54.4609C65.8137 54.6156 65.6441 54.73 65.5299 54.3403C65.2623 53.4298 64.9829 52.5243 64.7053 51.6253C64.6086 51.3118 64.5121 50.9992 64.4164 50.6874C64.4517 50.6668 64.482 50.6462 64.5072 50.6291C64.5503 50.5998 64.5786 50.5806 64.5922 50.5884C65.5145 51.0802 66.153 50.9348 66.8501 50.0285C67.7754 48.8315 69.1943 48.3057 70.681 48.0861C72.7168 47.786 74.7402 47.7891 76.668 48.6614C79.2374 49.8244 80.317 51.9339 80.2707 54.6527C80.2245 57.3499 79.0277 59.3821 76.4645 60.409C73.9413 61.4204 71.372 61.3771 68.855 60.378C67.4454 59.8182 66.3936 58.8006 65.7428 57.4087C65.4559 56.7962 66.0635 55.8374 66.7236 55.825C66.901 55.8225 66.9246 55.9255 66.9501 56.0371C66.9561 56.0633 66.9622 56.0899 66.9704 56.1157C67.7754 58.649 69.7834 59.447 72.1554 59.6573C73.3584 59.7656 74.5552 59.6017 75.6779 59.1377C77.615 58.3366 78.6051 56.8519 78.6884 54.7579C78.7717 52.6082 77.9789 50.8853 75.9802 50.0038C73.747 49.0171 71.4521 49.0449 69.2159 50.1275C68.7532 50.3533 68.3522 50.6657 67.9913 51.0276C67.6274 51.3926 67.4547 51.7019 68.1702 51.8535C68.395 51.8973 68.6126 51.9861 68.8849 52.0972C69.0162 52.1508 69.1602 52.2096 69.3239 52.271Z" fill="white"/>
<path d="M118.605 50.4832C117.041 47.585 114.789 46.0106 111.887 45.2868C113.306 46.5612 114.166 48.1912 114.82 49.9326C115.696 52.271 116.905 54.362 118.811 56.026C119.327 56.4776 119.536 56.3972 119.873 55.8621C122.334 51.9401 122.874 47.7396 121.739 43.2856C121.56 42.5834 121.359 41.8844 120.866 41.2627C120.958 43.0139 120.362 44.5583 119.758 46.1248C119.224 47.5078 118.684 48.9082 118.605 50.4832Z" fill="white"/>
<path d="M8.03493 41.4081C7.97648 43.072 8.58887 44.5542 9.20503 46.0455C9.75948 47.3875 10.317 48.7369 10.3915 50.2327C11.869 47.7582 13.9171 46.1219 16.7363 45.5002C15.4281 46.8294 14.7511 48.4789 14.0762 50.123C13.79 50.8204 13.5041 51.5169 13.1706 52.1875C12.4273 53.6846 11.3878 54.9466 10.1416 56.0508C9.69747 56.4436 9.45072 56.3972 9.12684 55.8992C7.16202 52.8618 6.42483 49.5305 6.73019 45.958C6.86591 44.3805 7.18978 42.8278 8.03493 41.4081Z" fill="white"/>
<path d="M119.65 58.9954C118.537 55.9425 116.594 54.0155 113.645 52.6948C114.996 54.3651 115.604 56.0786 115.983 57.8974C116.486 60.2883 117.3 62.5339 118.913 64.4424C119.407 65.027 119.644 65.0053 120.125 64.4609C122.538 61.7297 123.722 58.516 123.95 54.9125C124.064 53.1123 123.839 51.4483 123.333 50.4059C123.107 52.0557 122.306 53.4372 121.493 54.8421C120.745 56.1317 119.987 57.441 119.65 58.9954Z" fill="white"/>
<path d="M5.74007 50.8544C5.95011 52.2134 6.63253 53.3651 7.31414 54.5155L7.31511 54.5171L7.31667 54.5197C7.36485 54.601 7.41322 54.6827 7.46121 54.7641C8.20149 56.0199 8.92327 57.2818 9.32117 58.9892C10.41 56.0817 12.1928 54.096 14.9349 53.0319C13.7542 54.6547 13.3086 56.5226 12.8637 58.3878C12.7566 58.837 12.6495 59.2861 12.5321 59.7316C12.0695 61.4916 11.1749 63.0319 10.0584 64.464C9.5741 65.0857 9.26256 64.9898 8.82148 64.4547C5.48714 60.4059 4.29652 55.8343 5.44396 50.6843L5.44858 50.683C5.47586 50.6056 5.50386 50.5289 5.53186 50.4523C5.5604 50.3742 5.58893 50.2961 5.61669 50.2172C5.65679 50.2203 5.69997 50.2234 5.74007 50.2234L5.74007 50.8544Z" fill="white"/>
<path d="M116.335 42.5865C114.549 40.2327 112.312 39.1377 109.379 38.7573C111.291 39.9821 112.303 41.6369 113.269 43.3382C114.246 45.0548 115.539 46.4869 117.198 47.5881C117.741 47.95 117.994 47.9623 118.306 47.3004C120.573 42.4937 119.987 37.9593 117.09 33.6227C117.082 33.6098 117.074 33.5966 117.065 33.5833C116.979 33.4466 116.887 33.3021 116.609 33.4402C116.833 35.0571 116.681 36.6693 116.523 38.3294C116.393 39.7055 116.259 41.1146 116.335 42.5865Z" fill="white"/>
<path d="M12.4396 33.1155C12.1065 34.7807 12.268 36.4327 12.4334 38.1248C12.5774 39.5977 12.7243 41.1011 12.5506 42.67C13.55 41.4297 14.4877 40.5327 15.6536 39.9079C16.798 39.2924 18.0503 39.0233 19.4969 38.7325C19.3611 38.8509 19.2282 38.9652 19.0986 39.0768C18.4657 39.6216 17.9075 40.102 17.4365 40.6719C16.9133 41.3015 16.4988 41.9978 16.084 42.6948C16.0096 42.8196 15.9353 42.9445 15.8603 43.0691C15.3822 43.864 14.8856 44.6465 14.2995 45.3672C13.5315 46.3106 12.5846 47.0313 11.5883 47.7056C11.2829 47.9128 11.0608 48.0242 10.8233 47.5788C8.3588 42.9546 8.94794 37.2633 12.3193 33.1062C12.3252 33.0983 12.3462 33.1017 12.3775 33.1069C12.3952 33.1098 12.4162 33.1132 12.4396 33.1155Z" fill="white"/>
<path d="M24.7776 31.6091C21.4864 31.4143 18.9201 33.0103 16.3014 34.9961C16.667 33.6669 16.7065 32.3447 16.7455 31.0421C16.7891 29.5861 16.832 28.1546 17.3285 26.7653C17.1219 26.8334 17.0262 26.9324 16.9337 27.0375C15.3822 28.8439 14.497 30.9874 13.8708 33.2485C13.3248 35.2188 12.9393 37.2138 13.3187 39.2769C13.5099 40.3038 13.621 40.3873 14.5926 39.976C15.9127 39.413 16.9985 38.5191 17.9392 37.4582C18.2071 37.1558 18.4716 36.8497 18.7361 36.5436C20.4546 34.5552 22.1713 32.5687 24.7776 31.6091Z" fill="white"/>
<path d="M104.234 31.6184C107.535 31.405 110.107 33.066 112.701 34.9961C112.311 33.714 112.264 32.4197 112.217 31.1356C112.165 29.6902 112.113 28.2578 111.572 26.8705C112.022 26.8678 112.197 27.1408 112.355 27.3864C112.381 27.427 112.407 27.4668 112.433 27.5046C114.768 30.8822 115.943 34.6125 115.745 38.7356C115.671 40.3286 115.397 40.4647 113.984 39.7811C112.364 38.9963 111.218 37.6736 110.074 36.3543C110.001 36.2696 109.928 36.1848 109.854 36.1003C108.259 34.2568 106.594 32.5185 104.234 31.6184Z" fill="white"/>
<path d="M108.537 28.4418C105.82 26.8736 103.238 25.8467 100.252 26.4313C102.742 26.9169 104.529 28.4828 106.316 30.0488C106.704 30.388 107.091 30.7272 107.485 31.0555C108.454 31.8597 109.518 32.4907 110.758 32.8402C111.597 33.0752 111.831 32.8402 111.81 32.0236C111.689 27.7737 109.981 24.2197 107.093 21.1854C106.887 20.9689 106.643 20.7245 106.298 20.7431C107.198 22.0519 107.442 23.528 107.691 25.0419C107.878 26.1721 108.068 27.3233 108.537 28.4418Z" fill="white"/>
<path d="M92.584 59.048C93.0776 58.2314 93.5001 58.0706 94.3391 58.6799C96.0232 59.9048 97.985 60.0873 99.9961 59.6357C100.366 59.5522 100.724 59.3666 101.054 59.1717C101.517 58.8964 101.8 58.4943 101.73 57.9067C101.662 57.3468 101.273 57.0746 100.82 56.8952C99.9181 56.535 98.9673 56.4539 98.0177 56.3729C97.6872 56.3447 97.3569 56.3165 97.0288 56.2766C96.162 56.1714 95.3076 56.023 94.5088 55.6827C93.6482 55.3177 92.9511 54.7548 92.9017 53.7124C92.8524 52.6329 93.3922 51.8504 94.3206 51.405C96.5538 50.3378 98.827 50.3997 101.097 51.3122C101.128 51.3246 101.158 51.337 101.189 51.3494C101.465 51.4609 101.754 51.5778 101.967 51.7669C102.034 51.8266 102.139 51.8705 102.247 51.9155C102.529 52.0337 102.828 52.159 102.507 52.5958L102.485 52.6263C102.188 53.033 101.909 53.4152 101.19 52.9082C99.4964 51.7112 97.5655 51.6524 95.6099 52.2123C94.9714 52.3947 94.3977 52.7721 94.3915 53.4835C94.3854 54.2228 94.9992 54.5042 95.6439 54.6898C96.4293 54.9174 97.2375 54.9841 98.0455 55.0508C98.7859 55.1119 99.5263 55.1731 100.249 55.3579L100.29 55.3685C100.737 55.4826 101.19 55.5986 101.612 55.7786C102.479 56.1467 103.17 56.7034 103.238 57.7365C103.306 58.7913 102.849 59.6017 101.976 60.1615C100.662 61.0059 99.1756 61.1915 97.6673 61.0956C95.7765 60.9688 94.0461 60.3595 92.584 59.048Z" fill="white"/>
<path d="M28.6764 26.3725C25.7122 25.8312 23.1459 26.8983 20.6043 28.2345C20.979 27.2216 21.1433 26.1681 21.3076 25.1149C21.5341 23.6629 21.7606 22.2113 22.5382 20.8668C22.1229 20.9517 21.9321 21.1504 21.7559 21.334C21.7267 21.3644 21.6978 21.3946 21.6684 21.4235C19.793 23.2732 18.6549 25.559 17.8251 28.0211C17.384 29.3357 17.1003 30.6781 17.1434 32.0731C17.162 32.7412 17.3378 33.0783 18.1829 32.8525C19.9318 32.3855 21.252 31.2967 22.5567 30.1492L22.7017 30.0216C24.2043 28.6995 25.7045 27.3794 27.6708 26.756C27.767 26.7257 27.8691 26.7064 27.9722 26.687C28.2258 26.6392 28.4857 26.5901 28.6764 26.3725Z" fill="white"/>
<path d="M34.1544 11.7978C33.3675 12.7137 32.8888 13.7937 32.4023 14.8913C31.9277 15.9621 31.4457 17.0497 30.6628 18.018C33.3771 17.3685 35.9249 16.9447 38.411 18.2284C36.0761 18.1139 34.0804 19.0944 32.0878 20.0997C30.7492 20.774 29.3827 21.3802 27.8466 21.4205C26.7887 21.4483 26.6375 21.2936 26.9491 20.2915C28.152 16.4529 30.6566 13.7001 34.1544 11.7978Z" fill="white"/>
<path d="M98.2749 17.9778C94.0553 17.1582 92.4391 17.2046 90.4403 18.2593C93.0467 18.3614 93.7315 18.5624 96.2361 19.7904C96.3066 19.8249 96.3771 19.8594 96.4476 19.894C97.7681 20.5414 99.0916 21.1903 100.579 21.3988C102.109 21.6122 102.42 21.306 101.912 19.8646C100.743 16.5457 98.5556 14.031 95.6408 12.1257L95.609 12.1047C95.3586 11.9396 95.086 11.7597 94.7339 11.9556C95.6422 12.8648 96.1539 13.9964 96.6696 15.1372C97.1154 16.1232 97.5642 17.116 98.2749 17.9778Z" fill="white"/>
<path d="M32.4024 22.1442C30.9867 22.3484 29.7158 22.9206 28.5191 23.6784C28.0641 23.9661 27.6145 24.2615 27.165 24.5568C26.7154 24.8522 26.2658 25.1476 25.8109 25.4353C24.8701 26.0323 23.8553 26.4436 22.7449 26.6045C21.8905 26.7282 21.6992 26.5797 21.8165 25.7168C22.0139 24.2506 22.5012 22.8773 23.2076 21.5782C24.2316 19.6945 25.4346 17.9562 27.1557 16.6354C27.458 16.4034 27.7942 16.224 28.1736 16.0601C27.2838 17.1105 26.9071 18.3691 26.5196 19.6641C26.2019 20.7258 25.8768 21.812 25.2557 22.8278C27.7541 21.8535 30.0952 21.2008 32.5783 21.8226C32.6638 21.984 32.5667 22.0426 32.4678 22.1023C32.4454 22.1158 32.4229 22.1294 32.4024 22.1442Z" fill="white"/>
<path d="M103.651 22.8247C101.036 21.7638 98.6173 21.173 96.051 22.0793C96.1782 22.1013 96.3057 22.1219 96.4332 22.1425C96.7167 22.1882 96.9999 22.2339 97.2786 22.2958C98.9725 22.653 100.369 23.5917 101.764 24.5295C101.952 24.6556 102.14 24.7817 102.328 24.9064C103.306 25.5528 104.305 26.1529 105.44 26.456C107.155 26.9138 107.399 26.6571 107.01 24.9095C106.353 21.9556 104.771 19.5244 102.704 17.3901L102.655 17.3398C102.216 16.8862 101.74 16.3952 100.869 16.1746C101.719 17.3401 102.119 18.6155 102.523 19.9049C102.83 20.8841 103.14 21.8714 103.651 22.8247Z" fill="white"/>
<path d="M53.451 51.1173C55.0724 50.9048 55.0735 50.9069 55.7492 52.2285L55.7582 52.2463C56.6551 53.9974 57.5555 55.7449 58.4735 57.5265L58.4754 57.5302C58.7534 58.0698 59.033 58.6125 59.3147 59.1594C60.0179 57.8046 60.678 56.5364 61.3412 55.2682C61.5016 54.962 61.5386 54.7393 61.1037 54.6342C60.8533 54.574 60.6127 54.479 60.3502 54.3754C60.2213 54.3246 60.0871 54.2716 59.9439 54.2197C60.526 53.8232 61.0934 53.4358 61.6631 53.0468C62.2888 52.6196 62.9174 52.1904 63.5713 51.7452C64.0124 53.1247 64.4411 54.464 64.8729 55.8126C64.8213 55.8241 64.7804 55.836 64.7473 55.8457C64.6912 55.862 64.6575 55.8718 64.6323 55.8621L64.6295 55.8611C63.7959 55.5728 63.377 55.4279 63.0645 55.5521C62.7488 55.6776 62.5417 56.0776 62.1254 56.8816L62.0203 57.0847C61.4648 58.158 60.9085 59.2331 60.3356 60.2945C59.9994 60.9162 58.6515 61.0028 58.3276 60.3997C57.1166 58.1304 55.9274 55.8544 54.734 53.5704L54.7325 53.5677L54.7315 53.5656L54.7308 53.5643L54.7255 53.5542L54.7246 53.5525C54.301 52.7418 53.8769 51.9301 53.451 51.1173Z" fill="white"/>
<path d="M87.5131 10.1059C84.2466 8.44799 80.718 7.98712 77.0937 7.95619C80.28 9.98836 83.4971 11.9215 87.1245 13.032C88.0529 13.3165 88.9968 13.4279 89.9591 13.3073C90.539 13.2361 90.7426 12.9825 90.3354 12.4195C89.5951 11.3926 88.6143 10.6657 87.5131 10.1059Z" fill="white"/>
<path d="M51.4773 8.29564C51.2305 8.45639 50.9871 8.6149 50.7367 8.76349C47.8866 10.4369 45.0242 12.0793 41.8317 13.0382C40.9619 13.298 40.0828 13.4248 39.1791 13.3289C38.2753 13.2299 38.1828 13.0165 38.7411 12.3051C39.9872 10.7121 41.7084 9.8337 43.5621 9.2058C46.0637 8.35829 48.6577 7.98094 51.295 7.89742C51.3196 7.89552 51.345 7.89209 51.3711 7.88857C51.5148 7.86918 51.6781 7.84714 51.8348 8.06445C51.7142 8.14138 51.5952 8.21889 51.4773 8.29564Z" fill="white"/>
<path d="M89.3206 14.1733C88.1794 14.297 87.143 14.6651 86.1498 15.2714C88.0529 14.993 89.8234 15.4724 91.5785 16.1313C92.8061 16.5952 94.0461 17.0252 95.4002 16.9602C96.6525 16.8983 96.7975 16.7406 96.233 15.5807C94.8974 12.8433 92.7999 10.8637 90.0887 9.5213C89.7987 9.37902 89.5057 9.24601 89.1757 9.41304C90.1082 10.1114 90.678 11.0685 91.2583 12.0433C91.7087 12.7999 92.1655 13.5671 92.803 14.2321C92.3011 14.2333 91.8273 14.2063 91.3697 14.1803C90.6629 14.14 89.9946 14.102 89.3206 14.1733Z" fill="white"/>
<path d="M36.1069 14.2661L36.2811 14.2527C38.5908 14.0743 40.7544 13.9071 42.6861 15.2559C40.7083 14.9308 38.9254 15.5733 37.1483 16.2136C36.9133 16.2983 36.6784 16.3829 36.4431 16.4653C35.4129 16.8272 34.3704 17.0252 33.2754 16.9447C32.3623 16.8767 32.2667 16.7715 32.6122 15.9024C33.4481 13.8052 34.9564 12.2401 36.693 10.873C37.5782 10.177 38.5005 9.5213 39.6788 9.36355C38.892 10.0661 38.3703 10.9484 37.8393 11.8462C37.3441 12.6837 36.8408 13.5347 36.1069 14.2661Z" fill="white"/>
<path fill-rule="evenodd" clip-rule="evenodd" d="M66.4646 44.1052C66.9334 43.9073 67.066 43.567 66.9426 43.0969C66.3976 43.0316 65.8405 43.0311 65.2955 43.0969C66.0569 42.7847 66.5965 42.6671 67.1729 42.741C67.8292 42.3171 68.0905 41.6537 68.2659 40.9379C68.2694 40.927 68.2727 40.9164 68.2757 40.9059C68.3297 40.323 66.8564 40.5534 66.1085 40.6703C65.9966 40.6878 65.901 40.7028 65.8291 40.7121C66.3394 40.3658 67.8511 40.1477 68.4153 40.2227C69.7534 39.5887 70.8696 38.6548 71.9179 37.5664C72.14 38.6243 72.541 38.9862 73.3985 38.9521C74.2899 38.915 74.5737 38.2284 74.842 37.5571C74.9531 37.288 74.839 37.022 74.5675 36.8674C74.2955 36.7098 74.13 36.8849 73.9638 37.0608L73.9537 37.0715C73.9399 37.0863 73.9258 37.1014 73.9119 37.1165L73.9101 37.1184L73.9094 37.1192C73.8219 37.2138 73.7318 37.3112 73.6237 37.3747C73.5794 37.4002 73.5362 37.4368 73.4925 37.4738C73.3566 37.5889 73.2159 37.7081 73.0222 37.5138C72.8747 37.3637 72.9539 37.2265 73.031 37.093C73.0603 37.0422 73.0893 36.9919 73.1055 36.9416C73.138 36.8392 73.2159 36.7508 73.2919 36.6646C73.3168 36.6363 73.3417 36.608 73.3646 36.5797C74.5515 35.1262 75.8498 33.7791 77.1493 32.4307C77.2851 32.2899 77.4208 32.1491 77.5564 32.0081C80.2461 29.2151 82.3281 26.0354 83.602 22.3515C83.9321 21.3957 84.0215 20.4059 83.858 19.4223C83.5804 17.7582 81.7822 16.8055 79.7556 17.1705C78.8087 17.3437 77.9574 17.752 77.0259 18.2748C77.285 16.8488 76.4614 16.2828 75.4219 15.8652C73.0129 14.894 70.4806 14.4888 67.9112 14.328C63.3739 14.0434 58.8798 14.2414 54.509 15.6518C53.812 15.8776 53.1457 16.1529 52.8774 16.92C52.6856 17.4709 52.9619 17.8886 53.2472 18.32C53.3015 18.402 53.3561 18.4846 53.4079 18.5686C53.1052 18.427 52.8195 18.2635 52.5365 18.1015C52.0466 17.8211 51.5648 17.5453 51.0174 17.3963C49.5368 16.9911 48.0501 16.8829 46.8595 17.9716C45.6781 19.0542 45.8385 20.5358 46.221 21.9308C47.0662 25.0115 48.738 27.6654 50.7059 30.1306C51.5997 31.2494 52.5965 32.2782 53.5939 33.3076C54.5791 34.3243 55.5649 35.3416 56.4523 36.4467C56.4851 36.4874 56.5192 36.5277 56.5533 36.5681C56.8042 36.8649 57.0563 37.163 56.8255 37.6314C56.4955 37.5788 56.2734 37.3777 56.0636 37.1674C56.0318 37.1354 56.0004 37.101 55.9691 37.0667C55.7946 36.8754 55.6189 36.6826 55.3234 36.8767C54.9378 37.1272 55.0334 37.5169 55.1907 37.8386C55.456 38.3799 55.7583 38.9026 56.4739 38.9521C57.2728 39.0078 57.757 38.6088 58.0254 37.8572C58.0785 37.9097 58.1312 37.962 58.1837 38.0142C58.7625 38.5889 59.3128 39.1353 60.0056 39.4841C60.9587 39.9636 61.7638 40.508 61.8995 41.7019C61.9337 42.0087 62.154 42.234 62.371 42.4559C62.585 42.6747 62.7957 42.8902 62.8218 43.1773C62.8786 43.7877 63.2635 44.0159 63.6482 44.2441C63.8268 44.35 64.0054 44.4559 64.1512 44.6001C64.7736 45.2158 65.2685 44.8784 65.775 44.5331C65.8257 44.4986 65.8769 44.4637 65.9279 44.43C65.9688 44.4033 66.0095 44.3758 66.0501 44.3483C66.1837 44.2579 66.3182 44.1668 66.4646 44.1052ZM74.5705 33.1C75.6563 30.2946 76.0634 27.3221 76.3565 24.2909C76.4336 24.3134 76.5037 24.3371 76.5694 24.3593C76.6929 24.401 76.801 24.4376 76.9117 24.4517C76.9872 24.4617 77.0662 24.4776 77.1462 24.4936C77.4615 24.5569 77.7932 24.6235 77.9974 24.3496C78.2572 24.0042 78.1938 23.5342 78.1366 23.1099L78.1365 23.1089L78.1317 23.0732L78.127 23.0382C78.0727 22.637 77.8569 22.78 77.666 22.9065C77.651 22.9165 77.6357 22.9266 77.6211 22.9361C76.9703 23.3536 76.7667 22.9701 76.6958 22.4041C76.4583 20.4492 78.821 18.0273 80.758 18.2284C81.5569 18.3119 82.1306 18.8872 82.2756 19.7564C82.4823 20.9843 82.18 22.1412 81.7327 23.2578C80.2183 27.0468 77.7753 30.1956 74.9222 33.0567C74.8389 33.1402 74.7494 33.2144 74.5705 33.1ZM55.1876 33.1774C53.7595 31.8659 52.6707 30.6132 51.6836 29.277C50.0458 27.0654 48.5498 24.7641 47.8249 22.0608C47.609 21.2535 47.4363 20.44 47.6923 19.5894C48.0008 18.5501 48.7318 18.0645 49.7774 18.2779C51.6466 18.6584 53.0223 20.143 53.2475 22.0236C53.3493 22.8742 53.0192 23.1681 52.2604 22.8773L52.2488 22.8727L52.2369 22.868L52.2111 22.8575C52.0497 22.792 51.9099 22.7352 51.8286 22.9516C51.6559 23.397 51.7515 23.8579 51.8872 24.2754C52.026 24.6992 52.4825 24.5569 52.7355 24.4765C53.3894 24.2723 53.5991 24.4486 53.633 25.126C53.7564 27.7861 54.2561 30.3874 55.1876 33.1774Z" fill="white"/>
<path fill-rule="evenodd" clip-rule="evenodd" d="M28.8983 52.9675C28.8953 53.4818 28.8923 53.9963 28.8923 54.5104C28.8923 54.8827 28.8924 55.255 28.8925 55.6273C28.893 57.1168 28.8935 58.6063 28.8861 60.0934C28.8861 60.4924 28.8984 60.7801 29.4444 60.7615C30.3401 60.7307 31.2366 60.7383 32.1332 60.7459C33.6604 60.7589 35.1878 60.7719 36.7115 60.5945C41.2148 60.0687 43.775 55.6054 41.7669 51.6864C40.5948 49.4006 38.5097 48.5005 36.1069 48.3489C34.8323 48.2689 33.5533 48.2785 32.2738 48.288C31.4262 48.2943 30.5781 48.3006 29.7312 48.2809C29.0773 48.2654 28.8522 48.4077 28.8738 49.1098C28.9134 50.3934 28.9059 51.681 28.8983 52.9675ZM30.4314 53.2872C30.4299 53.6731 30.4284 54.0592 30.4284 54.4455C30.4284 54.9158 30.4287 55.386 30.4291 55.8562V55.8582C30.4298 56.7975 30.4305 57.7363 30.4284 58.6738C30.4284 58.7055 30.4278 58.7372 30.4273 58.7684C30.422 59.0659 30.4174 59.3274 30.9003 59.3078C31.5694 59.2825 32.2392 59.2905 32.9091 59.2985C34.123 59.3129 35.3376 59.3273 36.548 59.1439C39.065 58.7666 40.7769 56.9757 40.8447 54.628C40.9126 52.237 39.469 50.5111 36.8904 49.9358C35.6226 49.6521 34.3413 49.6687 33.06 49.6853C32.3991 49.6938 31.7383 49.7024 31.0792 49.6698C30.4716 49.6419 30.4068 49.8863 30.4191 50.3935C30.439 51.3589 30.4352 52.3227 30.4314 53.2872Z" fill="white"/>
<path fill-rule="evenodd" clip-rule="evenodd" d="M82.2541 52.6886C84.5397 50.245 88.4755 49.9852 90.5791 51.9864C92.5131 53.8268 92.618 57.5385 90.8228 59.5243C89.0801 61.4575 84.7587 61.8441 82.2541 59.0789C82.2541 59.429 82.2504 59.7674 82.2468 60.0977C82.2386 60.8588 82.2308 61.5765 82.2695 62.2926C82.3042 62.9154 81.9872 62.9197 81.5745 62.9254C81.5464 62.9257 81.518 62.9261 81.4891 62.9267C81.0141 62.936 80.7149 62.9144 80.7211 62.2803C80.7519 58.7356 80.7519 55.1878 80.718 51.6431C80.7121 51.0054 81.0209 51.013 81.4326 51.0231C81.4522 51.0236 81.4721 51.0241 81.4922 51.0245C81.5225 51.0252 81.553 51.0253 81.5835 51.0251C81.5964 51.0251 81.6093 51.025 81.6222 51.0249L81.6442 51.0247C82.014 51.0215 82.358 51.0184 82.2603 51.6307C82.2321 51.8165 82.2381 52.0088 82.2456 52.2516C82.2496 52.3807 82.2541 52.5242 82.2541 52.6886ZM82.2541 55.7972C82.2541 53.4124 83.8333 51.9772 86.4613 51.971C89.0585 51.9648 90.573 53.4062 90.5699 55.8776C90.5699 58.3273 89.1171 59.7007 86.5169 59.7068C83.71 59.7161 82.2541 58.3799 82.2541 55.7972Z" fill="white"/>
<path fill-rule="evenodd" clip-rule="evenodd" d="M48.9446 59.8028C46.2889 59.8863 44.5955 58.5903 44.4042 56.2426H45.2987C46.2179 56.2426 47.1371 56.2423 48.0563 56.2419C49.8946 56.2412 51.733 56.2405 53.5714 56.2426C53.6062 56.2426 53.6412 56.2432 53.6762 56.2439C54.0033 56.2498 54.3179 56.2554 54.29 55.7384C54.2222 54.4548 53.96 53.2516 53.0316 52.2803C50.9835 50.143 46.3937 50.0626 44.2438 52.135C42.0107 54.2847 42.4672 58.6552 45.0859 60.2172C47.3746 61.5844 51.3197 61.3648 53.4356 59.7502C53.4721 59.7222 53.514 59.6943 53.557 59.6656C53.7898 59.5104 54.0535 59.3345 53.6577 59.0264C53.5737 58.9614 53.5083 58.8484 53.4419 58.7337C53.2742 58.4439 53.0999 58.1428 52.6028 58.5748C51.5603 59.4842 50.2925 59.7594 48.9446 59.8028ZM50.7344 54.9705C51.3867 54.9709 52.0393 54.9713 52.6922 54.9713C52.3529 53.1463 51.0975 52.0792 49.1759 51.9369C46.9026 51.7699 45.1753 52.6762 44.6139 54.3279C44.6026 54.3587 44.5879 54.387 44.5733 54.4149C44.5602 54.4403 44.5471 54.4654 44.5368 54.4918C44.4073 54.8228 44.4782 54.9805 44.8792 54.9775C46.8274 54.9682 48.7774 54.9693 50.7304 54.9705H50.7344Z" fill="white"/>
<path d="M78.8171 66.6922L79.5875 64.9589H79.2442L78.6449 66.3053L78.0456 64.9589H77.6828L78.4629 66.714L77.4111 69.077L75.578 64.9589H75.2152L77.2362 69.5058H77.5666L78.6352 67.1015L79.7038 69.5058H80.0341L82.0551 64.9589H81.7118L79.8787 69.077L78.8171 66.6922Z" fill="white"/>
<path d="M50.8862 69.6311C50.5537 69.6311 50.2363 69.5748 49.9341 69.4622C49.6361 69.3452 49.4029 69.1959 49.2345 69.014L49.3835 68.7671C49.5432 68.936 49.757 69.0746 50.0247 69.1829C50.2968 69.2868 50.5818 69.3388 50.8798 69.3388C51.3116 69.3388 51.6376 69.2565 51.8578 69.0919C52.0781 68.9274 52.1882 68.713 52.1882 68.4489C52.1882 68.2453 52.1299 68.083 52.0133 67.9617C51.8967 67.8405 51.752 67.7474 51.5793 67.6824C51.4066 67.6174 51.1734 67.5503 50.8798 67.481C50.5472 67.3988 50.2795 67.3186 50.0766 67.2407C49.8779 67.1628 49.7073 67.0437 49.5648 66.8834C49.4267 66.7189 49.3576 66.5002 49.3576 66.2274C49.3576 66.0066 49.4159 65.8052 49.5324 65.6233C49.649 65.4371 49.8261 65.2899 50.0636 65.1816C50.3054 65.0734 50.6055 65.0192 50.964 65.0192C51.2144 65.0192 51.4606 65.056 51.7024 65.1297C51.9442 65.2033 52.1537 65.3029 52.3307 65.4285L52.2076 65.6948C52.0263 65.5692 51.8255 65.4739 51.6052 65.409C51.3893 65.344 51.1756 65.3115 50.964 65.3115C50.5451 65.3115 50.2277 65.396 50.0118 65.5649C49.7959 65.7337 49.6879 65.9524 49.6879 66.2209C49.6879 66.4244 49.7462 66.5868 49.8628 66.7081C49.9794 66.8293 50.1241 66.9224 50.2968 66.9874C50.4695 67.0523 50.7049 67.1216 51.0028 67.1952C51.3353 67.2775 51.6009 67.3576 51.7996 67.4356C51.9982 67.5135 52.1666 67.6326 52.3048 67.7928C52.4473 67.9487 52.5185 68.1609 52.5185 68.4294C52.5185 68.6502 52.4581 68.8516 52.3372 69.0335C52.2206 69.2153 52.0392 69.3604 51.7931 69.4687C51.5469 69.5769 51.2447 69.6311 50.8862 69.6311Z" fill="white"/>
<path d="M29.76 65.0517H29.4296V69.5986H29.76V65.0517Z" fill="white"/>
<path d="M35.6798 69.5986V65.0517H35.3495V69.001L32.2662 65.0517H31.9877V69.5986H32.318V65.6493L35.4078 69.5986H35.6798Z" fill="white"/>
<path fill-rule="evenodd" clip-rule="evenodd" d="M37.911 65.0517H39.7053C40.176 65.0517 40.5927 65.1491 40.9554 65.344C41.3225 65.5389 41.6075 65.8095 41.8104 66.156C42.0134 66.4981 42.1149 66.8878 42.1149 67.3251C42.1149 67.7625 42.0134 68.1544 41.8104 68.5008C41.6075 68.8429 41.3225 69.1114 40.9554 69.3063C40.5927 69.5011 40.176 69.5986 39.7053 69.5986H37.911V65.0517ZM39.6794 69.2998C40.0982 69.2998 40.4674 69.2175 40.787 69.0529C41.1065 68.8841 41.3527 68.6502 41.5254 68.3514C41.6982 68.0526 41.7845 67.7105 41.7845 67.3251C41.7845 66.9397 41.6982 66.5976 41.5254 66.2989C41.3527 66.0001 41.1065 65.7684 40.787 65.6038C40.4674 65.4349 40.0982 65.3505 39.6794 65.3505H38.2414V69.2998H39.6794Z" fill="white"/>
<path d="M44.3442 69.1309C44.6638 69.4643 45.1107 69.6311 45.6851 69.6311C46.2594 69.6311 46.7063 69.4643 47.0259 69.1309C47.3454 68.7975 47.5052 68.3103 47.5052 67.6694V65.0517H47.1749V67.6564C47.1749 68.215 47.0475 68.6329 46.7927 68.91C46.5379 69.1872 46.1709 69.3258 45.6915 69.3258C45.2079 69.3258 44.8387 69.1872 44.5839 68.91C44.3291 68.6329 44.2017 68.215 44.2017 67.6564V65.0517H43.8714V67.6694C43.8714 68.3103 44.029 68.7975 44.3442 69.1309Z" fill="white"/>
<path d="M53.4617 65.3505H55.094V69.5986H55.4244V65.3505H57.0567V65.0517H53.4617V65.3505Z" fill="white"/>
<path fill-rule="evenodd" clip-rule="evenodd" d="M61.6717 69.5986L60.59 68.0786C60.4302 68.1003 60.2834 68.1111 60.1495 68.1111H58.854V69.5986H58.5237V65.0517H60.1495C60.7195 65.0517 61.1665 65.1881 61.4904 65.4609C61.8142 65.7294 61.9762 66.104 61.9762 66.5847C61.9762 66.9441 61.8833 67.2472 61.6976 67.494C61.5163 67.7365 61.255 67.9076 60.9139 68.0072L62.0474 69.5986H61.6717ZM60.1495 67.8188C60.6332 67.8188 61.0024 67.7127 61.2572 67.5005C61.512 67.284 61.6393 66.9787 61.6393 66.5847C61.6393 66.1906 61.512 65.8875 61.2572 65.6753C61.0024 65.4588 60.6332 65.3505 60.1495 65.3505H58.854V67.8188H60.1495Z" fill="white"/>
<path d="M65.1693 69.5986V68.0332L66.9959 65.0517H66.6526L65.0138 67.7279L63.375 65.0517H63.0123L64.8389 68.0332V69.5986H65.1693Z" fill="white"/>
<path fill-rule="evenodd" clip-rule="evenodd" d="M70.9526 68.319L70.3761 69.5986H70.0198L72.1056 65.0517H72.4359L74.5217 69.5986H74.1654L73.5824 68.319H70.9526ZM73.4594 68.0396L72.2675 65.4155L71.0821 68.0396H73.4594Z" fill="white"/>
<path fill-rule="evenodd" clip-rule="evenodd" d="M82.8806 69.5986L83.4571 68.319H86.0869L86.6699 69.5986H87.0261L84.9404 65.0517H84.6101L82.5243 69.5986H82.8806ZM84.772 65.4155L85.9639 68.0396H83.5866L84.772 65.4155Z" fill="white"/>
<path fill-rule="evenodd" clip-rule="evenodd" d="M91.6451 69.5986L90.5633 68.0786C90.4036 68.1003 90.2567 68.1111 90.1229 68.1111H88.8274V69.5986H88.497V65.0517H90.1229C90.6929 65.0517 91.1398 65.1881 91.4637 65.4609C91.7876 65.7294 91.9495 66.104 91.9495 66.5847C91.9495 66.9441 91.8567 67.2472 91.671 67.494C91.4896 67.7365 91.2283 67.9076 90.8872 68.0072L92.0208 69.5986H91.6451ZM90.1229 67.8188C90.6065 67.8188 90.9757 67.7127 91.2305 67.5005C91.4853 67.284 91.6127 66.9787 91.6127 66.5847C91.6127 66.1906 91.4853 65.8875 91.2305 65.6753C90.9757 65.4588 90.6065 65.3505 90.1229 65.3505H88.8274V67.8188H90.1229Z" fill="white"/>
<path fill-rule="evenodd" clip-rule="evenodd" d="M95.601 65.0517H93.8068V69.5986H95.601C96.0717 69.5986 96.4884 69.5011 96.8512 69.3063C97.2182 69.1114 97.5032 68.8429 97.7062 68.5008C97.9091 68.1544 98.0106 67.7625 98.0106 67.3251C98.0106 66.8878 97.9091 66.4981 97.7062 66.156C97.5032 65.8095 97.2182 65.5389 96.8512 65.344C96.4884 65.1491 96.0717 65.0517 95.601 65.0517ZM96.6828 69.0529C96.3632 69.2175 95.994 69.2998 95.5751 69.2998H94.1371V65.3505H95.5751C95.994 65.3505 96.3632 65.4349 96.6828 65.6038C97.0023 65.7684 97.2484 66.0001 97.4212 66.2989C97.5939 66.5976 97.6803 66.9397 97.6803 67.3251C97.6803 67.7105 97.5939 68.0526 97.4212 68.3514C97.2484 68.6502 97.0023 68.8841 96.6828 69.0529Z" fill="white"/>
<path d="M100.998 69.6311C100.665 69.6311 100.348 69.5748 100.046 69.4622C99.7477 69.3452 99.5145 69.1959 99.3461 69.014L99.4951 68.7671C99.6548 68.936 99.8686 69.0746 100.136 69.1829C100.408 69.2868 100.693 69.3388 100.991 69.3388C101.423 69.3388 101.749 69.2565 101.969 69.0919C102.19 68.9274 102.3 68.713 102.3 68.4489C102.3 68.2453 102.242 68.083 102.125 67.9617C102.008 67.8405 101.864 67.7474 101.691 67.6824C101.518 67.6174 101.285 67.5503 100.991 67.481C100.659 67.3988 100.391 67.3186 100.188 67.2407C99.9895 67.1628 99.8189 67.0437 99.6764 66.8834C99.5382 66.7189 99.4692 66.5002 99.4692 66.2274C99.4692 66.0066 99.5275 65.8052 99.6441 65.6233C99.7606 65.4371 99.9377 65.2899 100.175 65.1816C100.417 65.0734 100.717 65.0192 101.076 65.0192C101.326 65.0192 101.572 65.056 101.814 65.1297C102.056 65.2033 102.265 65.3029 102.442 65.4285L102.319 65.6948C102.138 65.5692 101.937 65.4739 101.717 65.409C101.501 65.344 101.287 65.3115 101.076 65.3115C100.657 65.3115 100.339 65.396 100.123 65.5649C99.9075 65.7337 99.7995 65.9524 99.7995 66.2209C99.7995 66.4244 99.8578 66.5868 99.9744 66.7081C100.091 66.8293 100.236 66.9224 100.408 66.9874C100.581 67.0523 100.816 67.1216 101.114 67.1952C101.447 67.2775 101.713 67.3576 101.911 67.4356C102.11 67.5135 102.278 67.6326 102.416 67.7928C102.559 67.9487 102.63 68.1609 102.63 68.4294C102.63 68.6502 102.57 68.8516 102.449 69.0335C102.332 69.2153 102.151 69.3604 101.905 69.4687C101.659 69.5769 101.356 69.6311 100.998 69.6311Z" fill="white"/>
<path d="M55.9151 98.8087V100.67H49.3917V99.1893L52.7212 95.5943C53.0747 95.2089 53.3132 94.8799 53.4365 94.6074C53.5598 94.3254 53.6214 94.0481 53.6214 93.7756C53.6214 93.3808 53.5022 93.08 53.2638 92.8733C53.0336 92.6571 52.8466 92.549 52.3945 92.549C52.0163 92.549 51.6751 92.6336 51.3709 92.8028C51.0668 92.9626 50.8119 93.2069 50.6064 93.5359L48.997 93.55C48.997 92.8028 49.6139 91.5596 50.5447 91.1251C51.1366 90.7961 51.8149 90.6316 52.5794 90.6316C53.2207 90.6316 53.6256 90.7538 54.1024 90.9982C54.5874 91.2332 54.9615 91.5715 55.2246 92.0133C55.4958 92.4456 55.6315 92.9579 55.6315 93.55C55.6315 94.0857 55.5328 94.5886 55.3355 95.0585C55.1382 95.5285 54.756 96.0642 54.1887 96.6657L52.2033 98.8087H55.9151Z" fill="white"/>
<path fill-rule="evenodd" clip-rule="evenodd" d="M61.6479 100.839C60.9327 100.839 60.2956 100.637 59.7365 100.233C59.1775 99.8285 58.7377 99.2457 58.4171 98.4844C58.1047 97.7137 57.9485 96.7973 57.9485 95.7352C57.9485 94.6732 58.1047 93.7615 58.4171 93.0002C58.7377 92.2294 59.1775 91.642 59.7365 91.2379C60.2956 90.8337 60.9327 90.6316 61.6479 90.6316C62.3632 90.6316 63.0003 90.8337 63.5593 91.2379C64.1184 91.642 64.5541 92.2294 64.8665 93.0002C65.1871 93.7615 65.3474 94.6732 65.3474 95.7352C65.3474 96.7973 65.1871 97.7137 64.8665 98.4844C64.5541 99.2457 64.1184 99.8285 63.5593 100.233C63.0003 100.637 62.3632 100.839 61.6479 100.839ZM61.6479 98.9074C62.1741 98.9074 62.5851 98.6489 62.8811 98.132C63.1853 97.615 63.3374 96.8161 63.3374 95.7352C63.3374 94.6544 63.1853 93.8554 62.8811 93.3385C62.5851 92.8216 62.1741 92.5631 61.6479 92.5631C61.13 92.5631 60.719 92.8216 60.4148 93.3385C60.1188 93.8554 59.9708 94.6544 59.9708 95.7352C59.9708 96.8161 60.1188 97.615 60.4148 98.132C60.719 98.6489 61.13 98.9074 61.6479 98.9074Z" fill="white"/>
<path d="M68.8107 100.67H70.8084V90.8008H68.8107V100.67Z" fill="white"/>
<path fill-rule="evenodd" clip-rule="evenodd" d="M79.4479 95.4815C79.8754 95.7258 80.2002 96.0454 80.4221 96.4402C80.6523 96.8349 80.7674 97.2908 80.7674 97.8077C80.7674 98.4186 80.6153 98.9544 80.3111 99.4149C80.007 99.8661 79.5795 100.219 79.0287 100.472C78.4779 100.717 77.8407 100.839 77.1173 100.839C76.3938 100.839 75.7567 100.717 75.2059 100.472C74.6633 100.219 74.2399 99.8661 73.9357 99.4149C73.6398 98.9544 73.4918 98.4186 73.4918 97.8077C73.4918 97.2908 73.6028 96.8349 73.8248 96.4402C74.0549 96.0454 74.3797 95.7258 74.7989 95.4815C74.4783 95.2559 74.2317 94.9739 74.0591 94.6356C73.8864 94.2878 73.8001 93.893 73.8001 93.4513C73.8001 92.878 73.9398 92.3798 74.2194 91.9569C74.4989 91.5339 74.8894 91.2097 75.3909 90.9841C75.8923 90.7491 76.4678 90.6316 77.1173 90.6316C77.775 90.6316 78.3545 90.7491 78.856 90.9841C79.3657 91.2097 79.7603 91.5339 80.0399 91.9569C80.3194 92.3798 80.4591 92.878 80.4591 93.4513C80.4591 93.893 80.3728 94.2878 80.2002 94.6356C80.0275 94.9739 79.7768 95.2559 79.4479 95.4815ZM77.1173 92.3093C76.7144 92.3093 76.3897 92.4221 76.1431 92.6477C75.9047 92.8639 75.7855 93.1646 75.7855 93.55C75.7855 93.9259 75.9047 94.222 76.1431 94.4382C76.3815 94.6544 76.7062 94.7625 77.1173 94.7625C77.5283 94.7625 77.8572 94.6544 78.1038 94.4382C78.3504 94.222 78.4737 93.9259 78.4737 93.55C78.4737 93.1646 78.3504 92.8639 78.1038 92.6477C77.8572 92.4221 77.5283 92.3093 77.1173 92.3093ZM77.1173 99.1611C77.6188 99.1611 78.0134 99.0343 78.3011 98.7805C78.5971 98.5173 78.745 98.1696 78.745 97.7372C78.745 97.3049 78.5971 96.9618 78.3011 96.708C78.0134 96.4543 77.6188 96.3274 77.1173 96.3274C76.624 96.3274 76.2335 96.4543 75.9458 96.708C75.658 96.9618 75.5142 97.3049 75.5142 97.7372C75.5142 98.179 75.658 98.5267 75.9458 98.7805C76.2335 99.0343 76.624 99.1611 77.1173 99.1611Z" fill="white"/>
<path d="M87.4953 86.3013C86.6014 86.3013 85.7351 86.1663 84.8964 85.8962C84.0687 85.6261 83.412 85.268 82.9265 84.8218L83.6714 83.0428C84.1459 83.442 84.7253 83.7708 85.4095 84.0292C86.1048 84.2757 86.8 84.399 87.4953 84.399C88.3561 84.399 88.9961 84.2523 89.4155 83.9587C89.8459 83.6651 90.0611 83.2776 90.0611 82.7962C90.0611 82.4439 89.9397 82.1562 89.6969 81.9331C89.4652 81.6983 89.1672 81.5163 88.803 81.3871C88.4388 81.258 87.9422 81.1112 87.3132 80.9468C86.4303 80.7237 85.713 80.5006 85.1612 80.2775C84.6205 80.0544 84.1514 79.708 83.7542 79.2383C83.3679 78.7568 83.1748 78.111 83.1748 77.3008C83.1748 76.6197 83.3458 76.0033 83.6879 75.4514C84.0411 74.8878 84.5653 74.4415 85.2605 74.1128C85.9668 73.784 86.8276 73.6196 87.8429 73.6196C88.5492 73.6196 89.2444 73.7135 89.9287 73.9014C90.6129 74.0893 91.2033 74.3593 91.6999 74.7116L91.0212 76.4906C90.5135 76.1735 89.9838 75.9328 89.4321 75.7684C88.8803 75.604 88.345 75.5218 87.8263 75.5218C86.9766 75.5218 86.342 75.6745 85.9227 75.9798C85.5144 76.2851 85.3102 76.6902 85.3102 77.1951C85.3102 77.5474 85.4261 77.8351 85.6578 78.0582C85.9006 78.2813 86.2041 78.4574 86.5683 78.5866C86.9325 78.7157 87.4291 78.8625 88.0581 79.0269C88.9189 79.2383 89.6252 79.4614 90.177 79.6962C90.7288 79.9193 91.1978 80.2657 91.584 80.7354C91.9813 81.2051 92.18 81.8392 92.18 82.6377C92.18 83.3187 92.0034 83.9352 91.6502 84.4871C91.3081 85.039 90.7839 85.4793 90.0777 85.8081C89.3714 86.1369 88.5106 86.3013 87.4953 86.3013Z" fill="white"/>
<path d="M30.756 79.4672V75.7155H36.7945V73.7957H28.9478V86.1251H30.756V81.4047H36.1964V79.4672H30.756Z" fill="white"/>
<path d="M41.003 73.7957H39.1949V86.1251H41.003V73.7957Z" fill="white"/>
<path d="M54.2407 73.7957V86.1251H52.7524L45.7019 77.7763V86.1251H43.9076V73.7957H45.3959L52.4464 82.1445V73.7957H54.2407Z" fill="white"/>
<path fill-rule="evenodd" clip-rule="evenodd" d="M58.1655 86.1251L59.1252 83.2717H63.9934L64.967 86.1251H66.8586L62.4634 73.7957H60.683L56.3017 86.1251H58.1655ZM61.5593 76.0854L63.3953 81.4752H59.7372L61.5593 76.0854Z" fill="white"/>
<path d="M68.9333 73.7957H70.7414V84.1876H77.3744V86.1251H68.9333V73.7957Z" fill="white"/>
<path d="M81.0133 73.7957H79.2051V86.1251H81.0133V73.7957Z" fill="white"/>
<path d="M97.0153 75.7332H93.1053V73.7957H102.667V75.7332H98.8234V86.1251H97.0153V75.7332Z" fill="white"/>
</svg>
