<svg width="128" height="128" viewBox="0 0 128 128" fill="none" xmlns="http://www.w3.org/2000/svg">
<path d="M11.2321 58.1488C12.1837 58.1488 13.1369 58.1561 14.0885 58.1445C14.3579 58.1415 14.4761 58.1854 14.482 58.4937C14.5195 60.4973 15.3664 62.1853 16.6995 63.6598C18.7285 65.9045 21.3366 67.2812 24.1705 68.2925C26.5092 69.1284 28.9317 69.6268 31.4111 69.8533C31.7462 69.884 31.9916 69.8913 31.9812 70.3589C31.9542 71.528 31.9827 71.5324 30.7363 71.3892C26.8264 70.9391 23.1052 69.8986 19.6847 67.9578C17.6467 66.8018 15.8541 65.3653 14.509 63.4508C13.7967 62.4381 13.2596 61.342 13.0202 60.1305C12.9483 59.7681 12.7763 59.7169 12.4531 59.7213C11.1274 59.7345 9.80165 59.7169 8.47743 59.7345C8.12132 59.7389 7.99563 59.6614 8.00012 59.2844C8.01059 58.1503 7.99114 58.1503 9.16124 58.1503C9.85103 58.1488 10.5423 58.1488 11.2321 58.1488Z" fill="white"/>
<path d="M13.3643 55.5051C13.6815 54.5698 14.1529 53.7734 14.7155 53.0295C16.5335 50.6182 18.9859 49.0004 21.7316 47.7641C25.2987 46.1565 29.0784 45.3907 32.9822 45.1817C33.4535 45.1569 33.5208 44.9961 33.5059 44.6045C33.479 43.8782 33.5104 43.1489 33.4924 42.4211C33.4849 42.1289 33.5493 42.0119 33.8859 42.0061C35.1054 41.9827 35.1039 41.9681 35.1039 43.1387C35.1039 44.1573 35.0845 45.1774 35.1129 46.196C35.1249 46.6081 35.0306 46.7425 34.5727 46.7455C30.2724 46.7761 26.1187 47.5244 22.1969 49.3C20.0797 50.2587 18.1584 51.4936 16.6158 53.2312C16.101 53.8099 15.6462 54.4325 15.311 55.1266C15.1748 55.4102 15.0162 55.5388 14.6825 55.5139C14.2621 55.4818 13.8356 55.5051 13.3643 55.5051Z" fill="white"/>
<path d="M62.3693 68.3013C62.3693 69.1196 62.3619 69.9395 62.3738 70.7579C62.3783 71.0078 62.3245 71.1642 62.0491 71.2314C61.1364 71.4535 60.2132 71.5777 59.2765 71.4389C57.873 71.2299 56.8555 70.4744 56.3333 69.2C55.5163 67.2067 55.5059 65.1753 56.3842 63.2009C57.3029 61.136 59.5698 60.1714 61.7828 60.7998C62.1135 60.8934 62.2736 61.0264 62.1135 61.3669C62.0985 61.399 62.103 61.4385 62.0955 61.475C62.0177 61.8491 62.0506 62.3095 61.8322 62.574C61.5778 62.8809 61.1484 62.5082 60.7788 62.5068C59.6326 62.5009 58.8127 62.9087 58.4116 63.8995C57.7937 65.4281 57.7907 66.9918 58.3907 68.5307C58.666 69.2395 59.1807 69.7115 60.0217 69.7349C60.2955 69.7422 60.4257 69.6706 60.4137 69.3681C60.3912 68.7864 60.3808 68.2019 60.4152 67.6217C60.4376 67.23 60.3479 67.0298 59.9079 67.1117C59.5144 67.1847 59.4112 67.0211 59.4172 66.6396C59.4336 65.4194 59.4172 65.4194 60.6576 65.4194C61.105 65.4194 61.5539 65.4354 62.0013 65.4135C62.305 65.3989 62.3783 65.51 62.3723 65.7906C62.3589 66.6265 62.3693 67.4639 62.3693 68.3013Z" fill="white"/>
<path d="M41.3824 64.4665C42.0018 63.7285 42.6767 63.4289 43.5295 63.5648C44.1789 63.6686 44.5979 64.0427 44.8523 64.6156C45.1096 65.1928 45.1904 65.8037 45.1919 66.4263C45.1949 67.9359 45.1799 69.447 45.2024 70.9566C45.2069 71.3176 45.1021 71.4258 44.74 71.4009C44.2029 71.3629 43.4966 71.569 43.1704 71.3059C42.8293 71.0312 43.0777 70.3165 43.0702 69.7963C43.0522 68.7046 43.0717 67.6129 43.0582 66.5213C43.0477 65.6897 42.7679 65.2688 42.2756 65.2761C41.7729 65.2834 41.4003 65.7745 41.3898 66.5417C41.3704 67.9973 41.3644 69.4528 41.3958 70.9084C41.4048 71.3337 41.2731 71.4345 40.8676 71.4024C40.3499 71.3614 39.6676 71.5631 39.3534 71.3088C39.0257 71.0443 39.2561 70.3545 39.2546 69.8518C39.2457 66.8866 39.2591 63.9199 39.2397 60.9547C39.2367 60.5529 39.3235 60.4038 39.7559 60.4433C40.2721 60.49 40.9649 60.2781 41.2686 60.5339C41.6203 60.8291 41.3629 61.5218 41.3779 62.042C41.3973 62.799 41.3824 63.5604 41.3824 64.4665Z" fill="white"/>
<path d="M86.8711 76.9966C87.4068 76.3317 88.0472 76.0102 88.8462 76.0233C89.72 76.038 90.332 76.4515 90.6447 77.2509C90.8318 77.7303 90.9081 78.2345 90.9081 78.7489C90.9081 80.314 90.8946 81.8807 90.9186 83.4459C90.9245 83.8141 90.8138 83.9252 90.4532 83.8945C89.9175 83.8507 89.2173 84.1079 88.8836 83.801C88.5484 83.4926 88.7938 82.8058 88.7863 82.284C88.7699 81.1924 88.7878 80.0992 88.7759 79.0075C88.7669 78.1789 88.4901 77.7639 87.9888 77.7727C87.4891 77.7829 87.115 78.2885 87.106 79.0412C87.091 80.4982 87.0881 81.9538 87.109 83.4108C87.115 83.7849 87.0267 83.931 86.6227 83.8974C86.2157 83.8624 85.7998 83.8667 85.3913 83.896C85.0411 83.9208 84.9544 83.8039 84.9573 83.4692C84.9723 81.6483 84.9648 79.8274 84.9573 78.0079C84.9558 77.5169 84.9379 77.0244 84.8975 76.5348C84.875 76.2616 84.9259 76.1198 85.2431 76.1534C85.4466 76.1739 85.6531 76.1578 85.8596 76.1578C86.7005 76.1563 86.7005 76.1563 86.8711 76.9966Z" fill="white"/>
<path d="M68.8587 82.9811C68.2722 83.5891 67.7844 83.9208 67.147 84.0027C66.2118 84.1225 65.4427 83.7089 65.0806 82.8598C64.8487 82.3147 64.7769 81.7375 64.7754 81.1514C64.7724 79.6228 64.7858 78.0942 64.7634 76.5655C64.7589 76.2163 64.8666 76.13 65.2033 76.152C65.6312 76.1797 66.0637 76.1797 66.4901 76.152C66.8283 76.13 66.933 76.2221 66.927 76.5685C66.9046 77.951 66.9196 79.3349 66.9166 80.7174C66.9166 81.0842 66.942 81.4466 67.0767 81.7915C67.1754 82.0444 67.349 82.2373 67.6408 82.2621C67.9535 82.2899 68.169 82.1218 68.3216 81.869C68.4892 81.5913 68.5101 81.2859 68.5101 80.9731C68.5071 79.5176 68.5206 78.0606 68.5011 76.605C68.4966 76.2528 68.5834 76.114 68.959 76.1534C69.5081 76.2104 70.2279 75.9313 70.563 76.2703C70.8279 76.5378 70.6363 77.2349 70.6423 77.742C70.6678 79.671 70.578 81.6001 70.7112 83.5277C70.7321 83.8302 70.6259 83.9164 70.3416 83.893C70.156 83.8784 69.969 83.8945 69.782 83.8887C69.2717 83.874 68.5715 84.1254 68.8587 82.9811Z" fill="white"/>
<path d="M44.9525 83.0133C44.2448 83.7644 43.552 84.1181 42.6602 83.9866C41.9719 83.8843 41.5051 83.5248 41.2327 82.9051C41.0233 82.4302 40.92 81.9318 40.9155 81.4203C40.9021 79.7821 40.911 78.1439 40.8916 76.5071C40.8886 76.206 40.9933 76.1388 41.2746 76.152C41.722 76.1724 42.1724 76.1797 42.6183 76.1505C42.9624 76.1286 43.0567 76.2279 43.0522 76.5699C43.0298 77.9159 43.0447 79.2633 43.0417 80.6107C43.0417 80.9951 43.0567 81.378 43.1839 81.7433C43.2782 82.0151 43.4547 82.2358 43.7704 82.2621C44.1086 82.2899 44.3271 82.0955 44.4767 81.8208C44.6218 81.5548 44.6338 81.2654 44.6338 80.9717C44.6308 79.5161 44.6443 78.0591 44.6233 76.6035C44.6188 76.2469 44.7116 76.1256 45.0842 76.152C45.6214 76.1899 46.3231 75.981 46.6553 76.2411C47.0039 76.5158 46.7511 77.2276 46.76 77.7478C46.7929 79.6579 46.7017 81.5709 46.8378 83.478C46.8633 83.836 46.7406 83.931 46.4084 83.8945C46.2423 83.877 46.0732 83.8916 45.9042 83.8916C45.3849 83.8901 44.737 84.0713 44.9525 83.0133Z" fill="white"/>
<path d="M36.6481 66.9977C36.6481 68.3261 36.6346 69.6545 36.6571 70.9815C36.6631 71.3278 36.5568 71.4214 36.2187 71.3994C35.7907 71.3717 35.3583 71.3673 34.9319 71.4009C34.5712 71.4287 34.5054 71.3015 34.5069 70.9742C34.5204 68.3729 34.5024 65.7701 34.5264 63.1688C34.5308 62.7216 34.3962 62.6149 33.9667 62.6354C33.5268 62.6558 32.9493 62.8283 32.674 62.5652C32.3986 62.3022 32.6455 61.7351 32.5812 61.3113C32.5034 60.8057 32.7218 60.7238 33.1902 60.7326C34.8136 60.7618 36.4371 60.7545 38.0606 60.7355C38.4466 60.7311 38.6531 60.7779 38.5918 61.2236C38.5274 61.684 38.7908 62.3065 38.4781 62.574C38.2117 62.802 37.5893 62.6675 37.1284 62.6383C36.7289 62.612 36.6316 62.7464 36.6391 63.122C36.6616 64.4139 36.6481 65.7058 36.6481 66.9977Z" fill="white"/>
<path d="M103.012 75.3584C102.465 75.6302 101.997 75.848 101.545 76.0935C101.289 76.2323 101.18 76.2411 101.102 75.9123C100.803 74.6511 100.814 74.6935 101.96 74.049C102.832 73.5579 103.722 73.3256 104.723 73.4133C105.02 73.4396 105.139 73.4761 105.138 73.802C105.124 76.9689 105.126 80.1358 105.136 83.3012C105.138 83.5978 105.078 83.7308 104.741 83.7104C104.186 83.6753 103.477 83.874 103.118 83.6095C102.772 83.3538 103.021 82.6245 103.018 82.1043C103.006 79.8844 103.012 77.666 103.012 75.3584Z" fill="white"/>
<path d="M48.4628 79.8303C48.4628 79.2297 48.4419 78.629 48.4718 78.0299C48.4882 77.6806 48.3596 77.5578 48.0259 77.6207C47.5815 77.704 47.4693 77.4965 47.5306 77.1136C47.5471 77.0069 47.5456 76.8943 47.5306 76.7862C47.4693 76.3405 47.5591 76.0453 48.1232 76.1549C48.3985 76.209 48.4583 76.0643 48.4688 75.8144C48.5167 74.749 48.5257 74.749 49.5656 74.4363C50.5995 74.1235 50.5995 74.1235 50.5995 75.1918C50.5995 76.1563 50.601 76.1826 51.5901 76.1476C52.0479 76.1315 52.1931 76.2382 52.1721 76.7044C52.1302 77.6177 52.1601 77.6528 51.1905 77.6075C50.6743 77.5827 50.5681 77.7434 50.5875 78.214C50.6279 79.1771 50.586 80.1416 50.604 81.1061C50.622 82.0268 50.8135 82.2124 51.7382 82.246C51.8998 82.2519 51.9896 82.2694 51.9836 82.4419C51.9821 82.4784 51.9911 82.5164 51.9821 82.55C51.8684 82.9899 52.3173 83.6972 51.7547 83.8507C50.6579 84.1502 49.4967 84.0757 48.8997 83.1959C48.6798 82.8715 48.575 82.5076 48.5271 82.1233C48.4329 81.359 48.4748 80.5932 48.4628 79.8303Z" fill="white"/>
<path d="M63.5709 65.906C63.5709 64.2488 63.5813 62.5915 63.5619 60.9343C63.5574 60.5689 63.6262 60.4038 64.0407 60.4433C64.4297 60.4798 64.8262 60.4769 65.2168 60.4433C65.6058 60.4096 65.7165 60.5251 65.7135 60.9153C65.6941 63.2652 65.7031 65.6137 65.7031 67.9637C65.7031 68.9472 65.6851 69.9307 65.712 70.9143C65.7225 71.2796 65.6507 71.4433 65.2347 71.4024C64.8457 71.3644 64.4492 71.3688 64.0587 71.4009C63.6771 71.4316 63.5529 71.3293 63.5589 70.9333C63.5843 69.257 63.5709 67.5822 63.5709 65.906Z" fill="white"/>
<path d="M89.6886 65.9484C89.6886 67.6246 89.6796 69.2994 89.6961 70.9756C89.6991 71.3045 89.6273 71.4301 89.2697 71.4009C88.8612 71.3673 88.4467 71.3658 88.0382 71.4009C87.6462 71.4345 87.5444 71.3103 87.5459 70.9259C87.5639 68.0119 87.5549 65.0978 87.5549 62.1838C87.5549 61.7278 87.5714 61.2719 87.5489 60.8174C87.5355 60.5353 87.6162 60.4272 87.92 60.4433C88.3674 60.4666 88.8178 60.4739 89.2637 60.4418C89.6183 60.4169 89.6991 60.5353 89.6946 60.8671C89.6796 62.5608 89.6886 64.2546 89.6886 65.9484Z" fill="white"/>
<path d="M54.2909 83.9734C54.1876 83.9676 54.038 83.9617 53.8899 83.95C52.5537 83.8448 52.2978 83.4269 52.823 82.2402C52.9128 82.0371 53.0026 82.0707 53.1597 82.1423C53.5158 82.3074 53.8899 82.4156 54.2909 82.4185C54.6455 82.4214 54.9881 82.3659 55.1258 82.0034C55.2724 81.6176 55.1333 81.2815 54.7936 81.0462C54.43 80.7934 54.035 80.5815 53.6804 80.3184C52.5926 79.5132 52.3307 78.1994 53.025 77.1223C53.619 76.2002 54.861 75.8027 56.1612 76.1213C56.8914 76.2996 56.8929 76.2996 56.7193 77.0215C56.6939 77.1282 56.6445 77.2305 56.637 77.3386C56.6056 77.7405 56.4814 77.9597 56.0296 77.6952C55.8335 77.5812 55.5986 77.5871 55.3742 77.5871C55.0225 77.5871 54.7487 77.7186 54.6335 78.0562C54.5228 78.3777 54.6739 78.6305 54.9358 78.8117C55.2694 79.0426 55.6285 79.2399 55.9622 79.4723C56.7807 80.0408 57.2326 80.8022 57.1263 81.8032C56.9767 83.193 55.9622 83.9705 54.2909 83.9734Z" fill="white"/>
<path d="M78.3378 80.0422C78.3228 80.428 78.3707 80.8065 78.4949 81.1704C78.7911 82.0356 79.4405 82.417 80.3548 82.2227C80.657 82.1584 80.7124 82.2256 80.7573 82.5047C80.9712 83.8492 80.8366 84.0085 79.4286 83.9705C77.9607 83.931 76.8953 83.1843 76.4704 81.8237C76.0619 80.5143 76.0709 79.2005 76.6843 77.9422C77.3816 76.5129 78.9677 75.772 80.5493 76.092C80.8874 76.1607 81.1119 76.2659 80.9488 76.6591C80.9144 76.7409 80.9263 76.8388 80.9114 76.928C80.7767 77.7274 80.7767 77.723 79.9807 77.7274C79.4106 77.7303 78.9812 77.9889 78.6984 78.4668C78.4096 78.9535 78.3228 79.4884 78.3378 80.0422Z" fill="white"/>
<path d="M73.8983 77.2232C74.2963 76.5451 74.7287 76.0467 75.5187 76.0175C75.815 76.0058 75.9751 76.0774 75.9392 76.4092C75.9123 76.6605 75.9153 76.9192 75.9377 77.172C75.9856 77.7186 75.999 78.1307 75.1955 78.1585C74.5521 78.1804 74.1227 78.9111 74.1122 79.7397C74.0958 80.9761 74.0913 82.2124 74.1167 83.4488C74.1242 83.82 74.0045 83.9179 73.6469 83.896C73.1097 83.8609 72.4124 84.0611 72.0758 83.801C71.7212 83.5262 71.9755 82.8175 71.9665 82.2986C71.9336 80.3725 72.0189 78.4434 71.8947 76.5188C71.8753 76.2163 71.9695 76.1286 72.2538 76.1563C72.3825 76.168 72.5142 76.1578 72.6459 76.1578C73.6903 76.1563 73.6903 76.1563 73.8983 77.2232Z" fill="white"/>
<path d="M50.013 48.8133C48.8099 48.8133 47.7521 48.8192 46.6942 48.8075C46.5146 48.806 46.3276 48.7461 46.157 48.6818C43.5819 47.7144 40.9125 47.1356 38.1683 46.8945C37.8317 46.8653 37.7359 46.7674 37.7344 46.44C37.7269 45.2504 37.7164 45.2256 38.9359 45.3644C42.7515 45.7955 46.3889 46.8024 49.7601 48.6365C49.8065 48.6599 49.8454 48.695 50.013 48.8133Z" fill="white"/>
<path d="M81.5248 80.0057C81.5248 78.8614 81.5383 77.7171 81.5159 76.5728C81.5084 76.2309 81.6116 76.13 81.9543 76.1505C82.4181 76.1768 82.8865 76.168 83.3503 76.1534C83.5927 76.1461 83.666 76.2221 83.666 76.4618C83.6586 78.8234 83.6586 81.1851 83.666 83.5467C83.6675 83.8024 83.5927 83.9252 83.3204 83.8916C83.283 83.8872 83.2456 83.893 83.2082 83.8901C82.671 83.8653 81.9827 84.1049 81.6371 83.8024C81.284 83.4941 81.5443 82.8131 81.5293 82.2957C81.5069 81.5329 81.5248 80.7686 81.5248 80.0057Z" fill="white"/>
<path d="M33.0929 54.7043C33.0929 53.5425 33.1034 52.3792 33.0854 51.2174C33.0809 50.9105 33.1632 50.7979 33.4879 50.8184C33.9877 50.8506 34.6386 50.6635 34.9498 50.9046C35.279 51.1604 35.0516 51.8224 35.0545 52.3061C35.068 54.2498 35.0516 56.1935 35.068 58.1371C35.071 58.4893 34.9827 58.6223 34.6057 58.5916C34.1268 58.5522 33.4999 58.7378 33.1991 58.504C32.8819 58.257 33.1064 57.6213 33.0959 57.1565C33.0809 56.3396 33.0929 55.5212 33.0929 54.7043Z" fill="white"/>
<path d="M29.0499 64.0062C29.0499 63.4654 29.0664 63.0489 29.0454 62.6324C29.023 62.1677 29.3686 62.346 29.5856 62.3255C29.819 62.3036 30.0674 62.2554 30.0524 62.65C30.024 63.4114 30.0524 64.1757 30.0375 64.9386C30.0345 65.1198 30.1647 65.4062 29.9417 65.4705C29.6559 65.5523 29.3327 65.5699 29.0709 65.2878C28.7088 64.8991 28.3123 64.5381 27.9083 64.1888C27.6599 63.974 27.3861 63.7738 27.0958 63.6189C26.7382 63.4289 26.3327 63.3529 26.0035 63.6613C25.6728 63.9726 25.794 64.3496 25.9107 64.7296C25.9571 64.8816 26.4434 65.0672 25.9391 65.2484C25.6264 65.3609 25.3272 65.5845 25.0863 65.0774C24.6912 64.2458 24.7451 63.2901 25.3002 62.7947C25.8598 62.2963 26.789 62.2744 27.5925 62.7464C28.1222 63.0592 28.5412 63.4932 29.0499 64.0062Z" fill="white"/>
<path d="M25.9945 56.5208C26.1486 56.8263 26.2773 57.0805 26.406 57.3334C25.6159 57.6826 25.0114 57.2398 24.9052 56.2373C24.8289 55.5168 24.8319 55.5139 25.5696 55.5139C26.8728 55.5139 28.1761 55.5227 29.4779 55.5081C29.8504 55.5037 30.0824 55.511 30.0644 56.0049C30.0495 56.439 29.9298 56.5398 29.5033 56.5296C28.3586 56.5018 27.2095 56.5208 25.9945 56.5208Z" fill="white"/>
<path d="M82.5543 75.2123C81.9154 75.2108 81.483 74.7475 81.4904 74.0753C81.4979 73.4133 81.9438 72.9705 82.5977 72.9763C83.2486 72.9836 83.6675 73.4308 83.6616 74.1118C83.6571 74.7709 83.2097 75.2152 82.5543 75.2123Z" fill="white"/>
<path fill-rule="evenodd" clip-rule="evenodd" d="M92.6686 85.8033C92.5051 86.6712 92.5041 86.6762 93.3755 86.9985H93.3819C94.089 86.9985 94.7976 86.9985 95.5032 87C95.5608 86.909 95.6513 86.8967 95.741 86.8845C95.7795 86.8793 95.8178 86.874 95.8533 86.8626C96.9621 86.5017 97.619 85.7578 97.8479 84.6457C97.9586 84.1079 97.984 83.5642 97.984 83.0162C97.9847 82.2665 97.9871 81.517 97.9895 80.7675C97.9929 79.6968 97.9963 78.6261 97.9945 77.5549C97.9945 77.4079 98.0244 77.2444 98.0541 77.0818C98.1178 76.7337 98.1807 76.3895 97.9481 76.2192C97.7306 76.0596 97.364 76.0937 96.9977 76.1278C96.8374 76.1428 96.6772 76.1577 96.5296 76.1563C96.5237 76.1563 96.5176 76.1565 96.5115 76.1567C96.499 76.157 96.4863 76.1573 96.4743 76.1563C96.2633 76.1344 96.1795 76.2236 96.1646 76.4325C96.1625 76.461 96.1647 76.4923 96.1669 76.5244C96.1744 76.6307 96.1825 76.7465 96.0389 76.8037C95.2653 75.8889 94.2269 75.7647 93.2932 76.4735C92.9939 76.7 92.744 76.9733 92.5795 77.3035C91.7131 79.0397 91.6443 80.8182 92.4717 82.5661C93.1465 83.9939 94.6204 84.2423 95.8384 83.1872C95.8384 83.2856 95.841 83.3817 95.8435 83.4761C95.849 83.6761 95.8542 83.8681 95.8339 84.0567C95.7306 85.0023 95.189 85.4494 94.2194 85.3968L94.1873 85.395C93.9377 85.3811 93.6728 85.3663 93.4533 85.2682C92.9386 85.0388 92.7799 85.2069 92.6857 85.7125C92.6798 85.7438 92.6741 85.7741 92.6686 85.8033ZM95.8505 80.4347C95.8482 80.3019 95.8458 80.1691 95.8458 80.0364H95.8354C95.8354 79.8891 95.8386 79.7415 95.8418 79.5939C95.8494 79.2496 95.8569 78.9054 95.8234 78.5647C95.7875 78.1979 95.6259 77.8384 95.1725 77.7843C94.7296 77.7303 94.4633 78.0094 94.3301 78.3674C93.9336 79.4284 93.9231 80.507 94.3002 81.5738C94.4318 81.9494 94.6997 82.2606 95.1755 82.1817C95.6349 82.1057 95.8069 81.7477 95.8384 81.3458C95.8613 81.0436 95.8559 80.7392 95.8505 80.4347Z" fill="white"/>
<path fill-rule="evenodd" clip-rule="evenodd" d="M33.5478 74.9594C32.9552 76.0847 32.8011 77.3079 32.7847 78.5545C32.8191 79.7952 32.9298 81.0214 33.4879 82.1656C34.0475 83.3129 34.9274 84.0187 36.271 84.0129C37.6491 84.007 38.5738 83.3055 39.1364 82.1057C39.521 81.283 39.6811 80.409 39.7484 79.519C39.8711 77.9276 39.8187 76.3507 39.114 74.8703C38.4945 73.5696 37.4262 72.9705 36.0122 73.1224C34.8226 73.2496 34.067 73.9744 33.5478 74.9594ZM37.3289 80.9556C37.5159 80.1518 37.5668 79.3349 37.5414 78.5136C37.5414 78.414 37.5433 78.3141 37.5453 78.2142C37.5497 77.9858 37.5541 77.7572 37.5354 77.5315C37.4815 76.8432 37.4217 76.1519 37.1105 75.5133C36.9504 75.1845 36.7214 74.9097 36.3204 74.9068C35.9224 74.9054 35.6695 75.1655 35.5184 75.4972C35.3897 75.7778 35.2685 76.0686 35.2087 76.3682C34.9229 77.7946 34.9214 79.2253 35.1802 80.6575C35.2551 81.0725 35.3673 81.4759 35.6336 81.8178C36.0511 82.3542 36.6361 82.3293 37.0072 81.7652C37.1703 81.5168 37.2631 81.2406 37.3289 80.9556Z" fill="white"/>
<path fill-rule="evenodd" clip-rule="evenodd" d="M76.1516 64.2311C76.1214 64.2854 76.0901 64.3415 76.005 64.3292C76.0004 64.3242 75.9954 64.3197 75.9907 64.3154C75.98 64.3058 75.9706 64.2973 75.9706 64.2882C75.9692 64.043 75.9691 63.7976 75.9691 63.5522C75.969 63.0341 75.9689 62.5158 75.9557 61.9982C75.9515 61.8435 75.9715 61.6733 75.9914 61.5031C76.0362 61.1202 76.0809 60.7381 75.8509 60.5368C75.6699 60.3778 75.3282 60.4032 74.9755 60.4294C74.7771 60.4441 74.5753 60.4592 74.3965 60.4418C73.9372 60.3965 73.807 60.5339 73.8085 60.9942C73.822 64.1216 73.8085 67.2505 73.786 70.3779C73.7823 70.8897 73.7747 71.1436 73.901 71.2696C74.0253 71.3936 74.2793 71.3936 74.7945 71.3936C75.1985 71.3936 75.3982 71.3936 75.5079 71.2966C75.6156 71.2013 75.6366 71.0124 75.6788 70.6381C75.6799 70.6232 75.7002 70.611 75.7207 70.5987C75.7304 70.5929 75.74 70.5872 75.7477 70.5811C76.5153 71.5149 77.2529 71.756 78.1373 71.3498C78.7208 71.0809 79.1009 70.6132 79.3597 70.0535C79.846 68.9998 79.9373 67.8833 79.8625 66.7463C79.8116 65.9615 79.6799 65.1928 79.258 64.5031C78.5472 63.3412 77.1512 63.1922 76.1936 64.1684C76.1771 64.1854 76.1644 64.2081 76.1516 64.2311ZM75.9302 67.1363C75.9324 67.2277 75.9276 67.3368 75.9362 67.5179C75.9434 67.6686 75.9467 67.82 75.9502 67.9714C75.9582 68.328 75.9663 68.6851 76.023 69.0349C76.0843 69.4105 76.2729 69.7934 76.7472 69.8197C77.217 69.846 77.4475 69.5055 77.5567 69.124C77.8455 68.1098 77.8709 67.0839 77.5821 66.0638C77.4609 65.6386 77.229 65.2396 76.7173 65.2951C76.222 65.3492 76.0409 65.7818 75.9976 66.2129C75.9675 66.5117 75.9229 66.8342 75.9302 67.1363Z" fill="white"/>
<path fill-rule="evenodd" clip-rule="evenodd" d="M112.637 82.2665C113.257 81.0828 113.364 79.7996 113.37 78.499C113.369 76.8549 113.135 75.6112 112.663 74.7271C112.055 73.5901 111.027 73.0859 109.79 73.3504C108.808 73.5594 108.225 74.2302 107.843 75.0807C107.248 76.4121 107.146 77.8224 107.219 79.2516C107.275 80.3097 107.43 81.3502 107.936 82.3103C108.289 82.9811 108.783 83.5043 109.552 83.7235C110.807 84.0816 111.971 83.5394 112.637 82.2665ZM109.359 78.1358C109.356 78.2866 109.353 78.4374 109.348 78.5881C109.35 78.7095 109.351 78.8309 109.352 78.9523C109.359 79.6851 109.366 80.4183 109.552 81.1354C109.655 81.5387 109.781 82.0181 110.306 82.0327C110.782 82.0452 110.888 81.6721 110.989 81.3186C111.006 81.2598 111.023 81.2015 111.041 81.1456C111.062 81.0773 111.072 81.0052 111.082 80.9339C111.085 80.9152 111.087 80.8966 111.09 80.8782C111.286 79.522 111.243 78.1585 111.16 76.7979C111.132 76.3303 111.075 75.8509 110.837 75.4271C110.575 74.9595 110.131 74.9434 109.826 75.3876C109.646 75.6478 109.573 75.9488 109.511 76.2528C109.385 76.8754 109.372 77.5057 109.359 78.1358Z" fill="white"/>
<path fill-rule="evenodd" clip-rule="evenodd" d="M120.267 82.2665C120.886 81.0828 120.994 79.7996 121 78.499C120.999 76.8549 120.765 75.6112 120.292 74.7271C119.685 73.5901 118.657 73.0859 117.419 73.3504C116.438 73.5594 115.854 74.2302 115.473 75.0807C114.877 76.4121 114.775 77.8224 114.849 79.2516C114.904 80.3097 115.06 81.3502 115.565 82.3103C115.919 82.9811 116.412 83.5043 117.181 83.7235C118.437 84.0816 119.601 83.5394 120.267 82.2665ZM116.989 78.1358C116.986 78.2866 116.983 78.4374 116.978 78.5881C116.98 78.7095 116.981 78.8309 116.982 78.9523C116.989 79.6851 116.995 80.4183 117.181 81.1354C117.285 81.5387 117.41 82.0181 117.936 82.0327C118.412 82.0452 118.518 81.6721 118.619 81.3186C118.635 81.2598 118.652 81.2015 118.67 81.1456C118.692 81.0773 118.702 81.0052 118.712 80.9339C118.714 80.9152 118.717 80.8966 118.72 80.8782C118.916 79.522 118.872 78.1585 118.79 76.7979C118.762 76.3303 118.705 75.8509 118.467 75.4271C118.205 74.9595 117.761 74.9434 117.455 75.3876C117.276 75.6478 117.202 75.9488 117.141 76.2528C117.014 76.8754 117.001 77.5057 116.989 78.1358Z" fill="white"/>
<path fill-rule="evenodd" clip-rule="evenodd" d="M49.1227 58.7816C51.7023 58.8006 53.4888 57.1507 53.4918 54.7438C53.4963 52.2842 51.7352 50.6182 49.1406 50.627C46.5715 50.6357 44.8313 52.29 44.8298 54.7262C44.8283 57.12 46.5655 58.7626 49.1227 58.7816ZM49.6913 52.1278C47.9406 51.8385 46.7615 52.8848 46.7615 54.8636C46.8124 55.6717 47.0204 56.5603 47.9541 57.0411C48.8204 57.4883 49.7421 57.4897 50.5486 56.9271C51.5272 56.2446 51.6559 55.2187 51.5003 54.1416C51.3626 53.1932 50.9018 52.4727 49.9097 52.1702C49.8488 52.1525 49.7846 52.1424 49.7208 52.1325C49.711 52.1309 49.7011 52.1294 49.6913 52.1278Z" fill="white"/>
<path fill-rule="evenodd" clip-rule="evenodd" d="M81.1179 70.9259C81.9558 71.7838 83.2396 71.7063 84.3977 70.6278C84.25 71.4571 84.7229 71.4274 85.2093 71.3968L85.2132 71.3965C85.4915 71.379 85.7743 71.379 86.0526 71.3965C86.31 71.4126 86.3549 71.3176 86.3294 71.0823C86.2269 70.1151 86.2341 69.1451 86.2412 68.1751C86.2444 67.744 86.2476 67.313 86.2412 66.8822C86.2367 66.5914 86.2292 66.2991 86.2067 66.0098C86.0796 64.4095 85.1803 63.5663 83.5344 63.5297C82.7817 63.5122 82.0471 63.6423 81.3543 63.9389C81.3231 63.9522 81.2864 63.9626 81.2486 63.9732C81.107 64.0133 80.9505 64.0576 81.0131 64.2721C81.0466 64.3852 81.0735 64.5006 81.1004 64.616C81.1675 64.9032 81.2346 65.1904 81.4022 65.4427C81.4156 65.4632 81.5967 65.3887 81.6924 65.3434C82.086 65.1563 82.5079 65.0774 82.9388 65.0745C83.3638 65.0715 83.7528 65.1782 83.9728 65.5918C84.2331 66.0828 84.1359 66.2699 83.5793 66.3196C82.7234 66.397 81.9348 66.644 81.2899 67.2213C80.2545 68.1507 80.1752 69.9614 81.1179 70.9259ZM84.1712 68.7487C84.1702 68.6735 84.1692 68.5983 84.1718 68.5234C84.1718 68.4624 84.1708 68.4015 84.1699 68.3405C84.1676 68.2014 84.1654 68.0625 84.1748 67.9242C84.1883 67.7152 84.1209 67.6451 83.892 67.6495C82.9403 67.667 82.3119 68.3992 82.5169 69.2921C82.5977 69.6472 82.7773 69.9527 83.1977 69.9848C83.6152 70.0155 83.904 69.8036 84.0745 69.4368C84.1775 69.2147 84.1744 68.9817 84.1712 68.7487Z" fill="white"/>
<path fill-rule="evenodd" clip-rule="evenodd" d="M63.3434 82.3863C63.713 81.6527 63.8177 80.865 63.8342 80.0569C63.8265 79.9471 63.8206 79.8372 63.8147 79.7275C63.8001 79.4557 63.7856 79.1845 63.7429 78.9169C63.6921 78.5969 63.6023 78.2783 63.4886 77.9729C63.0262 76.7234 62.118 76.0526 60.8835 76.0234C59.676 75.9956 58.6645 76.643 58.1678 77.8414C57.5633 79.2998 57.5767 80.7861 58.1498 82.2504C58.5927 83.3845 59.477 83.9953 60.7189 84.01C61.9294 84.0231 62.8078 83.4473 63.3434 82.3863ZM61.4327 81.8734C61.6661 81.2844 61.6751 80.6633 61.6825 80.0437C61.681 79.3875 61.6691 78.7299 61.4117 78.1117C61.304 77.8545 61.1499 77.6105 60.8192 77.6002C60.4646 77.5885 60.2611 77.8165 60.1638 78.1044C59.7344 79.3685 59.7329 80.6414 60.1563 81.9055C60.2536 82.1934 60.4661 82.4127 60.8132 82.4156C61.1768 82.4185 61.3219 82.1525 61.4327 81.8734Z" fill="white"/>
<path fill-rule="evenodd" clip-rule="evenodd" d="M72.2972 70.014C72.7297 69.2424 72.8179 68.3919 72.8494 67.5676C72.8359 66.8179 72.7536 66.1135 72.4917 65.4413C72.0294 64.2429 71.0942 63.559 69.8957 63.5254C68.7375 63.4932 67.6737 64.1582 67.1934 65.3098C66.5694 66.8062 66.5799 68.3407 67.1874 69.8343C67.6153 70.885 68.4548 71.4769 69.6473 71.5149C70.8488 71.5529 71.7286 71.0326 72.2972 70.014ZM68.8859 67.1658C68.88 67.2787 68.8741 67.3918 68.8662 67.5048C68.8742 67.6251 68.8798 67.7458 68.8853 67.8666C68.9088 68.3784 68.9324 68.8918 69.143 69.3812C69.2732 69.6823 69.4632 69.9336 69.8298 69.9351C70.1889 69.9366 70.3565 69.6691 70.4418 69.3842C70.8084 68.1493 70.8234 66.9085 70.4343 65.6766C70.3446 65.393 70.1845 65.1314 69.8224 65.1227C69.4393 65.1139 69.2717 65.3784 69.1445 65.6751C68.9389 66.1533 68.9125 66.658 68.8859 67.1658Z" fill="white"/>
<path fill-rule="evenodd" clip-rule="evenodd" d="M49.6773 68.2833C49.8256 68.2821 49.9739 68.2808 50.1222 68.2808C50.2711 68.2808 50.4202 68.2788 50.5694 68.2767C50.9242 68.2718 51.2796 68.2669 51.6335 68.2896C51.9896 68.3115 52.0838 68.158 52.0988 67.8541C52.1362 67.0488 52.1078 66.2494 51.8773 65.472C51.4315 63.974 50.2135 63.2638 48.7052 63.6189C47.8793 63.8133 47.2778 64.316 46.8663 65.0262C46.2767 66.0448 46.1181 67.1541 46.2528 68.2983C46.5341 70.7038 47.9182 71.7517 50.3855 71.4565C50.464 71.4468 50.5413 71.4323 50.6185 71.4179C50.6695 71.4083 50.7204 71.3988 50.7716 71.3907C51.7476 71.233 51.7475 71.2328 51.6003 70.3157L51.5916 70.261C51.5227 69.8343 51.4569 69.6078 50.9152 69.7904C50.4469 69.9483 49.9277 69.9687 49.4219 69.8489C48.8025 69.7013 48.3835 69.241 48.3057 68.6315C48.2743 68.3831 48.3117 68.2633 48.6095 68.275C48.9654 68.2894 49.3213 68.2864 49.6773 68.2833ZM48.4912 65.7336C48.1037 66.6732 48.189 66.8004 49.193 66.8004C50.2718 66.8004 50.3302 66.7288 50.0354 65.7847C49.9202 65.4208 49.7601 65.0803 49.3202 65.0525C48.8489 65.0233 48.6424 65.3653 48.4912 65.7336Z" fill="white"/>
<path fill-rule="evenodd" clip-rule="evenodd" d="M44.2904 58.576C44.3276 58.5737 44.3705 58.571 44.4228 58.5683C44.402 58.512 44.3834 58.4605 44.3661 58.4125C44.3249 58.2983 44.2908 58.2039 44.2508 58.1123C44.039 57.6149 43.8275 57.1175 43.6161 56.6201C42.9938 55.1565 42.3717 53.6932 41.743 52.2316C41.6833 52.0928 41.637 51.9373 41.5906 51.7815C41.4812 51.4141 41.3715 51.0454 41.0846 50.8915C40.8255 50.7523 40.4778 50.7771 40.1244 50.8024C39.9288 50.8164 39.7314 50.8305 39.5464 50.817C39.2187 50.7936 39.1005 50.9339 38.9868 51.2013C38.4259 52.5234 37.8563 53.8423 37.2867 55.1616C37.0692 55.6652 36.8517 56.1689 36.6346 56.6728C36.4933 57.0011 36.352 57.3291 36.21 57.6585C36.0858 57.9465 35.9612 58.2357 35.8356 58.5274C37.682 58.7816 37.682 58.7816 38.3195 57.2457C38.3329 57.2121 38.3434 57.177 38.3524 57.1419C38.4152 56.9154 38.5574 56.8424 38.8028 56.8467C39.6796 56.8614 40.5579 56.8614 41.4347 56.8467C41.6831 56.8424 41.7894 56.9344 41.8821 57.1493C41.946 57.2988 41.9889 57.4695 42.0318 57.6399C42.1255 58.0125 42.2189 58.3839 42.53 58.5303C42.8369 58.675 43.2318 58.6427 43.6265 58.6104C43.7977 58.5964 43.9687 58.5825 44.1325 58.5829C44.1798 58.5829 44.2265 58.58 44.2904 58.576ZM40.3761 53.3423C40.2968 53.1404 40.2155 52.9333 40.1315 52.7197C40.0341 52.9629 39.9405 53.1981 39.8493 53.4273C39.5859 54.0889 39.3427 54.7 39.0871 55.3079C38.9943 55.5271 39.0227 55.5972 39.2696 55.5928C39.8277 55.5841 40.3858 55.5782 40.944 55.5943C41.2642 55.6031 41.2103 55.4569 41.134 55.264C40.8871 54.6433 40.643 54.0217 40.3761 53.3423Z" fill="white"/>
<path fill-rule="evenodd" clip-rule="evenodd" d="M54.8134 53.6994C54.8125 54.0158 54.8116 54.3322 54.8116 54.6487C54.8116 54.8863 54.8104 55.1239 54.8093 55.3617C54.8065 55.9429 54.8038 56.5245 54.8176 57.1054C54.8207 57.2517 54.8013 57.4147 54.7819 57.5779C54.7373 57.9526 54.6925 58.3283 54.9208 58.5054C55.127 58.6652 55.4824 58.637 55.8441 58.6082C56.0283 58.5936 56.2141 58.5788 56.3827 58.5887C56.6819 58.6062 56.7657 58.5069 56.7568 58.2219C56.7473 57.9276 56.75 57.6328 56.7527 57.338C56.756 56.9769 56.7592 56.6159 56.7403 56.2563C56.7193 55.8793 56.857 55.8003 57.2131 55.8076C57.2953 55.8092 57.3775 55.8109 57.4596 55.8126C58.1615 55.8272 58.8631 55.8418 59.5623 55.7463C60.7369 55.5841 61.5613 54.8943 61.7798 53.8844C62.1434 52.2053 61.0287 50.8973 59.1284 50.8359C58.3641 50.812 57.5992 50.8156 56.8345 50.8191C56.2922 50.8217 55.75 50.8242 55.2081 50.8169C54.8939 50.8125 54.7996 50.8973 54.8041 51.2086C54.8182 52.0392 54.8158 52.8691 54.8134 53.6994ZM56.8951 52.2968C56.7493 52.4405 56.7493 52.7255 56.7493 53.2911C56.7493 53.3742 56.7495 53.4572 56.7497 53.5403C56.7504 53.7481 56.751 53.9558 56.7478 54.1636L56.7477 54.1725C56.7461 54.3216 56.7446 54.4718 56.9587 54.4661C57.1799 54.46 57.402 54.4656 57.6241 54.4711C58.1473 54.4843 58.6707 54.4974 59.1822 54.3579C59.7433 54.2045 59.9887 53.826 59.9618 53.2502C59.9364 52.708 59.6491 52.3792 59.1134 52.2418C58.7508 52.1491 58.3815 52.1494 58.0105 52.1497C57.9896 52.1497 57.9687 52.1497 57.9478 52.1497C57.3432 52.1505 57.0436 52.1505 56.8951 52.2968Z" fill="white"/>
<path fill-rule="evenodd" clip-rule="evenodd" d="M25.2913 53.579C25.8973 54.1621 26.6738 54.0876 27.3965 53.3773C28.0983 54.203 28.9886 54.3492 29.6395 53.7441C30.3173 53.1128 30.3068 51.7449 29.6185 51.1107C28.9347 50.4793 27.9995 50.6211 27.2738 51.4673C26.5706 50.7892 25.7686 50.7176 25.2179 51.2817C24.6598 51.8531 24.6972 53.009 25.2913 53.579ZM28.7058 51.8034C29.023 51.8209 29.2819 51.9919 29.2804 52.3967C29.2789 52.8235 29.008 53.012 28.5966 53.0266C28.2135 53.0412 27.9292 52.8615 27.8379 52.5078C27.7601 52.2126 28.2494 51.8107 28.7058 51.8034ZM26.2908 51.894C26.587 51.9349 26.9222 52.0387 26.8818 52.3879C26.8429 52.7197 26.5766 52.9886 26.18 52.9637C25.8748 52.9447 25.6548 52.7796 25.6548 52.4391C25.6563 52.0387 25.9137 51.9115 26.2908 51.894Z" fill="white"/>
<path fill-rule="evenodd" clip-rule="evenodd" d="M29.1532 58.6779C28.6145 58.4411 28.0429 58.3754 27.4609 58.3695C26.9162 58.3695 26.3806 58.4367 25.8703 58.6355C25.2239 58.8898 24.8229 59.3413 24.8214 60.0399C24.8214 60.7078 25.1835 61.1798 25.8075 61.4341C26.9282 61.89 28.0624 61.8842 29.1816 61.4282C29.7846 61.1827 30.1362 60.7238 30.1347 60.075C30.1332 59.4071 29.7711 58.9497 29.1532 58.6779ZM28.8225 59.6073C28.3991 59.4437 27.9517 59.4349 27.5043 59.4393C27.4963 59.4392 27.4884 59.4392 27.4805 59.4392C27.0424 59.4377 26.6019 59.4362 26.183 59.5898C25.9706 59.6672 25.7656 59.7754 25.7521 60.0341C25.7372 60.2957 25.9257 60.4433 26.1412 60.5061C27.0329 60.7677 27.9337 60.775 28.827 60.5046C29.0484 60.4374 29.2265 60.281 29.2115 60.0282C29.1981 59.8017 29.02 59.6833 28.8225 59.6073Z" fill="white"/>
</svg>
