<svg width="128" height="128" viewBox="0 0 128 128" fill="none" xmlns="http://www.w3.org/2000/svg">
<path fill-rule="evenodd" clip-rule="evenodd" d="M4 63.1907H124L117.783 75.7967L124 88.4027H105.386V86.4878H120.921L115.648 75.7967L120.921 65.1055H7.31083L13.4619 75.7967L7.31083 86.4878H23.0485V88.4027H4L11.2528 75.7967L4 63.1907Z" fill="#3F3F3F"/>
<path fill-rule="evenodd" clip-rule="evenodd" d="M64.7337 16.1446C64.223 15.8362 63.5831 15.8384 63.0746 16.1503L24.7676 39.6432C24.2945 39.9334 24.0061 40.4485 24.0061 41.0035V52.8185H22.0913V41.0035C22.0913 39.7825 22.7257 38.6492 23.7665 38.0109L62.0735 14.518C63.1922 13.8319 64.6001 13.8271 65.7235 14.5054L104.648 38.0099C105.701 38.6455 106.344 39.7855 106.344 41.0151V52.3398H104.429V41.0151C104.429 40.4562 104.137 39.938 103.658 39.6491L64.7337 16.1446ZM104.429 87.4452V74.2009H106.344V87.4452C106.344 88.6713 105.704 89.8085 104.657 90.4452L65.732 114.099C64.6044 114.785 63.1879 114.78 62.0651 114.087L23.7581 90.4441C22.7221 89.8047 22.0913 88.6742 22.0913 87.4568V74.52H24.0061V87.4568C24.0061 88.0102 24.2929 88.524 24.7638 88.8147L63.0708 112.457C63.5812 112.772 64.225 112.775 64.7375 112.463L103.662 88.8089C104.138 88.5194 104.429 88.0025 104.429 87.4452Z" fill="#3F3F3F"/>
<path fill-rule="evenodd" clip-rule="evenodd" d="M64.9523 29.7438C64.5191 29.3106 63.9208 29.0427 63.2598 29.0427H57.1962L51.4516 29.0427C50.1297 29.0427 49.0581 30.1144 49.0581 31.4363C49.0581 32.7582 50.1297 33.8298 51.4516 33.8298L54.8026 33.8298V44.2018C54.8026 45.5238 55.8742 46.5954 57.1962 46.5954C58.5181 46.5954 59.5897 45.5238 59.5897 44.2018V33.8298H60.8663V44.2018C60.8663 45.5238 61.9379 46.5954 63.2598 46.5954C64.5817 46.5954 65.6533 45.5238 65.6533 44.2018V37.2148L67.8833 39.4448C68.3879 39.9494 69.0616 40.1816 69.722 40.1414C70.3823 40.1816 71.056 39.9494 71.5606 39.4448L73.951 37.0544V44.2018C73.951 45.5238 75.0226 46.5954 76.3445 46.5954C77.6664 46.5954 78.738 45.5238 78.738 44.2018V31.4363C78.738 30.1144 77.6664 29.0427 76.3445 29.0427C76.168 29.0427 75.996 29.0618 75.8304 29.0981C75.3283 29.1653 74.8435 29.3919 74.4576 29.7778L69.722 34.5135L64.9863 29.7778C64.9807 29.7722 64.9751 29.7666 64.9694 29.7611C64.9637 29.7553 64.958 29.7495 64.9523 29.7438Z" fill="#3F3F3F"/>
<path fill-rule="evenodd" clip-rule="evenodd" d="M15.8682 52.3398H113.525V75.637H15.8682V52.3398ZM32.0737 60.5577C32.2046 60.6558 32.27 60.7977 32.27 60.9831C32.27 61.1533 32.2046 61.2863 32.0737 61.3823C31.9428 61.4761 31.7606 61.523 31.5272 61.523C30.8989 61.523 30.5847 61.2602 30.5847 60.7344H29.5997C29.5997 61.042 29.6783 61.3125 29.8353 61.5459C29.9946 61.7794 30.2248 61.9637 30.5258 62.099C30.8269 62.2321 31.1607 62.2986 31.5272 62.2986C32.0551 62.2986 32.4751 62.1819 32.7871 61.9485C33.099 61.7128 33.255 61.3889 33.255 60.9765C33.255 60.6057 33.1274 60.2959 32.8721 60.0472C32.6169 59.7985 32.21 59.5901 31.6515 59.4221C31.3483 59.3305 31.1181 59.2323 30.961 59.1276C30.8062 59.0229 30.7287 58.8931 30.7287 58.7382C30.7287 58.5724 30.7952 58.4393 30.9283 58.339C31.0614 58.2364 31.2479 58.1852 31.4879 58.1852C31.7366 58.1852 31.9297 58.2463 32.0671 58.3684C32.2046 58.4884 32.2733 58.6575 32.2733 58.8757H33.255C33.255 58.5899 33.1808 58.3346 33.0325 58.1099C32.8863 57.8852 32.6802 57.7118 32.414 57.5896C32.1478 57.4652 31.8446 57.4031 31.5043 57.4031C31.1661 57.4031 30.8607 57.4598 30.588 57.5732C30.3175 57.6867 30.1091 57.8448 29.963 58.0477C29.819 58.2484 29.747 58.4775 29.747 58.7349C29.747 59.2302 30.0175 59.6239 30.5585 59.9163C30.7571 60.0232 31.0265 60.1323 31.3668 60.2435C31.7072 60.3526 31.9428 60.4573 32.0737 60.5577ZM21.7492 62.2332V57.4685H23.4181C23.9962 57.4685 24.4347 57.5798 24.7336 57.8023C25.0325 58.0226 25.1819 58.3466 25.1819 58.7742C25.1819 59.0076 25.122 59.2138 25.002 59.3927C24.882 59.5694 24.7151 59.6992 24.5013 59.7821C24.7456 59.8432 24.9376 59.9665 25.0772 60.1519C25.219 60.3373 25.2899 60.5642 25.2899 60.8326C25.2899 61.2907 25.1438 61.6376 24.8514 61.8732C24.5591 62.1088 24.1424 62.2288 23.6014 62.2332H21.7492ZM22.7309 60.1584V61.4445H23.5719C23.8032 61.4445 23.9831 61.39 24.1119 61.2809C24.2428 61.1696 24.3082 61.0169 24.3082 60.8227C24.3082 60.3864 24.0824 60.165 23.6308 60.1584H22.7309ZM22.7309 59.4647H23.4574C23.9526 59.456 24.2002 59.2585 24.2002 58.8724C24.2002 58.6564 24.137 58.5015 24.0104 58.4077C23.8861 58.3117 23.6886 58.2637 23.4181 58.2637H22.7309V59.4647ZM28.8961 60.1683H27.0112V61.4445H29.2234V62.2332H26.0295V57.4685H29.2168V58.2637H27.0112V59.3992H28.8961V60.1683ZM37.5092 58.2637H36.0497V62.2332H35.0679V58.2637H33.6281V57.4685H37.5092V58.2637ZM42.6109 61.4445H40.5263V57.4685H39.5446V62.2332H42.6109V61.4445ZM46.0436 60.1683H44.1587V61.4445H46.3709V62.2332H43.177V57.4685H46.3643V58.2637H44.1587V59.3992H46.0436V60.1683ZM47.9155 61.2514H49.6368L49.9673 62.2332H51.0112L49.2277 57.4685H48.318L46.5443 62.2332H47.5882L47.9155 61.2514ZM49.3717 60.4562H48.1805L48.7728 58.6728L49.3717 60.4562ZM51.4562 62.2332V57.4685H52.9223C53.3411 57.4685 53.7153 57.5634 54.0447 57.7532C54.3763 57.9408 54.6348 58.2092 54.8203 58.5582C55.0057 58.9051 55.0984 59.3 55.0984 59.7428V59.9621C55.0984 60.405 55.0068 60.7987 54.8236 61.1434C54.6425 61.4881 54.3861 61.7554 54.0545 61.9452C53.7229 62.135 53.3488 62.231 52.9321 62.2332H51.4562ZM52.438 58.2637V61.4445H52.9125C53.2964 61.4445 53.5899 61.3191 53.7927 61.0682C53.9956 60.8173 54.0993 60.4584 54.1036 59.9915V59.7396C54.1036 59.2553 54.0033 58.8887 53.8026 58.64C53.6018 58.3892 53.3084 58.2637 52.9223 58.2637H52.438ZM55.8773 62.2332H56.859V57.4685H55.8773V62.2332ZM61.6466 62.2332H60.6648L58.7537 59.0982V62.2332H57.772V57.4685H58.7537L60.6681 60.61V57.4685H61.6466V62.2332ZM65.5244 62.1252C65.8473 62.0074 66.097 61.8426 66.2738 61.631V59.7298H64.3987V60.453H65.292V61.2743C65.135 61.4314 64.8721 61.51 64.5034 61.51C64.1369 61.51 63.8587 61.3823 63.6689 61.1271C63.4791 60.8718 63.3842 60.4944 63.3842 59.9948V59.6905C63.3864 59.1953 63.4748 58.8222 63.6493 58.5713C63.8238 58.3204 64.078 58.195 64.4118 58.195C64.6735 58.195 64.8786 58.2583 65.027 58.3848C65.1775 58.5113 65.2746 58.7109 65.3182 58.9836H66.2738C66.2149 58.4688 66.0261 58.0772 65.7076 57.8088C65.3891 57.5383 64.9473 57.4031 64.3823 57.4031C63.9765 57.4031 63.622 57.4958 63.3188 57.6812C63.0177 57.8645 62.7864 58.1306 62.625 58.4797C62.4658 58.8266 62.3861 59.2378 62.3861 59.7134V60.0374C62.3905 60.4999 62.4767 60.9024 62.6446 61.2449C62.8148 61.5874 63.0548 61.8492 63.3646 62.0303C63.6765 62.2092 64.0387 62.2986 64.451 62.2986C64.8437 62.2986 65.2015 62.2408 65.5244 62.1252ZM72.4521 60.8587L73.0935 57.4685H74.0719L73.015 62.2332H72.0267L71.2511 59.0458L70.4756 62.2332H69.4873L68.4303 57.4685H69.4087L70.0534 60.8522L70.8388 57.4685H71.67L72.4521 60.8587ZM78.2705 61.1925C78.4363 60.8391 78.5192 60.4279 78.5192 59.9588V59.7461C78.5192 59.2793 78.4341 58.868 78.2639 58.5124C78.0959 58.1546 77.857 57.8808 77.5473 57.691C77.2397 57.4991 76.8873 57.4031 76.4903 57.4031C76.0932 57.4031 75.7398 57.4991 75.43 57.691C75.1224 57.8808 74.8835 58.1546 74.7133 58.5124C74.5454 58.868 74.4614 59.2803 74.4614 59.7494V59.985C74.4635 60.4431 74.5497 60.8489 74.7199 61.2023C74.8901 61.5536 75.13 61.8241 75.4398 62.0139C75.7496 62.2037 76.1019 62.2986 76.4968 62.2986C76.896 62.2986 77.2495 62.2026 77.5571 62.0106C77.8669 61.8187 78.1047 61.5459 78.2705 61.1925ZM77.256 58.604C77.4349 58.8637 77.5244 59.2433 77.5244 59.7428V59.9752C77.5222 60.4704 77.4327 60.8478 77.256 61.1074C77.0793 61.3649 76.8262 61.4936 76.4968 61.4936C76.1608 61.4936 75.9034 61.3594 75.7245 61.0911C75.5456 60.8227 75.4562 60.4453 75.4562 59.9588V59.7265C75.4584 59.2313 75.5489 58.856 75.7278 58.6008C75.9067 58.3433 76.1608 58.2146 76.4903 58.2146C76.8219 58.2146 77.0771 58.3444 77.256 58.604ZM80.9964 60.489H80.2143V62.2332H79.2326V57.4685H81.0029C81.5658 57.4685 81.9999 57.594 82.3054 57.8448C82.6108 58.0957 82.7635 58.4502 82.7635 58.9084C82.7635 59.2334 82.6926 59.505 82.5508 59.7232C82.4112 59.9392 82.1985 60.1115 81.9127 60.2403L82.9435 62.1873V62.2332H81.8898L80.9964 60.489ZM80.2143 59.6938H81.0062C81.2527 59.6938 81.4436 59.6316 81.5789 59.5072C81.7141 59.3807 81.7818 59.2073 81.7818 58.9869C81.7818 58.7622 81.7174 58.5855 81.5887 58.4568C81.4622 58.3281 81.2669 58.2637 81.0029 58.2637H80.2143V59.6938ZM83.5129 57.4685V62.2332H84.9887C85.4054 62.231 85.7796 62.135 86.1112 61.9452C86.4428 61.7554 86.6991 61.4881 86.8802 61.1434C87.0635 60.7987 87.1551 60.405 87.1551 59.9621V59.7428C87.1551 59.3 87.0624 58.9051 86.8769 58.5582C86.6915 58.2092 86.433 57.9408 86.1014 57.7532C85.7719 57.5634 85.3978 57.4685 84.9789 57.4685H83.5129ZM84.4946 61.4445V58.2637H84.9789C85.3651 58.2637 85.6585 58.3892 85.8592 58.64C86.0599 58.8887 86.1603 59.2553 86.1603 59.7396V59.9915C86.1559 60.4584 86.0523 60.8173 85.8494 61.0682C85.6465 61.3191 85.3531 61.4445 84.9691 61.4445H84.4946ZM88.8535 60.5544V62.2332H87.8718V57.4685H89.7305C90.0883 57.4685 90.4024 57.534 90.673 57.6649C90.9456 57.7958 91.1551 57.9823 91.3013 58.2244C91.4474 58.4644 91.5205 58.7382 91.5205 59.0458C91.5205 59.5127 91.3602 59.8814 91.0395 60.1519C90.7209 60.4202 90.2792 60.5544 89.7141 60.5544H88.8535ZM88.8535 59.7592H89.7305C89.9901 59.7592 90.1875 59.6981 90.3228 59.576C90.4602 59.4538 90.529 59.2793 90.529 59.0524C90.529 58.8189 90.4602 58.6302 90.3228 58.4862C90.1854 58.3422 89.9956 58.2681 89.7534 58.2637H88.8535V59.7592ZM93.1796 60.489H93.9617L94.8551 62.2332H95.9088V62.1873L94.878 60.2403C95.1638 60.1115 95.3765 59.9392 95.5161 59.7232C95.6579 59.505 95.7288 59.2334 95.7288 58.9084C95.7288 58.4502 95.5761 58.0957 95.2707 57.8448C94.9653 57.594 94.5311 57.4685 93.9683 57.4685H92.1979V62.2332H93.1796V60.489ZM93.9715 59.6938H93.1796V58.2637H93.9683C94.2323 58.2637 94.4275 58.3281 94.554 58.4568C94.6828 58.5855 94.7471 58.7622 94.7471 58.9869C94.7471 59.2073 94.6795 59.3807 94.5442 59.5072C94.409 59.6316 94.2181 59.6938 93.9715 59.6938ZM99.3449 60.1683H97.46V61.4445H99.6721V62.2332H96.4782V57.4685H99.6656V58.2637H97.46V59.3992H99.3449V60.1683ZM102.522 60.5577C102.653 60.6558 102.719 60.7977 102.719 60.9831C102.719 61.1533 102.653 61.2863 102.522 61.3823C102.391 61.4761 102.209 61.523 101.976 61.523C101.348 61.523 101.033 61.2602 101.033 60.7344H100.048C100.048 61.042 100.127 61.3125 100.284 61.5459C100.443 61.7794 100.673 61.9637 100.975 62.099C101.276 62.2321 101.609 62.2986 101.976 62.2986C102.504 62.2986 102.924 62.1819 103.236 61.9485C103.548 61.7128 103.704 61.3889 103.704 60.9765C103.704 60.6057 103.576 60.2959 103.321 60.0472C103.066 59.7985 102.659 59.5901 102.1 59.4221C101.797 59.3305 101.567 59.2323 101.41 59.1276C101.255 59.0229 101.177 58.8931 101.177 58.7382C101.177 58.5724 101.244 58.4393 101.377 58.339C101.51 58.2364 101.697 58.1852 101.937 58.1852C102.185 58.1852 102.378 58.2463 102.516 58.3684C102.653 58.4884 102.722 58.6575 102.722 58.8757H103.704C103.704 58.5899 103.63 58.3346 103.481 58.1099C103.335 57.8852 103.129 57.7118 102.863 57.5896C102.597 57.4652 102.293 57.4031 101.953 57.4031C101.615 57.4031 101.309 57.4598 101.037 57.5732C100.766 57.6867 100.558 57.8448 100.412 58.0477C100.268 58.2484 100.196 58.4775 100.196 58.7349C100.196 59.2302 100.466 59.6239 101.007 59.9163C101.206 60.0232 101.475 60.1323 101.816 60.2435C102.156 60.3526 102.391 60.4573 102.522 60.5577ZM106.842 60.9831C106.842 60.7977 106.777 60.6558 106.646 60.5577C106.515 60.4573 106.279 60.3526 105.939 60.2435C105.598 60.1323 105.329 60.0232 105.131 59.9163C104.589 59.6239 104.319 59.2302 104.319 58.7349C104.319 58.4775 104.391 58.2484 104.535 58.0477C104.681 57.8448 104.889 57.6867 105.16 57.5732C105.433 57.4598 105.738 57.4031 106.076 57.4031C106.417 57.4031 106.72 57.4652 106.986 57.5896C107.252 57.7118 107.458 57.8852 107.604 58.1099C107.753 58.3346 107.827 58.5899 107.827 58.8757H106.845C106.845 58.6575 106.777 58.4884 106.639 58.3684C106.502 58.2463 106.309 58.1852 106.06 58.1852C105.82 58.1852 105.633 58.2364 105.5 58.339C105.367 58.4393 105.301 58.5724 105.301 58.7382C105.301 58.8931 105.378 59.0229 105.533 59.1276C105.69 59.2323 105.92 59.3305 106.224 59.4221C106.782 59.5901 107.189 59.7985 107.444 60.0472C107.699 60.2959 107.827 60.6057 107.827 60.9765C107.827 61.3889 107.671 61.7128 107.359 61.9485C107.047 62.1819 106.627 62.2986 106.099 62.2986C105.733 62.2986 105.399 62.2321 105.098 62.099C104.797 61.9637 104.567 61.7794 104.407 61.5459C104.25 61.3125 104.172 61.042 104.172 60.7344H105.157C105.157 61.2602 105.471 61.523 106.099 61.523C106.333 61.523 106.515 61.4761 106.646 61.3823C106.777 61.2863 106.842 61.1533 106.842 60.9831ZM47.8002 69.9579C47.9423 69.655 48.0133 69.3025 48.0133 68.9005V68.7182C48.0133 68.318 47.9404 67.9655 47.7945 67.6607C47.6506 67.354 47.4458 67.1194 47.1803 66.9567C46.9166 66.7921 46.6146 66.7098 46.2743 66.7098C45.9339 66.7098 45.631 66.7921 45.3655 66.9567C45.1018 67.1194 44.897 67.354 44.7512 67.6607C44.6072 67.9655 44.5352 68.3189 44.5352 68.721V68.9229C44.5371 69.3156 44.6109 69.6634 44.7568 69.9664C44.9027 70.2674 45.1084 70.4993 45.3739 70.662C45.6394 70.8247 45.9414 70.906 46.2799 70.906C46.6221 70.906 46.925 70.8237 47.1887 70.6592C47.4542 70.4946 47.658 70.2609 47.8002 69.9579ZM46.9306 67.7392C47.084 67.9618 47.1606 68.2871 47.1606 68.7154V68.9145C47.1588 69.339 47.0821 69.6625 46.9306 69.885C46.7792 70.1057 46.5622 70.216 46.2799 70.216C45.9919 70.216 45.7713 70.101 45.6179 69.871C45.4646 69.641 45.3879 69.3175 45.3879 68.9005V68.7013C45.3898 68.2769 45.4674 67.9552 45.6207 67.7364C45.7741 67.5158 45.9919 67.4055 46.2743 67.4055C46.5585 67.4055 46.7773 67.5167 46.9306 67.7392ZM27.7673 66.7659V70.8499H29.0323C29.3895 70.848 29.7102 70.7658 29.9944 70.6031C30.2787 70.4404 30.4984 70.2113 30.6536 69.9159C30.8107 69.6204 30.8892 69.2829 30.8892 68.9033V68.7154C30.8892 68.3358 30.8097 67.9973 30.6508 67.7C30.4918 67.4008 30.2703 67.1708 29.986 67.01C29.7037 66.8473 29.383 66.7659 29.0239 66.7659H27.7673ZM28.6088 70.1739V67.4475H29.0239C29.3549 67.4475 29.6064 67.5551 29.7785 67.7701C29.9505 67.9833 30.0365 68.2974 30.0365 68.7126V68.9285C30.0328 69.3287 29.9439 69.6363 29.77 69.8514C29.5961 70.0664 29.3446 70.1739 29.0155 70.1739H28.6088ZM32.345 69.08H33.9606V68.4208H32.345V67.4475H34.2355V66.7659H31.5035V70.8499H34.2411V70.1739H32.345V69.08ZM36.2438 69.8373L37.1695 66.7659H38.1063L36.6842 70.8499H35.8063L34.3898 66.7659H35.3238L36.2438 69.8373ZM39.3349 69.08H40.9505V68.4208H39.3349V67.4475H41.2254V66.7659H38.4934V70.8499H41.231V70.1739H39.3349V69.08ZM42.5661 70.1739H44.3529V70.8499H41.7247V66.7659H42.5661V70.1739ZM49.4663 69.411V70.8499H48.6248V66.7659H50.218C50.5247 66.7659 50.794 66.822 51.0258 66.9342C51.2596 67.0464 51.4391 67.2063 51.5644 67.4139C51.6897 67.6196 51.7523 67.8542 51.7523 68.1179C51.7523 68.5181 51.6149 68.8341 51.34 69.066C51.067 69.296 50.6883 69.411 50.204 69.411H49.4663ZM49.4663 68.7294H50.218C50.4405 68.7294 50.6098 68.677 50.7257 68.5723C50.8435 68.4676 50.9024 68.318 50.9024 68.1235C50.9024 67.9234 50.8435 67.7617 50.7257 67.6383C50.6079 67.5148 50.4452 67.4513 50.2376 67.4475H49.4663V68.7294ZM54.4815 69.7279L53.4325 66.7659H52.3329V70.8499H53.1744V69.7336L53.0903 67.8094L54.1898 70.8499H54.7676L55.8699 67.8066L55.7858 69.7336V70.8499H56.6301V66.7659H55.5249L54.4815 69.7279ZM59.8221 69.08H58.2065V70.1739H60.1026V70.8499H57.365V66.7659H60.097V67.4475H58.2065V68.4208H59.8221V69.08ZM63.0758 70.8499H63.9173V66.7659H63.0786V69.4587L61.4377 66.7659H60.5963V70.8499H61.4377V68.1628L63.0758 70.8499ZM67.6423 67.4475H66.3913V70.8499H65.5498V67.4475H64.3156V66.7659H67.6423V67.4475ZM72.1049 70.5273C72.3985 70.2749 72.5612 69.929 72.593 69.4895H71.7515C71.7328 69.7382 71.6589 69.9224 71.5299 70.0421C71.4027 70.1599 71.2092 70.2188 70.9493 70.2188C70.6613 70.2188 70.45 70.1169 70.3154 69.9131C70.1826 69.7092 70.1162 69.3867 70.1162 68.9454V68.6368C70.1199 68.2142 70.191 67.9029 70.3294 67.7028C70.4696 67.5008 70.68 67.3998 70.9605 67.3998C71.2185 67.3998 71.4102 67.4597 71.5355 67.5794C71.6627 67.6972 71.7365 67.8879 71.7571 68.1516H72.5986C72.5537 67.6953 72.3873 67.3409 72.0993 67.0885C71.8113 66.8361 71.4317 66.7098 70.9605 66.7098C70.6202 66.7098 70.321 66.7902 70.0629 66.9511C69.8067 67.11 69.6095 67.3391 69.4711 67.6383C69.3327 67.9375 69.2635 68.2834 69.2635 68.6761V68.9257C69.2635 69.5409 69.4131 70.0253 69.7123 70.3787C70.0134 70.7302 70.4257 70.906 70.9493 70.906C71.428 70.906 71.8132 70.7798 72.1049 70.5273ZM76.5002 68.9005C76.5002 69.3025 76.4292 69.655 76.2871 69.9579C76.1449 70.2609 75.9411 70.4946 75.6756 70.6592C75.4119 70.8237 75.109 70.906 74.7668 70.906C74.4283 70.906 74.1263 70.8247 73.8608 70.662C73.5953 70.4993 73.3896 70.2674 73.2437 69.9664C73.0979 69.6634 73.024 69.3156 73.0221 68.9229V68.721C73.0221 68.3189 73.0941 67.9655 73.2381 67.6607C73.384 67.354 73.5887 67.1194 73.8524 66.9567C74.1179 66.7921 74.4208 66.7098 74.7612 66.7098C75.1015 66.7098 75.4035 66.7921 75.6672 66.9567C75.9327 67.1194 76.1375 67.354 76.2815 67.6607C76.4273 67.9655 76.5002 68.318 76.5002 68.7182V68.9005ZM75.6475 68.7154C75.6475 68.2871 75.5709 67.9618 75.4175 67.7392C75.2642 67.5167 75.0454 67.4055 74.7612 67.4055C74.4788 67.4055 74.261 67.5158 74.1076 67.7364C73.9543 67.9552 73.8767 68.2769 73.8748 68.7013V68.9005C73.8748 69.3175 73.9515 69.641 74.1048 69.871C74.2582 70.101 74.4788 70.216 74.7668 70.216C75.0492 70.216 75.2661 70.1057 75.4175 69.885C75.569 69.6625 75.6457 69.339 75.6475 68.9145V68.7154ZM79.2603 69.7279L78.2113 66.7659H77.1117V70.8499H77.9532V69.7336L77.869 67.8094L78.9686 70.8499H79.5464L80.6487 67.8066L80.5646 69.7336V70.8499H81.4089V66.7659H80.3037L79.2603 69.7279ZM82.9852 69.411V70.8499H82.1438V66.7659H83.737C84.0436 66.7659 84.3129 66.822 84.5448 66.9342C84.7785 67.0464 84.9581 67.2063 85.0833 67.4139C85.2086 67.6196 85.2713 67.8542 85.2713 68.1179C85.2713 68.5181 85.1338 68.8341 84.8589 69.066C84.5859 69.296 84.2073 69.411 83.7229 69.411H82.9852ZM82.9852 68.7294H83.737C83.9595 68.7294 84.1287 68.677 84.2447 68.5723C84.3625 68.4676 84.4214 68.318 84.4214 68.1235C84.4214 67.9234 84.3625 67.7617 84.2447 67.6383C84.1269 67.5148 83.9642 67.4513 83.7566 67.4475H82.9852V68.7294ZM86.1829 70.0084H87.6583L87.9416 70.8499H88.8363L87.3076 66.7659H86.5279L85.0076 70.8499H85.9024L86.1829 70.0084ZM87.4311 69.3268H86.4101L86.9178 67.7981L87.4311 69.3268ZM92.5388 70.8499H91.6974L90.0593 68.1628V70.8499H89.2178V66.7659H90.0593L91.7002 69.4587V66.7659H92.5388V70.8499ZM93.327 70.8499H94.1685V66.7659H93.327V70.8499ZM97.4082 69.08H95.7926V70.1739H97.6887V70.8499H94.9511V66.7659H97.6831V67.4475H95.7926V68.4208H97.4082V69.08ZM100.132 69.4138C100.244 69.4979 100.3 69.6195 100.3 69.7784C100.3 69.9243 100.244 70.0384 100.132 70.1206C100.02 70.201 99.8635 70.2412 99.6634 70.2412C99.1248 70.2412 98.8556 70.0159 98.8556 69.5653H98.0113C98.0113 69.8289 98.0786 70.0608 98.2132 70.2609C98.3497 70.461 98.547 70.619 98.8051 70.7349C99.0631 70.849 99.3492 70.906 99.6634 70.906C100.116 70.906 100.476 70.806 100.743 70.6059C101.011 70.4039 101.144 70.1262 101.144 69.7728C101.144 69.4549 101.035 69.1894 100.816 68.9762C100.597 68.763 100.249 68.5845 99.77 68.4405C99.51 68.3619 99.3128 68.2778 99.1781 68.188C99.0454 68.0983 98.979 67.987 98.979 67.8542C98.979 67.7121 99.036 67.5981 99.1501 67.512C99.2642 67.4242 99.424 67.3802 99.6297 67.3802C99.8429 67.3802 100.008 67.4326 100.126 67.5373C100.244 67.6401 100.303 67.7851 100.303 67.9721H101.144C101.144 67.7271 101.081 67.5083 100.954 67.3157C100.828 67.1231 100.652 66.9744 100.424 66.8697C100.195 66.7631 99.9355 66.7098 99.6438 66.7098C99.3539 66.7098 99.0921 66.7585 98.8584 66.8557C98.6265 66.9529 98.4479 67.0885 98.3226 67.2624C98.1992 67.4344 98.1375 67.6308 98.1375 67.8514C98.1375 68.2759 98.3694 68.6134 98.8331 68.864C99.0033 68.9556 99.2342 69.0491 99.5259 69.1445C99.8177 69.238 100.02 69.3278 100.132 69.4138Z" fill="#3F3F3F"/>
<path d="M57.3008 95.7428H51.5466V94.6012L54.2622 91.7068C54.6351 91.2994 54.9099 90.9439 55.0867 90.6402C55.2674 90.3365 55.3577 90.0482 55.3577 89.7753C55.3577 89.4025 55.2636 89.1104 55.0752 88.899C54.8869 88.6837 54.6178 88.5761 54.268 88.5761C53.8913 88.5761 53.5934 88.7068 53.3743 88.9681C53.1591 89.2257 53.0514 89.5659 53.0514 89.9887H51.3794C51.3794 89.4774 51.5005 89.0104 51.7426 88.5876C51.9886 88.1648 52.3346 87.8342 52.7805 87.5959C53.2263 87.3537 53.7318 87.2327 54.2968 87.2327C55.1617 87.2327 55.8324 87.4402 56.3091 87.8554C56.7895 88.2705 57.0298 88.8567 57.0298 89.6139C57.0298 90.029 56.9222 90.4518 56.7069 90.8824C56.4916 91.3129 56.1226 91.8145 55.5999 92.3872L53.6914 94.3994H57.3008V95.7428Z" fill="#3F3F3F"/>
<path d="M63.9774 92.2719C63.9774 93.4327 63.7372 94.3206 63.2567 94.9356C62.7763 95.5506 62.0728 95.8581 61.1465 95.8581C60.2317 95.8581 59.5321 95.5564 59.0478 94.9529C58.5635 94.3495 58.3155 93.4846 58.304 92.3584V90.8132C58.304 89.6408 58.5462 88.751 59.0305 88.1436C59.5186 87.5363 60.2201 87.2327 61.135 87.2327C62.0498 87.2327 62.7493 87.5344 63.2337 88.1379C63.718 88.7375 63.9659 89.6004 63.9774 90.7267V92.2719ZM62.3112 90.5768C62.3112 89.881 62.2151 89.3756 62.0229 89.0604C61.8345 88.7414 61.5386 88.5818 61.135 88.5818C60.7429 88.5818 60.4527 88.7337 60.2643 89.0373C60.0798 89.3371 59.9818 89.808 59.9703 90.4499V92.491C59.9703 93.1752 60.0625 93.6845 60.247 94.0189C60.4354 94.3495 60.7352 94.5147 61.1465 94.5147C61.5539 94.5147 61.848 94.3552 62.0286 94.0362C62.2093 93.7172 62.3035 93.229 62.3112 92.5717V90.5768Z" fill="#3F3F3F"/>
<path d="M70.8617 95.7428H65.1075V94.6012L67.8232 91.7068C68.196 91.2994 68.4708 90.9439 68.6477 90.6402C68.8283 90.3365 68.9186 90.0482 68.9186 89.7753C68.9186 89.4025 68.8245 89.1104 68.6361 88.899C68.4478 88.6837 68.1787 88.5761 67.8289 88.5761C67.4522 88.5761 67.1543 88.7068 66.9352 88.9681C66.72 89.2257 66.6124 89.5659 66.6124 89.9887H64.9403C64.9403 89.4774 65.0614 89.0104 65.3036 88.5876C65.5496 88.1648 65.8955 87.8342 66.3414 87.5959C66.7873 87.3537 67.2927 87.2327 67.8578 87.2327C68.7226 87.2327 69.3934 87.4402 69.87 87.8554C70.3505 88.2705 70.5907 88.8567 70.5907 89.6139C70.5907 90.029 70.4831 90.4518 70.2678 90.8824C70.0526 91.3129 69.6836 91.8145 69.1608 92.3872L67.2524 94.3994H70.8617V95.7428Z" fill="#3F3F3F"/>
<path d="M77.5384 92.2719C77.5384 93.4327 77.2981 94.3206 76.8176 94.9356C76.3372 95.5506 75.6338 95.8581 74.7074 95.8581C73.7926 95.8581 73.093 95.5564 72.6087 94.9529C72.1244 94.3495 71.8764 93.4846 71.8649 92.3584V90.8132C71.8649 89.6408 72.1071 88.751 72.5914 88.1436C73.0796 87.5363 73.781 87.2327 74.6959 87.2327C75.6107 87.2327 76.3103 87.5344 76.7946 88.1379C77.2789 88.7375 77.5268 89.6004 77.5384 90.7267V92.2719ZM75.8721 90.5768C75.8721 89.881 75.776 89.3756 75.5838 89.0604C75.3954 88.7414 75.0995 88.5818 74.6959 88.5818C74.3038 88.5818 74.0136 88.7337 73.8253 89.0373C73.6408 89.3371 73.5427 89.808 73.5312 90.4499V92.491C73.5312 93.1752 73.6235 93.6845 73.808 94.0189C73.9963 94.3495 74.2961 94.5147 74.7074 94.5147C75.1148 94.5147 75.4089 94.3552 75.5896 94.0362C75.7702 93.7172 75.8644 93.229 75.8721 92.5717V90.5768Z" fill="#3F3F3F"/>
</svg>
