<svg width="119" height="117" viewBox="0 0 119 117" fill="none" xmlns="http://www.w3.org/2000/svg">
<path fill-rule="evenodd" clip-rule="evenodd" d="M65.8514 20.0846C61.6434 20.0799 57.4354 20.0814 53.2274 20.0846C52.2727 20.0862 51.8741 20.4839 51.8725 21.4319C51.863 25.6304 51.863 29.8291 51.8725 34.0276C51.8757 34.9331 52.3199 35.389 53.2384 35.3906C57.4275 35.3984 61.615 35.3969 65.8041 35.3906C66.7211 35.389 67.2236 34.8812 67.2236 33.9804C67.2268 29.8018 67.2268 25.6215 67.2236 21.4429C67.222 20.5531 66.7526 20.0862 65.8514 20.0846ZM62.1727 31.3471C61.39 31.7648 60.5522 31.7567 59.713 31.7486C59.5792 31.7473 59.4454 31.746 59.3117 31.7465C59.1715 31.7465 59.0865 31.704 59.0959 31.5484C59.0977 31.5265 59.097 31.5047 59.0963 31.4829C59.096 31.474 59.0957 31.4652 59.0956 31.4563C59.0955 31.4477 59.0956 31.4391 59.0959 31.4305C59.1103 31.0526 59.1014 30.7665 59.0946 30.5498C59.0847 30.2294 59.0794 30.0606 59.1611 29.972C59.2516 29.8737 59.4488 29.8733 59.8643 29.8725C60.0445 29.8721 60.2659 29.8716 60.5374 29.8631C61.2527 29.8411 61.7348 29.5015 61.9963 28.8286C62.2011 28.302 62.2153 27.7549 62.1507 27.2188C62.0168 26.1152 61.3787 25.5744 60.2665 25.5555C60.0914 25.5525 59.9161 25.5551 59.741 25.5577C59.4637 25.5618 59.1867 25.566 58.9116 25.5477C58.5051 25.5194 58.3744 25.6467 58.3791 26.068C58.3913 26.9693 58.3905 27.8707 58.3896 28.772V28.7739C58.3889 29.617 58.3881 30.4601 58.398 31.3031C58.4027 31.6694 58.3082 31.7873 57.9443 31.7496C57.7641 31.731 57.5651 31.752 57.369 31.7727C57.0182 31.8097 56.6768 31.8458 56.4696 31.6521C56.1416 31.3473 56.2533 30.1721 56.3323 29.3415C56.3596 29.0546 56.383 28.8088 56.383 28.6541H56.3972C56.3972 28.4001 56.3957 28.1459 56.3943 27.8917L56.3943 27.8885V27.8871C56.3907 27.2603 56.3871 26.6331 56.4051 26.0067C56.4161 25.6436 56.3105 25.5414 55.945 25.5445C54.9651 25.5492 54.9651 25.5304 54.9651 24.5274C54.9651 23.7366 54.9651 23.735 55.7654 23.735C56.2693 23.735 56.7734 23.7348 57.2776 23.7347H57.2831C58.2902 23.7343 59.2976 23.734 60.3043 23.735C62.2216 23.7366 63.8033 25.1342 64.0523 27.0459C64.2949 28.9057 63.5418 30.6161 62.1727 31.3471Z" fill="#3F3F3F"/>
<path d="M41.6801 50.3043H41.6712V48.5539H41.2258V52.9298H41.6712V51.2961C41.6712 51.0511 41.7306 50.8274 41.8494 50.6252C41.9711 50.419 42.1121 50.3159 42.2725 50.3159C42.4507 50.3159 42.5739 50.382 42.6422 50.5143C42.7134 50.6427 42.7491 50.8838 42.7491 51.2378V52.9298H43.1856V51.1794C43.1856 50.2848 42.9332 49.8375 42.4284 49.8375C42.1344 49.8375 41.885 49.9931 41.6801 50.3043Z" fill="#3F3F3F"/>
<path d="M38.267 48.6706H40.6722V49.2073H39.7146V52.9298H39.2246V49.2073H38.267V48.6706Z" fill="#3F3F3F"/>
<path fill-rule="evenodd" clip-rule="evenodd" d="M44.0585 51.6462C44.0674 51.9185 44.1387 52.1344 44.2723 52.2939C44.4089 52.4533 44.5796 52.5331 44.7845 52.5331C45.0072 52.5331 45.2299 52.4592 45.4526 52.3114L45.5639 52.7548C45.3056 52.9104 45.0309 52.9882 44.74 52.9882C44.4074 52.9882 44.1342 52.8462 43.9204 52.5622C43.7096 52.2744 43.6042 51.8913 43.6042 51.4128C43.6042 50.9227 43.7022 50.5376 43.8981 50.2576C44.0971 49.9775 44.3628 49.8375 44.6954 49.8375C45.025 49.8375 45.2819 49.9697 45.466 50.2342C45.6501 50.4987 45.7421 50.8819 45.7421 51.3837C45.7421 51.442 45.7391 51.5295 45.7332 51.6462H44.0585ZM44.0585 51.1911H45.3101C45.3071 50.9033 45.2507 50.6816 45.1408 50.526C45.0339 50.3704 44.8855 50.2926 44.6954 50.2926C44.5054 50.2926 44.3525 50.3723 44.2366 50.5318C44.1238 50.6874 44.0644 50.9072 44.0585 51.1911Z" fill="#3F3F3F"/>
<path d="M49.7083 50.9111H48.6839V50.4093H50.176V52.6673C49.8464 52.8812 49.4826 52.9882 49.0847 52.9882C48.5502 52.9882 48.1226 52.7917 47.802 52.3989C47.4842 52.0021 47.3254 51.4692 47.3254 50.8002C47.3254 50.1312 47.4783 49.6002 47.7841 49.2073C48.093 48.8106 48.5116 48.6122 49.0402 48.6122C49.4203 48.6122 49.7573 48.7309 50.0512 48.9681L49.8954 49.4349C49.634 49.2287 49.3638 49.1257 49.0847 49.1257C48.6898 49.1257 48.381 49.2774 48.1583 49.5808C47.9356 49.8842 47.8242 50.2906 47.8242 50.8002C47.8242 51.3136 47.9415 51.7221 48.1761 52.0255C48.4107 52.325 48.7284 52.4747 49.1293 52.4747C49.3431 52.4747 49.5361 52.4261 49.7083 52.3289V50.9111Z" fill="#3F3F3F"/>
<path fill-rule="evenodd" clip-rule="evenodd" d="M51.0713 51.6462C51.0802 51.9185 51.1515 52.1344 51.2851 52.2939C51.4217 52.4533 51.5924 52.5331 51.7973 52.5331C52.02 52.5331 52.2427 52.4592 52.4654 52.3114L52.5768 52.7548C52.3184 52.9104 52.0438 52.9882 51.7528 52.9882C51.4202 52.9882 51.147 52.8462 50.9332 52.5622C50.7224 52.2744 50.617 51.8913 50.617 51.4128C50.617 50.9227 50.715 50.5376 50.911 50.2576C51.1099 49.9775 51.3757 49.8375 51.7083 49.8375C52.0378 49.8375 52.2947 49.9697 52.4788 50.2342C52.6629 50.4987 52.7549 50.8819 52.7549 51.3837C52.7549 51.442 52.752 51.5295 52.746 51.6462H51.0713ZM51.0713 51.1911H52.3229C52.3199 50.9033 52.2635 50.6816 52.1537 50.526C52.0468 50.3704 51.8983 50.2926 51.7083 50.2926C51.5182 50.2926 51.3653 50.3723 51.2495 50.5318C51.1366 50.6874 51.0773 50.9072 51.0713 51.1911Z" fill="#3F3F3F"/>
<path d="M53.6395 49.8958L53.6484 50.3334H53.6573C53.7523 50.1778 53.8666 50.0573 54.0003 49.9717C54.1339 49.8822 54.2734 49.8375 54.4189 49.8375C54.9237 49.8375 55.1761 50.2848 55.1761 51.1794V52.9298H54.7396V51.2378C54.7396 50.8838 54.704 50.6427 54.6327 50.5143C54.5644 50.382 54.4412 50.3159 54.2631 50.3159C54.1116 50.3159 53.9735 50.4151 53.8488 50.6135C53.7241 50.808 53.6618 51.0355 53.6618 51.2961V52.9298H53.2164V49.8958H53.6395Z" fill="#3F3F3F"/>
<path d="M57.221 52.9298L57.2121 52.4922H57.2032C57.0072 52.8229 56.7533 52.9882 56.4415 52.9882C56.204 52.9882 56.0258 52.8948 55.907 52.7081C55.7883 52.5214 55.7289 52.2258 55.7289 51.8213V49.8958H56.1654V51.7629C56.1654 52.0391 56.198 52.2316 56.2634 52.3405C56.3317 52.4456 56.443 52.4981 56.5974 52.4981C56.7488 52.4981 56.8869 52.4028 57.0116 52.2122C57.1363 52.0177 57.1987 51.7901 57.1987 51.5295V49.8958H57.6441V52.9298H57.221Z" fill="#3F3F3F"/>
<path d="M58.3983 49.1957V48.5539H58.8705V49.1957H58.3983Z" fill="#3F3F3F"/>
<path d="M58.8705 49.8958H58.3983V52.9298H58.8705V49.8958Z" fill="#3F3F3F"/>
<path d="M60.0566 50.3334L60.0477 49.8958H59.6246V52.9298H60.07V51.2961C60.07 51.0355 60.1323 50.808 60.2571 50.6135C60.3818 50.4151 60.5198 50.3159 60.6713 50.3159C60.8494 50.3159 60.9727 50.382 61.041 50.5143C61.1122 50.6427 61.1479 50.8838 61.1479 51.2378V52.9298H61.5844V51.1794C61.5844 50.2848 61.332 49.8375 60.8272 49.8375C60.6817 49.8375 60.5421 49.8822 60.4085 49.9717C60.2749 50.0573 60.1606 50.1778 60.0655 50.3334H60.0566Z" fill="#3F3F3F"/>
<path fill-rule="evenodd" clip-rule="evenodd" d="M62.6716 52.2939C62.538 52.1344 62.4667 51.9185 62.4578 51.6462H64.1325C64.1385 51.5295 64.1414 51.442 64.1414 51.3837C64.1414 50.8819 64.0494 50.4987 63.8653 50.2342C63.6812 49.9697 63.4243 49.8375 63.0947 49.8375C62.7622 49.8375 62.4964 49.9775 62.2975 50.2576C62.1015 50.5376 62.0035 50.9227 62.0035 51.4128C62.0035 51.8913 62.1089 52.2744 62.3197 52.5622C62.5335 52.8462 62.8067 52.9882 63.1393 52.9882C63.4303 52.9882 63.7049 52.9104 63.9633 52.7548L63.8519 52.3114C63.6292 52.4592 63.4065 52.5331 63.1838 52.5331C62.9789 52.5331 62.8082 52.4533 62.6716 52.2939ZM63.7094 51.1911H62.4578C62.4637 50.9072 62.5231 50.6874 62.636 50.5318C62.7518 50.3723 62.9047 50.2926 63.0947 50.2926C63.2848 50.2926 63.4332 50.3704 63.5401 50.526C63.65 50.6816 63.7064 50.9033 63.7094 51.1911Z" fill="#3F3F3F"/>
<path fill-rule="evenodd" clip-rule="evenodd" d="M68.1299 52.7023V52.6906C68.3823 52.5078 68.5782 52.253 68.7178 51.9263C68.8603 51.5995 68.9316 51.2242 68.9316 50.8002C68.9316 50.1351 68.7861 49.6041 68.4951 49.2073C68.2041 48.8106 67.8151 48.6122 67.3281 48.6122C66.8412 48.6122 66.4522 48.8106 66.1612 49.2073C65.8702 49.6041 65.7247 50.1351 65.7247 50.8002C65.7247 51.4653 65.8702 51.9963 66.1612 52.393C66.4522 52.7898 66.8412 52.9882 67.3281 52.9882C67.6518 52.9882 67.8923 53.0407 68.0497 53.1457C68.21 53.2546 68.3704 53.4744 68.5307 53.805H69.1098C68.9969 53.5561 68.8529 53.3344 68.6777 53.1399C68.5055 52.9454 68.3229 52.7995 68.1299 52.7023ZM67.3281 52.4631C66.9956 52.4631 66.7283 52.3153 66.5264 52.0196C66.3245 51.7201 66.2235 51.3136 66.2235 50.8002C66.2235 50.2868 66.3245 49.8822 66.5264 49.5866C66.7283 49.2871 66.9956 49.1373 67.3281 49.1373C67.6607 49.1373 67.928 49.2871 68.1299 49.5866C68.3318 49.8822 68.4327 50.2868 68.4327 50.8002C68.4327 51.3136 68.3318 51.7201 68.1299 52.0196C67.928 52.3153 67.6607 52.4631 67.3281 52.4631Z" fill="#3F3F3F"/>
<path d="M70.8115 52.4922L70.8204 52.9298H71.2435V49.8958H70.7981V51.5295C70.7981 51.7901 70.7358 52.0177 70.611 52.2122C70.4863 52.4028 70.3483 52.4981 70.1968 52.4981C70.0424 52.4981 69.9311 52.4456 69.8628 52.3405C69.7974 52.2316 69.7648 52.0391 69.7648 51.7629V49.8958H69.3283V51.8213C69.3283 52.2258 69.3877 52.5214 69.5064 52.7081C69.6252 52.8948 69.8034 52.9882 70.0409 52.9882C70.3527 52.9882 70.6066 52.8229 70.8026 52.4922H70.8115Z" fill="#3F3F3F"/>
<path fill-rule="evenodd" clip-rule="evenodd" d="M72.0556 51.302C71.8389 51.5042 71.7305 51.7746 71.7305 52.113C71.7305 52.3853 71.7929 52.5992 71.9176 52.7548C72.0423 52.9104 72.2101 52.9882 72.4209 52.9882C72.605 52.9882 72.7698 52.9415 72.9153 52.8481C73.0637 52.7548 73.1796 52.6264 73.2627 52.4631H73.2716C73.2746 52.6031 73.2879 52.7587 73.3117 52.9298H73.7348C73.6903 52.6614 73.668 52.3892 73.668 52.113V50.9461C73.668 50.561 73.5923 50.2809 73.4408 50.1059C73.2894 49.9269 73.0459 49.8375 72.7104 49.8375C72.3956 49.8375 72.1135 49.925 71.8641 50.1L71.9309 50.5668C72.1685 50.3918 72.4283 50.3043 72.7104 50.3043C72.9004 50.3043 73.0326 50.3529 73.1068 50.4501C73.184 50.5474 73.2226 50.7185 73.2226 50.9636V50.9927H72.9999C72.5901 50.9927 72.2754 51.0958 72.0556 51.302ZM72.9999 51.4245H73.2226V51.6754C73.2226 51.9204 73.1543 52.1285 73.0177 52.2997C72.8811 52.4669 72.7193 52.5506 72.5322 52.5506C72.4224 52.5506 72.3333 52.5097 72.265 52.4281C72.1997 52.3425 72.167 52.2277 72.167 52.0838C72.167 51.8854 72.2383 51.726 72.3808 51.6054C72.5263 51.4848 72.7327 51.4245 72.9999 51.4245Z" fill="#3F3F3F"/>
<path d="M74.4412 48.5539V52.9298H74.9133V48.5539H74.4412Z" fill="#3F3F3F"/>
<path d="M75.7364 48.5539V49.1957H76.2085V48.5539H75.7364Z" fill="#3F3F3F"/>
<path d="M75.7364 49.8958H76.2085V52.9298H75.7364V49.8958Z" fill="#3F3F3F"/>
<path d="M77.7955 50.0125H78.6329V50.4793H77.7955V51.8796C77.7955 52.1324 77.8207 52.3036 77.8712 52.393C77.9217 52.4786 78.0123 52.5214 78.1429 52.5214C78.2914 52.5214 78.425 52.4864 78.5438 52.4164L78.6106 52.8715C78.4413 52.9493 78.2632 52.9882 78.0761 52.9882C77.8148 52.9882 77.6262 52.9123 77.5104 52.7606C77.3976 52.6089 77.3412 52.3541 77.3412 51.9963V50.4793H76.8512V50.0125H77.3412V48.9039H77.7955V50.0125Z" fill="#3F3F3F"/>
<path d="M80.1363 52.2297H80.1452L80.8044 49.8958H81.2766L79.9404 54.2134H79.4682L79.8958 52.9298L79.0496 49.8958H79.5395L80.1363 52.2297Z" fill="#3F3F3F"/>
<path d="M66.0037 38.0474H65.0945V44.4664H66.0037V38.0474Z" fill="#3F3F3F"/>
<path fill-rule="evenodd" clip-rule="evenodd" d="M50.0268 41.2569C50.0268 42.341 49.7466 43.1626 49.1863 43.7218C48.6259 44.2752 47.8197 44.552 46.7676 44.552C46.1844 44.552 45.6412 44.5092 45.138 44.4236V38.2614C45.6412 38.1758 46.1844 38.133 46.7676 38.133C47.814 38.133 48.6174 38.404 49.1777 38.9461C49.7438 39.4824 50.0268 40.2527 50.0268 41.2569ZM49.1263 41.2569C49.1263 40.4809 48.9261 39.8961 48.5259 39.5024C48.1256 39.103 47.5395 38.9033 46.7676 38.9033C46.5103 38.9033 46.2816 38.9233 46.0815 38.9632V43.7218C46.2816 43.7617 46.5103 43.7817 46.7676 43.7817C47.5681 43.7817 48.1599 43.5763 48.543 43.1655C48.9318 42.749 49.1263 42.1128 49.1263 41.2569Z" fill="#3F3F3F"/>
<path d="M35.0375 38.2186H30.406V39.006H32.25V44.4664H33.1935V39.006H35.0375V38.2186Z" fill="#3F3F3F"/>
<path fill-rule="evenodd" clip-rule="evenodd" d="M35.5731 40.5551C35.9677 40.1386 36.488 39.9303 37.1341 39.9303C37.7802 39.9303 38.2977 40.1386 38.6865 40.5551C39.0811 40.9716 39.2783 41.5336 39.2783 42.2411C39.2783 42.9487 39.0811 43.5107 38.6865 43.9272C38.2977 44.3437 37.7802 44.552 37.1341 44.552C36.488 44.552 35.9677 44.3437 35.5731 43.9272C35.1843 43.5107 34.9899 42.9487 34.9899 42.2411C34.9899 41.5336 35.1843 40.9716 35.5731 40.5551ZM36.2078 43.4394C36.4365 43.7246 36.7453 43.8673 37.1341 43.8673C37.5229 43.8673 37.8317 43.7246 38.0604 43.4394C38.2891 43.1541 38.4035 42.7547 38.4035 42.2411C38.4035 41.7276 38.2891 41.3282 38.0604 41.0429C37.8317 40.7577 37.5229 40.615 37.1341 40.615C36.7453 40.615 36.4365 40.7577 36.2078 41.0429C35.9791 41.3282 35.8648 41.7276 35.8648 42.2411C35.8648 42.7547 35.9791 43.1541 36.2078 43.4394Z" fill="#3F3F3F"/>
<path fill-rule="evenodd" clip-rule="evenodd" d="M40.9784 40.6578C41.31 40.1728 41.7703 39.9303 42.3593 39.9303C42.9253 39.9303 43.3656 40.1272 43.6801 40.5209C44.0003 40.9089 44.1604 41.4823 44.1604 42.2411C44.1604 42.9886 43.9946 43.562 43.663 43.9614C43.337 44.3551 42.9025 44.552 42.3593 44.552C41.7875 44.552 41.3358 44.338 41.0041 43.9101H40.987V46.3493H40.1293V40.0159H40.9441L40.9613 40.6578H40.9784ZM43.3199 42.2411C43.3199 41.6991 43.217 41.294 43.0111 41.0258C42.8053 40.7519 42.5165 40.615 42.1449 40.615C41.8075 40.615 41.5302 40.7577 41.3129 41.0429C41.0956 41.3225 40.987 41.7077 40.987 42.1984V42.2839C40.987 42.7803 41.0956 43.1683 41.3129 43.4479C41.5302 43.7275 41.8075 43.8673 42.1449 43.8673C42.4994 43.8673 42.7824 43.7275 42.994 43.4479C43.2112 43.1683 43.3199 42.7661 43.3199 42.2411Z" fill="#3F3F3F"/>
<path fill-rule="evenodd" clip-rule="evenodd" d="M51.8661 43.5335C51.6088 43.2996 51.4716 42.9829 51.4545 42.5835H54.6793C54.6908 42.4123 54.6965 42.2839 54.6965 42.1984C54.6965 41.4623 54.5192 40.9003 54.1647 40.5123C53.8102 40.1243 53.3156 39.9303 52.6809 39.9303C52.0405 39.9303 51.5288 40.1357 51.1457 40.5465C50.7683 40.9574 50.5796 41.5222 50.5796 42.2411C50.5796 42.943 50.7826 43.505 51.1886 43.9272C51.6003 44.3437 52.1263 44.552 52.7667 44.552C53.3271 44.552 53.856 44.4379 54.3534 44.2096L54.139 43.5592C53.7102 43.776 53.2813 43.8844 52.8525 43.8844C52.4579 43.8844 52.1292 43.7674 51.8661 43.5335ZM53.8645 41.9159H51.4545C51.4659 41.4994 51.5802 41.177 51.7975 40.9488C52.0205 40.7149 52.315 40.5979 52.6809 40.5979C53.0469 40.5979 53.3328 40.712 53.5386 40.9402C53.7502 41.1685 53.8588 41.4937 53.8645 41.9159Z" fill="#3F3F3F"/>
<path d="M57.2691 43.9529L56.0769 40.0159H55.1163L56.6601 44.4664H57.8609L59.4047 40.0159H58.4784L57.2862 43.9529H57.2691Z" fill="#3F3F3F"/>
<path fill-rule="evenodd" clip-rule="evenodd" d="M61.0755 43.5335C60.8182 43.2996 60.681 42.9829 60.6638 42.5835H63.8887C63.9001 42.4123 63.9058 42.2839 63.9058 42.1984C63.9058 41.4623 63.7286 40.9003 63.3741 40.5123C63.0196 40.1243 62.525 39.9303 61.8903 39.9303C61.2499 39.9303 60.7381 40.1357 60.355 40.5465C59.9777 40.9574 59.789 41.5222 59.789 42.2411C59.789 42.943 59.992 43.505 60.3979 43.9272C60.8096 44.3437 61.3357 44.552 61.9761 44.552C62.5364 44.552 63.0653 44.4379 63.5628 44.2096L63.3483 43.5592C62.9195 43.776 62.4907 43.8844 62.0618 43.8844C61.6673 43.8844 61.3385 43.7674 61.0755 43.5335ZM63.0739 41.9159H60.6638C60.6752 41.4994 60.7896 41.177 61.0069 40.9488C61.2299 40.7149 61.5243 40.5979 61.8903 40.5979C62.2562 40.5979 62.5421 40.712 62.748 40.9402C62.9595 41.1685 63.0682 41.4937 63.0739 41.9159Z" fill="#3F3F3F"/>
<path fill-rule="evenodd" clip-rule="evenodd" d="M67.7389 40.5551C68.1334 40.1386 68.6537 39.9303 69.2999 39.9303C69.946 39.9303 70.4634 40.1386 70.8523 40.5551C71.2468 40.9716 71.4441 41.5336 71.4441 42.2411C71.4441 42.9487 71.2468 43.5107 70.8523 43.9272C70.4634 44.3437 69.946 44.552 69.2999 44.552C68.6537 44.552 68.1334 44.3437 67.7389 43.9272C67.3501 43.5107 67.1557 42.9487 67.1557 42.2411C67.1557 41.5336 67.3501 40.9716 67.7389 40.5551ZM68.3736 43.4394C68.6023 43.7246 68.911 43.8673 69.2999 43.8673C69.6887 43.8673 69.9974 43.7246 70.2262 43.4394C70.4549 43.1541 70.5692 42.7547 70.5692 42.2411C70.5692 41.7276 70.4549 41.3282 70.2262 41.0429C69.9974 40.7577 69.6887 40.615 69.2999 40.615C68.911 40.615 68.6023 40.7577 68.3736 41.0429C68.1449 41.3282 68.0305 41.7276 68.0305 42.2411C68.0305 42.7547 68.1449 43.1541 68.3736 43.4394Z" fill="#3F3F3F"/>
<path fill-rule="evenodd" clip-rule="evenodd" d="M73.1441 40.6578C73.4758 40.1728 73.9361 39.9303 74.525 39.9303C75.0911 39.9303 75.5314 40.1272 75.8458 40.5209C76.166 40.9089 76.3261 41.4823 76.3261 42.2411C76.3261 42.9886 76.1603 43.562 75.8287 43.9614C75.5028 44.3551 75.0682 44.552 74.525 44.552C73.9532 44.552 73.5015 44.338 73.1699 43.9101H73.1527V46.3493H72.295V40.0159H73.1098L73.127 40.6578H73.1441ZM75.4856 42.2411C75.4856 41.6991 75.3827 41.294 75.1768 41.0258C74.971 40.7519 74.6823 40.615 74.3106 40.615C73.9732 40.615 73.6959 40.7577 73.4786 41.0429C73.2614 41.3225 73.1527 41.7077 73.1527 42.1984V42.2839C73.1527 42.7803 73.2614 43.1683 73.4786 43.4479C73.6959 43.7275 73.9732 43.8673 74.3106 43.8673C74.6651 43.8673 74.9481 43.7275 75.1597 43.4479C75.377 43.1683 75.4856 42.7661 75.4856 42.2411Z" fill="#3F3F3F"/>
<path fill-rule="evenodd" clip-rule="evenodd" d="M77.8764 42.5835C77.8935 42.9829 78.0308 43.2996 78.2881 43.5335C78.5511 43.7674 78.8799 43.8844 79.2744 43.8844C79.7033 43.8844 80.1321 43.776 80.5609 43.5592L80.7754 44.2096C80.2779 44.4379 79.749 44.552 79.1887 44.552C78.5482 44.552 78.0222 44.3437 77.6105 43.9272C77.2045 43.505 77.0016 42.943 77.0016 42.2411C77.0016 41.5222 77.1903 40.9574 77.5676 40.5465C77.9507 40.1357 78.4625 39.9303 79.1029 39.9303C79.7376 39.9303 80.2322 40.1243 80.5867 40.5123C80.9412 40.9003 81.1184 41.4623 81.1184 42.1984C81.1184 42.2839 81.1127 42.4123 81.1013 42.5835H77.8764ZM77.8764 41.9159H80.2865C80.2808 41.4937 80.1721 41.1685 79.9606 40.9402C79.7547 40.712 79.4688 40.5979 79.1029 40.5979C78.7369 40.5979 78.4425 40.7149 78.2195 40.9488C78.0022 41.177 77.8878 41.4994 77.8764 41.9159Z" fill="#3F3F3F"/>
<path d="M84.9231 39.9303V40.6492C84.2941 40.6492 83.7966 40.8204 83.4307 41.1628C83.0648 41.4994 82.8818 41.9445 82.8818 42.4979V44.4664H82.0069V40.0159H82.8389L82.856 40.8718H82.8732C83.3992 40.2441 84.0825 39.9303 84.9231 39.9303Z" fill="#3F3F3F"/>
<path d="M87.276 40.615C86.7042 40.615 86.4183 40.8004 86.4183 41.1713C86.4183 41.3482 86.4841 41.488 86.6156 41.5907C86.7528 41.6877 86.9872 41.7619 87.3189 41.8132C87.9192 41.9045 88.3481 42.0671 88.6054 42.3011C88.8627 42.5293 88.9913 42.8517 88.9913 43.2682C88.9913 43.6676 88.8398 43.9814 88.5368 44.2096C88.2394 44.4379 87.8192 44.552 87.276 44.552C86.6413 44.552 86.0695 44.4093 85.5606 44.1241L85.7322 43.4394C86.201 43.7246 86.7156 43.8673 87.276 43.8673C87.8363 43.8673 88.1165 43.6676 88.1165 43.2682C88.1165 43.0742 88.0508 42.9258 87.9193 42.8231C87.7935 42.7147 87.5647 42.6348 87.2331 42.5835C86.6442 42.4865 86.2182 42.3267 85.9552 42.1042C85.6921 41.876 85.5606 41.565 85.5606 41.1713C85.5606 40.7947 85.7093 40.4952 86.0066 40.2727C86.3039 40.0444 86.7271 39.9303 87.276 39.9303C87.8421 39.9303 88.3567 40.0444 88.8198 40.2727L88.6483 40.9574C88.2252 40.7291 87.7677 40.615 87.276 40.615Z" fill="#3F3F3F"/>
<path d="M56.4796 90.1845V89.56H54.9956L55.8365 88.5495C56.0404 88.3073 56.1783 88.0915 56.2503 87.9023C56.3222 87.7131 56.3582 87.5106 56.3582 87.2949C56.3582 86.9429 56.2563 86.6647 56.0524 86.4603C55.8485 86.256 55.5757 86.1538 55.2339 86.1538C54.9761 86.1538 54.7422 86.2124 54.5323 86.3298C54.3255 86.4433 54.1606 86.6041 54.0376 86.8123L54.4469 87.2097C54.6178 86.9334 54.8636 86.7953 55.1844 86.7953C55.3763 86.7953 55.5217 86.8445 55.6207 86.9429C55.7196 87.0413 55.7691 87.1832 55.7691 87.3687C55.7691 87.4935 55.7436 87.6203 55.6926 87.749C55.6447 87.8739 55.5502 88.0215 55.4093 88.1918L54.1591 89.6906V90.1845H56.4796Z" fill="#3F3F3F"/>
<path fill-rule="evenodd" clip-rule="evenodd" d="M58.0721 90.2412C57.8203 90.2412 57.5954 90.1618 57.3975 90.0028C57.1996 89.8401 57.0437 89.6054 56.9298 89.2988C56.8159 88.9885 56.7589 88.6214 56.7589 88.1975C56.7589 87.7736 56.8159 87.4084 56.9298 87.1018C57.0437 86.7915 57.1996 86.5568 57.3975 86.3979C57.5954 86.2351 57.8203 86.1538 58.0721 86.1538C58.324 86.1538 58.5488 86.2351 58.7467 86.3979C58.9476 86.5568 59.105 86.7915 59.2189 87.1018C59.3328 87.4084 59.3898 87.7736 59.3898 88.1975C59.3898 88.6214 59.3328 88.9885 59.2189 89.2988C59.105 89.6054 58.9476 89.8401 58.7467 90.0028C58.5488 90.1618 58.324 90.2412 58.0721 90.2412ZM58.0721 89.5997C58.297 89.5997 58.4739 89.4824 58.6028 89.2477C58.7347 89.0131 58.8007 88.663 58.8007 88.1975C58.8007 87.732 58.7347 87.3819 58.6028 87.1472C58.4739 86.9126 58.297 86.7953 58.0721 86.7953C57.8502 86.7953 57.6734 86.9126 57.5414 87.1472C57.4125 87.3819 57.3481 87.732 57.3481 88.1975C57.3481 88.663 57.4125 89.0131 57.5414 89.2477C57.6734 89.4824 57.8502 89.5997 58.0721 89.5997Z" fill="#3F3F3F"/>
<path fill-rule="evenodd" clip-rule="evenodd" d="M63.3925 88.8503C63.6843 88.8503 63.9394 88.7349 64.1579 88.5039C64.1328 88.8799 64.0173 89.1583 63.8114 89.3391C63.6055 89.5182 63.3101 89.6104 62.9252 89.6157H62.8312V90.1555H62.9091C63.5411 90.1501 64.0164 89.9622 64.3351 89.5916C64.6538 89.2209 64.8131 88.6829 64.8131 87.9775V87.7949C64.8131 87.3026 64.6977 86.9096 64.4667 86.616C64.2357 86.3223 63.9233 86.1755 63.5294 86.1755C63.277 86.1755 63.055 86.2337 62.8634 86.3501C62.6719 86.4665 62.5242 86.6294 62.4203 86.8389C62.3165 87.0483 62.2645 87.282 62.2645 87.5398C62.2645 87.9319 62.3666 88.2488 62.5707 88.4905C62.7748 88.7304 63.0487 88.8503 63.3925 88.8503ZM63.8974 88.2273C63.7828 88.3025 63.6601 88.3401 63.5294 88.3401C63.3415 88.3401 63.1911 88.2649 63.0783 88.1145C62.9655 87.9641 62.9091 87.7663 62.9091 87.521C62.9091 87.2847 62.9646 87.0895 63.0756 86.9355C63.1884 86.7798 63.3388 86.7019 63.5268 86.7019C63.7147 86.7019 63.8678 86.7896 63.986 86.9651C64.1042 87.1405 64.1632 87.3724 64.1632 87.6606V87.9158C64.1006 88.0483 64.0119 88.1521 63.8974 88.2273Z" fill="#3F3F3F"/>
<path d="M60.9587 90.1394H61.6086V86.2158H61.5254L60 86.7771V87.3276L60.9587 87V90.1394Z" fill="#3F3F3F"/>
<path d="M49.8813 69H49.249V63.75H49.8813V69Z" fill="#3F3F3F"/>
<path d="M23.0161 64.5635H21.4165V69H20.7637V64.5635H19.1675V64.0234H23.0161V64.5635Z" fill="#3F3F3F"/>
<path fill-rule="evenodd" clip-rule="evenodd" d="M23.146 67.1167C23.146 66.7544 23.2166 66.4286 23.3579 66.1392C23.5015 65.8498 23.6997 65.6265 23.9526 65.4692C24.2078 65.312 24.4984 65.2334 24.8242 65.2334C25.3278 65.2334 25.7345 65.4077 26.0444 65.7564C26.3566 66.105 26.5127 66.5687 26.5127 67.1475V67.1919C26.5127 67.5519 26.4432 67.8755 26.3042 68.1626C26.1675 68.4474 25.9704 68.6696 25.7129 68.8291C25.4577 68.9886 25.1637 69.0684 24.831 69.0684C24.3297 69.0684 23.923 68.8941 23.6108 68.5454C23.3009 68.1968 23.146 67.7354 23.146 67.1611V67.1167ZM23.7817 67.1919C23.7817 67.6021 23.8763 67.9313 24.0654 68.1797C24.2568 68.4281 24.512 68.5523 24.831 68.5523C25.1523 68.5523 25.4075 68.4269 25.5967 68.1763C25.7858 67.9233 25.8804 67.5702 25.8804 67.1167C25.8804 66.7111 25.7835 66.383 25.5898 66.1323C25.3984 65.8794 25.1432 65.7529 24.8242 65.7529C24.512 65.7529 24.2602 65.8771 24.0688 66.1255C23.8774 66.3739 23.7817 66.7293 23.7817 67.1919Z" fill="#3F3F3F"/>
<path fill-rule="evenodd" clip-rule="evenodd" d="M30.0434 68.5523C30.3009 68.2082 30.4297 67.7547 30.4297 67.1919V67.1338C30.4297 66.5368 30.2998 66.0708 30.04 65.7358C29.7825 65.4009 29.4316 65.2334 28.9873 65.2334C28.5293 65.2334 28.1715 65.3929 27.9141 65.7119L27.8833 65.3018H27.3057V70.4219H27.938V68.6411C28.1955 68.9259 28.5487 69.0684 28.9975 69.0684C29.4373 69.0684 29.786 68.8963 30.0434 68.5523ZM29.5308 66.1323C29.7085 66.3739 29.7974 66.7031 29.7974 67.1201C29.7974 67.5941 29.7073 67.9518 29.5273 68.1934C29.3496 68.4326 29.1092 68.5523 28.8061 68.5523C28.4165 68.5523 28.1271 68.3836 27.938 68.0464V66.2793C28.1294 65.9398 28.4165 65.77 28.7993 65.77C29.1092 65.77 29.353 65.8908 29.5308 66.1323Z" fill="#3F3F3F"/>
<path fill-rule="evenodd" clip-rule="evenodd" d="M33.7349 67.7012L33.2666 69H32.5898L34.4902 64.0234H35.0644L36.9683 69H36.2949L35.8198 67.7012H33.7349ZM33.9331 67.1611H35.625L34.7773 64.8335L33.9331 67.1611Z" fill="#3F3F3F"/>
<path d="M38.1577 65.7666L38.1372 65.3018H37.5391V69H38.1714V66.3648C38.258 66.187 38.3787 66.0435 38.5337 65.9341C38.6886 65.8247 38.8686 65.77 39.0737 65.77C39.3266 65.77 39.5124 65.8338 39.6308 65.9614C39.7516 66.089 39.8131 66.2861 39.8154 66.5527V69H40.4477V66.5562C40.4409 65.6743 40.0467 65.2334 39.2651 65.2334C38.8094 65.2334 38.4403 65.4111 38.1577 65.7666Z" fill="#3F3F3F"/>
<path fill-rule="evenodd" clip-rule="evenodd" d="M41.251 67.1201C41.251 66.5436 41.3843 66.0856 41.6509 65.7461C41.9175 65.4043 42.2707 65.2334 42.7104 65.2334C43.1616 65.2334 43.5137 65.3929 43.7666 65.7119L43.7974 65.3018H44.375V68.9111C44.375 69.3897 44.2326 69.7668 43.9477 70.0425C43.6652 70.3182 43.2847 70.4561 42.8061 70.4561C42.5395 70.4561 42.2786 70.3991 42.0234 70.2852C41.7682 70.1712 41.5734 70.0151 41.439 69.8169L41.7671 69.4375C42.0382 69.7725 42.3698 69.9399 42.7617 69.9399C43.0693 69.9399 43.3086 69.8534 43.4795 69.6802C43.6527 69.507 43.7392 69.2632 43.7392 68.9487V68.6309C43.4863 68.9225 43.1411 69.0684 42.7036 69.0684C42.2707 69.0684 41.9197 68.8941 41.6509 68.5454C41.3843 68.1968 41.251 67.7217 41.251 67.1201ZM41.8867 67.1919C41.8867 67.6089 41.9722 67.937 42.1431 68.1763C42.314 68.4133 42.5532 68.5317 42.8608 68.5317C43.2596 68.5317 43.5524 68.3506 43.7392 67.9883V66.2998C43.5456 65.9466 43.255 65.77 42.8677 65.77C42.56 65.77 42.3196 65.8897 42.1465 66.1289C41.9733 66.3682 41.8867 66.7225 41.8867 67.1919Z" fill="#3F3F3F"/>
<path d="M46.5317 69.0684C47.008 69.0684 47.3691 68.9237 47.6152 68.6343L47.6289 69H48.2305V65.3018H47.5981V67.9917C47.4386 68.3517 47.1173 68.5317 46.6343 68.5317C46.1785 68.5317 45.9507 68.2515 45.9507 67.6909V65.3018H45.3183V67.708C45.3206 68.1569 45.4243 68.4964 45.6294 68.7266C45.8367 68.9544 46.1375 69.0684 46.5317 69.0684Z" fill="#3F3F3F"/>
<path fill-rule="evenodd" clip-rule="evenodd" d="M53.0908 68.6104C53.1136 68.7972 53.1432 68.9271 53.1797 69H53.8428V68.9453C53.7562 68.7448 53.7129 68.4748 53.7129 68.1353V66.4331C53.7038 66.0594 53.5784 65.7666 53.3369 65.5547C53.0954 65.3405 52.7615 65.2334 52.3354 65.2334C52.0666 65.2334 51.8193 65.2835 51.5937 65.3838C51.3704 65.4841 51.1927 65.6208 51.0605 65.794C50.9307 65.9649 50.8657 66.1426 50.8657 66.3272H51.5015C51.5015 66.1654 51.5778 66.0275 51.7305 65.9136C51.8831 65.7996 52.0723 65.7427 52.2978 65.7427C52.5553 65.7427 52.7501 65.8088 52.8823 65.9409C53.0145 66.0708 53.0806 66.2463 53.0806 66.4673V66.7578H52.4653C51.9344 66.7578 51.522 66.8649 51.228 67.0791C50.9363 67.291 50.7905 67.5895 50.7905 67.9746C50.7905 68.2913 50.9067 68.5534 51.1391 68.7607C51.3738 68.9658 51.6735 69.0684 52.0381 69.0684C52.4459 69.0684 52.7969 68.9157 53.0908 68.6104ZM52.6943 68.3643C52.5166 68.4668 52.3286 68.5181 52.1304 68.5181C51.923 68.5181 51.7532 68.4622 51.6211 68.3506C51.4889 68.2389 51.4228 68.084 51.4228 67.8857C51.4228 67.4323 51.8102 67.2056 52.5849 67.2056H53.0806V67.9644C53.0008 68.1284 52.8721 68.2617 52.6943 68.3643Z" fill="#3F3F3F"/>
<path d="M56.4917 65.8691C56.396 65.8532 56.2923 65.8452 56.1807 65.8452C55.7659 65.8452 55.4845 66.0218 55.3364 66.375V69H54.7041V65.3018H55.3193L55.3296 65.729C55.5369 65.3986 55.8309 65.2334 56.2114 65.2334C56.3345 65.2334 56.4279 65.2494 56.4917 65.2813V65.8691Z" fill="#3F3F3F"/>
<path d="M59.9199 64.0234H59.2602V67.5576C59.258 67.8652 59.1725 68.1045 59.0039 68.2754C58.8376 68.4463 58.6188 68.5317 58.3476 68.5317C58.0514 68.5317 57.8247 68.452 57.6675 68.2925C57.5125 68.133 57.435 67.9108 57.435 67.626H56.7788C56.7788 68.0817 56.9167 68.436 57.1924 68.689C57.4681 68.9419 57.8532 69.0684 58.3476 69.0684C58.8239 69.0684 59.2044 68.9339 59.4892 68.665C59.7764 68.3962 59.9199 68.0236 59.9199 67.5474V64.0234Z" fill="#3F3F3F"/>
<path d="M62.5039 66.7817C61.9411 66.62 61.5309 66.4217 61.2734 66.187C61.0182 65.95 60.8906 65.6584 60.8906 65.312C60.8906 64.9201 61.0467 64.5965 61.3589 64.3413C61.6733 64.0838 62.0812 63.9551 62.5825 63.9551C62.9243 63.9551 63.2285 64.0212 63.4951 64.1533C63.764 64.2855 63.9713 64.4678 64.1172 64.7002C64.2653 64.9326 64.3393 65.1867 64.3393 65.4624H63.6797C63.6797 65.1616 63.584 64.9258 63.3926 64.7549C63.2012 64.5817 62.9311 64.4951 62.5825 64.4951C62.2589 64.4951 62.006 64.5669 61.8237 64.7105C61.6437 64.8517 61.5537 65.0488 61.5537 65.3018C61.5537 65.5046 61.6391 65.6766 61.81 65.8179C61.9832 65.9569 62.276 66.0845 62.6885 66.2007C63.1032 66.3169 63.4267 66.4456 63.6592 66.5869C63.8939 66.7259 64.067 66.8888 64.1787 67.0757C64.2926 67.2625 64.3496 67.4824 64.3496 67.7354C64.3496 68.1387 64.1924 68.4622 63.8779 68.7061C63.5635 68.9476 63.1431 69.0684 62.6167 69.0684C62.2749 69.0684 61.9559 69.0034 61.6597 68.8735C61.3634 68.7414 61.1344 68.5614 60.9726 68.3335C60.8131 68.1056 60.7334 67.847 60.7334 67.5576H61.3931C61.3931 67.8584 61.5036 68.0965 61.7246 68.272C61.9479 68.4452 62.2453 68.5317 62.6167 68.5317C62.963 68.5317 63.2285 68.4611 63.4131 68.3198C63.5976 68.1786 63.6899 67.986 63.6899 67.7422C63.6899 67.4984 63.6045 67.3104 63.4336 67.1782C63.2627 67.0438 62.9528 66.9116 62.5039 66.7817Z" fill="#3F3F3F"/>
<path fill-rule="evenodd" clip-rule="evenodd" d="M66.9302 64.0234V69H68.3076C68.7542 68.9954 69.145 68.8986 69.48 68.7095C69.8172 68.5203 70.0758 68.2492 70.2559 67.896C70.4381 67.5428 70.5293 67.1315 70.5293 66.6621V66.3442C70.527 65.8862 70.4347 65.4806 70.2524 65.1274C70.0724 64.7743 69.8161 64.502 69.4834 64.3106C69.1507 64.1191 68.7679 64.0234 68.335 64.0234H66.9302ZM67.5864 68.4634V64.5635H68.352C68.8397 64.568 69.2156 64.7275 69.48 65.042C69.7466 65.3542 69.8799 65.7928 69.8799 66.3579V66.6484C69.8799 67.2295 69.7386 67.6773 69.456 67.9917C69.1758 68.3062 68.7827 68.4634 68.2768 68.4634H67.5864Z" fill="#3F3F3F"/>
<path fill-rule="evenodd" clip-rule="evenodd" d="M72.9595 69.0684C72.4582 69.0684 72.0503 68.9043 71.7358 68.5762C71.4214 68.2458 71.2642 67.8049 71.2642 67.2534V67.1372C71.2642 66.7703 71.3336 66.4434 71.4726 66.1563C71.6139 65.8669 71.8099 65.6413 72.0605 65.4795C72.3135 65.3154 72.5869 65.2334 72.8809 65.2334C73.3616 65.2334 73.7353 65.3918 74.0019 65.7085C74.2685 66.0252 74.4018 66.4787 74.4018 67.0689V67.332H71.8965C71.9056 67.6966 72.0115 67.9917 72.2143 68.2173C72.4194 68.4406 72.6792 68.5523 72.9936 68.5523C73.2169 68.5523 73.4061 68.5067 73.561 68.4155C73.716 68.3244 73.8516 68.2036 73.9678 68.0532L74.354 68.354C74.0441 68.8302 73.5793 69.0684 72.9595 69.0684ZM72.8809 65.7529C72.6256 65.7529 72.4114 65.8464 72.2383 66.0332C72.0651 66.2178 71.958 66.4775 71.917 66.8125H73.7695V66.7647C73.7513 66.4434 73.6647 66.195 73.5098 66.0195C73.3548 65.8418 73.1452 65.7529 72.8809 65.7529Z" fill="#3F3F3F"/>
<path d="M77.2251 65.3018L76.3091 68.1421L75.3691 65.3018H74.7231L76.063 69H76.5449L77.8711 65.3018H77.2251Z" fill="#3F3F3F"/>
<path fill-rule="evenodd" clip-rule="evenodd" d="M79.9663 69.0684C79.465 69.0684 79.0571 68.9043 78.7427 68.5762C78.4282 68.2458 78.271 67.8049 78.271 67.2534V67.1372C78.271 66.7703 78.3405 66.4434 78.4795 66.1563C78.6208 65.8669 78.8167 65.6413 79.0674 65.4795C79.3203 65.3154 79.5937 65.2334 79.8877 65.2334C80.3685 65.2334 80.7422 65.3918 81.0088 65.7085C81.2754 66.0252 81.4087 66.4787 81.4087 67.0689V67.332H78.9033C78.9124 67.6966 79.0184 67.9917 79.2212 68.2173C79.4263 68.4406 79.686 68.5523 80.0005 68.5523C80.2238 68.5523 80.4129 68.5067 80.5679 68.4155C80.7228 68.3244 80.8584 68.2036 80.9746 68.0532L81.3608 68.354C81.0509 68.8302 80.5861 69.0684 79.9663 69.0684ZM79.8877 65.7529C79.6325 65.7529 79.4183 65.8464 79.2451 66.0332C79.0719 66.2178 78.9648 66.4775 78.9238 66.8125H80.7764V66.7647C80.7581 66.4434 80.6715 66.195 80.5166 66.0195C80.3616 65.8418 80.152 65.7529 79.8877 65.7529Z" fill="#3F3F3F"/>
<path d="M82.1982 69H82.8306V63.75H82.1982V69Z" fill="#3F3F3F"/>
<path fill-rule="evenodd" clip-rule="evenodd" d="M83.6782 67.1167C83.6782 66.7544 83.7488 66.4286 83.8901 66.1392C84.0337 65.8498 84.2319 65.6265 84.4849 65.4692C84.7401 65.312 85.0306 65.2334 85.3564 65.2334C85.86 65.2334 86.2668 65.4077 86.5767 65.7564C86.8888 66.105 87.0449 66.5687 87.0449 67.1475V67.1919C87.0449 67.5519 86.9754 67.8755 86.8364 68.1626C86.6997 68.4474 86.5026 68.6696 86.2451 68.8291C85.9899 68.9886 85.696 69.0684 85.3633 69.0684C84.862 69.0684 84.4552 68.8941 84.1431 68.5454C83.8332 68.1968 83.6782 67.7354 83.6782 67.1611V67.1167ZM84.314 67.1919C84.314 67.6021 84.4085 67.9313 84.5976 68.1797C84.7891 68.4281 85.0443 68.5523 85.3633 68.5523C85.6846 68.5523 85.9398 68.4269 86.1289 68.1763C86.318 67.9233 86.4126 67.5702 86.4126 67.1167C86.4126 66.7111 86.3157 66.383 86.1221 66.1323C85.9307 65.8794 85.6754 65.7529 85.3564 65.7529C85.0443 65.7529 84.7925 65.8771 84.6011 66.1255C84.4097 66.3739 84.314 66.7293 84.314 67.1919Z" fill="#3F3F3F"/>
<path fill-rule="evenodd" clip-rule="evenodd" d="M90.5757 68.5523C90.8332 68.2082 90.9619 67.7547 90.9619 67.1919V67.1338C90.9619 66.5368 90.832 66.0708 90.5723 65.7358C90.3148 65.4009 89.9639 65.2334 89.5195 65.2334C89.0615 65.2334 88.7038 65.3929 88.4463 65.7119L88.4155 65.3018H87.8379V70.4219H88.4702V68.6411C88.7277 68.9259 89.0809 69.0684 89.5298 69.0684C89.9696 69.0684 90.3182 68.8963 90.5757 68.5523ZM90.063 66.1323C90.2407 66.3739 90.3296 66.7031 90.3296 67.1201C90.3296 67.5941 90.2396 67.9518 90.0596 68.1934C89.8818 68.4326 89.6414 68.5523 89.3384 68.5523C88.9487 68.5523 88.6593 68.3836 88.4702 68.0464V66.2793C88.6616 65.9398 88.9487 65.77 89.3315 65.77C89.6414 65.77 89.8852 65.8908 90.063 66.1323Z" fill="#3F3F3F"/>
<path fill-rule="evenodd" clip-rule="evenodd" d="M93.3032 69.0684C92.8019 69.0684 92.394 68.9043 92.0796 68.5762C91.7651 68.2458 91.6079 67.8049 91.6079 67.2534V67.1372C91.6079 66.7703 91.6774 66.4434 91.8164 66.1563C91.9577 65.8669 92.1536 65.6413 92.4043 65.4795C92.6572 65.3154 92.9307 65.2334 93.2246 65.2334C93.7054 65.2334 94.0791 65.3918 94.3457 65.7085C94.6123 66.0252 94.7456 66.4787 94.7456 67.0689V67.332H92.2402C92.2493 67.6966 92.3553 67.9917 92.5581 68.2173C92.7632 68.4406 93.0229 68.5523 93.3374 68.5523C93.5607 68.5523 93.7498 68.5067 93.9048 68.4155C94.0597 68.3244 94.1953 68.2036 94.3115 68.0532L94.6977 68.354C94.3878 68.8302 93.923 69.0684 93.3032 69.0684ZM93.2246 65.7529C92.9694 65.7529 92.7552 65.8464 92.582 66.0332C92.4088 66.2178 92.3018 66.4775 92.2607 66.8125H94.1133V66.7647C94.095 66.4434 94.0085 66.195 93.8535 66.0195C93.6986 65.8418 93.4889 65.7529 93.2246 65.7529Z" fill="#3F3F3F"/>
<path d="M96.957 65.8452C97.0687 65.8452 97.1724 65.8532 97.2681 65.8691V65.2813C97.2043 65.2494 97.1108 65.2334 96.9878 65.2334C96.6072 65.2334 96.3133 65.3986 96.1059 65.729L96.0957 65.3018H95.4805V69H96.1128V66.375C96.2609 66.0218 96.5423 65.8452 96.957 65.8452Z" fill="#3F3F3F"/>
<path d="M100.006 68.0191C100.006 67.8482 99.9409 67.716 99.811 67.6226C99.6834 67.5269 99.459 67.4448 99.1377 67.3765C98.8187 67.3081 98.5646 67.2261 98.3755 67.1304C98.1886 67.0347 98.0496 66.9207 97.9585 66.7886C97.8696 66.6564 97.8252 66.4992 97.8252 66.3169C97.8252 66.0138 97.9528 65.7575 98.208 65.5479C98.4655 65.3382 98.7936 65.2334 99.1924 65.2334C99.6116 65.2334 99.9512 65.3416 100.211 65.5581C100.473 65.7746 100.604 66.0514 100.604 66.3887H99.9683C99.9683 66.2155 99.8942 66.0662 99.7461 65.9409C99.6003 65.8156 99.4157 65.7529 99.1924 65.7529C98.9622 65.7529 98.7822 65.8031 98.6523 65.9033C98.5225 66.0036 98.4575 66.1346 98.4575 66.2964C98.4575 66.4491 98.5179 66.5641 98.6387 66.6416C98.7594 66.7191 98.977 66.7931 99.2915 66.8638C99.6082 66.9344 99.8646 67.0187 100.061 67.1167C100.257 67.2147 100.401 67.3332 100.495 67.4722C100.59 67.6089 100.638 67.7764 100.638 67.9746C100.638 68.305 100.506 68.5705 100.242 68.771C99.9774 68.9692 99.6344 69.0684 99.2129 69.0684C98.9167 69.0684 98.6546 69.016 98.4268 68.9111C98.1989 68.8063 98.02 68.6605 97.8901 68.4736C97.7625 68.2845 97.6987 68.0806 97.6987 67.8618H98.331C98.3424 68.0737 98.4268 68.2424 98.584 68.3677C98.7435 68.4907 98.9531 68.5523 99.2129 68.5523C99.4521 68.5523 99.6435 68.5044 99.7871 68.4087C99.9329 68.3107 100.006 68.1808 100.006 68.0191Z" fill="#3F3F3F"/>
<path fill-rule="evenodd" clip-rule="evenodd" d="M113.922 78.4314C114.56 79.2273 115.198 80.0232 115.843 80.8133C116.836 82.0286 117.817 83.2532 118.783 84.4826C118.794 84.5064 118.807 84.5299 118.821 84.5531C118.828 84.5633 118.834 84.5735 118.84 84.5836C118.849 84.5975 118.858 84.6114 118.867 84.6253L118.868 84.6262C118.966 84.7783 119.065 84.931 118.917 85.1335C118.723 85.2519 118.51 85.2464 118.3 85.2411H118.299C118.255 85.2399 118.212 85.2388 118.169 85.2388C112.565 85.242 106.961 85.2419 101.357 85.2404C100.421 85.2404 100.365 85.1822 100.363 84.2342C100.362 83.3526 100.363 82.4708 100.363 81.5889C100.363 80.4106 100.363 79.2322 100.362 78.0543C100.362 77.383 100.332 77.3453 99.6667 77.3547C99.2757 77.3606 98.9708 77.3546 98.7277 77.3498C98.2527 77.3404 98.0141 77.3357 97.8319 77.4341C97.6486 77.5331 97.5218 77.7365 97.2677 78.1444C97.1495 78.334 97.0038 78.5679 96.812 78.8561C94.1338 82.8807 91.2523 86.7543 88.1565 90.466C85.8942 93.1795 83.5216 95.7955 81.0671 98.3407C79.5531 99.9113 77.9855 101.422 76.4069 102.92C73.8295 105.365 71.1638 107.712 68.3974 109.948C65.6309 112.183 62.8408 114.384 59.9561 116.465C59.8333 116.555 59.7206 116.657 59.6078 116.759C59.5167 116.842 59.4256 116.924 59.3291 117H58.9746C59.0251 116.693 58.8194 116.575 58.6241 116.463C58.5696 116.432 58.516 116.401 58.4689 116.366C53.793 112.968 49.2825 109.366 44.9674 105.522C38.1709 99.4679 31.9889 92.8462 26.4859 85.5973C24.5276 83.0159 22.6575 80.3716 20.9057 77.6456C20.6725 77.2808 20.4314 77.1173 20.0077 77.1598C19.8341 77.1772 19.6422 77.1566 19.4532 77.1362C19.1121 77.0996 18.78 77.0639 18.5803 77.2541C18.3394 77.4833 18.3854 77.8732 18.4309 78.2591C18.4494 78.4157 18.4678 78.5718 18.4669 78.7162C18.4527 80.6577 18.4464 82.6008 18.4732 84.5439C18.4795 84.9999 18.3393 85.091 17.9076 85.0895C13.8287 85.0795 9.74985 85.0789 5.67099 85.0783H5.59024C3.91415 85.0781 2.23806 85.0778 0.561972 85.0769C0.519192 85.0769 0.472172 85.083 0.424356 85.0892C0.285602 85.1072 0.139933 85.1261 0.0720098 84.9998C-0.00420904 84.8591 0.103573 84.7691 0.207924 84.6821C0.248077 84.6486 0.287751 84.6155 0.316203 84.5801C2.82746 81.4579 5.33871 78.3373 7.86887 75.2308C8.11464 74.929 8.0658 74.7623 7.84524 74.4903C5.33399 71.3949 2.83376 68.29 0.335109 65.1835C0.300657 65.1413 0.256282 65.1009 0.211171 65.0597C0.0747702 64.9354 -0.0683932 64.805 0.0357746 64.6018C0.121185 64.4337 0.290309 64.4621 0.45208 64.4894C0.510944 64.4993 0.569337 64.5091 0.621839 64.5091C3.57734 64.5036 6.53284 64.5035 9.48834 64.5033H9.50089C10.7697 64.5033 12.0385 64.5033 13.3073 64.5028C13.4156 64.5028 13.5247 64.496 13.6334 64.4892C13.6813 64.4862 13.7291 64.4832 13.7768 64.4808C13.8508 64.41 13.9154 64.3314 13.9406 64.2292C13.9766 62.6718 13.971 61.1143 13.9654 59.5568C13.9624 58.728 13.9594 57.8987 13.9627 57.0699C13.9629 57.028 13.9612 56.9853 13.9596 56.9427C13.9505 56.7135 13.9414 56.4845 14.2337 56.3719C14.5751 56.3249 14.5116 56.1269 14.4514 55.9389C14.4411 55.9066 14.4308 55.8745 14.4227 55.8436C13.9643 54.1049 13.5609 52.3536 13.1954 50.5944C12.7906 48.6481 12.4786 46.6846 12.1809 44.7194C11.19 38.1633 11.0864 31.5331 11.0796 24.9062L11.0796 24.8952C11.0795 24.6887 11.0795 24.5392 11.338 24.4079C16.7386 21.6834 22.1298 18.9432 27.5209 16.2015C37.1762 11.2898 46.8315 6.37499 56.4868 1.46017L56.5028 1.45202C56.586 1.40998 56.6684 1.3635 56.7506 1.31714C56.788 1.29608 56.8262 1.27452 56.8635 1.25394C56.9347 1.20428 57.0148 1.17282 57.095 1.14133C57.1799 1.10801 57.2648 1.07465 57.3393 1.01969C57.5143 0.930914 57.6907 0.844429 57.867 0.757948C58.2559 0.567256 58.6448 0.376555 59.0187 0.161325C59.4236 -0.0713461 59.7639 -0.0383319 60.1735 0.170758C64.2106 2.23838 68.2542 4.29631 72.298 6.35434L74.8236 7.63982C85.6106 13.1312 96.3961 18.621 107.183 24.1107C107.298 24.1699 107.405 24.215 107.518 24.2629C107.628 24.3092 107.743 24.3582 107.88 24.4252C107.956 24.4629 108.076 24.6034 108.075 24.9178C108.075 25.1536 108.075 25.3527 108.075 25.5838C108.074 26.018 108.073 26.4522 108.072 26.8862L108.072 26.9209V26.9231C108.069 28.5906 108.065 30.2574 108.076 31.9241C108.089 33.8216 108.031 35.7097 107.774 37.5947C107.697 38.1623 107.666 38.7377 107.635 39.3128L107.635 39.3155C107.619 39.5977 107.604 39.8808 107.583 40.1619C107.446 40.5297 107.434 40.9155 107.423 41.2998C107.418 41.4822 107.413 41.6644 107.394 41.8441C107.22 43.5066 106.947 45.1503 106.673 46.7955L106.671 46.8072C106.18 49.7533 105.586 52.6774 104.818 55.5654L104.809 55.6009L104.791 55.6634C104.698 55.9927 104.61 56.3015 105.115 56.4489C105.282 56.4967 105.266 56.6507 105.251 56.7967C105.249 56.8122 105.247 56.8284 105.246 56.8436C105.244 56.8685 105.242 56.8928 105.242 56.9158C105.239 59.2111 105.241 61.5063 105.244 63.8016C105.244 63.812 105.244 63.8225 105.243 63.8329C105.243 63.8373 105.243 63.8417 105.243 63.8462C105.243 63.8552 105.242 63.8643 105.242 63.8734L105.241 63.9012L105.238 63.9408C105.227 64.1273 105.216 64.3182 105.375 64.4713C109.849 64.4792 114.325 64.4886 118.799 64.4981C119.107 64.6794 118.997 64.8523 118.887 65.0255C118.847 65.0895 118.806 65.1536 118.786 65.2181C117.788 66.5608 116.729 67.8565 115.671 69.1522C115.489 69.3752 115.307 69.5981 115.125 69.8212C114.677 70.3706 114.236 70.9256 113.794 71.4805L113.794 71.4814C113.014 72.4616 112.235 73.4418 111.418 74.3913C111.112 74.7466 111.158 75.0264 111.44 75.3676C112.276 76.3799 113.098 77.4046 113.92 78.4288L113.922 78.4314ZM38.0693 19.0339C31.4127 22.2579 24.7556 25.4822 18.0951 28.6966C17.8524 28.8145 17.7831 28.9261 17.7942 29.1713C17.8218 29.9589 17.8135 30.7466 17.8052 31.5344C17.7912 32.8602 17.7772 34.1863 17.9344 35.5116C18.0418 36.4157 18.1165 37.3235 18.1911 38.2314C18.2609 39.0807 18.3308 39.9302 18.4275 40.7766C19.0057 45.8309 19.9588 50.8129 21.3814 55.7021C21.498 56.1077 21.6335 56.2681 22.0809 56.2681C46.9965 56.2555 71.9137 56.2555 96.8294 56.2681C97.2784 56.2681 97.4186 56.1046 97.5304 55.7084C98.8128 51.1918 99.7439 46.606 100.343 41.9494C100.532 40.4685 100.655 38.9817 100.779 37.4949C100.857 36.5478 100.935 35.6005 101.031 34.6548C101.142 33.562 101.126 32.4573 101.11 31.3517C101.1 30.7079 101.091 30.0634 101.107 29.4213C101.118 28.9827 100.985 28.7799 100.596 28.5928C93.342 25.0925 86.0927 21.5812 78.8429 18.0696L75.898 16.6432C70.4927 14.0241 65.0889 11.4034 59.6852 8.78274C59.5292 8.65697 59.3732 8.6554 59.2173 8.78431L59.1018 8.84197C58.9477 8.91901 58.7924 8.99658 58.6375 9.072C55.8533 10.4207 53.0692 11.7691 50.2851 13.1174L50.2648 13.1272C47.4739 14.4789 44.683 15.8305 41.8921 17.1825L38.0693 19.0339ZM66.9653 97.6396C72.3974 92.6356 77.1127 87.0389 81.1175 80.8416C81.1348 80.8149 81.1579 80.7889 81.1813 80.7626C81.2513 80.6838 81.3238 80.6022 81.253 80.4879C81.187 80.3835 81.084 80.4028 80.9839 80.4216C80.9453 80.4289 80.9072 80.436 80.8717 80.436C66.3966 80.4297 51.9214 80.4266 37.4462 80.4329C37.4131 80.4329 37.3773 80.4269 37.341 80.4208C37.2374 80.4033 37.13 80.3853 37.0728 80.5052C37.0189 80.6175 37.0921 80.6947 37.1632 80.7697C37.1897 80.7976 37.2159 80.8252 37.2351 80.8542C37.3594 81.0405 37.4834 81.2271 37.6074 81.4136L37.6152 81.4253C38.0857 82.1333 38.5569 82.8421 39.0421 83.5394C42.1206 87.9696 45.6054 92.057 49.4621 95.8316C52.4555 98.7605 55.6568 101.452 58.9053 104.09C59.129 104.271 59.244 104.239 59.4457 104.073C61.9948 101.977 64.5359 99.8767 66.9653 97.6396ZM103.081 75.4446C103.56 75.4462 103.698 75.3471 103.697 74.8456C103.676 69.4298 103.675 64.0123 103.7 58.598C103.701 58.087 103.55 58.0037 103.079 58.0037C74.1304 58.0147 45.1832 58.0147 16.2345 58.0037C15.7776 58.0037 15.6547 58.109 15.6563 58.5744C15.6736 63.9903 15.6768 69.4062 15.6531 74.8221C15.65 75.3566 15.7981 75.4446 16.2959 75.4446C45.2241 75.4163 74.1525 75.4163 103.081 75.4446Z" fill="#3F3F3F"/>
</svg>
