<svg width="80" height="80" viewBox="0 0 80 80" fill="none" xmlns="http://www.w3.org/2000/svg">
<path fill-rule="evenodd" clip-rule="evenodd" d="M40 7.25C40.2253 7.25 40.4387 7.35131 40.5812 7.5259L56.0812 26.5259C56.2642 26.7503 56.3017 27.06 56.1775 27.3217C56.0533 27.5833 55.7896 27.75 55.5 27.75H46.25V67C46.25 67.4142 45.9142 67.75 45.5 67.75H34.5C34.0858 67.75 33.75 67.4142 33.75 67V27.75H24.5C24.2104 27.75 23.9467 27.5833 23.8225 27.3217C23.6983 27.06 23.7358 26.7503 23.9189 26.5259L39.4189 7.5259C39.5613 7.35131 39.7747 7.25 40 7.25ZM26.0798 26.25H34.5C34.9142 26.25 35.25 26.5858 35.25 27V66.25H44.75V27C44.75 26.5858 45.0858 26.25 45.5 26.25H53.9203L40 9.18647L26.0798 26.25Z" fill="#FF3333"/>
<path fill-rule="evenodd" clip-rule="evenodd" d="M66.213 28.8071C66.4932 28.691 66.8158 28.7552 67.0303 28.9697L79.5303 41.4697C79.8232 41.7626 79.8232 42.2375 79.5303 42.5304L67.0303 55.0304C66.8158 55.2449 66.4932 55.309 66.213 55.1929C65.9327 55.0768 65.75 54.8034 65.75 54.5V47.3098C63.7629 47.6477 62.25 49.3776 62.25 51.461V72C62.25 72.4142 61.9142 72.75 61.5 72.75H51.5C51.0858 72.75 50.75 72.4142 50.75 72V51.8828C50.75 43.461 57.4096 36.5946 65.75 36.2626V29.5C65.75 29.1967 65.9327 28.9232 66.213 28.8071ZM67.25 31.3107V36.8828C67.25 37.3618 66.8617 37.75 66.3828 37.75C58.5775 37.75 52.25 44.0775 52.25 51.8828V71.25H60.75V51.461C60.75 48.3069 63.3069 45.75 66.4609 45.75C66.8967 45.75 67.25 46.1033 67.25 46.5391V52.6894L77.9393 42L67.25 31.3107Z" fill="#FF3333"/>
<path fill-rule="evenodd" clip-rule="evenodd" d="M13.787 28.8071C13.5068 28.691 13.1842 28.7552 12.9697 28.9697L0.469669 41.4697C0.176777 41.7626 0.176777 42.2375 0.469669 42.5304L12.9697 55.0304C13.1842 55.2449 13.5068 55.309 13.787 55.1929C14.0673 55.0768 14.25 54.8034 14.25 54.5V47.3098C16.2371 47.6477 17.75 49.3776 17.75 51.461V72C17.75 72.4142 18.0858 72.75 18.5 72.75H28.5C28.9142 72.75 29.25 72.4142 29.25 72V51.8828C29.25 43.461 22.5904 36.5946 14.25 36.2626V29.5C14.25 29.1967 14.0673 28.9232 13.787 28.8071ZM12.75 31.3107V36.8828C12.75 37.3618 13.1383 37.75 13.6172 37.75C21.4225 37.75 27.75 44.0775 27.75 51.8828V71.25H19.25V51.461C19.25 48.3069 16.6931 45.75 13.5391 45.75C13.1033 45.75 12.75 46.1033 12.75 46.5391V52.6894L2.06066 42L12.75 31.3107Z" fill="#FF3333"/>
</svg>
