<svg width="80" height="80" viewBox="0 0 80 80" fill="none" xmlns="http://www.w3.org/2000/svg">
<path d="M49.1364 33.6364C49.4879 33.2849 49.4879 32.7151 49.1364 32.3636C48.7849 32.0121 48.2151 32.0121 47.8636 32.3636L38 42.2272L33.6364 37.8636C33.2849 37.5121 32.7151 37.5121 32.3636 37.8636C32.0121 38.215 32.0121 38.7849 32.3636 39.1364L37.0101 43.7828C37.5568 44.3296 38.4432 44.3296 38.99 43.7828L49.1364 33.6364Z" fill="#FF3333"/>
<path fill-rule="evenodd" clip-rule="evenodd" d="M40.5034 18.2537C45.4814 21.4474 50.7292 24.1997 56.1868 26.4791L56.9 26.7769V27.3764C56.9 36.8475 53.4924 45.1677 49.7623 51.1102C47.8961 54.0832 45.9374 56.4804 44.2588 58.1454C43.421 58.9764 42.6386 59.6394 41.9596 60.1017C41.6203 60.3326 41.2917 60.5239 40.9828 60.6603C40.6864 60.7913 40.3456 60.9 40 60.9C39.6544 60.9 39.3136 60.7913 39.0172 60.6603C38.7083 60.5239 38.3797 60.3326 38.0404 60.1017C37.3614 59.6394 36.579 58.9764 35.7412 58.1454C34.0626 56.4804 32.1039 54.0832 30.2377 51.1102C26.5076 45.1677 23.1 36.8475 23.1 27.3764V26.7769L23.8132 26.4791C29.2708 24.1997 34.5186 21.4474 39.4966 18.2537C39.6459 18.1531 39.8218 18.1001 40 18.0999C40.1782 18.1001 40.3541 18.1531 40.5034 18.2537ZM40.0008 59.0996C40.0143 59.0975 40.0936 59.0853 40.2555 59.0138C40.4349 58.9346 40.6661 58.8047 40.9467 58.6137C41.5072 58.2321 42.204 57.6483 42.9912 56.8674C44.5626 55.3087 46.4372 53.0217 48.2377 50.1533C51.7615 44.5395 54.9562 36.7725 55.0953 27.9729C49.8542 25.7581 44.8053 23.114 40 20.0675C35.1947 23.114 30.1458 25.7581 24.9047 27.9729C25.0438 36.7725 28.2385 44.5395 31.7623 50.1533C33.5628 53.0217 35.4374 55.3087 37.0088 56.8674C37.796 57.6483 38.4928 58.2321 39.0533 58.6137C39.3339 58.8047 39.5651 58.9346 39.7445 59.0138C39.9064 59.0853 39.9857 59.0975 39.9992 59.0996H40.0008Z" fill="#FF3333"/>
<path fill-rule="evenodd" clip-rule="evenodd" d="M74 40C74 58.7777 58.7777 74 40 74C21.2223 74 6 58.7777 6 40C6 21.2223 21.2223 6 40 6C58.7777 6 74 21.2223 74 40ZM71.9662 43.9C70.1955 58.566 58.5659 70.1956 43.9 71.9662V69C43.9 66.8461 42.1539 65.1 40 65.1C37.8461 65.1 36.1 66.8461 36.1 69V71.9662C21.4341 70.1956 9.80446 58.566 8.03379 43.9H11C13.1539 43.9 14.9 42.1539 14.9 40C14.9 37.8461 13.1539 36.1 11 36.1H8.03378C9.80443 21.4341 21.4341 9.80444 36.1 8.03378V11C36.1 13.1539 37.8461 14.9 40 14.9C42.1539 14.9 43.9 13.1539 43.9 11V8.03378C58.5659 9.80445 70.1956 21.4341 71.9662 36.1H69C66.8461 36.1 65.1 37.8461 65.1 40C65.1 42.1539 66.8461 43.9 69 43.9H71.9662ZM11 42.1H7.86738C7.82269 41.4058 7.8 40.7055 7.8 40C7.8 39.2945 7.82269 38.5943 7.86738 37.9H11C12.1598 37.9 13.1 38.8402 13.1 40C13.1 41.1598 12.1598 42.1 11 42.1ZM72.1326 42.1C72.1773 41.4058 72.2 40.7055 72.2 40C72.2 39.2945 72.1773 38.5943 72.1326 37.9H69C67.8402 37.9 66.9 38.8402 66.9 40C66.9 41.1598 67.8402 42.1 69 42.1H72.1326ZM42.1 69V72.1326C41.4058 72.1773 40.7055 72.2 40 72.2C39.2945 72.2 38.5942 72.1773 37.9 72.1326V69C37.9 67.8402 38.8402 66.9 40 66.9C41.1598 66.9 42.1 67.8402 42.1 69ZM42.1 7.86738C41.4058 7.82269 40.7055 7.8 40 7.8C39.2945 7.8 38.5942 7.82269 37.9 7.86738V11C37.9 12.1598 38.8402 13.1 40 13.1C41.1598 13.1 42.1 12.1598 42.1 11V7.86738Z" fill="#FF3333"/>
<path fill-rule="evenodd" clip-rule="evenodd" d="M79 40C79 61.5391 61.5391 79 40 79C18.4609 79 1 61.5391 1 40C1 18.4609 18.4609 1 40 1C61.5391 1 79 18.4609 79 40ZM77.2 40C77.2 60.545 60.545 77.2 40 77.2C19.455 77.2 2.8 60.545 2.8 40C2.8 19.455 19.455 2.8 40 2.8C60.545 2.8 77.2 19.455 77.2 40Z" fill="#FF3333"/>
</svg>
