<svg width="80" height="80" viewBox="0 0 80 80" fill="none" xmlns="http://www.w3.org/2000/svg">
<path fill-rule="evenodd" clip-rule="evenodd" d="M3 7.89998C2.39249 7.89998 1.9 8.39246 1.9 8.99998V33.0465C1.9 33.654 2.39249 34.1465 3 34.1465H22.7137C23.4842 34.1465 24.223 34.4531 24.7671 34.9986L30.5757 40.823V36.0465C30.5757 34.9971 31.4264 34.1465 32.4757 34.1465H42C42.6075 34.1465 43.1 33.654 43.1 33.0465V8.99998C43.1 8.39246 42.6075 7.89998 42 7.89998H3ZM0.1 8.99998C0.1 7.39835 1.39838 6.09998 3 6.09998H42C43.6016 6.09998 44.9 7.39835 44.9 8.99998V33.0465C44.9 34.6481 43.6016 35.9465 42 35.9465H32.4757C32.4205 35.9465 32.3757 35.9913 32.3757 36.0465V42.5162C32.3757 43.4969 31.1894 43.9874 30.4969 43.293L23.4925 36.2697C23.2862 36.0628 23.0059 35.9465 22.7137 35.9465H3C1.39837 35.9465 0.1 34.6481 0.1 33.0465V8.99998Z" fill="#FF3333"/>
<path fill-rule="evenodd" clip-rule="evenodd" d="M77 19.9C77.6075 19.9 78.1 20.3925 78.1 21V36.4767C78.1 37.0842 77.6075 37.5767 77 37.5767H64.6408C63.8572 37.5767 63.1071 37.8945 62.562 38.4573L59.3466 41.7771V39.4767C59.3466 38.4274 58.4959 37.5767 57.4466 37.5767H52C51.3925 37.5767 50.9 37.0842 50.9 36.4767V21C50.9 20.3925 51.3925 19.9 52 19.9H77ZM79.9 21C79.9 19.3984 78.6016 18.1 77 18.1H52C50.3984 18.1 49.1 19.3984 49.1 21V36.4767C49.1 38.0783 50.3984 39.3767 52 39.3767H57.4466C57.5018 39.3767 57.5466 39.4215 57.5466 39.4767V43.506C57.5466 44.4945 58.749 44.9813 59.4368 44.2713L63.855 39.7096C64.061 39.4968 64.3446 39.3767 64.6408 39.3767H77C78.6016 39.3767 79.9 38.0783 79.9 36.4767V21Z" fill="#FF3333"/>
<path fill-rule="evenodd" clip-rule="evenodd" d="M21 73.1C20.3925 73.1 19.9 72.6075 19.9 72V50.2907C19.9 49.6831 20.3925 49.1907 21 49.1907H38.6104C39.3862 49.1907 40.1297 48.8798 40.6746 48.3276L45.7408 43.1934V47.2907C45.7408 48.34 46.5914 49.1907 47.6408 49.1907H56C56.6075 49.1907 57.1 49.6831 57.1 50.2907V72C57.1 72.6075 56.6075 73.1 56 73.1H21ZM18.1 72C18.1 73.6016 19.3984 74.9 21 74.9H56C57.6016 74.9 58.9 73.6016 58.9 72V50.2907C58.9 48.689 57.6016 47.3907 56 47.3907H47.6408C47.5855 47.3907 47.5408 47.3459 47.5408 47.2907V42.2185C47.5408 40.9668 46.0235 40.3442 45.1443 41.2352L39.3933 47.0633C39.1866 47.2727 38.9046 47.3907 38.6104 47.3907H21C19.3984 47.3907 18.1 48.689 18.1 50.2907V72Z" fill="#FF3333"/>
<path d="M11.6347 25.2275L7 20.764L11.6347 16.3006H14.5364L9.88158 20.764L14.5364 25.2275H11.6347Z" fill="#FF3333"/>
<path d="M22.6433 14C24.0135 14 25.1084 14.367 25.9279 15.1011C26.7608 15.8352 27.1772 16.838 27.1772 18.1096C27.1772 19.4335 26.7473 20.4298 25.8876 21.0983C25.0278 21.7669 23.8859 22.1011 22.4619 22.1011L22.3813 23.6545H20.3864L20.2856 20.5674H20.9506C22.2537 20.5674 23.2478 20.397 23.9329 20.0562C24.6315 19.7154 24.9808 19.0665 24.9808 18.1096C24.9808 17.4148 24.7725 16.8708 24.3561 16.4775C23.9531 16.0843 23.3888 15.8876 22.6634 15.8876C21.938 15.8876 21.367 16.0777 20.9506 16.4579C20.5341 16.838 20.3259 17.3689 20.3259 18.0506H18.1698C18.1698 17.264 18.3511 16.5627 18.7138 15.9466C19.0765 15.3305 19.5938 14.8521 20.2655 14.5112C20.9506 14.1704 21.7432 14 22.6433 14ZM21.3536 28C20.9371 28 20.5879 27.8624 20.3058 27.5871C20.0236 27.3118 19.8826 26.971 19.8826 26.5646C19.8826 26.1582 20.0236 25.8174 20.3058 25.5421C20.5879 25.2669 20.9371 25.1292 21.3536 25.1292C21.7566 25.1292 22.0992 25.2669 22.3813 25.5421C22.6634 25.8174 22.8045 26.1582 22.8045 26.5646C22.8045 26.971 22.6634 27.3118 22.3813 27.5871C22.0992 27.8624 21.7566 28 21.3536 28Z" fill="#FF3333"/>
<path d="M30.4636 16.3006H33.3653L38 20.764L33.3653 25.2275H30.4636L35.1184 20.764L30.4636 16.3006Z" fill="#FF3333"/>
<path d="M58.0384 32.134L55 29.294L58.0384 26.454H59.9406L56.8891 29.294L59.9406 32.134H58.0384Z" fill="#FF3333"/>
<path d="M67.6726 22L64.0795 36H62.5999L66.1799 22H67.6726Z" fill="#FF3333"/>
<path d="M70.0594 26.454H71.9616L75 29.294L71.9616 32.134H70.0594L73.1109 29.294L70.0594 26.454Z" fill="#FF3333"/>
<path d="M30 60.8496C30.4726 60.7992 30.832 60.653 31.0782 60.411C31.3342 60.169 31.4622 59.8514 31.4622 59.4582C31.4622 59.0952 31.4228 58.4297 31.344 57.4617C31.2554 56.5543 31.2111 55.8283 31.2111 55.2838C31.2111 54.5679 31.4129 54.0083 31.8166 53.605C32.2301 53.2017 32.7717 53 33.4412 53H34.4308V54.4973H33.7809C33.4658 54.4973 33.2295 54.573 33.072 54.7242C32.9243 54.8654 32.8505 55.0973 32.8505 55.4199C32.8505 55.6619 32.8652 55.9846 32.8948 56.3879C32.9243 56.7912 32.944 57.0786 32.9538 57.25C33.0425 58.1776 33.0868 58.9339 33.0868 59.5187C33.0868 60.0329 32.9588 60.4614 32.7028 60.8043C32.4566 61.1471 32.0726 61.374 31.5508 61.4849V61.5151C32.0726 61.626 32.4566 61.8529 32.7028 62.1957C32.9588 62.5386 33.0868 62.9671 33.0868 63.4813C33.0868 64.0661 33.0425 64.8224 32.9538 65.75C32.944 65.9214 32.9243 66.2088 32.8948 66.6121C32.8652 67.0154 32.8505 67.3381 32.8505 67.5801C32.8505 67.9027 32.9243 68.1346 33.072 68.2758C33.2295 68.427 33.4658 68.5027 33.7809 68.5027H34.4308V70H33.4412C32.7717 70 32.2301 69.7983 31.8166 69.395C31.4129 68.9917 31.2111 68.4321 31.2111 67.7162C31.2111 67.1717 31.2554 66.4457 31.344 65.5383C31.4228 64.5703 31.4622 63.9048 31.4622 63.5418C31.4622 63.1486 31.3342 62.831 31.0782 62.589C30.832 62.347 30.4726 62.2008 30 62.1504V60.8496Z" fill="#FF3333"/>
<path d="M37.8664 60.9101C37.5612 60.9101 37.3052 60.8043 37.0984 60.5925C36.8917 60.3808 36.7883 60.1186 36.7883 59.806C36.7883 59.4935 36.8917 59.2313 37.0984 59.0196C37.3052 58.8078 37.5612 58.702 37.8664 58.702C38.1618 58.702 38.4129 58.8078 38.6197 59.0196C38.8264 59.2313 38.9298 59.4935 38.9298 59.806C38.9298 60.1186 38.8264 60.3808 38.6197 60.5925C38.4129 60.8043 38.1618 60.9101 37.8664 60.9101ZM39.1071 65.0845L37.32 69.2589H36.2271L37.2757 65.0845H39.1071Z" fill="#FF3333"/>
<path d="M46 62.1504C45.5274 62.2008 45.1631 62.347 44.9071 62.589C44.6609 62.831 44.5378 63.1486 44.5378 63.5418C44.5378 63.9048 44.5772 64.5703 44.656 65.5383C44.7446 66.4457 44.7889 67.1717 44.7889 67.7162C44.7889 68.4321 44.5822 68.9917 44.1686 69.395C43.7649 69.7983 43.2283 70 42.5588 70H41.5692V68.5027H42.2191C42.5342 68.5027 42.7655 68.427 42.9132 68.2758C43.0708 68.1346 43.1495 67.9027 43.1495 67.5801C43.1495 67.3381 43.1348 67.0154 43.1052 66.6121C43.0757 66.2088 43.056 65.9214 43.0462 65.75C42.9575 64.8224 42.9132 64.0661 42.9132 63.4813C42.9132 62.9671 43.0363 62.5386 43.2825 62.1957C43.5385 61.8529 43.9274 61.626 44.4492 61.5151V61.4849C43.9274 61.374 43.5385 61.1471 43.2825 60.8043C43.0363 60.4614 42.9132 60.0329 42.9132 59.5187C42.9132 58.9339 42.9575 58.1776 43.0462 57.25C43.056 57.0786 43.0757 56.7912 43.1052 56.3879C43.1348 55.9846 43.1495 55.6619 43.1495 55.4199C43.1495 55.0973 43.0708 54.8654 42.9132 54.7242C42.7655 54.573 42.5342 54.4973 42.2191 54.4973H41.5692V53H42.5588C43.2283 53 43.7649 53.2017 44.1686 53.605C44.5822 54.0083 44.7889 54.5679 44.7889 55.2838C44.7889 55.8283 44.7446 56.5543 44.656 57.4617C44.5772 58.4297 44.5378 59.0952 44.5378 59.4582C44.5378 59.8514 44.6609 60.169 44.9071 60.411C45.1631 60.653 45.5274 60.7992 46 60.8496V62.1504Z" fill="#FF3333"/>
</svg>
