<svg width="113" height="121" viewBox="0 0 113 121" fill="none" xmlns="http://www.w3.org/2000/svg">
<path d="M96.6619 43.7045H15.6109V43.3433H96.6619V43.7045Z" fill="#3F3F3F"/>
<path d="M33.2026 34.3681C33.2026 34.8411 32.8831 35.2149 32.244 35.4897L31.5947 35.7667C30.8989 36.0617 30.5511 36.6124 30.5511 37.4186V37.9254H33.7125V37.4186H31.061C31.061 36.8353 31.2955 36.448 31.7647 36.2565L32.4139 35.9761C33.2797 35.6068 33.7125 35.0708 33.7125 34.3681C33.7125 33.3614 33.1856 32.858 32.1318 32.858C31.078 32.858 30.5511 33.3614 30.5511 34.3681H31.061C31.061 33.6992 31.4179 33.3648 32.1318 33.3648C32.8457 33.3648 33.2026 33.6992 33.2026 34.3681Z" fill="#3F3F3F"/>
<path fill-rule="evenodd" clip-rule="evenodd" d="M27.1563 32.9855H25.7361V37.9254H27.4835C28.0173 37.9254 28.4373 37.8032 28.7437 37.5587C29.0546 37.3142 29.2101 36.9683 29.2101 36.5209C29.2101 36.2626 29.1614 36.0527 29.0639 35.8913C28.9664 35.7299 28.8318 35.6053 28.6601 35.5177C28.493 35.4301 28.305 35.3701 28.0962 35.3378V35.3032C28.4025 35.2479 28.6369 35.1256 28.7993 34.9365C28.9618 34.7428 29.043 34.5007 29.043 34.2101C29.043 33.7581 28.8829 33.4421 28.5626 33.2622C28.247 33.0777 27.7783 32.9855 27.1563 32.9855ZM27.2816 35.0887H26.3627V33.5182H27.1842C27.6065 33.5182 27.9129 33.5782 28.1032 33.6981C28.2981 33.8134 28.3956 34.0071 28.3956 34.2793C28.3956 34.5468 28.3167 34.7497 28.1588 34.8881C28.001 35.0219 27.7086 35.0887 27.2816 35.0887ZM26.3627 37.3996V35.6076H27.3164C27.7759 35.6076 28.0939 35.6884 28.2702 35.8498C28.4513 36.0066 28.5418 36.2142 28.5418 36.4725C28.5418 36.7492 28.4559 36.9729 28.2842 37.1436C28.1124 37.3142 27.8061 37.3996 27.3652 37.3996H26.3627Z" fill="#3F3F3F"/>
<path fill-rule="evenodd" clip-rule="evenodd" d="M35.2889 32.9855H36.7092C37.3311 32.9855 37.7999 33.0777 38.1155 33.2622C38.4358 33.4421 38.5959 33.7581 38.5959 34.2101C38.5959 34.5007 38.5147 34.7428 38.3522 34.9365C38.1898 35.1256 37.9554 35.2479 37.6491 35.3032V35.3378C37.8579 35.3701 38.0459 35.4301 38.213 35.5177C38.3847 35.6053 38.5193 35.7299 38.6168 35.8913C38.7142 36.0527 38.763 36.2626 38.763 36.5209C38.763 36.9683 38.6075 37.3142 38.2965 37.5587C37.9902 37.8032 37.5702 37.9254 37.0364 37.9254H35.2889V32.9855ZM35.9155 35.0887H36.8345C37.2615 35.0887 37.5539 35.0219 37.7117 34.8881C37.8695 34.7497 37.9484 34.5468 37.9484 34.2793C37.9484 34.0071 37.851 33.8134 37.656 33.6981C37.4657 33.5782 37.1594 33.5182 36.737 33.5182H35.9155V35.0887ZM35.9155 35.6076V37.3996H36.918C37.359 37.3996 37.6653 37.3142 37.837 37.1436C38.0088 36.9729 38.0946 36.7492 38.0946 36.4725C38.0946 36.2142 38.0041 36.0066 37.8231 35.8498C37.6467 35.6884 37.3288 35.6076 36.8693 35.6076H35.9155Z" fill="#3F3F3F"/>
<path d="M43.8084 33.9956C44.1147 33.6404 44.5348 33.4629 45.0685 33.4629C45.2913 33.4629 45.4955 33.4905 45.6812 33.5459C45.8715 33.6012 46.0432 33.6635 46.1964 33.7327L46.447 33.2069C46.0571 33.0132 45.5999 32.9163 45.0755 32.9163C44.5649 32.9163 44.131 33.0247 43.7736 33.2415C43.4162 33.4536 43.1447 33.7511 42.959 34.134C42.778 34.5122 42.6875 34.9504 42.6875 35.4485C42.6875 35.9651 42.7711 36.4148 42.9381 36.7976C43.1099 37.1805 43.3651 37.4757 43.704 37.6832C44.0428 37.8908 44.4651 37.9946 44.971 37.9946C45.2449 37.9946 45.4793 37.9784 45.6742 37.9461C45.8738 37.9139 46.0664 37.8631 46.252 37.7939V37.2543C46.0664 37.3096 45.8761 37.3558 45.6812 37.3927C45.4862 37.4296 45.2797 37.448 45.0615 37.448C44.4907 37.448 44.0613 37.2704 43.7736 36.9153C43.4905 36.5555 43.3489 36.0689 43.3489 35.4554C43.3489 34.8374 43.5021 34.3508 43.8084 33.9956Z" fill="#3F3F3F"/>
<path fill-rule="evenodd" clip-rule="evenodd" d="M52.1301 35.4485C52.1301 35.9605 52.0419 36.4079 51.8655 36.7907C51.6938 37.1689 51.4385 37.4641 51.0997 37.6763C50.7609 37.8885 50.3408 37.9946 49.8396 37.9946C49.3244 37.9946 48.8951 37.8885 48.5516 37.6763C48.2128 37.4641 47.9599 37.1666 47.7928 36.7838C47.6257 36.401 47.5421 35.9536 47.5421 35.4416C47.5421 34.9342 47.6257 34.4914 47.7928 34.1132C47.9599 33.735 48.2128 33.4398 48.5516 33.2276C48.8951 33.0155 49.3267 32.9094 49.8465 32.9094C50.3432 32.9094 50.7609 33.0155 51.0997 33.2276C51.4385 33.4352 51.6938 33.7304 51.8655 34.1132C52.0419 34.4914 52.1301 34.9365 52.1301 35.4485ZM48.2035 35.4485C48.2035 36.0712 48.3358 36.5624 48.6004 36.9222C48.8649 37.2773 49.278 37.4549 49.8396 37.4549C50.4058 37.4549 50.8189 37.2773 51.0788 36.9222C51.3387 36.5624 51.4687 36.0712 51.4687 35.4485C51.4687 34.8258 51.3387 34.3392 51.0788 33.9887C50.8189 33.6335 50.4081 33.456 49.8465 33.456C49.2849 33.456 48.8695 33.6335 48.6004 33.9887C48.3358 34.3392 48.2035 34.8258 48.2035 35.4485Z" fill="#3F3F3F"/>
<path d="M54.3805 33.5943L56.0166 37.9254H56.5318L58.1887 33.6012H58.2166C58.2073 33.7488 58.1957 33.9403 58.1818 34.1755C58.1725 34.4107 58.1678 34.6483 58.1678 34.8881V37.9254H58.7875V32.9855H57.8685L56.309 37.0329H56.2811L54.7495 32.9855H53.8236V37.9254H54.4014V34.9296C54.4014 34.6667 54.3968 34.4153 54.3875 34.1755C54.3782 33.931 54.3666 33.7373 54.3527 33.5943H54.3805Z" fill="#3F3F3F"/>
<path fill-rule="evenodd" clip-rule="evenodd" d="M62.0472 32.9855C62.697 32.9855 63.1704 33.1123 63.4675 33.366C63.7645 33.6197 63.9131 33.9772 63.9131 34.4384C63.9131 34.7105 63.8504 34.9665 63.7251 35.2064C63.6044 35.4416 63.3979 35.633 63.1055 35.7806C62.8177 35.9282 62.4255 36.002 61.9289 36.002H61.358V37.9254H60.7314V32.9855H62.0472ZM61.9915 33.5182H61.358V35.4693H61.8593C62.3327 35.4693 62.6854 35.3932 62.9175 35.241C63.1496 35.0887 63.2656 34.8305 63.2656 34.4661C63.2656 34.1478 63.1635 33.9103 62.9593 33.7535C62.755 33.5966 62.4325 33.5182 61.9915 33.5182Z" fill="#3F3F3F"/>
<path fill-rule="evenodd" clip-rule="evenodd" d="M67.712 36.3964L68.3107 37.9254H68.9581L67.0227 32.9647H66.4588L64.5164 37.9254H65.1499L65.7417 36.3964H67.712ZM66.967 34.3485L67.524 35.8429H65.9506L66.5145 34.3485C66.5423 34.27 66.5771 34.164 66.6189 34.0302C66.6607 33.8918 66.6978 33.7511 66.7303 33.6082C66.7489 33.6635 66.7721 33.7442 66.7999 33.8503C66.8324 33.9518 66.8649 34.051 66.8974 34.1478C66.9299 34.2447 66.9531 34.3116 66.967 34.3485Z" fill="#3F3F3F"/>
<path d="M74.1704 37.9254H73.4394L70.7799 33.8226H70.7521C70.7613 33.9841 70.7729 34.1847 70.7869 34.4246C70.8008 34.6644 70.8077 34.9112 70.8077 35.1649V37.9254H70.2299V32.9855H70.9539L73.6065 37.0744H73.6343L73.6134 36.7423C73.6088 36.5947 73.6018 36.4333 73.5925 36.258C73.5879 36.0827 73.5856 35.9213 73.5856 35.7737V32.9855H74.1704V37.9254Z" fill="#3F3F3F"/>
<path d="M75.7143 37.9254H77.5105V37.5656L76.9257 37.4342V33.4836L77.5105 33.3453V32.9855H75.7143V33.3453L76.2991 33.4836V37.4342L75.7143 37.5656V37.9254Z" fill="#3F3F3F"/>
<path d="M81.8399 37.9254H79.0621V32.9855H81.8399V33.5321H79.6887V35.0749H81.7146V35.6146H79.6887V37.3788H81.8399V37.9254Z" fill="#3F3F3F"/>
<path d="M85.8616 37.6279C86.1819 37.3834 86.342 37.0421 86.342 36.6039C86.342 36.3456 86.2886 36.1312 86.1819 35.9605C86.0798 35.7898 85.9266 35.6445 85.7224 35.5246C85.5228 35.4001 85.2768 35.2848 84.9844 35.1787C84.7152 35.0772 84.5017 34.9827 84.3439 34.895C84.1861 34.8074 84.0724 34.7082 84.0028 34.5975C83.9331 34.4868 83.8983 34.3485 83.8983 34.1824C83.8983 33.9656 83.9772 33.7927 84.135 33.6635C84.2928 33.5298 84.5272 33.4629 84.8382 33.4629C85.0563 33.4629 85.2652 33.4882 85.4648 33.539C85.669 33.5897 85.857 33.652 86.0287 33.7258L86.2236 33.193C86.038 33.11 85.8314 33.0431 85.604 32.9924C85.3766 32.9417 85.126 32.9163 84.8521 32.9163C84.5412 32.9163 84.265 32.967 84.0236 33.0685C83.7869 33.17 83.6013 33.3153 83.4667 33.5044C83.3321 33.6889 83.2648 33.9126 83.2648 34.1755C83.2648 34.5583 83.3715 34.8604 83.585 35.0818C83.8032 35.3032 84.1234 35.49 84.5458 35.6422C84.8475 35.7483 85.0819 35.8498 85.249 35.9467C85.4207 36.0389 85.5414 36.1404 85.611 36.2511C85.6806 36.3618 85.7154 36.4978 85.7154 36.6593C85.7154 36.9037 85.6203 37.0975 85.43 37.2404C85.2443 37.3834 84.9658 37.4549 84.5945 37.4549C84.33 37.4549 84.0724 37.4249 83.8218 37.365C83.5758 37.305 83.3692 37.2381 83.2021 37.1643V37.7593C83.3599 37.8331 83.5572 37.8908 83.7939 37.9323C84.0306 37.9738 84.2882 37.9946 84.5667 37.9946C85.1097 37.9946 85.5414 37.8723 85.8616 37.6279Z" fill="#3F3F3F"/>
<path fill-rule="evenodd" clip-rule="evenodd" d="M57.7579 24.5101C57.9342 24.1273 58.0224 23.6799 58.0224 23.1679C58.0224 22.6559 57.9342 22.2108 57.7579 21.8326C57.5861 21.4498 57.3309 21.1546 56.992 20.947C56.6532 20.7348 56.2355 20.6288 55.7389 20.6288C55.2191 20.6288 54.7874 20.7348 54.444 20.947C54.1051 21.1592 53.8522 21.4544 53.6851 21.8326C53.518 22.2108 53.4345 22.6536 53.4345 23.161C53.4345 23.673 53.518 24.1204 53.6851 24.5032C53.8522 24.886 54.1051 25.1835 54.444 25.3957C54.7874 25.6079 55.2167 25.7139 55.7319 25.7139C56.2332 25.7139 56.6532 25.6079 56.992 25.3957C57.3309 25.1835 57.5861 24.8883 57.7579 24.5101ZM54.4927 24.6416C54.2281 24.2818 54.0959 23.7906 54.0959 23.1679C54.0959 22.5452 54.2281 22.0586 54.4927 21.7081C54.7619 21.3529 55.1773 21.1753 55.7389 21.1753C56.3005 21.1753 56.7112 21.3529 56.9712 21.7081C57.2311 22.0586 57.361 22.5452 57.361 23.1679C57.361 23.7906 57.2311 24.2818 56.9712 24.6416C56.7112 24.9967 56.2982 25.1743 55.7319 25.1743C55.1703 25.1743 54.7573 24.9967 54.4927 24.6416Z" fill="#3F3F3F"/>
<path d="M50.3076 25.6448H50.9342V21.2514H52.4798V20.7049H48.7551V21.2514H50.3076V25.6448Z" fill="#3F3F3F"/>
<path fill-rule="evenodd" clip-rule="evenodd" d="M61.0317 20.7049C61.6815 20.7049 62.1549 20.8317 62.452 21.0854C62.749 21.3391 62.8975 21.6965 62.8975 22.1578C62.8975 22.4299 62.8349 22.6859 62.7096 22.9257C62.5889 23.161 62.3824 23.3524 62.09 23.5C61.8022 23.6476 61.41 23.7214 60.9134 23.7214H60.3425V25.6448H59.7159V20.7049H61.0317ZM60.976 21.2376H60.3425V23.1886H60.8438C61.3172 23.1886 61.6699 23.1125 61.902 22.9603C62.134 22.8081 62.2501 22.5498 62.2501 22.1854C62.2501 21.8672 62.148 21.6297 61.9438 21.4728C61.7395 21.316 61.417 21.2376 60.976 21.2376Z" fill="#3F3F3F"/>
<path d="M15.6109 77.2955H96.6619V76.9343H15.6109V77.2955Z" fill="#3F3F3F"/>
<path d="M50.6515 97.2265C50.6515 97.6994 50.332 98.0733 49.6929 98.3481L49.0436 98.6251C48.3479 98.9201 48 99.4708 48 100.277V100.784H51.1614V100.277H48.5099C48.5099 99.6937 48.7445 99.3064 49.2136 99.1149L49.8629 98.8345C50.7286 98.4652 51.1614 97.9292 51.1614 97.2265C51.1614 96.2198 50.6345 95.7164 49.5807 95.7164C48.5269 95.7164 48 96.2198 48 97.2265H48.5099C48.5099 96.5576 48.8669 96.2232 49.5807 96.2232C50.2946 96.2232 50.6515 96.5576 50.6515 97.2265Z" fill="#3F3F3F"/>
<path d="M60.4127 97.2265C60.4127 97.6994 60.0932 98.0733 59.4541 98.3481L58.8048 98.6251C58.1091 98.9201 57.7612 99.4708 57.7612 100.277V100.784H60.9226V100.277H58.2711C58.2711 99.6937 58.5057 99.3064 58.9748 99.1149L59.6241 98.8345C60.4898 98.4652 60.9226 97.9292 60.9226 97.2265C60.9226 96.2198 60.3957 95.7164 59.3419 95.7164C58.2881 95.7164 57.7612 96.2198 57.7612 97.2265H58.2711C58.2711 96.5576 58.6281 96.2232 59.3419 96.2232C60.0558 96.2232 60.4127 96.5576 60.4127 97.2265Z" fill="#3F3F3F"/>
<path fill-rule="evenodd" clip-rule="evenodd" d="M54.4439 95.7164C53.3221 95.7164 52.7612 96.561 52.7612 98.2501C52.7612 99.9392 53.3221 100.784 54.4439 100.784C55.5657 100.784 56.1266 99.9392 56.1266 98.2501C56.1266 96.561 55.5657 95.7164 54.4439 95.7164ZM54.4439 96.2232C55.2257 96.2232 55.6167 96.8988 55.6167 98.2501C55.6167 99.6014 55.2257 100.277 54.4439 100.277C53.662 100.277 53.2711 99.6014 53.2711 98.2501C53.2711 96.8988 53.662 96.2232 54.4439 96.2232Z" fill="#3F3F3F"/>
<path d="M62.8377 97.0762V96.5296L64.1048 95.7271H64.432V100.176H65.5251V100.653H62.7612V100.176H63.8542V96.4325L62.8377 97.0762Z" fill="#3F3F3F"/>
<path fill-rule="evenodd" clip-rule="evenodd" d="M58.6766 88.4926L58.0778 86.9635H56.1076L55.5158 88.4926H54.8823L56.8247 83.5319H57.3886L59.324 88.4926H58.6766ZM57.8899 86.41L57.3329 84.9156C57.319 84.8787 57.2958 84.8118 57.2633 84.715C57.2308 84.6181 57.1983 84.519 57.1658 84.4175C57.138 84.3114 57.1148 84.2307 57.0962 84.1753C57.0637 84.3183 57.0266 84.459 56.9848 84.5974C56.943 84.7311 56.9082 84.8372 56.8804 84.9156L56.3165 86.41H57.8899Z" fill="#3F3F3F"/>
<path d="M43.8291 83.5527V86.7491C43.8291 87.0904 43.7595 87.3994 43.6202 87.6762C43.481 87.9483 43.2675 88.1651 42.9797 88.3265C42.6966 88.4833 42.3346 88.5617 41.8936 88.5617C41.2764 88.5617 40.8053 88.3957 40.4804 88.0636C40.1601 87.7269 40 87.2841 40 86.7352V83.5527H40.6266V86.756C40.6266 87.1573 40.7333 87.4686 40.9468 87.69C41.165 87.9114 41.4922 88.0221 41.9285 88.0221C42.3787 88.0221 42.7036 87.9045 42.9031 87.6692C43.1074 87.4294 43.2095 87.1227 43.2095 86.7491V83.5527H43.8291Z" fill="#3F3F3F"/>
<path d="M49.3669 88.4926H48.629L46.8676 86.1333L46.3594 86.5761V88.4926H45.7328V83.5527H46.3594V85.988C46.4986 85.8312 46.6402 85.6744 46.7841 85.5175L47.2157 85.0471L48.5594 83.5527H49.2904L47.3201 85.7043L49.3669 88.4926Z" fill="#3F3F3F"/>
<path fill-rule="evenodd" clip-rule="evenodd" d="M53.3711 83.9055C53.0787 83.6703 52.6238 83.5527 52.0065 83.5527H50.635V88.4926H51.2616V86.4516H52.2502L53.4546 88.4926H54.1856L52.8211 86.2786C52.9882 86.2186 53.146 86.1379 53.2945 86.0364C53.4476 85.9304 53.573 85.7897 53.6704 85.6144C53.7679 85.4391 53.8166 85.22 53.8166 84.9571C53.8166 84.4867 53.6681 84.1361 53.3711 83.9055ZM51.2616 84.0923H51.9717C52.3801 84.0923 52.6818 84.1615 52.8768 84.2999C53.0717 84.4336 53.1692 84.6619 53.1692 84.9848C53.1692 85.2938 53.0763 85.5291 52.8907 85.6905C52.705 85.8473 52.4103 85.9257 52.0065 85.9257H51.2616V84.0923Z" fill="#3F3F3F"/>
<path d="M60.199 88.4926H61.9952V88.1328L61.4104 88.0013V84.0508L61.9952 83.9124V83.5527H60.199V83.9124L60.7838 84.0508V88.0013L60.199 88.1328V88.4926Z" fill="#3F3F3F"/>
<path d="M67.4872 88.4926H66.7562L64.0967 84.3898H64.0689L64.1037 84.9917C64.1176 85.2316 64.1246 85.4783 64.1246 85.732V88.4926H63.5467V83.5527H64.2708L66.9233 87.6416H66.9512L66.9303 87.3095C66.9256 87.1619 66.9187 87.0004 66.9094 86.8252C66.9048 86.6499 66.9024 86.4885 66.9024 86.3409V83.5527H67.4872V88.4926Z" fill="#3F3F3F"/>
<path d="M69.428 88.4926H72.2058V87.946H70.0546V86.1817H72.0805V85.6421H70.0546V84.0992H72.2058V83.5527H69.428V88.4926Z" fill="#3F3F3F"/>
<path fill-rule="evenodd" clip-rule="evenodd" d="M109.746 32.056V88.944L56.4999 117.388L3.25337 88.944V32.056L56.4999 3.61194L109.746 32.056ZM56.4999 8.94286L105.021 34.8629V46.9552H7.97831V34.8629L56.4999 8.94286ZM7.97831 86.1372V74.0448H105.021V86.1372L56.4999 112.057L7.97831 86.1372ZM45.3185 52.7343H42.7103V68.7367H45.3185V52.7343ZM51.6688 66.3701C52.3492 66.3701 54.3904 66.1448 54.3904 63.6655V57.9182H56.9985V68.7367H54.3904V67.8351C53.71 68.5113 52.576 68.7367 51.6688 68.7367C50.4214 68.7367 49.4008 68.3986 48.607 67.6098C47.6999 66.8209 47.2463 65.4686 47.2463 64.0036V57.9182H49.8544V64.1163C49.8544 64.9051 50.0812 66.3701 51.6688 66.3701ZM62.1015 53.9739H59.4933V57.9181H57.5656V60.3974H59.4933V68.7366H62.1015V60.3974H64.0293V57.9181H62.1015V53.9739ZM70.0393 66.2574C70.8331 66.2574 71.6269 65.9194 72.1939 65.4686L72.5341 65.1305L74.3485 66.9336L73.8949 67.2717C72.8743 68.1732 71.5135 68.7367 70.0393 68.7367C66.8642 68.7367 64.4828 66.3701 64.4828 63.2147C64.4828 60.0594 66.8642 57.6928 70.0393 57.6928C71.5135 57.6928 72.8743 58.2563 73.8949 59.1578L74.3485 59.4959L72.5341 61.1863L72.1939 60.8482C71.6269 60.2847 70.8331 60.0594 70.0393 60.0594C68.225 60.0594 66.9776 61.299 66.9776 63.1021C66.9776 64.9051 68.225 66.2574 70.0393 66.2574ZM83.5338 58.8197C82.7401 58.0309 81.9463 57.6928 80.6989 57.6928C79.7917 57.6928 78.8845 57.9182 78.2041 58.5943V52.7343H75.5959V68.7367H78.2041V62.764C78.2041 60.2847 79.9051 60.0593 80.5855 60.0593C82.0778 60.0593 82.0671 61.3538 82.0605 62.1643C82.0601 62.2161 82.0597 62.2659 82.0597 62.3132V68.624H84.6678V62.4259C84.6678 60.9609 84.3276 59.6086 83.5338 58.8197ZM71.7404 63.2148C71.7404 64.2106 70.9281 65.0179 69.9261 65.0179C68.924 65.0179 68.1117 64.2106 68.1117 63.2148C68.1117 62.219 68.924 61.4117 69.9261 61.4117C70.9281 61.4117 71.7404 62.219 71.7404 63.2148ZM39.0815 64.7924C38.1744 65.6939 36.8136 66.2574 35.3394 66.2574C32.5044 66.2574 30.4632 64.0035 30.4632 60.9608C30.4632 57.9181 32.5044 55.6643 35.4528 55.6643C36.8136 55.6643 38.1744 56.2277 39.1949 57.242L39.5351 57.58L41.2361 55.8897L40.8959 55.5516C39.4217 54.0866 37.494 53.2977 35.4528 53.2977C31.1436 53.185 27.9685 56.5658 27.9685 60.9608C27.9685 65.3558 31.1436 68.7366 35.3394 68.7366C37.3806 68.7366 39.4217 67.9478 40.7825 66.4827L41.1227 66.1447L39.4217 64.4543L39.0815 64.7924Z" fill="#3F3F3F"/>
<path fill-rule="evenodd" clip-rule="evenodd" d="M113 30.25V90.75L56.5 121L0 90.75V30.25L56.5 0L113 30.25ZM56.5 1.23083L111.91 30.897V90.103L56.5 119.769L1.09037 90.103V30.8971L56.5 1.23083Z" fill="#3F3F3F"/>
</svg>
