<svg width="113" height="120" viewBox="0 0 113 120" fill="none" xmlns="http://www.w3.org/2000/svg">
<path d="M96.6619 43.3433H15.6109V42.9851H96.6619V43.3433Z" fill="#3f3f3f"/>
<path fill-rule="evenodd" clip-rule="evenodd" d="M60.5488 36.4867C60.7252 36.107 60.8134 35.6633 60.8134 35.1556C60.8134 34.6478 60.7252 34.2064 60.5488 33.8313C60.3771 33.4516 60.1218 33.1589 59.783 32.953C59.4442 32.7426 59.0265 32.6374 58.5298 32.6374C58.01 32.6374 57.5784 32.7426 57.2349 32.953C56.8961 33.1635 56.6431 33.4562 56.4761 33.8313C56.309 34.2064 56.2254 34.6455 56.2254 35.1487C56.2254 35.6565 56.309 36.1002 56.4761 36.4798C56.6431 36.8595 56.8961 37.1545 57.2349 37.365C57.5784 37.5754 58.0077 37.6806 58.5229 37.6806C59.0241 37.6806 59.4442 37.5754 59.783 37.365C60.1218 37.1545 60.3771 36.8618 60.5488 36.4867ZM57.2836 36.6171C57.0191 36.2603 56.8868 35.7731 56.8868 35.1556C56.8868 34.538 57.0191 34.0555 57.2836 33.7078C57.5528 33.3556 57.9682 33.1795 58.5298 33.1795C59.0914 33.1795 59.5022 33.3556 59.7621 33.7078C60.022 34.0555 60.152 34.538 60.152 35.1556C60.152 35.7731 60.022 36.2603 59.7621 36.6171C59.5022 36.9693 59.0891 37.1454 58.5229 37.1454C57.9613 37.1454 57.5482 36.9693 57.2836 36.6171Z" fill="#3f3f3f"/>
<path fill-rule="evenodd" clip-rule="evenodd" d="M36.2982 36.9876C36.7577 36.5667 36.9875 35.9423 36.9875 35.1144C36.9875 34.5884 36.8877 34.1492 36.6881 33.797C36.4885 33.4402 36.2054 33.1703 35.8387 32.9874C35.4721 32.8044 35.0381 32.7129 34.5369 32.7129H33.0052V37.612H34.3907C35.2075 37.612 35.8434 37.4038 36.2982 36.9876ZM35.8318 33.7009C36.1613 34.0028 36.3261 34.4809 36.3261 35.135C36.3261 36.4341 35.6531 37.0836 34.3071 37.0836H33.6318V33.2412H34.4464C35.0451 33.2412 35.5069 33.3945 35.8318 33.7009Z" fill="#3f3f3f"/>
<path d="M38.6825 37.612H41.4603V37.0699H39.3091V35.3202H41.335V34.7851H39.3091V33.2549H41.4603V32.7129H38.6825V37.612Z" fill="#3f3f3f"/>
<path d="M46.6447 32.7129L44.8694 37.612H44.2428L42.4675 32.7129H43.1219L44.2428 35.8554C44.317 36.0567 44.3797 36.2465 44.4308 36.4249C44.4818 36.5988 44.5236 36.7657 44.5561 36.9258C44.5886 36.7657 44.6303 36.5965 44.6814 36.4181C44.7324 36.2397 44.7951 36.0476 44.8694 35.8417L45.9833 32.7129H46.6447Z" fill="#3f3f3f"/>
<path d="M47.909 37.612H50.6869V37.0699H48.5356V35.3202H50.5615V34.7851H48.5356V33.2549H50.6869V32.7129H47.909V37.612Z" fill="#3f3f3f"/>
<path d="M52.3693 37.612V32.7129H52.9959V37.063H55.168V37.612H52.3693Z" fill="#3f3f3f"/>
<path fill-rule="evenodd" clip-rule="evenodd" d="M63.8227 32.7129C64.4725 32.7129 64.9459 32.8387 65.2429 33.0903C65.54 33.3419 65.6885 33.6964 65.6885 34.1538C65.6885 34.4237 65.6258 34.6776 65.5005 34.9154C65.3798 35.1487 65.1733 35.3385 64.8809 35.4849C64.5931 35.6313 64.201 35.7045 63.7043 35.7045H63.1334V37.612H62.5069V32.7129H63.8227ZM63.767 33.2412H63.1334V35.1762H63.6347C64.1081 35.1762 64.4609 35.1007 64.6929 34.9497C64.925 34.7988 65.041 34.5426 65.041 34.1812C65.041 33.8656 64.9389 33.63 64.7347 33.4745C64.5305 33.319 64.2079 33.2412 63.767 33.2412Z" fill="#3f3f3f"/>
<path d="M67.3139 37.612H70.0917V37.0699H67.9405V35.3202H69.9664V34.7851H67.9405V33.2549H70.0917V32.7129H67.3139V37.612Z" fill="#3f3f3f"/>
<path fill-rule="evenodd" clip-rule="evenodd" d="M73.1457 32.7129C73.763 32.7129 74.2178 32.8295 74.5102 33.0628C74.8073 33.2915 74.9558 33.6392 74.9558 34.1058C74.9558 34.3665 74.9071 34.5838 74.8096 34.7576C74.7121 34.9314 74.5868 35.0709 74.4337 35.1762C74.2851 35.2768 74.1273 35.3568 73.9603 35.4163L75.3248 37.612H74.5938L73.3894 35.5878H72.4008V37.612H71.7742V32.7129H73.1457ZM73.1109 33.2481H72.4008V35.0664H73.1457C73.5495 35.0664 73.8442 34.9886 74.0299 34.8331C74.2155 34.673 74.3083 34.4397 74.3083 34.1332C74.3083 33.813 74.2109 33.5866 74.0159 33.4539C73.821 33.3167 73.5193 33.2481 73.1109 33.2481Z" fill="#3f3f3f"/>
<path d="M79.036 37.3169C79.3563 37.0745 79.5164 36.736 79.5164 36.3014C79.5164 36.0453 79.463 35.8326 79.3563 35.6633C79.2542 35.4941 79.101 35.35 78.8968 35.231C78.6972 35.1075 78.4512 34.9932 78.1588 34.888C77.8896 34.7873 77.6761 34.6936 77.5183 34.6067C77.3605 34.5197 77.2468 34.4214 77.1772 34.3116C77.1076 34.2018 77.0727 34.0646 77.0727 33.8999C77.0727 33.6849 77.1516 33.5134 77.3094 33.3853C77.4672 33.2527 77.7016 33.1863 78.0126 33.1863C78.2308 33.1863 78.4396 33.2115 78.6392 33.2618C78.8434 33.3121 79.0314 33.3739 79.2031 33.4471L79.398 32.9187C79.2124 32.8364 79.0058 32.7701 78.7784 32.7198C78.551 32.6694 78.3004 32.6443 78.0265 32.6443C77.7156 32.6443 77.4394 32.6946 77.1981 32.7952C76.9613 32.8959 76.7757 33.04 76.6411 33.2275C76.5065 33.4105 76.4392 33.6323 76.4392 33.8931C76.4392 34.2727 76.546 34.5723 76.7595 34.7919C76.9776 35.0115 77.2978 35.1967 77.7202 35.3477C78.0219 35.4529 78.2563 35.5535 78.4234 35.6496C78.5951 35.7411 78.7158 35.8417 78.7854 35.9515C78.855 36.0613 78.8898 36.1962 78.8898 36.3563C78.8898 36.5988 78.7947 36.7909 78.6044 36.9327C78.4187 37.0745 78.1402 37.1454 77.7689 37.1454C77.5044 37.1454 77.2468 37.1157 76.9962 37.0562C76.7502 36.9967 76.5436 36.9304 76.3765 36.8572V37.4473C76.5343 37.5205 76.7316 37.5777 76.9683 37.6188C77.205 37.66 77.4626 37.6806 77.7411 37.6806C78.2841 37.6806 78.7158 37.5594 79.036 37.3169Z" fill="#3f3f3f"/>
<path fill-rule="evenodd" clip-rule="evenodd" d="M57.7579 24.3076C57.9342 23.9279 58.0224 23.4842 58.0224 22.9765C58.0224 22.4687 57.9342 22.0273 57.7579 21.6522C57.5861 21.2725 57.3309 20.9798 56.992 20.7739C56.6532 20.5635 56.2355 20.4583 55.7389 20.4583C55.2191 20.4583 54.7874 20.5635 54.444 20.7739C54.1051 20.9844 53.8522 21.2771 53.6851 21.6522C53.518 22.0273 53.4345 22.4664 53.4345 22.9696C53.4345 23.4773 53.518 23.9211 53.6851 24.3007C53.8522 24.6804 54.1051 24.9754 54.444 25.1858C54.7874 25.3963 55.2167 25.5015 55.7319 25.5015C56.2332 25.5015 56.6532 25.3963 56.992 25.1858C57.3309 24.9754 57.5861 24.6827 57.7579 24.3076ZM54.4927 24.438C54.2281 24.0812 54.0959 23.594 54.0959 22.9765C54.0959 22.3589 54.2281 21.8763 54.4927 21.5287C54.7619 21.1765 55.1773 21.0004 55.7389 21.0004C56.3005 21.0004 56.7112 21.1765 56.9712 21.5287C57.2311 21.8763 57.361 22.3589 57.361 22.9765C57.361 23.594 57.2311 24.0812 56.9712 24.438C56.7112 24.7902 56.2982 24.9663 55.7319 24.9663C55.1703 24.9663 54.7573 24.7902 54.4927 24.438Z" fill="#3f3f3f"/>
<path d="M50.3076 25.4329H50.9342V21.0758H52.4798V20.5338H48.7551V21.0758H50.3076V25.4329Z" fill="#3f3f3f"/>
<path fill-rule="evenodd" clip-rule="evenodd" d="M61.0317 20.5338C61.6815 20.5338 62.1549 20.6596 62.452 20.9112C62.749 21.1628 62.8975 21.5173 62.8975 21.9747C62.8975 22.2446 62.8349 22.4985 62.7096 22.7363C62.5889 22.9696 62.3824 23.1594 62.09 23.3058C61.8022 23.4522 61.41 23.5254 60.9134 23.5254H60.3425V25.4329H59.7159V20.5338H61.0317ZM60.976 21.0621H60.3425V22.997H60.8438C61.3172 22.997 61.6699 22.9216 61.902 22.7706C62.134 22.6197 62.2501 22.3635 62.2501 22.0021C62.2501 21.6865 62.148 21.4509 61.9438 21.2954C61.7395 21.1399 61.417 21.0621 60.976 21.0621Z" fill="#3f3f3f"/>
<path d="M15.6109 76.6567H96.6619V76.2985H15.6109V76.6567Z" fill="#3f3f3f"/>
<path d="M48.9317 88.5748C49.5708 88.3023 49.8903 87.9315 49.8903 87.4625C49.8903 86.7991 49.5334 86.4674 48.8195 86.4674C48.1057 86.4674 47.7487 86.7991 47.7487 87.4625H47.2388C47.2388 86.4641 47.7657 85.9649 48.8195 85.9649C49.8733 85.9649 50.4002 86.4641 50.4002 87.4625C50.4002 88.1594 49.9674 88.6909 49.1017 89.0572L48.4524 89.3353C47.9833 89.5252 47.7487 89.9093 47.7487 90.4878H50.4002V90.9904H47.2388V90.4878C47.2388 89.6882 47.5867 89.1421 48.2824 88.8495L48.9317 88.5748Z" fill="#3f3f3f"/>
<path fill-rule="evenodd" clip-rule="evenodd" d="M52.1227 88.4776C52.1227 86.8025 52.6836 85.9649 53.8054 85.9649C54.9272 85.9649 55.4881 86.8025 55.4881 88.4776C55.4881 90.1528 54.9272 90.9904 53.8054 90.9904C52.6836 90.9904 52.1227 90.1528 52.1227 88.4776ZM54.9782 88.4776C54.9782 87.1375 54.5872 86.4674 53.8054 86.4674C53.0235 86.4674 52.6326 87.1375 52.6326 88.4776C52.6326 89.8178 53.0235 90.4878 53.8054 90.4878C54.5872 90.4878 54.9782 89.8178 54.9782 88.4776Z" fill="#3f3f3f"/>
<path d="M57.1216 87.3081V86.7661L58.3887 85.9701H58.7159V90.3821H59.809V90.8555H57.0451V90.3821H58.1381V86.6697L57.1216 87.3081Z" fill="#3f3f3f"/>
<path fill-rule="evenodd" clip-rule="evenodd" d="M62.0852 89.7121L61.4982 89.7657C61.5479 90.152 61.6961 90.4524 61.9427 90.6668C62.1893 90.879 62.5071 90.9851 62.8962 90.9851C63.2627 90.9851 63.5816 90.8879 63.8531 90.6936C64.1268 90.4993 64.3327 90.2168 64.4707 89.8461C64.6087 89.4731 64.6777 88.9728 64.6777 88.3453C64.6777 87.7423 64.6075 87.2822 64.4673 86.9651C64.3293 86.6457 64.1257 86.4001 63.8565 86.2281C63.5895 86.0561 63.2943 85.9701 62.9708 85.9701C62.5229 85.9701 62.1497 86.122 61.8511 86.4258C61.5547 86.7295 61.4065 87.1304 61.4065 87.6284C61.4065 88.1108 61.5491 88.4994 61.8341 88.7942C62.1191 89.089 62.4675 89.2364 62.8792 89.2364C63.1258 89.2364 63.3543 89.1772 63.5647 89.0588C63.7773 88.9382 63.9447 88.7819 64.0669 88.5898C64.0691 88.6434 64.0703 88.6836 64.0703 88.7104C64.0703 88.9606 64.0397 89.2062 63.9786 89.4474C63.9176 89.6886 63.8418 89.8807 63.7513 90.0236C63.6608 90.1643 63.5443 90.2771 63.4018 90.362C63.2615 90.4468 63.0975 90.4893 62.9098 90.4893C62.6903 90.4893 62.5105 90.4279 62.3702 90.305C62.23 90.1822 62.135 89.9846 62.0852 89.7121ZM63.7174 86.7741C63.9051 86.9774 63.999 87.2521 63.999 87.5982C63.999 87.9444 63.9074 88.2158 63.7241 88.4123C63.5432 88.6066 63.3113 88.7037 63.0285 88.7037C62.748 88.7037 62.5116 88.6066 62.3193 88.4123C62.1293 88.2158 62.0343 87.9612 62.0343 87.6485C62.0343 87.3001 62.135 87.0165 62.3363 86.7976C62.5376 86.5787 62.774 86.4693 63.0455 86.4693C63.3079 86.4693 63.5319 86.5709 63.7174 86.7741Z" fill="#3f3f3f"/>
<path fill-rule="evenodd" clip-rule="evenodd" d="M109.746 31.791V88.209L56.4999 116.418L3.25337 88.209V31.791L56.4999 3.58209L109.746 31.791ZM56.4999 8.86895L105.021 34.5747V46.5672H7.97831V34.5747L56.4999 8.86895ZM7.97831 85.4253V73.4328H105.021V85.4253L56.4999 111.131L7.97831 85.4253ZM45.3185 52.2985H42.7103V68.1686H45.3185V52.2985ZM51.6688 65.8216C52.3492 65.8216 54.3904 65.5981 54.3904 63.1394V57.4395H56.9985V68.1686H54.3904V67.2745C53.71 67.9451 52.576 68.1686 51.6688 68.1686C50.4214 68.1686 49.4008 67.8333 48.607 67.051C47.6999 66.2687 47.2463 64.9275 47.2463 63.4746V57.4395H49.8544V63.5864C49.8544 64.3687 50.0812 65.8216 51.6688 65.8216ZM62.1015 53.5278H59.4933V57.4395H57.5656V59.8982H59.4933V68.1686H62.1015V59.8982H64.0293V57.4395H62.1015V53.5278ZM70.0393 65.7099C70.8331 65.7099 71.6269 65.3746 72.1939 64.9275L72.5341 64.5922L74.3485 66.3804L73.8949 66.7157C72.8743 67.6098 71.5135 68.1686 70.0393 68.1686C66.8642 68.1686 64.4828 65.8216 64.4828 62.6923C64.4828 59.563 66.8642 57.216 70.0393 57.216C71.5135 57.216 72.8743 57.7748 73.8949 58.6689L74.3485 59.0042L72.5341 60.6806L72.1939 60.3453C71.6269 59.7865 70.8331 59.563 70.0393 59.563C68.225 59.563 66.9776 60.7924 66.9776 62.5805C66.9776 64.3687 68.225 65.7099 70.0393 65.7099ZM83.5338 58.3336C82.7401 57.5513 81.9463 57.216 80.6989 57.216C79.7917 57.216 78.8845 57.4395 78.2041 58.1101V52.2985H75.5959V68.1686H78.2041V62.2453C78.2041 59.7865 79.9051 59.563 80.5855 59.563C82.0778 59.563 82.0671 60.8467 82.0605 61.6506C82.0601 61.7019 82.0597 61.7513 82.0597 61.7982V68.0568H84.6678V61.91C84.6678 60.4571 84.3276 59.1159 83.5338 58.3336ZM71.7404 62.6924C71.7404 63.6799 70.9281 64.4805 69.9261 64.4805C68.924 64.4805 68.1117 63.6799 68.1117 62.6924C68.1117 61.7048 68.924 60.9042 69.9261 60.9042C70.9281 60.9042 71.7404 61.7048 71.7404 62.6924ZM39.0815 64.2569C38.1744 65.151 36.8136 65.7098 35.3394 65.7098C32.5044 65.7098 30.4632 63.4746 30.4632 60.457C30.4632 57.4395 32.5044 55.2042 35.4528 55.2042C36.8136 55.2042 38.1744 55.763 39.1949 56.7689L39.5351 57.1042L41.2361 55.4278L40.8959 55.0925C39.4217 53.6396 37.494 52.8573 35.4528 52.8573C31.1436 52.7455 27.9685 56.0983 27.9685 60.457C27.9685 64.8157 31.1436 68.1685 35.3394 68.1685C37.3806 68.1685 39.4217 67.3862 40.7825 65.9333L41.1227 65.598L39.4217 63.9216L39.0815 64.2569Z" fill="#3f3f3f"/>
<path fill-rule="evenodd" clip-rule="evenodd" d="M113 30V90L56.5 120L0 90V30L56.5 0L113 30ZM56.5 1.22066L111.91 30.6417V89.3583L56.5 118.779L1.09037 89.3583V30.6417L56.5 1.22066Z" fill="#3f3f3f"/>
</svg>
